G04 #@! TF.FileFunction,Copper,L2,Bot,Signal*
%FSLAX46Y46*%
G04 Gerber Fmt 4.6, Leading zero omitted, Abs format (unit mm)*
G04 Created by KiCad (PCBNEW 4.0.7) date Thu Jul 26 17:03:26 2018*
%MOMM*%
%LPD*%
G01*
G04 APERTURE LIST*
%ADD10C,0.100000*%
%ADD11C,1.524000*%
%ADD12R,0.560000X4.000000*%
%ADD13C,6.400000*%
%ADD14R,1.700000X1.700000*%
%ADD15O,1.700000X1.700000*%
%ADD16C,1.500000*%
%ADD17C,0.355600*%
%ADD18C,0.177800*%
%ADD19C,0.254000*%
G04 APERTURE END LIST*
D10*
D11*
X142824200Y-136220200D03*
X142824200Y-91871800D03*
X98475800Y-136296400D03*
X98475800Y-91948000D03*
X98475800Y-147066000D03*
X142824200Y-147066000D03*
X142824200Y-73660000D03*
X98475800Y-73660000D03*
D12*
X102168800Y-167600000D03*
X103438800Y-167600000D03*
X104708800Y-167600000D03*
X105978800Y-167600000D03*
X107248800Y-167600000D03*
X108518800Y-167600000D03*
X109788800Y-167600000D03*
X111058800Y-167600000D03*
X112328800Y-167600000D03*
X113598800Y-167600000D03*
X114868800Y-167600000D03*
X116138800Y-167600000D03*
X117408800Y-167600000D03*
X118678800Y-167600000D03*
X119948800Y-167600000D03*
X121218800Y-167600000D03*
X122488800Y-167600000D03*
X123758800Y-167600000D03*
X125028800Y-167600000D03*
X126298800Y-167600000D03*
X127568800Y-167600000D03*
X128838800Y-167600000D03*
X130108800Y-167600000D03*
X131378800Y-167600000D03*
X132648800Y-167600000D03*
X133918800Y-167600000D03*
X135188800Y-167600000D03*
X136458800Y-167600000D03*
X137728800Y-167600000D03*
X138998800Y-167600000D03*
D13*
X93573600Y-67310000D03*
X147574000Y-67310000D03*
X93573600Y-159334400D03*
X147574000Y-159334400D03*
D14*
X84937600Y-131267200D03*
D15*
X84937600Y-133807200D03*
X84937600Y-136347200D03*
X84937600Y-138887200D03*
X84937600Y-141427200D03*
X84937600Y-143967200D03*
X84937600Y-146507200D03*
X84937600Y-149047200D03*
X84937600Y-151587200D03*
X84937600Y-154127200D03*
X84937600Y-156667200D03*
X84937600Y-159207200D03*
D14*
X124079000Y-65659000D03*
D15*
X126619000Y-65659000D03*
X129159000Y-65659000D03*
X131699000Y-65659000D03*
X134239000Y-65659000D03*
X136779000Y-65659000D03*
D14*
X84963000Y-101092000D03*
D15*
X84963000Y-98552000D03*
X84963000Y-96012000D03*
X84963000Y-93472000D03*
X84963000Y-90932000D03*
X84963000Y-88392000D03*
X84963000Y-85852000D03*
X84963000Y-83312000D03*
X84963000Y-80772000D03*
X84963000Y-78232000D03*
D16*
X163931600Y-160631600D03*
X163931600Y-116431600D03*
D14*
X176784000Y-158394400D03*
D15*
X176784000Y-155854400D03*
X176784000Y-153314400D03*
X176784000Y-150774400D03*
X176784000Y-148234400D03*
X176784000Y-145694400D03*
X176784000Y-143154400D03*
X176784000Y-140614400D03*
X176784000Y-138074400D03*
X176784000Y-135534400D03*
X176784000Y-132994400D03*
X176784000Y-130454400D03*
X176784000Y-127914400D03*
X176784000Y-125374400D03*
X176784000Y-122834400D03*
X176784000Y-120294400D03*
X176784000Y-117754400D03*
D14*
X84963000Y-104013000D03*
D15*
X84963000Y-106553000D03*
X84963000Y-109093000D03*
X84963000Y-111633000D03*
X84963000Y-114173000D03*
X84963000Y-116713000D03*
X84963000Y-119253000D03*
X84963000Y-121793000D03*
X84963000Y-124333000D03*
X84963000Y-126873000D03*
D17*
X118491000Y-164592000D03*
X118618000Y-161671000D03*
X114427000Y-161798000D03*
X114681000Y-157861000D03*
X110617000Y-160782000D03*
X110871000Y-154178000D03*
X108585000Y-159258000D03*
X108712000Y-152527000D03*
X104902000Y-156972000D03*
X106172000Y-155829000D03*
X126619000Y-69850000D03*
X124460000Y-69723000D03*
X125028800Y-167600000D03*
X122488800Y-167600000D03*
X163880800Y-135432800D03*
X99822000Y-96139000D03*
X90551000Y-98552000D03*
X99822000Y-96901000D03*
X93599000Y-96901000D03*
X133477000Y-123444000D03*
X131953000Y-117348000D03*
X108331000Y-146685000D03*
X108077000Y-142494000D03*
X108204000Y-99060000D03*
X104902000Y-87249000D03*
X87376000Y-146558000D03*
X100076000Y-154178000D03*
X104013000Y-161925000D03*
X162560000Y-154381200D03*
X100990400Y-145034000D03*
X162458400Y-151841200D03*
X101803200Y-144881600D03*
X162407600Y-149250400D03*
X103428800Y-144932400D03*
X162407600Y-146710400D03*
X104241600Y-145694400D03*
X105791000Y-145669000D03*
X162560000Y-141732000D03*
X106680000Y-145669000D03*
X162509200Y-139090400D03*
X128270000Y-75946000D03*
X127381000Y-75438000D03*
X99949000Y-98552000D03*
X100076000Y-99314000D03*
X99822000Y-100965000D03*
X99949000Y-101727000D03*
X99949000Y-103378000D03*
X99949000Y-104140000D03*
X99822000Y-105791000D03*
X99949000Y-106553000D03*
X99949000Y-108077000D03*
X99822000Y-108966000D03*
X166420800Y-124002800D03*
X162509200Y-121361200D03*
D18*
X118618000Y-161671000D02*
X118618000Y-164465000D01*
X118618000Y-164465000D02*
X118491000Y-164592000D01*
X114681000Y-157861000D02*
X114681000Y-161544000D01*
X114681000Y-161544000D02*
X114427000Y-161798000D01*
X110871000Y-154178000D02*
X110871000Y-160528000D01*
X110871000Y-160528000D02*
X110617000Y-160782000D01*
X108712000Y-152527000D02*
X108712000Y-159131000D01*
X108712000Y-159131000D02*
X108585000Y-159258000D01*
X106172000Y-155829000D02*
X106045000Y-155829000D01*
X106045000Y-155829000D02*
X104902000Y-156972000D01*
X124460000Y-69723000D02*
X126492000Y-69723000D01*
X126492000Y-69723000D02*
X126619000Y-69850000D01*
X163880800Y-135432800D02*
X163880800Y-135382000D01*
X92964000Y-96139000D02*
X99822000Y-96139000D01*
X90551000Y-98552000D02*
X92964000Y-96139000D01*
X93599000Y-96901000D02*
X99822000Y-96901000D01*
X133477000Y-118872000D02*
X133477000Y-123444000D01*
X131953000Y-117348000D02*
X133477000Y-118872000D01*
X108331000Y-142748000D02*
X108331000Y-146685000D01*
X108077000Y-142494000D02*
X108331000Y-142748000D01*
X108204000Y-90551000D02*
X108204000Y-99060000D01*
X104902000Y-87249000D02*
X108204000Y-90551000D01*
X84937600Y-146507200D02*
X87325200Y-146507200D01*
X87325200Y-146507200D02*
X87376000Y-146558000D01*
X104013000Y-160147000D02*
X104013000Y-161925000D01*
X100076000Y-154178000D02*
X100076000Y-155702000D01*
X100076000Y-155702000D02*
X100076000Y-156210000D01*
X100076000Y-156210000D02*
X104013000Y-160147000D01*
X176225200Y-155803600D02*
X163982400Y-155803600D01*
X163982400Y-155803600D02*
X162560000Y-154381200D01*
X104708800Y-167600000D02*
X104708800Y-157794800D01*
X100990400Y-154076400D02*
X100990400Y-145034000D01*
X104708800Y-157794800D02*
X100990400Y-154076400D01*
X176225200Y-153263600D02*
X163880800Y-153263600D01*
X163880800Y-153263600D02*
X162458400Y-151841200D01*
X107248800Y-167600000D02*
X107248800Y-152308400D01*
X101803200Y-146862800D02*
X101803200Y-144881600D01*
X107248800Y-152308400D02*
X101803200Y-146862800D01*
X176225200Y-150723600D02*
X163880800Y-150723600D01*
X163880800Y-150723600D02*
X162407600Y-149250400D01*
X109788800Y-167600000D02*
X109788800Y-152918000D01*
X103428800Y-146558000D02*
X103428800Y-144932400D01*
X109788800Y-152918000D02*
X103428800Y-146558000D01*
X176225200Y-148183600D02*
X163880800Y-148183600D01*
X163880800Y-148183600D02*
X162407600Y-146710400D01*
X112328800Y-167600000D02*
X112328800Y-154492800D01*
X104241600Y-146405600D02*
X104241600Y-145694400D01*
X112328800Y-154492800D02*
X104241600Y-146405600D01*
X117408800Y-167600000D02*
X117408800Y-157794800D01*
X105791000Y-146177000D02*
X105791000Y-145669000D01*
X117408800Y-157794800D02*
X105791000Y-146177000D01*
X176225200Y-145643600D02*
X166471600Y-145643600D01*
X166471600Y-145643600D02*
X162560000Y-141732000D01*
X119948800Y-167600000D02*
X119948800Y-159191800D01*
X106680000Y-145923000D02*
X106680000Y-145669000D01*
X119948800Y-159191800D02*
X106680000Y-145923000D01*
X176225200Y-143103600D02*
X166522400Y-143103600D01*
X166522400Y-143103600D02*
X162509200Y-139090400D01*
X136779000Y-65659000D02*
X136779000Y-67437000D01*
X136779000Y-67437000D02*
X128270000Y-75946000D01*
X134239000Y-65659000D02*
X134239000Y-68580000D01*
X134239000Y-68580000D02*
X127381000Y-75438000D01*
X84963000Y-104013000D02*
X93091000Y-104013000D01*
X98552000Y-98552000D02*
X99949000Y-98552000D01*
X93091000Y-104013000D02*
X98552000Y-98552000D01*
X84963000Y-106553000D02*
X91440000Y-106553000D01*
X98679000Y-99314000D02*
X100076000Y-99314000D01*
X91440000Y-106553000D02*
X98679000Y-99314000D01*
X84963000Y-109093000D02*
X90678000Y-109093000D01*
X98806000Y-100965000D02*
X99822000Y-100965000D01*
X90678000Y-109093000D02*
X98806000Y-100965000D01*
X84963000Y-111633000D02*
X89154000Y-111633000D01*
X99060000Y-101727000D02*
X99949000Y-101727000D01*
X89154000Y-111633000D02*
X99060000Y-101727000D01*
X84963000Y-114173000D02*
X87757000Y-114173000D01*
X98552000Y-103378000D02*
X99949000Y-103378000D01*
X87757000Y-114173000D02*
X98552000Y-103378000D01*
X84963000Y-116713000D02*
X86106000Y-116713000D01*
X98679000Y-104140000D02*
X99949000Y-104140000D01*
X86106000Y-116713000D02*
X98679000Y-104140000D01*
X84963000Y-119253000D02*
X86995000Y-119253000D01*
X98425000Y-105791000D02*
X99822000Y-105791000D01*
X97409000Y-106807000D02*
X98425000Y-105791000D01*
X97409000Y-108839000D02*
X97409000Y-106807000D01*
X86995000Y-119253000D02*
X97409000Y-108839000D01*
X84963000Y-121793000D02*
X86106000Y-121793000D01*
X99060000Y-106553000D02*
X99949000Y-106553000D01*
X98171000Y-107442000D02*
X99060000Y-106553000D01*
X98171000Y-109728000D02*
X98171000Y-107442000D01*
X86106000Y-121793000D02*
X98171000Y-109728000D01*
X84963000Y-124333000D02*
X98806000Y-110490000D01*
X99441000Y-108077000D02*
X99949000Y-108077000D01*
X98806000Y-108712000D02*
X99441000Y-108077000D01*
X98806000Y-110490000D02*
X98806000Y-108712000D01*
X84963000Y-126873000D02*
X99822000Y-112014000D01*
X99822000Y-112014000D02*
X99822000Y-108966000D01*
X176784000Y-122834400D02*
X167589200Y-122834400D01*
X167589200Y-122834400D02*
X166420800Y-124002800D01*
X176784000Y-120294400D02*
X163576000Y-120294400D01*
X163576000Y-120294400D02*
X162509200Y-121361200D01*
D19*
G36*
X89585800Y-64032200D02*
X91463985Y-64032200D01*
X91404085Y-64056950D01*
X90324341Y-65134811D01*
X89739267Y-66543825D01*
X89737936Y-68069482D01*
X90320550Y-69479515D01*
X91398411Y-70559259D01*
X92807425Y-71144333D01*
X94333082Y-71145664D01*
X95743115Y-70563050D01*
X96822859Y-69485189D01*
X97407933Y-68076175D01*
X97409264Y-66550518D01*
X96826650Y-65140485D01*
X96495744Y-64809000D01*
X122581560Y-64809000D01*
X122581560Y-66509000D01*
X122625838Y-66744317D01*
X122764910Y-66960441D01*
X122977110Y-67105431D01*
X123229000Y-67156440D01*
X124929000Y-67156440D01*
X125164317Y-67112162D01*
X125380441Y-66973090D01*
X125525431Y-66760890D01*
X125539086Y-66693459D01*
X125568946Y-66738147D01*
X126050715Y-67060054D01*
X126619000Y-67173093D01*
X127187285Y-67060054D01*
X127669054Y-66738147D01*
X127889000Y-66408974D01*
X128108946Y-66738147D01*
X128590715Y-67060054D01*
X129159000Y-67173093D01*
X129727285Y-67060054D01*
X130209054Y-66738147D01*
X130429000Y-66408974D01*
X130648946Y-66738147D01*
X131130715Y-67060054D01*
X131699000Y-67173093D01*
X132267285Y-67060054D01*
X132749054Y-66738147D01*
X132969000Y-66408974D01*
X133188946Y-66738147D01*
X133515100Y-66956076D01*
X133515100Y-68280151D01*
X127135095Y-74660155D01*
X126921187Y-74748540D01*
X126692343Y-74976984D01*
X126568341Y-75275615D01*
X126568059Y-75598967D01*
X126691540Y-75897813D01*
X126919984Y-76126657D01*
X127218615Y-76250659D01*
X127516539Y-76250919D01*
X127580540Y-76405813D01*
X127808984Y-76634657D01*
X128107615Y-76758659D01*
X128430967Y-76758941D01*
X128729813Y-76635460D01*
X128958657Y-76407016D01*
X129048073Y-76191677D01*
X131303088Y-73936661D01*
X141426958Y-73936661D01*
X141639190Y-74450303D01*
X142031830Y-74843629D01*
X142545100Y-75056757D01*
X143100861Y-75057242D01*
X143614503Y-74845010D01*
X144007829Y-74452370D01*
X144220957Y-73939100D01*
X144221442Y-73383339D01*
X144009210Y-72869697D01*
X143616570Y-72476371D01*
X143103300Y-72263243D01*
X142547539Y-72262758D01*
X142033897Y-72474990D01*
X141640571Y-72867630D01*
X141427443Y-73380900D01*
X141426958Y-73936661D01*
X131303088Y-73936661D01*
X137290872Y-67948877D01*
X137290875Y-67948875D01*
X137447796Y-67714025D01*
X137502900Y-67437000D01*
X137502900Y-66956076D01*
X137829054Y-66738147D01*
X138150961Y-66256378D01*
X138264000Y-65688093D01*
X138264000Y-65629907D01*
X138150961Y-65061622D01*
X137829054Y-64579853D01*
X137347285Y-64257946D01*
X136779000Y-64144907D01*
X136210715Y-64257946D01*
X135728946Y-64579853D01*
X135509000Y-64909026D01*
X135289054Y-64579853D01*
X134807285Y-64257946D01*
X134239000Y-64144907D01*
X133670715Y-64257946D01*
X133188946Y-64579853D01*
X132969000Y-64909026D01*
X132749054Y-64579853D01*
X132267285Y-64257946D01*
X131699000Y-64144907D01*
X131130715Y-64257946D01*
X130648946Y-64579853D01*
X130429000Y-64909026D01*
X130209054Y-64579853D01*
X129727285Y-64257946D01*
X129159000Y-64144907D01*
X128590715Y-64257946D01*
X128108946Y-64579853D01*
X127889000Y-64909026D01*
X127669054Y-64579853D01*
X127187285Y-64257946D01*
X126619000Y-64144907D01*
X126050715Y-64257946D01*
X125568946Y-64579853D01*
X125541150Y-64621452D01*
X125532162Y-64573683D01*
X125393090Y-64357559D01*
X125180890Y-64212569D01*
X124929000Y-64161560D01*
X123229000Y-64161560D01*
X122993683Y-64205838D01*
X122777559Y-64344910D01*
X122632569Y-64557110D01*
X122581560Y-64809000D01*
X96495744Y-64809000D01*
X95748789Y-64060741D01*
X95680055Y-64032200D01*
X145464385Y-64032200D01*
X145404485Y-64056950D01*
X144324741Y-65134811D01*
X143739667Y-66543825D01*
X143738336Y-68069482D01*
X144320950Y-69479515D01*
X145398811Y-70559259D01*
X146807825Y-71144333D01*
X148333482Y-71145664D01*
X149743515Y-70563050D01*
X150823259Y-69485189D01*
X151408333Y-68076175D01*
X151409664Y-66550518D01*
X150827050Y-65140485D01*
X149749189Y-64060741D01*
X149680455Y-64032200D01*
X151561800Y-64032200D01*
X151689493Y-64006800D01*
X159056000Y-64006800D01*
X159056000Y-162612000D01*
X151536400Y-162612000D01*
X151535395Y-162612200D01*
X149683615Y-162612200D01*
X149743515Y-162587450D01*
X150823259Y-161509589D01*
X151408333Y-160100575D01*
X151409664Y-158574918D01*
X150827050Y-157164885D01*
X149749189Y-156085141D01*
X148340175Y-155500067D01*
X146814518Y-155498736D01*
X145404485Y-156081350D01*
X144324741Y-157159211D01*
X143739667Y-158568225D01*
X143738336Y-160093882D01*
X144320950Y-161503915D01*
X145398811Y-162583659D01*
X145467545Y-162612200D01*
X141193800Y-162612200D01*
X141193800Y-160672582D01*
X141315239Y-160591439D01*
X141465896Y-160365965D01*
X141518800Y-160100000D01*
X141465896Y-159834035D01*
X141315239Y-159608561D01*
X141089765Y-159457904D01*
X140823800Y-159405000D01*
X140498800Y-159405000D01*
X140232835Y-159457904D01*
X140007361Y-159608561D01*
X139856704Y-159834035D01*
X139803800Y-160100000D01*
X139803800Y-165243216D01*
X139742890Y-165148559D01*
X139530690Y-165003569D01*
X139278800Y-164952560D01*
X138718800Y-164952560D01*
X138483483Y-164996838D01*
X138363673Y-165073934D01*
X138260690Y-165003569D01*
X138008800Y-164952560D01*
X137448800Y-164952560D01*
X137213483Y-164996838D01*
X137093673Y-165073934D01*
X136990690Y-165003569D01*
X136738800Y-164952560D01*
X136178800Y-164952560D01*
X135943483Y-164996838D01*
X135823673Y-165073934D01*
X135720690Y-165003569D01*
X135468800Y-164952560D01*
X134908800Y-164952560D01*
X134673483Y-164996838D01*
X134553673Y-165073934D01*
X134450690Y-165003569D01*
X134198800Y-164952560D01*
X133638800Y-164952560D01*
X133403483Y-164996838D01*
X133283673Y-165073934D01*
X133180690Y-165003569D01*
X132928800Y-164952560D01*
X132368800Y-164952560D01*
X132133483Y-164996838D01*
X132013673Y-165073934D01*
X131910690Y-165003569D01*
X131658800Y-164952560D01*
X131098800Y-164952560D01*
X130863483Y-164996838D01*
X130743673Y-165073934D01*
X130640690Y-165003569D01*
X130388800Y-164952560D01*
X129828800Y-164952560D01*
X129593483Y-164996838D01*
X129473673Y-165073934D01*
X129370690Y-165003569D01*
X129118800Y-164952560D01*
X128558800Y-164952560D01*
X128323483Y-164996838D01*
X128203673Y-165073934D01*
X128100690Y-165003569D01*
X127848800Y-164952560D01*
X127288800Y-164952560D01*
X127053483Y-164996838D01*
X126933673Y-165073934D01*
X126830690Y-165003569D01*
X126578800Y-164952560D01*
X126018800Y-164952560D01*
X125783483Y-164996838D01*
X125674069Y-165067244D01*
X125668498Y-165061673D01*
X125435109Y-164965000D01*
X125314550Y-164965000D01*
X125155800Y-165123750D01*
X125155800Y-167473000D01*
X125175800Y-167473000D01*
X125175800Y-167727000D01*
X125155800Y-167727000D01*
X125155800Y-167747000D01*
X124901800Y-167747000D01*
X124901800Y-167727000D01*
X124881800Y-167727000D01*
X124881800Y-167473000D01*
X124901800Y-167473000D01*
X124901800Y-165123750D01*
X124743050Y-164965000D01*
X124622491Y-164965000D01*
X124389102Y-165061673D01*
X124383673Y-165067102D01*
X124290690Y-165003569D01*
X124038800Y-164952560D01*
X123478800Y-164952560D01*
X123243483Y-164996838D01*
X123134069Y-165067244D01*
X123128498Y-165061673D01*
X122895109Y-164965000D01*
X122774550Y-164965000D01*
X122615800Y-165123750D01*
X122615800Y-167473000D01*
X122635800Y-167473000D01*
X122635800Y-167727000D01*
X122615800Y-167727000D01*
X122615800Y-167747000D01*
X122361800Y-167747000D01*
X122361800Y-167727000D01*
X122341800Y-167727000D01*
X122341800Y-167473000D01*
X122361800Y-167473000D01*
X122361800Y-165123750D01*
X122203050Y-164965000D01*
X122082491Y-164965000D01*
X121849102Y-165061673D01*
X121843673Y-165067102D01*
X121750690Y-165003569D01*
X121498800Y-164952560D01*
X120938800Y-164952560D01*
X120703483Y-164996838D01*
X120672700Y-165016646D01*
X120672700Y-159191805D01*
X120672701Y-159191800D01*
X120617597Y-158914776D01*
X120460675Y-158679925D01*
X109989750Y-148209000D01*
X140716000Y-148209000D01*
X140762159Y-148200315D01*
X140804553Y-148173035D01*
X140832994Y-148131410D01*
X140843000Y-148082000D01*
X140843000Y-147342661D01*
X141426958Y-147342661D01*
X141639190Y-147856303D01*
X142031830Y-148249629D01*
X142545100Y-148462757D01*
X143100861Y-148463242D01*
X143614503Y-148251010D01*
X144007829Y-147858370D01*
X144220957Y-147345100D01*
X144221442Y-146789339D01*
X144009210Y-146275697D01*
X143616570Y-145882371D01*
X143103300Y-145669243D01*
X142547539Y-145668758D01*
X142033897Y-145880990D01*
X141640571Y-146273630D01*
X141427443Y-146786900D01*
X141426958Y-147342661D01*
X140843000Y-147342661D01*
X140843000Y-145923000D01*
X140834315Y-145876841D01*
X140807035Y-145834447D01*
X140765410Y-145806006D01*
X140716000Y-145796000D01*
X109054900Y-145796000D01*
X109054900Y-142748000D01*
X108999796Y-142470975D01*
X108861282Y-142263673D01*
X108766460Y-142034187D01*
X108538016Y-141805343D01*
X108239385Y-141681341D01*
X107916033Y-141681059D01*
X107617187Y-141804540D01*
X107388343Y-142032984D01*
X107264341Y-142331615D01*
X107264059Y-142654967D01*
X107387540Y-142953813D01*
X107607100Y-143173757D01*
X107607100Y-145796000D01*
X107576750Y-145796000D01*
X107492763Y-145712013D01*
X107492941Y-145508033D01*
X107369460Y-145209187D01*
X107141016Y-144980343D01*
X106842385Y-144856341D01*
X106519033Y-144856059D01*
X106235171Y-144973349D01*
X105953385Y-144856341D01*
X105630033Y-144856059D01*
X105331187Y-144979540D01*
X105102343Y-145207984D01*
X105010981Y-145428009D01*
X104931060Y-145234587D01*
X104702616Y-145005743D01*
X104403985Y-144881741D01*
X104241645Y-144881599D01*
X104241741Y-144771433D01*
X104118260Y-144472587D01*
X103889816Y-144243743D01*
X103591185Y-144119741D01*
X103267833Y-144119459D01*
X102968987Y-144242940D01*
X102740143Y-144471384D01*
X102616141Y-144770015D01*
X102615859Y-145093367D01*
X102704900Y-145308862D01*
X102704900Y-145796000D01*
X102527100Y-145796000D01*
X102527100Y-145257741D01*
X102615859Y-145043985D01*
X102616141Y-144720633D01*
X102492660Y-144421787D01*
X102264216Y-144192943D01*
X101965585Y-144068941D01*
X101642233Y-144068659D01*
X101343387Y-144192140D01*
X101266736Y-144268657D01*
X101152785Y-144221341D01*
X100829433Y-144221059D01*
X100530587Y-144344540D01*
X100301743Y-144572984D01*
X100177741Y-144871615D01*
X100177459Y-145194967D01*
X100266500Y-145410462D01*
X100266500Y-153377015D01*
X100238385Y-153365341D01*
X99915033Y-153365059D01*
X99616187Y-153488540D01*
X99387343Y-153716984D01*
X99263341Y-154015615D01*
X99263059Y-154338967D01*
X99352100Y-154554462D01*
X99352100Y-156209995D01*
X99352099Y-156210000D01*
X99384084Y-156370796D01*
X99407204Y-156487025D01*
X99510527Y-156641659D01*
X99564125Y-156721875D01*
X103289100Y-160446849D01*
X103289100Y-161548859D01*
X103200341Y-161762615D01*
X103200059Y-162085967D01*
X103323540Y-162384813D01*
X103551984Y-162613657D01*
X103850615Y-162737659D01*
X103984900Y-162737776D01*
X103984900Y-165013278D01*
X103970690Y-165003569D01*
X103718800Y-164952560D01*
X103158800Y-164952560D01*
X102923483Y-164996838D01*
X102803673Y-165073934D01*
X102700690Y-165003569D01*
X102448800Y-164952560D01*
X101888800Y-164952560D01*
X101653483Y-164996838D01*
X101437359Y-165135910D01*
X101343800Y-165272838D01*
X101343800Y-160100000D01*
X101290896Y-159834035D01*
X101140239Y-159608561D01*
X100914765Y-159457904D01*
X100648800Y-159405000D01*
X100323800Y-159405000D01*
X100057835Y-159457904D01*
X99832361Y-159608561D01*
X99681704Y-159834035D01*
X99628800Y-160100000D01*
X99681704Y-160365965D01*
X99832361Y-160591439D01*
X99953800Y-160672582D01*
X99953800Y-162612200D01*
X95683215Y-162612200D01*
X95743115Y-162587450D01*
X96822859Y-161509589D01*
X97407933Y-160100575D01*
X97409264Y-158574918D01*
X96826650Y-157164885D01*
X95748789Y-156085141D01*
X94339775Y-155500067D01*
X92814118Y-155498736D01*
X91404085Y-156081350D01*
X90324341Y-157159211D01*
X89739267Y-158568225D01*
X89737936Y-160093882D01*
X90320550Y-161503915D01*
X91398411Y-162583659D01*
X91467145Y-162612200D01*
X89585800Y-162612200D01*
X89573603Y-162614626D01*
X89560400Y-162612000D01*
X81939200Y-162612000D01*
X81939200Y-133807200D01*
X83423507Y-133807200D01*
X83536546Y-134375485D01*
X83858453Y-134857254D01*
X84187626Y-135077200D01*
X83858453Y-135297146D01*
X83536546Y-135778915D01*
X83423507Y-136347200D01*
X83536546Y-136915485D01*
X83858453Y-137397254D01*
X84187626Y-137617200D01*
X83858453Y-137837146D01*
X83536546Y-138318915D01*
X83423507Y-138887200D01*
X83536546Y-139455485D01*
X83858453Y-139937254D01*
X84187626Y-140157200D01*
X83858453Y-140377146D01*
X83536546Y-140858915D01*
X83423507Y-141427200D01*
X83536546Y-141995485D01*
X83858453Y-142477254D01*
X84187626Y-142697200D01*
X83858453Y-142917146D01*
X83536546Y-143398915D01*
X83423507Y-143967200D01*
X83536546Y-144535485D01*
X83858453Y-145017254D01*
X84187626Y-145237200D01*
X83858453Y-145457146D01*
X83536546Y-145938915D01*
X83423507Y-146507200D01*
X83536546Y-147075485D01*
X83858453Y-147557254D01*
X84187626Y-147777200D01*
X83858453Y-147997146D01*
X83536546Y-148478915D01*
X83423507Y-149047200D01*
X83536546Y-149615485D01*
X83858453Y-150097254D01*
X84187626Y-150317200D01*
X83858453Y-150537146D01*
X83536546Y-151018915D01*
X83423507Y-151587200D01*
X83536546Y-152155485D01*
X83858453Y-152637254D01*
X84187626Y-152857200D01*
X83858453Y-153077146D01*
X83536546Y-153558915D01*
X83423507Y-154127200D01*
X83536546Y-154695485D01*
X83858453Y-155177254D01*
X84187626Y-155397200D01*
X83858453Y-155617146D01*
X83536546Y-156098915D01*
X83423507Y-156667200D01*
X83536546Y-157235485D01*
X83858453Y-157717254D01*
X84187626Y-157937200D01*
X83858453Y-158157146D01*
X83536546Y-158638915D01*
X83423507Y-159207200D01*
X83536546Y-159775485D01*
X83858453Y-160257254D01*
X84340222Y-160579161D01*
X84908507Y-160692200D01*
X84966693Y-160692200D01*
X85534978Y-160579161D01*
X86016747Y-160257254D01*
X86338654Y-159775485D01*
X86451693Y-159207200D01*
X86338654Y-158638915D01*
X86016747Y-158157146D01*
X85687574Y-157937200D01*
X86016747Y-157717254D01*
X86338654Y-157235485D01*
X86451693Y-156667200D01*
X86338654Y-156098915D01*
X86016747Y-155617146D01*
X85687574Y-155397200D01*
X86016747Y-155177254D01*
X86338654Y-154695485D01*
X86451693Y-154127200D01*
X86338654Y-153558915D01*
X86016747Y-153077146D01*
X85687574Y-152857200D01*
X86016747Y-152637254D01*
X86338654Y-152155485D01*
X86451693Y-151587200D01*
X86338654Y-151018915D01*
X86016747Y-150537146D01*
X85687574Y-150317200D01*
X86016747Y-150097254D01*
X86338654Y-149615485D01*
X86451693Y-149047200D01*
X86338654Y-148478915D01*
X86016747Y-147997146D01*
X85687574Y-147777200D01*
X86016747Y-147557254D01*
X86234676Y-147231100D01*
X86899454Y-147231100D01*
X86914984Y-147246657D01*
X87213615Y-147370659D01*
X87536967Y-147370941D01*
X87605409Y-147342661D01*
X97078558Y-147342661D01*
X97290790Y-147856303D01*
X97683430Y-148249629D01*
X98196700Y-148462757D01*
X98752461Y-148463242D01*
X99266103Y-148251010D01*
X99659429Y-147858370D01*
X99872557Y-147345100D01*
X99873042Y-146789339D01*
X99660810Y-146275697D01*
X99268170Y-145882371D01*
X98754900Y-145669243D01*
X98199139Y-145668758D01*
X97685497Y-145880990D01*
X97292171Y-146273630D01*
X97079043Y-146786900D01*
X97078558Y-147342661D01*
X87605409Y-147342661D01*
X87835813Y-147247460D01*
X88064657Y-147019016D01*
X88188659Y-146720385D01*
X88188941Y-146397033D01*
X88065460Y-146098187D01*
X87837016Y-145869343D01*
X87538385Y-145745341D01*
X87215033Y-145745059D01*
X87122483Y-145783300D01*
X86234676Y-145783300D01*
X86016747Y-145457146D01*
X85687574Y-145237200D01*
X86016747Y-145017254D01*
X86338654Y-144535485D01*
X86451693Y-143967200D01*
X86338654Y-143398915D01*
X86016747Y-142917146D01*
X85687574Y-142697200D01*
X86016747Y-142477254D01*
X86338654Y-141995485D01*
X86451693Y-141427200D01*
X86338654Y-140858915D01*
X86016747Y-140377146D01*
X85687574Y-140157200D01*
X86016747Y-139937254D01*
X86338654Y-139455485D01*
X86451693Y-138887200D01*
X86338654Y-138318915D01*
X86016747Y-137837146D01*
X85687574Y-137617200D01*
X86016747Y-137397254D01*
X86338654Y-136915485D01*
X86406766Y-136573061D01*
X97078558Y-136573061D01*
X97290790Y-137086703D01*
X97683430Y-137480029D01*
X98196700Y-137693157D01*
X98752461Y-137693642D01*
X99266103Y-137481410D01*
X99659429Y-137088770D01*
X99872557Y-136575500D01*
X99872625Y-136496861D01*
X141426958Y-136496861D01*
X141639190Y-137010503D01*
X142031830Y-137403829D01*
X142545100Y-137616957D01*
X143100861Y-137617442D01*
X143614503Y-137405210D01*
X144007829Y-137012570D01*
X144220957Y-136499300D01*
X144221442Y-135943539D01*
X144009210Y-135429897D01*
X143616570Y-135036571D01*
X143103300Y-134823443D01*
X142547539Y-134822958D01*
X142033897Y-135035190D01*
X141640571Y-135427830D01*
X141427443Y-135941100D01*
X141426958Y-136496861D01*
X99872625Y-136496861D01*
X99873042Y-136019739D01*
X99660810Y-135506097D01*
X99268170Y-135112771D01*
X98754900Y-134899643D01*
X98199139Y-134899158D01*
X97685497Y-135111390D01*
X97292171Y-135504030D01*
X97079043Y-136017300D01*
X97078558Y-136573061D01*
X86406766Y-136573061D01*
X86451693Y-136347200D01*
X86338654Y-135778915D01*
X86016747Y-135297146D01*
X85687574Y-135077200D01*
X86016747Y-134857254D01*
X86338654Y-134375485D01*
X86451693Y-133807200D01*
X86338654Y-133238915D01*
X86016747Y-132757146D01*
X85975148Y-132729350D01*
X86022917Y-132720362D01*
X86239041Y-132581290D01*
X86384031Y-132369090D01*
X86435040Y-132117200D01*
X86435040Y-130417200D01*
X86390762Y-130181883D01*
X86251690Y-129965759D01*
X86039490Y-129820769D01*
X85787600Y-129769760D01*
X84087600Y-129769760D01*
X83852283Y-129814038D01*
X83636159Y-129953110D01*
X83491169Y-130165310D01*
X83440160Y-130417200D01*
X83440160Y-132117200D01*
X83484438Y-132352517D01*
X83623510Y-132568641D01*
X83835710Y-132713631D01*
X83903141Y-132727286D01*
X83858453Y-132757146D01*
X83536546Y-133238915D01*
X83423507Y-133807200D01*
X81939200Y-133807200D01*
X81939200Y-106553000D01*
X83448907Y-106553000D01*
X83561946Y-107121285D01*
X83883853Y-107603054D01*
X84213026Y-107823000D01*
X83883853Y-108042946D01*
X83561946Y-108524715D01*
X83448907Y-109093000D01*
X83561946Y-109661285D01*
X83883853Y-110143054D01*
X84213026Y-110363000D01*
X83883853Y-110582946D01*
X83561946Y-111064715D01*
X83448907Y-111633000D01*
X83561946Y-112201285D01*
X83883853Y-112683054D01*
X84213026Y-112903000D01*
X83883853Y-113122946D01*
X83561946Y-113604715D01*
X83448907Y-114173000D01*
X83561946Y-114741285D01*
X83883853Y-115223054D01*
X84213026Y-115443000D01*
X83883853Y-115662946D01*
X83561946Y-116144715D01*
X83448907Y-116713000D01*
X83561946Y-117281285D01*
X83883853Y-117763054D01*
X84213026Y-117983000D01*
X83883853Y-118202946D01*
X83561946Y-118684715D01*
X83448907Y-119253000D01*
X83561946Y-119821285D01*
X83883853Y-120303054D01*
X84213026Y-120523000D01*
X83883853Y-120742946D01*
X83561946Y-121224715D01*
X83448907Y-121793000D01*
X83561946Y-122361285D01*
X83883853Y-122843054D01*
X84213026Y-123063000D01*
X83883853Y-123282946D01*
X83561946Y-123764715D01*
X83448907Y-124333000D01*
X83561946Y-124901285D01*
X83883853Y-125383054D01*
X84213026Y-125603000D01*
X83883853Y-125822946D01*
X83561946Y-126304715D01*
X83448907Y-126873000D01*
X83561946Y-127441285D01*
X83883853Y-127923054D01*
X84365622Y-128244961D01*
X84933907Y-128358000D01*
X84992093Y-128358000D01*
X85560378Y-128244961D01*
X86042147Y-127923054D01*
X86364054Y-127441285D01*
X86477093Y-126873000D01*
X86395740Y-126464010D01*
X95350782Y-117508967D01*
X131140059Y-117508967D01*
X131263540Y-117807813D01*
X131491984Y-118036657D01*
X131707324Y-118126074D01*
X132753100Y-119171849D01*
X132753100Y-123067859D01*
X132664341Y-123281615D01*
X132664059Y-123604967D01*
X132787540Y-123903813D01*
X133015984Y-124132657D01*
X133314615Y-124256659D01*
X133637967Y-124256941D01*
X133936813Y-124133460D01*
X134165657Y-123905016D01*
X134289659Y-123606385D01*
X134289941Y-123283033D01*
X134200900Y-123067538D01*
X134200900Y-118872000D01*
X134145796Y-118594975D01*
X133988875Y-118360125D01*
X133988872Y-118360123D01*
X132730846Y-117102096D01*
X132642460Y-116888187D01*
X132414016Y-116659343D01*
X132115385Y-116535341D01*
X131792033Y-116535059D01*
X131493187Y-116658540D01*
X131264343Y-116886984D01*
X131140341Y-117185615D01*
X131140059Y-117508967D01*
X95350782Y-117508967D01*
X100333872Y-112525877D01*
X100333875Y-112525875D01*
X100490796Y-112291025D01*
X100545900Y-112014000D01*
X100545900Y-109342141D01*
X100634659Y-109128385D01*
X100634941Y-108805033D01*
X100557623Y-108617910D01*
X100637657Y-108538016D01*
X100761659Y-108239385D01*
X100761941Y-107916033D01*
X100638460Y-107617187D01*
X100410016Y-107388343D01*
X100233320Y-107314973D01*
X100408813Y-107242460D01*
X100637657Y-107014016D01*
X100761659Y-106715385D01*
X100761941Y-106392033D01*
X100638460Y-106093187D01*
X100594778Y-106049429D01*
X100634659Y-105953385D01*
X100634941Y-105630033D01*
X100511460Y-105331187D01*
X100283016Y-105102343D01*
X99984385Y-104978341D01*
X99661033Y-104978059D01*
X99445538Y-105067100D01*
X98775650Y-105067100D01*
X98978850Y-104863900D01*
X99572859Y-104863900D01*
X99786615Y-104952659D01*
X100109967Y-104952941D01*
X100408813Y-104829460D01*
X100637657Y-104601016D01*
X100761659Y-104302385D01*
X100761941Y-103979033D01*
X100670954Y-103758828D01*
X100761659Y-103540385D01*
X100761941Y-103217033D01*
X100638460Y-102918187D01*
X100410016Y-102689343D01*
X100111385Y-102565341D01*
X99788033Y-102565059D01*
X99572538Y-102654100D01*
X99156649Y-102654100D01*
X99359849Y-102450900D01*
X99572859Y-102450900D01*
X99786615Y-102539659D01*
X100109967Y-102539941D01*
X100408813Y-102416460D01*
X100637657Y-102188016D01*
X100761659Y-101889385D01*
X100761941Y-101566033D01*
X100638460Y-101267187D01*
X100594778Y-101223429D01*
X100634659Y-101127385D01*
X100634941Y-100804033D01*
X100511460Y-100505187D01*
X100283016Y-100276343D01*
X99984385Y-100152341D01*
X99661033Y-100152059D01*
X99445538Y-100241100D01*
X98806005Y-100241100D01*
X98806000Y-100241099D01*
X98768115Y-100248635D01*
X98978850Y-100037900D01*
X99699859Y-100037900D01*
X99913615Y-100126659D01*
X100236967Y-100126941D01*
X100535813Y-100003460D01*
X100764657Y-99775016D01*
X100888659Y-99476385D01*
X100888941Y-99153033D01*
X100765460Y-98854187D01*
X100721778Y-98810429D01*
X100761659Y-98714385D01*
X100761941Y-98391033D01*
X100638460Y-98092187D01*
X100410016Y-97863343D01*
X100111385Y-97739341D01*
X99788033Y-97739059D01*
X99572538Y-97828100D01*
X98552000Y-97828100D01*
X98274975Y-97883204D01*
X98040125Y-98040125D01*
X98040123Y-98040128D01*
X92791150Y-103289100D01*
X86460440Y-103289100D01*
X86460440Y-103163000D01*
X86416162Y-102927683D01*
X86277090Y-102711559D01*
X86064890Y-102566569D01*
X85997458Y-102552914D01*
X86172698Y-102480327D01*
X86351327Y-102301699D01*
X86448000Y-102068310D01*
X86448000Y-101377750D01*
X86289250Y-101219000D01*
X85090000Y-101219000D01*
X85090000Y-101239000D01*
X84836000Y-101239000D01*
X84836000Y-101219000D01*
X83636750Y-101219000D01*
X83478000Y-101377750D01*
X83478000Y-102068310D01*
X83574673Y-102301699D01*
X83753302Y-102480327D01*
X83924150Y-102551095D01*
X83877683Y-102559838D01*
X83661559Y-102698910D01*
X83516569Y-102911110D01*
X83465560Y-103163000D01*
X83465560Y-104863000D01*
X83509838Y-105098317D01*
X83648910Y-105314441D01*
X83861110Y-105459431D01*
X83928541Y-105473086D01*
X83883853Y-105502946D01*
X83561946Y-105984715D01*
X83448907Y-106553000D01*
X81939200Y-106553000D01*
X81939200Y-78232000D01*
X83448907Y-78232000D01*
X83561946Y-78800285D01*
X83883853Y-79282054D01*
X84213026Y-79502000D01*
X83883853Y-79721946D01*
X83561946Y-80203715D01*
X83448907Y-80772000D01*
X83561946Y-81340285D01*
X83883853Y-81822054D01*
X84213026Y-82042000D01*
X83883853Y-82261946D01*
X83561946Y-82743715D01*
X83448907Y-83312000D01*
X83561946Y-83880285D01*
X83883853Y-84362054D01*
X84213026Y-84582000D01*
X83883853Y-84801946D01*
X83561946Y-85283715D01*
X83448907Y-85852000D01*
X83561946Y-86420285D01*
X83883853Y-86902054D01*
X84213026Y-87122000D01*
X83883853Y-87341946D01*
X83561946Y-87823715D01*
X83448907Y-88392000D01*
X83561946Y-88960285D01*
X83883853Y-89442054D01*
X84213026Y-89662000D01*
X83883853Y-89881946D01*
X83561946Y-90363715D01*
X83448907Y-90932000D01*
X83561946Y-91500285D01*
X83883853Y-91982054D01*
X84213026Y-92202000D01*
X83883853Y-92421946D01*
X83561946Y-92903715D01*
X83448907Y-93472000D01*
X83561946Y-94040285D01*
X83883853Y-94522054D01*
X84213026Y-94742000D01*
X83883853Y-94961946D01*
X83561946Y-95443715D01*
X83448907Y-96012000D01*
X83561946Y-96580285D01*
X83883853Y-97062054D01*
X84213026Y-97282000D01*
X83883853Y-97501946D01*
X83561946Y-97983715D01*
X83448907Y-98552000D01*
X83561946Y-99120285D01*
X83883853Y-99602054D01*
X83927777Y-99631403D01*
X83753302Y-99703673D01*
X83574673Y-99882301D01*
X83478000Y-100115690D01*
X83478000Y-100806250D01*
X83636750Y-100965000D01*
X84836000Y-100965000D01*
X84836000Y-100945000D01*
X85090000Y-100945000D01*
X85090000Y-100965000D01*
X86289250Y-100965000D01*
X86448000Y-100806250D01*
X86448000Y-100115690D01*
X86351327Y-99882301D01*
X86172698Y-99703673D01*
X85998223Y-99631403D01*
X86042147Y-99602054D01*
X86364054Y-99120285D01*
X86445074Y-98712967D01*
X89738059Y-98712967D01*
X89861540Y-99011813D01*
X90089984Y-99240657D01*
X90388615Y-99364659D01*
X90711967Y-99364941D01*
X91010813Y-99241460D01*
X91239657Y-99013016D01*
X91329074Y-98797676D01*
X92867553Y-97259196D01*
X92909540Y-97360813D01*
X93137984Y-97589657D01*
X93436615Y-97713659D01*
X93759967Y-97713941D01*
X93975462Y-97624900D01*
X99445859Y-97624900D01*
X99659615Y-97713659D01*
X99982967Y-97713941D01*
X100281813Y-97590460D01*
X100510657Y-97362016D01*
X100634659Y-97063385D01*
X100634941Y-96740033D01*
X100543954Y-96519828D01*
X100634659Y-96301385D01*
X100634941Y-95978033D01*
X100511460Y-95679187D01*
X100283016Y-95450343D01*
X99984385Y-95326341D01*
X99661033Y-95326059D01*
X99445538Y-95415100D01*
X92964000Y-95415100D01*
X92686975Y-95470204D01*
X92452125Y-95627125D01*
X92452123Y-95627128D01*
X90305096Y-97774155D01*
X90091187Y-97862540D01*
X89862343Y-98090984D01*
X89738341Y-98389615D01*
X89738059Y-98712967D01*
X86445074Y-98712967D01*
X86477093Y-98552000D01*
X86364054Y-97983715D01*
X86042147Y-97501946D01*
X85712974Y-97282000D01*
X86042147Y-97062054D01*
X86364054Y-96580285D01*
X86477093Y-96012000D01*
X86364054Y-95443715D01*
X86042147Y-94961946D01*
X85712974Y-94742000D01*
X86042147Y-94522054D01*
X86364054Y-94040285D01*
X86477093Y-93472000D01*
X86364054Y-92903715D01*
X86042147Y-92421946D01*
X85746889Y-92224661D01*
X97078558Y-92224661D01*
X97290790Y-92738303D01*
X97683430Y-93131629D01*
X98196700Y-93344757D01*
X98752461Y-93345242D01*
X99266103Y-93133010D01*
X99659429Y-92740370D01*
X99872557Y-92227100D01*
X99873042Y-91671339D01*
X99660810Y-91157697D01*
X99268170Y-90764371D01*
X98754900Y-90551243D01*
X98199139Y-90550758D01*
X97685497Y-90762990D01*
X97292171Y-91155630D01*
X97079043Y-91668900D01*
X97078558Y-92224661D01*
X85746889Y-92224661D01*
X85712974Y-92202000D01*
X86042147Y-91982054D01*
X86364054Y-91500285D01*
X86477093Y-90932000D01*
X86364054Y-90363715D01*
X86042147Y-89881946D01*
X85712974Y-89662000D01*
X86042147Y-89442054D01*
X86364054Y-88960285D01*
X86477093Y-88392000D01*
X86364054Y-87823715D01*
X86087598Y-87409967D01*
X104089059Y-87409967D01*
X104212540Y-87708813D01*
X104440984Y-87937657D01*
X104656324Y-88027073D01*
X107480100Y-90850849D01*
X107480100Y-98683859D01*
X107391341Y-98897615D01*
X107391059Y-99220967D01*
X107514540Y-99519813D01*
X107742984Y-99748657D01*
X108041615Y-99872659D01*
X108364967Y-99872941D01*
X108663813Y-99749460D01*
X108892657Y-99521016D01*
X109016659Y-99222385D01*
X109016941Y-98899033D01*
X108927900Y-98683538D01*
X108927900Y-92148461D01*
X141426958Y-92148461D01*
X141639190Y-92662103D01*
X142031830Y-93055429D01*
X142545100Y-93268557D01*
X143100861Y-93269042D01*
X143614503Y-93056810D01*
X144007829Y-92664170D01*
X144220957Y-92150900D01*
X144221442Y-91595139D01*
X144009210Y-91081497D01*
X143616570Y-90688171D01*
X143103300Y-90475043D01*
X142547539Y-90474558D01*
X142033897Y-90686790D01*
X141640571Y-91079430D01*
X141427443Y-91592700D01*
X141426958Y-92148461D01*
X108927900Y-92148461D01*
X108927900Y-90551000D01*
X108872796Y-90273975D01*
X108715875Y-90039125D01*
X108715872Y-90039123D01*
X105679845Y-87003096D01*
X105591460Y-86789187D01*
X105363016Y-86560343D01*
X105064385Y-86436341D01*
X104741033Y-86436059D01*
X104442187Y-86559540D01*
X104213343Y-86787984D01*
X104089341Y-87086615D01*
X104089059Y-87409967D01*
X86087598Y-87409967D01*
X86042147Y-87341946D01*
X85712974Y-87122000D01*
X86042147Y-86902054D01*
X86364054Y-86420285D01*
X86477093Y-85852000D01*
X86364054Y-85283715D01*
X86042147Y-84801946D01*
X85712974Y-84582000D01*
X86042147Y-84362054D01*
X86364054Y-83880285D01*
X86477093Y-83312000D01*
X86364054Y-82743715D01*
X86042147Y-82261946D01*
X85712974Y-82042000D01*
X86042147Y-81822054D01*
X86364054Y-81340285D01*
X86477093Y-80772000D01*
X86364054Y-80203715D01*
X86042147Y-79721946D01*
X85712974Y-79502000D01*
X86042147Y-79282054D01*
X86364054Y-78800285D01*
X86477093Y-78232000D01*
X86364054Y-77663715D01*
X86042147Y-77181946D01*
X85560378Y-76860039D01*
X84992093Y-76747000D01*
X84933907Y-76747000D01*
X84365622Y-76860039D01*
X83883853Y-77181946D01*
X83561946Y-77663715D01*
X83448907Y-78232000D01*
X81939200Y-78232000D01*
X81939200Y-73936661D01*
X97078558Y-73936661D01*
X97290790Y-74450303D01*
X97683430Y-74843629D01*
X98196700Y-75056757D01*
X98752461Y-75057242D01*
X99266103Y-74845010D01*
X99659429Y-74452370D01*
X99872557Y-73939100D01*
X99873042Y-73383339D01*
X99660810Y-72869697D01*
X99268170Y-72476371D01*
X98754900Y-72263243D01*
X98199139Y-72262758D01*
X97685497Y-72474990D01*
X97292171Y-72867630D01*
X97079043Y-73380900D01*
X97078558Y-73936661D01*
X81939200Y-73936661D01*
X81939200Y-64006800D01*
X89458107Y-64006800D01*
X89585800Y-64032200D01*
X89585800Y-64032200D01*
G37*
X89585800Y-64032200D02*
X91463985Y-64032200D01*
X91404085Y-64056950D01*
X90324341Y-65134811D01*
X89739267Y-66543825D01*
X89737936Y-68069482D01*
X90320550Y-69479515D01*
X91398411Y-70559259D01*
X92807425Y-71144333D01*
X94333082Y-71145664D01*
X95743115Y-70563050D01*
X96822859Y-69485189D01*
X97407933Y-68076175D01*
X97409264Y-66550518D01*
X96826650Y-65140485D01*
X96495744Y-64809000D01*
X122581560Y-64809000D01*
X122581560Y-66509000D01*
X122625838Y-66744317D01*
X122764910Y-66960441D01*
X122977110Y-67105431D01*
X123229000Y-67156440D01*
X124929000Y-67156440D01*
X125164317Y-67112162D01*
X125380441Y-66973090D01*
X125525431Y-66760890D01*
X125539086Y-66693459D01*
X125568946Y-66738147D01*
X126050715Y-67060054D01*
X126619000Y-67173093D01*
X127187285Y-67060054D01*
X127669054Y-66738147D01*
X127889000Y-66408974D01*
X128108946Y-66738147D01*
X128590715Y-67060054D01*
X129159000Y-67173093D01*
X129727285Y-67060054D01*
X130209054Y-66738147D01*
X130429000Y-66408974D01*
X130648946Y-66738147D01*
X131130715Y-67060054D01*
X131699000Y-67173093D01*
X132267285Y-67060054D01*
X132749054Y-66738147D01*
X132969000Y-66408974D01*
X133188946Y-66738147D01*
X133515100Y-66956076D01*
X133515100Y-68280151D01*
X127135095Y-74660155D01*
X126921187Y-74748540D01*
X126692343Y-74976984D01*
X126568341Y-75275615D01*
X126568059Y-75598967D01*
X126691540Y-75897813D01*
X126919984Y-76126657D01*
X127218615Y-76250659D01*
X127516539Y-76250919D01*
X127580540Y-76405813D01*
X127808984Y-76634657D01*
X128107615Y-76758659D01*
X128430967Y-76758941D01*
X128729813Y-76635460D01*
X128958657Y-76407016D01*
X129048073Y-76191677D01*
X131303088Y-73936661D01*
X141426958Y-73936661D01*
X141639190Y-74450303D01*
X142031830Y-74843629D01*
X142545100Y-75056757D01*
X143100861Y-75057242D01*
X143614503Y-74845010D01*
X144007829Y-74452370D01*
X144220957Y-73939100D01*
X144221442Y-73383339D01*
X144009210Y-72869697D01*
X143616570Y-72476371D01*
X143103300Y-72263243D01*
X142547539Y-72262758D01*
X142033897Y-72474990D01*
X141640571Y-72867630D01*
X141427443Y-73380900D01*
X141426958Y-73936661D01*
X131303088Y-73936661D01*
X137290872Y-67948877D01*
X137290875Y-67948875D01*
X137447796Y-67714025D01*
X137502900Y-67437000D01*
X137502900Y-66956076D01*
X137829054Y-66738147D01*
X138150961Y-66256378D01*
X138264000Y-65688093D01*
X138264000Y-65629907D01*
X138150961Y-65061622D01*
X137829054Y-64579853D01*
X137347285Y-64257946D01*
X136779000Y-64144907D01*
X136210715Y-64257946D01*
X135728946Y-64579853D01*
X135509000Y-64909026D01*
X135289054Y-64579853D01*
X134807285Y-64257946D01*
X134239000Y-64144907D01*
X133670715Y-64257946D01*
X133188946Y-64579853D01*
X132969000Y-64909026D01*
X132749054Y-64579853D01*
X132267285Y-64257946D01*
X131699000Y-64144907D01*
X131130715Y-64257946D01*
X130648946Y-64579853D01*
X130429000Y-64909026D01*
X130209054Y-64579853D01*
X129727285Y-64257946D01*
X129159000Y-64144907D01*
X128590715Y-64257946D01*
X128108946Y-64579853D01*
X127889000Y-64909026D01*
X127669054Y-64579853D01*
X127187285Y-64257946D01*
X126619000Y-64144907D01*
X126050715Y-64257946D01*
X125568946Y-64579853D01*
X125541150Y-64621452D01*
X125532162Y-64573683D01*
X125393090Y-64357559D01*
X125180890Y-64212569D01*
X124929000Y-64161560D01*
X123229000Y-64161560D01*
X122993683Y-64205838D01*
X122777559Y-64344910D01*
X122632569Y-64557110D01*
X122581560Y-64809000D01*
X96495744Y-64809000D01*
X95748789Y-64060741D01*
X95680055Y-64032200D01*
X145464385Y-64032200D01*
X145404485Y-64056950D01*
X144324741Y-65134811D01*
X143739667Y-66543825D01*
X143738336Y-68069482D01*
X144320950Y-69479515D01*
X145398811Y-70559259D01*
X146807825Y-71144333D01*
X148333482Y-71145664D01*
X149743515Y-70563050D01*
X150823259Y-69485189D01*
X151408333Y-68076175D01*
X151409664Y-66550518D01*
X150827050Y-65140485D01*
X149749189Y-64060741D01*
X149680455Y-64032200D01*
X151561800Y-64032200D01*
X151689493Y-64006800D01*
X159056000Y-64006800D01*
X159056000Y-162612000D01*
X151536400Y-162612000D01*
X151535395Y-162612200D01*
X149683615Y-162612200D01*
X149743515Y-162587450D01*
X150823259Y-161509589D01*
X151408333Y-160100575D01*
X151409664Y-158574918D01*
X150827050Y-157164885D01*
X149749189Y-156085141D01*
X148340175Y-155500067D01*
X146814518Y-155498736D01*
X145404485Y-156081350D01*
X144324741Y-157159211D01*
X143739667Y-158568225D01*
X143738336Y-160093882D01*
X144320950Y-161503915D01*
X145398811Y-162583659D01*
X145467545Y-162612200D01*
X141193800Y-162612200D01*
X141193800Y-160672582D01*
X141315239Y-160591439D01*
X141465896Y-160365965D01*
X141518800Y-160100000D01*
X141465896Y-159834035D01*
X141315239Y-159608561D01*
X141089765Y-159457904D01*
X140823800Y-159405000D01*
X140498800Y-159405000D01*
X140232835Y-159457904D01*
X140007361Y-159608561D01*
X139856704Y-159834035D01*
X139803800Y-160100000D01*
X139803800Y-165243216D01*
X139742890Y-165148559D01*
X139530690Y-165003569D01*
X139278800Y-164952560D01*
X138718800Y-164952560D01*
X138483483Y-164996838D01*
X138363673Y-165073934D01*
X138260690Y-165003569D01*
X138008800Y-164952560D01*
X137448800Y-164952560D01*
X137213483Y-164996838D01*
X137093673Y-165073934D01*
X136990690Y-165003569D01*
X136738800Y-164952560D01*
X136178800Y-164952560D01*
X135943483Y-164996838D01*
X135823673Y-165073934D01*
X135720690Y-165003569D01*
X135468800Y-164952560D01*
X134908800Y-164952560D01*
X134673483Y-164996838D01*
X134553673Y-165073934D01*
X134450690Y-165003569D01*
X134198800Y-164952560D01*
X133638800Y-164952560D01*
X133403483Y-164996838D01*
X133283673Y-165073934D01*
X133180690Y-165003569D01*
X132928800Y-164952560D01*
X132368800Y-164952560D01*
X132133483Y-164996838D01*
X132013673Y-165073934D01*
X131910690Y-165003569D01*
X131658800Y-164952560D01*
X131098800Y-164952560D01*
X130863483Y-164996838D01*
X130743673Y-165073934D01*
X130640690Y-165003569D01*
X130388800Y-164952560D01*
X129828800Y-164952560D01*
X129593483Y-164996838D01*
X129473673Y-165073934D01*
X129370690Y-165003569D01*
X129118800Y-164952560D01*
X128558800Y-164952560D01*
X128323483Y-164996838D01*
X128203673Y-165073934D01*
X128100690Y-165003569D01*
X127848800Y-164952560D01*
X127288800Y-164952560D01*
X127053483Y-164996838D01*
X126933673Y-165073934D01*
X126830690Y-165003569D01*
X126578800Y-164952560D01*
X126018800Y-164952560D01*
X125783483Y-164996838D01*
X125674069Y-165067244D01*
X125668498Y-165061673D01*
X125435109Y-164965000D01*
X125314550Y-164965000D01*
X125155800Y-165123750D01*
X125155800Y-167473000D01*
X125175800Y-167473000D01*
X125175800Y-167727000D01*
X125155800Y-167727000D01*
X125155800Y-167747000D01*
X124901800Y-167747000D01*
X124901800Y-167727000D01*
X124881800Y-167727000D01*
X124881800Y-167473000D01*
X124901800Y-167473000D01*
X124901800Y-165123750D01*
X124743050Y-164965000D01*
X124622491Y-164965000D01*
X124389102Y-165061673D01*
X124383673Y-165067102D01*
X124290690Y-165003569D01*
X124038800Y-164952560D01*
X123478800Y-164952560D01*
X123243483Y-164996838D01*
X123134069Y-165067244D01*
X123128498Y-165061673D01*
X122895109Y-164965000D01*
X122774550Y-164965000D01*
X122615800Y-165123750D01*
X122615800Y-167473000D01*
X122635800Y-167473000D01*
X122635800Y-167727000D01*
X122615800Y-167727000D01*
X122615800Y-167747000D01*
X122361800Y-167747000D01*
X122361800Y-167727000D01*
X122341800Y-167727000D01*
X122341800Y-167473000D01*
X122361800Y-167473000D01*
X122361800Y-165123750D01*
X122203050Y-164965000D01*
X122082491Y-164965000D01*
X121849102Y-165061673D01*
X121843673Y-165067102D01*
X121750690Y-165003569D01*
X121498800Y-164952560D01*
X120938800Y-164952560D01*
X120703483Y-164996838D01*
X120672700Y-165016646D01*
X120672700Y-159191805D01*
X120672701Y-159191800D01*
X120617597Y-158914776D01*
X120460675Y-158679925D01*
X109989750Y-148209000D01*
X140716000Y-148209000D01*
X140762159Y-148200315D01*
X140804553Y-148173035D01*
X140832994Y-148131410D01*
X140843000Y-148082000D01*
X140843000Y-147342661D01*
X141426958Y-147342661D01*
X141639190Y-147856303D01*
X142031830Y-148249629D01*
X142545100Y-148462757D01*
X143100861Y-148463242D01*
X143614503Y-148251010D01*
X144007829Y-147858370D01*
X144220957Y-147345100D01*
X144221442Y-146789339D01*
X144009210Y-146275697D01*
X143616570Y-145882371D01*
X143103300Y-145669243D01*
X142547539Y-145668758D01*
X142033897Y-145880990D01*
X141640571Y-146273630D01*
X141427443Y-146786900D01*
X141426958Y-147342661D01*
X140843000Y-147342661D01*
X140843000Y-145923000D01*
X140834315Y-145876841D01*
X140807035Y-145834447D01*
X140765410Y-145806006D01*
X140716000Y-145796000D01*
X109054900Y-145796000D01*
X109054900Y-142748000D01*
X108999796Y-142470975D01*
X108861282Y-142263673D01*
X108766460Y-142034187D01*
X108538016Y-141805343D01*
X108239385Y-141681341D01*
X107916033Y-141681059D01*
X107617187Y-141804540D01*
X107388343Y-142032984D01*
X107264341Y-142331615D01*
X107264059Y-142654967D01*
X107387540Y-142953813D01*
X107607100Y-143173757D01*
X107607100Y-145796000D01*
X107576750Y-145796000D01*
X107492763Y-145712013D01*
X107492941Y-145508033D01*
X107369460Y-145209187D01*
X107141016Y-144980343D01*
X106842385Y-144856341D01*
X106519033Y-144856059D01*
X106235171Y-144973349D01*
X105953385Y-144856341D01*
X105630033Y-144856059D01*
X105331187Y-144979540D01*
X105102343Y-145207984D01*
X105010981Y-145428009D01*
X104931060Y-145234587D01*
X104702616Y-145005743D01*
X104403985Y-144881741D01*
X104241645Y-144881599D01*
X104241741Y-144771433D01*
X104118260Y-144472587D01*
X103889816Y-144243743D01*
X103591185Y-144119741D01*
X103267833Y-144119459D01*
X102968987Y-144242940D01*
X102740143Y-144471384D01*
X102616141Y-144770015D01*
X102615859Y-145093367D01*
X102704900Y-145308862D01*
X102704900Y-145796000D01*
X102527100Y-145796000D01*
X102527100Y-145257741D01*
X102615859Y-145043985D01*
X102616141Y-144720633D01*
X102492660Y-144421787D01*
X102264216Y-144192943D01*
X101965585Y-144068941D01*
X101642233Y-144068659D01*
X101343387Y-144192140D01*
X101266736Y-144268657D01*
X101152785Y-144221341D01*
X100829433Y-144221059D01*
X100530587Y-144344540D01*
X100301743Y-144572984D01*
X100177741Y-144871615D01*
X100177459Y-145194967D01*
X100266500Y-145410462D01*
X100266500Y-153377015D01*
X100238385Y-153365341D01*
X99915033Y-153365059D01*
X99616187Y-153488540D01*
X99387343Y-153716984D01*
X99263341Y-154015615D01*
X99263059Y-154338967D01*
X99352100Y-154554462D01*
X99352100Y-156209995D01*
X99352099Y-156210000D01*
X99384084Y-156370796D01*
X99407204Y-156487025D01*
X99510527Y-156641659D01*
X99564125Y-156721875D01*
X103289100Y-160446849D01*
X103289100Y-161548859D01*
X103200341Y-161762615D01*
X103200059Y-162085967D01*
X103323540Y-162384813D01*
X103551984Y-162613657D01*
X103850615Y-162737659D01*
X103984900Y-162737776D01*
X103984900Y-165013278D01*
X103970690Y-165003569D01*
X103718800Y-164952560D01*
X103158800Y-164952560D01*
X102923483Y-164996838D01*
X102803673Y-165073934D01*
X102700690Y-165003569D01*
X102448800Y-164952560D01*
X101888800Y-164952560D01*
X101653483Y-164996838D01*
X101437359Y-165135910D01*
X101343800Y-165272838D01*
X101343800Y-160100000D01*
X101290896Y-159834035D01*
X101140239Y-159608561D01*
X100914765Y-159457904D01*
X100648800Y-159405000D01*
X100323800Y-159405000D01*
X100057835Y-159457904D01*
X99832361Y-159608561D01*
X99681704Y-159834035D01*
X99628800Y-160100000D01*
X99681704Y-160365965D01*
X99832361Y-160591439D01*
X99953800Y-160672582D01*
X99953800Y-162612200D01*
X95683215Y-162612200D01*
X95743115Y-162587450D01*
X96822859Y-161509589D01*
X97407933Y-160100575D01*
X97409264Y-158574918D01*
X96826650Y-157164885D01*
X95748789Y-156085141D01*
X94339775Y-155500067D01*
X92814118Y-155498736D01*
X91404085Y-156081350D01*
X90324341Y-157159211D01*
X89739267Y-158568225D01*
X89737936Y-160093882D01*
X90320550Y-161503915D01*
X91398411Y-162583659D01*
X91467145Y-162612200D01*
X89585800Y-162612200D01*
X89573603Y-162614626D01*
X89560400Y-162612000D01*
X81939200Y-162612000D01*
X81939200Y-133807200D01*
X83423507Y-133807200D01*
X83536546Y-134375485D01*
X83858453Y-134857254D01*
X84187626Y-135077200D01*
X83858453Y-135297146D01*
X83536546Y-135778915D01*
X83423507Y-136347200D01*
X83536546Y-136915485D01*
X83858453Y-137397254D01*
X84187626Y-137617200D01*
X83858453Y-137837146D01*
X83536546Y-138318915D01*
X83423507Y-138887200D01*
X83536546Y-139455485D01*
X83858453Y-139937254D01*
X84187626Y-140157200D01*
X83858453Y-140377146D01*
X83536546Y-140858915D01*
X83423507Y-141427200D01*
X83536546Y-141995485D01*
X83858453Y-142477254D01*
X84187626Y-142697200D01*
X83858453Y-142917146D01*
X83536546Y-143398915D01*
X83423507Y-143967200D01*
X83536546Y-144535485D01*
X83858453Y-145017254D01*
X84187626Y-145237200D01*
X83858453Y-145457146D01*
X83536546Y-145938915D01*
X83423507Y-146507200D01*
X83536546Y-147075485D01*
X83858453Y-147557254D01*
X84187626Y-147777200D01*
X83858453Y-147997146D01*
X83536546Y-148478915D01*
X83423507Y-149047200D01*
X83536546Y-149615485D01*
X83858453Y-150097254D01*
X84187626Y-150317200D01*
X83858453Y-150537146D01*
X83536546Y-151018915D01*
X83423507Y-151587200D01*
X83536546Y-152155485D01*
X83858453Y-152637254D01*
X84187626Y-152857200D01*
X83858453Y-153077146D01*
X83536546Y-153558915D01*
X83423507Y-154127200D01*
X83536546Y-154695485D01*
X83858453Y-155177254D01*
X84187626Y-155397200D01*
X83858453Y-155617146D01*
X83536546Y-156098915D01*
X83423507Y-156667200D01*
X83536546Y-157235485D01*
X83858453Y-157717254D01*
X84187626Y-157937200D01*
X83858453Y-158157146D01*
X83536546Y-158638915D01*
X83423507Y-159207200D01*
X83536546Y-159775485D01*
X83858453Y-160257254D01*
X84340222Y-160579161D01*
X84908507Y-160692200D01*
X84966693Y-160692200D01*
X85534978Y-160579161D01*
X86016747Y-160257254D01*
X86338654Y-159775485D01*
X86451693Y-159207200D01*
X86338654Y-158638915D01*
X86016747Y-158157146D01*
X85687574Y-157937200D01*
X86016747Y-157717254D01*
X86338654Y-157235485D01*
X86451693Y-156667200D01*
X86338654Y-156098915D01*
X86016747Y-155617146D01*
X85687574Y-155397200D01*
X86016747Y-155177254D01*
X86338654Y-154695485D01*
X86451693Y-154127200D01*
X86338654Y-153558915D01*
X86016747Y-153077146D01*
X85687574Y-152857200D01*
X86016747Y-152637254D01*
X86338654Y-152155485D01*
X86451693Y-151587200D01*
X86338654Y-151018915D01*
X86016747Y-150537146D01*
X85687574Y-150317200D01*
X86016747Y-150097254D01*
X86338654Y-149615485D01*
X86451693Y-149047200D01*
X86338654Y-148478915D01*
X86016747Y-147997146D01*
X85687574Y-147777200D01*
X86016747Y-147557254D01*
X86234676Y-147231100D01*
X86899454Y-147231100D01*
X86914984Y-147246657D01*
X87213615Y-147370659D01*
X87536967Y-147370941D01*
X87605409Y-147342661D01*
X97078558Y-147342661D01*
X97290790Y-147856303D01*
X97683430Y-148249629D01*
X98196700Y-148462757D01*
X98752461Y-148463242D01*
X99266103Y-148251010D01*
X99659429Y-147858370D01*
X99872557Y-147345100D01*
X99873042Y-146789339D01*
X99660810Y-146275697D01*
X99268170Y-145882371D01*
X98754900Y-145669243D01*
X98199139Y-145668758D01*
X97685497Y-145880990D01*
X97292171Y-146273630D01*
X97079043Y-146786900D01*
X97078558Y-147342661D01*
X87605409Y-147342661D01*
X87835813Y-147247460D01*
X88064657Y-147019016D01*
X88188659Y-146720385D01*
X88188941Y-146397033D01*
X88065460Y-146098187D01*
X87837016Y-145869343D01*
X87538385Y-145745341D01*
X87215033Y-145745059D01*
X87122483Y-145783300D01*
X86234676Y-145783300D01*
X86016747Y-145457146D01*
X85687574Y-145237200D01*
X86016747Y-145017254D01*
X86338654Y-144535485D01*
X86451693Y-143967200D01*
X86338654Y-143398915D01*
X86016747Y-142917146D01*
X85687574Y-142697200D01*
X86016747Y-142477254D01*
X86338654Y-141995485D01*
X86451693Y-141427200D01*
X86338654Y-140858915D01*
X86016747Y-140377146D01*
X85687574Y-140157200D01*
X86016747Y-139937254D01*
X86338654Y-139455485D01*
X86451693Y-138887200D01*
X86338654Y-138318915D01*
X86016747Y-137837146D01*
X85687574Y-137617200D01*
X86016747Y-137397254D01*
X86338654Y-136915485D01*
X86406766Y-136573061D01*
X97078558Y-136573061D01*
X97290790Y-137086703D01*
X97683430Y-137480029D01*
X98196700Y-137693157D01*
X98752461Y-137693642D01*
X99266103Y-137481410D01*
X99659429Y-137088770D01*
X99872557Y-136575500D01*
X99872625Y-136496861D01*
X141426958Y-136496861D01*
X141639190Y-137010503D01*
X142031830Y-137403829D01*
X142545100Y-137616957D01*
X143100861Y-137617442D01*
X143614503Y-137405210D01*
X144007829Y-137012570D01*
X144220957Y-136499300D01*
X144221442Y-135943539D01*
X144009210Y-135429897D01*
X143616570Y-135036571D01*
X143103300Y-134823443D01*
X142547539Y-134822958D01*
X142033897Y-135035190D01*
X141640571Y-135427830D01*
X141427443Y-135941100D01*
X141426958Y-136496861D01*
X99872625Y-136496861D01*
X99873042Y-136019739D01*
X99660810Y-135506097D01*
X99268170Y-135112771D01*
X98754900Y-134899643D01*
X98199139Y-134899158D01*
X97685497Y-135111390D01*
X97292171Y-135504030D01*
X97079043Y-136017300D01*
X97078558Y-136573061D01*
X86406766Y-136573061D01*
X86451693Y-136347200D01*
X86338654Y-135778915D01*
X86016747Y-135297146D01*
X85687574Y-135077200D01*
X86016747Y-134857254D01*
X86338654Y-134375485D01*
X86451693Y-133807200D01*
X86338654Y-133238915D01*
X86016747Y-132757146D01*
X85975148Y-132729350D01*
X86022917Y-132720362D01*
X86239041Y-132581290D01*
X86384031Y-132369090D01*
X86435040Y-132117200D01*
X86435040Y-130417200D01*
X86390762Y-130181883D01*
X86251690Y-129965759D01*
X86039490Y-129820769D01*
X85787600Y-129769760D01*
X84087600Y-129769760D01*
X83852283Y-129814038D01*
X83636159Y-129953110D01*
X83491169Y-130165310D01*
X83440160Y-130417200D01*
X83440160Y-132117200D01*
X83484438Y-132352517D01*
X83623510Y-132568641D01*
X83835710Y-132713631D01*
X83903141Y-132727286D01*
X83858453Y-132757146D01*
X83536546Y-133238915D01*
X83423507Y-133807200D01*
X81939200Y-133807200D01*
X81939200Y-106553000D01*
X83448907Y-106553000D01*
X83561946Y-107121285D01*
X83883853Y-107603054D01*
X84213026Y-107823000D01*
X83883853Y-108042946D01*
X83561946Y-108524715D01*
X83448907Y-109093000D01*
X83561946Y-109661285D01*
X83883853Y-110143054D01*
X84213026Y-110363000D01*
X83883853Y-110582946D01*
X83561946Y-111064715D01*
X83448907Y-111633000D01*
X83561946Y-112201285D01*
X83883853Y-112683054D01*
X84213026Y-112903000D01*
X83883853Y-113122946D01*
X83561946Y-113604715D01*
X83448907Y-114173000D01*
X83561946Y-114741285D01*
X83883853Y-115223054D01*
X84213026Y-115443000D01*
X83883853Y-115662946D01*
X83561946Y-116144715D01*
X83448907Y-116713000D01*
X83561946Y-117281285D01*
X83883853Y-117763054D01*
X84213026Y-117983000D01*
X83883853Y-118202946D01*
X83561946Y-118684715D01*
X83448907Y-119253000D01*
X83561946Y-119821285D01*
X83883853Y-120303054D01*
X84213026Y-120523000D01*
X83883853Y-120742946D01*
X83561946Y-121224715D01*
X83448907Y-121793000D01*
X83561946Y-122361285D01*
X83883853Y-122843054D01*
X84213026Y-123063000D01*
X83883853Y-123282946D01*
X83561946Y-123764715D01*
X83448907Y-124333000D01*
X83561946Y-124901285D01*
X83883853Y-125383054D01*
X84213026Y-125603000D01*
X83883853Y-125822946D01*
X83561946Y-126304715D01*
X83448907Y-126873000D01*
X83561946Y-127441285D01*
X83883853Y-127923054D01*
X84365622Y-128244961D01*
X84933907Y-128358000D01*
X84992093Y-128358000D01*
X85560378Y-128244961D01*
X86042147Y-127923054D01*
X86364054Y-127441285D01*
X86477093Y-126873000D01*
X86395740Y-126464010D01*
X95350782Y-117508967D01*
X131140059Y-117508967D01*
X131263540Y-117807813D01*
X131491984Y-118036657D01*
X131707324Y-118126074D01*
X132753100Y-119171849D01*
X132753100Y-123067859D01*
X132664341Y-123281615D01*
X132664059Y-123604967D01*
X132787540Y-123903813D01*
X133015984Y-124132657D01*
X133314615Y-124256659D01*
X133637967Y-124256941D01*
X133936813Y-124133460D01*
X134165657Y-123905016D01*
X134289659Y-123606385D01*
X134289941Y-123283033D01*
X134200900Y-123067538D01*
X134200900Y-118872000D01*
X134145796Y-118594975D01*
X133988875Y-118360125D01*
X133988872Y-118360123D01*
X132730846Y-117102096D01*
X132642460Y-116888187D01*
X132414016Y-116659343D01*
X132115385Y-116535341D01*
X131792033Y-116535059D01*
X131493187Y-116658540D01*
X131264343Y-116886984D01*
X131140341Y-117185615D01*
X131140059Y-117508967D01*
X95350782Y-117508967D01*
X100333872Y-112525877D01*
X100333875Y-112525875D01*
X100490796Y-112291025D01*
X100545900Y-112014000D01*
X100545900Y-109342141D01*
X100634659Y-109128385D01*
X100634941Y-108805033D01*
X100557623Y-108617910D01*
X100637657Y-108538016D01*
X100761659Y-108239385D01*
X100761941Y-107916033D01*
X100638460Y-107617187D01*
X100410016Y-107388343D01*
X100233320Y-107314973D01*
X100408813Y-107242460D01*
X100637657Y-107014016D01*
X100761659Y-106715385D01*
X100761941Y-106392033D01*
X100638460Y-106093187D01*
X100594778Y-106049429D01*
X100634659Y-105953385D01*
X100634941Y-105630033D01*
X100511460Y-105331187D01*
X100283016Y-105102343D01*
X99984385Y-104978341D01*
X99661033Y-104978059D01*
X99445538Y-105067100D01*
X98775650Y-105067100D01*
X98978850Y-104863900D01*
X99572859Y-104863900D01*
X99786615Y-104952659D01*
X100109967Y-104952941D01*
X100408813Y-104829460D01*
X100637657Y-104601016D01*
X100761659Y-104302385D01*
X100761941Y-103979033D01*
X100670954Y-103758828D01*
X100761659Y-103540385D01*
X100761941Y-103217033D01*
X100638460Y-102918187D01*
X100410016Y-102689343D01*
X100111385Y-102565341D01*
X99788033Y-102565059D01*
X99572538Y-102654100D01*
X99156649Y-102654100D01*
X99359849Y-102450900D01*
X99572859Y-102450900D01*
X99786615Y-102539659D01*
X100109967Y-102539941D01*
X100408813Y-102416460D01*
X100637657Y-102188016D01*
X100761659Y-101889385D01*
X100761941Y-101566033D01*
X100638460Y-101267187D01*
X100594778Y-101223429D01*
X100634659Y-101127385D01*
X100634941Y-100804033D01*
X100511460Y-100505187D01*
X100283016Y-100276343D01*
X99984385Y-100152341D01*
X99661033Y-100152059D01*
X99445538Y-100241100D01*
X98806005Y-100241100D01*
X98806000Y-100241099D01*
X98768115Y-100248635D01*
X98978850Y-100037900D01*
X99699859Y-100037900D01*
X99913615Y-100126659D01*
X100236967Y-100126941D01*
X100535813Y-100003460D01*
X100764657Y-99775016D01*
X100888659Y-99476385D01*
X100888941Y-99153033D01*
X100765460Y-98854187D01*
X100721778Y-98810429D01*
X100761659Y-98714385D01*
X100761941Y-98391033D01*
X100638460Y-98092187D01*
X100410016Y-97863343D01*
X100111385Y-97739341D01*
X99788033Y-97739059D01*
X99572538Y-97828100D01*
X98552000Y-97828100D01*
X98274975Y-97883204D01*
X98040125Y-98040125D01*
X98040123Y-98040128D01*
X92791150Y-103289100D01*
X86460440Y-103289100D01*
X86460440Y-103163000D01*
X86416162Y-102927683D01*
X86277090Y-102711559D01*
X86064890Y-102566569D01*
X85997458Y-102552914D01*
X86172698Y-102480327D01*
X86351327Y-102301699D01*
X86448000Y-102068310D01*
X86448000Y-101377750D01*
X86289250Y-101219000D01*
X85090000Y-101219000D01*
X85090000Y-101239000D01*
X84836000Y-101239000D01*
X84836000Y-101219000D01*
X83636750Y-101219000D01*
X83478000Y-101377750D01*
X83478000Y-102068310D01*
X83574673Y-102301699D01*
X83753302Y-102480327D01*
X83924150Y-102551095D01*
X83877683Y-102559838D01*
X83661559Y-102698910D01*
X83516569Y-102911110D01*
X83465560Y-103163000D01*
X83465560Y-104863000D01*
X83509838Y-105098317D01*
X83648910Y-105314441D01*
X83861110Y-105459431D01*
X83928541Y-105473086D01*
X83883853Y-105502946D01*
X83561946Y-105984715D01*
X83448907Y-106553000D01*
X81939200Y-106553000D01*
X81939200Y-78232000D01*
X83448907Y-78232000D01*
X83561946Y-78800285D01*
X83883853Y-79282054D01*
X84213026Y-79502000D01*
X83883853Y-79721946D01*
X83561946Y-80203715D01*
X83448907Y-80772000D01*
X83561946Y-81340285D01*
X83883853Y-81822054D01*
X84213026Y-82042000D01*
X83883853Y-82261946D01*
X83561946Y-82743715D01*
X83448907Y-83312000D01*
X83561946Y-83880285D01*
X83883853Y-84362054D01*
X84213026Y-84582000D01*
X83883853Y-84801946D01*
X83561946Y-85283715D01*
X83448907Y-85852000D01*
X83561946Y-86420285D01*
X83883853Y-86902054D01*
X84213026Y-87122000D01*
X83883853Y-87341946D01*
X83561946Y-87823715D01*
X83448907Y-88392000D01*
X83561946Y-88960285D01*
X83883853Y-89442054D01*
X84213026Y-89662000D01*
X83883853Y-89881946D01*
X83561946Y-90363715D01*
X83448907Y-90932000D01*
X83561946Y-91500285D01*
X83883853Y-91982054D01*
X84213026Y-92202000D01*
X83883853Y-92421946D01*
X83561946Y-92903715D01*
X83448907Y-93472000D01*
X83561946Y-94040285D01*
X83883853Y-94522054D01*
X84213026Y-94742000D01*
X83883853Y-94961946D01*
X83561946Y-95443715D01*
X83448907Y-96012000D01*
X83561946Y-96580285D01*
X83883853Y-97062054D01*
X84213026Y-97282000D01*
X83883853Y-97501946D01*
X83561946Y-97983715D01*
X83448907Y-98552000D01*
X83561946Y-99120285D01*
X83883853Y-99602054D01*
X83927777Y-99631403D01*
X83753302Y-99703673D01*
X83574673Y-99882301D01*
X83478000Y-100115690D01*
X83478000Y-100806250D01*
X83636750Y-100965000D01*
X84836000Y-100965000D01*
X84836000Y-100945000D01*
X85090000Y-100945000D01*
X85090000Y-100965000D01*
X86289250Y-100965000D01*
X86448000Y-100806250D01*
X86448000Y-100115690D01*
X86351327Y-99882301D01*
X86172698Y-99703673D01*
X85998223Y-99631403D01*
X86042147Y-99602054D01*
X86364054Y-99120285D01*
X86445074Y-98712967D01*
X89738059Y-98712967D01*
X89861540Y-99011813D01*
X90089984Y-99240657D01*
X90388615Y-99364659D01*
X90711967Y-99364941D01*
X91010813Y-99241460D01*
X91239657Y-99013016D01*
X91329074Y-98797676D01*
X92867553Y-97259196D01*
X92909540Y-97360813D01*
X93137984Y-97589657D01*
X93436615Y-97713659D01*
X93759967Y-97713941D01*
X93975462Y-97624900D01*
X99445859Y-97624900D01*
X99659615Y-97713659D01*
X99982967Y-97713941D01*
X100281813Y-97590460D01*
X100510657Y-97362016D01*
X100634659Y-97063385D01*
X100634941Y-96740033D01*
X100543954Y-96519828D01*
X100634659Y-96301385D01*
X100634941Y-95978033D01*
X100511460Y-95679187D01*
X100283016Y-95450343D01*
X99984385Y-95326341D01*
X99661033Y-95326059D01*
X99445538Y-95415100D01*
X92964000Y-95415100D01*
X92686975Y-95470204D01*
X92452125Y-95627125D01*
X92452123Y-95627128D01*
X90305096Y-97774155D01*
X90091187Y-97862540D01*
X89862343Y-98090984D01*
X89738341Y-98389615D01*
X89738059Y-98712967D01*
X86445074Y-98712967D01*
X86477093Y-98552000D01*
X86364054Y-97983715D01*
X86042147Y-97501946D01*
X85712974Y-97282000D01*
X86042147Y-97062054D01*
X86364054Y-96580285D01*
X86477093Y-96012000D01*
X86364054Y-95443715D01*
X86042147Y-94961946D01*
X85712974Y-94742000D01*
X86042147Y-94522054D01*
X86364054Y-94040285D01*
X86477093Y-93472000D01*
X86364054Y-92903715D01*
X86042147Y-92421946D01*
X85746889Y-92224661D01*
X97078558Y-92224661D01*
X97290790Y-92738303D01*
X97683430Y-93131629D01*
X98196700Y-93344757D01*
X98752461Y-93345242D01*
X99266103Y-93133010D01*
X99659429Y-92740370D01*
X99872557Y-92227100D01*
X99873042Y-91671339D01*
X99660810Y-91157697D01*
X99268170Y-90764371D01*
X98754900Y-90551243D01*
X98199139Y-90550758D01*
X97685497Y-90762990D01*
X97292171Y-91155630D01*
X97079043Y-91668900D01*
X97078558Y-92224661D01*
X85746889Y-92224661D01*
X85712974Y-92202000D01*
X86042147Y-91982054D01*
X86364054Y-91500285D01*
X86477093Y-90932000D01*
X86364054Y-90363715D01*
X86042147Y-89881946D01*
X85712974Y-89662000D01*
X86042147Y-89442054D01*
X86364054Y-88960285D01*
X86477093Y-88392000D01*
X86364054Y-87823715D01*
X86087598Y-87409967D01*
X104089059Y-87409967D01*
X104212540Y-87708813D01*
X104440984Y-87937657D01*
X104656324Y-88027073D01*
X107480100Y-90850849D01*
X107480100Y-98683859D01*
X107391341Y-98897615D01*
X107391059Y-99220967D01*
X107514540Y-99519813D01*
X107742984Y-99748657D01*
X108041615Y-99872659D01*
X108364967Y-99872941D01*
X108663813Y-99749460D01*
X108892657Y-99521016D01*
X109016659Y-99222385D01*
X109016941Y-98899033D01*
X108927900Y-98683538D01*
X108927900Y-92148461D01*
X141426958Y-92148461D01*
X141639190Y-92662103D01*
X142031830Y-93055429D01*
X142545100Y-93268557D01*
X143100861Y-93269042D01*
X143614503Y-93056810D01*
X144007829Y-92664170D01*
X144220957Y-92150900D01*
X144221442Y-91595139D01*
X144009210Y-91081497D01*
X143616570Y-90688171D01*
X143103300Y-90475043D01*
X142547539Y-90474558D01*
X142033897Y-90686790D01*
X141640571Y-91079430D01*
X141427443Y-91592700D01*
X141426958Y-92148461D01*
X108927900Y-92148461D01*
X108927900Y-90551000D01*
X108872796Y-90273975D01*
X108715875Y-90039125D01*
X108715872Y-90039123D01*
X105679845Y-87003096D01*
X105591460Y-86789187D01*
X105363016Y-86560343D01*
X105064385Y-86436341D01*
X104741033Y-86436059D01*
X104442187Y-86559540D01*
X104213343Y-86787984D01*
X104089341Y-87086615D01*
X104089059Y-87409967D01*
X86087598Y-87409967D01*
X86042147Y-87341946D01*
X85712974Y-87122000D01*
X86042147Y-86902054D01*
X86364054Y-86420285D01*
X86477093Y-85852000D01*
X86364054Y-85283715D01*
X86042147Y-84801946D01*
X85712974Y-84582000D01*
X86042147Y-84362054D01*
X86364054Y-83880285D01*
X86477093Y-83312000D01*
X86364054Y-82743715D01*
X86042147Y-82261946D01*
X85712974Y-82042000D01*
X86042147Y-81822054D01*
X86364054Y-81340285D01*
X86477093Y-80772000D01*
X86364054Y-80203715D01*
X86042147Y-79721946D01*
X85712974Y-79502000D01*
X86042147Y-79282054D01*
X86364054Y-78800285D01*
X86477093Y-78232000D01*
X86364054Y-77663715D01*
X86042147Y-77181946D01*
X85560378Y-76860039D01*
X84992093Y-76747000D01*
X84933907Y-76747000D01*
X84365622Y-76860039D01*
X83883853Y-77181946D01*
X83561946Y-77663715D01*
X83448907Y-78232000D01*
X81939200Y-78232000D01*
X81939200Y-73936661D01*
X97078558Y-73936661D01*
X97290790Y-74450303D01*
X97683430Y-74843629D01*
X98196700Y-75056757D01*
X98752461Y-75057242D01*
X99266103Y-74845010D01*
X99659429Y-74452370D01*
X99872557Y-73939100D01*
X99873042Y-73383339D01*
X99660810Y-72869697D01*
X99268170Y-72476371D01*
X98754900Y-72263243D01*
X98199139Y-72262758D01*
X97685497Y-72474990D01*
X97292171Y-72867630D01*
X97079043Y-73380900D01*
X97078558Y-73936661D01*
X81939200Y-73936661D01*
X81939200Y-64006800D01*
X89458107Y-64006800D01*
X89585800Y-64032200D01*
G36*
X178817200Y-162612000D02*
X160476000Y-162612000D01*
X160476000Y-160905885D01*
X162546360Y-160905885D01*
X162756769Y-161415115D01*
X163146036Y-161805061D01*
X163654898Y-162016359D01*
X164205885Y-162016840D01*
X164715115Y-161806431D01*
X165105061Y-161417164D01*
X165316359Y-160908302D01*
X165316840Y-160357315D01*
X165106431Y-159848085D01*
X164717164Y-159458139D01*
X164271673Y-159273155D01*
X164290828Y-159265240D01*
X164469613Y-159086768D01*
X164566489Y-158853463D01*
X164566640Y-158680150D01*
X175299000Y-158680150D01*
X175299000Y-159370710D01*
X175395673Y-159604099D01*
X175574302Y-159782727D01*
X175807691Y-159879400D01*
X176498250Y-159879400D01*
X176657000Y-159720650D01*
X176657000Y-158521400D01*
X176911000Y-158521400D01*
X176911000Y-159720650D01*
X177069750Y-159879400D01*
X177760309Y-159879400D01*
X177993698Y-159782727D01*
X178172327Y-159604099D01*
X178269000Y-159370710D01*
X178269000Y-158680150D01*
X178110250Y-158521400D01*
X176911000Y-158521400D01*
X176657000Y-158521400D01*
X175457750Y-158521400D01*
X175299000Y-158680150D01*
X164566640Y-158680150D01*
X164566710Y-158600845D01*
X164470240Y-158367372D01*
X164291768Y-158188587D01*
X164058463Y-158091711D01*
X163805845Y-158091490D01*
X163572372Y-158187960D01*
X163393587Y-158366432D01*
X163296711Y-158599737D01*
X163296490Y-158852355D01*
X163392960Y-159085828D01*
X163571432Y-159264613D01*
X163592234Y-159273251D01*
X163148085Y-159456769D01*
X162758139Y-159846036D01*
X162546841Y-160354898D01*
X162546360Y-160905885D01*
X160476000Y-160905885D01*
X160476000Y-146871367D01*
X161594659Y-146871367D01*
X161718140Y-147170213D01*
X161946584Y-147399057D01*
X162161924Y-147488474D01*
X163368923Y-148695472D01*
X163368925Y-148695475D01*
X163603775Y-148852396D01*
X163880800Y-148907500D01*
X175452981Y-148907500D01*
X175704853Y-149284454D01*
X176034026Y-149504400D01*
X175704853Y-149724346D01*
X175520868Y-149999700D01*
X164180649Y-149999700D01*
X163185446Y-149004496D01*
X163097060Y-148790587D01*
X162868616Y-148561743D01*
X162569985Y-148437741D01*
X162246633Y-148437459D01*
X161947787Y-148560940D01*
X161718943Y-148789384D01*
X161594941Y-149088015D01*
X161594659Y-149411367D01*
X161718140Y-149710213D01*
X161946584Y-149939057D01*
X162161924Y-150028474D01*
X163368923Y-151235472D01*
X163368925Y-151235475D01*
X163603775Y-151392396D01*
X163880800Y-151447500D01*
X175452981Y-151447500D01*
X175704853Y-151824454D01*
X176034026Y-152044400D01*
X175704853Y-152264346D01*
X175520868Y-152539700D01*
X164180649Y-152539700D01*
X163236246Y-151595296D01*
X163147860Y-151381387D01*
X162919416Y-151152543D01*
X162620785Y-151028541D01*
X162297433Y-151028259D01*
X161998587Y-151151740D01*
X161769743Y-151380184D01*
X161645741Y-151678815D01*
X161645459Y-152002167D01*
X161768940Y-152301013D01*
X161997384Y-152529857D01*
X162212724Y-152619274D01*
X163368923Y-153775472D01*
X163368925Y-153775475D01*
X163603775Y-153932396D01*
X163880800Y-153987500D01*
X175452981Y-153987500D01*
X175704853Y-154364454D01*
X176034026Y-154584400D01*
X175704853Y-154804346D01*
X175520868Y-155079700D01*
X164282249Y-155079700D01*
X163337846Y-154135296D01*
X163249460Y-153921387D01*
X163021016Y-153692543D01*
X162722385Y-153568541D01*
X162399033Y-153568259D01*
X162100187Y-153691740D01*
X161871343Y-153920184D01*
X161747341Y-154218815D01*
X161747059Y-154542167D01*
X161870540Y-154841013D01*
X162098984Y-155069857D01*
X162314324Y-155159274D01*
X163470523Y-156315472D01*
X163470525Y-156315475D01*
X163705375Y-156472396D01*
X163982400Y-156527500D01*
X175452981Y-156527500D01*
X175704853Y-156904454D01*
X175748777Y-156933803D01*
X175574302Y-157006073D01*
X175395673Y-157184701D01*
X175299000Y-157418090D01*
X175299000Y-158108650D01*
X175457750Y-158267400D01*
X176657000Y-158267400D01*
X176657000Y-158247400D01*
X176911000Y-158247400D01*
X176911000Y-158267400D01*
X178110250Y-158267400D01*
X178269000Y-158108650D01*
X178269000Y-157418090D01*
X178172327Y-157184701D01*
X177993698Y-157006073D01*
X177819223Y-156933803D01*
X177863147Y-156904454D01*
X178185054Y-156422685D01*
X178298093Y-155854400D01*
X178185054Y-155286115D01*
X177863147Y-154804346D01*
X177533974Y-154584400D01*
X177863147Y-154364454D01*
X178185054Y-153882685D01*
X178298093Y-153314400D01*
X178185054Y-152746115D01*
X177863147Y-152264346D01*
X177533974Y-152044400D01*
X177863147Y-151824454D01*
X178185054Y-151342685D01*
X178298093Y-150774400D01*
X178185054Y-150206115D01*
X177863147Y-149724346D01*
X177533974Y-149504400D01*
X177863147Y-149284454D01*
X178185054Y-148802685D01*
X178298093Y-148234400D01*
X178185054Y-147666115D01*
X177863147Y-147184346D01*
X177533974Y-146964400D01*
X177863147Y-146744454D01*
X178185054Y-146262685D01*
X178298093Y-145694400D01*
X178185054Y-145126115D01*
X177863147Y-144644346D01*
X177533974Y-144424400D01*
X177863147Y-144204454D01*
X178185054Y-143722685D01*
X178298093Y-143154400D01*
X178185054Y-142586115D01*
X177863147Y-142104346D01*
X177533974Y-141884400D01*
X177863147Y-141664454D01*
X178185054Y-141182685D01*
X178298093Y-140614400D01*
X178185054Y-140046115D01*
X177863147Y-139564346D01*
X177533974Y-139344400D01*
X177863147Y-139124454D01*
X178185054Y-138642685D01*
X178298093Y-138074400D01*
X178185054Y-137506115D01*
X177863147Y-137024346D01*
X177533974Y-136804400D01*
X177863147Y-136584454D01*
X178185054Y-136102685D01*
X178298093Y-135534400D01*
X178185054Y-134966115D01*
X177863147Y-134484346D01*
X177533974Y-134264400D01*
X177863147Y-134044454D01*
X178185054Y-133562685D01*
X178298093Y-132994400D01*
X178185054Y-132426115D01*
X177863147Y-131944346D01*
X177533974Y-131724400D01*
X177863147Y-131504454D01*
X178185054Y-131022685D01*
X178298093Y-130454400D01*
X178185054Y-129886115D01*
X177863147Y-129404346D01*
X177533974Y-129184400D01*
X177863147Y-128964454D01*
X178185054Y-128482685D01*
X178298093Y-127914400D01*
X178185054Y-127346115D01*
X177863147Y-126864346D01*
X177533974Y-126644400D01*
X177863147Y-126424454D01*
X178185054Y-125942685D01*
X178298093Y-125374400D01*
X178185054Y-124806115D01*
X177863147Y-124324346D01*
X177533974Y-124104400D01*
X177863147Y-123884454D01*
X178185054Y-123402685D01*
X178298093Y-122834400D01*
X178185054Y-122266115D01*
X177863147Y-121784346D01*
X177533974Y-121564400D01*
X177863147Y-121344454D01*
X178185054Y-120862685D01*
X178298093Y-120294400D01*
X178185054Y-119726115D01*
X177863147Y-119244346D01*
X177533974Y-119024400D01*
X177863147Y-118804454D01*
X178185054Y-118322685D01*
X178298093Y-117754400D01*
X178185054Y-117186115D01*
X177863147Y-116704346D01*
X177381378Y-116382439D01*
X176813093Y-116269400D01*
X176754907Y-116269400D01*
X176186622Y-116382439D01*
X175704853Y-116704346D01*
X175382946Y-117186115D01*
X175269907Y-117754400D01*
X175382946Y-118322685D01*
X175704853Y-118804454D01*
X176034026Y-119024400D01*
X175704853Y-119244346D01*
X175486924Y-119570500D01*
X163576005Y-119570500D01*
X163576000Y-119570499D01*
X163344937Y-119616461D01*
X163298975Y-119625604D01*
X163148549Y-119726115D01*
X163064125Y-119782525D01*
X162263295Y-120583355D01*
X162049387Y-120671740D01*
X161820543Y-120900184D01*
X161696541Y-121198815D01*
X161696259Y-121522167D01*
X161819740Y-121821013D01*
X162048184Y-122049857D01*
X162346815Y-122173859D01*
X162670167Y-122174141D01*
X162969013Y-122050660D01*
X163197857Y-121822216D01*
X163287273Y-121606877D01*
X163875850Y-121018300D01*
X175486924Y-121018300D01*
X175704853Y-121344454D01*
X176034026Y-121564400D01*
X175704853Y-121784346D01*
X175486924Y-122110500D01*
X167589200Y-122110500D01*
X167312175Y-122165604D01*
X167161749Y-122266115D01*
X167077325Y-122322525D01*
X166174895Y-123224955D01*
X165960987Y-123313340D01*
X165732143Y-123541784D01*
X165608141Y-123840415D01*
X165607859Y-124163767D01*
X165731340Y-124462613D01*
X165959784Y-124691457D01*
X166258415Y-124815459D01*
X166581767Y-124815741D01*
X166880613Y-124692260D01*
X167109457Y-124463816D01*
X167198873Y-124248477D01*
X167889050Y-123558300D01*
X175486924Y-123558300D01*
X175704853Y-123884454D01*
X176034026Y-124104400D01*
X175704853Y-124324346D01*
X175382946Y-124806115D01*
X175269907Y-125374400D01*
X175382946Y-125942685D01*
X175704853Y-126424454D01*
X176034026Y-126644400D01*
X175704853Y-126864346D01*
X175382946Y-127346115D01*
X175269907Y-127914400D01*
X175382946Y-128482685D01*
X175704853Y-128964454D01*
X176034026Y-129184400D01*
X175704853Y-129404346D01*
X175382946Y-129886115D01*
X175269907Y-130454400D01*
X175382946Y-131022685D01*
X175704853Y-131504454D01*
X176034026Y-131724400D01*
X175704853Y-131944346D01*
X175382946Y-132426115D01*
X175269907Y-132994400D01*
X175382946Y-133562685D01*
X175704853Y-134044454D01*
X176034026Y-134264400D01*
X175704853Y-134484346D01*
X175382946Y-134966115D01*
X175269907Y-135534400D01*
X175382946Y-136102685D01*
X175704853Y-136584454D01*
X176034026Y-136804400D01*
X175704853Y-137024346D01*
X175382946Y-137506115D01*
X175269907Y-138074400D01*
X175382946Y-138642685D01*
X175704853Y-139124454D01*
X176034026Y-139344400D01*
X175704853Y-139564346D01*
X175382946Y-140046115D01*
X175269907Y-140614400D01*
X175382946Y-141182685D01*
X175704853Y-141664454D01*
X176034026Y-141884400D01*
X175704853Y-142104346D01*
X175520868Y-142379700D01*
X166822250Y-142379700D01*
X163287045Y-138844495D01*
X163198660Y-138630587D01*
X162970216Y-138401743D01*
X162671585Y-138277741D01*
X162348233Y-138277459D01*
X162049387Y-138400940D01*
X161820543Y-138629384D01*
X161696541Y-138928015D01*
X161696259Y-139251367D01*
X161819740Y-139550213D01*
X162048184Y-139779057D01*
X162263523Y-139868473D01*
X166010525Y-143615475D01*
X166245376Y-143772397D01*
X166522400Y-143827501D01*
X166522405Y-143827500D01*
X175452981Y-143827500D01*
X175704853Y-144204454D01*
X176034026Y-144424400D01*
X175704853Y-144644346D01*
X175520868Y-144919700D01*
X166771449Y-144919700D01*
X163337845Y-141486096D01*
X163249460Y-141272187D01*
X163021016Y-141043343D01*
X162722385Y-140919341D01*
X162399033Y-140919059D01*
X162100187Y-141042540D01*
X161871343Y-141270984D01*
X161747341Y-141569615D01*
X161747059Y-141892967D01*
X161870540Y-142191813D01*
X162098984Y-142420657D01*
X162314324Y-142510073D01*
X165959723Y-146155472D01*
X165959725Y-146155475D01*
X166102071Y-146250587D01*
X166194576Y-146312397D01*
X166471600Y-146367501D01*
X166471605Y-146367500D01*
X175452981Y-146367500D01*
X175704853Y-146744454D01*
X176034026Y-146964400D01*
X175704853Y-147184346D01*
X175520868Y-147459700D01*
X164180649Y-147459700D01*
X163185446Y-146464496D01*
X163097060Y-146250587D01*
X162868616Y-146021743D01*
X162569985Y-145897741D01*
X162246633Y-145897459D01*
X161947787Y-146020940D01*
X161718943Y-146249384D01*
X161594941Y-146548015D01*
X161594659Y-146871367D01*
X160476000Y-146871367D01*
X160476000Y-118462355D01*
X164296490Y-118462355D01*
X164392960Y-118695828D01*
X164571432Y-118874613D01*
X164804737Y-118971489D01*
X165057355Y-118971710D01*
X165290828Y-118875240D01*
X165469613Y-118696768D01*
X165566489Y-118463463D01*
X165566710Y-118210845D01*
X165470240Y-117977372D01*
X165291768Y-117798587D01*
X165058463Y-117701711D01*
X164805845Y-117701490D01*
X164572372Y-117797960D01*
X164393587Y-117976432D01*
X164296711Y-118209737D01*
X164296490Y-118462355D01*
X160476000Y-118462355D01*
X160476000Y-116705885D01*
X162546360Y-116705885D01*
X162756769Y-117215115D01*
X163146036Y-117605061D01*
X163654898Y-117816359D01*
X164205885Y-117816840D01*
X164715115Y-117606431D01*
X165105061Y-117217164D01*
X165316359Y-116708302D01*
X165316840Y-116157315D01*
X165106431Y-115648085D01*
X164717164Y-115258139D01*
X164208302Y-115046841D01*
X163657315Y-115046360D01*
X163148085Y-115256769D01*
X162758139Y-115646036D01*
X162546841Y-116154898D01*
X162546360Y-116705885D01*
X160476000Y-116705885D01*
X160476000Y-111454000D01*
X178817200Y-111454000D01*
X178817200Y-162612000D01*
X178817200Y-162612000D01*
G37*
X178817200Y-162612000D02*
X160476000Y-162612000D01*
X160476000Y-160905885D01*
X162546360Y-160905885D01*
X162756769Y-161415115D01*
X163146036Y-161805061D01*
X163654898Y-162016359D01*
X164205885Y-162016840D01*
X164715115Y-161806431D01*
X165105061Y-161417164D01*
X165316359Y-160908302D01*
X165316840Y-160357315D01*
X165106431Y-159848085D01*
X164717164Y-159458139D01*
X164271673Y-159273155D01*
X164290828Y-159265240D01*
X164469613Y-159086768D01*
X164566489Y-158853463D01*
X164566640Y-158680150D01*
X175299000Y-158680150D01*
X175299000Y-159370710D01*
X175395673Y-159604099D01*
X175574302Y-159782727D01*
X175807691Y-159879400D01*
X176498250Y-159879400D01*
X176657000Y-159720650D01*
X176657000Y-158521400D01*
X176911000Y-158521400D01*
X176911000Y-159720650D01*
X177069750Y-159879400D01*
X177760309Y-159879400D01*
X177993698Y-159782727D01*
X178172327Y-159604099D01*
X178269000Y-159370710D01*
X178269000Y-158680150D01*
X178110250Y-158521400D01*
X176911000Y-158521400D01*
X176657000Y-158521400D01*
X175457750Y-158521400D01*
X175299000Y-158680150D01*
X164566640Y-158680150D01*
X164566710Y-158600845D01*
X164470240Y-158367372D01*
X164291768Y-158188587D01*
X164058463Y-158091711D01*
X163805845Y-158091490D01*
X163572372Y-158187960D01*
X163393587Y-158366432D01*
X163296711Y-158599737D01*
X163296490Y-158852355D01*
X163392960Y-159085828D01*
X163571432Y-159264613D01*
X163592234Y-159273251D01*
X163148085Y-159456769D01*
X162758139Y-159846036D01*
X162546841Y-160354898D01*
X162546360Y-160905885D01*
X160476000Y-160905885D01*
X160476000Y-146871367D01*
X161594659Y-146871367D01*
X161718140Y-147170213D01*
X161946584Y-147399057D01*
X162161924Y-147488474D01*
X163368923Y-148695472D01*
X163368925Y-148695475D01*
X163603775Y-148852396D01*
X163880800Y-148907500D01*
X175452981Y-148907500D01*
X175704853Y-149284454D01*
X176034026Y-149504400D01*
X175704853Y-149724346D01*
X175520868Y-149999700D01*
X164180649Y-149999700D01*
X163185446Y-149004496D01*
X163097060Y-148790587D01*
X162868616Y-148561743D01*
X162569985Y-148437741D01*
X162246633Y-148437459D01*
X161947787Y-148560940D01*
X161718943Y-148789384D01*
X161594941Y-149088015D01*
X161594659Y-149411367D01*
X161718140Y-149710213D01*
X161946584Y-149939057D01*
X162161924Y-150028474D01*
X163368923Y-151235472D01*
X163368925Y-151235475D01*
X163603775Y-151392396D01*
X163880800Y-151447500D01*
X175452981Y-151447500D01*
X175704853Y-151824454D01*
X176034026Y-152044400D01*
X175704853Y-152264346D01*
X175520868Y-152539700D01*
X164180649Y-152539700D01*
X163236246Y-151595296D01*
X163147860Y-151381387D01*
X162919416Y-151152543D01*
X162620785Y-151028541D01*
X162297433Y-151028259D01*
X161998587Y-151151740D01*
X161769743Y-151380184D01*
X161645741Y-151678815D01*
X161645459Y-152002167D01*
X161768940Y-152301013D01*
X161997384Y-152529857D01*
X162212724Y-152619274D01*
X163368923Y-153775472D01*
X163368925Y-153775475D01*
X163603775Y-153932396D01*
X163880800Y-153987500D01*
X175452981Y-153987500D01*
X175704853Y-154364454D01*
X176034026Y-154584400D01*
X175704853Y-154804346D01*
X175520868Y-155079700D01*
X164282249Y-155079700D01*
X163337846Y-154135296D01*
X163249460Y-153921387D01*
X163021016Y-153692543D01*
X162722385Y-153568541D01*
X162399033Y-153568259D01*
X162100187Y-153691740D01*
X161871343Y-153920184D01*
X161747341Y-154218815D01*
X161747059Y-154542167D01*
X161870540Y-154841013D01*
X162098984Y-155069857D01*
X162314324Y-155159274D01*
X163470523Y-156315472D01*
X163470525Y-156315475D01*
X163705375Y-156472396D01*
X163982400Y-156527500D01*
X175452981Y-156527500D01*
X175704853Y-156904454D01*
X175748777Y-156933803D01*
X175574302Y-157006073D01*
X175395673Y-157184701D01*
X175299000Y-157418090D01*
X175299000Y-158108650D01*
X175457750Y-158267400D01*
X176657000Y-158267400D01*
X176657000Y-158247400D01*
X176911000Y-158247400D01*
X176911000Y-158267400D01*
X178110250Y-158267400D01*
X178269000Y-158108650D01*
X178269000Y-157418090D01*
X178172327Y-157184701D01*
X177993698Y-157006073D01*
X177819223Y-156933803D01*
X177863147Y-156904454D01*
X178185054Y-156422685D01*
X178298093Y-155854400D01*
X178185054Y-155286115D01*
X177863147Y-154804346D01*
X177533974Y-154584400D01*
X177863147Y-154364454D01*
X178185054Y-153882685D01*
X178298093Y-153314400D01*
X178185054Y-152746115D01*
X177863147Y-152264346D01*
X177533974Y-152044400D01*
X177863147Y-151824454D01*
X178185054Y-151342685D01*
X178298093Y-150774400D01*
X178185054Y-150206115D01*
X177863147Y-149724346D01*
X177533974Y-149504400D01*
X177863147Y-149284454D01*
X178185054Y-148802685D01*
X178298093Y-148234400D01*
X178185054Y-147666115D01*
X177863147Y-147184346D01*
X177533974Y-146964400D01*
X177863147Y-146744454D01*
X178185054Y-146262685D01*
X178298093Y-145694400D01*
X178185054Y-145126115D01*
X177863147Y-144644346D01*
X177533974Y-144424400D01*
X177863147Y-144204454D01*
X178185054Y-143722685D01*
X178298093Y-143154400D01*
X178185054Y-142586115D01*
X177863147Y-142104346D01*
X177533974Y-141884400D01*
X177863147Y-141664454D01*
X178185054Y-141182685D01*
X178298093Y-140614400D01*
X178185054Y-140046115D01*
X177863147Y-139564346D01*
X177533974Y-139344400D01*
X177863147Y-139124454D01*
X178185054Y-138642685D01*
X178298093Y-138074400D01*
X178185054Y-137506115D01*
X177863147Y-137024346D01*
X177533974Y-136804400D01*
X177863147Y-136584454D01*
X178185054Y-136102685D01*
X178298093Y-135534400D01*
X178185054Y-134966115D01*
X177863147Y-134484346D01*
X177533974Y-134264400D01*
X177863147Y-134044454D01*
X178185054Y-133562685D01*
X178298093Y-132994400D01*
X178185054Y-132426115D01*
X177863147Y-131944346D01*
X177533974Y-131724400D01*
X177863147Y-131504454D01*
X178185054Y-131022685D01*
X178298093Y-130454400D01*
X178185054Y-129886115D01*
X177863147Y-129404346D01*
X177533974Y-129184400D01*
X177863147Y-128964454D01*
X178185054Y-128482685D01*
X178298093Y-127914400D01*
X178185054Y-127346115D01*
X177863147Y-126864346D01*
X177533974Y-126644400D01*
X177863147Y-126424454D01*
X178185054Y-125942685D01*
X178298093Y-125374400D01*
X178185054Y-124806115D01*
X177863147Y-124324346D01*
X177533974Y-124104400D01*
X177863147Y-123884454D01*
X178185054Y-123402685D01*
X178298093Y-122834400D01*
X178185054Y-122266115D01*
X177863147Y-121784346D01*
X177533974Y-121564400D01*
X177863147Y-121344454D01*
X178185054Y-120862685D01*
X178298093Y-120294400D01*
X178185054Y-119726115D01*
X177863147Y-119244346D01*
X177533974Y-119024400D01*
X177863147Y-118804454D01*
X178185054Y-118322685D01*
X178298093Y-117754400D01*
X178185054Y-117186115D01*
X177863147Y-116704346D01*
X177381378Y-116382439D01*
X176813093Y-116269400D01*
X176754907Y-116269400D01*
X176186622Y-116382439D01*
X175704853Y-116704346D01*
X175382946Y-117186115D01*
X175269907Y-117754400D01*
X175382946Y-118322685D01*
X175704853Y-118804454D01*
X176034026Y-119024400D01*
X175704853Y-119244346D01*
X175486924Y-119570500D01*
X163576005Y-119570500D01*
X163576000Y-119570499D01*
X163344937Y-119616461D01*
X163298975Y-119625604D01*
X163148549Y-119726115D01*
X163064125Y-119782525D01*
X162263295Y-120583355D01*
X162049387Y-120671740D01*
X161820543Y-120900184D01*
X161696541Y-121198815D01*
X161696259Y-121522167D01*
X161819740Y-121821013D01*
X162048184Y-122049857D01*
X162346815Y-122173859D01*
X162670167Y-122174141D01*
X162969013Y-122050660D01*
X163197857Y-121822216D01*
X163287273Y-121606877D01*
X163875850Y-121018300D01*
X175486924Y-121018300D01*
X175704853Y-121344454D01*
X176034026Y-121564400D01*
X175704853Y-121784346D01*
X175486924Y-122110500D01*
X167589200Y-122110500D01*
X167312175Y-122165604D01*
X167161749Y-122266115D01*
X167077325Y-122322525D01*
X166174895Y-123224955D01*
X165960987Y-123313340D01*
X165732143Y-123541784D01*
X165608141Y-123840415D01*
X165607859Y-124163767D01*
X165731340Y-124462613D01*
X165959784Y-124691457D01*
X166258415Y-124815459D01*
X166581767Y-124815741D01*
X166880613Y-124692260D01*
X167109457Y-124463816D01*
X167198873Y-124248477D01*
X167889050Y-123558300D01*
X175486924Y-123558300D01*
X175704853Y-123884454D01*
X176034026Y-124104400D01*
X175704853Y-124324346D01*
X175382946Y-124806115D01*
X175269907Y-125374400D01*
X175382946Y-125942685D01*
X175704853Y-126424454D01*
X176034026Y-126644400D01*
X175704853Y-126864346D01*
X175382946Y-127346115D01*
X175269907Y-127914400D01*
X175382946Y-128482685D01*
X175704853Y-128964454D01*
X176034026Y-129184400D01*
X175704853Y-129404346D01*
X175382946Y-129886115D01*
X175269907Y-130454400D01*
X175382946Y-131022685D01*
X175704853Y-131504454D01*
X176034026Y-131724400D01*
X175704853Y-131944346D01*
X175382946Y-132426115D01*
X175269907Y-132994400D01*
X175382946Y-133562685D01*
X175704853Y-134044454D01*
X176034026Y-134264400D01*
X175704853Y-134484346D01*
X175382946Y-134966115D01*
X175269907Y-135534400D01*
X175382946Y-136102685D01*
X175704853Y-136584454D01*
X176034026Y-136804400D01*
X175704853Y-137024346D01*
X175382946Y-137506115D01*
X175269907Y-138074400D01*
X175382946Y-138642685D01*
X175704853Y-139124454D01*
X176034026Y-139344400D01*
X175704853Y-139564346D01*
X175382946Y-140046115D01*
X175269907Y-140614400D01*
X175382946Y-141182685D01*
X175704853Y-141664454D01*
X176034026Y-141884400D01*
X175704853Y-142104346D01*
X175520868Y-142379700D01*
X166822250Y-142379700D01*
X163287045Y-138844495D01*
X163198660Y-138630587D01*
X162970216Y-138401743D01*
X162671585Y-138277741D01*
X162348233Y-138277459D01*
X162049387Y-138400940D01*
X161820543Y-138629384D01*
X161696541Y-138928015D01*
X161696259Y-139251367D01*
X161819740Y-139550213D01*
X162048184Y-139779057D01*
X162263523Y-139868473D01*
X166010525Y-143615475D01*
X166245376Y-143772397D01*
X166522400Y-143827501D01*
X166522405Y-143827500D01*
X175452981Y-143827500D01*
X175704853Y-144204454D01*
X176034026Y-144424400D01*
X175704853Y-144644346D01*
X175520868Y-144919700D01*
X166771449Y-144919700D01*
X163337845Y-141486096D01*
X163249460Y-141272187D01*
X163021016Y-141043343D01*
X162722385Y-140919341D01*
X162399033Y-140919059D01*
X162100187Y-141042540D01*
X161871343Y-141270984D01*
X161747341Y-141569615D01*
X161747059Y-141892967D01*
X161870540Y-142191813D01*
X162098984Y-142420657D01*
X162314324Y-142510073D01*
X165959723Y-146155472D01*
X165959725Y-146155475D01*
X166102071Y-146250587D01*
X166194576Y-146312397D01*
X166471600Y-146367501D01*
X166471605Y-146367500D01*
X175452981Y-146367500D01*
X175704853Y-146744454D01*
X176034026Y-146964400D01*
X175704853Y-147184346D01*
X175520868Y-147459700D01*
X164180649Y-147459700D01*
X163185446Y-146464496D01*
X163097060Y-146250587D01*
X162868616Y-146021743D01*
X162569985Y-145897741D01*
X162246633Y-145897459D01*
X161947787Y-146020940D01*
X161718943Y-146249384D01*
X161594941Y-146548015D01*
X161594659Y-146871367D01*
X160476000Y-146871367D01*
X160476000Y-118462355D01*
X164296490Y-118462355D01*
X164392960Y-118695828D01*
X164571432Y-118874613D01*
X164804737Y-118971489D01*
X165057355Y-118971710D01*
X165290828Y-118875240D01*
X165469613Y-118696768D01*
X165566489Y-118463463D01*
X165566710Y-118210845D01*
X165470240Y-117977372D01*
X165291768Y-117798587D01*
X165058463Y-117701711D01*
X164805845Y-117701490D01*
X164572372Y-117797960D01*
X164393587Y-117976432D01*
X164296711Y-118209737D01*
X164296490Y-118462355D01*
X160476000Y-118462355D01*
X160476000Y-116705885D01*
X162546360Y-116705885D01*
X162756769Y-117215115D01*
X163146036Y-117605061D01*
X163654898Y-117816359D01*
X164205885Y-117816840D01*
X164715115Y-117606431D01*
X165105061Y-117217164D01*
X165316359Y-116708302D01*
X165316840Y-116157315D01*
X165106431Y-115648085D01*
X164717164Y-115258139D01*
X164208302Y-115046841D01*
X163657315Y-115046360D01*
X163148085Y-115256769D01*
X162758139Y-115646036D01*
X162546841Y-116154898D01*
X162546360Y-116705885D01*
X160476000Y-116705885D01*
X160476000Y-111454000D01*
X178817200Y-111454000D01*
X178817200Y-162612000D01*
M02*
