G04 #@! TF.FileFunction,Soldermask,Bot*
%FSLAX46Y46*%
G04 Gerber Fmt 4.6, Leading zero omitted, Abs format (unit mm)*
G04 Created by KiCad (PCBNEW 4.0.7) date Thu Jul 26 17:03:26 2018*
%MOMM*%
%LPD*%
G01*
G04 APERTURE LIST*
%ADD10C,0.100000*%
%ADD11C,1.924000*%
%ADD12R,0.960000X4.400000*%
%ADD13C,6.800000*%
%ADD14R,2.100000X2.100000*%
%ADD15O,2.100000X2.100000*%
%ADD16C,0.400000*%
%ADD17C,1.900000*%
G04 APERTURE END LIST*
D10*
D11*
X142824200Y-136220200D03*
X142824200Y-91871800D03*
X98475800Y-136296400D03*
X98475800Y-91948000D03*
X98475800Y-147066000D03*
X142824200Y-147066000D03*
X142824200Y-73660000D03*
X98475800Y-73660000D03*
D12*
X102168800Y-167600000D03*
X103438800Y-167600000D03*
X104708800Y-167600000D03*
X105978800Y-167600000D03*
X107248800Y-167600000D03*
X108518800Y-167600000D03*
X109788800Y-167600000D03*
X111058800Y-167600000D03*
X112328800Y-167600000D03*
X113598800Y-167600000D03*
X114868800Y-167600000D03*
X116138800Y-167600000D03*
X117408800Y-167600000D03*
X118678800Y-167600000D03*
X119948800Y-167600000D03*
X121218800Y-167600000D03*
X122488800Y-167600000D03*
X123758800Y-167600000D03*
X125028800Y-167600000D03*
X126298800Y-167600000D03*
X127568800Y-167600000D03*
X128838800Y-167600000D03*
X130108800Y-167600000D03*
X131378800Y-167600000D03*
X132648800Y-167600000D03*
X133918800Y-167600000D03*
X135188800Y-167600000D03*
X136458800Y-167600000D03*
X137728800Y-167600000D03*
X138998800Y-167600000D03*
D13*
X93573600Y-67310000D03*
X147574000Y-67310000D03*
X93573600Y-159334400D03*
X147574000Y-159334400D03*
D14*
X84937600Y-131267200D03*
D15*
X84937600Y-133807200D03*
X84937600Y-136347200D03*
X84937600Y-138887200D03*
X84937600Y-141427200D03*
X84937600Y-143967200D03*
X84937600Y-146507200D03*
X84937600Y-149047200D03*
X84937600Y-151587200D03*
X84937600Y-154127200D03*
X84937600Y-156667200D03*
X84937600Y-159207200D03*
D14*
X124079000Y-65659000D03*
D15*
X126619000Y-65659000D03*
X129159000Y-65659000D03*
X131699000Y-65659000D03*
X134239000Y-65659000D03*
X136779000Y-65659000D03*
D14*
X84963000Y-101092000D03*
D15*
X84963000Y-98552000D03*
X84963000Y-96012000D03*
X84963000Y-93472000D03*
X84963000Y-90932000D03*
X84963000Y-88392000D03*
X84963000Y-85852000D03*
X84963000Y-83312000D03*
X84963000Y-80772000D03*
X84963000Y-78232000D03*
D16*
X163931600Y-158726600D03*
X164931600Y-118336600D03*
D17*
X163931600Y-160631600D03*
X163931600Y-116431600D03*
D14*
X176784000Y-158394400D03*
D15*
X176784000Y-155854400D03*
X176784000Y-153314400D03*
X176784000Y-150774400D03*
X176784000Y-148234400D03*
X176784000Y-145694400D03*
X176784000Y-143154400D03*
X176784000Y-140614400D03*
X176784000Y-138074400D03*
X176784000Y-135534400D03*
X176784000Y-132994400D03*
X176784000Y-130454400D03*
X176784000Y-127914400D03*
X176784000Y-125374400D03*
X176784000Y-122834400D03*
X176784000Y-120294400D03*
X176784000Y-117754400D03*
D14*
X84963000Y-104013000D03*
D15*
X84963000Y-106553000D03*
X84963000Y-109093000D03*
X84963000Y-111633000D03*
X84963000Y-114173000D03*
X84963000Y-116713000D03*
X84963000Y-119253000D03*
X84963000Y-121793000D03*
X84963000Y-124333000D03*
X84963000Y-126873000D03*
M02*
