G04 #@! TF.FileFunction,Profile,NP*
%FSLAX46Y46*%
G04 Gerber Fmt 4.6, Leading zero omitted, Abs format (unit mm)*
G04 Created by KiCad (PCBNEW 4.0.7) date Thu Jul 26 17:03:26 2018*
%MOMM*%
%LPD*%
G01*
G04 APERTURE LIST*
%ADD10C,0.100000*%
%ADD11C,0.150000*%
%ADD12C,0.120000*%
G04 APERTURE END LIST*
D10*
D11*
X159766000Y-110744000D02*
X159766000Y-110642400D01*
X179527200Y-110744000D02*
X159766000Y-110744000D01*
X179527200Y-163322000D02*
X179527200Y-110744000D01*
X159766000Y-163322000D02*
X179527200Y-163322000D01*
X159766000Y-163322000D02*
X151536400Y-163322000D01*
X159766000Y-63296800D02*
X159766000Y-163322000D01*
X89814400Y-63296800D02*
X159766000Y-63296800D01*
X81229200Y-63296800D02*
X89814400Y-63296800D01*
X81229200Y-163322000D02*
X81229200Y-63296800D01*
X89560400Y-163322000D02*
X81229200Y-163322000D01*
X100330000Y-163322200D02*
X89585800Y-163322200D01*
X100330000Y-170180000D02*
X100330000Y-163322200D01*
X140970000Y-170180000D02*
X100330000Y-170180000D01*
X140970000Y-163322200D02*
X140970000Y-170180000D01*
X151561800Y-163322200D02*
X140970000Y-163322200D01*
X89585800Y-63322200D02*
X151561800Y-63322200D01*
D12*
X100648800Y-170100000D02*
X100648800Y-160100000D01*
X140498800Y-170100000D02*
X140498800Y-160100000D01*
X100323800Y-160100000D02*
X100648800Y-160100000D01*
X140823800Y-160100000D02*
X140498800Y-160100000D01*
X100648800Y-170100000D02*
X140498800Y-170100000D01*
M02*
