G04 #@! TF.GenerationSoftware,KiCad,Pcbnew,5.0.0*
G04 #@! TF.CreationDate,2018-07-26T20:06:55-05:00*
G04 #@! TF.ProjectId,breakout,627265616B6F75742E6B696361645F70,rev?*
G04 #@! TF.SameCoordinates,Original*
G04 #@! TF.FileFunction,Copper,L2,Bot,Signal*
G04 #@! TF.FilePolarity,Positive*
%FSLAX46Y46*%
G04 Gerber Fmt 4.6, Leading zero omitted, Abs format (unit mm)*
G04 Created by KiCad (PCBNEW 5.0.0) date Thu Jul 26 20:06:55 2018*
%MOMM*%
%LPD*%
G01*
G04 APERTURE LIST*
G04 #@! TA.AperFunction,ComponentPad*
%ADD10C,1.524000*%
G04 #@! TD*
G04 #@! TA.AperFunction,SMDPad,CuDef*
%ADD11R,0.560000X4.000000*%
G04 #@! TD*
G04 #@! TA.AperFunction,ComponentPad*
%ADD12C,6.400000*%
G04 #@! TD*
G04 #@! TA.AperFunction,ComponentPad*
%ADD13R,1.700000X1.700000*%
G04 #@! TD*
G04 #@! TA.AperFunction,ComponentPad*
%ADD14O,1.700000X1.700000*%
G04 #@! TD*
G04 #@! TA.AperFunction,ComponentPad*
%ADD15C,1.500000*%
G04 #@! TD*
G04 #@! TA.AperFunction,ViaPad*
%ADD16C,0.355600*%
G04 #@! TD*
G04 #@! TA.AperFunction,Conductor*
%ADD17C,0.177800*%
G04 #@! TD*
G04 #@! TA.AperFunction,Conductor*
%ADD18C,0.254000*%
G04 #@! TD*
G04 APERTURE END LIST*
D10*
G04 #@! TO.P,P4,2*
G04 #@! TO.N,GND*
X142824200Y-136220200D03*
G04 #@! TO.P,P4,*
G04 #@! TO.N,*
X142824200Y-91871800D03*
G04 #@! TD*
G04 #@! TO.P,P3,2*
G04 #@! TO.N,JTAG_TMS*
X98475800Y-136296400D03*
G04 #@! TO.P,P3,*
G04 #@! TO.N,*
X98475800Y-91948000D03*
G04 #@! TD*
G04 #@! TO.P,P2,2*
G04 #@! TO.N,GPO_1*
X98475800Y-147066000D03*
G04 #@! TO.P,P2,*
G04 #@! TO.N,*
X142824200Y-147066000D03*
G04 #@! TD*
G04 #@! TO.P,P1,2*
G04 #@! TO.N,GND*
X142824200Y-73660000D03*
G04 #@! TO.P,P1,*
G04 #@! TO.N,*
X98475800Y-73660000D03*
G04 #@! TD*
D11*
G04 #@! TO.P,P7,2*
G04 #@! TO.N,GND*
X102168800Y-167600000D03*
G04 #@! TO.P,P7,4*
X103438800Y-167600000D03*
G04 #@! TO.P,P7,6*
G04 #@! TO.N,MIO51*
X104708800Y-167600000D03*
G04 #@! TO.P,P7,8*
G04 #@! TO.N,GND*
X105978800Y-167600000D03*
G04 #@! TO.P,P7,10*
G04 #@! TO.N,MIO49*
X107248800Y-167600000D03*
G04 #@! TO.P,P7,12*
G04 #@! TO.N,GND*
X108518800Y-167600000D03*
G04 #@! TO.P,P7,14*
G04 #@! TO.N,MIO47*
X109788800Y-167600000D03*
G04 #@! TO.P,P7,16*
G04 #@! TO.N,GND*
X111058800Y-167600000D03*
G04 #@! TO.P,P7,18*
G04 #@! TO.N,MIO46*
X112328800Y-167600000D03*
G04 #@! TO.P,P7,20*
G04 #@! TO.N,GND*
X113598800Y-167600000D03*
G04 #@! TO.P,P7,22*
G04 #@! TO.N,Net-(P7-Pad22)*
X114868800Y-167600000D03*
G04 #@! TO.P,P7,24*
G04 #@! TO.N,GND*
X116138800Y-167600000D03*
G04 #@! TO.P,P7,26*
G04 #@! TO.N,MIO11*
X117408800Y-167600000D03*
G04 #@! TO.P,P7,28*
G04 #@! TO.N,GND*
X118678800Y-167600000D03*
G04 #@! TO.P,P7,30*
G04 #@! TO.N,MIO12*
X119948800Y-167600000D03*
G04 #@! TO.P,P7,32*
G04 #@! TO.N,GND*
X121218800Y-167600000D03*
G04 #@! TO.P,P7,34*
G04 #@! TO.N,+5V*
X122488800Y-167600000D03*
G04 #@! TO.P,P7,36*
G04 #@! TO.N,GND*
X123758800Y-167600000D03*
G04 #@! TO.P,P7,38*
G04 #@! TO.N,+5V*
X125028800Y-167600000D03*
G04 #@! TO.P,P7,40*
G04 #@! TO.N,GND*
X126298800Y-167600000D03*
G04 #@! TO.P,P7,42*
G04 #@! TO.N,Net-(P7-Pad42)*
X127568800Y-167600000D03*
G04 #@! TO.P,P7,44*
G04 #@! TO.N,GND*
X128838800Y-167600000D03*
G04 #@! TO.P,P7,46*
G04 #@! TO.N,Net-(P7-Pad46)*
X130108800Y-167600000D03*
G04 #@! TO.P,P7,48*
G04 #@! TO.N,GND*
X131378800Y-167600000D03*
G04 #@! TO.P,P7,50*
G04 #@! TO.N,Net-(P7-Pad50)*
X132648800Y-167600000D03*
G04 #@! TO.P,P7,52*
G04 #@! TO.N,GND*
X133918800Y-167600000D03*
G04 #@! TO.P,P7,54*
G04 #@! TO.N,Net-(P7-Pad54)*
X135188800Y-167600000D03*
G04 #@! TO.P,P7,56*
G04 #@! TO.N,GND*
X136458800Y-167600000D03*
G04 #@! TO.P,P7,58*
G04 #@! TO.N,FPGA_DONE*
X137728800Y-167600000D03*
G04 #@! TO.P,P7,60*
G04 #@! TO.N,GND*
X138998800Y-167600000D03*
G04 #@! TD*
D12*
G04 #@! TO.P,REF\002A\002A,1*
G04 #@! TO.N,N/C*
X93573600Y-67310000D03*
G04 #@! TD*
G04 #@! TO.P,REF\002A\002A,1*
G04 #@! TO.N,N/C*
X147574000Y-67310000D03*
G04 #@! TD*
G04 #@! TO.P,REF\002A\002A,1*
G04 #@! TO.N,N/C*
X93573600Y-159334400D03*
G04 #@! TD*
G04 #@! TO.P,REF\002A\002A,1*
G04 #@! TO.N,N/C*
X147574000Y-159334400D03*
G04 #@! TD*
D13*
G04 #@! TO.P,J2,1*
G04 #@! TO.N,MIO12*
X84937600Y-131267200D03*
D14*
G04 #@! TO.P,J2,2*
G04 #@! TO.N,MIO11*
X84937600Y-133807200D03*
G04 #@! TO.P,J2,3*
G04 #@! TO.N,MIO46*
X84937600Y-136347200D03*
G04 #@! TO.P,J2,4*
G04 #@! TO.N,MIO47*
X84937600Y-138887200D03*
G04 #@! TO.P,J2,5*
G04 #@! TO.N,MIO49*
X84937600Y-141427200D03*
G04 #@! TO.P,J2,6*
G04 #@! TO.N,MIO51*
X84937600Y-143967200D03*
G04 #@! TO.P,J2,7*
G04 #@! TO.N,MIO15*
X84937600Y-146507200D03*
G04 #@! TO.P,J2,8*
G04 #@! TO.N,MIO10*
X84937600Y-149047200D03*
G04 #@! TO.P,J2,9*
G04 #@! TO.N,MIO13*
X84937600Y-151587200D03*
G04 #@! TO.P,J2,10*
G04 #@! TO.N,MIO14*
X84937600Y-154127200D03*
G04 #@! TO.P,J2,11*
G04 #@! TO.N,MIO0*
X84937600Y-156667200D03*
G04 #@! TO.P,J2,12*
G04 #@! TO.N,MIO48*
X84937600Y-159207200D03*
G04 #@! TD*
D13*
G04 #@! TO.P,J3,1*
G04 #@! TO.N,USB_ID*
X124079000Y-65659000D03*
D14*
G04 #@! TO.P,J3,2*
G04 #@! TO.N,USB_OTG_P*
X126619000Y-65659000D03*
G04 #@! TO.P,J3,3*
G04 #@! TO.N,USB_OTG_N*
X129159000Y-65659000D03*
G04 #@! TO.P,J3,4*
G04 #@! TO.N,GND*
X131699000Y-65659000D03*
G04 #@! TO.P,J3,5*
G04 #@! TO.N,USB_VBUS_OTG*
X134239000Y-65659000D03*
G04 #@! TO.P,J3,6*
G04 #@! TO.N,USB_OTG_CPEN*
X136779000Y-65659000D03*
G04 #@! TD*
D13*
G04 #@! TO.P,J1,1*
G04 #@! TO.N,+5V*
X84963000Y-101092000D03*
D14*
G04 #@! TO.P,J1,2*
G04 #@! TO.N,PWR_ENABLE*
X84963000Y-98552000D03*
G04 #@! TO.P,J1,3*
G04 #@! TO.N,FPGA_VBATT*
X84963000Y-96012000D03*
G04 #@! TO.P,J1,4*
G04 #@! TO.N,JX_VCCO_12*
X84963000Y-93472000D03*
G04 #@! TO.P,J1,5*
G04 #@! TO.N,JX_VCCO_33_34*
X84963000Y-90932000D03*
G04 #@! TO.P,J1,6*
G04 #@! TO.N,JX_VCCO_13*
X84963000Y-88392000D03*
G04 #@! TO.P,J1,7*
G04 #@! TO.N,3V3_I2C*
X84963000Y-85852000D03*
G04 #@! TO.P,J1,8*
G04 #@! TO.N,JX_MGTAVTT*
X84963000Y-83312000D03*
G04 #@! TO.P,J1,9*
G04 #@! TO.N,JX_MGTAVCC*
X84963000Y-80772000D03*
G04 #@! TO.P,J1,10*
G04 #@! TO.N,GND*
X84963000Y-78232000D03*
G04 #@! TD*
D15*
G04 #@! TO.P,P5,*
G04 #@! TO.N,*
X163931600Y-160631600D03*
X163931600Y-116431600D03*
G04 #@! TD*
D13*
G04 #@! TO.P,J4,1*
G04 #@! TO.N,+5V*
X176784000Y-158394400D03*
D14*
G04 #@! TO.P,J4,2*
G04 #@! TO.N,MIO51*
X176784000Y-155854400D03*
G04 #@! TO.P,J4,3*
G04 #@! TO.N,MIO49*
X176784000Y-153314400D03*
G04 #@! TO.P,J4,4*
G04 #@! TO.N,MIO47*
X176784000Y-150774400D03*
G04 #@! TO.P,J4,5*
G04 #@! TO.N,MIO46*
X176784000Y-148234400D03*
G04 #@! TO.P,J4,6*
G04 #@! TO.N,MIO11*
X176784000Y-145694400D03*
G04 #@! TO.P,J4,7*
G04 #@! TO.N,MIO12*
X176784000Y-143154400D03*
G04 #@! TO.P,J4,8*
G04 #@! TO.N,MIO48*
X176784000Y-140614400D03*
G04 #@! TO.P,J4,9*
G04 #@! TO.N,MIO0*
X176784000Y-138074400D03*
G04 #@! TO.P,J4,10*
G04 #@! TO.N,MIO14*
X176784000Y-135534400D03*
G04 #@! TO.P,J4,11*
G04 #@! TO.N,MIO13*
X176784000Y-132994400D03*
G04 #@! TO.P,J4,12*
G04 #@! TO.N,MIO10*
X176784000Y-130454400D03*
G04 #@! TO.P,J4,13*
G04 #@! TO.N,MIO15*
X176784000Y-127914400D03*
G04 #@! TO.P,J4,14*
G04 #@! TO.N,PWR_ENABLE*
X176784000Y-125374400D03*
G04 #@! TO.P,J4,15*
G04 #@! TO.N,PG_MODULE*
X176784000Y-122834400D03*
G04 #@! TO.P,J4,16*
G04 #@! TO.N,FPGA_DONE*
X176784000Y-120294400D03*
G04 #@! TO.P,J4,17*
G04 #@! TO.N,GND*
X176784000Y-117754400D03*
G04 #@! TD*
D13*
G04 #@! TO.P,J5,1*
G04 #@! TO.N,IO_L16_33_JX1_P*
X84963000Y-104013000D03*
D14*
G04 #@! TO.P,J5,2*
G04 #@! TO.N,IO_L16_33_JX1_N*
X84963000Y-106553000D03*
G04 #@! TO.P,J5,3*
G04 #@! TO.N,IO_L18_33_JX1_P*
X84963000Y-109093000D03*
G04 #@! TO.P,J5,4*
G04 #@! TO.N,IO_L18_33_JX1_N*
X84963000Y-111633000D03*
G04 #@! TO.P,J5,5*
G04 #@! TO.N,IO_L20_33_JX1_P*
X84963000Y-114173000D03*
G04 #@! TO.P,J5,6*
G04 #@! TO.N,IO_L20_33_JX1_N*
X84963000Y-116713000D03*
G04 #@! TO.P,J5,7*
G04 #@! TO.N,IO_L22_33_JX1_P*
X84963000Y-119253000D03*
G04 #@! TO.P,J5,8*
G04 #@! TO.N,IO_L22_33_JX1_N*
X84963000Y-121793000D03*
G04 #@! TO.P,J5,9*
G04 #@! TO.N,IO_L01_33_JX1_P*
X84963000Y-124333000D03*
G04 #@! TO.P,J5,10*
G04 #@! TO.N,IO_L01_33_JX1_N*
X84963000Y-126873000D03*
G04 #@! TD*
D16*
G04 #@! TO.N,*
X118491000Y-164592000D03*
X118618000Y-161671000D03*
X114427000Y-161798000D03*
X114681000Y-157861000D03*
X110617000Y-160782000D03*
X110871000Y-154178000D03*
X108585000Y-159258000D03*
X108712000Y-152527000D03*
X104902000Y-156972000D03*
X106172000Y-155829000D03*
X126619000Y-69850000D03*
X124460000Y-69723000D03*
G04 #@! TO.N,+5V*
X125028800Y-167600000D03*
X122488800Y-167600000D03*
X163880800Y-135432800D03*
G04 #@! TO.N,PWR_ENABLE*
X99822000Y-96139000D03*
X90551000Y-98552000D03*
G04 #@! TO.N,FPGA_VBATT*
X99822000Y-96901000D03*
X93599000Y-96901000D03*
G04 #@! TO.N,JX_VCCO_13*
X133477000Y-123444000D03*
X131953000Y-117348000D03*
G04 #@! TO.N,3V3_I2C*
X108331000Y-146685000D03*
X108077000Y-142494000D03*
X108204000Y-99060000D03*
X104902000Y-87249000D03*
G04 #@! TO.N,MIO15*
X87376000Y-146558000D03*
G04 #@! TO.N,MIO48*
X100076000Y-154178000D03*
X104013000Y-161925000D03*
G04 #@! TO.N,MIO51*
X162560000Y-154381200D03*
X100990400Y-145034000D03*
G04 #@! TO.N,MIO49*
X162458400Y-151841200D03*
X101803200Y-144881600D03*
G04 #@! TO.N,MIO47*
X162407600Y-149250400D03*
X103428800Y-144932400D03*
G04 #@! TO.N,MIO46*
X162407600Y-146710400D03*
X104241600Y-145694400D03*
G04 #@! TO.N,MIO11*
X105791000Y-145669000D03*
X162560000Y-141732000D03*
G04 #@! TO.N,MIO12*
X106680000Y-145669000D03*
X162509200Y-139090400D03*
G04 #@! TO.N,USB_OTG_CPEN*
X128270000Y-75946000D03*
G04 #@! TO.N,USB_VBUS_OTG*
X127381000Y-75438000D03*
G04 #@! TO.N,IO_L16_33_JX1_P*
X99949000Y-98552000D03*
G04 #@! TO.N,IO_L16_33_JX1_N*
X100076000Y-99314000D03*
G04 #@! TO.N,IO_L18_33_JX1_P*
X99822000Y-100965000D03*
G04 #@! TO.N,IO_L18_33_JX1_N*
X99949000Y-101727000D03*
G04 #@! TO.N,IO_L20_33_JX1_P*
X99949000Y-103378000D03*
G04 #@! TO.N,IO_L20_33_JX1_N*
X99949000Y-104140000D03*
G04 #@! TO.N,IO_L22_33_JX1_P*
X99822000Y-105791000D03*
G04 #@! TO.N,IO_L22_33_JX1_N*
X99949000Y-106553000D03*
G04 #@! TO.N,IO_L01_33_JX1_P*
X99949000Y-108077000D03*
G04 #@! TO.N,IO_L01_33_JX1_N*
X99822000Y-108966000D03*
G04 #@! TO.N,PG_MODULE*
X166420800Y-124002800D03*
G04 #@! TO.N,FPGA_DONE*
X162509200Y-121361200D03*
G04 #@! TD*
D17*
G04 #@! TO.N,*
X118618000Y-161671000D02*
X118618000Y-164465000D01*
X118618000Y-164465000D02*
X118491000Y-164592000D01*
X114681000Y-157861000D02*
X114681000Y-161544000D01*
X114681000Y-161544000D02*
X114427000Y-161798000D01*
X110871000Y-154178000D02*
X110871000Y-160528000D01*
X110871000Y-160528000D02*
X110617000Y-160782000D01*
X108712000Y-152527000D02*
X108712000Y-159131000D01*
X108712000Y-159131000D02*
X108585000Y-159258000D01*
X106172000Y-155829000D02*
X106045000Y-155829000D01*
X106045000Y-155829000D02*
X104902000Y-156972000D01*
X124460000Y-69723000D02*
X126492000Y-69723000D01*
X126492000Y-69723000D02*
X126619000Y-69850000D01*
G04 #@! TO.N,+5V*
X163880800Y-135432800D02*
X163880800Y-135382000D01*
G04 #@! TO.N,PWR_ENABLE*
X92964000Y-96139000D02*
X99822000Y-96139000D01*
X90551000Y-98552000D02*
X92964000Y-96139000D01*
G04 #@! TO.N,FPGA_VBATT*
X93599000Y-96901000D02*
X99822000Y-96901000D01*
G04 #@! TO.N,JX_VCCO_13*
X133477000Y-118872000D02*
X133477000Y-123444000D01*
X131953000Y-117348000D02*
X133477000Y-118872000D01*
G04 #@! TO.N,3V3_I2C*
X108331000Y-142748000D02*
X108331000Y-146685000D01*
X108077000Y-142494000D02*
X108331000Y-142748000D01*
X108204000Y-90551000D02*
X108204000Y-99060000D01*
X104902000Y-87249000D02*
X108204000Y-90551000D01*
G04 #@! TO.N,MIO15*
X84937600Y-146507200D02*
X87325200Y-146507200D01*
X87325200Y-146507200D02*
X87376000Y-146558000D01*
G04 #@! TO.N,MIO48*
X104013000Y-160147000D02*
X104013000Y-161925000D01*
X100076000Y-154178000D02*
X100076000Y-155702000D01*
X100076000Y-155702000D02*
X100076000Y-156210000D01*
X100076000Y-156210000D02*
X104013000Y-160147000D01*
G04 #@! TO.N,MIO51*
X176225200Y-155803600D02*
X163982400Y-155803600D01*
X163982400Y-155803600D02*
X162560000Y-154381200D01*
X104708800Y-167600000D02*
X104708800Y-157794800D01*
X100990400Y-154076400D02*
X100990400Y-145034000D01*
X104708800Y-157794800D02*
X100990400Y-154076400D01*
G04 #@! TO.N,MIO49*
X176225200Y-153263600D02*
X163880800Y-153263600D01*
X163880800Y-153263600D02*
X162458400Y-151841200D01*
X107248800Y-167600000D02*
X107248800Y-152308400D01*
X101803200Y-146862800D02*
X101803200Y-144881600D01*
X107248800Y-152308400D02*
X101803200Y-146862800D01*
G04 #@! TO.N,MIO47*
X176225200Y-150723600D02*
X163880800Y-150723600D01*
X163880800Y-150723600D02*
X162407600Y-149250400D01*
X109788800Y-167600000D02*
X109788800Y-152918000D01*
X103428800Y-146558000D02*
X103428800Y-144932400D01*
X109788800Y-152918000D02*
X103428800Y-146558000D01*
G04 #@! TO.N,MIO46*
X176225200Y-148183600D02*
X163880800Y-148183600D01*
X163880800Y-148183600D02*
X162407600Y-146710400D01*
X112328800Y-167600000D02*
X112328800Y-154492800D01*
X104241600Y-146405600D02*
X104241600Y-145694400D01*
X112328800Y-154492800D02*
X104241600Y-146405600D01*
G04 #@! TO.N,MIO11*
X117408800Y-167600000D02*
X117408800Y-157794800D01*
X105791000Y-146177000D02*
X105791000Y-145669000D01*
X117408800Y-157794800D02*
X105791000Y-146177000D01*
X176225200Y-145643600D02*
X166471600Y-145643600D01*
X166471600Y-145643600D02*
X162560000Y-141732000D01*
G04 #@! TO.N,MIO12*
X119948800Y-167600000D02*
X119948800Y-159191800D01*
X106680000Y-145923000D02*
X106680000Y-145669000D01*
X119948800Y-159191800D02*
X106680000Y-145923000D01*
X176225200Y-143103600D02*
X166522400Y-143103600D01*
X166522400Y-143103600D02*
X162509200Y-139090400D01*
G04 #@! TO.N,USB_OTG_CPEN*
X136779000Y-65659000D02*
X136779000Y-67437000D01*
X136779000Y-67437000D02*
X128270000Y-75946000D01*
G04 #@! TO.N,USB_VBUS_OTG*
X134239000Y-65659000D02*
X134239000Y-68580000D01*
X134239000Y-68580000D02*
X127381000Y-75438000D01*
G04 #@! TO.N,IO_L16_33_JX1_P*
X84963000Y-104013000D02*
X93091000Y-104013000D01*
X98552000Y-98552000D02*
X99949000Y-98552000D01*
X93091000Y-104013000D02*
X98552000Y-98552000D01*
G04 #@! TO.N,IO_L16_33_JX1_N*
X84963000Y-106553000D02*
X91440000Y-106553000D01*
X98679000Y-99314000D02*
X100076000Y-99314000D01*
X91440000Y-106553000D02*
X98679000Y-99314000D01*
G04 #@! TO.N,IO_L18_33_JX1_P*
X84963000Y-109093000D02*
X90678000Y-109093000D01*
X98806000Y-100965000D02*
X99822000Y-100965000D01*
X90678000Y-109093000D02*
X98806000Y-100965000D01*
G04 #@! TO.N,IO_L18_33_JX1_N*
X84963000Y-111633000D02*
X89154000Y-111633000D01*
X99060000Y-101727000D02*
X99949000Y-101727000D01*
X89154000Y-111633000D02*
X99060000Y-101727000D01*
G04 #@! TO.N,IO_L20_33_JX1_P*
X84963000Y-114173000D02*
X87757000Y-114173000D01*
X98552000Y-103378000D02*
X99949000Y-103378000D01*
X87757000Y-114173000D02*
X98552000Y-103378000D01*
G04 #@! TO.N,IO_L20_33_JX1_N*
X84963000Y-116713000D02*
X86106000Y-116713000D01*
X98679000Y-104140000D02*
X99949000Y-104140000D01*
X86106000Y-116713000D02*
X98679000Y-104140000D01*
G04 #@! TO.N,IO_L22_33_JX1_P*
X84963000Y-119253000D02*
X86995000Y-119253000D01*
X98425000Y-105791000D02*
X99822000Y-105791000D01*
X97409000Y-106807000D02*
X98425000Y-105791000D01*
X97409000Y-108839000D02*
X97409000Y-106807000D01*
X86995000Y-119253000D02*
X97409000Y-108839000D01*
G04 #@! TO.N,IO_L22_33_JX1_N*
X84963000Y-121793000D02*
X86106000Y-121793000D01*
X99060000Y-106553000D02*
X99949000Y-106553000D01*
X98171000Y-107442000D02*
X99060000Y-106553000D01*
X98171000Y-109728000D02*
X98171000Y-107442000D01*
X86106000Y-121793000D02*
X98171000Y-109728000D01*
G04 #@! TO.N,IO_L01_33_JX1_P*
X84963000Y-124333000D02*
X98806000Y-110490000D01*
X99441000Y-108077000D02*
X99949000Y-108077000D01*
X98806000Y-108712000D02*
X99441000Y-108077000D01*
X98806000Y-110490000D02*
X98806000Y-108712000D01*
G04 #@! TO.N,IO_L01_33_JX1_N*
X84963000Y-126873000D02*
X99822000Y-112014000D01*
X99822000Y-112014000D02*
X99822000Y-108966000D01*
G04 #@! TO.N,PG_MODULE*
X176784000Y-122834400D02*
X167589200Y-122834400D01*
X167589200Y-122834400D02*
X166420800Y-124002800D01*
G04 #@! TO.N,FPGA_DONE*
X176784000Y-120294400D02*
X163576000Y-120294400D01*
X163576000Y-120294400D02*
X162509200Y-121361200D01*
G04 #@! TD*
D18*
G04 #@! TO.N,+5V*
G36*
X89515874Y-64032200D02*
X91465571Y-64032200D01*
X91401247Y-64058844D01*
X90322444Y-65137647D01*
X89738600Y-66547171D01*
X89738600Y-68072829D01*
X90322444Y-69482353D01*
X91401247Y-70561156D01*
X92810771Y-71145000D01*
X94336429Y-71145000D01*
X95745953Y-70561156D01*
X96745785Y-69561324D01*
X123647200Y-69561324D01*
X123647200Y-69884676D01*
X123770941Y-70183414D01*
X123999586Y-70412059D01*
X124298324Y-70535800D01*
X124621676Y-70535800D01*
X124836300Y-70446900D01*
X126066427Y-70446900D01*
X126158586Y-70539059D01*
X126457324Y-70662800D01*
X126780676Y-70662800D01*
X127079414Y-70539059D01*
X127308059Y-70310414D01*
X127431800Y-70011676D01*
X127431800Y-69688324D01*
X127308059Y-69389586D01*
X127079414Y-69160941D01*
X126780676Y-69037200D01*
X126754840Y-69037200D01*
X126563298Y-68999100D01*
X126492000Y-68984918D01*
X126420702Y-68999100D01*
X124836300Y-68999100D01*
X124621676Y-68910200D01*
X124298324Y-68910200D01*
X123999586Y-69033941D01*
X123770941Y-69262586D01*
X123647200Y-69561324D01*
X96745785Y-69561324D01*
X96824756Y-69482353D01*
X97408600Y-68072829D01*
X97408600Y-66547171D01*
X96824756Y-65137647D01*
X96496109Y-64809000D01*
X122581560Y-64809000D01*
X122581560Y-66509000D01*
X122630843Y-66756765D01*
X122771191Y-66966809D01*
X122981235Y-67107157D01*
X123229000Y-67156440D01*
X124929000Y-67156440D01*
X125176765Y-67107157D01*
X125386809Y-66966809D01*
X125527157Y-66756765D01*
X125536184Y-66711381D01*
X125548375Y-66729625D01*
X126039582Y-67057839D01*
X126472744Y-67144000D01*
X126765256Y-67144000D01*
X127198418Y-67057839D01*
X127689625Y-66729625D01*
X127889000Y-66431239D01*
X128088375Y-66729625D01*
X128579582Y-67057839D01*
X129012744Y-67144000D01*
X129305256Y-67144000D01*
X129738418Y-67057839D01*
X130229625Y-66729625D01*
X130429000Y-66431239D01*
X130628375Y-66729625D01*
X131119582Y-67057839D01*
X131552744Y-67144000D01*
X131845256Y-67144000D01*
X132278418Y-67057839D01*
X132769625Y-66729625D01*
X132969000Y-66431239D01*
X133168375Y-66729625D01*
X133515100Y-66961300D01*
X133515101Y-68280149D01*
X127135211Y-74660040D01*
X126920586Y-74748941D01*
X126691941Y-74977586D01*
X126568200Y-75276324D01*
X126568200Y-75599676D01*
X126691941Y-75898414D01*
X126920586Y-76127059D01*
X127219324Y-76250800D01*
X127516484Y-76250800D01*
X127580941Y-76406414D01*
X127809586Y-76635059D01*
X128108324Y-76758800D01*
X128431676Y-76758800D01*
X128730414Y-76635059D01*
X128959059Y-76406414D01*
X129047960Y-76191788D01*
X131857629Y-73382119D01*
X141427200Y-73382119D01*
X141427200Y-73937881D01*
X141639880Y-74451337D01*
X142032863Y-74844320D01*
X142546319Y-75057000D01*
X143102081Y-75057000D01*
X143615537Y-74844320D01*
X144008520Y-74451337D01*
X144221200Y-73937881D01*
X144221200Y-73382119D01*
X144008520Y-72868663D01*
X143615537Y-72475680D01*
X143102081Y-72263000D01*
X142546319Y-72263000D01*
X142032863Y-72475680D01*
X141639880Y-72868663D01*
X141427200Y-73382119D01*
X131857629Y-73382119D01*
X137240458Y-67999291D01*
X137300903Y-67958903D01*
X137460899Y-67719452D01*
X137502900Y-67508298D01*
X137502900Y-67508297D01*
X137517082Y-67437001D01*
X137502900Y-67365704D01*
X137502900Y-66961299D01*
X137849625Y-66729625D01*
X138177839Y-66238418D01*
X138293092Y-65659000D01*
X138177839Y-65079582D01*
X137849625Y-64588375D01*
X137358418Y-64260161D01*
X136925256Y-64174000D01*
X136632744Y-64174000D01*
X136199582Y-64260161D01*
X135708375Y-64588375D01*
X135509000Y-64886761D01*
X135309625Y-64588375D01*
X134818418Y-64260161D01*
X134385256Y-64174000D01*
X134092744Y-64174000D01*
X133659582Y-64260161D01*
X133168375Y-64588375D01*
X132969000Y-64886761D01*
X132769625Y-64588375D01*
X132278418Y-64260161D01*
X131845256Y-64174000D01*
X131552744Y-64174000D01*
X131119582Y-64260161D01*
X130628375Y-64588375D01*
X130429000Y-64886761D01*
X130229625Y-64588375D01*
X129738418Y-64260161D01*
X129305256Y-64174000D01*
X129012744Y-64174000D01*
X128579582Y-64260161D01*
X128088375Y-64588375D01*
X127889000Y-64886761D01*
X127689625Y-64588375D01*
X127198418Y-64260161D01*
X126765256Y-64174000D01*
X126472744Y-64174000D01*
X126039582Y-64260161D01*
X125548375Y-64588375D01*
X125536184Y-64606619D01*
X125527157Y-64561235D01*
X125386809Y-64351191D01*
X125176765Y-64210843D01*
X124929000Y-64161560D01*
X123229000Y-64161560D01*
X122981235Y-64210843D01*
X122771191Y-64351191D01*
X122630843Y-64561235D01*
X122581560Y-64809000D01*
X96496109Y-64809000D01*
X95745953Y-64058844D01*
X95681629Y-64032200D01*
X145465971Y-64032200D01*
X145401647Y-64058844D01*
X144322844Y-65137647D01*
X143739000Y-66547171D01*
X143739000Y-68072829D01*
X144322844Y-69482353D01*
X145401647Y-70561156D01*
X146811171Y-71145000D01*
X148336829Y-71145000D01*
X149746353Y-70561156D01*
X150825156Y-69482353D01*
X151409000Y-68072829D01*
X151409000Y-66547171D01*
X150825156Y-65137647D01*
X149746353Y-64058844D01*
X149682029Y-64032200D01*
X151631726Y-64032200D01*
X151759421Y-64006800D01*
X159056000Y-64006800D01*
X159056000Y-110674072D01*
X159042091Y-110744000D01*
X159056000Y-110813925D01*
X159056001Y-162612000D01*
X151466474Y-162612000D01*
X151465469Y-162612200D01*
X149682029Y-162612200D01*
X149746353Y-162585556D01*
X150825156Y-161506753D01*
X151409000Y-160097229D01*
X151409000Y-158571571D01*
X150825156Y-157162047D01*
X149746353Y-156083244D01*
X148336829Y-155499400D01*
X146811171Y-155499400D01*
X145401647Y-156083244D01*
X144322844Y-157162047D01*
X143739000Y-158571571D01*
X143739000Y-160097229D01*
X144322844Y-161506753D01*
X145401647Y-162585556D01*
X145465971Y-162612200D01*
X141193800Y-162612200D01*
X141193800Y-160688642D01*
X141324866Y-160601066D01*
X141478475Y-160371175D01*
X141532415Y-160100000D01*
X141478475Y-159828825D01*
X141324866Y-159598934D01*
X141094975Y-159445325D01*
X140892247Y-159405000D01*
X140567247Y-159405000D01*
X140498800Y-159391385D01*
X140430353Y-159405000D01*
X140227625Y-159445325D01*
X139997734Y-159598934D01*
X139844125Y-159828825D01*
X139790185Y-160100000D01*
X139803801Y-160168452D01*
X139803800Y-165242749D01*
X139736609Y-165142191D01*
X139526565Y-165001843D01*
X139278800Y-164952560D01*
X138718800Y-164952560D01*
X138471035Y-165001843D01*
X138363800Y-165073496D01*
X138256565Y-165001843D01*
X138008800Y-164952560D01*
X137448800Y-164952560D01*
X137201035Y-165001843D01*
X137093800Y-165073496D01*
X136986565Y-165001843D01*
X136738800Y-164952560D01*
X136178800Y-164952560D01*
X135931035Y-165001843D01*
X135823800Y-165073496D01*
X135716565Y-165001843D01*
X135468800Y-164952560D01*
X134908800Y-164952560D01*
X134661035Y-165001843D01*
X134553800Y-165073496D01*
X134446565Y-165001843D01*
X134198800Y-164952560D01*
X133638800Y-164952560D01*
X133391035Y-165001843D01*
X133283800Y-165073496D01*
X133176565Y-165001843D01*
X132928800Y-164952560D01*
X132368800Y-164952560D01*
X132121035Y-165001843D01*
X132013800Y-165073496D01*
X131906565Y-165001843D01*
X131658800Y-164952560D01*
X131098800Y-164952560D01*
X130851035Y-165001843D01*
X130743800Y-165073496D01*
X130636565Y-165001843D01*
X130388800Y-164952560D01*
X129828800Y-164952560D01*
X129581035Y-165001843D01*
X129473800Y-165073496D01*
X129366565Y-165001843D01*
X129118800Y-164952560D01*
X128558800Y-164952560D01*
X128311035Y-165001843D01*
X128203800Y-165073496D01*
X128096565Y-165001843D01*
X127848800Y-164952560D01*
X127288800Y-164952560D01*
X127041035Y-165001843D01*
X126933800Y-165073496D01*
X126826565Y-165001843D01*
X126578800Y-164952560D01*
X126018800Y-164952560D01*
X125771035Y-165001843D01*
X125673703Y-165066878D01*
X125668498Y-165061673D01*
X125435109Y-164965000D01*
X125314550Y-164965000D01*
X125155800Y-165123750D01*
X125155800Y-167473000D01*
X125175800Y-167473000D01*
X125175800Y-167727000D01*
X125155800Y-167727000D01*
X125155800Y-167747000D01*
X124901800Y-167747000D01*
X124901800Y-167727000D01*
X124881800Y-167727000D01*
X124881800Y-167473000D01*
X124901800Y-167473000D01*
X124901800Y-165123750D01*
X124743050Y-164965000D01*
X124622491Y-164965000D01*
X124389102Y-165061673D01*
X124383897Y-165066878D01*
X124286565Y-165001843D01*
X124038800Y-164952560D01*
X123478800Y-164952560D01*
X123231035Y-165001843D01*
X123133703Y-165066878D01*
X123128498Y-165061673D01*
X122895109Y-164965000D01*
X122774550Y-164965000D01*
X122615800Y-165123750D01*
X122615800Y-167473000D01*
X122635800Y-167473000D01*
X122635800Y-167727000D01*
X122615800Y-167727000D01*
X122615800Y-167747000D01*
X122361800Y-167747000D01*
X122361800Y-167727000D01*
X122341800Y-167727000D01*
X122341800Y-167473000D01*
X122361800Y-167473000D01*
X122361800Y-165123750D01*
X122203050Y-164965000D01*
X122082491Y-164965000D01*
X121849102Y-165061673D01*
X121843897Y-165066878D01*
X121746565Y-165001843D01*
X121498800Y-164952560D01*
X120938800Y-164952560D01*
X120691035Y-165001843D01*
X120672700Y-165014094D01*
X120672700Y-159263098D01*
X120686882Y-159191800D01*
X120630699Y-158909348D01*
X120556022Y-158797586D01*
X120470703Y-158669897D01*
X120410258Y-158629509D01*
X109989748Y-148209000D01*
X140716000Y-148209000D01*
X140764601Y-148199333D01*
X140805803Y-148171803D01*
X140833333Y-148130601D01*
X140843000Y-148082000D01*
X140843000Y-146788119D01*
X141427200Y-146788119D01*
X141427200Y-147343881D01*
X141639880Y-147857337D01*
X142032863Y-148250320D01*
X142546319Y-148463000D01*
X143102081Y-148463000D01*
X143615537Y-148250320D01*
X144008520Y-147857337D01*
X144221200Y-147343881D01*
X144221200Y-146788119D01*
X144008520Y-146274663D01*
X143615537Y-145881680D01*
X143102081Y-145669000D01*
X142546319Y-145669000D01*
X142032863Y-145881680D01*
X141639880Y-146274663D01*
X141427200Y-146788119D01*
X140843000Y-146788119D01*
X140843000Y-145923000D01*
X140833333Y-145874399D01*
X140805803Y-145833197D01*
X140764601Y-145805667D01*
X140716000Y-145796000D01*
X109054900Y-145796000D01*
X109054900Y-142819296D01*
X109069082Y-142747999D01*
X109054900Y-142676702D01*
X109012899Y-142465548D01*
X108852902Y-142226097D01*
X108843081Y-142219535D01*
X108766059Y-142033586D01*
X108537414Y-141804941D01*
X108238676Y-141681200D01*
X107915324Y-141681200D01*
X107616586Y-141804941D01*
X107387941Y-142033586D01*
X107264200Y-142332324D01*
X107264200Y-142655676D01*
X107387941Y-142954414D01*
X107607100Y-143173573D01*
X107607101Y-145796000D01*
X107576748Y-145796000D01*
X107492800Y-145712052D01*
X107492800Y-145507324D01*
X107369059Y-145208586D01*
X107140414Y-144979941D01*
X106841676Y-144856200D01*
X106518324Y-144856200D01*
X106235500Y-144973349D01*
X105952676Y-144856200D01*
X105629324Y-144856200D01*
X105330586Y-144979941D01*
X105101941Y-145208586D01*
X105011040Y-145428042D01*
X104930659Y-145233986D01*
X104702014Y-145005341D01*
X104403276Y-144881600D01*
X104241600Y-144881600D01*
X104241600Y-144770724D01*
X104117859Y-144471986D01*
X103889214Y-144243341D01*
X103590476Y-144119600D01*
X103267124Y-144119600D01*
X102968386Y-144243341D01*
X102739741Y-144471986D01*
X102616000Y-144770724D01*
X102616000Y-144719924D01*
X102492259Y-144421186D01*
X102263614Y-144192541D01*
X101964876Y-144068800D01*
X101641524Y-144068800D01*
X101342786Y-144192541D01*
X101266663Y-144268664D01*
X101152076Y-144221200D01*
X100828724Y-144221200D01*
X100529986Y-144344941D01*
X100301341Y-144573586D01*
X100177600Y-144872324D01*
X100177600Y-145195676D01*
X100266501Y-145410302D01*
X100266500Y-153377139D01*
X100237676Y-153365200D01*
X99914324Y-153365200D01*
X99615586Y-153488941D01*
X99386941Y-153717586D01*
X99263200Y-154016324D01*
X99263200Y-154339676D01*
X99352100Y-154554301D01*
X99352101Y-155630698D01*
X99352100Y-155630703D01*
X99352100Y-156138702D01*
X99337918Y-156210000D01*
X99352100Y-156281298D01*
X99394101Y-156492452D01*
X99554098Y-156731903D01*
X99614543Y-156772291D01*
X103289100Y-160446850D01*
X103289101Y-161548698D01*
X103200200Y-161763324D01*
X103200200Y-162086676D01*
X103323941Y-162385414D01*
X103552586Y-162614059D01*
X103851324Y-162737800D01*
X103984900Y-162737800D01*
X103984900Y-165014094D01*
X103966565Y-165001843D01*
X103718800Y-164952560D01*
X103158800Y-164952560D01*
X102911035Y-165001843D01*
X102803800Y-165073496D01*
X102696565Y-165001843D01*
X102448800Y-164952560D01*
X101888800Y-164952560D01*
X101641035Y-165001843D01*
X101430991Y-165142191D01*
X101343800Y-165272681D01*
X101343800Y-160168447D01*
X101357415Y-160100000D01*
X101303475Y-159828825D01*
X101149866Y-159598934D01*
X100919975Y-159445325D01*
X100648800Y-159391385D01*
X100580353Y-159405000D01*
X100255353Y-159405000D01*
X100052625Y-159445325D01*
X99822734Y-159598934D01*
X99669125Y-159828825D01*
X99615185Y-160100000D01*
X99669125Y-160371175D01*
X99822734Y-160601066D01*
X99953801Y-160688643D01*
X99953801Y-162612200D01*
X95681629Y-162612200D01*
X95745953Y-162585556D01*
X96824756Y-161506753D01*
X97408600Y-160097229D01*
X97408600Y-158571571D01*
X96824756Y-157162047D01*
X95745953Y-156083244D01*
X94336429Y-155499400D01*
X92810771Y-155499400D01*
X91401247Y-156083244D01*
X90322444Y-157162047D01*
X89738600Y-158571571D01*
X89738600Y-160097229D01*
X90322444Y-161506753D01*
X91401247Y-162585556D01*
X91465571Y-162612200D01*
X89631331Y-162612200D01*
X89630326Y-162612000D01*
X81939200Y-162612000D01*
X81939200Y-133807200D01*
X83423508Y-133807200D01*
X83538761Y-134386618D01*
X83866975Y-134877825D01*
X84165361Y-135077200D01*
X83866975Y-135276575D01*
X83538761Y-135767782D01*
X83423508Y-136347200D01*
X83538761Y-136926618D01*
X83866975Y-137417825D01*
X84165361Y-137617200D01*
X83866975Y-137816575D01*
X83538761Y-138307782D01*
X83423508Y-138887200D01*
X83538761Y-139466618D01*
X83866975Y-139957825D01*
X84165361Y-140157200D01*
X83866975Y-140356575D01*
X83538761Y-140847782D01*
X83423508Y-141427200D01*
X83538761Y-142006618D01*
X83866975Y-142497825D01*
X84165361Y-142697200D01*
X83866975Y-142896575D01*
X83538761Y-143387782D01*
X83423508Y-143967200D01*
X83538761Y-144546618D01*
X83866975Y-145037825D01*
X84165361Y-145237200D01*
X83866975Y-145436575D01*
X83538761Y-145927782D01*
X83423508Y-146507200D01*
X83538761Y-147086618D01*
X83866975Y-147577825D01*
X84165361Y-147777200D01*
X83866975Y-147976575D01*
X83538761Y-148467782D01*
X83423508Y-149047200D01*
X83538761Y-149626618D01*
X83866975Y-150117825D01*
X84165361Y-150317200D01*
X83866975Y-150516575D01*
X83538761Y-151007782D01*
X83423508Y-151587200D01*
X83538761Y-152166618D01*
X83866975Y-152657825D01*
X84165361Y-152857200D01*
X83866975Y-153056575D01*
X83538761Y-153547782D01*
X83423508Y-154127200D01*
X83538761Y-154706618D01*
X83866975Y-155197825D01*
X84165361Y-155397200D01*
X83866975Y-155596575D01*
X83538761Y-156087782D01*
X83423508Y-156667200D01*
X83538761Y-157246618D01*
X83866975Y-157737825D01*
X84165361Y-157937200D01*
X83866975Y-158136575D01*
X83538761Y-158627782D01*
X83423508Y-159207200D01*
X83538761Y-159786618D01*
X83866975Y-160277825D01*
X84358182Y-160606039D01*
X84791344Y-160692200D01*
X85083856Y-160692200D01*
X85517018Y-160606039D01*
X86008225Y-160277825D01*
X86336439Y-159786618D01*
X86451692Y-159207200D01*
X86336439Y-158627782D01*
X86008225Y-158136575D01*
X85709839Y-157937200D01*
X86008225Y-157737825D01*
X86336439Y-157246618D01*
X86451692Y-156667200D01*
X86336439Y-156087782D01*
X86008225Y-155596575D01*
X85709839Y-155397200D01*
X86008225Y-155197825D01*
X86336439Y-154706618D01*
X86451692Y-154127200D01*
X86336439Y-153547782D01*
X86008225Y-153056575D01*
X85709839Y-152857200D01*
X86008225Y-152657825D01*
X86336439Y-152166618D01*
X86451692Y-151587200D01*
X86336439Y-151007782D01*
X86008225Y-150516575D01*
X85709839Y-150317200D01*
X86008225Y-150117825D01*
X86336439Y-149626618D01*
X86451692Y-149047200D01*
X86336439Y-148467782D01*
X86008225Y-147976575D01*
X85709839Y-147777200D01*
X86008225Y-147577825D01*
X86239899Y-147231100D01*
X86899627Y-147231100D01*
X86915586Y-147247059D01*
X87214324Y-147370800D01*
X87537676Y-147370800D01*
X87836414Y-147247059D01*
X88065059Y-147018414D01*
X88160450Y-146788119D01*
X97078800Y-146788119D01*
X97078800Y-147343881D01*
X97291480Y-147857337D01*
X97684463Y-148250320D01*
X98197919Y-148463000D01*
X98753681Y-148463000D01*
X99267137Y-148250320D01*
X99660120Y-147857337D01*
X99872800Y-147343881D01*
X99872800Y-146788119D01*
X99660120Y-146274663D01*
X99267137Y-145881680D01*
X98753681Y-145669000D01*
X98197919Y-145669000D01*
X97684463Y-145881680D01*
X97291480Y-146274663D01*
X97078800Y-146788119D01*
X88160450Y-146788119D01*
X88188800Y-146719676D01*
X88188800Y-146396324D01*
X88065059Y-146097586D01*
X87836414Y-145868941D01*
X87537676Y-145745200D01*
X87214324Y-145745200D01*
X87122342Y-145783300D01*
X86239899Y-145783300D01*
X86008225Y-145436575D01*
X85709839Y-145237200D01*
X86008225Y-145037825D01*
X86336439Y-144546618D01*
X86451692Y-143967200D01*
X86336439Y-143387782D01*
X86008225Y-142896575D01*
X85709839Y-142697200D01*
X86008225Y-142497825D01*
X86336439Y-142006618D01*
X86451692Y-141427200D01*
X86336439Y-140847782D01*
X86008225Y-140356575D01*
X85709839Y-140157200D01*
X86008225Y-139957825D01*
X86336439Y-139466618D01*
X86451692Y-138887200D01*
X86336439Y-138307782D01*
X86008225Y-137816575D01*
X85709839Y-137617200D01*
X86008225Y-137417825D01*
X86336439Y-136926618D01*
X86451692Y-136347200D01*
X86386314Y-136018519D01*
X97078800Y-136018519D01*
X97078800Y-136574281D01*
X97291480Y-137087737D01*
X97684463Y-137480720D01*
X98197919Y-137693400D01*
X98753681Y-137693400D01*
X99267137Y-137480720D01*
X99660120Y-137087737D01*
X99872800Y-136574281D01*
X99872800Y-136018519D01*
X99841237Y-135942319D01*
X141427200Y-135942319D01*
X141427200Y-136498081D01*
X141639880Y-137011537D01*
X142032863Y-137404520D01*
X142546319Y-137617200D01*
X143102081Y-137617200D01*
X143615537Y-137404520D01*
X144008520Y-137011537D01*
X144221200Y-136498081D01*
X144221200Y-135942319D01*
X144008520Y-135428863D01*
X143615537Y-135035880D01*
X143102081Y-134823200D01*
X142546319Y-134823200D01*
X142032863Y-135035880D01*
X141639880Y-135428863D01*
X141427200Y-135942319D01*
X99841237Y-135942319D01*
X99660120Y-135505063D01*
X99267137Y-135112080D01*
X98753681Y-134899400D01*
X98197919Y-134899400D01*
X97684463Y-135112080D01*
X97291480Y-135505063D01*
X97078800Y-136018519D01*
X86386314Y-136018519D01*
X86336439Y-135767782D01*
X86008225Y-135276575D01*
X85709839Y-135077200D01*
X86008225Y-134877825D01*
X86336439Y-134386618D01*
X86451692Y-133807200D01*
X86336439Y-133227782D01*
X86008225Y-132736575D01*
X85989981Y-132724384D01*
X86035365Y-132715357D01*
X86245409Y-132575009D01*
X86385757Y-132364965D01*
X86435040Y-132117200D01*
X86435040Y-130417200D01*
X86385757Y-130169435D01*
X86245409Y-129959391D01*
X86035365Y-129819043D01*
X85787600Y-129769760D01*
X84087600Y-129769760D01*
X83839835Y-129819043D01*
X83629791Y-129959391D01*
X83489443Y-130169435D01*
X83440160Y-130417200D01*
X83440160Y-132117200D01*
X83489443Y-132364965D01*
X83629791Y-132575009D01*
X83839835Y-132715357D01*
X83885219Y-132724384D01*
X83866975Y-132736575D01*
X83538761Y-133227782D01*
X83423508Y-133807200D01*
X81939200Y-133807200D01*
X81939200Y-106553000D01*
X83448908Y-106553000D01*
X83564161Y-107132418D01*
X83892375Y-107623625D01*
X84190761Y-107823000D01*
X83892375Y-108022375D01*
X83564161Y-108513582D01*
X83448908Y-109093000D01*
X83564161Y-109672418D01*
X83892375Y-110163625D01*
X84190761Y-110363000D01*
X83892375Y-110562375D01*
X83564161Y-111053582D01*
X83448908Y-111633000D01*
X83564161Y-112212418D01*
X83892375Y-112703625D01*
X84190761Y-112903000D01*
X83892375Y-113102375D01*
X83564161Y-113593582D01*
X83448908Y-114173000D01*
X83564161Y-114752418D01*
X83892375Y-115243625D01*
X84190761Y-115443000D01*
X83892375Y-115642375D01*
X83564161Y-116133582D01*
X83448908Y-116713000D01*
X83564161Y-117292418D01*
X83892375Y-117783625D01*
X84190761Y-117983000D01*
X83892375Y-118182375D01*
X83564161Y-118673582D01*
X83448908Y-119253000D01*
X83564161Y-119832418D01*
X83892375Y-120323625D01*
X84190761Y-120523000D01*
X83892375Y-120722375D01*
X83564161Y-121213582D01*
X83448908Y-121793000D01*
X83564161Y-122372418D01*
X83892375Y-122863625D01*
X84190761Y-123063000D01*
X83892375Y-123262375D01*
X83564161Y-123753582D01*
X83448908Y-124333000D01*
X83564161Y-124912418D01*
X83892375Y-125403625D01*
X84190761Y-125603000D01*
X83892375Y-125802375D01*
X83564161Y-126293582D01*
X83448908Y-126873000D01*
X83564161Y-127452418D01*
X83892375Y-127943625D01*
X84383582Y-128271839D01*
X84816744Y-128358000D01*
X85109256Y-128358000D01*
X85542418Y-128271839D01*
X86033625Y-127943625D01*
X86361839Y-127452418D01*
X86477092Y-126873000D01*
X86395739Y-126464009D01*
X95673424Y-117186324D01*
X131140200Y-117186324D01*
X131140200Y-117509676D01*
X131263941Y-117808414D01*
X131492586Y-118037059D01*
X131707211Y-118125959D01*
X132753100Y-119171849D01*
X132753101Y-123067698D01*
X132664200Y-123282324D01*
X132664200Y-123605676D01*
X132787941Y-123904414D01*
X133016586Y-124133059D01*
X133315324Y-124256800D01*
X133638676Y-124256800D01*
X133937414Y-124133059D01*
X134166059Y-123904414D01*
X134289800Y-123605676D01*
X134289800Y-123282324D01*
X134200900Y-123067700D01*
X134200900Y-118943292D01*
X134215081Y-118871999D01*
X134200900Y-118800706D01*
X134200900Y-118800702D01*
X134158899Y-118589548D01*
X133998902Y-118350097D01*
X133938460Y-118309711D01*
X132730959Y-117102211D01*
X132642059Y-116887586D01*
X132413414Y-116658941D01*
X132114676Y-116535200D01*
X131791324Y-116535200D01*
X131492586Y-116658941D01*
X131263941Y-116887586D01*
X131140200Y-117186324D01*
X95673424Y-117186324D01*
X100283460Y-112576289D01*
X100343902Y-112535903D01*
X100503899Y-112296452D01*
X100545900Y-112085298D01*
X100545900Y-112085297D01*
X100560082Y-112014001D01*
X100545900Y-111942704D01*
X100545900Y-109342300D01*
X100634800Y-109127676D01*
X100634800Y-108804324D01*
X100557579Y-108617894D01*
X100638059Y-108537414D01*
X100761800Y-108238676D01*
X100761800Y-107915324D01*
X100638059Y-107616586D01*
X100409414Y-107387941D01*
X100233318Y-107315000D01*
X100409414Y-107242059D01*
X100638059Y-107013414D01*
X100761800Y-106714676D01*
X100761800Y-106391324D01*
X100638059Y-106092586D01*
X100594776Y-106049303D01*
X100634800Y-105952676D01*
X100634800Y-105629324D01*
X100511059Y-105330586D01*
X100282414Y-105101941D01*
X99983676Y-104978200D01*
X99660324Y-104978200D01*
X99445700Y-105067100D01*
X98775649Y-105067100D01*
X98978849Y-104863900D01*
X99572700Y-104863900D01*
X99787324Y-104952800D01*
X100110676Y-104952800D01*
X100409414Y-104829059D01*
X100638059Y-104600414D01*
X100761800Y-104301676D01*
X100761800Y-103978324D01*
X100670953Y-103759000D01*
X100761800Y-103539676D01*
X100761800Y-103216324D01*
X100638059Y-102917586D01*
X100409414Y-102688941D01*
X100110676Y-102565200D01*
X99787324Y-102565200D01*
X99572700Y-102654100D01*
X99156649Y-102654100D01*
X99359849Y-102450900D01*
X99572700Y-102450900D01*
X99787324Y-102539800D01*
X100110676Y-102539800D01*
X100409414Y-102416059D01*
X100638059Y-102187414D01*
X100761800Y-101888676D01*
X100761800Y-101565324D01*
X100638059Y-101266586D01*
X100594776Y-101223303D01*
X100634800Y-101126676D01*
X100634800Y-100803324D01*
X100511059Y-100504586D01*
X100282414Y-100275941D01*
X99983676Y-100152200D01*
X99660324Y-100152200D01*
X99445700Y-100241100D01*
X98877298Y-100241100D01*
X98806000Y-100226918D01*
X98785816Y-100230933D01*
X98978849Y-100037900D01*
X99699700Y-100037900D01*
X99914324Y-100126800D01*
X100237676Y-100126800D01*
X100536414Y-100003059D01*
X100765059Y-99774414D01*
X100888800Y-99475676D01*
X100888800Y-99152324D01*
X100765059Y-98853586D01*
X100721776Y-98810303D01*
X100761800Y-98713676D01*
X100761800Y-98390324D01*
X100638059Y-98091586D01*
X100409414Y-97862941D01*
X100110676Y-97739200D01*
X99787324Y-97739200D01*
X99572700Y-97828100D01*
X98623296Y-97828100D01*
X98551999Y-97813918D01*
X98480703Y-97828100D01*
X98480702Y-97828100D01*
X98269548Y-97870101D01*
X98030097Y-98030097D01*
X97989710Y-98090541D01*
X92791152Y-103289100D01*
X86460440Y-103289100D01*
X86460440Y-103163000D01*
X86411157Y-102915235D01*
X86270809Y-102705191D01*
X86060765Y-102564843D01*
X85998540Y-102552466D01*
X86172698Y-102480327D01*
X86351327Y-102301699D01*
X86448000Y-102068310D01*
X86448000Y-101377750D01*
X86289250Y-101219000D01*
X85090000Y-101219000D01*
X85090000Y-101239000D01*
X84836000Y-101239000D01*
X84836000Y-101219000D01*
X83636750Y-101219000D01*
X83478000Y-101377750D01*
X83478000Y-102068310D01*
X83574673Y-102301699D01*
X83753302Y-102480327D01*
X83927460Y-102552466D01*
X83865235Y-102564843D01*
X83655191Y-102705191D01*
X83514843Y-102915235D01*
X83465560Y-103163000D01*
X83465560Y-104863000D01*
X83514843Y-105110765D01*
X83655191Y-105320809D01*
X83865235Y-105461157D01*
X83910619Y-105470184D01*
X83892375Y-105482375D01*
X83564161Y-105973582D01*
X83448908Y-106553000D01*
X81939200Y-106553000D01*
X81939200Y-78232000D01*
X83448908Y-78232000D01*
X83564161Y-78811418D01*
X83892375Y-79302625D01*
X84190761Y-79502000D01*
X83892375Y-79701375D01*
X83564161Y-80192582D01*
X83448908Y-80772000D01*
X83564161Y-81351418D01*
X83892375Y-81842625D01*
X84190761Y-82042000D01*
X83892375Y-82241375D01*
X83564161Y-82732582D01*
X83448908Y-83312000D01*
X83564161Y-83891418D01*
X83892375Y-84382625D01*
X84190761Y-84582000D01*
X83892375Y-84781375D01*
X83564161Y-85272582D01*
X83448908Y-85852000D01*
X83564161Y-86431418D01*
X83892375Y-86922625D01*
X84190761Y-87122000D01*
X83892375Y-87321375D01*
X83564161Y-87812582D01*
X83448908Y-88392000D01*
X83564161Y-88971418D01*
X83892375Y-89462625D01*
X84190761Y-89662000D01*
X83892375Y-89861375D01*
X83564161Y-90352582D01*
X83448908Y-90932000D01*
X83564161Y-91511418D01*
X83892375Y-92002625D01*
X84190761Y-92202000D01*
X83892375Y-92401375D01*
X83564161Y-92892582D01*
X83448908Y-93472000D01*
X83564161Y-94051418D01*
X83892375Y-94542625D01*
X84190761Y-94742000D01*
X83892375Y-94941375D01*
X83564161Y-95432582D01*
X83448908Y-96012000D01*
X83564161Y-96591418D01*
X83892375Y-97082625D01*
X84190761Y-97282000D01*
X83892375Y-97481375D01*
X83564161Y-97972582D01*
X83448908Y-98552000D01*
X83564161Y-99131418D01*
X83892375Y-99622625D01*
X83914033Y-99637096D01*
X83753302Y-99703673D01*
X83574673Y-99882301D01*
X83478000Y-100115690D01*
X83478000Y-100806250D01*
X83636750Y-100965000D01*
X84836000Y-100965000D01*
X84836000Y-100945000D01*
X85090000Y-100945000D01*
X85090000Y-100965000D01*
X86289250Y-100965000D01*
X86448000Y-100806250D01*
X86448000Y-100115690D01*
X86351327Y-99882301D01*
X86172698Y-99703673D01*
X86011967Y-99637096D01*
X86033625Y-99622625D01*
X86361839Y-99131418D01*
X86477092Y-98552000D01*
X86444933Y-98390324D01*
X89738200Y-98390324D01*
X89738200Y-98713676D01*
X89861941Y-99012414D01*
X90090586Y-99241059D01*
X90389324Y-99364800D01*
X90712676Y-99364800D01*
X91011414Y-99241059D01*
X91240059Y-99012414D01*
X91328960Y-98797789D01*
X92867587Y-97259162D01*
X92909941Y-97361414D01*
X93138586Y-97590059D01*
X93437324Y-97713800D01*
X93760676Y-97713800D01*
X93975300Y-97624900D01*
X99445700Y-97624900D01*
X99660324Y-97713800D01*
X99983676Y-97713800D01*
X100282414Y-97590059D01*
X100511059Y-97361414D01*
X100634800Y-97062676D01*
X100634800Y-96739324D01*
X100543953Y-96520000D01*
X100634800Y-96300676D01*
X100634800Y-95977324D01*
X100511059Y-95678586D01*
X100282414Y-95449941D01*
X99983676Y-95326200D01*
X99660324Y-95326200D01*
X99445700Y-95415100D01*
X93035296Y-95415100D01*
X92963999Y-95400918D01*
X92892703Y-95415100D01*
X92892702Y-95415100D01*
X92681548Y-95457101D01*
X92442097Y-95617097D01*
X92401709Y-95677542D01*
X90305211Y-97774040D01*
X90090586Y-97862941D01*
X89861941Y-98091586D01*
X89738200Y-98390324D01*
X86444933Y-98390324D01*
X86361839Y-97972582D01*
X86033625Y-97481375D01*
X85735239Y-97282000D01*
X86033625Y-97082625D01*
X86361839Y-96591418D01*
X86477092Y-96012000D01*
X86361839Y-95432582D01*
X86033625Y-94941375D01*
X85735239Y-94742000D01*
X86033625Y-94542625D01*
X86361839Y-94051418D01*
X86477092Y-93472000D01*
X86361839Y-92892582D01*
X86033625Y-92401375D01*
X85735239Y-92202000D01*
X86033625Y-92002625D01*
X86255798Y-91670119D01*
X97078800Y-91670119D01*
X97078800Y-92225881D01*
X97291480Y-92739337D01*
X97684463Y-93132320D01*
X98197919Y-93345000D01*
X98753681Y-93345000D01*
X99267137Y-93132320D01*
X99660120Y-92739337D01*
X99872800Y-92225881D01*
X99872800Y-91670119D01*
X99660120Y-91156663D01*
X99267137Y-90763680D01*
X98753681Y-90551000D01*
X98197919Y-90551000D01*
X97684463Y-90763680D01*
X97291480Y-91156663D01*
X97078800Y-91670119D01*
X86255798Y-91670119D01*
X86361839Y-91511418D01*
X86477092Y-90932000D01*
X86361839Y-90352582D01*
X86033625Y-89861375D01*
X85735239Y-89662000D01*
X86033625Y-89462625D01*
X86361839Y-88971418D01*
X86477092Y-88392000D01*
X86361839Y-87812582D01*
X86033625Y-87321375D01*
X85735239Y-87122000D01*
X85787135Y-87087324D01*
X104089200Y-87087324D01*
X104089200Y-87410676D01*
X104212941Y-87709414D01*
X104441586Y-87938059D01*
X104656211Y-88026960D01*
X107480100Y-90850849D01*
X107480101Y-98683698D01*
X107391200Y-98898324D01*
X107391200Y-99221676D01*
X107514941Y-99520414D01*
X107743586Y-99749059D01*
X108042324Y-99872800D01*
X108365676Y-99872800D01*
X108664414Y-99749059D01*
X108893059Y-99520414D01*
X109016800Y-99221676D01*
X109016800Y-98898324D01*
X108927900Y-98683700D01*
X108927900Y-91593919D01*
X141427200Y-91593919D01*
X141427200Y-92149681D01*
X141639880Y-92663137D01*
X142032863Y-93056120D01*
X142546319Y-93268800D01*
X143102081Y-93268800D01*
X143615537Y-93056120D01*
X144008520Y-92663137D01*
X144221200Y-92149681D01*
X144221200Y-91593919D01*
X144008520Y-91080463D01*
X143615537Y-90687480D01*
X143102081Y-90474800D01*
X142546319Y-90474800D01*
X142032863Y-90687480D01*
X141639880Y-91080463D01*
X141427200Y-91593919D01*
X108927900Y-91593919D01*
X108927900Y-90622297D01*
X108942082Y-90550999D01*
X108885899Y-90268548D01*
X108766289Y-90089540D01*
X108725902Y-90029097D01*
X108665460Y-89988711D01*
X105679960Y-87003211D01*
X105591059Y-86788586D01*
X105362414Y-86559941D01*
X105063676Y-86436200D01*
X104740324Y-86436200D01*
X104441586Y-86559941D01*
X104212941Y-86788586D01*
X104089200Y-87087324D01*
X85787135Y-87087324D01*
X86033625Y-86922625D01*
X86361839Y-86431418D01*
X86477092Y-85852000D01*
X86361839Y-85272582D01*
X86033625Y-84781375D01*
X85735239Y-84582000D01*
X86033625Y-84382625D01*
X86361839Y-83891418D01*
X86477092Y-83312000D01*
X86361839Y-82732582D01*
X86033625Y-82241375D01*
X85735239Y-82042000D01*
X86033625Y-81842625D01*
X86361839Y-81351418D01*
X86477092Y-80772000D01*
X86361839Y-80192582D01*
X86033625Y-79701375D01*
X85735239Y-79502000D01*
X86033625Y-79302625D01*
X86361839Y-78811418D01*
X86477092Y-78232000D01*
X86361839Y-77652582D01*
X86033625Y-77161375D01*
X85542418Y-76833161D01*
X85109256Y-76747000D01*
X84816744Y-76747000D01*
X84383582Y-76833161D01*
X83892375Y-77161375D01*
X83564161Y-77652582D01*
X83448908Y-78232000D01*
X81939200Y-78232000D01*
X81939200Y-73382119D01*
X97078800Y-73382119D01*
X97078800Y-73937881D01*
X97291480Y-74451337D01*
X97684463Y-74844320D01*
X98197919Y-75057000D01*
X98753681Y-75057000D01*
X99267137Y-74844320D01*
X99660120Y-74451337D01*
X99872800Y-73937881D01*
X99872800Y-73382119D01*
X99660120Y-72868663D01*
X99267137Y-72475680D01*
X98753681Y-72263000D01*
X98197919Y-72263000D01*
X97684463Y-72475680D01*
X97291480Y-72868663D01*
X97078800Y-73382119D01*
X81939200Y-73382119D01*
X81939200Y-64006800D01*
X89388179Y-64006800D01*
X89515874Y-64032200D01*
X89515874Y-64032200D01*
G37*
X89515874Y-64032200D02*
X91465571Y-64032200D01*
X91401247Y-64058844D01*
X90322444Y-65137647D01*
X89738600Y-66547171D01*
X89738600Y-68072829D01*
X90322444Y-69482353D01*
X91401247Y-70561156D01*
X92810771Y-71145000D01*
X94336429Y-71145000D01*
X95745953Y-70561156D01*
X96745785Y-69561324D01*
X123647200Y-69561324D01*
X123647200Y-69884676D01*
X123770941Y-70183414D01*
X123999586Y-70412059D01*
X124298324Y-70535800D01*
X124621676Y-70535800D01*
X124836300Y-70446900D01*
X126066427Y-70446900D01*
X126158586Y-70539059D01*
X126457324Y-70662800D01*
X126780676Y-70662800D01*
X127079414Y-70539059D01*
X127308059Y-70310414D01*
X127431800Y-70011676D01*
X127431800Y-69688324D01*
X127308059Y-69389586D01*
X127079414Y-69160941D01*
X126780676Y-69037200D01*
X126754840Y-69037200D01*
X126563298Y-68999100D01*
X126492000Y-68984918D01*
X126420702Y-68999100D01*
X124836300Y-68999100D01*
X124621676Y-68910200D01*
X124298324Y-68910200D01*
X123999586Y-69033941D01*
X123770941Y-69262586D01*
X123647200Y-69561324D01*
X96745785Y-69561324D01*
X96824756Y-69482353D01*
X97408600Y-68072829D01*
X97408600Y-66547171D01*
X96824756Y-65137647D01*
X96496109Y-64809000D01*
X122581560Y-64809000D01*
X122581560Y-66509000D01*
X122630843Y-66756765D01*
X122771191Y-66966809D01*
X122981235Y-67107157D01*
X123229000Y-67156440D01*
X124929000Y-67156440D01*
X125176765Y-67107157D01*
X125386809Y-66966809D01*
X125527157Y-66756765D01*
X125536184Y-66711381D01*
X125548375Y-66729625D01*
X126039582Y-67057839D01*
X126472744Y-67144000D01*
X126765256Y-67144000D01*
X127198418Y-67057839D01*
X127689625Y-66729625D01*
X127889000Y-66431239D01*
X128088375Y-66729625D01*
X128579582Y-67057839D01*
X129012744Y-67144000D01*
X129305256Y-67144000D01*
X129738418Y-67057839D01*
X130229625Y-66729625D01*
X130429000Y-66431239D01*
X130628375Y-66729625D01*
X131119582Y-67057839D01*
X131552744Y-67144000D01*
X131845256Y-67144000D01*
X132278418Y-67057839D01*
X132769625Y-66729625D01*
X132969000Y-66431239D01*
X133168375Y-66729625D01*
X133515100Y-66961300D01*
X133515101Y-68280149D01*
X127135211Y-74660040D01*
X126920586Y-74748941D01*
X126691941Y-74977586D01*
X126568200Y-75276324D01*
X126568200Y-75599676D01*
X126691941Y-75898414D01*
X126920586Y-76127059D01*
X127219324Y-76250800D01*
X127516484Y-76250800D01*
X127580941Y-76406414D01*
X127809586Y-76635059D01*
X128108324Y-76758800D01*
X128431676Y-76758800D01*
X128730414Y-76635059D01*
X128959059Y-76406414D01*
X129047960Y-76191788D01*
X131857629Y-73382119D01*
X141427200Y-73382119D01*
X141427200Y-73937881D01*
X141639880Y-74451337D01*
X142032863Y-74844320D01*
X142546319Y-75057000D01*
X143102081Y-75057000D01*
X143615537Y-74844320D01*
X144008520Y-74451337D01*
X144221200Y-73937881D01*
X144221200Y-73382119D01*
X144008520Y-72868663D01*
X143615537Y-72475680D01*
X143102081Y-72263000D01*
X142546319Y-72263000D01*
X142032863Y-72475680D01*
X141639880Y-72868663D01*
X141427200Y-73382119D01*
X131857629Y-73382119D01*
X137240458Y-67999291D01*
X137300903Y-67958903D01*
X137460899Y-67719452D01*
X137502900Y-67508298D01*
X137502900Y-67508297D01*
X137517082Y-67437001D01*
X137502900Y-67365704D01*
X137502900Y-66961299D01*
X137849625Y-66729625D01*
X138177839Y-66238418D01*
X138293092Y-65659000D01*
X138177839Y-65079582D01*
X137849625Y-64588375D01*
X137358418Y-64260161D01*
X136925256Y-64174000D01*
X136632744Y-64174000D01*
X136199582Y-64260161D01*
X135708375Y-64588375D01*
X135509000Y-64886761D01*
X135309625Y-64588375D01*
X134818418Y-64260161D01*
X134385256Y-64174000D01*
X134092744Y-64174000D01*
X133659582Y-64260161D01*
X133168375Y-64588375D01*
X132969000Y-64886761D01*
X132769625Y-64588375D01*
X132278418Y-64260161D01*
X131845256Y-64174000D01*
X131552744Y-64174000D01*
X131119582Y-64260161D01*
X130628375Y-64588375D01*
X130429000Y-64886761D01*
X130229625Y-64588375D01*
X129738418Y-64260161D01*
X129305256Y-64174000D01*
X129012744Y-64174000D01*
X128579582Y-64260161D01*
X128088375Y-64588375D01*
X127889000Y-64886761D01*
X127689625Y-64588375D01*
X127198418Y-64260161D01*
X126765256Y-64174000D01*
X126472744Y-64174000D01*
X126039582Y-64260161D01*
X125548375Y-64588375D01*
X125536184Y-64606619D01*
X125527157Y-64561235D01*
X125386809Y-64351191D01*
X125176765Y-64210843D01*
X124929000Y-64161560D01*
X123229000Y-64161560D01*
X122981235Y-64210843D01*
X122771191Y-64351191D01*
X122630843Y-64561235D01*
X122581560Y-64809000D01*
X96496109Y-64809000D01*
X95745953Y-64058844D01*
X95681629Y-64032200D01*
X145465971Y-64032200D01*
X145401647Y-64058844D01*
X144322844Y-65137647D01*
X143739000Y-66547171D01*
X143739000Y-68072829D01*
X144322844Y-69482353D01*
X145401647Y-70561156D01*
X146811171Y-71145000D01*
X148336829Y-71145000D01*
X149746353Y-70561156D01*
X150825156Y-69482353D01*
X151409000Y-68072829D01*
X151409000Y-66547171D01*
X150825156Y-65137647D01*
X149746353Y-64058844D01*
X149682029Y-64032200D01*
X151631726Y-64032200D01*
X151759421Y-64006800D01*
X159056000Y-64006800D01*
X159056000Y-110674072D01*
X159042091Y-110744000D01*
X159056000Y-110813925D01*
X159056001Y-162612000D01*
X151466474Y-162612000D01*
X151465469Y-162612200D01*
X149682029Y-162612200D01*
X149746353Y-162585556D01*
X150825156Y-161506753D01*
X151409000Y-160097229D01*
X151409000Y-158571571D01*
X150825156Y-157162047D01*
X149746353Y-156083244D01*
X148336829Y-155499400D01*
X146811171Y-155499400D01*
X145401647Y-156083244D01*
X144322844Y-157162047D01*
X143739000Y-158571571D01*
X143739000Y-160097229D01*
X144322844Y-161506753D01*
X145401647Y-162585556D01*
X145465971Y-162612200D01*
X141193800Y-162612200D01*
X141193800Y-160688642D01*
X141324866Y-160601066D01*
X141478475Y-160371175D01*
X141532415Y-160100000D01*
X141478475Y-159828825D01*
X141324866Y-159598934D01*
X141094975Y-159445325D01*
X140892247Y-159405000D01*
X140567247Y-159405000D01*
X140498800Y-159391385D01*
X140430353Y-159405000D01*
X140227625Y-159445325D01*
X139997734Y-159598934D01*
X139844125Y-159828825D01*
X139790185Y-160100000D01*
X139803801Y-160168452D01*
X139803800Y-165242749D01*
X139736609Y-165142191D01*
X139526565Y-165001843D01*
X139278800Y-164952560D01*
X138718800Y-164952560D01*
X138471035Y-165001843D01*
X138363800Y-165073496D01*
X138256565Y-165001843D01*
X138008800Y-164952560D01*
X137448800Y-164952560D01*
X137201035Y-165001843D01*
X137093800Y-165073496D01*
X136986565Y-165001843D01*
X136738800Y-164952560D01*
X136178800Y-164952560D01*
X135931035Y-165001843D01*
X135823800Y-165073496D01*
X135716565Y-165001843D01*
X135468800Y-164952560D01*
X134908800Y-164952560D01*
X134661035Y-165001843D01*
X134553800Y-165073496D01*
X134446565Y-165001843D01*
X134198800Y-164952560D01*
X133638800Y-164952560D01*
X133391035Y-165001843D01*
X133283800Y-165073496D01*
X133176565Y-165001843D01*
X132928800Y-164952560D01*
X132368800Y-164952560D01*
X132121035Y-165001843D01*
X132013800Y-165073496D01*
X131906565Y-165001843D01*
X131658800Y-164952560D01*
X131098800Y-164952560D01*
X130851035Y-165001843D01*
X130743800Y-165073496D01*
X130636565Y-165001843D01*
X130388800Y-164952560D01*
X129828800Y-164952560D01*
X129581035Y-165001843D01*
X129473800Y-165073496D01*
X129366565Y-165001843D01*
X129118800Y-164952560D01*
X128558800Y-164952560D01*
X128311035Y-165001843D01*
X128203800Y-165073496D01*
X128096565Y-165001843D01*
X127848800Y-164952560D01*
X127288800Y-164952560D01*
X127041035Y-165001843D01*
X126933800Y-165073496D01*
X126826565Y-165001843D01*
X126578800Y-164952560D01*
X126018800Y-164952560D01*
X125771035Y-165001843D01*
X125673703Y-165066878D01*
X125668498Y-165061673D01*
X125435109Y-164965000D01*
X125314550Y-164965000D01*
X125155800Y-165123750D01*
X125155800Y-167473000D01*
X125175800Y-167473000D01*
X125175800Y-167727000D01*
X125155800Y-167727000D01*
X125155800Y-167747000D01*
X124901800Y-167747000D01*
X124901800Y-167727000D01*
X124881800Y-167727000D01*
X124881800Y-167473000D01*
X124901800Y-167473000D01*
X124901800Y-165123750D01*
X124743050Y-164965000D01*
X124622491Y-164965000D01*
X124389102Y-165061673D01*
X124383897Y-165066878D01*
X124286565Y-165001843D01*
X124038800Y-164952560D01*
X123478800Y-164952560D01*
X123231035Y-165001843D01*
X123133703Y-165066878D01*
X123128498Y-165061673D01*
X122895109Y-164965000D01*
X122774550Y-164965000D01*
X122615800Y-165123750D01*
X122615800Y-167473000D01*
X122635800Y-167473000D01*
X122635800Y-167727000D01*
X122615800Y-167727000D01*
X122615800Y-167747000D01*
X122361800Y-167747000D01*
X122361800Y-167727000D01*
X122341800Y-167727000D01*
X122341800Y-167473000D01*
X122361800Y-167473000D01*
X122361800Y-165123750D01*
X122203050Y-164965000D01*
X122082491Y-164965000D01*
X121849102Y-165061673D01*
X121843897Y-165066878D01*
X121746565Y-165001843D01*
X121498800Y-164952560D01*
X120938800Y-164952560D01*
X120691035Y-165001843D01*
X120672700Y-165014094D01*
X120672700Y-159263098D01*
X120686882Y-159191800D01*
X120630699Y-158909348D01*
X120556022Y-158797586D01*
X120470703Y-158669897D01*
X120410258Y-158629509D01*
X109989748Y-148209000D01*
X140716000Y-148209000D01*
X140764601Y-148199333D01*
X140805803Y-148171803D01*
X140833333Y-148130601D01*
X140843000Y-148082000D01*
X140843000Y-146788119D01*
X141427200Y-146788119D01*
X141427200Y-147343881D01*
X141639880Y-147857337D01*
X142032863Y-148250320D01*
X142546319Y-148463000D01*
X143102081Y-148463000D01*
X143615537Y-148250320D01*
X144008520Y-147857337D01*
X144221200Y-147343881D01*
X144221200Y-146788119D01*
X144008520Y-146274663D01*
X143615537Y-145881680D01*
X143102081Y-145669000D01*
X142546319Y-145669000D01*
X142032863Y-145881680D01*
X141639880Y-146274663D01*
X141427200Y-146788119D01*
X140843000Y-146788119D01*
X140843000Y-145923000D01*
X140833333Y-145874399D01*
X140805803Y-145833197D01*
X140764601Y-145805667D01*
X140716000Y-145796000D01*
X109054900Y-145796000D01*
X109054900Y-142819296D01*
X109069082Y-142747999D01*
X109054900Y-142676702D01*
X109012899Y-142465548D01*
X108852902Y-142226097D01*
X108843081Y-142219535D01*
X108766059Y-142033586D01*
X108537414Y-141804941D01*
X108238676Y-141681200D01*
X107915324Y-141681200D01*
X107616586Y-141804941D01*
X107387941Y-142033586D01*
X107264200Y-142332324D01*
X107264200Y-142655676D01*
X107387941Y-142954414D01*
X107607100Y-143173573D01*
X107607101Y-145796000D01*
X107576748Y-145796000D01*
X107492800Y-145712052D01*
X107492800Y-145507324D01*
X107369059Y-145208586D01*
X107140414Y-144979941D01*
X106841676Y-144856200D01*
X106518324Y-144856200D01*
X106235500Y-144973349D01*
X105952676Y-144856200D01*
X105629324Y-144856200D01*
X105330586Y-144979941D01*
X105101941Y-145208586D01*
X105011040Y-145428042D01*
X104930659Y-145233986D01*
X104702014Y-145005341D01*
X104403276Y-144881600D01*
X104241600Y-144881600D01*
X104241600Y-144770724D01*
X104117859Y-144471986D01*
X103889214Y-144243341D01*
X103590476Y-144119600D01*
X103267124Y-144119600D01*
X102968386Y-144243341D01*
X102739741Y-144471986D01*
X102616000Y-144770724D01*
X102616000Y-144719924D01*
X102492259Y-144421186D01*
X102263614Y-144192541D01*
X101964876Y-144068800D01*
X101641524Y-144068800D01*
X101342786Y-144192541D01*
X101266663Y-144268664D01*
X101152076Y-144221200D01*
X100828724Y-144221200D01*
X100529986Y-144344941D01*
X100301341Y-144573586D01*
X100177600Y-144872324D01*
X100177600Y-145195676D01*
X100266501Y-145410302D01*
X100266500Y-153377139D01*
X100237676Y-153365200D01*
X99914324Y-153365200D01*
X99615586Y-153488941D01*
X99386941Y-153717586D01*
X99263200Y-154016324D01*
X99263200Y-154339676D01*
X99352100Y-154554301D01*
X99352101Y-155630698D01*
X99352100Y-155630703D01*
X99352100Y-156138702D01*
X99337918Y-156210000D01*
X99352100Y-156281298D01*
X99394101Y-156492452D01*
X99554098Y-156731903D01*
X99614543Y-156772291D01*
X103289100Y-160446850D01*
X103289101Y-161548698D01*
X103200200Y-161763324D01*
X103200200Y-162086676D01*
X103323941Y-162385414D01*
X103552586Y-162614059D01*
X103851324Y-162737800D01*
X103984900Y-162737800D01*
X103984900Y-165014094D01*
X103966565Y-165001843D01*
X103718800Y-164952560D01*
X103158800Y-164952560D01*
X102911035Y-165001843D01*
X102803800Y-165073496D01*
X102696565Y-165001843D01*
X102448800Y-164952560D01*
X101888800Y-164952560D01*
X101641035Y-165001843D01*
X101430991Y-165142191D01*
X101343800Y-165272681D01*
X101343800Y-160168447D01*
X101357415Y-160100000D01*
X101303475Y-159828825D01*
X101149866Y-159598934D01*
X100919975Y-159445325D01*
X100648800Y-159391385D01*
X100580353Y-159405000D01*
X100255353Y-159405000D01*
X100052625Y-159445325D01*
X99822734Y-159598934D01*
X99669125Y-159828825D01*
X99615185Y-160100000D01*
X99669125Y-160371175D01*
X99822734Y-160601066D01*
X99953801Y-160688643D01*
X99953801Y-162612200D01*
X95681629Y-162612200D01*
X95745953Y-162585556D01*
X96824756Y-161506753D01*
X97408600Y-160097229D01*
X97408600Y-158571571D01*
X96824756Y-157162047D01*
X95745953Y-156083244D01*
X94336429Y-155499400D01*
X92810771Y-155499400D01*
X91401247Y-156083244D01*
X90322444Y-157162047D01*
X89738600Y-158571571D01*
X89738600Y-160097229D01*
X90322444Y-161506753D01*
X91401247Y-162585556D01*
X91465571Y-162612200D01*
X89631331Y-162612200D01*
X89630326Y-162612000D01*
X81939200Y-162612000D01*
X81939200Y-133807200D01*
X83423508Y-133807200D01*
X83538761Y-134386618D01*
X83866975Y-134877825D01*
X84165361Y-135077200D01*
X83866975Y-135276575D01*
X83538761Y-135767782D01*
X83423508Y-136347200D01*
X83538761Y-136926618D01*
X83866975Y-137417825D01*
X84165361Y-137617200D01*
X83866975Y-137816575D01*
X83538761Y-138307782D01*
X83423508Y-138887200D01*
X83538761Y-139466618D01*
X83866975Y-139957825D01*
X84165361Y-140157200D01*
X83866975Y-140356575D01*
X83538761Y-140847782D01*
X83423508Y-141427200D01*
X83538761Y-142006618D01*
X83866975Y-142497825D01*
X84165361Y-142697200D01*
X83866975Y-142896575D01*
X83538761Y-143387782D01*
X83423508Y-143967200D01*
X83538761Y-144546618D01*
X83866975Y-145037825D01*
X84165361Y-145237200D01*
X83866975Y-145436575D01*
X83538761Y-145927782D01*
X83423508Y-146507200D01*
X83538761Y-147086618D01*
X83866975Y-147577825D01*
X84165361Y-147777200D01*
X83866975Y-147976575D01*
X83538761Y-148467782D01*
X83423508Y-149047200D01*
X83538761Y-149626618D01*
X83866975Y-150117825D01*
X84165361Y-150317200D01*
X83866975Y-150516575D01*
X83538761Y-151007782D01*
X83423508Y-151587200D01*
X83538761Y-152166618D01*
X83866975Y-152657825D01*
X84165361Y-152857200D01*
X83866975Y-153056575D01*
X83538761Y-153547782D01*
X83423508Y-154127200D01*
X83538761Y-154706618D01*
X83866975Y-155197825D01*
X84165361Y-155397200D01*
X83866975Y-155596575D01*
X83538761Y-156087782D01*
X83423508Y-156667200D01*
X83538761Y-157246618D01*
X83866975Y-157737825D01*
X84165361Y-157937200D01*
X83866975Y-158136575D01*
X83538761Y-158627782D01*
X83423508Y-159207200D01*
X83538761Y-159786618D01*
X83866975Y-160277825D01*
X84358182Y-160606039D01*
X84791344Y-160692200D01*
X85083856Y-160692200D01*
X85517018Y-160606039D01*
X86008225Y-160277825D01*
X86336439Y-159786618D01*
X86451692Y-159207200D01*
X86336439Y-158627782D01*
X86008225Y-158136575D01*
X85709839Y-157937200D01*
X86008225Y-157737825D01*
X86336439Y-157246618D01*
X86451692Y-156667200D01*
X86336439Y-156087782D01*
X86008225Y-155596575D01*
X85709839Y-155397200D01*
X86008225Y-155197825D01*
X86336439Y-154706618D01*
X86451692Y-154127200D01*
X86336439Y-153547782D01*
X86008225Y-153056575D01*
X85709839Y-152857200D01*
X86008225Y-152657825D01*
X86336439Y-152166618D01*
X86451692Y-151587200D01*
X86336439Y-151007782D01*
X86008225Y-150516575D01*
X85709839Y-150317200D01*
X86008225Y-150117825D01*
X86336439Y-149626618D01*
X86451692Y-149047200D01*
X86336439Y-148467782D01*
X86008225Y-147976575D01*
X85709839Y-147777200D01*
X86008225Y-147577825D01*
X86239899Y-147231100D01*
X86899627Y-147231100D01*
X86915586Y-147247059D01*
X87214324Y-147370800D01*
X87537676Y-147370800D01*
X87836414Y-147247059D01*
X88065059Y-147018414D01*
X88160450Y-146788119D01*
X97078800Y-146788119D01*
X97078800Y-147343881D01*
X97291480Y-147857337D01*
X97684463Y-148250320D01*
X98197919Y-148463000D01*
X98753681Y-148463000D01*
X99267137Y-148250320D01*
X99660120Y-147857337D01*
X99872800Y-147343881D01*
X99872800Y-146788119D01*
X99660120Y-146274663D01*
X99267137Y-145881680D01*
X98753681Y-145669000D01*
X98197919Y-145669000D01*
X97684463Y-145881680D01*
X97291480Y-146274663D01*
X97078800Y-146788119D01*
X88160450Y-146788119D01*
X88188800Y-146719676D01*
X88188800Y-146396324D01*
X88065059Y-146097586D01*
X87836414Y-145868941D01*
X87537676Y-145745200D01*
X87214324Y-145745200D01*
X87122342Y-145783300D01*
X86239899Y-145783300D01*
X86008225Y-145436575D01*
X85709839Y-145237200D01*
X86008225Y-145037825D01*
X86336439Y-144546618D01*
X86451692Y-143967200D01*
X86336439Y-143387782D01*
X86008225Y-142896575D01*
X85709839Y-142697200D01*
X86008225Y-142497825D01*
X86336439Y-142006618D01*
X86451692Y-141427200D01*
X86336439Y-140847782D01*
X86008225Y-140356575D01*
X85709839Y-140157200D01*
X86008225Y-139957825D01*
X86336439Y-139466618D01*
X86451692Y-138887200D01*
X86336439Y-138307782D01*
X86008225Y-137816575D01*
X85709839Y-137617200D01*
X86008225Y-137417825D01*
X86336439Y-136926618D01*
X86451692Y-136347200D01*
X86386314Y-136018519D01*
X97078800Y-136018519D01*
X97078800Y-136574281D01*
X97291480Y-137087737D01*
X97684463Y-137480720D01*
X98197919Y-137693400D01*
X98753681Y-137693400D01*
X99267137Y-137480720D01*
X99660120Y-137087737D01*
X99872800Y-136574281D01*
X99872800Y-136018519D01*
X99841237Y-135942319D01*
X141427200Y-135942319D01*
X141427200Y-136498081D01*
X141639880Y-137011537D01*
X142032863Y-137404520D01*
X142546319Y-137617200D01*
X143102081Y-137617200D01*
X143615537Y-137404520D01*
X144008520Y-137011537D01*
X144221200Y-136498081D01*
X144221200Y-135942319D01*
X144008520Y-135428863D01*
X143615537Y-135035880D01*
X143102081Y-134823200D01*
X142546319Y-134823200D01*
X142032863Y-135035880D01*
X141639880Y-135428863D01*
X141427200Y-135942319D01*
X99841237Y-135942319D01*
X99660120Y-135505063D01*
X99267137Y-135112080D01*
X98753681Y-134899400D01*
X98197919Y-134899400D01*
X97684463Y-135112080D01*
X97291480Y-135505063D01*
X97078800Y-136018519D01*
X86386314Y-136018519D01*
X86336439Y-135767782D01*
X86008225Y-135276575D01*
X85709839Y-135077200D01*
X86008225Y-134877825D01*
X86336439Y-134386618D01*
X86451692Y-133807200D01*
X86336439Y-133227782D01*
X86008225Y-132736575D01*
X85989981Y-132724384D01*
X86035365Y-132715357D01*
X86245409Y-132575009D01*
X86385757Y-132364965D01*
X86435040Y-132117200D01*
X86435040Y-130417200D01*
X86385757Y-130169435D01*
X86245409Y-129959391D01*
X86035365Y-129819043D01*
X85787600Y-129769760D01*
X84087600Y-129769760D01*
X83839835Y-129819043D01*
X83629791Y-129959391D01*
X83489443Y-130169435D01*
X83440160Y-130417200D01*
X83440160Y-132117200D01*
X83489443Y-132364965D01*
X83629791Y-132575009D01*
X83839835Y-132715357D01*
X83885219Y-132724384D01*
X83866975Y-132736575D01*
X83538761Y-133227782D01*
X83423508Y-133807200D01*
X81939200Y-133807200D01*
X81939200Y-106553000D01*
X83448908Y-106553000D01*
X83564161Y-107132418D01*
X83892375Y-107623625D01*
X84190761Y-107823000D01*
X83892375Y-108022375D01*
X83564161Y-108513582D01*
X83448908Y-109093000D01*
X83564161Y-109672418D01*
X83892375Y-110163625D01*
X84190761Y-110363000D01*
X83892375Y-110562375D01*
X83564161Y-111053582D01*
X83448908Y-111633000D01*
X83564161Y-112212418D01*
X83892375Y-112703625D01*
X84190761Y-112903000D01*
X83892375Y-113102375D01*
X83564161Y-113593582D01*
X83448908Y-114173000D01*
X83564161Y-114752418D01*
X83892375Y-115243625D01*
X84190761Y-115443000D01*
X83892375Y-115642375D01*
X83564161Y-116133582D01*
X83448908Y-116713000D01*
X83564161Y-117292418D01*
X83892375Y-117783625D01*
X84190761Y-117983000D01*
X83892375Y-118182375D01*
X83564161Y-118673582D01*
X83448908Y-119253000D01*
X83564161Y-119832418D01*
X83892375Y-120323625D01*
X84190761Y-120523000D01*
X83892375Y-120722375D01*
X83564161Y-121213582D01*
X83448908Y-121793000D01*
X83564161Y-122372418D01*
X83892375Y-122863625D01*
X84190761Y-123063000D01*
X83892375Y-123262375D01*
X83564161Y-123753582D01*
X83448908Y-124333000D01*
X83564161Y-124912418D01*
X83892375Y-125403625D01*
X84190761Y-125603000D01*
X83892375Y-125802375D01*
X83564161Y-126293582D01*
X83448908Y-126873000D01*
X83564161Y-127452418D01*
X83892375Y-127943625D01*
X84383582Y-128271839D01*
X84816744Y-128358000D01*
X85109256Y-128358000D01*
X85542418Y-128271839D01*
X86033625Y-127943625D01*
X86361839Y-127452418D01*
X86477092Y-126873000D01*
X86395739Y-126464009D01*
X95673424Y-117186324D01*
X131140200Y-117186324D01*
X131140200Y-117509676D01*
X131263941Y-117808414D01*
X131492586Y-118037059D01*
X131707211Y-118125959D01*
X132753100Y-119171849D01*
X132753101Y-123067698D01*
X132664200Y-123282324D01*
X132664200Y-123605676D01*
X132787941Y-123904414D01*
X133016586Y-124133059D01*
X133315324Y-124256800D01*
X133638676Y-124256800D01*
X133937414Y-124133059D01*
X134166059Y-123904414D01*
X134289800Y-123605676D01*
X134289800Y-123282324D01*
X134200900Y-123067700D01*
X134200900Y-118943292D01*
X134215081Y-118871999D01*
X134200900Y-118800706D01*
X134200900Y-118800702D01*
X134158899Y-118589548D01*
X133998902Y-118350097D01*
X133938460Y-118309711D01*
X132730959Y-117102211D01*
X132642059Y-116887586D01*
X132413414Y-116658941D01*
X132114676Y-116535200D01*
X131791324Y-116535200D01*
X131492586Y-116658941D01*
X131263941Y-116887586D01*
X131140200Y-117186324D01*
X95673424Y-117186324D01*
X100283460Y-112576289D01*
X100343902Y-112535903D01*
X100503899Y-112296452D01*
X100545900Y-112085298D01*
X100545900Y-112085297D01*
X100560082Y-112014001D01*
X100545900Y-111942704D01*
X100545900Y-109342300D01*
X100634800Y-109127676D01*
X100634800Y-108804324D01*
X100557579Y-108617894D01*
X100638059Y-108537414D01*
X100761800Y-108238676D01*
X100761800Y-107915324D01*
X100638059Y-107616586D01*
X100409414Y-107387941D01*
X100233318Y-107315000D01*
X100409414Y-107242059D01*
X100638059Y-107013414D01*
X100761800Y-106714676D01*
X100761800Y-106391324D01*
X100638059Y-106092586D01*
X100594776Y-106049303D01*
X100634800Y-105952676D01*
X100634800Y-105629324D01*
X100511059Y-105330586D01*
X100282414Y-105101941D01*
X99983676Y-104978200D01*
X99660324Y-104978200D01*
X99445700Y-105067100D01*
X98775649Y-105067100D01*
X98978849Y-104863900D01*
X99572700Y-104863900D01*
X99787324Y-104952800D01*
X100110676Y-104952800D01*
X100409414Y-104829059D01*
X100638059Y-104600414D01*
X100761800Y-104301676D01*
X100761800Y-103978324D01*
X100670953Y-103759000D01*
X100761800Y-103539676D01*
X100761800Y-103216324D01*
X100638059Y-102917586D01*
X100409414Y-102688941D01*
X100110676Y-102565200D01*
X99787324Y-102565200D01*
X99572700Y-102654100D01*
X99156649Y-102654100D01*
X99359849Y-102450900D01*
X99572700Y-102450900D01*
X99787324Y-102539800D01*
X100110676Y-102539800D01*
X100409414Y-102416059D01*
X100638059Y-102187414D01*
X100761800Y-101888676D01*
X100761800Y-101565324D01*
X100638059Y-101266586D01*
X100594776Y-101223303D01*
X100634800Y-101126676D01*
X100634800Y-100803324D01*
X100511059Y-100504586D01*
X100282414Y-100275941D01*
X99983676Y-100152200D01*
X99660324Y-100152200D01*
X99445700Y-100241100D01*
X98877298Y-100241100D01*
X98806000Y-100226918D01*
X98785816Y-100230933D01*
X98978849Y-100037900D01*
X99699700Y-100037900D01*
X99914324Y-100126800D01*
X100237676Y-100126800D01*
X100536414Y-100003059D01*
X100765059Y-99774414D01*
X100888800Y-99475676D01*
X100888800Y-99152324D01*
X100765059Y-98853586D01*
X100721776Y-98810303D01*
X100761800Y-98713676D01*
X100761800Y-98390324D01*
X100638059Y-98091586D01*
X100409414Y-97862941D01*
X100110676Y-97739200D01*
X99787324Y-97739200D01*
X99572700Y-97828100D01*
X98623296Y-97828100D01*
X98551999Y-97813918D01*
X98480703Y-97828100D01*
X98480702Y-97828100D01*
X98269548Y-97870101D01*
X98030097Y-98030097D01*
X97989710Y-98090541D01*
X92791152Y-103289100D01*
X86460440Y-103289100D01*
X86460440Y-103163000D01*
X86411157Y-102915235D01*
X86270809Y-102705191D01*
X86060765Y-102564843D01*
X85998540Y-102552466D01*
X86172698Y-102480327D01*
X86351327Y-102301699D01*
X86448000Y-102068310D01*
X86448000Y-101377750D01*
X86289250Y-101219000D01*
X85090000Y-101219000D01*
X85090000Y-101239000D01*
X84836000Y-101239000D01*
X84836000Y-101219000D01*
X83636750Y-101219000D01*
X83478000Y-101377750D01*
X83478000Y-102068310D01*
X83574673Y-102301699D01*
X83753302Y-102480327D01*
X83927460Y-102552466D01*
X83865235Y-102564843D01*
X83655191Y-102705191D01*
X83514843Y-102915235D01*
X83465560Y-103163000D01*
X83465560Y-104863000D01*
X83514843Y-105110765D01*
X83655191Y-105320809D01*
X83865235Y-105461157D01*
X83910619Y-105470184D01*
X83892375Y-105482375D01*
X83564161Y-105973582D01*
X83448908Y-106553000D01*
X81939200Y-106553000D01*
X81939200Y-78232000D01*
X83448908Y-78232000D01*
X83564161Y-78811418D01*
X83892375Y-79302625D01*
X84190761Y-79502000D01*
X83892375Y-79701375D01*
X83564161Y-80192582D01*
X83448908Y-80772000D01*
X83564161Y-81351418D01*
X83892375Y-81842625D01*
X84190761Y-82042000D01*
X83892375Y-82241375D01*
X83564161Y-82732582D01*
X83448908Y-83312000D01*
X83564161Y-83891418D01*
X83892375Y-84382625D01*
X84190761Y-84582000D01*
X83892375Y-84781375D01*
X83564161Y-85272582D01*
X83448908Y-85852000D01*
X83564161Y-86431418D01*
X83892375Y-86922625D01*
X84190761Y-87122000D01*
X83892375Y-87321375D01*
X83564161Y-87812582D01*
X83448908Y-88392000D01*
X83564161Y-88971418D01*
X83892375Y-89462625D01*
X84190761Y-89662000D01*
X83892375Y-89861375D01*
X83564161Y-90352582D01*
X83448908Y-90932000D01*
X83564161Y-91511418D01*
X83892375Y-92002625D01*
X84190761Y-92202000D01*
X83892375Y-92401375D01*
X83564161Y-92892582D01*
X83448908Y-93472000D01*
X83564161Y-94051418D01*
X83892375Y-94542625D01*
X84190761Y-94742000D01*
X83892375Y-94941375D01*
X83564161Y-95432582D01*
X83448908Y-96012000D01*
X83564161Y-96591418D01*
X83892375Y-97082625D01*
X84190761Y-97282000D01*
X83892375Y-97481375D01*
X83564161Y-97972582D01*
X83448908Y-98552000D01*
X83564161Y-99131418D01*
X83892375Y-99622625D01*
X83914033Y-99637096D01*
X83753302Y-99703673D01*
X83574673Y-99882301D01*
X83478000Y-100115690D01*
X83478000Y-100806250D01*
X83636750Y-100965000D01*
X84836000Y-100965000D01*
X84836000Y-100945000D01*
X85090000Y-100945000D01*
X85090000Y-100965000D01*
X86289250Y-100965000D01*
X86448000Y-100806250D01*
X86448000Y-100115690D01*
X86351327Y-99882301D01*
X86172698Y-99703673D01*
X86011967Y-99637096D01*
X86033625Y-99622625D01*
X86361839Y-99131418D01*
X86477092Y-98552000D01*
X86444933Y-98390324D01*
X89738200Y-98390324D01*
X89738200Y-98713676D01*
X89861941Y-99012414D01*
X90090586Y-99241059D01*
X90389324Y-99364800D01*
X90712676Y-99364800D01*
X91011414Y-99241059D01*
X91240059Y-99012414D01*
X91328960Y-98797789D01*
X92867587Y-97259162D01*
X92909941Y-97361414D01*
X93138586Y-97590059D01*
X93437324Y-97713800D01*
X93760676Y-97713800D01*
X93975300Y-97624900D01*
X99445700Y-97624900D01*
X99660324Y-97713800D01*
X99983676Y-97713800D01*
X100282414Y-97590059D01*
X100511059Y-97361414D01*
X100634800Y-97062676D01*
X100634800Y-96739324D01*
X100543953Y-96520000D01*
X100634800Y-96300676D01*
X100634800Y-95977324D01*
X100511059Y-95678586D01*
X100282414Y-95449941D01*
X99983676Y-95326200D01*
X99660324Y-95326200D01*
X99445700Y-95415100D01*
X93035296Y-95415100D01*
X92963999Y-95400918D01*
X92892703Y-95415100D01*
X92892702Y-95415100D01*
X92681548Y-95457101D01*
X92442097Y-95617097D01*
X92401709Y-95677542D01*
X90305211Y-97774040D01*
X90090586Y-97862941D01*
X89861941Y-98091586D01*
X89738200Y-98390324D01*
X86444933Y-98390324D01*
X86361839Y-97972582D01*
X86033625Y-97481375D01*
X85735239Y-97282000D01*
X86033625Y-97082625D01*
X86361839Y-96591418D01*
X86477092Y-96012000D01*
X86361839Y-95432582D01*
X86033625Y-94941375D01*
X85735239Y-94742000D01*
X86033625Y-94542625D01*
X86361839Y-94051418D01*
X86477092Y-93472000D01*
X86361839Y-92892582D01*
X86033625Y-92401375D01*
X85735239Y-92202000D01*
X86033625Y-92002625D01*
X86255798Y-91670119D01*
X97078800Y-91670119D01*
X97078800Y-92225881D01*
X97291480Y-92739337D01*
X97684463Y-93132320D01*
X98197919Y-93345000D01*
X98753681Y-93345000D01*
X99267137Y-93132320D01*
X99660120Y-92739337D01*
X99872800Y-92225881D01*
X99872800Y-91670119D01*
X99660120Y-91156663D01*
X99267137Y-90763680D01*
X98753681Y-90551000D01*
X98197919Y-90551000D01*
X97684463Y-90763680D01*
X97291480Y-91156663D01*
X97078800Y-91670119D01*
X86255798Y-91670119D01*
X86361839Y-91511418D01*
X86477092Y-90932000D01*
X86361839Y-90352582D01*
X86033625Y-89861375D01*
X85735239Y-89662000D01*
X86033625Y-89462625D01*
X86361839Y-88971418D01*
X86477092Y-88392000D01*
X86361839Y-87812582D01*
X86033625Y-87321375D01*
X85735239Y-87122000D01*
X85787135Y-87087324D01*
X104089200Y-87087324D01*
X104089200Y-87410676D01*
X104212941Y-87709414D01*
X104441586Y-87938059D01*
X104656211Y-88026960D01*
X107480100Y-90850849D01*
X107480101Y-98683698D01*
X107391200Y-98898324D01*
X107391200Y-99221676D01*
X107514941Y-99520414D01*
X107743586Y-99749059D01*
X108042324Y-99872800D01*
X108365676Y-99872800D01*
X108664414Y-99749059D01*
X108893059Y-99520414D01*
X109016800Y-99221676D01*
X109016800Y-98898324D01*
X108927900Y-98683700D01*
X108927900Y-91593919D01*
X141427200Y-91593919D01*
X141427200Y-92149681D01*
X141639880Y-92663137D01*
X142032863Y-93056120D01*
X142546319Y-93268800D01*
X143102081Y-93268800D01*
X143615537Y-93056120D01*
X144008520Y-92663137D01*
X144221200Y-92149681D01*
X144221200Y-91593919D01*
X144008520Y-91080463D01*
X143615537Y-90687480D01*
X143102081Y-90474800D01*
X142546319Y-90474800D01*
X142032863Y-90687480D01*
X141639880Y-91080463D01*
X141427200Y-91593919D01*
X108927900Y-91593919D01*
X108927900Y-90622297D01*
X108942082Y-90550999D01*
X108885899Y-90268548D01*
X108766289Y-90089540D01*
X108725902Y-90029097D01*
X108665460Y-89988711D01*
X105679960Y-87003211D01*
X105591059Y-86788586D01*
X105362414Y-86559941D01*
X105063676Y-86436200D01*
X104740324Y-86436200D01*
X104441586Y-86559941D01*
X104212941Y-86788586D01*
X104089200Y-87087324D01*
X85787135Y-87087324D01*
X86033625Y-86922625D01*
X86361839Y-86431418D01*
X86477092Y-85852000D01*
X86361839Y-85272582D01*
X86033625Y-84781375D01*
X85735239Y-84582000D01*
X86033625Y-84382625D01*
X86361839Y-83891418D01*
X86477092Y-83312000D01*
X86361839Y-82732582D01*
X86033625Y-82241375D01*
X85735239Y-82042000D01*
X86033625Y-81842625D01*
X86361839Y-81351418D01*
X86477092Y-80772000D01*
X86361839Y-80192582D01*
X86033625Y-79701375D01*
X85735239Y-79502000D01*
X86033625Y-79302625D01*
X86361839Y-78811418D01*
X86477092Y-78232000D01*
X86361839Y-77652582D01*
X86033625Y-77161375D01*
X85542418Y-76833161D01*
X85109256Y-76747000D01*
X84816744Y-76747000D01*
X84383582Y-76833161D01*
X83892375Y-77161375D01*
X83564161Y-77652582D01*
X83448908Y-78232000D01*
X81939200Y-78232000D01*
X81939200Y-73382119D01*
X97078800Y-73382119D01*
X97078800Y-73937881D01*
X97291480Y-74451337D01*
X97684463Y-74844320D01*
X98197919Y-75057000D01*
X98753681Y-75057000D01*
X99267137Y-74844320D01*
X99660120Y-74451337D01*
X99872800Y-73937881D01*
X99872800Y-73382119D01*
X99660120Y-72868663D01*
X99267137Y-72475680D01*
X98753681Y-72263000D01*
X98197919Y-72263000D01*
X97684463Y-72475680D01*
X97291480Y-72868663D01*
X97078800Y-73382119D01*
X81939200Y-73382119D01*
X81939200Y-64006800D01*
X89388179Y-64006800D01*
X89515874Y-64032200D01*
G36*
X178817200Y-162612000D02*
X160476000Y-162612000D01*
X160476000Y-160356106D01*
X162546600Y-160356106D01*
X162546600Y-160907094D01*
X162757453Y-161416140D01*
X163147060Y-161805747D01*
X163656106Y-162016600D01*
X164207094Y-162016600D01*
X164716140Y-161805747D01*
X165105747Y-161416140D01*
X165316600Y-160907094D01*
X165316600Y-160356106D01*
X165105747Y-159847060D01*
X164716140Y-159457453D01*
X164271319Y-159273203D01*
X164291298Y-159264927D01*
X164469927Y-159086298D01*
X164566600Y-158852909D01*
X164566600Y-158680150D01*
X175299000Y-158680150D01*
X175299000Y-159370710D01*
X175395673Y-159604099D01*
X175574302Y-159782727D01*
X175807691Y-159879400D01*
X176498250Y-159879400D01*
X176657000Y-159720650D01*
X176657000Y-158521400D01*
X176911000Y-158521400D01*
X176911000Y-159720650D01*
X177069750Y-159879400D01*
X177760309Y-159879400D01*
X177993698Y-159782727D01*
X178172327Y-159604099D01*
X178269000Y-159370710D01*
X178269000Y-158680150D01*
X178110250Y-158521400D01*
X176911000Y-158521400D01*
X176657000Y-158521400D01*
X175457750Y-158521400D01*
X175299000Y-158680150D01*
X164566600Y-158680150D01*
X164566600Y-158600291D01*
X164469927Y-158366902D01*
X164291298Y-158188273D01*
X164057909Y-158091600D01*
X163805291Y-158091600D01*
X163571902Y-158188273D01*
X163393273Y-158366902D01*
X163296600Y-158600291D01*
X163296600Y-158852909D01*
X163393273Y-159086298D01*
X163571902Y-159264927D01*
X163591881Y-159273203D01*
X163147060Y-159457453D01*
X162757453Y-159847060D01*
X162546600Y-160356106D01*
X160476000Y-160356106D01*
X160476000Y-146548724D01*
X161594800Y-146548724D01*
X161594800Y-146872076D01*
X161718541Y-147170814D01*
X161947186Y-147399459D01*
X162161811Y-147488359D01*
X163318509Y-148645058D01*
X163358897Y-148705503D01*
X163598348Y-148865499D01*
X163809502Y-148907500D01*
X163809503Y-148907500D01*
X163880799Y-148921682D01*
X163952096Y-148907500D01*
X175447757Y-148907500D01*
X175713375Y-149305025D01*
X176011761Y-149504400D01*
X175713375Y-149703775D01*
X175515644Y-149999700D01*
X164180649Y-149999700D01*
X163185559Y-149004611D01*
X163096659Y-148789986D01*
X162868014Y-148561341D01*
X162569276Y-148437600D01*
X162245924Y-148437600D01*
X161947186Y-148561341D01*
X161718541Y-148789986D01*
X161594800Y-149088724D01*
X161594800Y-149412076D01*
X161718541Y-149710814D01*
X161947186Y-149939459D01*
X162161811Y-150028359D01*
X163318509Y-151185058D01*
X163358897Y-151245503D01*
X163598348Y-151405499D01*
X163809502Y-151447500D01*
X163809503Y-151447500D01*
X163880799Y-151461682D01*
X163952096Y-151447500D01*
X175447757Y-151447500D01*
X175713375Y-151845025D01*
X176011761Y-152044400D01*
X175713375Y-152243775D01*
X175515644Y-152539700D01*
X164180649Y-152539700D01*
X163236359Y-151595411D01*
X163147459Y-151380786D01*
X162918814Y-151152141D01*
X162620076Y-151028400D01*
X162296724Y-151028400D01*
X161997986Y-151152141D01*
X161769341Y-151380786D01*
X161645600Y-151679524D01*
X161645600Y-152002876D01*
X161769341Y-152301614D01*
X161997986Y-152530259D01*
X162212611Y-152619159D01*
X163318509Y-153725058D01*
X163358897Y-153785503D01*
X163598348Y-153945499D01*
X163809502Y-153987500D01*
X163809503Y-153987500D01*
X163880799Y-154001682D01*
X163952096Y-153987500D01*
X175447757Y-153987500D01*
X175713375Y-154385025D01*
X176011761Y-154584400D01*
X175713375Y-154783775D01*
X175515644Y-155079700D01*
X164282249Y-155079700D01*
X163337959Y-154135411D01*
X163249059Y-153920786D01*
X163020414Y-153692141D01*
X162721676Y-153568400D01*
X162398324Y-153568400D01*
X162099586Y-153692141D01*
X161870941Y-153920786D01*
X161747200Y-154219524D01*
X161747200Y-154542876D01*
X161870941Y-154841614D01*
X162099586Y-155070259D01*
X162314211Y-155159159D01*
X163420109Y-156265058D01*
X163460497Y-156325503D01*
X163699948Y-156485499D01*
X163911102Y-156527500D01*
X163911103Y-156527500D01*
X163982399Y-156541682D01*
X164053696Y-156527500D01*
X175447757Y-156527500D01*
X175713375Y-156925025D01*
X175735033Y-156939496D01*
X175574302Y-157006073D01*
X175395673Y-157184701D01*
X175299000Y-157418090D01*
X175299000Y-158108650D01*
X175457750Y-158267400D01*
X176657000Y-158267400D01*
X176657000Y-158247400D01*
X176911000Y-158247400D01*
X176911000Y-158267400D01*
X178110250Y-158267400D01*
X178269000Y-158108650D01*
X178269000Y-157418090D01*
X178172327Y-157184701D01*
X177993698Y-157006073D01*
X177832967Y-156939496D01*
X177854625Y-156925025D01*
X178182839Y-156433818D01*
X178298092Y-155854400D01*
X178182839Y-155274982D01*
X177854625Y-154783775D01*
X177556239Y-154584400D01*
X177854625Y-154385025D01*
X178182839Y-153893818D01*
X178298092Y-153314400D01*
X178182839Y-152734982D01*
X177854625Y-152243775D01*
X177556239Y-152044400D01*
X177854625Y-151845025D01*
X178182839Y-151353818D01*
X178298092Y-150774400D01*
X178182839Y-150194982D01*
X177854625Y-149703775D01*
X177556239Y-149504400D01*
X177854625Y-149305025D01*
X178182839Y-148813818D01*
X178298092Y-148234400D01*
X178182839Y-147654982D01*
X177854625Y-147163775D01*
X177556239Y-146964400D01*
X177854625Y-146765025D01*
X178182839Y-146273818D01*
X178298092Y-145694400D01*
X178182839Y-145114982D01*
X177854625Y-144623775D01*
X177556239Y-144424400D01*
X177854625Y-144225025D01*
X178182839Y-143733818D01*
X178298092Y-143154400D01*
X178182839Y-142574982D01*
X177854625Y-142083775D01*
X177556239Y-141884400D01*
X177854625Y-141685025D01*
X178182839Y-141193818D01*
X178298092Y-140614400D01*
X178182839Y-140034982D01*
X177854625Y-139543775D01*
X177556239Y-139344400D01*
X177854625Y-139145025D01*
X178182839Y-138653818D01*
X178298092Y-138074400D01*
X178182839Y-137494982D01*
X177854625Y-137003775D01*
X177556239Y-136804400D01*
X177854625Y-136605025D01*
X178182839Y-136113818D01*
X178298092Y-135534400D01*
X178182839Y-134954982D01*
X177854625Y-134463775D01*
X177556239Y-134264400D01*
X177854625Y-134065025D01*
X178182839Y-133573818D01*
X178298092Y-132994400D01*
X178182839Y-132414982D01*
X177854625Y-131923775D01*
X177556239Y-131724400D01*
X177854625Y-131525025D01*
X178182839Y-131033818D01*
X178298092Y-130454400D01*
X178182839Y-129874982D01*
X177854625Y-129383775D01*
X177556239Y-129184400D01*
X177854625Y-128985025D01*
X178182839Y-128493818D01*
X178298092Y-127914400D01*
X178182839Y-127334982D01*
X177854625Y-126843775D01*
X177556239Y-126644400D01*
X177854625Y-126445025D01*
X178182839Y-125953818D01*
X178298092Y-125374400D01*
X178182839Y-124794982D01*
X177854625Y-124303775D01*
X177556239Y-124104400D01*
X177854625Y-123905025D01*
X178182839Y-123413818D01*
X178298092Y-122834400D01*
X178182839Y-122254982D01*
X177854625Y-121763775D01*
X177556239Y-121564400D01*
X177854625Y-121365025D01*
X178182839Y-120873818D01*
X178298092Y-120294400D01*
X178182839Y-119714982D01*
X177854625Y-119223775D01*
X177556239Y-119024400D01*
X177854625Y-118825025D01*
X178182839Y-118333818D01*
X178298092Y-117754400D01*
X178182839Y-117174982D01*
X177854625Y-116683775D01*
X177363418Y-116355561D01*
X176930256Y-116269400D01*
X176637744Y-116269400D01*
X176204582Y-116355561D01*
X175713375Y-116683775D01*
X175385161Y-117174982D01*
X175269908Y-117754400D01*
X175385161Y-118333818D01*
X175713375Y-118825025D01*
X176011761Y-119024400D01*
X175713375Y-119223775D01*
X175481701Y-119570500D01*
X163647297Y-119570500D01*
X163575999Y-119556318D01*
X163293548Y-119612501D01*
X163054097Y-119772497D01*
X163013709Y-119832942D01*
X162263411Y-120583241D01*
X162048786Y-120672141D01*
X161820141Y-120900786D01*
X161696400Y-121199524D01*
X161696400Y-121522876D01*
X161820141Y-121821614D01*
X162048786Y-122050259D01*
X162347524Y-122174000D01*
X162670876Y-122174000D01*
X162969614Y-122050259D01*
X163198259Y-121821614D01*
X163287159Y-121606989D01*
X163875849Y-121018300D01*
X175481701Y-121018300D01*
X175713375Y-121365025D01*
X176011761Y-121564400D01*
X175713375Y-121763775D01*
X175481701Y-122110500D01*
X167660497Y-122110500D01*
X167589199Y-122096318D01*
X167306748Y-122152501D01*
X167067297Y-122312497D01*
X167026909Y-122372942D01*
X166175011Y-123224841D01*
X165960386Y-123313741D01*
X165731741Y-123542386D01*
X165608000Y-123841124D01*
X165608000Y-124164476D01*
X165731741Y-124463214D01*
X165960386Y-124691859D01*
X166259124Y-124815600D01*
X166582476Y-124815600D01*
X166881214Y-124691859D01*
X167109859Y-124463214D01*
X167198759Y-124248589D01*
X167889049Y-123558300D01*
X175481701Y-123558300D01*
X175713375Y-123905025D01*
X176011761Y-124104400D01*
X175713375Y-124303775D01*
X175385161Y-124794982D01*
X175269908Y-125374400D01*
X175385161Y-125953818D01*
X175713375Y-126445025D01*
X176011761Y-126644400D01*
X175713375Y-126843775D01*
X175385161Y-127334982D01*
X175269908Y-127914400D01*
X175385161Y-128493818D01*
X175713375Y-128985025D01*
X176011761Y-129184400D01*
X175713375Y-129383775D01*
X175385161Y-129874982D01*
X175269908Y-130454400D01*
X175385161Y-131033818D01*
X175713375Y-131525025D01*
X176011761Y-131724400D01*
X175713375Y-131923775D01*
X175385161Y-132414982D01*
X175269908Y-132994400D01*
X175385161Y-133573818D01*
X175713375Y-134065025D01*
X176011761Y-134264400D01*
X175713375Y-134463775D01*
X175385161Y-134954982D01*
X175269908Y-135534400D01*
X175385161Y-136113818D01*
X175713375Y-136605025D01*
X176011761Y-136804400D01*
X175713375Y-137003775D01*
X175385161Y-137494982D01*
X175269908Y-138074400D01*
X175385161Y-138653818D01*
X175713375Y-139145025D01*
X176011761Y-139344400D01*
X175713375Y-139543775D01*
X175385161Y-140034982D01*
X175269908Y-140614400D01*
X175385161Y-141193818D01*
X175713375Y-141685025D01*
X176011761Y-141884400D01*
X175713375Y-142083775D01*
X175515644Y-142379700D01*
X166822249Y-142379700D01*
X163287160Y-138844611D01*
X163198259Y-138629986D01*
X162969614Y-138401341D01*
X162670876Y-138277600D01*
X162347524Y-138277600D01*
X162048786Y-138401341D01*
X161820141Y-138629986D01*
X161696400Y-138928724D01*
X161696400Y-139252076D01*
X161820141Y-139550814D01*
X162048786Y-139779459D01*
X162263411Y-139868360D01*
X165960109Y-143565058D01*
X166000497Y-143625503D01*
X166162602Y-143733818D01*
X166239948Y-143785499D01*
X166522400Y-143841682D01*
X166593698Y-143827500D01*
X175447757Y-143827500D01*
X175713375Y-144225025D01*
X176011761Y-144424400D01*
X175713375Y-144623775D01*
X175515644Y-144919700D01*
X166771450Y-144919700D01*
X163337959Y-141486211D01*
X163249059Y-141271586D01*
X163020414Y-141042941D01*
X162721676Y-140919200D01*
X162398324Y-140919200D01*
X162099586Y-141042941D01*
X161870941Y-141271586D01*
X161747200Y-141570324D01*
X161747200Y-141893676D01*
X161870941Y-142192414D01*
X162099586Y-142421059D01*
X162314211Y-142509959D01*
X165909311Y-146105061D01*
X165949697Y-146165503D01*
X166010139Y-146205889D01*
X166010140Y-146205890D01*
X166189148Y-146325499D01*
X166471600Y-146381682D01*
X166542898Y-146367500D01*
X175447757Y-146367500D01*
X175713375Y-146765025D01*
X176011761Y-146964400D01*
X175713375Y-147163775D01*
X175515644Y-147459700D01*
X164180649Y-147459700D01*
X163185559Y-146464611D01*
X163096659Y-146249986D01*
X162868014Y-146021341D01*
X162569276Y-145897600D01*
X162245924Y-145897600D01*
X161947186Y-146021341D01*
X161718541Y-146249986D01*
X161594800Y-146548724D01*
X160476000Y-146548724D01*
X160476000Y-118210291D01*
X164296600Y-118210291D01*
X164296600Y-118462909D01*
X164393273Y-118696298D01*
X164571902Y-118874927D01*
X164805291Y-118971600D01*
X165057909Y-118971600D01*
X165291298Y-118874927D01*
X165469927Y-118696298D01*
X165566600Y-118462909D01*
X165566600Y-118210291D01*
X165469927Y-117976902D01*
X165291298Y-117798273D01*
X165057909Y-117701600D01*
X164805291Y-117701600D01*
X164571902Y-117798273D01*
X164393273Y-117976902D01*
X164296600Y-118210291D01*
X160476000Y-118210291D01*
X160476000Y-116156106D01*
X162546600Y-116156106D01*
X162546600Y-116707094D01*
X162757453Y-117216140D01*
X163147060Y-117605747D01*
X163656106Y-117816600D01*
X164207094Y-117816600D01*
X164716140Y-117605747D01*
X165105747Y-117216140D01*
X165316600Y-116707094D01*
X165316600Y-116156106D01*
X165105747Y-115647060D01*
X164716140Y-115257453D01*
X164207094Y-115046600D01*
X163656106Y-115046600D01*
X163147060Y-115257453D01*
X162757453Y-115647060D01*
X162546600Y-116156106D01*
X160476000Y-116156106D01*
X160476000Y-111454000D01*
X178817201Y-111454000D01*
X178817200Y-162612000D01*
X178817200Y-162612000D01*
G37*
X178817200Y-162612000D02*
X160476000Y-162612000D01*
X160476000Y-160356106D01*
X162546600Y-160356106D01*
X162546600Y-160907094D01*
X162757453Y-161416140D01*
X163147060Y-161805747D01*
X163656106Y-162016600D01*
X164207094Y-162016600D01*
X164716140Y-161805747D01*
X165105747Y-161416140D01*
X165316600Y-160907094D01*
X165316600Y-160356106D01*
X165105747Y-159847060D01*
X164716140Y-159457453D01*
X164271319Y-159273203D01*
X164291298Y-159264927D01*
X164469927Y-159086298D01*
X164566600Y-158852909D01*
X164566600Y-158680150D01*
X175299000Y-158680150D01*
X175299000Y-159370710D01*
X175395673Y-159604099D01*
X175574302Y-159782727D01*
X175807691Y-159879400D01*
X176498250Y-159879400D01*
X176657000Y-159720650D01*
X176657000Y-158521400D01*
X176911000Y-158521400D01*
X176911000Y-159720650D01*
X177069750Y-159879400D01*
X177760309Y-159879400D01*
X177993698Y-159782727D01*
X178172327Y-159604099D01*
X178269000Y-159370710D01*
X178269000Y-158680150D01*
X178110250Y-158521400D01*
X176911000Y-158521400D01*
X176657000Y-158521400D01*
X175457750Y-158521400D01*
X175299000Y-158680150D01*
X164566600Y-158680150D01*
X164566600Y-158600291D01*
X164469927Y-158366902D01*
X164291298Y-158188273D01*
X164057909Y-158091600D01*
X163805291Y-158091600D01*
X163571902Y-158188273D01*
X163393273Y-158366902D01*
X163296600Y-158600291D01*
X163296600Y-158852909D01*
X163393273Y-159086298D01*
X163571902Y-159264927D01*
X163591881Y-159273203D01*
X163147060Y-159457453D01*
X162757453Y-159847060D01*
X162546600Y-160356106D01*
X160476000Y-160356106D01*
X160476000Y-146548724D01*
X161594800Y-146548724D01*
X161594800Y-146872076D01*
X161718541Y-147170814D01*
X161947186Y-147399459D01*
X162161811Y-147488359D01*
X163318509Y-148645058D01*
X163358897Y-148705503D01*
X163598348Y-148865499D01*
X163809502Y-148907500D01*
X163809503Y-148907500D01*
X163880799Y-148921682D01*
X163952096Y-148907500D01*
X175447757Y-148907500D01*
X175713375Y-149305025D01*
X176011761Y-149504400D01*
X175713375Y-149703775D01*
X175515644Y-149999700D01*
X164180649Y-149999700D01*
X163185559Y-149004611D01*
X163096659Y-148789986D01*
X162868014Y-148561341D01*
X162569276Y-148437600D01*
X162245924Y-148437600D01*
X161947186Y-148561341D01*
X161718541Y-148789986D01*
X161594800Y-149088724D01*
X161594800Y-149412076D01*
X161718541Y-149710814D01*
X161947186Y-149939459D01*
X162161811Y-150028359D01*
X163318509Y-151185058D01*
X163358897Y-151245503D01*
X163598348Y-151405499D01*
X163809502Y-151447500D01*
X163809503Y-151447500D01*
X163880799Y-151461682D01*
X163952096Y-151447500D01*
X175447757Y-151447500D01*
X175713375Y-151845025D01*
X176011761Y-152044400D01*
X175713375Y-152243775D01*
X175515644Y-152539700D01*
X164180649Y-152539700D01*
X163236359Y-151595411D01*
X163147459Y-151380786D01*
X162918814Y-151152141D01*
X162620076Y-151028400D01*
X162296724Y-151028400D01*
X161997986Y-151152141D01*
X161769341Y-151380786D01*
X161645600Y-151679524D01*
X161645600Y-152002876D01*
X161769341Y-152301614D01*
X161997986Y-152530259D01*
X162212611Y-152619159D01*
X163318509Y-153725058D01*
X163358897Y-153785503D01*
X163598348Y-153945499D01*
X163809502Y-153987500D01*
X163809503Y-153987500D01*
X163880799Y-154001682D01*
X163952096Y-153987500D01*
X175447757Y-153987500D01*
X175713375Y-154385025D01*
X176011761Y-154584400D01*
X175713375Y-154783775D01*
X175515644Y-155079700D01*
X164282249Y-155079700D01*
X163337959Y-154135411D01*
X163249059Y-153920786D01*
X163020414Y-153692141D01*
X162721676Y-153568400D01*
X162398324Y-153568400D01*
X162099586Y-153692141D01*
X161870941Y-153920786D01*
X161747200Y-154219524D01*
X161747200Y-154542876D01*
X161870941Y-154841614D01*
X162099586Y-155070259D01*
X162314211Y-155159159D01*
X163420109Y-156265058D01*
X163460497Y-156325503D01*
X163699948Y-156485499D01*
X163911102Y-156527500D01*
X163911103Y-156527500D01*
X163982399Y-156541682D01*
X164053696Y-156527500D01*
X175447757Y-156527500D01*
X175713375Y-156925025D01*
X175735033Y-156939496D01*
X175574302Y-157006073D01*
X175395673Y-157184701D01*
X175299000Y-157418090D01*
X175299000Y-158108650D01*
X175457750Y-158267400D01*
X176657000Y-158267400D01*
X176657000Y-158247400D01*
X176911000Y-158247400D01*
X176911000Y-158267400D01*
X178110250Y-158267400D01*
X178269000Y-158108650D01*
X178269000Y-157418090D01*
X178172327Y-157184701D01*
X177993698Y-157006073D01*
X177832967Y-156939496D01*
X177854625Y-156925025D01*
X178182839Y-156433818D01*
X178298092Y-155854400D01*
X178182839Y-155274982D01*
X177854625Y-154783775D01*
X177556239Y-154584400D01*
X177854625Y-154385025D01*
X178182839Y-153893818D01*
X178298092Y-153314400D01*
X178182839Y-152734982D01*
X177854625Y-152243775D01*
X177556239Y-152044400D01*
X177854625Y-151845025D01*
X178182839Y-151353818D01*
X178298092Y-150774400D01*
X178182839Y-150194982D01*
X177854625Y-149703775D01*
X177556239Y-149504400D01*
X177854625Y-149305025D01*
X178182839Y-148813818D01*
X178298092Y-148234400D01*
X178182839Y-147654982D01*
X177854625Y-147163775D01*
X177556239Y-146964400D01*
X177854625Y-146765025D01*
X178182839Y-146273818D01*
X178298092Y-145694400D01*
X178182839Y-145114982D01*
X177854625Y-144623775D01*
X177556239Y-144424400D01*
X177854625Y-144225025D01*
X178182839Y-143733818D01*
X178298092Y-143154400D01*
X178182839Y-142574982D01*
X177854625Y-142083775D01*
X177556239Y-141884400D01*
X177854625Y-141685025D01*
X178182839Y-141193818D01*
X178298092Y-140614400D01*
X178182839Y-140034982D01*
X177854625Y-139543775D01*
X177556239Y-139344400D01*
X177854625Y-139145025D01*
X178182839Y-138653818D01*
X178298092Y-138074400D01*
X178182839Y-137494982D01*
X177854625Y-137003775D01*
X177556239Y-136804400D01*
X177854625Y-136605025D01*
X178182839Y-136113818D01*
X178298092Y-135534400D01*
X178182839Y-134954982D01*
X177854625Y-134463775D01*
X177556239Y-134264400D01*
X177854625Y-134065025D01*
X178182839Y-133573818D01*
X178298092Y-132994400D01*
X178182839Y-132414982D01*
X177854625Y-131923775D01*
X177556239Y-131724400D01*
X177854625Y-131525025D01*
X178182839Y-131033818D01*
X178298092Y-130454400D01*
X178182839Y-129874982D01*
X177854625Y-129383775D01*
X177556239Y-129184400D01*
X177854625Y-128985025D01*
X178182839Y-128493818D01*
X178298092Y-127914400D01*
X178182839Y-127334982D01*
X177854625Y-126843775D01*
X177556239Y-126644400D01*
X177854625Y-126445025D01*
X178182839Y-125953818D01*
X178298092Y-125374400D01*
X178182839Y-124794982D01*
X177854625Y-124303775D01*
X177556239Y-124104400D01*
X177854625Y-123905025D01*
X178182839Y-123413818D01*
X178298092Y-122834400D01*
X178182839Y-122254982D01*
X177854625Y-121763775D01*
X177556239Y-121564400D01*
X177854625Y-121365025D01*
X178182839Y-120873818D01*
X178298092Y-120294400D01*
X178182839Y-119714982D01*
X177854625Y-119223775D01*
X177556239Y-119024400D01*
X177854625Y-118825025D01*
X178182839Y-118333818D01*
X178298092Y-117754400D01*
X178182839Y-117174982D01*
X177854625Y-116683775D01*
X177363418Y-116355561D01*
X176930256Y-116269400D01*
X176637744Y-116269400D01*
X176204582Y-116355561D01*
X175713375Y-116683775D01*
X175385161Y-117174982D01*
X175269908Y-117754400D01*
X175385161Y-118333818D01*
X175713375Y-118825025D01*
X176011761Y-119024400D01*
X175713375Y-119223775D01*
X175481701Y-119570500D01*
X163647297Y-119570500D01*
X163575999Y-119556318D01*
X163293548Y-119612501D01*
X163054097Y-119772497D01*
X163013709Y-119832942D01*
X162263411Y-120583241D01*
X162048786Y-120672141D01*
X161820141Y-120900786D01*
X161696400Y-121199524D01*
X161696400Y-121522876D01*
X161820141Y-121821614D01*
X162048786Y-122050259D01*
X162347524Y-122174000D01*
X162670876Y-122174000D01*
X162969614Y-122050259D01*
X163198259Y-121821614D01*
X163287159Y-121606989D01*
X163875849Y-121018300D01*
X175481701Y-121018300D01*
X175713375Y-121365025D01*
X176011761Y-121564400D01*
X175713375Y-121763775D01*
X175481701Y-122110500D01*
X167660497Y-122110500D01*
X167589199Y-122096318D01*
X167306748Y-122152501D01*
X167067297Y-122312497D01*
X167026909Y-122372942D01*
X166175011Y-123224841D01*
X165960386Y-123313741D01*
X165731741Y-123542386D01*
X165608000Y-123841124D01*
X165608000Y-124164476D01*
X165731741Y-124463214D01*
X165960386Y-124691859D01*
X166259124Y-124815600D01*
X166582476Y-124815600D01*
X166881214Y-124691859D01*
X167109859Y-124463214D01*
X167198759Y-124248589D01*
X167889049Y-123558300D01*
X175481701Y-123558300D01*
X175713375Y-123905025D01*
X176011761Y-124104400D01*
X175713375Y-124303775D01*
X175385161Y-124794982D01*
X175269908Y-125374400D01*
X175385161Y-125953818D01*
X175713375Y-126445025D01*
X176011761Y-126644400D01*
X175713375Y-126843775D01*
X175385161Y-127334982D01*
X175269908Y-127914400D01*
X175385161Y-128493818D01*
X175713375Y-128985025D01*
X176011761Y-129184400D01*
X175713375Y-129383775D01*
X175385161Y-129874982D01*
X175269908Y-130454400D01*
X175385161Y-131033818D01*
X175713375Y-131525025D01*
X176011761Y-131724400D01*
X175713375Y-131923775D01*
X175385161Y-132414982D01*
X175269908Y-132994400D01*
X175385161Y-133573818D01*
X175713375Y-134065025D01*
X176011761Y-134264400D01*
X175713375Y-134463775D01*
X175385161Y-134954982D01*
X175269908Y-135534400D01*
X175385161Y-136113818D01*
X175713375Y-136605025D01*
X176011761Y-136804400D01*
X175713375Y-137003775D01*
X175385161Y-137494982D01*
X175269908Y-138074400D01*
X175385161Y-138653818D01*
X175713375Y-139145025D01*
X176011761Y-139344400D01*
X175713375Y-139543775D01*
X175385161Y-140034982D01*
X175269908Y-140614400D01*
X175385161Y-141193818D01*
X175713375Y-141685025D01*
X176011761Y-141884400D01*
X175713375Y-142083775D01*
X175515644Y-142379700D01*
X166822249Y-142379700D01*
X163287160Y-138844611D01*
X163198259Y-138629986D01*
X162969614Y-138401341D01*
X162670876Y-138277600D01*
X162347524Y-138277600D01*
X162048786Y-138401341D01*
X161820141Y-138629986D01*
X161696400Y-138928724D01*
X161696400Y-139252076D01*
X161820141Y-139550814D01*
X162048786Y-139779459D01*
X162263411Y-139868360D01*
X165960109Y-143565058D01*
X166000497Y-143625503D01*
X166162602Y-143733818D01*
X166239948Y-143785499D01*
X166522400Y-143841682D01*
X166593698Y-143827500D01*
X175447757Y-143827500D01*
X175713375Y-144225025D01*
X176011761Y-144424400D01*
X175713375Y-144623775D01*
X175515644Y-144919700D01*
X166771450Y-144919700D01*
X163337959Y-141486211D01*
X163249059Y-141271586D01*
X163020414Y-141042941D01*
X162721676Y-140919200D01*
X162398324Y-140919200D01*
X162099586Y-141042941D01*
X161870941Y-141271586D01*
X161747200Y-141570324D01*
X161747200Y-141893676D01*
X161870941Y-142192414D01*
X162099586Y-142421059D01*
X162314211Y-142509959D01*
X165909311Y-146105061D01*
X165949697Y-146165503D01*
X166010139Y-146205889D01*
X166010140Y-146205890D01*
X166189148Y-146325499D01*
X166471600Y-146381682D01*
X166542898Y-146367500D01*
X175447757Y-146367500D01*
X175713375Y-146765025D01*
X176011761Y-146964400D01*
X175713375Y-147163775D01*
X175515644Y-147459700D01*
X164180649Y-147459700D01*
X163185559Y-146464611D01*
X163096659Y-146249986D01*
X162868014Y-146021341D01*
X162569276Y-145897600D01*
X162245924Y-145897600D01*
X161947186Y-146021341D01*
X161718541Y-146249986D01*
X161594800Y-146548724D01*
X160476000Y-146548724D01*
X160476000Y-118210291D01*
X164296600Y-118210291D01*
X164296600Y-118462909D01*
X164393273Y-118696298D01*
X164571902Y-118874927D01*
X164805291Y-118971600D01*
X165057909Y-118971600D01*
X165291298Y-118874927D01*
X165469927Y-118696298D01*
X165566600Y-118462909D01*
X165566600Y-118210291D01*
X165469927Y-117976902D01*
X165291298Y-117798273D01*
X165057909Y-117701600D01*
X164805291Y-117701600D01*
X164571902Y-117798273D01*
X164393273Y-117976902D01*
X164296600Y-118210291D01*
X160476000Y-118210291D01*
X160476000Y-116156106D01*
X162546600Y-116156106D01*
X162546600Y-116707094D01*
X162757453Y-117216140D01*
X163147060Y-117605747D01*
X163656106Y-117816600D01*
X164207094Y-117816600D01*
X164716140Y-117605747D01*
X165105747Y-117216140D01*
X165316600Y-116707094D01*
X165316600Y-116156106D01*
X165105747Y-115647060D01*
X164716140Y-115257453D01*
X164207094Y-115046600D01*
X163656106Y-115046600D01*
X163147060Y-115257453D01*
X162757453Y-115647060D01*
X162546600Y-116156106D01*
X160476000Y-116156106D01*
X160476000Y-111454000D01*
X178817201Y-111454000D01*
X178817200Y-162612000D01*
G04 #@! TD*
M02*
