M48
;DRILL file {KiCad 5.0.0} date Thu Jul 26 19:57:22 2018
;FORMAT={-:-/ absolute / inch / decimal}
FMAT,2
INCH,TZ
T1C0.0040
T2C0.0300
T3C0.0394
T4C0.0472
T5C0.1260
%
G90
G05
M72
T1
X3.44Y-5.77
X3.565Y-3.88
X3.685Y-3.815
X3.93Y-3.785
X3.93Y-3.815
X3.93Y-3.975
X3.93Y-4.165
X3.93Y-4.29
X3.935Y-3.88
X3.935Y-4.005
X3.935Y-4.07
X3.935Y-4.1
X3.935Y-4.195
X3.935Y-4.255
X3.94Y-3.91
X3.94Y-6.07
X3.976Y-5.71
X4.008Y-5.704
X4.072Y-5.706
X4.095Y-6.375
X4.104Y-5.736
X4.13Y-3.435
X4.13Y-6.18
X4.165Y-5.735
X4.18Y-6.135
X4.2Y-5.735
X4.255Y-5.61
X4.26Y-3.9
X4.265Y-5.775
X4.275Y-6.27
X4.28Y-6.005
X4.355Y-6.33
X4.365Y-6.07
X4.505Y-6.37
X4.515Y-6.215
X4.665Y-6.48
X4.67Y-6.365
X4.8224Y-6.5984
X4.9Y-2.745
X4.9224Y-6.5984
X4.985Y-2.75
X5.015Y-2.97
X5.05Y-2.99
X5.195Y-4.62
X5.255Y-4.86
X6.394Y-5.776
X6.394Y-5.876
X6.396Y-5.978
X6.398Y-4.778
X6.398Y-5.476
X6.4Y-5.58
X6.4Y-6.078
X6.452Y-5.332
X6.552Y-4.882
T2
X3.877Y-5.366
X3.877Y-5.79
X5.623Y-2.9
X5.623Y-5.363
T3
X4.885Y-2.585
X4.985Y-2.585
X5.085Y-2.585
X5.185Y-2.585
X5.285Y-2.585
X5.385Y-2.585
X6.96Y-4.636
X6.96Y-4.736
X6.96Y-4.836
X6.96Y-4.936
X6.96Y-5.036
X6.96Y-5.136
X6.96Y-5.236
X6.96Y-5.336
X6.96Y-5.436
X6.96Y-5.536
X6.96Y-5.636
X6.96Y-5.736
X6.96Y-5.836
X6.96Y-5.936
X6.96Y-6.036
X6.96Y-6.136
X6.96Y-6.236
X6.454Y-4.5839
X6.454Y-6.3241
X3.345Y-4.095
X3.345Y-4.195
X3.345Y-4.295
X3.345Y-4.395
X3.345Y-4.495
X3.345Y-4.595
X3.345Y-4.695
X3.345Y-4.795
X3.345Y-4.895
X3.345Y-4.995
X3.345Y-3.08
X3.345Y-3.18
X3.345Y-3.28
X3.345Y-3.38
X3.345Y-3.48
X3.345Y-3.58
X3.345Y-3.68
X3.345Y-3.78
X3.345Y-3.88
X3.345Y-3.98
X3.344Y-5.168
X3.344Y-5.268
X3.344Y-5.368
X3.344Y-5.468
X3.344Y-5.568
X3.344Y-5.668
X3.344Y-5.768
X3.344Y-5.868
X3.344Y-5.968
X3.344Y-6.068
X3.344Y-6.168
X3.344Y-6.268
T4
X3.877Y-3.62
X5.623Y-5.79
X3.877Y-2.9
X5.623Y-3.617
T5
X3.684Y-6.273
X5.81Y-6.273
X5.81Y-2.65
X3.684Y-2.65
T0
M30
