%TF.GenerationSoftware,KiCad,Pcbnew,5.0.0*%
%TF.CreationDate,2018-07-30T20:43:33-05:00*%
%TF.ProjectId,breakout,627265616B6F75742E6B696361645F70,rev?*%
%TF.SameCoordinates,Original*%
%TF.FileFunction,Legend,Top*%
%TF.FilePolarity,Positive*%
%FSLAX46Y46*%
G04 Gerber Fmt 4.6, Leading zero omitted, Abs format (unit mm)*
G04 Created by KiCad (PCBNEW 5.0.0) date Mon Jul 30 20:43:33 2018*
%MOMM*%
%LPD*%
G01*
G04 APERTURE LIST*
%ADD10C,0.300000*%
%ADD11C,0.120000*%
%ADD12C,0.150000*%
%ADD13C,0.010000*%
G04 APERTURE END LIST*
D10*
X150169428Y-146037857D02*
X150312285Y-146180714D01*
X150455142Y-146609285D01*
X150455142Y-146895000D01*
X150312285Y-147323571D01*
X150026571Y-147609285D01*
X149740857Y-147752142D01*
X149169428Y-147895000D01*
X148740857Y-147895000D01*
X148169428Y-147752142D01*
X147883714Y-147609285D01*
X147598000Y-147323571D01*
X147455142Y-146895000D01*
X147455142Y-146609285D01*
X147598000Y-146180714D01*
X147740857Y-146037857D01*
X148455142Y-145037857D02*
X150455142Y-144323571D01*
X148455142Y-143609285D02*
X150455142Y-144323571D01*
X151169428Y-144609285D01*
X151312285Y-144752142D01*
X151455142Y-145037857D01*
X150312285Y-142609285D02*
X150455142Y-142180714D01*
X150455142Y-141466428D01*
X150312285Y-141180714D01*
X150169428Y-141037857D01*
X149883714Y-140895000D01*
X149598000Y-140895000D01*
X149312285Y-141037857D01*
X149169428Y-141180714D01*
X149026571Y-141466428D01*
X148883714Y-142037857D01*
X148740857Y-142323571D01*
X148598000Y-142466428D01*
X148312285Y-142609285D01*
X148026571Y-142609285D01*
X147740857Y-142466428D01*
X147598000Y-142323571D01*
X147455142Y-142037857D01*
X147455142Y-141323571D01*
X147598000Y-140895000D01*
X150455142Y-138323571D02*
X148883714Y-138323571D01*
X148598000Y-138466428D01*
X148455142Y-138752142D01*
X148455142Y-139323571D01*
X148598000Y-139609285D01*
X150312285Y-138323571D02*
X150455142Y-138609285D01*
X150455142Y-139323571D01*
X150312285Y-139609285D01*
X150026571Y-139752142D01*
X149740857Y-139752142D01*
X149455142Y-139609285D01*
X149312285Y-139323571D01*
X149312285Y-138609285D01*
X149169428Y-138323571D01*
X148455142Y-137323571D02*
X148455142Y-136180714D01*
X147455142Y-136895000D02*
X150026571Y-136895000D01*
X150312285Y-136752142D01*
X150455142Y-136466428D01*
X150455142Y-136180714D01*
X150455142Y-131323571D02*
X150455142Y-133037857D01*
X150455142Y-132180714D02*
X147455142Y-132180714D01*
X147883714Y-132466428D01*
X148169428Y-132752142D01*
X148312285Y-133037857D01*
X149312285Y-127752142D02*
X149312285Y-125466428D01*
X150312285Y-121895000D02*
X150455142Y-121466428D01*
X150455142Y-120752142D01*
X150312285Y-120466428D01*
X150169428Y-120323571D01*
X149883714Y-120180714D01*
X149598000Y-120180714D01*
X149312285Y-120323571D01*
X149169428Y-120466428D01*
X149026571Y-120752142D01*
X148883714Y-121323571D01*
X148740857Y-121609285D01*
X148598000Y-121752142D01*
X148312285Y-121895000D01*
X148026571Y-121895000D01*
X147740857Y-121752142D01*
X147598000Y-121609285D01*
X147455142Y-121323571D01*
X147455142Y-120609285D01*
X147598000Y-120180714D01*
X150455142Y-118895000D02*
X147455142Y-118895000D01*
X147455142Y-118180714D01*
X147598000Y-117752142D01*
X147883714Y-117466428D01*
X148169428Y-117323571D01*
X148740857Y-117180714D01*
X149169428Y-117180714D01*
X149740857Y-117323571D01*
X150026571Y-117466428D01*
X150312285Y-117752142D01*
X150455142Y-118180714D01*
X150455142Y-118895000D01*
X150455142Y-114180714D02*
X149026571Y-115180714D01*
X150455142Y-115895000D02*
X147455142Y-115895000D01*
X147455142Y-114752142D01*
X147598000Y-114466428D01*
X147740857Y-114323571D01*
X148026571Y-114180714D01*
X148455142Y-114180714D01*
X148740857Y-114323571D01*
X148883714Y-114466428D01*
X149026571Y-114752142D01*
X149026571Y-115895000D01*
X148883714Y-109609285D02*
X149026571Y-109180714D01*
X149169428Y-109037857D01*
X149455142Y-108895000D01*
X149883714Y-108895000D01*
X150169428Y-109037857D01*
X150312285Y-109180714D01*
X150455142Y-109466428D01*
X150455142Y-110609285D01*
X147455142Y-110609285D01*
X147455142Y-109609285D01*
X147598000Y-109323571D01*
X147740857Y-109180714D01*
X148026571Y-109037857D01*
X148312285Y-109037857D01*
X148598000Y-109180714D01*
X148740857Y-109323571D01*
X148883714Y-109609285D01*
X148883714Y-110609285D01*
X150455142Y-107609285D02*
X148455142Y-107609285D01*
X149026571Y-107609285D02*
X148740857Y-107466428D01*
X148598000Y-107323571D01*
X148455142Y-107037857D01*
X148455142Y-106752142D01*
X150312285Y-104609285D02*
X150455142Y-104895000D01*
X150455142Y-105466428D01*
X150312285Y-105752142D01*
X150026571Y-105895000D01*
X148883714Y-105895000D01*
X148598000Y-105752142D01*
X148455142Y-105466428D01*
X148455142Y-104895000D01*
X148598000Y-104609285D01*
X148883714Y-104466428D01*
X149169428Y-104466428D01*
X149455142Y-105895000D01*
X150455142Y-101895000D02*
X148883714Y-101895000D01*
X148598000Y-102037857D01*
X148455142Y-102323571D01*
X148455142Y-102895000D01*
X148598000Y-103180714D01*
X150312285Y-101895000D02*
X150455142Y-102180714D01*
X150455142Y-102895000D01*
X150312285Y-103180714D01*
X150026571Y-103323571D01*
X149740857Y-103323571D01*
X149455142Y-103180714D01*
X149312285Y-102895000D01*
X149312285Y-102180714D01*
X149169428Y-101895000D01*
X150455142Y-100466428D02*
X147455142Y-100466428D01*
X149312285Y-100180714D02*
X150455142Y-99323571D01*
X148455142Y-99323571D02*
X149598000Y-100466428D01*
X150455142Y-97609285D02*
X150312285Y-97895000D01*
X150169428Y-98037857D01*
X149883714Y-98180714D01*
X149026571Y-98180714D01*
X148740857Y-98037857D01*
X148598000Y-97895000D01*
X148455142Y-97609285D01*
X148455142Y-97180714D01*
X148598000Y-96895000D01*
X148740857Y-96752142D01*
X149026571Y-96609285D01*
X149883714Y-96609285D01*
X150169428Y-96752142D01*
X150312285Y-96895000D01*
X150455142Y-97180714D01*
X150455142Y-97609285D01*
X148455142Y-94037857D02*
X150455142Y-94037857D01*
X148455142Y-95323571D02*
X150026571Y-95323571D01*
X150312285Y-95180714D01*
X150455142Y-94895000D01*
X150455142Y-94466428D01*
X150312285Y-94180714D01*
X150169428Y-94037857D01*
X148455142Y-93037857D02*
X148455142Y-91895000D01*
X147455142Y-92609285D02*
X150026571Y-92609285D01*
X150312285Y-92466428D01*
X150455142Y-92180714D01*
X150455142Y-91895000D01*
X148883714Y-87609285D02*
X149026571Y-87180714D01*
X149169428Y-87037857D01*
X149455142Y-86895000D01*
X149883714Y-86895000D01*
X150169428Y-87037857D01*
X150312285Y-87180714D01*
X150455142Y-87466428D01*
X150455142Y-88609285D01*
X147455142Y-88609285D01*
X147455142Y-87609285D01*
X147598000Y-87323571D01*
X147740857Y-87180714D01*
X148026571Y-87037857D01*
X148312285Y-87037857D01*
X148598000Y-87180714D01*
X148740857Y-87323571D01*
X148883714Y-87609285D01*
X148883714Y-88609285D01*
X150455142Y-85180714D02*
X150312285Y-85466428D01*
X150169428Y-85609285D01*
X149883714Y-85752142D01*
X149026571Y-85752142D01*
X148740857Y-85609285D01*
X148598000Y-85466428D01*
X148455142Y-85180714D01*
X148455142Y-84752142D01*
X148598000Y-84466428D01*
X148740857Y-84323571D01*
X149026571Y-84180714D01*
X149883714Y-84180714D01*
X150169428Y-84323571D01*
X150312285Y-84466428D01*
X150455142Y-84752142D01*
X150455142Y-85180714D01*
X150455142Y-81609285D02*
X148883714Y-81609285D01*
X148598000Y-81752142D01*
X148455142Y-82037857D01*
X148455142Y-82609285D01*
X148598000Y-82895000D01*
X150312285Y-81609285D02*
X150455142Y-81895000D01*
X150455142Y-82609285D01*
X150312285Y-82895000D01*
X150026571Y-83037857D01*
X149740857Y-83037857D01*
X149455142Y-82895000D01*
X149312285Y-82609285D01*
X149312285Y-81895000D01*
X149169428Y-81609285D01*
X150455142Y-80180714D02*
X148455142Y-80180714D01*
X149026571Y-80180714D02*
X148740857Y-80037857D01*
X148598000Y-79895000D01*
X148455142Y-79609285D01*
X148455142Y-79323571D01*
X150455142Y-77037857D02*
X147455142Y-77037857D01*
X150312285Y-77037857D02*
X150455142Y-77323571D01*
X150455142Y-77895000D01*
X150312285Y-78180714D01*
X150169428Y-78323571D01*
X149883714Y-78466428D01*
X149026571Y-78466428D01*
X148740857Y-78323571D01*
X148598000Y-78180714D01*
X148455142Y-77895000D01*
X148455142Y-77323571D01*
X148598000Y-77037857D01*
X102520952Y-67357761D02*
X102520952Y-68786333D01*
X102425714Y-69072047D01*
X102235238Y-69262523D01*
X101949523Y-69357761D01*
X101759047Y-69357761D01*
X103282857Y-67357761D02*
X104616190Y-69357761D01*
X104616190Y-67357761D02*
X103282857Y-69357761D01*
X105187619Y-67357761D02*
X106425714Y-67357761D01*
X105759047Y-68119666D01*
X106044761Y-68119666D01*
X106235238Y-68214904D01*
X106330476Y-68310142D01*
X106425714Y-68500619D01*
X106425714Y-68976809D01*
X106330476Y-69167285D01*
X106235238Y-69262523D01*
X106044761Y-69357761D01*
X105473333Y-69357761D01*
X105282857Y-69262523D01*
X105187619Y-69167285D01*
X102266952Y-151812761D02*
X102266952Y-153241333D01*
X102171714Y-153527047D01*
X101981238Y-153717523D01*
X101695523Y-153812761D01*
X101505047Y-153812761D01*
X103028857Y-151812761D02*
X104362190Y-153812761D01*
X104362190Y-151812761D02*
X103028857Y-153812761D01*
X105981238Y-152479428D02*
X105981238Y-153812761D01*
X105505047Y-151717523D02*
X105028857Y-153146095D01*
X106266952Y-153146095D01*
X144446761Y-138779047D02*
X145875333Y-138779047D01*
X146161047Y-138874285D01*
X146351523Y-139064761D01*
X146446761Y-139350476D01*
X146446761Y-139540952D01*
X144446761Y-138017142D02*
X146446761Y-136683809D01*
X144446761Y-136683809D02*
X146446761Y-138017142D01*
X144637238Y-136017142D02*
X144542000Y-135921904D01*
X144446761Y-135731428D01*
X144446761Y-135255238D01*
X144542000Y-135064761D01*
X144637238Y-134969523D01*
X144827714Y-134874285D01*
X145018190Y-134874285D01*
X145303904Y-134969523D01*
X146446761Y-136112380D01*
X146446761Y-134874285D01*
X92122761Y-132429047D02*
X93551333Y-132429047D01*
X93837047Y-132524285D01*
X94027523Y-132714761D01*
X94122761Y-133000476D01*
X94122761Y-133190952D01*
X92122761Y-131667142D02*
X94122761Y-130333809D01*
X92122761Y-130333809D02*
X94122761Y-131667142D01*
X94122761Y-128524285D02*
X94122761Y-129667142D01*
X94122761Y-129095714D02*
X92122761Y-129095714D01*
X92408476Y-129286190D01*
X92598952Y-129476666D01*
X92694190Y-129667142D01*
D11*
X86293000Y-76902000D02*
X83633000Y-76902000D01*
X86293000Y-99822000D02*
X86293000Y-76902000D01*
X83633000Y-99822000D02*
X83633000Y-76902000D01*
X86293000Y-99822000D02*
X83633000Y-99822000D01*
X86293000Y-101092000D02*
X86293000Y-102422000D01*
X86293000Y-102422000D02*
X84963000Y-102422000D01*
D12*
X146524200Y-94696000D02*
X145524200Y-93696000D01*
X145524200Y-93696000D02*
X139124200Y-93696000D01*
X139124200Y-93696000D02*
X139124200Y-134396000D01*
X139124200Y-134396000D02*
X146524200Y-134396000D01*
X146524200Y-134396000D02*
X146524200Y-94696000D01*
X102175800Y-94772200D02*
X101175800Y-93772200D01*
X101175800Y-93772200D02*
X94775800Y-93772200D01*
X94775800Y-93772200D02*
X94775800Y-134472200D01*
X94775800Y-134472200D02*
X102175800Y-134472200D01*
X102175800Y-134472200D02*
X102175800Y-94772200D01*
X140000000Y-150766000D02*
X141000000Y-149766000D01*
X141000000Y-149766000D02*
X141000000Y-143366000D01*
X141000000Y-143366000D02*
X100300000Y-143366000D01*
X100300000Y-143366000D02*
X100300000Y-150766000D01*
X100300000Y-150766000D02*
X140000000Y-150766000D01*
X101300000Y-69960000D02*
X100300000Y-70960000D01*
X100300000Y-70960000D02*
X100300000Y-77360000D01*
X100300000Y-77360000D02*
X141000000Y-77360000D01*
X141000000Y-77360000D02*
X141000000Y-69960000D01*
X141000000Y-69960000D02*
X101300000Y-69960000D01*
D11*
X101803800Y-170100000D02*
X140613800Y-170100000D01*
X100533800Y-159990000D02*
X140613800Y-159990000D01*
X100533800Y-168830000D02*
X100533800Y-159990000D01*
X140613800Y-170100000D02*
X140613800Y-159990000D01*
X101803800Y-170100000D02*
X100533800Y-168830000D01*
X83607600Y-160537200D02*
X86267600Y-160537200D01*
X83607600Y-132537200D02*
X83607600Y-160537200D01*
X86267600Y-132537200D02*
X86267600Y-160537200D01*
X83607600Y-132537200D02*
X86267600Y-132537200D01*
X83607600Y-131267200D02*
X83607600Y-129937200D01*
X83607600Y-129937200D02*
X84937600Y-129937200D01*
X138109000Y-66989000D02*
X138109000Y-64329000D01*
X125349000Y-66989000D02*
X138109000Y-66989000D01*
X125349000Y-64329000D02*
X138109000Y-64329000D01*
X125349000Y-66989000D02*
X125349000Y-64329000D01*
X124079000Y-66989000D02*
X122749000Y-66989000D01*
X122749000Y-66989000D02*
X122749000Y-65659000D01*
X83633000Y-128203000D02*
X86293000Y-128203000D01*
X83633000Y-105283000D02*
X83633000Y-128203000D01*
X86293000Y-105283000D02*
X86293000Y-128203000D01*
X83633000Y-105283000D02*
X86293000Y-105283000D01*
X83633000Y-104013000D02*
X83633000Y-102683000D01*
X83633000Y-102683000D02*
X84963000Y-102683000D01*
D13*
G36*
X122501899Y-99857876D02*
X122722445Y-100073726D01*
X122807327Y-100050659D01*
X122983059Y-100146133D01*
X123007298Y-100316361D01*
X122836343Y-100656011D01*
X122440626Y-100639120D01*
X122046702Y-100328403D01*
X121873548Y-99958629D01*
X122065027Y-99746329D01*
X122414502Y-99732349D01*
X122501899Y-99857876D01*
X122501899Y-99857876D01*
G37*
X122501899Y-99857876D02*
X122722445Y-100073726D01*
X122807327Y-100050659D01*
X122983059Y-100146133D01*
X123007298Y-100316361D01*
X122836343Y-100656011D01*
X122440626Y-100639120D01*
X122046702Y-100328403D01*
X121873548Y-99958629D01*
X122065027Y-99746329D01*
X122414502Y-99732349D01*
X122501899Y-99857876D01*
G36*
X125424295Y-101550991D02*
X125209566Y-101772021D01*
X124968000Y-101929438D01*
X124518521Y-102208420D01*
X124519450Y-102264584D01*
X124934641Y-102158688D01*
X125378689Y-102103742D01*
X125386756Y-102281219D01*
X124975602Y-102551452D01*
X124487153Y-102490121D01*
X124307870Y-102323278D01*
X124383362Y-102018842D01*
X124675566Y-101788541D01*
X125224917Y-101546198D01*
X125424295Y-101550991D01*
X125424295Y-101550991D01*
G37*
X125424295Y-101550991D02*
X125209566Y-101772021D01*
X124968000Y-101929438D01*
X124518521Y-102208420D01*
X124519450Y-102264584D01*
X124934641Y-102158688D01*
X125378689Y-102103742D01*
X125386756Y-102281219D01*
X124975602Y-102551452D01*
X124487153Y-102490121D01*
X124307870Y-102323278D01*
X124383362Y-102018842D01*
X124675566Y-101788541D01*
X125224917Y-101546198D01*
X125424295Y-101550991D01*
G36*
X126830920Y-99636036D02*
X127543087Y-100201911D01*
X127639469Y-100302241D01*
X128222698Y-100923061D01*
X126186975Y-101113824D01*
X125074838Y-101246024D01*
X124368538Y-101414941D01*
X123939186Y-101660815D01*
X123752454Y-101873950D01*
X123500010Y-102327090D01*
X123614054Y-102618663D01*
X123810878Y-102777640D01*
X124487690Y-103081691D01*
X125153376Y-102931401D01*
X125903790Y-102309863D01*
X126525698Y-101729034D01*
X126881349Y-101538433D01*
X126936729Y-101737129D01*
X126657822Y-102324189D01*
X126654169Y-102330420D01*
X125896226Y-103319050D01*
X125097107Y-103777349D01*
X124261197Y-103704032D01*
X123544912Y-103240585D01*
X122790244Y-102569499D01*
X123585146Y-101570734D01*
X124585858Y-100416749D01*
X125417156Y-99723164D01*
X126143893Y-99469690D01*
X126830920Y-99636036D01*
X126830920Y-99636036D01*
G37*
X126830920Y-99636036D02*
X127543087Y-100201911D01*
X127639469Y-100302241D01*
X128222698Y-100923061D01*
X126186975Y-101113824D01*
X125074838Y-101246024D01*
X124368538Y-101414941D01*
X123939186Y-101660815D01*
X123752454Y-101873950D01*
X123500010Y-102327090D01*
X123614054Y-102618663D01*
X123810878Y-102777640D01*
X124487690Y-103081691D01*
X125153376Y-102931401D01*
X125903790Y-102309863D01*
X126525698Y-101729034D01*
X126881349Y-101538433D01*
X126936729Y-101737129D01*
X126657822Y-102324189D01*
X126654169Y-102330420D01*
X125896226Y-103319050D01*
X125097107Y-103777349D01*
X124261197Y-103704032D01*
X123544912Y-103240585D01*
X122790244Y-102569499D01*
X123585146Y-101570734D01*
X124585858Y-100416749D01*
X125417156Y-99723164D01*
X126143893Y-99469690D01*
X126830920Y-99636036D01*
G36*
X127674901Y-104500783D02*
X127987991Y-104677747D01*
X128735351Y-105170527D01*
X127052202Y-105906947D01*
X125934938Y-106394959D01*
X125226106Y-106692363D01*
X124842963Y-106819949D01*
X124702766Y-106798510D01*
X124722773Y-106648838D01*
X124789039Y-106475653D01*
X124998236Y-105839766D01*
X125139034Y-105330976D01*
X125218983Y-104865284D01*
X125029208Y-104810335D01*
X124669999Y-104969858D01*
X124032211Y-105281109D01*
X124663410Y-104731276D01*
X125542972Y-104288628D01*
X126614250Y-104210711D01*
X127674901Y-104500783D01*
X127674901Y-104500783D01*
G37*
X127674901Y-104500783D02*
X127987991Y-104677747D01*
X128735351Y-105170527D01*
X127052202Y-105906947D01*
X125934938Y-106394959D01*
X125226106Y-106692363D01*
X124842963Y-106819949D01*
X124702766Y-106798510D01*
X124722773Y-106648838D01*
X124789039Y-106475653D01*
X124998236Y-105839766D01*
X125139034Y-105330976D01*
X125218983Y-104865284D01*
X125029208Y-104810335D01*
X124669999Y-104969858D01*
X124032211Y-105281109D01*
X124663410Y-104731276D01*
X125542972Y-104288628D01*
X126614250Y-104210711D01*
X127674901Y-104500783D01*
G36*
X115104381Y-96839058D02*
X115288619Y-96933532D01*
X116084906Y-97236445D01*
X117368425Y-97550122D01*
X119155430Y-97878008D01*
X121202505Y-98187381D01*
X122394180Y-98376688D01*
X123404396Y-98577961D01*
X124104386Y-98763207D01*
X124343020Y-98870127D01*
X124868735Y-99033060D01*
X125165122Y-98983222D01*
X125481901Y-98884615D01*
X125407982Y-99030398D01*
X125180646Y-99265852D01*
X124885411Y-99501786D01*
X124513281Y-99597045D01*
X123917710Y-99559580D01*
X122952150Y-99397344D01*
X122908015Y-99389162D01*
X121688976Y-99212354D01*
X120834880Y-99217501D01*
X120355895Y-99337371D01*
X119843288Y-99588263D01*
X119602369Y-99800176D01*
X119724068Y-99882217D01*
X119821158Y-99871886D01*
X120757151Y-99848435D01*
X121256858Y-100118843D01*
X121306865Y-100649673D01*
X120893758Y-101407487D01*
X120585774Y-101777844D01*
X120042073Y-102446345D01*
X119692029Y-103004794D01*
X119620632Y-103227325D01*
X119863015Y-103841743D01*
X120510774Y-104274508D01*
X121444827Y-104448302D01*
X121501901Y-104448811D01*
X122396940Y-104626225D01*
X122955087Y-105111499D01*
X123096421Y-105649603D01*
X122874853Y-105811262D01*
X122301104Y-106124318D01*
X121511606Y-106522913D01*
X120642792Y-106941189D01*
X119831095Y-107313288D01*
X119212947Y-107573351D01*
X118937398Y-107657232D01*
X118830748Y-107439800D01*
X118818527Y-107268723D01*
X118580674Y-106853039D01*
X117983763Y-106480789D01*
X117202760Y-106222956D01*
X116412634Y-106150519D01*
X116149066Y-106185778D01*
X115617354Y-106375483D01*
X115160046Y-106756296D01*
X114651569Y-107448205D01*
X114386976Y-107869529D01*
X114087628Y-107951341D01*
X113404292Y-108008860D01*
X112487222Y-108040829D01*
X111486669Y-108045990D01*
X110552887Y-108023085D01*
X109836129Y-107970859D01*
X109527474Y-107910194D01*
X109065636Y-107667524D01*
X108925895Y-107503558D01*
X109123106Y-107428277D01*
X109296183Y-107474745D01*
X109712577Y-107435590D01*
X110435342Y-107193536D01*
X111234604Y-106835935D01*
X112327410Y-106380330D01*
X113369036Y-106095240D01*
X113872211Y-106037079D01*
X114513498Y-106013130D01*
X114673497Y-105947831D01*
X114405623Y-105805698D01*
X114290718Y-105759052D01*
X113668096Y-105608485D01*
X113288087Y-105633924D01*
X112952543Y-105680531D01*
X112959158Y-105490053D01*
X113244966Y-105174430D01*
X113725249Y-104856729D01*
X114818594Y-104510403D01*
X115977185Y-104490565D01*
X116988792Y-104790116D01*
X117277109Y-104975552D01*
X117810223Y-105301326D01*
X118392940Y-105376830D01*
X119117902Y-105272215D01*
X120289053Y-105042136D01*
X119121554Y-105012842D01*
X118407782Y-104961294D01*
X118097891Y-104773681D01*
X118130766Y-104330090D01*
X118405219Y-103607294D01*
X118469084Y-103307237D01*
X118339896Y-103012455D01*
X117943235Y-102647162D01*
X117204684Y-102135576D01*
X116545895Y-101713864D01*
X115830288Y-101234665D01*
X115537371Y-100950591D01*
X115618399Y-100804395D01*
X115743790Y-100771845D01*
X116514506Y-100593602D01*
X116768833Y-100396222D01*
X116523564Y-100119851D01*
X116011158Y-99818964D01*
X115373558Y-99465039D01*
X115168173Y-99284278D01*
X115355464Y-99198073D01*
X115676948Y-99154557D01*
X116260212Y-99007663D01*
X116355403Y-98727558D01*
X115972872Y-98254673D01*
X115852709Y-98143241D01*
X115330625Y-97580145D01*
X115030366Y-97145775D01*
X114891652Y-96807668D01*
X115104381Y-96839058D01*
X115104381Y-96839058D01*
G37*
X115104381Y-96839058D02*
X115288619Y-96933532D01*
X116084906Y-97236445D01*
X117368425Y-97550122D01*
X119155430Y-97878008D01*
X121202505Y-98187381D01*
X122394180Y-98376688D01*
X123404396Y-98577961D01*
X124104386Y-98763207D01*
X124343020Y-98870127D01*
X124868735Y-99033060D01*
X125165122Y-98983222D01*
X125481901Y-98884615D01*
X125407982Y-99030398D01*
X125180646Y-99265852D01*
X124885411Y-99501786D01*
X124513281Y-99597045D01*
X123917710Y-99559580D01*
X122952150Y-99397344D01*
X122908015Y-99389162D01*
X121688976Y-99212354D01*
X120834880Y-99217501D01*
X120355895Y-99337371D01*
X119843288Y-99588263D01*
X119602369Y-99800176D01*
X119724068Y-99882217D01*
X119821158Y-99871886D01*
X120757151Y-99848435D01*
X121256858Y-100118843D01*
X121306865Y-100649673D01*
X120893758Y-101407487D01*
X120585774Y-101777844D01*
X120042073Y-102446345D01*
X119692029Y-103004794D01*
X119620632Y-103227325D01*
X119863015Y-103841743D01*
X120510774Y-104274508D01*
X121444827Y-104448302D01*
X121501901Y-104448811D01*
X122396940Y-104626225D01*
X122955087Y-105111499D01*
X123096421Y-105649603D01*
X122874853Y-105811262D01*
X122301104Y-106124318D01*
X121511606Y-106522913D01*
X120642792Y-106941189D01*
X119831095Y-107313288D01*
X119212947Y-107573351D01*
X118937398Y-107657232D01*
X118830748Y-107439800D01*
X118818527Y-107268723D01*
X118580674Y-106853039D01*
X117983763Y-106480789D01*
X117202760Y-106222956D01*
X116412634Y-106150519D01*
X116149066Y-106185778D01*
X115617354Y-106375483D01*
X115160046Y-106756296D01*
X114651569Y-107448205D01*
X114386976Y-107869529D01*
X114087628Y-107951341D01*
X113404292Y-108008860D01*
X112487222Y-108040829D01*
X111486669Y-108045990D01*
X110552887Y-108023085D01*
X109836129Y-107970859D01*
X109527474Y-107910194D01*
X109065636Y-107667524D01*
X108925895Y-107503558D01*
X109123106Y-107428277D01*
X109296183Y-107474745D01*
X109712577Y-107435590D01*
X110435342Y-107193536D01*
X111234604Y-106835935D01*
X112327410Y-106380330D01*
X113369036Y-106095240D01*
X113872211Y-106037079D01*
X114513498Y-106013130D01*
X114673497Y-105947831D01*
X114405623Y-105805698D01*
X114290718Y-105759052D01*
X113668096Y-105608485D01*
X113288087Y-105633924D01*
X112952543Y-105680531D01*
X112959158Y-105490053D01*
X113244966Y-105174430D01*
X113725249Y-104856729D01*
X114818594Y-104510403D01*
X115977185Y-104490565D01*
X116988792Y-104790116D01*
X117277109Y-104975552D01*
X117810223Y-105301326D01*
X118392940Y-105376830D01*
X119117902Y-105272215D01*
X120289053Y-105042136D01*
X119121554Y-105012842D01*
X118407782Y-104961294D01*
X118097891Y-104773681D01*
X118130766Y-104330090D01*
X118405219Y-103607294D01*
X118469084Y-103307237D01*
X118339896Y-103012455D01*
X117943235Y-102647162D01*
X117204684Y-102135576D01*
X116545895Y-101713864D01*
X115830288Y-101234665D01*
X115537371Y-100950591D01*
X115618399Y-100804395D01*
X115743790Y-100771845D01*
X116514506Y-100593602D01*
X116768833Y-100396222D01*
X116523564Y-100119851D01*
X116011158Y-99818964D01*
X115373558Y-99465039D01*
X115168173Y-99284278D01*
X115355464Y-99198073D01*
X115676948Y-99154557D01*
X116260212Y-99007663D01*
X116355403Y-98727558D01*
X115972872Y-98254673D01*
X115852709Y-98143241D01*
X115330625Y-97580145D01*
X115030366Y-97145775D01*
X114891652Y-96807668D01*
X115104381Y-96839058D01*
G36*
X136098199Y-109126840D02*
X136132322Y-109328284D01*
X135849649Y-109562228D01*
X135318858Y-109717409D01*
X134756287Y-109764360D01*
X134378275Y-109673611D01*
X134325895Y-109574356D01*
X134564227Y-109258587D01*
X135164719Y-109044625D01*
X135706885Y-108994074D01*
X136098199Y-109126840D01*
X136098199Y-109126840D01*
G37*
X136098199Y-109126840D02*
X136132322Y-109328284D01*
X135849649Y-109562228D01*
X135318858Y-109717409D01*
X134756287Y-109764360D01*
X134378275Y-109673611D01*
X134325895Y-109574356D01*
X134564227Y-109258587D01*
X135164719Y-109044625D01*
X135706885Y-108994074D01*
X136098199Y-109126840D01*
G36*
X136367725Y-102891754D02*
X136073753Y-103633518D01*
X135606006Y-104177978D01*
X135600907Y-104181442D01*
X134931439Y-104697104D01*
X134411452Y-105210337D01*
X134091742Y-105641194D01*
X134023104Y-105909725D01*
X134256336Y-105935981D01*
X134575686Y-105795060D01*
X135089892Y-105557141D01*
X135257759Y-105667437D01*
X135191890Y-106194809D01*
X134878777Y-106832951D01*
X134493703Y-107170624D01*
X133859592Y-107628063D01*
X133535662Y-108102122D01*
X133539944Y-108481581D01*
X133890470Y-108655220D01*
X134259053Y-108617905D01*
X134740917Y-108528458D01*
X134762291Y-108619675D01*
X134526421Y-108818922D01*
X134144129Y-109350505D01*
X134058527Y-109730207D01*
X133851907Y-110225177D01*
X133359779Y-110532568D01*
X132773737Y-110613090D01*
X132285378Y-110427450D01*
X132107165Y-110130390D01*
X132030174Y-109217610D01*
X132149090Y-108207799D01*
X132377675Y-107523227D01*
X132663156Y-106780948D01*
X132927179Y-105774535D01*
X133101706Y-104772556D01*
X133120274Y-104591853D01*
X133393075Y-104131309D01*
X134113597Y-103522277D01*
X134852619Y-103034796D01*
X136539560Y-102003119D01*
X136367725Y-102891754D01*
X136367725Y-102891754D01*
G37*
X136367725Y-102891754D02*
X136073753Y-103633518D01*
X135606006Y-104177978D01*
X135600907Y-104181442D01*
X134931439Y-104697104D01*
X134411452Y-105210337D01*
X134091742Y-105641194D01*
X134023104Y-105909725D01*
X134256336Y-105935981D01*
X134575686Y-105795060D01*
X135089892Y-105557141D01*
X135257759Y-105667437D01*
X135191890Y-106194809D01*
X134878777Y-106832951D01*
X134493703Y-107170624D01*
X133859592Y-107628063D01*
X133535662Y-108102122D01*
X133539944Y-108481581D01*
X133890470Y-108655220D01*
X134259053Y-108617905D01*
X134740917Y-108528458D01*
X134762291Y-108619675D01*
X134526421Y-108818922D01*
X134144129Y-109350505D01*
X134058527Y-109730207D01*
X133851907Y-110225177D01*
X133359779Y-110532568D01*
X132773737Y-110613090D01*
X132285378Y-110427450D01*
X132107165Y-110130390D01*
X132030174Y-109217610D01*
X132149090Y-108207799D01*
X132377675Y-107523227D01*
X132663156Y-106780948D01*
X132927179Y-105774535D01*
X133101706Y-104772556D01*
X133120274Y-104591853D01*
X133393075Y-104131309D01*
X134113597Y-103522277D01*
X134852619Y-103034796D01*
X136539560Y-102003119D01*
X136367725Y-102891754D01*
G36*
X136031144Y-110116866D02*
X136427370Y-110250780D01*
X136464842Y-110315137D01*
X136291558Y-110634368D01*
X135727073Y-110695992D01*
X135395369Y-110656197D01*
X134689712Y-110475217D01*
X134474035Y-110270924D01*
X134754529Y-110111958D01*
X135341895Y-110063548D01*
X136031144Y-110116866D01*
X136031144Y-110116866D01*
G37*
X136031144Y-110116866D02*
X136427370Y-110250780D01*
X136464842Y-110315137D01*
X136291558Y-110634368D01*
X135727073Y-110695992D01*
X135395369Y-110656197D01*
X134689712Y-110475217D01*
X134474035Y-110270924D01*
X134754529Y-110111958D01*
X135341895Y-110063548D01*
X136031144Y-110116866D01*
G36*
X135395369Y-111075990D02*
X135958435Y-111227251D01*
X136197408Y-111427672D01*
X136197474Y-111430736D01*
X135977615Y-111604056D01*
X135488206Y-111664266D01*
X134984504Y-111600844D01*
X134771509Y-111489513D01*
X134599698Y-111165518D01*
X134910568Y-111040306D01*
X135395369Y-111075990D01*
X135395369Y-111075990D01*
G37*
X135395369Y-111075990D02*
X135958435Y-111227251D01*
X136197408Y-111427672D01*
X136197474Y-111430736D01*
X135977615Y-111604056D01*
X135488206Y-111664266D01*
X134984504Y-111600844D01*
X134771509Y-111489513D01*
X134599698Y-111165518D01*
X134910568Y-111040306D01*
X135395369Y-111075990D01*
G36*
X131853391Y-104853785D02*
X131821321Y-105342186D01*
X132030770Y-105425356D01*
X132117117Y-105397094D01*
X132361826Y-105457609D01*
X132378598Y-105819743D01*
X132211329Y-106324628D01*
X131903913Y-106813392D01*
X131663892Y-107037459D01*
X131238071Y-107547559D01*
X131001643Y-108118889D01*
X130818670Y-108845528D01*
X130685707Y-109328284D01*
X130726527Y-109723114D01*
X130965772Y-109796179D01*
X131303418Y-109855924D01*
X131325299Y-110099290D01*
X131019656Y-110622474D01*
X130831899Y-110891221D01*
X130368740Y-111436610D01*
X129902182Y-111606618D01*
X129189486Y-111487081D01*
X129164855Y-111480720D01*
X128847614Y-111264583D01*
X128925739Y-111043840D01*
X129164970Y-110564769D01*
X129388011Y-109847860D01*
X129558611Y-109067733D01*
X129640521Y-108399008D01*
X129597493Y-108016305D01*
X129560726Y-107984982D01*
X129404095Y-107699459D01*
X129488870Y-107181376D01*
X129758715Y-106642348D01*
X129982829Y-106399459D01*
X130257274Y-105898846D01*
X130249835Y-105563928D01*
X130293997Y-105141171D01*
X130738087Y-104766315D01*
X131050945Y-104604317D01*
X131986350Y-104158253D01*
X131853391Y-104853785D01*
X131853391Y-104853785D01*
G37*
X131853391Y-104853785D02*
X131821321Y-105342186D01*
X132030770Y-105425356D01*
X132117117Y-105397094D01*
X132361826Y-105457609D01*
X132378598Y-105819743D01*
X132211329Y-106324628D01*
X131903913Y-106813392D01*
X131663892Y-107037459D01*
X131238071Y-107547559D01*
X131001643Y-108118889D01*
X130818670Y-108845528D01*
X130685707Y-109328284D01*
X130726527Y-109723114D01*
X130965772Y-109796179D01*
X131303418Y-109855924D01*
X131325299Y-110099290D01*
X131019656Y-110622474D01*
X130831899Y-110891221D01*
X130368740Y-111436610D01*
X129902182Y-111606618D01*
X129189486Y-111487081D01*
X129164855Y-111480720D01*
X128847614Y-111264583D01*
X128925739Y-111043840D01*
X129164970Y-110564769D01*
X129388011Y-109847860D01*
X129558611Y-109067733D01*
X129640521Y-108399008D01*
X129597493Y-108016305D01*
X129560726Y-107984982D01*
X129404095Y-107699459D01*
X129488870Y-107181376D01*
X129758715Y-106642348D01*
X129982829Y-106399459D01*
X130257274Y-105898846D01*
X130249835Y-105563928D01*
X130293997Y-105141171D01*
X130738087Y-104766315D01*
X131050945Y-104604317D01*
X131986350Y-104158253D01*
X131853391Y-104853785D01*
G36*
X116873255Y-106610658D02*
X116814653Y-106757077D01*
X116530155Y-106980308D01*
X116213336Y-107289782D01*
X116320949Y-107370809D01*
X116785235Y-107203973D01*
X116974624Y-107107683D01*
X117507687Y-106962829D01*
X118039401Y-107004963D01*
X118384136Y-107191534D01*
X118391181Y-107432406D01*
X118028387Y-107599064D01*
X117718878Y-107571871D01*
X117309463Y-107578943D01*
X117214316Y-107713432D01*
X117436231Y-107873328D01*
X117889118Y-107857942D01*
X118505968Y-107843295D01*
X118697889Y-108037595D01*
X118421576Y-108330884D01*
X118129113Y-108467318D01*
X117662916Y-108704519D01*
X117555389Y-108889533D01*
X117874784Y-108894131D01*
X118260891Y-108738961D01*
X118708557Y-108569370D01*
X118795760Y-108691068D01*
X118549736Y-109027059D01*
X117997722Y-109500349D01*
X117989363Y-109506539D01*
X117180596Y-109942356D01*
X116397959Y-109966998D01*
X116374255Y-109962377D01*
X115809260Y-109944103D01*
X115170961Y-110156978D01*
X114310182Y-110655706D01*
X114089898Y-110800078D01*
X113209294Y-111343162D01*
X112464247Y-111658867D01*
X111621406Y-111820885D01*
X110625006Y-111894270D01*
X109677703Y-111921921D01*
X108980472Y-111903802D01*
X108664836Y-111844116D01*
X108658527Y-111831432D01*
X108877455Y-111628377D01*
X109415561Y-111339573D01*
X109527474Y-111289283D01*
X110396421Y-110909273D01*
X109460632Y-110883812D01*
X108621541Y-110817621D01*
X107910884Y-110693918D01*
X107906818Y-110692834D01*
X107572900Y-110572125D01*
X107605172Y-110427808D01*
X108057036Y-110185505D01*
X108374713Y-110041136D01*
X109028440Y-109721221D01*
X109415395Y-109479237D01*
X109460632Y-109420710D01*
X109239149Y-109244338D01*
X108675921Y-108946837D01*
X108291978Y-108769514D01*
X107557208Y-108398534D01*
X107039897Y-108053374D01*
X106925708Y-107932813D01*
X106996742Y-107832859D01*
X107424351Y-107979511D01*
X107626467Y-108078678D01*
X108187821Y-108301178D01*
X108914033Y-108440041D01*
X109924999Y-108509108D01*
X111340618Y-108522223D01*
X111460958Y-108521380D01*
X112759510Y-108503685D01*
X113632603Y-108460993D01*
X114189500Y-108372661D01*
X114539460Y-108218046D01*
X114791745Y-107976504D01*
X114869812Y-107877323D01*
X115436375Y-107156953D01*
X115818688Y-106769839D01*
X116143397Y-106614164D01*
X116473854Y-106587758D01*
X116873255Y-106610658D01*
X116873255Y-106610658D01*
G37*
X116873255Y-106610658D02*
X116814653Y-106757077D01*
X116530155Y-106980308D01*
X116213336Y-107289782D01*
X116320949Y-107370809D01*
X116785235Y-107203973D01*
X116974624Y-107107683D01*
X117507687Y-106962829D01*
X118039401Y-107004963D01*
X118384136Y-107191534D01*
X118391181Y-107432406D01*
X118028387Y-107599064D01*
X117718878Y-107571871D01*
X117309463Y-107578943D01*
X117214316Y-107713432D01*
X117436231Y-107873328D01*
X117889118Y-107857942D01*
X118505968Y-107843295D01*
X118697889Y-108037595D01*
X118421576Y-108330884D01*
X118129113Y-108467318D01*
X117662916Y-108704519D01*
X117555389Y-108889533D01*
X117874784Y-108894131D01*
X118260891Y-108738961D01*
X118708557Y-108569370D01*
X118795760Y-108691068D01*
X118549736Y-109027059D01*
X117997722Y-109500349D01*
X117989363Y-109506539D01*
X117180596Y-109942356D01*
X116397959Y-109966998D01*
X116374255Y-109962377D01*
X115809260Y-109944103D01*
X115170961Y-110156978D01*
X114310182Y-110655706D01*
X114089898Y-110800078D01*
X113209294Y-111343162D01*
X112464247Y-111658867D01*
X111621406Y-111820885D01*
X110625006Y-111894270D01*
X109677703Y-111921921D01*
X108980472Y-111903802D01*
X108664836Y-111844116D01*
X108658527Y-111831432D01*
X108877455Y-111628377D01*
X109415561Y-111339573D01*
X109527474Y-111289283D01*
X110396421Y-110909273D01*
X109460632Y-110883812D01*
X108621541Y-110817621D01*
X107910884Y-110693918D01*
X107906818Y-110692834D01*
X107572900Y-110572125D01*
X107605172Y-110427808D01*
X108057036Y-110185505D01*
X108374713Y-110041136D01*
X109028440Y-109721221D01*
X109415395Y-109479237D01*
X109460632Y-109420710D01*
X109239149Y-109244338D01*
X108675921Y-108946837D01*
X108291978Y-108769514D01*
X107557208Y-108398534D01*
X107039897Y-108053374D01*
X106925708Y-107932813D01*
X106996742Y-107832859D01*
X107424351Y-107979511D01*
X107626467Y-108078678D01*
X108187821Y-108301178D01*
X108914033Y-108440041D01*
X109924999Y-108509108D01*
X111340618Y-108522223D01*
X111460958Y-108521380D01*
X112759510Y-108503685D01*
X113632603Y-108460993D01*
X114189500Y-108372661D01*
X114539460Y-108218046D01*
X114791745Y-107976504D01*
X114869812Y-107877323D01*
X115436375Y-107156953D01*
X115818688Y-106769839D01*
X116143397Y-106614164D01*
X116473854Y-106587758D01*
X116873255Y-106610658D01*
G36*
X129210544Y-106463285D02*
X129194345Y-106751260D01*
X129063097Y-107426376D01*
X128849162Y-108361758D01*
X128584900Y-109430529D01*
X128302674Y-110505813D01*
X128034844Y-111460734D01*
X127813771Y-112168417D01*
X127671817Y-112501985D01*
X127669714Y-112504276D01*
X127279269Y-112688595D01*
X126637696Y-112826461D01*
X125967900Y-112889541D01*
X125492789Y-112849502D01*
X125403137Y-112792381D01*
X125327738Y-112332196D01*
X125392226Y-111619304D01*
X125429918Y-111470497D01*
X126605968Y-111470497D01*
X126686526Y-111615522D01*
X126876527Y-111370508D01*
X127136515Y-110790668D01*
X127427033Y-109931215D01*
X127478399Y-109755029D01*
X127743763Y-108805347D01*
X127870028Y-108258242D01*
X127867701Y-108002911D01*
X127747291Y-107928549D01*
X127651990Y-107924600D01*
X127416029Y-108178337D01*
X127142823Y-108891965D01*
X126855981Y-109994114D01*
X126674310Y-110880219D01*
X126605968Y-111470497D01*
X125429918Y-111470497D01*
X125571943Y-110909790D01*
X125588676Y-110865653D01*
X125743568Y-110399678D01*
X125980605Y-109613485D01*
X126176302Y-108932174D01*
X126458533Y-108074819D01*
X126744855Y-107435118D01*
X126923957Y-107196444D01*
X127437712Y-106941512D01*
X128114729Y-106689011D01*
X128756400Y-106502621D01*
X129164115Y-106446022D01*
X129210544Y-106463285D01*
X129210544Y-106463285D01*
G37*
X129210544Y-106463285D02*
X129194345Y-106751260D01*
X129063097Y-107426376D01*
X128849162Y-108361758D01*
X128584900Y-109430529D01*
X128302674Y-110505813D01*
X128034844Y-111460734D01*
X127813771Y-112168417D01*
X127671817Y-112501985D01*
X127669714Y-112504276D01*
X127279269Y-112688595D01*
X126637696Y-112826461D01*
X125967900Y-112889541D01*
X125492789Y-112849502D01*
X125403137Y-112792381D01*
X125327738Y-112332196D01*
X125392226Y-111619304D01*
X125429918Y-111470497D01*
X126605968Y-111470497D01*
X126686526Y-111615522D01*
X126876527Y-111370508D01*
X127136515Y-110790668D01*
X127427033Y-109931215D01*
X127478399Y-109755029D01*
X127743763Y-108805347D01*
X127870028Y-108258242D01*
X127867701Y-108002911D01*
X127747291Y-107928549D01*
X127651990Y-107924600D01*
X127416029Y-108178337D01*
X127142823Y-108891965D01*
X126855981Y-109994114D01*
X126674310Y-110880219D01*
X126605968Y-111470497D01*
X125429918Y-111470497D01*
X125571943Y-110909790D01*
X125588676Y-110865653D01*
X125743568Y-110399678D01*
X125980605Y-109613485D01*
X126176302Y-108932174D01*
X126458533Y-108074819D01*
X126744855Y-107435118D01*
X126923957Y-107196444D01*
X127437712Y-106941512D01*
X128114729Y-106689011D01*
X128756400Y-106502621D01*
X129164115Y-106446022D01*
X129210544Y-106463285D01*
G36*
X125443303Y-107630775D02*
X125359345Y-107955187D01*
X125301781Y-108354632D01*
X125474093Y-108343356D01*
X125726034Y-108331681D01*
X125775589Y-108631380D01*
X125651875Y-109071799D01*
X125384006Y-109482286D01*
X125261898Y-109587083D01*
X124872424Y-110049725D01*
X124546914Y-110751154D01*
X124336606Y-111511331D01*
X124292738Y-112150219D01*
X124440245Y-112474178D01*
X124621381Y-112761179D01*
X124451461Y-113237966D01*
X124018593Y-113668129D01*
X123474357Y-113794888D01*
X123030430Y-113591444D01*
X122935067Y-113429958D01*
X122908509Y-112940987D01*
X123026390Y-112210684D01*
X123069549Y-112042564D01*
X123218966Y-111140038D01*
X123172019Y-110374504D01*
X122950336Y-109890497D01*
X122733226Y-109795180D01*
X122734342Y-109677561D01*
X123107490Y-109384792D01*
X123296948Y-109264373D01*
X123861585Y-108832693D01*
X124154445Y-108438069D01*
X124165895Y-108372499D01*
X124384842Y-108008358D01*
X124853253Y-107697252D01*
X125329111Y-107512711D01*
X125443303Y-107630775D01*
X125443303Y-107630775D01*
G37*
X125443303Y-107630775D02*
X125359345Y-107955187D01*
X125301781Y-108354632D01*
X125474093Y-108343356D01*
X125726034Y-108331681D01*
X125775589Y-108631380D01*
X125651875Y-109071799D01*
X125384006Y-109482286D01*
X125261898Y-109587083D01*
X124872424Y-110049725D01*
X124546914Y-110751154D01*
X124336606Y-111511331D01*
X124292738Y-112150219D01*
X124440245Y-112474178D01*
X124621381Y-112761179D01*
X124451461Y-113237966D01*
X124018593Y-113668129D01*
X123474357Y-113794888D01*
X123030430Y-113591444D01*
X122935067Y-113429958D01*
X122908509Y-112940987D01*
X123026390Y-112210684D01*
X123069549Y-112042564D01*
X123218966Y-111140038D01*
X123172019Y-110374504D01*
X122950336Y-109890497D01*
X122733226Y-109795180D01*
X122734342Y-109677561D01*
X123107490Y-109384792D01*
X123296948Y-109264373D01*
X123861585Y-108832693D01*
X124154445Y-108438069D01*
X124165895Y-108372499D01*
X124384842Y-108008358D01*
X124853253Y-107697252D01*
X125329111Y-107512711D01*
X125443303Y-107630775D01*
G36*
X134252704Y-111565675D02*
X134247913Y-111734600D01*
X133954646Y-112002398D01*
X133829428Y-112003585D01*
X133643001Y-112206216D01*
X133563336Y-112885191D01*
X133563512Y-113271012D01*
X133489554Y-114252633D01*
X133253501Y-114983713D01*
X132906944Y-115377674D01*
X132501474Y-115347934D01*
X132383615Y-115251092D01*
X132311775Y-114879756D01*
X132550118Y-114491057D01*
X132896089Y-114341442D01*
X133141317Y-114207695D01*
X133158545Y-113731009D01*
X133110378Y-113433806D01*
X133088548Y-112554984D01*
X133322801Y-111839769D01*
X133750394Y-111438940D01*
X133956530Y-111400390D01*
X134252704Y-111565675D01*
X134252704Y-111565675D01*
G37*
X134252704Y-111565675D02*
X134247913Y-111734600D01*
X133954646Y-112002398D01*
X133829428Y-112003585D01*
X133643001Y-112206216D01*
X133563336Y-112885191D01*
X133563512Y-113271012D01*
X133489554Y-114252633D01*
X133253501Y-114983713D01*
X132906944Y-115377674D01*
X132501474Y-115347934D01*
X132383615Y-115251092D01*
X132311775Y-114879756D01*
X132550118Y-114491057D01*
X132896089Y-114341442D01*
X133141317Y-114207695D01*
X133158545Y-113731009D01*
X133110378Y-113433806D01*
X133088548Y-112554984D01*
X133322801Y-111839769D01*
X133750394Y-111438940D01*
X133956530Y-111400390D01*
X134252704Y-111565675D01*
G36*
X132721684Y-111921237D02*
X132514586Y-112218966D01*
X132442793Y-112250897D01*
X132198972Y-112557919D01*
X132076477Y-113008441D01*
X131901321Y-113797839D01*
X131719464Y-114341442D01*
X131596049Y-114864643D01*
X131686394Y-115099541D01*
X131825525Y-115312335D01*
X131614060Y-115562280D01*
X131206773Y-115678284D01*
X130912436Y-115513234D01*
X130918901Y-115344074D01*
X131058369Y-114917174D01*
X131287120Y-114163283D01*
X131481290Y-113501466D01*
X131781651Y-112660885D01*
X132106453Y-112049318D01*
X132319679Y-111838805D01*
X132665072Y-111822224D01*
X132721684Y-111921237D01*
X132721684Y-111921237D01*
G37*
X132721684Y-111921237D02*
X132514586Y-112218966D01*
X132442793Y-112250897D01*
X132198972Y-112557919D01*
X132076477Y-113008441D01*
X131901321Y-113797839D01*
X131719464Y-114341442D01*
X131596049Y-114864643D01*
X131686394Y-115099541D01*
X131825525Y-115312335D01*
X131614060Y-115562280D01*
X131206773Y-115678284D01*
X130912436Y-115513234D01*
X130918901Y-115344074D01*
X131058369Y-114917174D01*
X131287120Y-114163283D01*
X131481290Y-113501466D01*
X131781651Y-112660885D01*
X132106453Y-112049318D01*
X132319679Y-111838805D01*
X132665072Y-111822224D01*
X132721684Y-111921237D01*
G36*
X118760107Y-110718111D02*
X118729483Y-111001319D01*
X118559023Y-111671269D01*
X118280723Y-112608328D01*
X118118644Y-113116592D01*
X117694135Y-114319595D01*
X117337835Y-115079073D01*
X117007637Y-115474735D01*
X116825187Y-115565228D01*
X116147261Y-115756457D01*
X115833133Y-115844059D01*
X115362489Y-115810136D01*
X115212544Y-115683933D01*
X115174837Y-115262941D01*
X115268006Y-114790124D01*
X116144842Y-114790124D01*
X116348995Y-114875109D01*
X116387078Y-114876179D01*
X116605236Y-114645806D01*
X116892982Y-114058211D01*
X117055499Y-113625393D01*
X117345007Y-112668198D01*
X117470703Y-112009417D01*
X117424896Y-111720696D01*
X117249853Y-111814811D01*
X117069692Y-112157952D01*
X116797595Y-112816918D01*
X116505330Y-113598470D01*
X116264665Y-114309371D01*
X116147367Y-114756383D01*
X116144842Y-114790124D01*
X115268006Y-114790124D01*
X115307322Y-114590607D01*
X115349726Y-114453950D01*
X115571346Y-113744232D01*
X115708460Y-113234987D01*
X115717536Y-113189178D01*
X116118622Y-112151595D01*
X116847667Y-111318727D01*
X117667605Y-110885349D01*
X118325997Y-110735109D01*
X118724150Y-110703441D01*
X118760107Y-110718111D01*
X118760107Y-110718111D01*
G37*
X118760107Y-110718111D02*
X118729483Y-111001319D01*
X118559023Y-111671269D01*
X118280723Y-112608328D01*
X118118644Y-113116592D01*
X117694135Y-114319595D01*
X117337835Y-115079073D01*
X117007637Y-115474735D01*
X116825187Y-115565228D01*
X116147261Y-115756457D01*
X115833133Y-115844059D01*
X115362489Y-115810136D01*
X115212544Y-115683933D01*
X115174837Y-115262941D01*
X115268006Y-114790124D01*
X116144842Y-114790124D01*
X116348995Y-114875109D01*
X116387078Y-114876179D01*
X116605236Y-114645806D01*
X116892982Y-114058211D01*
X117055499Y-113625393D01*
X117345007Y-112668198D01*
X117470703Y-112009417D01*
X117424896Y-111720696D01*
X117249853Y-111814811D01*
X117069692Y-112157952D01*
X116797595Y-112816918D01*
X116505330Y-113598470D01*
X116264665Y-114309371D01*
X116147367Y-114756383D01*
X116144842Y-114790124D01*
X115268006Y-114790124D01*
X115307322Y-114590607D01*
X115349726Y-114453950D01*
X115571346Y-113744232D01*
X115708460Y-113234987D01*
X115717536Y-113189178D01*
X116118622Y-112151595D01*
X116847667Y-111318727D01*
X117667605Y-110885349D01*
X118325997Y-110735109D01*
X118724150Y-110703441D01*
X118760107Y-110718111D01*
G36*
X131309268Y-112469863D02*
X131173555Y-112929625D01*
X130942452Y-113715443D01*
X130719420Y-114475127D01*
X130450456Y-115322162D01*
X130261217Y-115709312D01*
X130112311Y-115697991D01*
X130033507Y-115544600D01*
X129867470Y-115210637D01*
X129804657Y-115368057D01*
X129799424Y-115461979D01*
X129684161Y-115836513D01*
X129464257Y-116118732D01*
X129282189Y-116161833D01*
X129249833Y-116028274D01*
X129326395Y-115674140D01*
X129520827Y-114977503D01*
X129730953Y-114283655D01*
X130070674Y-113289107D01*
X130342764Y-112674574D01*
X130521853Y-112485924D01*
X130582737Y-112743772D01*
X130699225Y-112880477D01*
X131005616Y-112587808D01*
X131287782Y-112309085D01*
X131309268Y-112469863D01*
X131309268Y-112469863D01*
G37*
X131309268Y-112469863D02*
X131173555Y-112929625D01*
X130942452Y-113715443D01*
X130719420Y-114475127D01*
X130450456Y-115322162D01*
X130261217Y-115709312D01*
X130112311Y-115697991D01*
X130033507Y-115544600D01*
X129867470Y-115210637D01*
X129804657Y-115368057D01*
X129799424Y-115461979D01*
X129684161Y-115836513D01*
X129464257Y-116118732D01*
X129282189Y-116161833D01*
X129249833Y-116028274D01*
X129326395Y-115674140D01*
X129520827Y-114977503D01*
X129730953Y-114283655D01*
X130070674Y-113289107D01*
X130342764Y-112674574D01*
X130521853Y-112485924D01*
X130582737Y-112743772D01*
X130699225Y-112880477D01*
X131005616Y-112587808D01*
X131287782Y-112309085D01*
X131309268Y-112469863D01*
G36*
X129428004Y-113097587D02*
X129455651Y-113430232D01*
X129345459Y-114081060D01*
X129145011Y-114866695D01*
X128901891Y-115603760D01*
X128663683Y-116108881D01*
X128636932Y-116146179D01*
X128238762Y-116444037D01*
X127867949Y-116453237D01*
X127716531Y-116195746D01*
X127751582Y-116044913D01*
X127826046Y-115811969D01*
X128176421Y-115811969D01*
X128310106Y-115945653D01*
X128443790Y-115811969D01*
X128310106Y-115678284D01*
X128176421Y-115811969D01*
X127826046Y-115811969D01*
X127917595Y-115525582D01*
X128060739Y-115009863D01*
X128443790Y-115009863D01*
X128577474Y-115143548D01*
X128711158Y-115009863D01*
X128577474Y-114876179D01*
X128443790Y-115009863D01*
X128060739Y-115009863D01*
X128136094Y-114738379D01*
X128218714Y-114417931D01*
X128345596Y-114074074D01*
X128711158Y-114074074D01*
X128808984Y-114294148D01*
X128889404Y-114252320D01*
X128921403Y-113935016D01*
X128889404Y-113895828D01*
X128730454Y-113932530D01*
X128711158Y-114074074D01*
X128345596Y-114074074D01*
X128528780Y-113577637D01*
X128914553Y-113082625D01*
X129305063Y-113010383D01*
X129428004Y-113097587D01*
X129428004Y-113097587D01*
G37*
X129428004Y-113097587D02*
X129455651Y-113430232D01*
X129345459Y-114081060D01*
X129145011Y-114866695D01*
X128901891Y-115603760D01*
X128663683Y-116108881D01*
X128636932Y-116146179D01*
X128238762Y-116444037D01*
X127867949Y-116453237D01*
X127716531Y-116195746D01*
X127751582Y-116044913D01*
X127826046Y-115811969D01*
X128176421Y-115811969D01*
X128310106Y-115945653D01*
X128443790Y-115811969D01*
X128310106Y-115678284D01*
X128176421Y-115811969D01*
X127826046Y-115811969D01*
X127917595Y-115525582D01*
X128060739Y-115009863D01*
X128443790Y-115009863D01*
X128577474Y-115143548D01*
X128711158Y-115009863D01*
X128577474Y-114876179D01*
X128443790Y-115009863D01*
X128060739Y-115009863D01*
X128136094Y-114738379D01*
X128218714Y-114417931D01*
X128345596Y-114074074D01*
X128711158Y-114074074D01*
X128808984Y-114294148D01*
X128889404Y-114252320D01*
X128921403Y-113935016D01*
X128889404Y-113895828D01*
X128730454Y-113932530D01*
X128711158Y-114074074D01*
X128345596Y-114074074D01*
X128528780Y-113577637D01*
X128914553Y-113082625D01*
X129305063Y-113010383D01*
X129428004Y-113097587D01*
G36*
X127580818Y-113676932D02*
X127524350Y-114168105D01*
X127487454Y-114341442D01*
X127328334Y-115187666D01*
X127236457Y-115931554D01*
X127235552Y-115945653D01*
X127055701Y-116485311D01*
X126774471Y-116695717D01*
X126548881Y-116692640D01*
X126488848Y-116487253D01*
X126593246Y-115965482D01*
X126761274Y-115358875D01*
X127038329Y-114509987D01*
X127295485Y-113907170D01*
X127490423Y-113609719D01*
X127580818Y-113676932D01*
X127580818Y-113676932D01*
G37*
X127580818Y-113676932D02*
X127524350Y-114168105D01*
X127487454Y-114341442D01*
X127328334Y-115187666D01*
X127236457Y-115931554D01*
X127235552Y-115945653D01*
X127055701Y-116485311D01*
X126774471Y-116695717D01*
X126548881Y-116692640D01*
X126488848Y-116487253D01*
X126593246Y-115965482D01*
X126761274Y-115358875D01*
X127038329Y-114509987D01*
X127295485Y-113907170D01*
X127490423Y-113609719D01*
X127580818Y-113676932D01*
G36*
X115588696Y-111888609D02*
X115476023Y-112458528D01*
X115226878Y-113253834D01*
X114889909Y-114146756D01*
X114513760Y-115009520D01*
X114147077Y-115714352D01*
X113838507Y-116133480D01*
X113808247Y-116158102D01*
X113175403Y-116378517D01*
X112752281Y-116357647D01*
X112226194Y-116345977D01*
X112001238Y-116479408D01*
X111588210Y-116724971D01*
X111037896Y-116684706D01*
X110645294Y-116387542D01*
X110625962Y-116344540D01*
X110631274Y-115850223D01*
X110845221Y-115159105D01*
X110898248Y-115041453D01*
X111215038Y-114261202D01*
X111411232Y-113573590D01*
X111418862Y-113528265D01*
X111724537Y-112953276D01*
X112090757Y-112701020D01*
X112478611Y-112598686D01*
X112633114Y-112726034D01*
X112565553Y-113170501D01*
X112287216Y-114019524D01*
X112268000Y-114074074D01*
X112027551Y-114829411D01*
X111895387Y-115389787D01*
X111885834Y-115511373D01*
X111980586Y-115496096D01*
X112197023Y-115118832D01*
X112473471Y-114519911D01*
X112748253Y-113839665D01*
X112959693Y-113218421D01*
X113037366Y-112891298D01*
X113350018Y-112390117D01*
X113700389Y-112250300D01*
X114280004Y-112164420D01*
X113715784Y-113672433D01*
X113439131Y-114492635D01*
X113291727Y-115096428D01*
X113295698Y-115324579D01*
X113469731Y-115196652D01*
X113743618Y-114703686D01*
X114052531Y-113989388D01*
X114331640Y-113197465D01*
X114455881Y-112752834D01*
X114825221Y-111978066D01*
X115434969Y-111675864D01*
X115516253Y-111671852D01*
X115588696Y-111888609D01*
X115588696Y-111888609D01*
G37*
X115588696Y-111888609D02*
X115476023Y-112458528D01*
X115226878Y-113253834D01*
X114889909Y-114146756D01*
X114513760Y-115009520D01*
X114147077Y-115714352D01*
X113838507Y-116133480D01*
X113808247Y-116158102D01*
X113175403Y-116378517D01*
X112752281Y-116357647D01*
X112226194Y-116345977D01*
X112001238Y-116479408D01*
X111588210Y-116724971D01*
X111037896Y-116684706D01*
X110645294Y-116387542D01*
X110625962Y-116344540D01*
X110631274Y-115850223D01*
X110845221Y-115159105D01*
X110898248Y-115041453D01*
X111215038Y-114261202D01*
X111411232Y-113573590D01*
X111418862Y-113528265D01*
X111724537Y-112953276D01*
X112090757Y-112701020D01*
X112478611Y-112598686D01*
X112633114Y-112726034D01*
X112565553Y-113170501D01*
X112287216Y-114019524D01*
X112268000Y-114074074D01*
X112027551Y-114829411D01*
X111895387Y-115389787D01*
X111885834Y-115511373D01*
X111980586Y-115496096D01*
X112197023Y-115118832D01*
X112473471Y-114519911D01*
X112748253Y-113839665D01*
X112959693Y-113218421D01*
X113037366Y-112891298D01*
X113350018Y-112390117D01*
X113700389Y-112250300D01*
X114280004Y-112164420D01*
X113715784Y-113672433D01*
X113439131Y-114492635D01*
X113291727Y-115096428D01*
X113295698Y-115324579D01*
X113469731Y-115196652D01*
X113743618Y-114703686D01*
X114052531Y-113989388D01*
X114331640Y-113197465D01*
X114455881Y-112752834D01*
X114825221Y-111978066D01*
X115434969Y-111675864D01*
X115516253Y-111671852D01*
X115588696Y-111888609D01*
G36*
X126565329Y-114089555D02*
X126572211Y-114207758D01*
X126373077Y-114562560D01*
X126200143Y-114608811D01*
X125863481Y-114833708D01*
X125646104Y-115344549D01*
X125610571Y-115895558D01*
X125788855Y-116224609D01*
X125965817Y-116547041D01*
X125767605Y-116878999D01*
X125353274Y-117015127D01*
X125033038Y-116794566D01*
X124968000Y-116520287D01*
X125067001Y-115842863D01*
X125310174Y-115048454D01*
X125616780Y-114359005D01*
X125880743Y-114011326D01*
X126360913Y-113823611D01*
X126565329Y-114089555D01*
X126565329Y-114089555D01*
G37*
X126565329Y-114089555D02*
X126572211Y-114207758D01*
X126373077Y-114562560D01*
X126200143Y-114608811D01*
X125863481Y-114833708D01*
X125646104Y-115344549D01*
X125610571Y-115895558D01*
X125788855Y-116224609D01*
X125965817Y-116547041D01*
X125767605Y-116878999D01*
X125353274Y-117015127D01*
X125033038Y-116794566D01*
X124968000Y-116520287D01*
X125067001Y-115842863D01*
X125310174Y-115048454D01*
X125616780Y-114359005D01*
X125880743Y-114011326D01*
X126360913Y-113823611D01*
X126565329Y-114089555D01*
G36*
X124956293Y-114547981D02*
X124777372Y-115067283D01*
X124475757Y-115748873D01*
X124123662Y-116442278D01*
X123793302Y-116997024D01*
X123556894Y-117262638D01*
X123535711Y-117268168D01*
X123427211Y-117080191D01*
X123491615Y-116814600D01*
X123667862Y-116218510D01*
X123821711Y-115483067D01*
X123975375Y-114937103D01*
X124159474Y-114743236D01*
X124181542Y-114752165D01*
X124493645Y-114698202D01*
X124564252Y-114613172D01*
X124872219Y-114353320D01*
X124940303Y-114341442D01*
X124956293Y-114547981D01*
X124956293Y-114547981D01*
G37*
X124956293Y-114547981D02*
X124777372Y-115067283D01*
X124475757Y-115748873D01*
X124123662Y-116442278D01*
X123793302Y-116997024D01*
X123556894Y-117262638D01*
X123535711Y-117268168D01*
X123427211Y-117080191D01*
X123491615Y-116814600D01*
X123667862Y-116218510D01*
X123821711Y-115483067D01*
X123975375Y-114937103D01*
X124159474Y-114743236D01*
X124181542Y-114752165D01*
X124493645Y-114698202D01*
X124564252Y-114613172D01*
X124872219Y-114353320D01*
X124940303Y-114341442D01*
X124956293Y-114547981D01*
G36*
X110782812Y-113396591D02*
X110855944Y-113724301D01*
X110717280Y-114359154D01*
X110427757Y-115148335D01*
X110048312Y-115939030D01*
X109639880Y-116578425D01*
X109419840Y-116814600D01*
X108843855Y-117140188D01*
X108226780Y-117271166D01*
X107750753Y-117194203D01*
X107593078Y-116948284D01*
X107701188Y-116409321D01*
X107724609Y-116338118D01*
X108658527Y-116338118D01*
X108750192Y-116506841D01*
X108983346Y-116255355D01*
X109295222Y-115657643D01*
X109356253Y-115515702D01*
X109579260Y-114868008D01*
X109634315Y-114452859D01*
X109613488Y-114405176D01*
X109449977Y-114542029D01*
X109183389Y-114993621D01*
X108904452Y-115576312D01*
X108703893Y-116106461D01*
X108658527Y-116338118D01*
X107724609Y-116338118D01*
X107965476Y-115605863D01*
X108307976Y-114754163D01*
X108597408Y-114162648D01*
X109064454Y-113716475D01*
X109764043Y-113403071D01*
X110456140Y-113306577D01*
X110782812Y-113396591D01*
X110782812Y-113396591D01*
G37*
X110782812Y-113396591D02*
X110855944Y-113724301D01*
X110717280Y-114359154D01*
X110427757Y-115148335D01*
X110048312Y-115939030D01*
X109639880Y-116578425D01*
X109419840Y-116814600D01*
X108843855Y-117140188D01*
X108226780Y-117271166D01*
X107750753Y-117194203D01*
X107593078Y-116948284D01*
X107701188Y-116409321D01*
X107724609Y-116338118D01*
X108658527Y-116338118D01*
X108750192Y-116506841D01*
X108983346Y-116255355D01*
X109295222Y-115657643D01*
X109356253Y-115515702D01*
X109579260Y-114868008D01*
X109634315Y-114452859D01*
X109613488Y-114405176D01*
X109449977Y-114542029D01*
X109183389Y-114993621D01*
X108904452Y-115576312D01*
X108703893Y-116106461D01*
X108658527Y-116338118D01*
X107724609Y-116338118D01*
X107965476Y-115605863D01*
X108307976Y-114754163D01*
X108597408Y-114162648D01*
X109064454Y-113716475D01*
X109764043Y-113403071D01*
X110456140Y-113306577D01*
X110782812Y-113396591D01*
G36*
X123309518Y-114747229D02*
X123335216Y-114772806D01*
X123286630Y-114999239D01*
X123145985Y-115074508D01*
X122751003Y-115416460D01*
X122498687Y-115974965D01*
X122459082Y-116522042D01*
X122618165Y-116792417D01*
X122811016Y-117032963D01*
X122561684Y-117278401D01*
X122007666Y-117530814D01*
X121769320Y-117355520D01*
X121759579Y-117246673D01*
X121871686Y-116439100D01*
X122157896Y-115667357D01*
X122543047Y-115049456D01*
X122951976Y-114703410D01*
X123309518Y-114747229D01*
X123309518Y-114747229D01*
G37*
X123309518Y-114747229D02*
X123335216Y-114772806D01*
X123286630Y-114999239D01*
X123145985Y-115074508D01*
X122751003Y-115416460D01*
X122498687Y-115974965D01*
X122459082Y-116522042D01*
X122618165Y-116792417D01*
X122811016Y-117032963D01*
X122561684Y-117278401D01*
X122007666Y-117530814D01*
X121769320Y-117355520D01*
X121759579Y-117246673D01*
X121871686Y-116439100D01*
X122157896Y-115667357D01*
X122543047Y-115049456D01*
X122951976Y-114703410D01*
X123309518Y-114747229D01*
G36*
X124019832Y-106931898D02*
X123822143Y-107702497D01*
X123551034Y-108144636D01*
X123045427Y-108457358D01*
X122644384Y-108631555D01*
X121747886Y-109267647D01*
X121328820Y-109959721D01*
X121110249Y-110555489D01*
X121120002Y-110974002D01*
X121408063Y-111431473D01*
X121765639Y-111849193D01*
X122232488Y-112475885D01*
X122466191Y-112982764D01*
X122466900Y-113133324D01*
X122330195Y-113544361D01*
X122092111Y-114309004D01*
X121802206Y-115267867D01*
X121778970Y-115345806D01*
X121460617Y-116304876D01*
X121146850Y-117069180D01*
X120901850Y-117483853D01*
X120887437Y-117497040D01*
X120488304Y-117642419D01*
X119658244Y-117816419D01*
X118486299Y-118009238D01*
X117061506Y-118211075D01*
X115472907Y-118412128D01*
X113809540Y-118602596D01*
X112160446Y-118772677D01*
X110614664Y-118912570D01*
X109261234Y-119012473D01*
X108189195Y-119062583D01*
X107487588Y-119053101D01*
X107254503Y-118997769D01*
X107073902Y-118600002D01*
X107057796Y-118094236D01*
X107184071Y-117701117D01*
X107392346Y-117622367D01*
X107839705Y-117648857D01*
X108713003Y-117584290D01*
X109914307Y-117444862D01*
X111345685Y-117246769D01*
X112909205Y-117006207D01*
X114506935Y-116739373D01*
X116040942Y-116462461D01*
X117413295Y-116191669D01*
X118526061Y-115943192D01*
X119281308Y-115733227D01*
X119553790Y-115611104D01*
X119860653Y-115162538D01*
X119787021Y-114754541D01*
X119420106Y-114587703D01*
X119262163Y-114510265D01*
X119606155Y-114328555D01*
X119687474Y-114298054D01*
X120269640Y-113919076D01*
X120422737Y-113383372D01*
X120344203Y-112891433D01*
X120200548Y-112737232D01*
X119924472Y-112527533D01*
X119634475Y-112094676D01*
X119448365Y-111590220D01*
X119449828Y-110988428D01*
X119639828Y-110089490D01*
X119644227Y-110072300D01*
X119832831Y-109156095D01*
X119812321Y-108648873D01*
X119704625Y-108509066D01*
X119803274Y-108328217D01*
X120302971Y-107986521D01*
X121115500Y-107538920D01*
X121807703Y-107199267D01*
X124204021Y-106072881D01*
X124019832Y-106931898D01*
X124019832Y-106931898D01*
G37*
X124019832Y-106931898D02*
X123822143Y-107702497D01*
X123551034Y-108144636D01*
X123045427Y-108457358D01*
X122644384Y-108631555D01*
X121747886Y-109267647D01*
X121328820Y-109959721D01*
X121110249Y-110555489D01*
X121120002Y-110974002D01*
X121408063Y-111431473D01*
X121765639Y-111849193D01*
X122232488Y-112475885D01*
X122466191Y-112982764D01*
X122466900Y-113133324D01*
X122330195Y-113544361D01*
X122092111Y-114309004D01*
X121802206Y-115267867D01*
X121778970Y-115345806D01*
X121460617Y-116304876D01*
X121146850Y-117069180D01*
X120901850Y-117483853D01*
X120887437Y-117497040D01*
X120488304Y-117642419D01*
X119658244Y-117816419D01*
X118486299Y-118009238D01*
X117061506Y-118211075D01*
X115472907Y-118412128D01*
X113809540Y-118602596D01*
X112160446Y-118772677D01*
X110614664Y-118912570D01*
X109261234Y-119012473D01*
X108189195Y-119062583D01*
X107487588Y-119053101D01*
X107254503Y-118997769D01*
X107073902Y-118600002D01*
X107057796Y-118094236D01*
X107184071Y-117701117D01*
X107392346Y-117622367D01*
X107839705Y-117648857D01*
X108713003Y-117584290D01*
X109914307Y-117444862D01*
X111345685Y-117246769D01*
X112909205Y-117006207D01*
X114506935Y-116739373D01*
X116040942Y-116462461D01*
X117413295Y-116191669D01*
X118526061Y-115943192D01*
X119281308Y-115733227D01*
X119553790Y-115611104D01*
X119860653Y-115162538D01*
X119787021Y-114754541D01*
X119420106Y-114587703D01*
X119262163Y-114510265D01*
X119606155Y-114328555D01*
X119687474Y-114298054D01*
X120269640Y-113919076D01*
X120422737Y-113383372D01*
X120344203Y-112891433D01*
X120200548Y-112737232D01*
X119924472Y-112527533D01*
X119634475Y-112094676D01*
X119448365Y-111590220D01*
X119449828Y-110988428D01*
X119639828Y-110089490D01*
X119644227Y-110072300D01*
X119832831Y-109156095D01*
X119812321Y-108648873D01*
X119704625Y-108509066D01*
X119803274Y-108328217D01*
X120302971Y-107986521D01*
X121115500Y-107538920D01*
X121807703Y-107199267D01*
X124204021Y-106072881D01*
X124019832Y-106931898D01*
G36*
X108566979Y-112574635D02*
X108600770Y-112590352D01*
X108549455Y-112864673D01*
X108330575Y-113528414D01*
X107980772Y-114476784D01*
X107612178Y-115417676D01*
X107165294Y-116576110D01*
X106806761Y-117590347D01*
X106579051Y-118334827D01*
X106519579Y-118647533D01*
X106414906Y-118986085D01*
X106010425Y-119131488D01*
X105489129Y-119154074D01*
X104458679Y-119154074D01*
X105119036Y-117774256D01*
X105494487Y-116895028D01*
X105750016Y-116117844D01*
X105815276Y-115769181D01*
X105906636Y-115286898D01*
X106025529Y-115143736D01*
X106243249Y-114915010D01*
X106463947Y-114375496D01*
X106620763Y-113744565D01*
X106646836Y-113241587D01*
X106627690Y-113168053D01*
X106739985Y-112877580D01*
X107353587Y-112673697D01*
X107493880Y-112649091D01*
X108165158Y-112568823D01*
X108566979Y-112574635D01*
X108566979Y-112574635D01*
G37*
X108566979Y-112574635D02*
X108600770Y-112590352D01*
X108549455Y-112864673D01*
X108330575Y-113528414D01*
X107980772Y-114476784D01*
X107612178Y-115417676D01*
X107165294Y-116576110D01*
X106806761Y-117590347D01*
X106579051Y-118334827D01*
X106519579Y-118647533D01*
X106414906Y-118986085D01*
X106010425Y-119131488D01*
X105489129Y-119154074D01*
X104458679Y-119154074D01*
X105119036Y-117774256D01*
X105494487Y-116895028D01*
X105750016Y-116117844D01*
X105815276Y-115769181D01*
X105906636Y-115286898D01*
X106025529Y-115143736D01*
X106243249Y-114915010D01*
X106463947Y-114375496D01*
X106620763Y-113744565D01*
X106646836Y-113241587D01*
X106627690Y-113168053D01*
X106739985Y-112877580D01*
X107353587Y-112673697D01*
X107493880Y-112649091D01*
X108165158Y-112568823D01*
X108566979Y-112574635D01*
G36*
X124070887Y-118167838D02*
X123960441Y-118370358D01*
X123463231Y-118693819D01*
X122695172Y-119076797D01*
X121772178Y-119457865D01*
X121358527Y-119605163D01*
X120289053Y-119966379D01*
X121759579Y-119826751D01*
X122705728Y-119717720D01*
X123514445Y-119591848D01*
X123831684Y-119523099D01*
X124301906Y-119493851D01*
X124433263Y-119804078D01*
X124213077Y-120346101D01*
X123661186Y-120947108D01*
X122940593Y-121463086D01*
X122235333Y-121745976D01*
X121698285Y-121971801D01*
X121492211Y-122275875D01*
X121251188Y-122646416D01*
X120629132Y-123003682D01*
X119777562Y-123286114D01*
X118847999Y-123432154D01*
X118626588Y-123440099D01*
X118015317Y-123467784D01*
X117874467Y-123560436D01*
X118102631Y-123731591D01*
X118733398Y-123889235D01*
X119260578Y-123846622D01*
X119757519Y-123828167D01*
X119892393Y-124047063D01*
X119709510Y-124393094D01*
X119253180Y-124756048D01*
X118815270Y-124954246D01*
X118306956Y-125158439D01*
X118179147Y-125277629D01*
X118232727Y-125288457D01*
X118454255Y-125451688D01*
X118417474Y-125570916D01*
X118078505Y-125718726D01*
X117381012Y-125815825D01*
X116776917Y-125838284D01*
X115848358Y-125796156D01*
X115229237Y-125618501D01*
X114697479Y-125228415D01*
X114520065Y-125056746D01*
X114025378Y-124469813D01*
X113755411Y-123970094D01*
X113738527Y-123869367D01*
X113877450Y-123420396D01*
X114170228Y-123277181D01*
X114429469Y-123527932D01*
X114794966Y-123901181D01*
X115502496Y-124280045D01*
X116365704Y-124587983D01*
X117198235Y-124748456D01*
X117420253Y-124756305D01*
X117768316Y-124721332D01*
X117712338Y-124608604D01*
X117209944Y-124378852D01*
X116864788Y-124241593D01*
X116043661Y-123888855D01*
X115395452Y-123554399D01*
X115193735Y-123419256D01*
X114825987Y-122980474D01*
X114941571Y-122726146D01*
X115506836Y-122704065D01*
X115676948Y-122732904D01*
X116545895Y-122902787D01*
X115671495Y-122365887D01*
X114932638Y-121781152D01*
X114480151Y-121171290D01*
X114315770Y-120629103D01*
X114441231Y-120247392D01*
X114858272Y-120118961D01*
X115568627Y-120336610D01*
X115634145Y-120369663D01*
X116382487Y-120629348D01*
X117413248Y-120832437D01*
X118271708Y-120918860D01*
X120021684Y-121009067D01*
X118468468Y-120612087D01*
X117576590Y-120338928D01*
X116731954Y-120005920D01*
X116060282Y-119672934D01*
X115687293Y-119399841D01*
X115668603Y-119278728D01*
X115970458Y-119197370D01*
X116686645Y-119070980D01*
X117706261Y-118914221D01*
X118918406Y-118741755D01*
X120212177Y-118568246D01*
X121476672Y-118408355D01*
X122600991Y-118276746D01*
X123474231Y-118188081D01*
X123985491Y-118157022D01*
X124070887Y-118167838D01*
X124070887Y-118167838D01*
G37*
X124070887Y-118167838D02*
X123960441Y-118370358D01*
X123463231Y-118693819D01*
X122695172Y-119076797D01*
X121772178Y-119457865D01*
X121358527Y-119605163D01*
X120289053Y-119966379D01*
X121759579Y-119826751D01*
X122705728Y-119717720D01*
X123514445Y-119591848D01*
X123831684Y-119523099D01*
X124301906Y-119493851D01*
X124433263Y-119804078D01*
X124213077Y-120346101D01*
X123661186Y-120947108D01*
X122940593Y-121463086D01*
X122235333Y-121745976D01*
X121698285Y-121971801D01*
X121492211Y-122275875D01*
X121251188Y-122646416D01*
X120629132Y-123003682D01*
X119777562Y-123286114D01*
X118847999Y-123432154D01*
X118626588Y-123440099D01*
X118015317Y-123467784D01*
X117874467Y-123560436D01*
X118102631Y-123731591D01*
X118733398Y-123889235D01*
X119260578Y-123846622D01*
X119757519Y-123828167D01*
X119892393Y-124047063D01*
X119709510Y-124393094D01*
X119253180Y-124756048D01*
X118815270Y-124954246D01*
X118306956Y-125158439D01*
X118179147Y-125277629D01*
X118232727Y-125288457D01*
X118454255Y-125451688D01*
X118417474Y-125570916D01*
X118078505Y-125718726D01*
X117381012Y-125815825D01*
X116776917Y-125838284D01*
X115848358Y-125796156D01*
X115229237Y-125618501D01*
X114697479Y-125228415D01*
X114520065Y-125056746D01*
X114025378Y-124469813D01*
X113755411Y-123970094D01*
X113738527Y-123869367D01*
X113877450Y-123420396D01*
X114170228Y-123277181D01*
X114429469Y-123527932D01*
X114794966Y-123901181D01*
X115502496Y-124280045D01*
X116365704Y-124587983D01*
X117198235Y-124748456D01*
X117420253Y-124756305D01*
X117768316Y-124721332D01*
X117712338Y-124608604D01*
X117209944Y-124378852D01*
X116864788Y-124241593D01*
X116043661Y-123888855D01*
X115395452Y-123554399D01*
X115193735Y-123419256D01*
X114825987Y-122980474D01*
X114941571Y-122726146D01*
X115506836Y-122704065D01*
X115676948Y-122732904D01*
X116545895Y-122902787D01*
X115671495Y-122365887D01*
X114932638Y-121781152D01*
X114480151Y-121171290D01*
X114315770Y-120629103D01*
X114441231Y-120247392D01*
X114858272Y-120118961D01*
X115568627Y-120336610D01*
X115634145Y-120369663D01*
X116382487Y-120629348D01*
X117413248Y-120832437D01*
X118271708Y-120918860D01*
X120021684Y-121009067D01*
X118468468Y-120612087D01*
X117576590Y-120338928D01*
X116731954Y-120005920D01*
X116060282Y-119672934D01*
X115687293Y-119399841D01*
X115668603Y-119278728D01*
X115970458Y-119197370D01*
X116686645Y-119070980D01*
X117706261Y-118914221D01*
X118918406Y-118741755D01*
X120212177Y-118568246D01*
X121476672Y-118408355D01*
X122600991Y-118276746D01*
X123474231Y-118188081D01*
X123985491Y-118157022D01*
X124070887Y-118167838D01*
G36*
X112892908Y-124502832D02*
X113476135Y-124892832D01*
X113648222Y-125038401D01*
X114361548Y-125572157D01*
X115044086Y-125940310D01*
X115213956Y-125997090D01*
X115791000Y-126214324D01*
X115890158Y-126417187D01*
X115567414Y-126560875D01*
X114878754Y-126600583D01*
X114491537Y-126575253D01*
X113712947Y-126513949D01*
X113388467Y-126541572D01*
X113441924Y-126678216D01*
X113606850Y-126808604D01*
X113886861Y-127083890D01*
X113825686Y-127175127D01*
X113437106Y-127022278D01*
X112877775Y-126651315D01*
X112838794Y-126620984D01*
X112353899Y-126134138D01*
X112135318Y-125706387D01*
X112134316Y-125685195D01*
X112200650Y-125366891D01*
X112481996Y-125358649D01*
X113020841Y-125607203D01*
X113604842Y-125910858D01*
X113000818Y-125253157D01*
X112590010Y-124704636D01*
X112575787Y-124447314D01*
X112892908Y-124502832D01*
X112892908Y-124502832D01*
G37*
X112892908Y-124502832D02*
X113476135Y-124892832D01*
X113648222Y-125038401D01*
X114361548Y-125572157D01*
X115044086Y-125940310D01*
X115213956Y-125997090D01*
X115791000Y-126214324D01*
X115890158Y-126417187D01*
X115567414Y-126560875D01*
X114878754Y-126600583D01*
X114491537Y-126575253D01*
X113712947Y-126513949D01*
X113388467Y-126541572D01*
X113441924Y-126678216D01*
X113606850Y-126808604D01*
X113886861Y-127083890D01*
X113825686Y-127175127D01*
X113437106Y-127022278D01*
X112877775Y-126651315D01*
X112838794Y-126620984D01*
X112353899Y-126134138D01*
X112135318Y-125706387D01*
X112134316Y-125685195D01*
X112200650Y-125366891D01*
X112481996Y-125358649D01*
X113020841Y-125607203D01*
X113604842Y-125910858D01*
X113000818Y-125253157D01*
X112590010Y-124704636D01*
X112575787Y-124447314D01*
X112892908Y-124502832D01*
G36*
X113258621Y-127479743D02*
X114004387Y-127665159D01*
X114332574Y-127858955D01*
X114353962Y-128151839D01*
X114296797Y-128329809D01*
X113899001Y-128899797D01*
X113443260Y-129243290D01*
X113095784Y-129482116D01*
X113199891Y-129581504D01*
X113203790Y-129581595D01*
X113466036Y-129627645D01*
X113250059Y-129813938D01*
X113216555Y-129835263D01*
X112772207Y-129981898D01*
X112614976Y-129949074D01*
X112413509Y-130014952D01*
X112401684Y-130100400D01*
X112235733Y-130363514D01*
X111748314Y-130211005D01*
X111609272Y-130127827D01*
X111361962Y-129815914D01*
X111434175Y-129280266D01*
X111485108Y-129129290D01*
X111792988Y-128582718D01*
X112268389Y-128444433D01*
X112411205Y-128456069D01*
X113070106Y-128533853D01*
X112405679Y-128006460D01*
X111946938Y-127573783D01*
X111945490Y-127352405D01*
X112416837Y-127332753D01*
X113258621Y-127479743D01*
X113258621Y-127479743D01*
G37*
X113258621Y-127479743D02*
X114004387Y-127665159D01*
X114332574Y-127858955D01*
X114353962Y-128151839D01*
X114296797Y-128329809D01*
X113899001Y-128899797D01*
X113443260Y-129243290D01*
X113095784Y-129482116D01*
X113199891Y-129581504D01*
X113203790Y-129581595D01*
X113466036Y-129627645D01*
X113250059Y-129813938D01*
X113216555Y-129835263D01*
X112772207Y-129981898D01*
X112614976Y-129949074D01*
X112413509Y-130014952D01*
X112401684Y-130100400D01*
X112235733Y-130363514D01*
X111748314Y-130211005D01*
X111609272Y-130127827D01*
X111361962Y-129815914D01*
X111434175Y-129280266D01*
X111485108Y-129129290D01*
X111792988Y-128582718D01*
X112268389Y-128444433D01*
X112411205Y-128456069D01*
X113070106Y-128533853D01*
X112405679Y-128006460D01*
X111946938Y-127573783D01*
X111945490Y-127352405D01*
X112416837Y-127332753D01*
X113258621Y-127479743D01*
D12*
X84629666Y-102874380D02*
X84629666Y-103588666D01*
X84582047Y-103731523D01*
X84486809Y-103826761D01*
X84343952Y-103874380D01*
X84248714Y-103874380D01*
X85629666Y-103874380D02*
X85058238Y-103874380D01*
X85343952Y-103874380D02*
X85343952Y-102874380D01*
X85248714Y-103017238D01*
X85153476Y-103112476D01*
X85058238Y-103160095D01*
X87790280Y-101350057D02*
X86790280Y-101350057D01*
X86790280Y-100969104D01*
X86837900Y-100873866D01*
X86885519Y-100826247D01*
X86980757Y-100778628D01*
X87123614Y-100778628D01*
X87218852Y-100826247D01*
X87266471Y-100873866D01*
X87314090Y-100969104D01*
X87314090Y-101350057D01*
X87790280Y-100207200D02*
X87742661Y-100302438D01*
X87695042Y-100350057D01*
X87599804Y-100397676D01*
X87314090Y-100397676D01*
X87218852Y-100350057D01*
X87171233Y-100302438D01*
X87123614Y-100207200D01*
X87123614Y-100064342D01*
X87171233Y-99969104D01*
X87218852Y-99921485D01*
X87314090Y-99873866D01*
X87599804Y-99873866D01*
X87695042Y-99921485D01*
X87742661Y-99969104D01*
X87790280Y-100064342D01*
X87790280Y-100207200D01*
X87123614Y-99540533D02*
X87790280Y-99350057D01*
X87314090Y-99159580D01*
X87790280Y-98969104D01*
X87123614Y-98778628D01*
X87742661Y-98016723D02*
X87790280Y-98111961D01*
X87790280Y-98302438D01*
X87742661Y-98397676D01*
X87647423Y-98445295D01*
X87266471Y-98445295D01*
X87171233Y-98397676D01*
X87123614Y-98302438D01*
X87123614Y-98111961D01*
X87171233Y-98016723D01*
X87266471Y-97969104D01*
X87361709Y-97969104D01*
X87456947Y-98445295D01*
X87790280Y-97540533D02*
X87123614Y-97540533D01*
X87314090Y-97540533D02*
X87218852Y-97492914D01*
X87171233Y-97445295D01*
X87123614Y-97350057D01*
X87123614Y-97254819D01*
X87885519Y-97159580D02*
X87885519Y-96397676D01*
X87266471Y-95826247D02*
X87314090Y-95683390D01*
X87361709Y-95635771D01*
X87456947Y-95588152D01*
X87599804Y-95588152D01*
X87695042Y-95635771D01*
X87742661Y-95683390D01*
X87790280Y-95778628D01*
X87790280Y-96159580D01*
X86790280Y-96159580D01*
X86790280Y-95826247D01*
X86837900Y-95731009D01*
X86885519Y-95683390D01*
X86980757Y-95635771D01*
X87075995Y-95635771D01*
X87171233Y-95683390D01*
X87218852Y-95731009D01*
X87266471Y-95826247D01*
X87266471Y-96159580D01*
X87790280Y-95159580D02*
X87123614Y-95159580D01*
X87314090Y-95159580D02*
X87218852Y-95111961D01*
X87171233Y-95064342D01*
X87123614Y-94969104D01*
X87123614Y-94873866D01*
X87742661Y-94159580D02*
X87790280Y-94254819D01*
X87790280Y-94445295D01*
X87742661Y-94540533D01*
X87647423Y-94588152D01*
X87266471Y-94588152D01*
X87171233Y-94540533D01*
X87123614Y-94445295D01*
X87123614Y-94254819D01*
X87171233Y-94159580D01*
X87266471Y-94111961D01*
X87361709Y-94111961D01*
X87456947Y-94588152D01*
X87790280Y-93254819D02*
X87266471Y-93254819D01*
X87171233Y-93302438D01*
X87123614Y-93397676D01*
X87123614Y-93588152D01*
X87171233Y-93683390D01*
X87742661Y-93254819D02*
X87790280Y-93350057D01*
X87790280Y-93588152D01*
X87742661Y-93683390D01*
X87647423Y-93731009D01*
X87552185Y-93731009D01*
X87456947Y-93683390D01*
X87409328Y-93588152D01*
X87409328Y-93350057D01*
X87361709Y-93254819D01*
X87790280Y-92778628D02*
X86790280Y-92778628D01*
X87409328Y-92683390D02*
X87790280Y-92397676D01*
X87123614Y-92397676D02*
X87504566Y-92778628D01*
X87790280Y-91826247D02*
X87742661Y-91921485D01*
X87695042Y-91969104D01*
X87599804Y-92016723D01*
X87314090Y-92016723D01*
X87218852Y-91969104D01*
X87171233Y-91921485D01*
X87123614Y-91826247D01*
X87123614Y-91683390D01*
X87171233Y-91588152D01*
X87218852Y-91540533D01*
X87314090Y-91492914D01*
X87599804Y-91492914D01*
X87695042Y-91540533D01*
X87742661Y-91588152D01*
X87790280Y-91683390D01*
X87790280Y-91826247D01*
X87123614Y-90635771D02*
X87790280Y-90635771D01*
X87123614Y-91064342D02*
X87647423Y-91064342D01*
X87742661Y-91016723D01*
X87790280Y-90921485D01*
X87790280Y-90778628D01*
X87742661Y-90683390D01*
X87695042Y-90635771D01*
X87123614Y-90302438D02*
X87123614Y-89921485D01*
X86790280Y-90159580D02*
X87647423Y-90159580D01*
X87742661Y-90111961D01*
X87790280Y-90016723D01*
X87790280Y-89921485D01*
X141938485Y-93038857D02*
X141938485Y-91838857D01*
X142395628Y-91838857D01*
X142509914Y-91896000D01*
X142567057Y-91953142D01*
X142624200Y-92067428D01*
X142624200Y-92238857D01*
X142567057Y-92353142D01*
X142509914Y-92410285D01*
X142395628Y-92467428D01*
X141938485Y-92467428D01*
X143652771Y-92238857D02*
X143652771Y-93038857D01*
X143367057Y-91781714D02*
X143081342Y-92638857D01*
X143824200Y-92638857D01*
X97590085Y-93115057D02*
X97590085Y-91915057D01*
X98047228Y-91915057D01*
X98161514Y-91972200D01*
X98218657Y-92029342D01*
X98275800Y-92143628D01*
X98275800Y-92315057D01*
X98218657Y-92429342D01*
X98161514Y-92486485D01*
X98047228Y-92543628D01*
X97590085Y-92543628D01*
X98675800Y-91915057D02*
X99418657Y-91915057D01*
X99018657Y-92372200D01*
X99190085Y-92372200D01*
X99304371Y-92429342D01*
X99361514Y-92486485D01*
X99418657Y-92600771D01*
X99418657Y-92886485D01*
X99361514Y-93000771D01*
X99304371Y-93057914D01*
X99190085Y-93115057D01*
X98847228Y-93115057D01*
X98732942Y-93057914D01*
X98675800Y-93000771D01*
X142742857Y-147951714D02*
X141542857Y-147951714D01*
X141542857Y-147494571D01*
X141600000Y-147380285D01*
X141657142Y-147323142D01*
X141771428Y-147266000D01*
X141942857Y-147266000D01*
X142057142Y-147323142D01*
X142114285Y-147380285D01*
X142171428Y-147494571D01*
X142171428Y-147951714D01*
X141657142Y-146808857D02*
X141600000Y-146751714D01*
X141542857Y-146637428D01*
X141542857Y-146351714D01*
X141600000Y-146237428D01*
X141657142Y-146180285D01*
X141771428Y-146123142D01*
X141885714Y-146123142D01*
X142057142Y-146180285D01*
X142742857Y-146866000D01*
X142742857Y-146123142D01*
X99642857Y-74545714D02*
X98442857Y-74545714D01*
X98442857Y-74088571D01*
X98500000Y-73974285D01*
X98557142Y-73917142D01*
X98671428Y-73860000D01*
X98842857Y-73860000D01*
X98957142Y-73917142D01*
X99014285Y-73974285D01*
X99071428Y-74088571D01*
X99071428Y-74545714D01*
X99642857Y-72717142D02*
X99642857Y-73402857D01*
X99642857Y-73060000D02*
X98442857Y-73060000D01*
X98614285Y-73174285D01*
X98728571Y-73288571D01*
X98785714Y-73402857D01*
X119835704Y-159202380D02*
X119835704Y-158202380D01*
X120216657Y-158202380D01*
X120311895Y-158250000D01*
X120359514Y-158297619D01*
X120407133Y-158392857D01*
X120407133Y-158535714D01*
X120359514Y-158630952D01*
X120311895Y-158678571D01*
X120216657Y-158726190D01*
X119835704Y-158726190D01*
X120740466Y-158202380D02*
X121407133Y-158202380D01*
X120978561Y-159202380D01*
X92138666Y-72080380D02*
X91805333Y-71604190D01*
X91567238Y-72080380D02*
X91567238Y-71080380D01*
X91948190Y-71080380D01*
X92043428Y-71128000D01*
X92091047Y-71175619D01*
X92138666Y-71270857D01*
X92138666Y-71413714D01*
X92091047Y-71508952D01*
X92043428Y-71556571D01*
X91948190Y-71604190D01*
X91567238Y-71604190D01*
X92567238Y-71556571D02*
X92900571Y-71556571D01*
X93043428Y-72080380D02*
X92567238Y-72080380D01*
X92567238Y-71080380D01*
X93043428Y-71080380D01*
X93805333Y-71556571D02*
X93472000Y-71556571D01*
X93472000Y-72080380D02*
X93472000Y-71080380D01*
X93948190Y-71080380D01*
X94472000Y-71080380D02*
X94472000Y-71318476D01*
X94233904Y-71223238D02*
X94472000Y-71318476D01*
X94710095Y-71223238D01*
X94329142Y-71508952D02*
X94472000Y-71318476D01*
X94614857Y-71508952D01*
X95233904Y-71080380D02*
X95233904Y-71318476D01*
X94995809Y-71223238D02*
X95233904Y-71318476D01*
X95472000Y-71223238D01*
X95091047Y-71508952D02*
X95233904Y-71318476D01*
X95376761Y-71508952D01*
X146367666Y-72080380D02*
X146034333Y-71604190D01*
X145796238Y-72080380D02*
X145796238Y-71080380D01*
X146177190Y-71080380D01*
X146272428Y-71128000D01*
X146320047Y-71175619D01*
X146367666Y-71270857D01*
X146367666Y-71413714D01*
X146320047Y-71508952D01*
X146272428Y-71556571D01*
X146177190Y-71604190D01*
X145796238Y-71604190D01*
X146796238Y-71556571D02*
X147129571Y-71556571D01*
X147272428Y-72080380D02*
X146796238Y-72080380D01*
X146796238Y-71080380D01*
X147272428Y-71080380D01*
X148034333Y-71556571D02*
X147701000Y-71556571D01*
X147701000Y-72080380D02*
X147701000Y-71080380D01*
X148177190Y-71080380D01*
X148701000Y-71080380D02*
X148701000Y-71318476D01*
X148462904Y-71223238D02*
X148701000Y-71318476D01*
X148939095Y-71223238D01*
X148558142Y-71508952D02*
X148701000Y-71318476D01*
X148843857Y-71508952D01*
X149462904Y-71080380D02*
X149462904Y-71318476D01*
X149224809Y-71223238D02*
X149462904Y-71318476D01*
X149701000Y-71223238D01*
X149320047Y-71508952D02*
X149462904Y-71318476D01*
X149605761Y-71508952D01*
X92240266Y-155586780D02*
X91906933Y-155110590D01*
X91668838Y-155586780D02*
X91668838Y-154586780D01*
X92049790Y-154586780D01*
X92145028Y-154634400D01*
X92192647Y-154682019D01*
X92240266Y-154777257D01*
X92240266Y-154920114D01*
X92192647Y-155015352D01*
X92145028Y-155062971D01*
X92049790Y-155110590D01*
X91668838Y-155110590D01*
X92668838Y-155062971D02*
X93002171Y-155062971D01*
X93145028Y-155586780D02*
X92668838Y-155586780D01*
X92668838Y-154586780D01*
X93145028Y-154586780D01*
X93906933Y-155062971D02*
X93573600Y-155062971D01*
X93573600Y-155586780D02*
X93573600Y-154586780D01*
X94049790Y-154586780D01*
X94573600Y-154586780D02*
X94573600Y-154824876D01*
X94335504Y-154729638D02*
X94573600Y-154824876D01*
X94811695Y-154729638D01*
X94430742Y-155015352D02*
X94573600Y-154824876D01*
X94716457Y-155015352D01*
X95335504Y-154586780D02*
X95335504Y-154824876D01*
X95097409Y-154729638D02*
X95335504Y-154824876D01*
X95573600Y-154729638D01*
X95192647Y-155015352D02*
X95335504Y-154824876D01*
X95478361Y-155015352D01*
X146240666Y-155586780D02*
X145907333Y-155110590D01*
X145669238Y-155586780D02*
X145669238Y-154586780D01*
X146050190Y-154586780D01*
X146145428Y-154634400D01*
X146193047Y-154682019D01*
X146240666Y-154777257D01*
X146240666Y-154920114D01*
X146193047Y-155015352D01*
X146145428Y-155062971D01*
X146050190Y-155110590D01*
X145669238Y-155110590D01*
X146669238Y-155062971D02*
X147002571Y-155062971D01*
X147145428Y-155586780D02*
X146669238Y-155586780D01*
X146669238Y-154586780D01*
X147145428Y-154586780D01*
X147907333Y-155062971D02*
X147574000Y-155062971D01*
X147574000Y-155586780D02*
X147574000Y-154586780D01*
X148050190Y-154586780D01*
X148574000Y-154586780D02*
X148574000Y-154824876D01*
X148335904Y-154729638D02*
X148574000Y-154824876D01*
X148812095Y-154729638D01*
X148431142Y-155015352D02*
X148574000Y-154824876D01*
X148716857Y-155015352D01*
X149335904Y-154586780D02*
X149335904Y-154824876D01*
X149097809Y-154729638D02*
X149335904Y-154824876D01*
X149574000Y-154729638D01*
X149193047Y-155015352D02*
X149335904Y-154824876D01*
X149478761Y-155015352D01*
X84604266Y-128389580D02*
X84604266Y-129103866D01*
X84556647Y-129246723D01*
X84461409Y-129341961D01*
X84318552Y-129389580D01*
X84223314Y-129389580D01*
X85032838Y-128484819D02*
X85080457Y-128437200D01*
X85175695Y-128389580D01*
X85413790Y-128389580D01*
X85509028Y-128437200D01*
X85556647Y-128484819D01*
X85604266Y-128580057D01*
X85604266Y-128675295D01*
X85556647Y-128818152D01*
X84985219Y-129389580D01*
X85604266Y-129389580D01*
X87561680Y-159562204D02*
X86561680Y-159562204D01*
X87275966Y-159228871D01*
X86561680Y-158895538D01*
X87561680Y-158895538D01*
X87561680Y-158419347D02*
X86561680Y-158419347D01*
X86561680Y-157752680D02*
X86561680Y-157562204D01*
X86609300Y-157466966D01*
X86704538Y-157371728D01*
X86895014Y-157324109D01*
X87228347Y-157324109D01*
X87418823Y-157371728D01*
X87514061Y-157466966D01*
X87561680Y-157562204D01*
X87561680Y-157752680D01*
X87514061Y-157847919D01*
X87418823Y-157943157D01*
X87228347Y-157990776D01*
X86895014Y-157990776D01*
X86704538Y-157943157D01*
X86609300Y-157847919D01*
X86561680Y-157752680D01*
X87656919Y-157133633D02*
X87656919Y-156371728D01*
X87037871Y-155800300D02*
X87085490Y-155657442D01*
X87133109Y-155609823D01*
X87228347Y-155562204D01*
X87371204Y-155562204D01*
X87466442Y-155609823D01*
X87514061Y-155657442D01*
X87561680Y-155752680D01*
X87561680Y-156133633D01*
X86561680Y-156133633D01*
X86561680Y-155800300D01*
X86609300Y-155705061D01*
X86656919Y-155657442D01*
X86752157Y-155609823D01*
X86847395Y-155609823D01*
X86942633Y-155657442D01*
X86990252Y-155705061D01*
X87037871Y-155800300D01*
X87037871Y-156133633D01*
X87561680Y-155133633D02*
X86895014Y-155133633D01*
X87085490Y-155133633D02*
X86990252Y-155086014D01*
X86942633Y-155038395D01*
X86895014Y-154943157D01*
X86895014Y-154847919D01*
X87514061Y-154133633D02*
X87561680Y-154228871D01*
X87561680Y-154419347D01*
X87514061Y-154514585D01*
X87418823Y-154562204D01*
X87037871Y-154562204D01*
X86942633Y-154514585D01*
X86895014Y-154419347D01*
X86895014Y-154228871D01*
X86942633Y-154133633D01*
X87037871Y-154086014D01*
X87133109Y-154086014D01*
X87228347Y-154562204D01*
X87561680Y-153228871D02*
X87037871Y-153228871D01*
X86942633Y-153276490D01*
X86895014Y-153371728D01*
X86895014Y-153562204D01*
X86942633Y-153657442D01*
X87514061Y-153228871D02*
X87561680Y-153324109D01*
X87561680Y-153562204D01*
X87514061Y-153657442D01*
X87418823Y-153705061D01*
X87323585Y-153705061D01*
X87228347Y-153657442D01*
X87180728Y-153562204D01*
X87180728Y-153324109D01*
X87133109Y-153228871D01*
X87561680Y-152752680D02*
X86561680Y-152752680D01*
X87180728Y-152657442D02*
X87561680Y-152371728D01*
X86895014Y-152371728D02*
X87275966Y-152752680D01*
X87561680Y-151800300D02*
X87514061Y-151895538D01*
X87466442Y-151943157D01*
X87371204Y-151990776D01*
X87085490Y-151990776D01*
X86990252Y-151943157D01*
X86942633Y-151895538D01*
X86895014Y-151800300D01*
X86895014Y-151657442D01*
X86942633Y-151562204D01*
X86990252Y-151514585D01*
X87085490Y-151466966D01*
X87371204Y-151466966D01*
X87466442Y-151514585D01*
X87514061Y-151562204D01*
X87561680Y-151657442D01*
X87561680Y-151800300D01*
X86895014Y-150609823D02*
X87561680Y-150609823D01*
X86895014Y-151038395D02*
X87418823Y-151038395D01*
X87514061Y-150990776D01*
X87561680Y-150895538D01*
X87561680Y-150752680D01*
X87514061Y-150657442D01*
X87466442Y-150609823D01*
X86895014Y-150276490D02*
X86895014Y-149895538D01*
X86561680Y-150133633D02*
X87418823Y-150133633D01*
X87514061Y-150086014D01*
X87561680Y-149990776D01*
X87561680Y-149895538D01*
X121201380Y-65992333D02*
X121915666Y-65992333D01*
X122058523Y-66039952D01*
X122153761Y-66135190D01*
X122201380Y-66278047D01*
X122201380Y-66373285D01*
X121201380Y-65611380D02*
X121201380Y-64992333D01*
X121582333Y-65325666D01*
X121582333Y-65182809D01*
X121629952Y-65087571D01*
X121677571Y-65039952D01*
X121772809Y-64992333D01*
X122010904Y-64992333D01*
X122106142Y-65039952D01*
X122153761Y-65087571D01*
X122201380Y-65182809D01*
X122201380Y-65468523D01*
X122153761Y-65563761D01*
X122106142Y-65611380D01*
X123282914Y-67625980D02*
X123282914Y-68435504D01*
X123330533Y-68530742D01*
X123378152Y-68578361D01*
X123473390Y-68625980D01*
X123663866Y-68625980D01*
X123759104Y-68578361D01*
X123806723Y-68530742D01*
X123854342Y-68435504D01*
X123854342Y-67625980D01*
X124282914Y-68578361D02*
X124425771Y-68625980D01*
X124663866Y-68625980D01*
X124759104Y-68578361D01*
X124806723Y-68530742D01*
X124854342Y-68435504D01*
X124854342Y-68340266D01*
X124806723Y-68245028D01*
X124759104Y-68197409D01*
X124663866Y-68149790D01*
X124473390Y-68102171D01*
X124378152Y-68054552D01*
X124330533Y-68006933D01*
X124282914Y-67911695D01*
X124282914Y-67816457D01*
X124330533Y-67721219D01*
X124378152Y-67673600D01*
X124473390Y-67625980D01*
X124711485Y-67625980D01*
X124854342Y-67673600D01*
X125616247Y-68102171D02*
X125759104Y-68149790D01*
X125806723Y-68197409D01*
X125854342Y-68292647D01*
X125854342Y-68435504D01*
X125806723Y-68530742D01*
X125759104Y-68578361D01*
X125663866Y-68625980D01*
X125282914Y-68625980D01*
X125282914Y-67625980D01*
X125616247Y-67625980D01*
X125711485Y-67673600D01*
X125759104Y-67721219D01*
X125806723Y-67816457D01*
X125806723Y-67911695D01*
X125759104Y-68006933D01*
X125711485Y-68054552D01*
X125616247Y-68102171D01*
X125282914Y-68102171D01*
X126044819Y-68721219D02*
X126806723Y-68721219D01*
X127235295Y-67625980D02*
X127425771Y-67625980D01*
X127521009Y-67673600D01*
X127616247Y-67768838D01*
X127663866Y-67959314D01*
X127663866Y-68292647D01*
X127616247Y-68483123D01*
X127521009Y-68578361D01*
X127425771Y-68625980D01*
X127235295Y-68625980D01*
X127140057Y-68578361D01*
X127044819Y-68483123D01*
X126997200Y-68292647D01*
X126997200Y-67959314D01*
X127044819Y-67768838D01*
X127140057Y-67673600D01*
X127235295Y-67625980D01*
X127949580Y-67625980D02*
X128521009Y-67625980D01*
X128235295Y-68625980D02*
X128235295Y-67625980D01*
X129378152Y-67673600D02*
X129282914Y-67625980D01*
X129140057Y-67625980D01*
X128997200Y-67673600D01*
X128901961Y-67768838D01*
X128854342Y-67864076D01*
X128806723Y-68054552D01*
X128806723Y-68197409D01*
X128854342Y-68387885D01*
X128901961Y-68483123D01*
X128997200Y-68578361D01*
X129140057Y-68625980D01*
X129235295Y-68625980D01*
X129378152Y-68578361D01*
X129425771Y-68530742D01*
X129425771Y-68197409D01*
X129235295Y-68197409D01*
X129616247Y-68721219D02*
X130378152Y-68721219D01*
X130949580Y-68102171D02*
X131092438Y-68149790D01*
X131140057Y-68197409D01*
X131187676Y-68292647D01*
X131187676Y-68435504D01*
X131140057Y-68530742D01*
X131092438Y-68578361D01*
X130997200Y-68625980D01*
X130616247Y-68625980D01*
X130616247Y-67625980D01*
X130949580Y-67625980D01*
X131044819Y-67673600D01*
X131092438Y-67721219D01*
X131140057Y-67816457D01*
X131140057Y-67911695D01*
X131092438Y-68006933D01*
X131044819Y-68054552D01*
X130949580Y-68102171D01*
X130616247Y-68102171D01*
X131616247Y-68625980D02*
X131616247Y-67959314D01*
X131616247Y-68149790D02*
X131663866Y-68054552D01*
X131711485Y-68006933D01*
X131806723Y-67959314D01*
X131901961Y-67959314D01*
X132616247Y-68578361D02*
X132521009Y-68625980D01*
X132330533Y-68625980D01*
X132235295Y-68578361D01*
X132187676Y-68483123D01*
X132187676Y-68102171D01*
X132235295Y-68006933D01*
X132330533Y-67959314D01*
X132521009Y-67959314D01*
X132616247Y-68006933D01*
X132663866Y-68102171D01*
X132663866Y-68197409D01*
X132187676Y-68292647D01*
X133521009Y-68625980D02*
X133521009Y-68102171D01*
X133473390Y-68006933D01*
X133378152Y-67959314D01*
X133187676Y-67959314D01*
X133092438Y-68006933D01*
X133521009Y-68578361D02*
X133425771Y-68625980D01*
X133187676Y-68625980D01*
X133092438Y-68578361D01*
X133044819Y-68483123D01*
X133044819Y-68387885D01*
X133092438Y-68292647D01*
X133187676Y-68245028D01*
X133425771Y-68245028D01*
X133521009Y-68197409D01*
X133997200Y-68625980D02*
X133997200Y-67625980D01*
X134092438Y-68245028D02*
X134378152Y-68625980D01*
X134378152Y-67959314D02*
X133997200Y-68340266D01*
X134949580Y-68625980D02*
X134854342Y-68578361D01*
X134806723Y-68530742D01*
X134759104Y-68435504D01*
X134759104Y-68149790D01*
X134806723Y-68054552D01*
X134854342Y-68006933D01*
X134949580Y-67959314D01*
X135092438Y-67959314D01*
X135187676Y-68006933D01*
X135235295Y-68054552D01*
X135282914Y-68149790D01*
X135282914Y-68435504D01*
X135235295Y-68530742D01*
X135187676Y-68578361D01*
X135092438Y-68625980D01*
X134949580Y-68625980D01*
X136140057Y-67959314D02*
X136140057Y-68625980D01*
X135711485Y-67959314D02*
X135711485Y-68483123D01*
X135759104Y-68578361D01*
X135854342Y-68625980D01*
X135997200Y-68625980D01*
X136092438Y-68578361D01*
X136140057Y-68530742D01*
X136473390Y-67959314D02*
X136854342Y-67959314D01*
X136616247Y-67625980D02*
X136616247Y-68483123D01*
X136663866Y-68578361D01*
X136759104Y-68625980D01*
X136854342Y-68625980D01*
X84629666Y-101135380D02*
X84629666Y-101849666D01*
X84582047Y-101992523D01*
X84486809Y-102087761D01*
X84343952Y-102135380D01*
X84248714Y-102135380D01*
X85582047Y-101135380D02*
X85105857Y-101135380D01*
X85058238Y-101611571D01*
X85105857Y-101563952D01*
X85201095Y-101516333D01*
X85439190Y-101516333D01*
X85534428Y-101563952D01*
X85582047Y-101611571D01*
X85629666Y-101706809D01*
X85629666Y-101944904D01*
X85582047Y-102040142D01*
X85534428Y-102087761D01*
X85439190Y-102135380D01*
X85201095Y-102135380D01*
X85105857Y-102087761D01*
X85058238Y-102040142D01*
X87599780Y-127670890D02*
X86599780Y-127670890D01*
X86599780Y-127004223D02*
X86599780Y-126813747D01*
X86647400Y-126718509D01*
X86742638Y-126623271D01*
X86933114Y-126575652D01*
X87266447Y-126575652D01*
X87456923Y-126623271D01*
X87552161Y-126718509D01*
X87599780Y-126813747D01*
X87599780Y-127004223D01*
X87552161Y-127099461D01*
X87456923Y-127194700D01*
X87266447Y-127242319D01*
X86933114Y-127242319D01*
X86742638Y-127194700D01*
X86647400Y-127099461D01*
X86599780Y-127004223D01*
X87695019Y-126385176D02*
X87695019Y-125623271D01*
X87599780Y-124908985D02*
X87599780Y-125385176D01*
X86599780Y-125385176D01*
X87075971Y-123480414D02*
X87123590Y-123337557D01*
X87171209Y-123289938D01*
X87266447Y-123242319D01*
X87409304Y-123242319D01*
X87504542Y-123289938D01*
X87552161Y-123337557D01*
X87599780Y-123432795D01*
X87599780Y-123813747D01*
X86599780Y-123813747D01*
X86599780Y-123480414D01*
X86647400Y-123385176D01*
X86695019Y-123337557D01*
X86790257Y-123289938D01*
X86885495Y-123289938D01*
X86980733Y-123337557D01*
X87028352Y-123385176D01*
X87075971Y-123480414D01*
X87075971Y-123813747D01*
X87599780Y-122813747D02*
X86933114Y-122813747D01*
X87123590Y-122813747D02*
X87028352Y-122766128D01*
X86980733Y-122718509D01*
X86933114Y-122623271D01*
X86933114Y-122528033D01*
X87552161Y-121813747D02*
X87599780Y-121908985D01*
X87599780Y-122099461D01*
X87552161Y-122194700D01*
X87456923Y-122242319D01*
X87075971Y-122242319D01*
X86980733Y-122194700D01*
X86933114Y-122099461D01*
X86933114Y-121908985D01*
X86980733Y-121813747D01*
X87075971Y-121766128D01*
X87171209Y-121766128D01*
X87266447Y-122242319D01*
X87599780Y-120908985D02*
X87075971Y-120908985D01*
X86980733Y-120956604D01*
X86933114Y-121051842D01*
X86933114Y-121242319D01*
X86980733Y-121337557D01*
X87552161Y-120908985D02*
X87599780Y-121004223D01*
X87599780Y-121242319D01*
X87552161Y-121337557D01*
X87456923Y-121385176D01*
X87361685Y-121385176D01*
X87266447Y-121337557D01*
X87218828Y-121242319D01*
X87218828Y-121004223D01*
X87171209Y-120908985D01*
X87599780Y-120432795D02*
X86599780Y-120432795D01*
X87218828Y-120337557D02*
X87599780Y-120051842D01*
X86933114Y-120051842D02*
X87314066Y-120432795D01*
X87599780Y-119480414D02*
X87552161Y-119575652D01*
X87504542Y-119623271D01*
X87409304Y-119670890D01*
X87123590Y-119670890D01*
X87028352Y-119623271D01*
X86980733Y-119575652D01*
X86933114Y-119480414D01*
X86933114Y-119337557D01*
X86980733Y-119242319D01*
X87028352Y-119194700D01*
X87123590Y-119147080D01*
X87409304Y-119147080D01*
X87504542Y-119194700D01*
X87552161Y-119242319D01*
X87599780Y-119337557D01*
X87599780Y-119480414D01*
X86933114Y-118289938D02*
X87599780Y-118289938D01*
X86933114Y-118718509D02*
X87456923Y-118718509D01*
X87552161Y-118670890D01*
X87599780Y-118575652D01*
X87599780Y-118432795D01*
X87552161Y-118337557D01*
X87504542Y-118289938D01*
X86933114Y-117956604D02*
X86933114Y-117575652D01*
X86599780Y-117813747D02*
X87456923Y-117813747D01*
X87552161Y-117766128D01*
X87599780Y-117670890D01*
X87599780Y-117575652D01*
M02*
