%TF.GenerationSoftware,KiCad,Pcbnew,5.0.0*%
%TF.CreationDate,2018-07-30T20:43:33-05:00*%
%TF.ProjectId,breakout,627265616B6F75742E6B696361645F70,rev?*%
%TF.SameCoordinates,Original*%
%TF.FileFunction,Legend,Bot*%
%TF.FilePolarity,Positive*%
%FSLAX46Y46*%
G04 Gerber Fmt 4.6, Leading zero omitted, Abs format (unit mm)*
G04 Created by KiCad (PCBNEW 5.0.0) date Mon Jul 30 20:43:33 2018*
%MOMM*%
%LPD*%
G01*
G04 APERTURE LIST*
%ADD10C,0.010000*%
%ADD11C,0.120000*%
G04 APERTURE END LIST*
D10*
G36*
X130276579Y-127352743D02*
X129530813Y-127538159D01*
X129202626Y-127731955D01*
X129181238Y-128024839D01*
X129238403Y-128202809D01*
X129636199Y-128772797D01*
X130091940Y-129116290D01*
X130439416Y-129355116D01*
X130335309Y-129454504D01*
X130331410Y-129454595D01*
X130069164Y-129500645D01*
X130285141Y-129686938D01*
X130318645Y-129708263D01*
X130762993Y-129854898D01*
X130920224Y-129822074D01*
X131121691Y-129887952D01*
X131133516Y-129973400D01*
X131299467Y-130236514D01*
X131786886Y-130084005D01*
X131925928Y-130000827D01*
X132173238Y-129688914D01*
X132101025Y-129153266D01*
X132050092Y-129002290D01*
X131742212Y-128455718D01*
X131266811Y-128317433D01*
X131123995Y-128329069D01*
X130465094Y-128406853D01*
X131129521Y-127879460D01*
X131588262Y-127446783D01*
X131589710Y-127225405D01*
X131118363Y-127205753D01*
X130276579Y-127352743D01*
X130276579Y-127352743D01*
G37*
X130276579Y-127352743D02*
X129530813Y-127538159D01*
X129202626Y-127731955D01*
X129181238Y-128024839D01*
X129238403Y-128202809D01*
X129636199Y-128772797D01*
X130091940Y-129116290D01*
X130439416Y-129355116D01*
X130335309Y-129454504D01*
X130331410Y-129454595D01*
X130069164Y-129500645D01*
X130285141Y-129686938D01*
X130318645Y-129708263D01*
X130762993Y-129854898D01*
X130920224Y-129822074D01*
X131121691Y-129887952D01*
X131133516Y-129973400D01*
X131299467Y-130236514D01*
X131786886Y-130084005D01*
X131925928Y-130000827D01*
X132173238Y-129688914D01*
X132101025Y-129153266D01*
X132050092Y-129002290D01*
X131742212Y-128455718D01*
X131266811Y-128317433D01*
X131123995Y-128329069D01*
X130465094Y-128406853D01*
X131129521Y-127879460D01*
X131588262Y-127446783D01*
X131589710Y-127225405D01*
X131118363Y-127205753D01*
X130276579Y-127352743D01*
G36*
X130642292Y-124375832D02*
X130059065Y-124765832D01*
X129886978Y-124911401D01*
X129173652Y-125445157D01*
X128491114Y-125813310D01*
X128321244Y-125870090D01*
X127744200Y-126087324D01*
X127645042Y-126290187D01*
X127967786Y-126433875D01*
X128656446Y-126473583D01*
X129043663Y-126448253D01*
X129822253Y-126386949D01*
X130146733Y-126414572D01*
X130093276Y-126551216D01*
X129928350Y-126681604D01*
X129648339Y-126956890D01*
X129709514Y-127048127D01*
X130098094Y-126895278D01*
X130657425Y-126524315D01*
X130696406Y-126493984D01*
X131181301Y-126007138D01*
X131399882Y-125579387D01*
X131400884Y-125558195D01*
X131334550Y-125239891D01*
X131053204Y-125231649D01*
X130514359Y-125480203D01*
X129930358Y-125783858D01*
X130534382Y-125126157D01*
X130945190Y-124577636D01*
X130959413Y-124320314D01*
X130642292Y-124375832D01*
X130642292Y-124375832D01*
G37*
X130642292Y-124375832D02*
X130059065Y-124765832D01*
X129886978Y-124911401D01*
X129173652Y-125445157D01*
X128491114Y-125813310D01*
X128321244Y-125870090D01*
X127744200Y-126087324D01*
X127645042Y-126290187D01*
X127967786Y-126433875D01*
X128656446Y-126473583D01*
X129043663Y-126448253D01*
X129822253Y-126386949D01*
X130146733Y-126414572D01*
X130093276Y-126551216D01*
X129928350Y-126681604D01*
X129648339Y-126956890D01*
X129709514Y-127048127D01*
X130098094Y-126895278D01*
X130657425Y-126524315D01*
X130696406Y-126493984D01*
X131181301Y-126007138D01*
X131399882Y-125579387D01*
X131400884Y-125558195D01*
X131334550Y-125239891D01*
X131053204Y-125231649D01*
X130514359Y-125480203D01*
X129930358Y-125783858D01*
X130534382Y-125126157D01*
X130945190Y-124577636D01*
X130959413Y-124320314D01*
X130642292Y-124375832D01*
G36*
X119464313Y-118040838D02*
X119574759Y-118243358D01*
X120071969Y-118566819D01*
X120840028Y-118949797D01*
X121763022Y-119330865D01*
X122176673Y-119478163D01*
X123246147Y-119839379D01*
X121775621Y-119699751D01*
X120829472Y-119590720D01*
X120020755Y-119464848D01*
X119703516Y-119396099D01*
X119233294Y-119366851D01*
X119101937Y-119677078D01*
X119322123Y-120219101D01*
X119874014Y-120820108D01*
X120594607Y-121336086D01*
X121299867Y-121618976D01*
X121836915Y-121844801D01*
X122042989Y-122148875D01*
X122284012Y-122519416D01*
X122906068Y-122876682D01*
X123757638Y-123159114D01*
X124687201Y-123305154D01*
X124908612Y-123313099D01*
X125519883Y-123340784D01*
X125660733Y-123433436D01*
X125432569Y-123604591D01*
X124801802Y-123762235D01*
X124274622Y-123719622D01*
X123777681Y-123701167D01*
X123642807Y-123920063D01*
X123825690Y-124266094D01*
X124282020Y-124629048D01*
X124719930Y-124827246D01*
X125228244Y-125031439D01*
X125356053Y-125150629D01*
X125302473Y-125161457D01*
X125080945Y-125324688D01*
X125117726Y-125443916D01*
X125456695Y-125591726D01*
X126154188Y-125688825D01*
X126758283Y-125711284D01*
X127686842Y-125669156D01*
X128305963Y-125491501D01*
X128837721Y-125101415D01*
X129015135Y-124929746D01*
X129509822Y-124342813D01*
X129779789Y-123843094D01*
X129796673Y-123742367D01*
X129657750Y-123293396D01*
X129364972Y-123150181D01*
X129105731Y-123400932D01*
X128740234Y-123774181D01*
X128032704Y-124153045D01*
X127169496Y-124460983D01*
X126336965Y-124621456D01*
X126114947Y-124629305D01*
X125766884Y-124594332D01*
X125822862Y-124481604D01*
X126325256Y-124251852D01*
X126670412Y-124114593D01*
X127491539Y-123761855D01*
X128139748Y-123427399D01*
X128341465Y-123292256D01*
X128709213Y-122853474D01*
X128593629Y-122599146D01*
X128028364Y-122577065D01*
X127858252Y-122605904D01*
X126989305Y-122775787D01*
X127863705Y-122238887D01*
X128602562Y-121654152D01*
X129055049Y-121044290D01*
X129219430Y-120502103D01*
X129093969Y-120120392D01*
X128676928Y-119991961D01*
X127966573Y-120209610D01*
X127901055Y-120242663D01*
X127152713Y-120502348D01*
X126121952Y-120705437D01*
X125263492Y-120791860D01*
X123513516Y-120882067D01*
X125066732Y-120485087D01*
X125958610Y-120211928D01*
X126803246Y-119878920D01*
X127474918Y-119545934D01*
X127847907Y-119272841D01*
X127866597Y-119151728D01*
X127564742Y-119070370D01*
X126848555Y-118943980D01*
X125828939Y-118787221D01*
X124616794Y-118614755D01*
X123323023Y-118441246D01*
X122058528Y-118281355D01*
X120934209Y-118149746D01*
X120060969Y-118061081D01*
X119549709Y-118030022D01*
X119464313Y-118040838D01*
X119464313Y-118040838D01*
G37*
X119464313Y-118040838D02*
X119574759Y-118243358D01*
X120071969Y-118566819D01*
X120840028Y-118949797D01*
X121763022Y-119330865D01*
X122176673Y-119478163D01*
X123246147Y-119839379D01*
X121775621Y-119699751D01*
X120829472Y-119590720D01*
X120020755Y-119464848D01*
X119703516Y-119396099D01*
X119233294Y-119366851D01*
X119101937Y-119677078D01*
X119322123Y-120219101D01*
X119874014Y-120820108D01*
X120594607Y-121336086D01*
X121299867Y-121618976D01*
X121836915Y-121844801D01*
X122042989Y-122148875D01*
X122284012Y-122519416D01*
X122906068Y-122876682D01*
X123757638Y-123159114D01*
X124687201Y-123305154D01*
X124908612Y-123313099D01*
X125519883Y-123340784D01*
X125660733Y-123433436D01*
X125432569Y-123604591D01*
X124801802Y-123762235D01*
X124274622Y-123719622D01*
X123777681Y-123701167D01*
X123642807Y-123920063D01*
X123825690Y-124266094D01*
X124282020Y-124629048D01*
X124719930Y-124827246D01*
X125228244Y-125031439D01*
X125356053Y-125150629D01*
X125302473Y-125161457D01*
X125080945Y-125324688D01*
X125117726Y-125443916D01*
X125456695Y-125591726D01*
X126154188Y-125688825D01*
X126758283Y-125711284D01*
X127686842Y-125669156D01*
X128305963Y-125491501D01*
X128837721Y-125101415D01*
X129015135Y-124929746D01*
X129509822Y-124342813D01*
X129779789Y-123843094D01*
X129796673Y-123742367D01*
X129657750Y-123293396D01*
X129364972Y-123150181D01*
X129105731Y-123400932D01*
X128740234Y-123774181D01*
X128032704Y-124153045D01*
X127169496Y-124460983D01*
X126336965Y-124621456D01*
X126114947Y-124629305D01*
X125766884Y-124594332D01*
X125822862Y-124481604D01*
X126325256Y-124251852D01*
X126670412Y-124114593D01*
X127491539Y-123761855D01*
X128139748Y-123427399D01*
X128341465Y-123292256D01*
X128709213Y-122853474D01*
X128593629Y-122599146D01*
X128028364Y-122577065D01*
X127858252Y-122605904D01*
X126989305Y-122775787D01*
X127863705Y-122238887D01*
X128602562Y-121654152D01*
X129055049Y-121044290D01*
X129219430Y-120502103D01*
X129093969Y-120120392D01*
X128676928Y-119991961D01*
X127966573Y-120209610D01*
X127901055Y-120242663D01*
X127152713Y-120502348D01*
X126121952Y-120705437D01*
X125263492Y-120791860D01*
X123513516Y-120882067D01*
X125066732Y-120485087D01*
X125958610Y-120211928D01*
X126803246Y-119878920D01*
X127474918Y-119545934D01*
X127847907Y-119272841D01*
X127866597Y-119151728D01*
X127564742Y-119070370D01*
X126848555Y-118943980D01*
X125828939Y-118787221D01*
X124616794Y-118614755D01*
X123323023Y-118441246D01*
X122058528Y-118281355D01*
X120934209Y-118149746D01*
X120060969Y-118061081D01*
X119549709Y-118030022D01*
X119464313Y-118040838D01*
G36*
X134968221Y-112447635D02*
X134934430Y-112463352D01*
X134985745Y-112737673D01*
X135204625Y-113401414D01*
X135554428Y-114349784D01*
X135923022Y-115290676D01*
X136369906Y-116449110D01*
X136728439Y-117463347D01*
X136956149Y-118207827D01*
X137015621Y-118520533D01*
X137120294Y-118859085D01*
X137524775Y-119004488D01*
X138046071Y-119027074D01*
X139076521Y-119027074D01*
X138416164Y-117647256D01*
X138040713Y-116768028D01*
X137785184Y-115990844D01*
X137719924Y-115642181D01*
X137628564Y-115159898D01*
X137509671Y-115016736D01*
X137291951Y-114788010D01*
X137071253Y-114248496D01*
X136914437Y-113617565D01*
X136888364Y-113114587D01*
X136907510Y-113041053D01*
X136795215Y-112750580D01*
X136181613Y-112546697D01*
X136041320Y-112522091D01*
X135370042Y-112441823D01*
X134968221Y-112447635D01*
X134968221Y-112447635D01*
G37*
X134968221Y-112447635D02*
X134934430Y-112463352D01*
X134985745Y-112737673D01*
X135204625Y-113401414D01*
X135554428Y-114349784D01*
X135923022Y-115290676D01*
X136369906Y-116449110D01*
X136728439Y-117463347D01*
X136956149Y-118207827D01*
X137015621Y-118520533D01*
X137120294Y-118859085D01*
X137524775Y-119004488D01*
X138046071Y-119027074D01*
X139076521Y-119027074D01*
X138416164Y-117647256D01*
X138040713Y-116768028D01*
X137785184Y-115990844D01*
X137719924Y-115642181D01*
X137628564Y-115159898D01*
X137509671Y-115016736D01*
X137291951Y-114788010D01*
X137071253Y-114248496D01*
X136914437Y-113617565D01*
X136888364Y-113114587D01*
X136907510Y-113041053D01*
X136795215Y-112750580D01*
X136181613Y-112546697D01*
X136041320Y-112522091D01*
X135370042Y-112441823D01*
X134968221Y-112447635D01*
G36*
X119515368Y-106804898D02*
X119713057Y-107575497D01*
X119984166Y-108017636D01*
X120489773Y-108330358D01*
X120890816Y-108504555D01*
X121787314Y-109140647D01*
X122206380Y-109832721D01*
X122424951Y-110428489D01*
X122415198Y-110847002D01*
X122127137Y-111304473D01*
X121769561Y-111722193D01*
X121302712Y-112348885D01*
X121069009Y-112855764D01*
X121068300Y-113006324D01*
X121205005Y-113417361D01*
X121443089Y-114182004D01*
X121732994Y-115140867D01*
X121756230Y-115218806D01*
X122074583Y-116177876D01*
X122388350Y-116942180D01*
X122633350Y-117356853D01*
X122647763Y-117370040D01*
X123046896Y-117515419D01*
X123876956Y-117689419D01*
X125048901Y-117882238D01*
X126473694Y-118084075D01*
X128062293Y-118285128D01*
X129725660Y-118475596D01*
X131374754Y-118645677D01*
X132920536Y-118785570D01*
X134273966Y-118885473D01*
X135346005Y-118935583D01*
X136047612Y-118926101D01*
X136280697Y-118870769D01*
X136461298Y-118473002D01*
X136477404Y-117967236D01*
X136351129Y-117574117D01*
X136142854Y-117495367D01*
X135695495Y-117521857D01*
X134822197Y-117457290D01*
X133620893Y-117317862D01*
X132189515Y-117119769D01*
X130625995Y-116879207D01*
X129028265Y-116612373D01*
X127494258Y-116335461D01*
X126121905Y-116064669D01*
X125009139Y-115816192D01*
X124253892Y-115606227D01*
X123981410Y-115484104D01*
X123674547Y-115035538D01*
X123748179Y-114627541D01*
X124115094Y-114460703D01*
X124273037Y-114383265D01*
X123929045Y-114201555D01*
X123847726Y-114171054D01*
X123265560Y-113792076D01*
X123112463Y-113256372D01*
X123190997Y-112764433D01*
X123334652Y-112610232D01*
X123610728Y-112400533D01*
X123900725Y-111967676D01*
X124086835Y-111463220D01*
X124085372Y-110861428D01*
X123895372Y-109962490D01*
X123890973Y-109945300D01*
X123702369Y-109029095D01*
X123722879Y-108521873D01*
X123830575Y-108382066D01*
X123731926Y-108201217D01*
X123232229Y-107859521D01*
X122419700Y-107411920D01*
X121727497Y-107072267D01*
X119331179Y-105945881D01*
X119515368Y-106804898D01*
X119515368Y-106804898D01*
G37*
X119515368Y-106804898D02*
X119713057Y-107575497D01*
X119984166Y-108017636D01*
X120489773Y-108330358D01*
X120890816Y-108504555D01*
X121787314Y-109140647D01*
X122206380Y-109832721D01*
X122424951Y-110428489D01*
X122415198Y-110847002D01*
X122127137Y-111304473D01*
X121769561Y-111722193D01*
X121302712Y-112348885D01*
X121069009Y-112855764D01*
X121068300Y-113006324D01*
X121205005Y-113417361D01*
X121443089Y-114182004D01*
X121732994Y-115140867D01*
X121756230Y-115218806D01*
X122074583Y-116177876D01*
X122388350Y-116942180D01*
X122633350Y-117356853D01*
X122647763Y-117370040D01*
X123046896Y-117515419D01*
X123876956Y-117689419D01*
X125048901Y-117882238D01*
X126473694Y-118084075D01*
X128062293Y-118285128D01*
X129725660Y-118475596D01*
X131374754Y-118645677D01*
X132920536Y-118785570D01*
X134273966Y-118885473D01*
X135346005Y-118935583D01*
X136047612Y-118926101D01*
X136280697Y-118870769D01*
X136461298Y-118473002D01*
X136477404Y-117967236D01*
X136351129Y-117574117D01*
X136142854Y-117495367D01*
X135695495Y-117521857D01*
X134822197Y-117457290D01*
X133620893Y-117317862D01*
X132189515Y-117119769D01*
X130625995Y-116879207D01*
X129028265Y-116612373D01*
X127494258Y-116335461D01*
X126121905Y-116064669D01*
X125009139Y-115816192D01*
X124253892Y-115606227D01*
X123981410Y-115484104D01*
X123674547Y-115035538D01*
X123748179Y-114627541D01*
X124115094Y-114460703D01*
X124273037Y-114383265D01*
X123929045Y-114201555D01*
X123847726Y-114171054D01*
X123265560Y-113792076D01*
X123112463Y-113256372D01*
X123190997Y-112764433D01*
X123334652Y-112610232D01*
X123610728Y-112400533D01*
X123900725Y-111967676D01*
X124086835Y-111463220D01*
X124085372Y-110861428D01*
X123895372Y-109962490D01*
X123890973Y-109945300D01*
X123702369Y-109029095D01*
X123722879Y-108521873D01*
X123830575Y-108382066D01*
X123731926Y-108201217D01*
X123232229Y-107859521D01*
X122419700Y-107411920D01*
X121727497Y-107072267D01*
X119331179Y-105945881D01*
X119515368Y-106804898D01*
G36*
X120225682Y-114620229D02*
X120199984Y-114645806D01*
X120248570Y-114872239D01*
X120389215Y-114947508D01*
X120784197Y-115289460D01*
X121036513Y-115847965D01*
X121076118Y-116395042D01*
X120917035Y-116665417D01*
X120724184Y-116905963D01*
X120973516Y-117151401D01*
X121527534Y-117403814D01*
X121765880Y-117228520D01*
X121775621Y-117119673D01*
X121663514Y-116312100D01*
X121377304Y-115540357D01*
X120992153Y-114922456D01*
X120583224Y-114576410D01*
X120225682Y-114620229D01*
X120225682Y-114620229D01*
G37*
X120225682Y-114620229D02*
X120199984Y-114645806D01*
X120248570Y-114872239D01*
X120389215Y-114947508D01*
X120784197Y-115289460D01*
X121036513Y-115847965D01*
X121076118Y-116395042D01*
X120917035Y-116665417D01*
X120724184Y-116905963D01*
X120973516Y-117151401D01*
X121527534Y-117403814D01*
X121765880Y-117228520D01*
X121775621Y-117119673D01*
X121663514Y-116312100D01*
X121377304Y-115540357D01*
X120992153Y-114922456D01*
X120583224Y-114576410D01*
X120225682Y-114620229D01*
G36*
X132752388Y-113269591D02*
X132679256Y-113597301D01*
X132817920Y-114232154D01*
X133107443Y-115021335D01*
X133486888Y-115812030D01*
X133895320Y-116451425D01*
X134115360Y-116687600D01*
X134691345Y-117013188D01*
X135308420Y-117144166D01*
X135784447Y-117067203D01*
X135942122Y-116821284D01*
X135834012Y-116282321D01*
X135810591Y-116211118D01*
X134876673Y-116211118D01*
X134785008Y-116379841D01*
X134551854Y-116128355D01*
X134239978Y-115530643D01*
X134178947Y-115388702D01*
X133955940Y-114741008D01*
X133900885Y-114325859D01*
X133921712Y-114278176D01*
X134085223Y-114415029D01*
X134351811Y-114866621D01*
X134630748Y-115449312D01*
X134831307Y-115979461D01*
X134876673Y-116211118D01*
X135810591Y-116211118D01*
X135569724Y-115478863D01*
X135227224Y-114627163D01*
X134937792Y-114035648D01*
X134470746Y-113589475D01*
X133771157Y-113276071D01*
X133079060Y-113179577D01*
X132752388Y-113269591D01*
X132752388Y-113269591D01*
G37*
X132752388Y-113269591D02*
X132679256Y-113597301D01*
X132817920Y-114232154D01*
X133107443Y-115021335D01*
X133486888Y-115812030D01*
X133895320Y-116451425D01*
X134115360Y-116687600D01*
X134691345Y-117013188D01*
X135308420Y-117144166D01*
X135784447Y-117067203D01*
X135942122Y-116821284D01*
X135834012Y-116282321D01*
X135810591Y-116211118D01*
X134876673Y-116211118D01*
X134785008Y-116379841D01*
X134551854Y-116128355D01*
X134239978Y-115530643D01*
X134178947Y-115388702D01*
X133955940Y-114741008D01*
X133900885Y-114325859D01*
X133921712Y-114278176D01*
X134085223Y-114415029D01*
X134351811Y-114866621D01*
X134630748Y-115449312D01*
X134831307Y-115979461D01*
X134876673Y-116211118D01*
X135810591Y-116211118D01*
X135569724Y-115478863D01*
X135227224Y-114627163D01*
X134937792Y-114035648D01*
X134470746Y-113589475D01*
X133771157Y-113276071D01*
X133079060Y-113179577D01*
X132752388Y-113269591D01*
G36*
X118578907Y-114420981D02*
X118757828Y-114940283D01*
X119059443Y-115621873D01*
X119411538Y-116315278D01*
X119741898Y-116870024D01*
X119978306Y-117135638D01*
X119999489Y-117141168D01*
X120107989Y-116953191D01*
X120043585Y-116687600D01*
X119867338Y-116091510D01*
X119713489Y-115356067D01*
X119559825Y-114810103D01*
X119375726Y-114616236D01*
X119353658Y-114625165D01*
X119041555Y-114571202D01*
X118970948Y-114486172D01*
X118662981Y-114226320D01*
X118594897Y-114214442D01*
X118578907Y-114420981D01*
X118578907Y-114420981D01*
G37*
X118578907Y-114420981D02*
X118757828Y-114940283D01*
X119059443Y-115621873D01*
X119411538Y-116315278D01*
X119741898Y-116870024D01*
X119978306Y-117135638D01*
X119999489Y-117141168D01*
X120107989Y-116953191D01*
X120043585Y-116687600D01*
X119867338Y-116091510D01*
X119713489Y-115356067D01*
X119559825Y-114810103D01*
X119375726Y-114616236D01*
X119353658Y-114625165D01*
X119041555Y-114571202D01*
X118970948Y-114486172D01*
X118662981Y-114226320D01*
X118594897Y-114214442D01*
X118578907Y-114420981D01*
G36*
X116969871Y-113962555D02*
X116962989Y-114080758D01*
X117162123Y-114435560D01*
X117335057Y-114481811D01*
X117671719Y-114706708D01*
X117889096Y-115217549D01*
X117924629Y-115768558D01*
X117746345Y-116097609D01*
X117569383Y-116420041D01*
X117767595Y-116751999D01*
X118181926Y-116888127D01*
X118502162Y-116667566D01*
X118567200Y-116393287D01*
X118468199Y-115715863D01*
X118225026Y-114921454D01*
X117918420Y-114232005D01*
X117654457Y-113884326D01*
X117174287Y-113696611D01*
X116969871Y-113962555D01*
X116969871Y-113962555D01*
G37*
X116969871Y-113962555D02*
X116962989Y-114080758D01*
X117162123Y-114435560D01*
X117335057Y-114481811D01*
X117671719Y-114706708D01*
X117889096Y-115217549D01*
X117924629Y-115768558D01*
X117746345Y-116097609D01*
X117569383Y-116420041D01*
X117767595Y-116751999D01*
X118181926Y-116888127D01*
X118502162Y-116667566D01*
X118567200Y-116393287D01*
X118468199Y-115715863D01*
X118225026Y-114921454D01*
X117918420Y-114232005D01*
X117654457Y-113884326D01*
X117174287Y-113696611D01*
X116969871Y-113962555D01*
G36*
X127946504Y-111761609D02*
X128059177Y-112331528D01*
X128308322Y-113126834D01*
X128645291Y-114019756D01*
X129021440Y-114882520D01*
X129388123Y-115587352D01*
X129696693Y-116006480D01*
X129726953Y-116031102D01*
X130359797Y-116251517D01*
X130782919Y-116230647D01*
X131309006Y-116218977D01*
X131533962Y-116352408D01*
X131946990Y-116597971D01*
X132497304Y-116557706D01*
X132889906Y-116260542D01*
X132909238Y-116217540D01*
X132903926Y-115723223D01*
X132689979Y-115032105D01*
X132636952Y-114914453D01*
X132320162Y-114134202D01*
X132123968Y-113446590D01*
X132116338Y-113401265D01*
X131810663Y-112826276D01*
X131444443Y-112574020D01*
X131056589Y-112471686D01*
X130902086Y-112599034D01*
X130969647Y-113043501D01*
X131247984Y-113892524D01*
X131267200Y-113947074D01*
X131507649Y-114702411D01*
X131639813Y-115262787D01*
X131649366Y-115384373D01*
X131554614Y-115369096D01*
X131338177Y-114991832D01*
X131061729Y-114392911D01*
X130786947Y-113712665D01*
X130575507Y-113091421D01*
X130497834Y-112764298D01*
X130185182Y-112263117D01*
X129834811Y-112123300D01*
X129255196Y-112037420D01*
X129819416Y-113545433D01*
X130096069Y-114365635D01*
X130243473Y-114969428D01*
X130239502Y-115197579D01*
X130065469Y-115069652D01*
X129791582Y-114576686D01*
X129482669Y-113862388D01*
X129203560Y-113070465D01*
X129079319Y-112625834D01*
X128709979Y-111851066D01*
X128100231Y-111548864D01*
X128018947Y-111544852D01*
X127946504Y-111761609D01*
X127946504Y-111761609D01*
G37*
X127946504Y-111761609D02*
X128059177Y-112331528D01*
X128308322Y-113126834D01*
X128645291Y-114019756D01*
X129021440Y-114882520D01*
X129388123Y-115587352D01*
X129696693Y-116006480D01*
X129726953Y-116031102D01*
X130359797Y-116251517D01*
X130782919Y-116230647D01*
X131309006Y-116218977D01*
X131533962Y-116352408D01*
X131946990Y-116597971D01*
X132497304Y-116557706D01*
X132889906Y-116260542D01*
X132909238Y-116217540D01*
X132903926Y-115723223D01*
X132689979Y-115032105D01*
X132636952Y-114914453D01*
X132320162Y-114134202D01*
X132123968Y-113446590D01*
X132116338Y-113401265D01*
X131810663Y-112826276D01*
X131444443Y-112574020D01*
X131056589Y-112471686D01*
X130902086Y-112599034D01*
X130969647Y-113043501D01*
X131247984Y-113892524D01*
X131267200Y-113947074D01*
X131507649Y-114702411D01*
X131639813Y-115262787D01*
X131649366Y-115384373D01*
X131554614Y-115369096D01*
X131338177Y-114991832D01*
X131061729Y-114392911D01*
X130786947Y-113712665D01*
X130575507Y-113091421D01*
X130497834Y-112764298D01*
X130185182Y-112263117D01*
X129834811Y-112123300D01*
X129255196Y-112037420D01*
X129819416Y-113545433D01*
X130096069Y-114365635D01*
X130243473Y-114969428D01*
X130239502Y-115197579D01*
X130065469Y-115069652D01*
X129791582Y-114576686D01*
X129482669Y-113862388D01*
X129203560Y-113070465D01*
X129079319Y-112625834D01*
X128709979Y-111851066D01*
X128100231Y-111548864D01*
X128018947Y-111544852D01*
X127946504Y-111761609D01*
G36*
X115954382Y-113549932D02*
X116010850Y-114041105D01*
X116047746Y-114214442D01*
X116206866Y-115060666D01*
X116298743Y-115804554D01*
X116299648Y-115818653D01*
X116479499Y-116358311D01*
X116760729Y-116568717D01*
X116986319Y-116565640D01*
X117046352Y-116360253D01*
X116941954Y-115838482D01*
X116773926Y-115231875D01*
X116496871Y-114382987D01*
X116239715Y-113780170D01*
X116044777Y-113482719D01*
X115954382Y-113549932D01*
X115954382Y-113549932D01*
G37*
X115954382Y-113549932D02*
X116010850Y-114041105D01*
X116047746Y-114214442D01*
X116206866Y-115060666D01*
X116298743Y-115804554D01*
X116299648Y-115818653D01*
X116479499Y-116358311D01*
X116760729Y-116568717D01*
X116986319Y-116565640D01*
X117046352Y-116360253D01*
X116941954Y-115838482D01*
X116773926Y-115231875D01*
X116496871Y-114382987D01*
X116239715Y-113780170D01*
X116044777Y-113482719D01*
X115954382Y-113549932D01*
G36*
X114107196Y-112970587D02*
X114079549Y-113303232D01*
X114189741Y-113954060D01*
X114390189Y-114739695D01*
X114633309Y-115476760D01*
X114871517Y-115981881D01*
X114898268Y-116019179D01*
X115296438Y-116317037D01*
X115667251Y-116326237D01*
X115818669Y-116068746D01*
X115783618Y-115917913D01*
X115709154Y-115684969D01*
X115358779Y-115684969D01*
X115225094Y-115818653D01*
X115091410Y-115684969D01*
X115225094Y-115551284D01*
X115358779Y-115684969D01*
X115709154Y-115684969D01*
X115617605Y-115398582D01*
X115474461Y-114882863D01*
X115091410Y-114882863D01*
X114957726Y-115016548D01*
X114824042Y-114882863D01*
X114957726Y-114749179D01*
X115091410Y-114882863D01*
X115474461Y-114882863D01*
X115399106Y-114611379D01*
X115316486Y-114290931D01*
X115189604Y-113947074D01*
X114824042Y-113947074D01*
X114726216Y-114167148D01*
X114645796Y-114125320D01*
X114613797Y-113808016D01*
X114645796Y-113768828D01*
X114804746Y-113805530D01*
X114824042Y-113947074D01*
X115189604Y-113947074D01*
X115006420Y-113450637D01*
X114620647Y-112955625D01*
X114230137Y-112883383D01*
X114107196Y-112970587D01*
X114107196Y-112970587D01*
G37*
X114107196Y-112970587D02*
X114079549Y-113303232D01*
X114189741Y-113954060D01*
X114390189Y-114739695D01*
X114633309Y-115476760D01*
X114871517Y-115981881D01*
X114898268Y-116019179D01*
X115296438Y-116317037D01*
X115667251Y-116326237D01*
X115818669Y-116068746D01*
X115783618Y-115917913D01*
X115709154Y-115684969D01*
X115358779Y-115684969D01*
X115225094Y-115818653D01*
X115091410Y-115684969D01*
X115225094Y-115551284D01*
X115358779Y-115684969D01*
X115709154Y-115684969D01*
X115617605Y-115398582D01*
X115474461Y-114882863D01*
X115091410Y-114882863D01*
X114957726Y-115016548D01*
X114824042Y-114882863D01*
X114957726Y-114749179D01*
X115091410Y-114882863D01*
X115474461Y-114882863D01*
X115399106Y-114611379D01*
X115316486Y-114290931D01*
X115189604Y-113947074D01*
X114824042Y-113947074D01*
X114726216Y-114167148D01*
X114645796Y-114125320D01*
X114613797Y-113808016D01*
X114645796Y-113768828D01*
X114804746Y-113805530D01*
X114824042Y-113947074D01*
X115189604Y-113947074D01*
X115006420Y-113450637D01*
X114620647Y-112955625D01*
X114230137Y-112883383D01*
X114107196Y-112970587D01*
G36*
X112225932Y-112342863D02*
X112361645Y-112802625D01*
X112592748Y-113588443D01*
X112815780Y-114348127D01*
X113084744Y-115195162D01*
X113273983Y-115582312D01*
X113422889Y-115570991D01*
X113501693Y-115417600D01*
X113667730Y-115083637D01*
X113730543Y-115241057D01*
X113735776Y-115334979D01*
X113851039Y-115709513D01*
X114070943Y-115991732D01*
X114253011Y-116034833D01*
X114285367Y-115901274D01*
X114208805Y-115547140D01*
X114014373Y-114850503D01*
X113804247Y-114156655D01*
X113464526Y-113162107D01*
X113192436Y-112547574D01*
X113013347Y-112358924D01*
X112952463Y-112616772D01*
X112835975Y-112753477D01*
X112529584Y-112460808D01*
X112247418Y-112182085D01*
X112225932Y-112342863D01*
X112225932Y-112342863D01*
G37*
X112225932Y-112342863D02*
X112361645Y-112802625D01*
X112592748Y-113588443D01*
X112815780Y-114348127D01*
X113084744Y-115195162D01*
X113273983Y-115582312D01*
X113422889Y-115570991D01*
X113501693Y-115417600D01*
X113667730Y-115083637D01*
X113730543Y-115241057D01*
X113735776Y-115334979D01*
X113851039Y-115709513D01*
X114070943Y-115991732D01*
X114253011Y-116034833D01*
X114285367Y-115901274D01*
X114208805Y-115547140D01*
X114014373Y-114850503D01*
X113804247Y-114156655D01*
X113464526Y-113162107D01*
X113192436Y-112547574D01*
X113013347Y-112358924D01*
X112952463Y-112616772D01*
X112835975Y-112753477D01*
X112529584Y-112460808D01*
X112247418Y-112182085D01*
X112225932Y-112342863D01*
G36*
X124775093Y-110591111D02*
X124805717Y-110874319D01*
X124976177Y-111544269D01*
X125254477Y-112481328D01*
X125416556Y-112989592D01*
X125841065Y-114192595D01*
X126197365Y-114952073D01*
X126527563Y-115347735D01*
X126710013Y-115438228D01*
X127387939Y-115629457D01*
X127702067Y-115717059D01*
X128172711Y-115683136D01*
X128322656Y-115556933D01*
X128360363Y-115135941D01*
X128267194Y-114663124D01*
X127390358Y-114663124D01*
X127186205Y-114748109D01*
X127148122Y-114749179D01*
X126929964Y-114518806D01*
X126642218Y-113931211D01*
X126479701Y-113498393D01*
X126190193Y-112541198D01*
X126064497Y-111882417D01*
X126110304Y-111593696D01*
X126285347Y-111687811D01*
X126465508Y-112030952D01*
X126737605Y-112689918D01*
X127029870Y-113471470D01*
X127270535Y-114182371D01*
X127387833Y-114629383D01*
X127390358Y-114663124D01*
X128267194Y-114663124D01*
X128227878Y-114463607D01*
X128185474Y-114326950D01*
X127963854Y-113617232D01*
X127826740Y-113107987D01*
X127817664Y-113062178D01*
X127416578Y-112024595D01*
X126687533Y-111191727D01*
X125867595Y-110758349D01*
X125209203Y-110608109D01*
X124811050Y-110576441D01*
X124775093Y-110591111D01*
X124775093Y-110591111D01*
G37*
X124775093Y-110591111D02*
X124805717Y-110874319D01*
X124976177Y-111544269D01*
X125254477Y-112481328D01*
X125416556Y-112989592D01*
X125841065Y-114192595D01*
X126197365Y-114952073D01*
X126527563Y-115347735D01*
X126710013Y-115438228D01*
X127387939Y-115629457D01*
X127702067Y-115717059D01*
X128172711Y-115683136D01*
X128322656Y-115556933D01*
X128360363Y-115135941D01*
X128267194Y-114663124D01*
X127390358Y-114663124D01*
X127186205Y-114748109D01*
X127148122Y-114749179D01*
X126929964Y-114518806D01*
X126642218Y-113931211D01*
X126479701Y-113498393D01*
X126190193Y-112541198D01*
X126064497Y-111882417D01*
X126110304Y-111593696D01*
X126285347Y-111687811D01*
X126465508Y-112030952D01*
X126737605Y-112689918D01*
X127029870Y-113471470D01*
X127270535Y-114182371D01*
X127387833Y-114629383D01*
X127390358Y-114663124D01*
X128267194Y-114663124D01*
X128227878Y-114463607D01*
X128185474Y-114326950D01*
X127963854Y-113617232D01*
X127826740Y-113107987D01*
X127817664Y-113062178D01*
X127416578Y-112024595D01*
X126687533Y-111191727D01*
X125867595Y-110758349D01*
X125209203Y-110608109D01*
X124811050Y-110576441D01*
X124775093Y-110591111D01*
G36*
X110813516Y-111794237D02*
X111020614Y-112091966D01*
X111092407Y-112123897D01*
X111336228Y-112430919D01*
X111458723Y-112881441D01*
X111633879Y-113670839D01*
X111815736Y-114214442D01*
X111939151Y-114737643D01*
X111848806Y-114972541D01*
X111709675Y-115185335D01*
X111921140Y-115435280D01*
X112328427Y-115551284D01*
X112622764Y-115386234D01*
X112616299Y-115217074D01*
X112476831Y-114790174D01*
X112248080Y-114036283D01*
X112053910Y-113374466D01*
X111753549Y-112533885D01*
X111428747Y-111922318D01*
X111215521Y-111711805D01*
X110870128Y-111695224D01*
X110813516Y-111794237D01*
X110813516Y-111794237D01*
G37*
X110813516Y-111794237D02*
X111020614Y-112091966D01*
X111092407Y-112123897D01*
X111336228Y-112430919D01*
X111458723Y-112881441D01*
X111633879Y-113670839D01*
X111815736Y-114214442D01*
X111939151Y-114737643D01*
X111848806Y-114972541D01*
X111709675Y-115185335D01*
X111921140Y-115435280D01*
X112328427Y-115551284D01*
X112622764Y-115386234D01*
X112616299Y-115217074D01*
X112476831Y-114790174D01*
X112248080Y-114036283D01*
X112053910Y-113374466D01*
X111753549Y-112533885D01*
X111428747Y-111922318D01*
X111215521Y-111711805D01*
X110870128Y-111695224D01*
X110813516Y-111794237D01*
G36*
X109282496Y-111438675D02*
X109287287Y-111607600D01*
X109580554Y-111875398D01*
X109705772Y-111876585D01*
X109892199Y-112079216D01*
X109971864Y-112758191D01*
X109971688Y-113144012D01*
X110045646Y-114125633D01*
X110281699Y-114856713D01*
X110628256Y-115250674D01*
X111033726Y-115220934D01*
X111151585Y-115124092D01*
X111223425Y-114752756D01*
X110985082Y-114364057D01*
X110639111Y-114214442D01*
X110393883Y-114080695D01*
X110376655Y-113604009D01*
X110424822Y-113306806D01*
X110446652Y-112427984D01*
X110212399Y-111712769D01*
X109784806Y-111311940D01*
X109578670Y-111273390D01*
X109282496Y-111438675D01*
X109282496Y-111438675D01*
G37*
X109282496Y-111438675D02*
X109287287Y-111607600D01*
X109580554Y-111875398D01*
X109705772Y-111876585D01*
X109892199Y-112079216D01*
X109971864Y-112758191D01*
X109971688Y-113144012D01*
X110045646Y-114125633D01*
X110281699Y-114856713D01*
X110628256Y-115250674D01*
X111033726Y-115220934D01*
X111151585Y-115124092D01*
X111223425Y-114752756D01*
X110985082Y-114364057D01*
X110639111Y-114214442D01*
X110393883Y-114080695D01*
X110376655Y-113604009D01*
X110424822Y-113306806D01*
X110446652Y-112427984D01*
X110212399Y-111712769D01*
X109784806Y-111311940D01*
X109578670Y-111273390D01*
X109282496Y-111438675D01*
G36*
X118091897Y-107503775D02*
X118175855Y-107828187D01*
X118233419Y-108227632D01*
X118061107Y-108216356D01*
X117809166Y-108204681D01*
X117759611Y-108504380D01*
X117883325Y-108944799D01*
X118151194Y-109355286D01*
X118273302Y-109460083D01*
X118662776Y-109922725D01*
X118988286Y-110624154D01*
X119198594Y-111384331D01*
X119242462Y-112023219D01*
X119094955Y-112347178D01*
X118913819Y-112634179D01*
X119083739Y-113110966D01*
X119516607Y-113541129D01*
X120060843Y-113667888D01*
X120504770Y-113464444D01*
X120600133Y-113302958D01*
X120626691Y-112813987D01*
X120508810Y-112083684D01*
X120465651Y-111915564D01*
X120316234Y-111013038D01*
X120363181Y-110247504D01*
X120584864Y-109763497D01*
X120801974Y-109668180D01*
X120800858Y-109550561D01*
X120427710Y-109257792D01*
X120238252Y-109137373D01*
X119673615Y-108705693D01*
X119380755Y-108311069D01*
X119369305Y-108245499D01*
X119150358Y-107881358D01*
X118681947Y-107570252D01*
X118206089Y-107385711D01*
X118091897Y-107503775D01*
X118091897Y-107503775D01*
G37*
X118091897Y-107503775D02*
X118175855Y-107828187D01*
X118233419Y-108227632D01*
X118061107Y-108216356D01*
X117809166Y-108204681D01*
X117759611Y-108504380D01*
X117883325Y-108944799D01*
X118151194Y-109355286D01*
X118273302Y-109460083D01*
X118662776Y-109922725D01*
X118988286Y-110624154D01*
X119198594Y-111384331D01*
X119242462Y-112023219D01*
X119094955Y-112347178D01*
X118913819Y-112634179D01*
X119083739Y-113110966D01*
X119516607Y-113541129D01*
X120060843Y-113667888D01*
X120504770Y-113464444D01*
X120600133Y-113302958D01*
X120626691Y-112813987D01*
X120508810Y-112083684D01*
X120465651Y-111915564D01*
X120316234Y-111013038D01*
X120363181Y-110247504D01*
X120584864Y-109763497D01*
X120801974Y-109668180D01*
X120800858Y-109550561D01*
X120427710Y-109257792D01*
X120238252Y-109137373D01*
X119673615Y-108705693D01*
X119380755Y-108311069D01*
X119369305Y-108245499D01*
X119150358Y-107881358D01*
X118681947Y-107570252D01*
X118206089Y-107385711D01*
X118091897Y-107503775D01*
G36*
X114324656Y-106336285D02*
X114340855Y-106624260D01*
X114472103Y-107299376D01*
X114686038Y-108234758D01*
X114950300Y-109303529D01*
X115232526Y-110378813D01*
X115500356Y-111333734D01*
X115721429Y-112041417D01*
X115863383Y-112374985D01*
X115865486Y-112377276D01*
X116255931Y-112561595D01*
X116897504Y-112699461D01*
X117567300Y-112762541D01*
X118042411Y-112722502D01*
X118132063Y-112665381D01*
X118207462Y-112205196D01*
X118142974Y-111492304D01*
X118105282Y-111343497D01*
X116929232Y-111343497D01*
X116848674Y-111488522D01*
X116658673Y-111243508D01*
X116398685Y-110663668D01*
X116108167Y-109804215D01*
X116056801Y-109628029D01*
X115791437Y-108678347D01*
X115665172Y-108131242D01*
X115667499Y-107875911D01*
X115787909Y-107801549D01*
X115883210Y-107797600D01*
X116119171Y-108051337D01*
X116392377Y-108764965D01*
X116679219Y-109867114D01*
X116860890Y-110753219D01*
X116929232Y-111343497D01*
X118105282Y-111343497D01*
X117963257Y-110782790D01*
X117946524Y-110738653D01*
X117791632Y-110272678D01*
X117554595Y-109486485D01*
X117358898Y-108805174D01*
X117076667Y-107947819D01*
X116790345Y-107308118D01*
X116611243Y-107069444D01*
X116097488Y-106814512D01*
X115420471Y-106562011D01*
X114778800Y-106375621D01*
X114371085Y-106319022D01*
X114324656Y-106336285D01*
X114324656Y-106336285D01*
G37*
X114324656Y-106336285D02*
X114340855Y-106624260D01*
X114472103Y-107299376D01*
X114686038Y-108234758D01*
X114950300Y-109303529D01*
X115232526Y-110378813D01*
X115500356Y-111333734D01*
X115721429Y-112041417D01*
X115863383Y-112374985D01*
X115865486Y-112377276D01*
X116255931Y-112561595D01*
X116897504Y-112699461D01*
X117567300Y-112762541D01*
X118042411Y-112722502D01*
X118132063Y-112665381D01*
X118207462Y-112205196D01*
X118142974Y-111492304D01*
X118105282Y-111343497D01*
X116929232Y-111343497D01*
X116848674Y-111488522D01*
X116658673Y-111243508D01*
X116398685Y-110663668D01*
X116108167Y-109804215D01*
X116056801Y-109628029D01*
X115791437Y-108678347D01*
X115665172Y-108131242D01*
X115667499Y-107875911D01*
X115787909Y-107801549D01*
X115883210Y-107797600D01*
X116119171Y-108051337D01*
X116392377Y-108764965D01*
X116679219Y-109867114D01*
X116860890Y-110753219D01*
X116929232Y-111343497D01*
X118105282Y-111343497D01*
X117963257Y-110782790D01*
X117946524Y-110738653D01*
X117791632Y-110272678D01*
X117554595Y-109486485D01*
X117358898Y-108805174D01*
X117076667Y-107947819D01*
X116790345Y-107308118D01*
X116611243Y-107069444D01*
X116097488Y-106814512D01*
X115420471Y-106562011D01*
X114778800Y-106375621D01*
X114371085Y-106319022D01*
X114324656Y-106336285D01*
G36*
X126661945Y-106483658D02*
X126720547Y-106630077D01*
X127005045Y-106853308D01*
X127321864Y-107162782D01*
X127214251Y-107243809D01*
X126749965Y-107076973D01*
X126560576Y-106980683D01*
X126027513Y-106835829D01*
X125495799Y-106877963D01*
X125151064Y-107064534D01*
X125144019Y-107305406D01*
X125506813Y-107472064D01*
X125816322Y-107444871D01*
X126225737Y-107451943D01*
X126320884Y-107586432D01*
X126098969Y-107746328D01*
X125646082Y-107730942D01*
X125029232Y-107716295D01*
X124837311Y-107910595D01*
X125113624Y-108203884D01*
X125406087Y-108340318D01*
X125872284Y-108577519D01*
X125979811Y-108762533D01*
X125660416Y-108767131D01*
X125274309Y-108611961D01*
X124826643Y-108442370D01*
X124739440Y-108564068D01*
X124985464Y-108900059D01*
X125537478Y-109373349D01*
X125545837Y-109379539D01*
X126354604Y-109815356D01*
X127137241Y-109839998D01*
X127160945Y-109835377D01*
X127725940Y-109817103D01*
X128364239Y-110029978D01*
X129225018Y-110528706D01*
X129445302Y-110673078D01*
X130325906Y-111216162D01*
X131070953Y-111531867D01*
X131913794Y-111693885D01*
X132910194Y-111767270D01*
X133857497Y-111794921D01*
X134554728Y-111776802D01*
X134870364Y-111717116D01*
X134876673Y-111704432D01*
X134657745Y-111501377D01*
X134119639Y-111212573D01*
X134007726Y-111162283D01*
X133138779Y-110782273D01*
X134074568Y-110756812D01*
X134913659Y-110690621D01*
X135624316Y-110566918D01*
X135628382Y-110565834D01*
X135962300Y-110445125D01*
X135930028Y-110300808D01*
X135478164Y-110058505D01*
X135160487Y-109914136D01*
X134506760Y-109594221D01*
X134119805Y-109352237D01*
X134074568Y-109293710D01*
X134296051Y-109117338D01*
X134859279Y-108819837D01*
X135243222Y-108642514D01*
X135977992Y-108271534D01*
X136495303Y-107926374D01*
X136609492Y-107805813D01*
X136538458Y-107705859D01*
X136110849Y-107852511D01*
X135908733Y-107951678D01*
X135347379Y-108174178D01*
X134621167Y-108313041D01*
X133610201Y-108382108D01*
X132194582Y-108395223D01*
X132074242Y-108394380D01*
X130775690Y-108376685D01*
X129902597Y-108333993D01*
X129345700Y-108245661D01*
X128995740Y-108091046D01*
X128743455Y-107849504D01*
X128665388Y-107750323D01*
X128098825Y-107029953D01*
X127716512Y-106642839D01*
X127391803Y-106487164D01*
X127061346Y-106460758D01*
X126661945Y-106483658D01*
X126661945Y-106483658D01*
G37*
X126661945Y-106483658D02*
X126720547Y-106630077D01*
X127005045Y-106853308D01*
X127321864Y-107162782D01*
X127214251Y-107243809D01*
X126749965Y-107076973D01*
X126560576Y-106980683D01*
X126027513Y-106835829D01*
X125495799Y-106877963D01*
X125151064Y-107064534D01*
X125144019Y-107305406D01*
X125506813Y-107472064D01*
X125816322Y-107444871D01*
X126225737Y-107451943D01*
X126320884Y-107586432D01*
X126098969Y-107746328D01*
X125646082Y-107730942D01*
X125029232Y-107716295D01*
X124837311Y-107910595D01*
X125113624Y-108203884D01*
X125406087Y-108340318D01*
X125872284Y-108577519D01*
X125979811Y-108762533D01*
X125660416Y-108767131D01*
X125274309Y-108611961D01*
X124826643Y-108442370D01*
X124739440Y-108564068D01*
X124985464Y-108900059D01*
X125537478Y-109373349D01*
X125545837Y-109379539D01*
X126354604Y-109815356D01*
X127137241Y-109839998D01*
X127160945Y-109835377D01*
X127725940Y-109817103D01*
X128364239Y-110029978D01*
X129225018Y-110528706D01*
X129445302Y-110673078D01*
X130325906Y-111216162D01*
X131070953Y-111531867D01*
X131913794Y-111693885D01*
X132910194Y-111767270D01*
X133857497Y-111794921D01*
X134554728Y-111776802D01*
X134870364Y-111717116D01*
X134876673Y-111704432D01*
X134657745Y-111501377D01*
X134119639Y-111212573D01*
X134007726Y-111162283D01*
X133138779Y-110782273D01*
X134074568Y-110756812D01*
X134913659Y-110690621D01*
X135624316Y-110566918D01*
X135628382Y-110565834D01*
X135962300Y-110445125D01*
X135930028Y-110300808D01*
X135478164Y-110058505D01*
X135160487Y-109914136D01*
X134506760Y-109594221D01*
X134119805Y-109352237D01*
X134074568Y-109293710D01*
X134296051Y-109117338D01*
X134859279Y-108819837D01*
X135243222Y-108642514D01*
X135977992Y-108271534D01*
X136495303Y-107926374D01*
X136609492Y-107805813D01*
X136538458Y-107705859D01*
X136110849Y-107852511D01*
X135908733Y-107951678D01*
X135347379Y-108174178D01*
X134621167Y-108313041D01*
X133610201Y-108382108D01*
X132194582Y-108395223D01*
X132074242Y-108394380D01*
X130775690Y-108376685D01*
X129902597Y-108333993D01*
X129345700Y-108245661D01*
X128995740Y-108091046D01*
X128743455Y-107849504D01*
X128665388Y-107750323D01*
X128098825Y-107029953D01*
X127716512Y-106642839D01*
X127391803Y-106487164D01*
X127061346Y-106460758D01*
X126661945Y-106483658D01*
G36*
X111681809Y-104726785D02*
X111713879Y-105215186D01*
X111504430Y-105298356D01*
X111418083Y-105270094D01*
X111173374Y-105330609D01*
X111156602Y-105692743D01*
X111323871Y-106197628D01*
X111631287Y-106686392D01*
X111871308Y-106910459D01*
X112297129Y-107420559D01*
X112533557Y-107991889D01*
X112716530Y-108718528D01*
X112849493Y-109201284D01*
X112808673Y-109596114D01*
X112569428Y-109669179D01*
X112231782Y-109728924D01*
X112209901Y-109972290D01*
X112515544Y-110495474D01*
X112703301Y-110764221D01*
X113166460Y-111309610D01*
X113633018Y-111479618D01*
X114345714Y-111360081D01*
X114370345Y-111353720D01*
X114687586Y-111137583D01*
X114609461Y-110916840D01*
X114370230Y-110437769D01*
X114147189Y-109720860D01*
X113976589Y-108940733D01*
X113894679Y-108272008D01*
X113937707Y-107889305D01*
X113974474Y-107857982D01*
X114131105Y-107572459D01*
X114046330Y-107054376D01*
X113776485Y-106515348D01*
X113552371Y-106272459D01*
X113277926Y-105771846D01*
X113285365Y-105436928D01*
X113241203Y-105014171D01*
X112797113Y-104639315D01*
X112484255Y-104477317D01*
X111548850Y-104031253D01*
X111681809Y-104726785D01*
X111681809Y-104726785D01*
G37*
X111681809Y-104726785D02*
X111713879Y-105215186D01*
X111504430Y-105298356D01*
X111418083Y-105270094D01*
X111173374Y-105330609D01*
X111156602Y-105692743D01*
X111323871Y-106197628D01*
X111631287Y-106686392D01*
X111871308Y-106910459D01*
X112297129Y-107420559D01*
X112533557Y-107991889D01*
X112716530Y-108718528D01*
X112849493Y-109201284D01*
X112808673Y-109596114D01*
X112569428Y-109669179D01*
X112231782Y-109728924D01*
X112209901Y-109972290D01*
X112515544Y-110495474D01*
X112703301Y-110764221D01*
X113166460Y-111309610D01*
X113633018Y-111479618D01*
X114345714Y-111360081D01*
X114370345Y-111353720D01*
X114687586Y-111137583D01*
X114609461Y-110916840D01*
X114370230Y-110437769D01*
X114147189Y-109720860D01*
X113976589Y-108940733D01*
X113894679Y-108272008D01*
X113937707Y-107889305D01*
X113974474Y-107857982D01*
X114131105Y-107572459D01*
X114046330Y-107054376D01*
X113776485Y-106515348D01*
X113552371Y-106272459D01*
X113277926Y-105771846D01*
X113285365Y-105436928D01*
X113241203Y-105014171D01*
X112797113Y-104639315D01*
X112484255Y-104477317D01*
X111548850Y-104031253D01*
X111681809Y-104726785D01*
G36*
X108139831Y-110948990D02*
X107576765Y-111100251D01*
X107337792Y-111300672D01*
X107337726Y-111303736D01*
X107557585Y-111477056D01*
X108046994Y-111537266D01*
X108550696Y-111473844D01*
X108763691Y-111362513D01*
X108935502Y-111038518D01*
X108624632Y-110913306D01*
X108139831Y-110948990D01*
X108139831Y-110948990D01*
G37*
X108139831Y-110948990D02*
X107576765Y-111100251D01*
X107337792Y-111300672D01*
X107337726Y-111303736D01*
X107557585Y-111477056D01*
X108046994Y-111537266D01*
X108550696Y-111473844D01*
X108763691Y-111362513D01*
X108935502Y-111038518D01*
X108624632Y-110913306D01*
X108139831Y-110948990D01*
G36*
X107504056Y-109989866D02*
X107107830Y-110123780D01*
X107070358Y-110188137D01*
X107243642Y-110507368D01*
X107808127Y-110568992D01*
X108139831Y-110529197D01*
X108845488Y-110348217D01*
X109061165Y-110143924D01*
X108780671Y-109984958D01*
X108193305Y-109936548D01*
X107504056Y-109989866D01*
X107504056Y-109989866D01*
G37*
X107504056Y-109989866D02*
X107107830Y-110123780D01*
X107070358Y-110188137D01*
X107243642Y-110507368D01*
X107808127Y-110568992D01*
X108139831Y-110529197D01*
X108845488Y-110348217D01*
X109061165Y-110143924D01*
X108780671Y-109984958D01*
X108193305Y-109936548D01*
X107504056Y-109989866D01*
G36*
X107167475Y-102764754D02*
X107461447Y-103506518D01*
X107929194Y-104050978D01*
X107934293Y-104054442D01*
X108603761Y-104570104D01*
X109123748Y-105083337D01*
X109443458Y-105514194D01*
X109512096Y-105782725D01*
X109278864Y-105808981D01*
X108959514Y-105668060D01*
X108445308Y-105430141D01*
X108277441Y-105540437D01*
X108343310Y-106067809D01*
X108656423Y-106705951D01*
X109041497Y-107043624D01*
X109675608Y-107501063D01*
X109999538Y-107975122D01*
X109995256Y-108354581D01*
X109644730Y-108528220D01*
X109276147Y-108490905D01*
X108794283Y-108401458D01*
X108772909Y-108492675D01*
X109008779Y-108691922D01*
X109391071Y-109223505D01*
X109476673Y-109603207D01*
X109683293Y-110098177D01*
X110175421Y-110405568D01*
X110761463Y-110486090D01*
X111249822Y-110300450D01*
X111428035Y-110003390D01*
X111505026Y-109090610D01*
X111386110Y-108080799D01*
X111157525Y-107396227D01*
X110872044Y-106653948D01*
X110608021Y-105647535D01*
X110433494Y-104645556D01*
X110414926Y-104464853D01*
X110142125Y-104004309D01*
X109421603Y-103395277D01*
X108682581Y-102907796D01*
X106995640Y-101876119D01*
X107167475Y-102764754D01*
X107167475Y-102764754D01*
G37*
X107167475Y-102764754D02*
X107461447Y-103506518D01*
X107929194Y-104050978D01*
X107934293Y-104054442D01*
X108603761Y-104570104D01*
X109123748Y-105083337D01*
X109443458Y-105514194D01*
X109512096Y-105782725D01*
X109278864Y-105808981D01*
X108959514Y-105668060D01*
X108445308Y-105430141D01*
X108277441Y-105540437D01*
X108343310Y-106067809D01*
X108656423Y-106705951D01*
X109041497Y-107043624D01*
X109675608Y-107501063D01*
X109999538Y-107975122D01*
X109995256Y-108354581D01*
X109644730Y-108528220D01*
X109276147Y-108490905D01*
X108794283Y-108401458D01*
X108772909Y-108492675D01*
X109008779Y-108691922D01*
X109391071Y-109223505D01*
X109476673Y-109603207D01*
X109683293Y-110098177D01*
X110175421Y-110405568D01*
X110761463Y-110486090D01*
X111249822Y-110300450D01*
X111428035Y-110003390D01*
X111505026Y-109090610D01*
X111386110Y-108080799D01*
X111157525Y-107396227D01*
X110872044Y-106653948D01*
X110608021Y-105647535D01*
X110433494Y-104645556D01*
X110414926Y-104464853D01*
X110142125Y-104004309D01*
X109421603Y-103395277D01*
X108682581Y-102907796D01*
X106995640Y-101876119D01*
X107167475Y-102764754D01*
G36*
X107437001Y-108999840D02*
X107402878Y-109201284D01*
X107685551Y-109435228D01*
X108216342Y-109590409D01*
X108778913Y-109637360D01*
X109156925Y-109546611D01*
X109209305Y-109447356D01*
X108970973Y-109131587D01*
X108370481Y-108917625D01*
X107828315Y-108867074D01*
X107437001Y-108999840D01*
X107437001Y-108999840D01*
G37*
X107437001Y-108999840D02*
X107402878Y-109201284D01*
X107685551Y-109435228D01*
X108216342Y-109590409D01*
X108778913Y-109637360D01*
X109156925Y-109546611D01*
X109209305Y-109447356D01*
X108970973Y-109131587D01*
X108370481Y-108917625D01*
X107828315Y-108867074D01*
X107437001Y-108999840D01*
G36*
X128430819Y-96712058D02*
X128246581Y-96806532D01*
X127450294Y-97109445D01*
X126166775Y-97423122D01*
X124379770Y-97751008D01*
X122332695Y-98060381D01*
X121141020Y-98249688D01*
X120130804Y-98450961D01*
X119430814Y-98636207D01*
X119192180Y-98743127D01*
X118666465Y-98906060D01*
X118370078Y-98856222D01*
X118053299Y-98757615D01*
X118127218Y-98903398D01*
X118354554Y-99138852D01*
X118649789Y-99374786D01*
X119021919Y-99470045D01*
X119617490Y-99432580D01*
X120583050Y-99270344D01*
X120627185Y-99262162D01*
X121846224Y-99085354D01*
X122700320Y-99090501D01*
X123179305Y-99210371D01*
X123691912Y-99461263D01*
X123932831Y-99673176D01*
X123811132Y-99755217D01*
X123714042Y-99744886D01*
X122778049Y-99721435D01*
X122278342Y-99991843D01*
X122228335Y-100522673D01*
X122641442Y-101280487D01*
X122949426Y-101650844D01*
X123493127Y-102319345D01*
X123843171Y-102877794D01*
X123914568Y-103100325D01*
X123672185Y-103714743D01*
X123024426Y-104147508D01*
X122090373Y-104321302D01*
X122033299Y-104321811D01*
X121138260Y-104499225D01*
X120580113Y-104984499D01*
X120438779Y-105522603D01*
X120660347Y-105684262D01*
X121234096Y-105997318D01*
X122023594Y-106395913D01*
X122892408Y-106814189D01*
X123704105Y-107186288D01*
X124322253Y-107446351D01*
X124597802Y-107530232D01*
X124704452Y-107312800D01*
X124716673Y-107141723D01*
X124954526Y-106726039D01*
X125551437Y-106353789D01*
X126332440Y-106095956D01*
X127122566Y-106023519D01*
X127386134Y-106058778D01*
X127917846Y-106248483D01*
X128375154Y-106629296D01*
X128883631Y-107321205D01*
X129148224Y-107742529D01*
X129447572Y-107824341D01*
X130130908Y-107881860D01*
X131047978Y-107913829D01*
X132048531Y-107918990D01*
X132982313Y-107896085D01*
X133699071Y-107843859D01*
X134007726Y-107783194D01*
X134469564Y-107540524D01*
X134609305Y-107376558D01*
X134412094Y-107301277D01*
X134239017Y-107347745D01*
X133822623Y-107308590D01*
X133099858Y-107066536D01*
X132300596Y-106708935D01*
X131207790Y-106253330D01*
X130166164Y-105968240D01*
X129662989Y-105910079D01*
X129021702Y-105886130D01*
X128861703Y-105820831D01*
X129129577Y-105678698D01*
X129244482Y-105632052D01*
X129867104Y-105481485D01*
X130247113Y-105506924D01*
X130582657Y-105553531D01*
X130576042Y-105363053D01*
X130290234Y-105047430D01*
X129809951Y-104729729D01*
X128716606Y-104383403D01*
X127558015Y-104363565D01*
X126546408Y-104663116D01*
X126258091Y-104848552D01*
X125724977Y-105174326D01*
X125142260Y-105249830D01*
X124417298Y-105145215D01*
X123246147Y-104915136D01*
X124413646Y-104885842D01*
X125127418Y-104834294D01*
X125437309Y-104646681D01*
X125404434Y-104203090D01*
X125129981Y-103480294D01*
X125066116Y-103180237D01*
X125195304Y-102885455D01*
X125591965Y-102520162D01*
X126330516Y-102008576D01*
X126989305Y-101586864D01*
X127704912Y-101107665D01*
X127997829Y-100823591D01*
X127916801Y-100677395D01*
X127791410Y-100644845D01*
X127020694Y-100466602D01*
X126766367Y-100269222D01*
X127011636Y-99992851D01*
X127524042Y-99691964D01*
X128161642Y-99338039D01*
X128367027Y-99157278D01*
X128179736Y-99071073D01*
X127858252Y-99027557D01*
X127274988Y-98880663D01*
X127179797Y-98600558D01*
X127562328Y-98127673D01*
X127682491Y-98016241D01*
X128204575Y-97453145D01*
X128504834Y-97018775D01*
X128643548Y-96680668D01*
X128430819Y-96712058D01*
X128430819Y-96712058D01*
G37*
X128430819Y-96712058D02*
X128246581Y-96806532D01*
X127450294Y-97109445D01*
X126166775Y-97423122D01*
X124379770Y-97751008D01*
X122332695Y-98060381D01*
X121141020Y-98249688D01*
X120130804Y-98450961D01*
X119430814Y-98636207D01*
X119192180Y-98743127D01*
X118666465Y-98906060D01*
X118370078Y-98856222D01*
X118053299Y-98757615D01*
X118127218Y-98903398D01*
X118354554Y-99138852D01*
X118649789Y-99374786D01*
X119021919Y-99470045D01*
X119617490Y-99432580D01*
X120583050Y-99270344D01*
X120627185Y-99262162D01*
X121846224Y-99085354D01*
X122700320Y-99090501D01*
X123179305Y-99210371D01*
X123691912Y-99461263D01*
X123932831Y-99673176D01*
X123811132Y-99755217D01*
X123714042Y-99744886D01*
X122778049Y-99721435D01*
X122278342Y-99991843D01*
X122228335Y-100522673D01*
X122641442Y-101280487D01*
X122949426Y-101650844D01*
X123493127Y-102319345D01*
X123843171Y-102877794D01*
X123914568Y-103100325D01*
X123672185Y-103714743D01*
X123024426Y-104147508D01*
X122090373Y-104321302D01*
X122033299Y-104321811D01*
X121138260Y-104499225D01*
X120580113Y-104984499D01*
X120438779Y-105522603D01*
X120660347Y-105684262D01*
X121234096Y-105997318D01*
X122023594Y-106395913D01*
X122892408Y-106814189D01*
X123704105Y-107186288D01*
X124322253Y-107446351D01*
X124597802Y-107530232D01*
X124704452Y-107312800D01*
X124716673Y-107141723D01*
X124954526Y-106726039D01*
X125551437Y-106353789D01*
X126332440Y-106095956D01*
X127122566Y-106023519D01*
X127386134Y-106058778D01*
X127917846Y-106248483D01*
X128375154Y-106629296D01*
X128883631Y-107321205D01*
X129148224Y-107742529D01*
X129447572Y-107824341D01*
X130130908Y-107881860D01*
X131047978Y-107913829D01*
X132048531Y-107918990D01*
X132982313Y-107896085D01*
X133699071Y-107843859D01*
X134007726Y-107783194D01*
X134469564Y-107540524D01*
X134609305Y-107376558D01*
X134412094Y-107301277D01*
X134239017Y-107347745D01*
X133822623Y-107308590D01*
X133099858Y-107066536D01*
X132300596Y-106708935D01*
X131207790Y-106253330D01*
X130166164Y-105968240D01*
X129662989Y-105910079D01*
X129021702Y-105886130D01*
X128861703Y-105820831D01*
X129129577Y-105678698D01*
X129244482Y-105632052D01*
X129867104Y-105481485D01*
X130247113Y-105506924D01*
X130582657Y-105553531D01*
X130576042Y-105363053D01*
X130290234Y-105047430D01*
X129809951Y-104729729D01*
X128716606Y-104383403D01*
X127558015Y-104363565D01*
X126546408Y-104663116D01*
X126258091Y-104848552D01*
X125724977Y-105174326D01*
X125142260Y-105249830D01*
X124417298Y-105145215D01*
X123246147Y-104915136D01*
X124413646Y-104885842D01*
X125127418Y-104834294D01*
X125437309Y-104646681D01*
X125404434Y-104203090D01*
X125129981Y-103480294D01*
X125066116Y-103180237D01*
X125195304Y-102885455D01*
X125591965Y-102520162D01*
X126330516Y-102008576D01*
X126989305Y-101586864D01*
X127704912Y-101107665D01*
X127997829Y-100823591D01*
X127916801Y-100677395D01*
X127791410Y-100644845D01*
X127020694Y-100466602D01*
X126766367Y-100269222D01*
X127011636Y-99992851D01*
X127524042Y-99691964D01*
X128161642Y-99338039D01*
X128367027Y-99157278D01*
X128179736Y-99071073D01*
X127858252Y-99027557D01*
X127274988Y-98880663D01*
X127179797Y-98600558D01*
X127562328Y-98127673D01*
X127682491Y-98016241D01*
X128204575Y-97453145D01*
X128504834Y-97018775D01*
X128643548Y-96680668D01*
X128430819Y-96712058D01*
G36*
X115860299Y-104373783D02*
X115547209Y-104550747D01*
X114799849Y-105043527D01*
X116482998Y-105779947D01*
X117600262Y-106267959D01*
X118309094Y-106565363D01*
X118692237Y-106692949D01*
X118832434Y-106671510D01*
X118812427Y-106521838D01*
X118746161Y-106348653D01*
X118536964Y-105712766D01*
X118396166Y-105203976D01*
X118316217Y-104738284D01*
X118505992Y-104683335D01*
X118865201Y-104842858D01*
X119502989Y-105154109D01*
X118871790Y-104604276D01*
X117992228Y-104161628D01*
X116920950Y-104083711D01*
X115860299Y-104373783D01*
X115860299Y-104373783D01*
G37*
X115860299Y-104373783D02*
X115547209Y-104550747D01*
X114799849Y-105043527D01*
X116482998Y-105779947D01*
X117600262Y-106267959D01*
X118309094Y-106565363D01*
X118692237Y-106692949D01*
X118832434Y-106671510D01*
X118812427Y-106521838D01*
X118746161Y-106348653D01*
X118536964Y-105712766D01*
X118396166Y-105203976D01*
X118316217Y-104738284D01*
X118505992Y-104683335D01*
X118865201Y-104842858D01*
X119502989Y-105154109D01*
X118871790Y-104604276D01*
X117992228Y-104161628D01*
X116920950Y-104083711D01*
X115860299Y-104373783D01*
G36*
X116704280Y-99509036D02*
X115992113Y-100074911D01*
X115895731Y-100175241D01*
X115312502Y-100796061D01*
X117348225Y-100986824D01*
X118460362Y-101119024D01*
X119166662Y-101287941D01*
X119596014Y-101533815D01*
X119782746Y-101746950D01*
X120035190Y-102200090D01*
X119921146Y-102491663D01*
X119724322Y-102650640D01*
X119047510Y-102954691D01*
X118381824Y-102804401D01*
X117631410Y-102182863D01*
X117009502Y-101602034D01*
X116653851Y-101411433D01*
X116598471Y-101610129D01*
X116877378Y-102197189D01*
X116881031Y-102203420D01*
X117638974Y-103192050D01*
X118438093Y-103650349D01*
X119274003Y-103577032D01*
X119990288Y-103113585D01*
X120744956Y-102442499D01*
X119950054Y-101443734D01*
X118949342Y-100289749D01*
X118118044Y-99596164D01*
X117391307Y-99342690D01*
X116704280Y-99509036D01*
X116704280Y-99509036D01*
G37*
X116704280Y-99509036D02*
X115992113Y-100074911D01*
X115895731Y-100175241D01*
X115312502Y-100796061D01*
X117348225Y-100986824D01*
X118460362Y-101119024D01*
X119166662Y-101287941D01*
X119596014Y-101533815D01*
X119782746Y-101746950D01*
X120035190Y-102200090D01*
X119921146Y-102491663D01*
X119724322Y-102650640D01*
X119047510Y-102954691D01*
X118381824Y-102804401D01*
X117631410Y-102182863D01*
X117009502Y-101602034D01*
X116653851Y-101411433D01*
X116598471Y-101610129D01*
X116877378Y-102197189D01*
X116881031Y-102203420D01*
X117638974Y-103192050D01*
X118438093Y-103650349D01*
X119274003Y-103577032D01*
X119990288Y-103113585D01*
X120744956Y-102442499D01*
X119950054Y-101443734D01*
X118949342Y-100289749D01*
X118118044Y-99596164D01*
X117391307Y-99342690D01*
X116704280Y-99509036D01*
G36*
X118110905Y-101423991D02*
X118325634Y-101645021D01*
X118567200Y-101802438D01*
X119016679Y-102081420D01*
X119015750Y-102137584D01*
X118600559Y-102031688D01*
X118156511Y-101976742D01*
X118148444Y-102154219D01*
X118559598Y-102424452D01*
X119048047Y-102363121D01*
X119227330Y-102196278D01*
X119151838Y-101891842D01*
X118859634Y-101661541D01*
X118310283Y-101419198D01*
X118110905Y-101423991D01*
X118110905Y-101423991D01*
G37*
X118110905Y-101423991D02*
X118325634Y-101645021D01*
X118567200Y-101802438D01*
X119016679Y-102081420D01*
X119015750Y-102137584D01*
X118600559Y-102031688D01*
X118156511Y-101976742D01*
X118148444Y-102154219D01*
X118559598Y-102424452D01*
X119048047Y-102363121D01*
X119227330Y-102196278D01*
X119151838Y-101891842D01*
X118859634Y-101661541D01*
X118310283Y-101419198D01*
X118110905Y-101423991D01*
G36*
X121033301Y-99730876D02*
X120812755Y-99946726D01*
X120727873Y-99923659D01*
X120552141Y-100019133D01*
X120527902Y-100189361D01*
X120698857Y-100529011D01*
X121094574Y-100512120D01*
X121488498Y-100201403D01*
X121661652Y-99831629D01*
X121470173Y-99619329D01*
X121120698Y-99605349D01*
X121033301Y-99730876D01*
X121033301Y-99730876D01*
G37*
X121033301Y-99730876D02*
X120812755Y-99946726D01*
X120727873Y-99923659D01*
X120552141Y-100019133D01*
X120527902Y-100189361D01*
X120698857Y-100529011D01*
X121094574Y-100512120D01*
X121488498Y-100201403D01*
X121661652Y-99831629D01*
X121470173Y-99619329D01*
X121120698Y-99605349D01*
X121033301Y-99730876D01*
D11*
X100533800Y-170100000D02*
X140613800Y-170100000D01*
X100533800Y-159990000D02*
X140613800Y-159990000D01*
X100533800Y-170100000D02*
X100533800Y-159990000D01*
X140613800Y-170100000D02*
X140613800Y-159990000D01*
M02*
