%TF.GenerationSoftware,KiCad,Pcbnew,(5.1.10)-1*%
%TF.CreationDate,2021-11-05T18:24:08-05:00*%
%TF.ProjectId,payload_board,7061796c-6f61-4645-9f62-6f6172642e6b,3*%
%TF.SameCoordinates,Original*%
%TF.FileFunction,Legend,Top*%
%TF.FilePolarity,Positive*%
%FSLAX46Y46*%
G04 Gerber Fmt 4.6, Leading zero omitted, Abs format (unit mm)*
G04 Created by KiCad (PCBNEW (5.1.10)-1) date 2021-11-05 18:24:08*
%MOMM*%
%LPD*%
G01*
G04 APERTURE LIST*
%ADD10C,0.125000*%
%ADD11C,0.150000*%
%ADD12C,0.300000*%
%ADD13C,0.120000*%
G04 APERTURE END LIST*
D10*
X82199047Y-155226190D02*
X82508571Y-155226190D01*
X82341904Y-155416666D01*
X82413333Y-155416666D01*
X82460952Y-155440476D01*
X82484761Y-155464285D01*
X82508571Y-155511904D01*
X82508571Y-155630952D01*
X82484761Y-155678571D01*
X82460952Y-155702380D01*
X82413333Y-155726190D01*
X82270476Y-155726190D01*
X82222857Y-155702380D01*
X82199047Y-155678571D01*
X82651428Y-155226190D02*
X82818095Y-155726190D01*
X82984761Y-155226190D01*
X89939047Y-155220000D02*
X89891428Y-155196190D01*
X89820000Y-155196190D01*
X89748571Y-155220000D01*
X89700952Y-155267619D01*
X89677142Y-155315238D01*
X89653333Y-155410476D01*
X89653333Y-155481904D01*
X89677142Y-155577142D01*
X89700952Y-155624761D01*
X89748571Y-155672380D01*
X89820000Y-155696190D01*
X89867619Y-155696190D01*
X89939047Y-155672380D01*
X89962857Y-155648571D01*
X89962857Y-155481904D01*
X89867619Y-155481904D01*
X90177142Y-155696190D02*
X90177142Y-155196190D01*
X90462857Y-155696190D01*
X90462857Y-155196190D01*
X90700952Y-155696190D02*
X90700952Y-155196190D01*
X90820000Y-155196190D01*
X90891428Y-155220000D01*
X90939047Y-155267619D01*
X90962857Y-155315238D01*
X90986666Y-155410476D01*
X90986666Y-155481904D01*
X90962857Y-155577142D01*
X90939047Y-155624761D01*
X90891428Y-155672380D01*
X90820000Y-155696190D01*
X90700952Y-155696190D01*
X87500952Y-155434285D02*
X87667619Y-155434285D01*
X87739047Y-155696190D02*
X87500952Y-155696190D01*
X87500952Y-155196190D01*
X87739047Y-155196190D01*
X87953333Y-155696190D02*
X87953333Y-155196190D01*
X88239047Y-155696190D01*
X88239047Y-155196190D01*
X80084761Y-155196190D02*
X79846666Y-155196190D01*
X79822857Y-155434285D01*
X79846666Y-155410476D01*
X79894285Y-155386666D01*
X80013333Y-155386666D01*
X80060952Y-155410476D01*
X80084761Y-155434285D01*
X80108571Y-155481904D01*
X80108571Y-155600952D01*
X80084761Y-155648571D01*
X80060952Y-155672380D01*
X80013333Y-155696190D01*
X79894285Y-155696190D01*
X79846666Y-155672380D01*
X79822857Y-155648571D01*
X80251428Y-155196190D02*
X80418095Y-155696190D01*
X80584761Y-155196190D01*
X95406666Y-155666190D02*
X95240000Y-155428095D01*
X95120952Y-155666190D02*
X95120952Y-155166190D01*
X95311428Y-155166190D01*
X95359047Y-155190000D01*
X95382857Y-155213809D01*
X95406666Y-155261428D01*
X95406666Y-155332857D01*
X95382857Y-155380476D01*
X95359047Y-155404285D01*
X95311428Y-155428095D01*
X95120952Y-155428095D01*
X95573333Y-155166190D02*
X95906666Y-155666190D01*
X95906666Y-155166190D02*
X95573333Y-155666190D01*
X92519047Y-155166190D02*
X92804761Y-155166190D01*
X92661904Y-155666190D02*
X92661904Y-155166190D01*
X92923809Y-155166190D02*
X93257142Y-155666190D01*
X93257142Y-155166190D02*
X92923809Y-155666190D01*
D11*
X57000000Y-50000000D02*
X118200000Y-50000000D01*
D12*
X86480952Y-53954761D02*
X86480952Y-55383333D01*
X86385714Y-55669047D01*
X86195238Y-55859523D01*
X85909523Y-55954761D01*
X85719047Y-55954761D01*
X87242857Y-53954761D02*
X88576190Y-55954761D01*
X88576190Y-53954761D02*
X87242857Y-55954761D01*
X89147619Y-53954761D02*
X90385714Y-53954761D01*
X89719047Y-54716666D01*
X90004761Y-54716666D01*
X90195238Y-54811904D01*
X90290476Y-54907142D01*
X90385714Y-55097619D01*
X90385714Y-55573809D01*
X90290476Y-55764285D01*
X90195238Y-55859523D01*
X90004761Y-55954761D01*
X89433333Y-55954761D01*
X89242857Y-55859523D01*
X89147619Y-55764285D01*
X85540952Y-138684761D02*
X85540952Y-140113333D01*
X85445714Y-140399047D01*
X85255238Y-140589523D01*
X84969523Y-140684761D01*
X84779047Y-140684761D01*
X86302857Y-138684761D02*
X87636190Y-140684761D01*
X87636190Y-138684761D02*
X86302857Y-140684761D01*
X89255238Y-139351428D02*
X89255238Y-140684761D01*
X88779047Y-138589523D02*
X88302857Y-140018095D01*
X89540952Y-140018095D01*
X59114761Y-102189047D02*
X60543333Y-102189047D01*
X60829047Y-102284285D01*
X61019523Y-102474761D01*
X61114761Y-102760476D01*
X61114761Y-102950952D01*
X59114761Y-101427142D02*
X61114761Y-100093809D01*
X59114761Y-100093809D02*
X61114761Y-101427142D01*
X59305238Y-99427142D02*
X59210000Y-99331904D01*
X59114761Y-99141428D01*
X59114761Y-98665238D01*
X59210000Y-98474761D01*
X59305238Y-98379523D01*
X59495714Y-98284285D01*
X59686190Y-98284285D01*
X59971904Y-98379523D01*
X61114761Y-99522380D01*
X61114761Y-98284285D01*
X114734761Y-100769047D02*
X116163333Y-100769047D01*
X116449047Y-100864285D01*
X116639523Y-101054761D01*
X116734761Y-101340476D01*
X116734761Y-101530952D01*
X114734761Y-100007142D02*
X116734761Y-98673809D01*
X114734761Y-98673809D02*
X116734761Y-100007142D01*
X116734761Y-96864285D02*
X116734761Y-98007142D01*
X116734761Y-97435714D02*
X114734761Y-97435714D01*
X115020476Y-97626190D01*
X115210952Y-97816666D01*
X115306190Y-98007142D01*
D11*
X67395000Y-64355000D02*
X107095000Y-64355000D01*
X67395000Y-56955000D02*
X67395000Y-64355000D01*
X108095000Y-56955000D02*
X67395000Y-56955000D01*
X108095000Y-63355000D02*
X108095000Y-56955000D01*
X107095000Y-64355000D02*
X108095000Y-63355000D01*
X62115000Y-80245000D02*
X62115000Y-119945000D01*
X69515000Y-80245000D02*
X62115000Y-80245000D01*
X69515000Y-120945000D02*
X69515000Y-80245000D01*
X63115000Y-120945000D02*
X69515000Y-120945000D01*
X62115000Y-119945000D02*
X63115000Y-120945000D01*
X67430000Y-137720000D02*
X107130000Y-137720000D01*
X67430000Y-130320000D02*
X67430000Y-137720000D01*
X108130000Y-130320000D02*
X67430000Y-130320000D01*
X108130000Y-136720000D02*
X108130000Y-130320000D01*
X107130000Y-137720000D02*
X108130000Y-136720000D01*
X106765000Y-80245000D02*
X106765000Y-119945000D01*
X114165000Y-80245000D02*
X106765000Y-80245000D01*
X114165000Y-120945000D02*
X114165000Y-80245000D01*
X107765000Y-120945000D02*
X114165000Y-120945000D01*
X106765000Y-119945000D02*
X107765000Y-120945000D01*
D13*
X96780000Y-154460000D02*
X96780000Y-151800000D01*
X81480000Y-154460000D02*
X96780000Y-154460000D01*
X81480000Y-151800000D02*
X96780000Y-151800000D01*
X81480000Y-154460000D02*
X81480000Y-151800000D01*
X80210000Y-154460000D02*
X78880000Y-154460000D01*
X78880000Y-154460000D02*
X78880000Y-153130000D01*
D11*
X109837857Y-61540714D02*
X108637857Y-61540714D01*
X108637857Y-61083571D01*
X108695000Y-60969285D01*
X108752142Y-60912142D01*
X108866428Y-60855000D01*
X109037857Y-60855000D01*
X109152142Y-60912142D01*
X109209285Y-60969285D01*
X109266428Y-61083571D01*
X109266428Y-61540714D01*
X108637857Y-60455000D02*
X108637857Y-59712142D01*
X109095000Y-60112142D01*
X109095000Y-59940714D01*
X109152142Y-59826428D01*
X109209285Y-59769285D01*
X109323571Y-59712142D01*
X109609285Y-59712142D01*
X109723571Y-59769285D01*
X109780714Y-59826428D01*
X109837857Y-59940714D01*
X109837857Y-60283571D01*
X109780714Y-60397857D01*
X109723571Y-60455000D01*
X64929285Y-122687857D02*
X64929285Y-121487857D01*
X65386428Y-121487857D01*
X65500714Y-121545000D01*
X65557857Y-121602142D01*
X65615000Y-121716428D01*
X65615000Y-121887857D01*
X65557857Y-122002142D01*
X65500714Y-122059285D01*
X65386428Y-122116428D01*
X64929285Y-122116428D01*
X66072142Y-121602142D02*
X66129285Y-121545000D01*
X66243571Y-121487857D01*
X66529285Y-121487857D01*
X66643571Y-121545000D01*
X66700714Y-121602142D01*
X66757857Y-121716428D01*
X66757857Y-121830714D01*
X66700714Y-122002142D01*
X66015000Y-122687857D01*
X66757857Y-122687857D01*
X109872857Y-134905714D02*
X108672857Y-134905714D01*
X108672857Y-134448571D01*
X108730000Y-134334285D01*
X108787142Y-134277142D01*
X108901428Y-134220000D01*
X109072857Y-134220000D01*
X109187142Y-134277142D01*
X109244285Y-134334285D01*
X109301428Y-134448571D01*
X109301428Y-134905714D01*
X109072857Y-133191428D02*
X109872857Y-133191428D01*
X108615714Y-133477142D02*
X109472857Y-133762857D01*
X109472857Y-133020000D01*
X109579285Y-122687857D02*
X109579285Y-121487857D01*
X110036428Y-121487857D01*
X110150714Y-121545000D01*
X110207857Y-121602142D01*
X110265000Y-121716428D01*
X110265000Y-121887857D01*
X110207857Y-122002142D01*
X110150714Y-122059285D01*
X110036428Y-122116428D01*
X109579285Y-122116428D01*
X111407857Y-122687857D02*
X110722142Y-122687857D01*
X111065000Y-122687857D02*
X111065000Y-121487857D01*
X110950714Y-121659285D01*
X110836428Y-121773571D01*
X110722142Y-121830714D01*
X78284761Y-153415714D02*
X78332380Y-153510952D01*
X78332380Y-153701428D01*
X78284761Y-153796666D01*
X78189523Y-153844285D01*
X77808571Y-153844285D01*
X77713333Y-153796666D01*
X77665714Y-153701428D01*
X77665714Y-153510952D01*
X77713333Y-153415714D01*
X77808571Y-153368095D01*
X77903809Y-153368095D01*
X77999047Y-153844285D01*
X78332380Y-152415714D02*
X78332380Y-152987142D01*
X78332380Y-152701428D02*
X77332380Y-152701428D01*
X77475238Y-152796666D01*
X77570476Y-152891904D01*
X77618095Y-152987142D01*
M02*
