%TF.GenerationSoftware,KiCad,Pcbnew,(6.0.4-0)*%
%TF.CreationDate,2022-04-21T11:02:12-05:00*%
%TF.ProjectId,payload_board,7061796c-6f61-4645-9f62-6f6172642e6b,3*%
%TF.SameCoordinates,Original*%
%TF.FileFunction,Copper,L3,Inr*%
%TF.FilePolarity,Positive*%
%FSLAX46Y46*%
G04 Gerber Fmt 4.6, Leading zero omitted, Abs format (unit mm)*
G04 Created by KiCad (PCBNEW (6.0.4-0)) date 2022-04-21 11:02:12*
%MOMM*%
%LPD*%
G01*
G04 APERTURE LIST*
%TA.AperFunction,ComponentPad*%
%ADD10C,1.524000*%
%TD*%
%TA.AperFunction,ComponentPad*%
%ADD11C,4.400000*%
%TD*%
%TA.AperFunction,ComponentPad*%
%ADD12C,4.000000*%
%TD*%
%TA.AperFunction,ComponentPad*%
%ADD13C,7.400000*%
%TD*%
%TA.AperFunction,ComponentPad*%
%ADD14C,6.000000*%
%TD*%
%TA.AperFunction,ComponentPad*%
%ADD15R,1.700000X1.700000*%
%TD*%
%TA.AperFunction,ComponentPad*%
%ADD16O,1.700000X1.700000*%
%TD*%
%TA.AperFunction,ComponentPad*%
%ADD17C,0.808000*%
%TD*%
%TA.AperFunction,ComponentPad*%
%ADD18C,1.500000*%
%TD*%
%TA.AperFunction,ComponentPad*%
%ADD19C,1.000000*%
%TD*%
%TA.AperFunction,ViaPad*%
%ADD20C,0.355600*%
%TD*%
G04 APERTURE END LIST*
D10*
X110465000Y-122769200D03*
X110465000Y-78420800D03*
X65815000Y-122769200D03*
X65815000Y-78420800D03*
X65570800Y-60655000D03*
X109919200Y-60655000D03*
D11*
X54130000Y-54630000D03*
D12*
X120870000Y-54630000D03*
D11*
X54130000Y-100560000D03*
D12*
X120870000Y-146480000D03*
D13*
X60970000Y-53960000D03*
D14*
X115120000Y-53960000D03*
X115120000Y-146160000D03*
D15*
X80210000Y-153130000D03*
D16*
X82750000Y-153130000D03*
X85290000Y-153130000D03*
X87830000Y-153130000D03*
X90370000Y-153130000D03*
X92910000Y-153130000D03*
X95450000Y-153130000D03*
D10*
X65605800Y-134020000D03*
X109954200Y-134020000D03*
D13*
X60970000Y-146160000D03*
D11*
X120870000Y-100560000D03*
X54130000Y-146480000D03*
D17*
X60528300Y-108617900D03*
X60528300Y-109532300D03*
X54686300Y-110700700D03*
X54686300Y-111615100D03*
D18*
X66730000Y-141150000D03*
D19*
X65450000Y-142430000D03*
X65450000Y-139870000D03*
X68010000Y-142430000D03*
X68010000Y-139870000D03*
D18*
X90560000Y-83340000D03*
D19*
X91840000Y-84620000D03*
X89280000Y-82060000D03*
X91840000Y-82060000D03*
X89280000Y-84620000D03*
D20*
X68580000Y-134620000D03*
X71020000Y-90020000D03*
X105410000Y-88900000D03*
X71160000Y-118440000D03*
X77490000Y-126700000D03*
X94620000Y-84620000D03*
X93360000Y-113910000D03*
%TA.AperFunction,Conductor*%
G36*
X59257558Y-50228502D02*
G01*
X59304051Y-50282158D01*
X59314155Y-50352432D01*
X59284661Y-50417012D01*
X59250330Y-50444809D01*
X58907746Y-50633925D01*
X58582183Y-50859356D01*
X58281067Y-51116533D01*
X58007482Y-51402823D01*
X58005525Y-51405336D01*
X58005524Y-51405338D01*
X57802136Y-51666603D01*
X57764230Y-51715295D01*
X57762534Y-51717999D01*
X57762531Y-51718003D01*
X57755502Y-51729208D01*
X57553799Y-52050750D01*
X57378346Y-52405753D01*
X57377232Y-52408734D01*
X57377231Y-52408735D01*
X57317537Y-52568393D01*
X57239666Y-52776668D01*
X57139180Y-53159700D01*
X57138687Y-53162849D01*
X57138685Y-53162858D01*
X57091747Y-53462605D01*
X57077916Y-53550925D01*
X57077745Y-53554091D01*
X57077744Y-53554096D01*
X57065134Y-53786930D01*
X57056501Y-53946339D01*
X57056651Y-53949520D01*
X57074928Y-54337071D01*
X57075155Y-54341893D01*
X57075627Y-54345050D01*
X57075627Y-54345052D01*
X57080771Y-54379472D01*
X57133686Y-54733537D01*
X57134472Y-54736619D01*
X57134472Y-54736621D01*
X57181962Y-54922929D01*
X57231496Y-55117260D01*
X57302413Y-55311050D01*
X57346656Y-55431948D01*
X57367583Y-55489135D01*
X57540554Y-55845354D01*
X57748637Y-56182270D01*
X57750581Y-56184803D01*
X57986131Y-56491778D01*
X57989702Y-56496432D01*
X57991884Y-56498748D01*
X57991893Y-56498758D01*
X58198823Y-56718345D01*
X58261282Y-56784625D01*
X58263687Y-56786709D01*
X58263693Y-56786714D01*
X58509376Y-56999531D01*
X58560595Y-57043898D01*
X58884576Y-57271596D01*
X59229910Y-57465389D01*
X59232824Y-57466656D01*
X59232828Y-57466658D01*
X59267839Y-57481881D01*
X59593060Y-57623291D01*
X59772788Y-57680650D01*
X59967263Y-57742715D01*
X59967271Y-57742717D01*
X59970307Y-57743686D01*
X60021965Y-57754572D01*
X60354671Y-57824684D01*
X60354676Y-57824685D01*
X60357790Y-57825341D01*
X60751541Y-57867421D01*
X60754728Y-57867438D01*
X60754734Y-57867438D01*
X60934648Y-57868380D01*
X61147529Y-57869494D01*
X61253621Y-57859279D01*
X61538515Y-57831847D01*
X61538523Y-57831846D01*
X61541699Y-57831540D01*
X61930016Y-57753947D01*
X62221054Y-57664412D01*
X62305462Y-57638445D01*
X62305465Y-57638444D01*
X62308504Y-57637509D01*
X62311432Y-57636272D01*
X62311438Y-57636270D01*
X62475773Y-57566851D01*
X62673287Y-57483418D01*
X62676090Y-57481884D01*
X62676095Y-57481881D01*
X62825623Y-57400017D01*
X63020631Y-57293253D01*
X63346979Y-57068960D01*
X63518268Y-56923696D01*
X63646561Y-56814896D01*
X63646563Y-56814894D01*
X63648991Y-56812835D01*
X63651196Y-56810543D01*
X63651202Y-56810538D01*
X63791008Y-56665257D01*
X63923573Y-56527502D01*
X64167915Y-56215881D01*
X64179406Y-56197705D01*
X64316758Y-55980434D01*
X64379515Y-55881163D01*
X64453432Y-55732910D01*
X64554787Y-55529623D01*
X64556207Y-55526775D01*
X64668290Y-55230154D01*
X64695056Y-55159321D01*
X64695057Y-55159318D01*
X64696180Y-55156346D01*
X64707402Y-55114173D01*
X64797182Y-54776752D01*
X64798003Y-54773667D01*
X64799785Y-54762546D01*
X64836031Y-54536254D01*
X64860633Y-54382658D01*
X64862802Y-54345052D01*
X64879626Y-54053262D01*
X64883428Y-53987321D01*
X64883523Y-53960000D01*
X64881250Y-53915132D01*
X111906757Y-53915132D01*
X111921781Y-54273588D01*
X111976668Y-54628136D01*
X111977590Y-54631528D01*
X111977590Y-54631530D01*
X112004450Y-54730389D01*
X112070734Y-54974356D01*
X112202806Y-55307933D01*
X112371239Y-55624709D01*
X112373224Y-55627607D01*
X112373230Y-55627618D01*
X112571942Y-55917829D01*
X112571947Y-55917835D01*
X112573933Y-55920736D01*
X112576236Y-55923404D01*
X112799683Y-56182270D01*
X112808361Y-56192324D01*
X113071602Y-56436087D01*
X113074428Y-56438170D01*
X113074431Y-56438173D01*
X113143982Y-56489450D01*
X113360375Y-56648989D01*
X113671080Y-56828375D01*
X113754389Y-56864772D01*
X113996622Y-56970601D01*
X113996632Y-56970605D01*
X113999844Y-56972008D01*
X114003201Y-56973047D01*
X114003206Y-56973049D01*
X114138744Y-57015005D01*
X114342570Y-57078100D01*
X114694987Y-57145327D01*
X114891571Y-57160453D01*
X115049203Y-57172582D01*
X115049204Y-57172582D01*
X115052700Y-57172851D01*
X115270001Y-57165263D01*
X115407738Y-57160453D01*
X115407743Y-57160453D01*
X115411253Y-57160330D01*
X115414734Y-57159816D01*
X115762683Y-57108436D01*
X115762689Y-57108435D01*
X115766175Y-57107920D01*
X115769579Y-57107021D01*
X115769582Y-57107020D01*
X116109652Y-57017169D01*
X116109653Y-57017169D01*
X116113043Y-57016273D01*
X116447534Y-56886533D01*
X116765478Y-56720316D01*
X117020134Y-56548548D01*
X117059997Y-56521660D01*
X117059999Y-56521659D01*
X117062913Y-56519693D01*
X117336131Y-56287167D01*
X117405604Y-56213186D01*
X117579316Y-56028202D01*
X117579320Y-56028197D01*
X117581727Y-56025634D01*
X117583832Y-56022820D01*
X117583838Y-56022813D01*
X117794530Y-55741174D01*
X117796639Y-55738355D01*
X117978189Y-55428910D01*
X118124115Y-55101156D01*
X118232596Y-54759179D01*
X118258174Y-54630000D01*
X118656761Y-54630000D01*
X118675696Y-54918886D01*
X118676500Y-54922926D01*
X118676500Y-54922929D01*
X118715750Y-55120251D01*
X118732175Y-55202828D01*
X118733501Y-55206734D01*
X118733502Y-55206738D01*
X118807828Y-55425694D01*
X118825234Y-55476970D01*
X118827055Y-55480663D01*
X118827056Y-55480665D01*
X118849795Y-55526775D01*
X118953279Y-55736619D01*
X119114119Y-55977335D01*
X119116831Y-55980427D01*
X119116836Y-55980434D01*
X119296065Y-56184803D01*
X119305004Y-56194996D01*
X119308093Y-56197705D01*
X119519565Y-56383163D01*
X119519571Y-56383168D01*
X119522665Y-56385881D01*
X119763380Y-56546721D01*
X119767079Y-56548545D01*
X119767084Y-56548548D01*
X120008466Y-56667584D01*
X120023030Y-56674766D01*
X120026928Y-56676089D01*
X120026930Y-56676090D01*
X120293262Y-56766498D01*
X120293266Y-56766499D01*
X120297172Y-56767825D01*
X120301216Y-56768629D01*
X120301222Y-56768631D01*
X120577071Y-56823500D01*
X120577074Y-56823500D01*
X120581114Y-56824304D01*
X120585225Y-56824573D01*
X120585229Y-56824574D01*
X120865881Y-56842969D01*
X120870000Y-56843239D01*
X120874119Y-56842969D01*
X121154771Y-56824574D01*
X121154775Y-56824573D01*
X121158886Y-56824304D01*
X121162926Y-56823500D01*
X121162929Y-56823500D01*
X121438778Y-56768631D01*
X121438784Y-56768629D01*
X121442828Y-56767825D01*
X121446734Y-56766499D01*
X121446738Y-56766498D01*
X121713070Y-56676090D01*
X121713072Y-56676089D01*
X121716970Y-56674766D01*
X121731534Y-56667584D01*
X121972916Y-56548548D01*
X121972921Y-56548545D01*
X121976620Y-56546721D01*
X122217335Y-56385881D01*
X122220429Y-56383168D01*
X122220435Y-56383163D01*
X122431907Y-56197705D01*
X122434996Y-56194996D01*
X122443935Y-56184803D01*
X122623164Y-55980434D01*
X122623169Y-55980427D01*
X122625881Y-55977335D01*
X122786721Y-55736619D01*
X122890205Y-55526775D01*
X122912944Y-55480665D01*
X122912945Y-55480663D01*
X122914766Y-55476970D01*
X122932172Y-55425694D01*
X123006498Y-55206738D01*
X123006499Y-55206734D01*
X123007825Y-55202828D01*
X123024251Y-55120251D01*
X123063500Y-54922929D01*
X123063500Y-54922926D01*
X123064304Y-54918886D01*
X123083239Y-54630000D01*
X123081719Y-54606813D01*
X123064574Y-54345229D01*
X123064573Y-54345225D01*
X123064304Y-54341114D01*
X123051563Y-54277061D01*
X123008631Y-54061222D01*
X123008629Y-54061216D01*
X123007825Y-54057172D01*
X123006040Y-54051912D01*
X122916090Y-53786930D01*
X122916089Y-53786928D01*
X122914766Y-53783030D01*
X122786721Y-53523381D01*
X122625881Y-53282665D01*
X122623169Y-53279573D01*
X122623164Y-53279566D01*
X122437705Y-53068093D01*
X122434996Y-53065004D01*
X122332706Y-52975297D01*
X122220435Y-52876837D01*
X122220429Y-52876832D01*
X122217335Y-52874119D01*
X121976620Y-52713279D01*
X121972921Y-52711455D01*
X121972916Y-52711452D01*
X121720665Y-52587056D01*
X121720663Y-52587055D01*
X121716970Y-52585234D01*
X121713070Y-52583910D01*
X121446738Y-52493502D01*
X121446734Y-52493501D01*
X121442828Y-52492175D01*
X121438784Y-52491371D01*
X121438778Y-52491369D01*
X121162929Y-52436500D01*
X121162926Y-52436500D01*
X121158886Y-52435696D01*
X121154775Y-52435427D01*
X121154771Y-52435426D01*
X120874119Y-52417031D01*
X120870000Y-52416761D01*
X120865881Y-52417031D01*
X120585229Y-52435426D01*
X120585225Y-52435427D01*
X120581114Y-52435696D01*
X120577074Y-52436500D01*
X120577071Y-52436500D01*
X120301222Y-52491369D01*
X120301216Y-52491371D01*
X120297172Y-52492175D01*
X120293266Y-52493501D01*
X120293262Y-52493502D01*
X120026930Y-52583910D01*
X120023030Y-52585234D01*
X120019337Y-52587055D01*
X120019335Y-52587056D01*
X119846091Y-52672491D01*
X119763381Y-52713279D01*
X119522665Y-52874119D01*
X119519573Y-52876831D01*
X119519566Y-52876836D01*
X119407294Y-52975297D01*
X119305004Y-53065004D01*
X119302295Y-53068093D01*
X119116836Y-53279566D01*
X119116831Y-53279573D01*
X119114119Y-53282665D01*
X118953279Y-53523381D01*
X118825234Y-53783030D01*
X118823911Y-53786928D01*
X118823910Y-53786930D01*
X118733961Y-54051912D01*
X118732175Y-54057172D01*
X118731371Y-54061216D01*
X118731369Y-54061222D01*
X118688437Y-54277061D01*
X118675696Y-54341114D01*
X118675427Y-54345225D01*
X118675426Y-54345229D01*
X118658281Y-54606813D01*
X118656761Y-54630000D01*
X118258174Y-54630000D01*
X118302282Y-54407241D01*
X118331678Y-54057172D01*
X118332120Y-54051912D01*
X118332121Y-54051901D01*
X118332303Y-54049728D01*
X118332527Y-54033747D01*
X118333526Y-53962178D01*
X118333526Y-53962166D01*
X118333556Y-53960000D01*
X118332793Y-53946339D01*
X118313725Y-53605301D01*
X118313529Y-53601788D01*
X118306589Y-53560757D01*
X118254286Y-53251522D01*
X118254285Y-53251518D01*
X118253697Y-53248041D01*
X118154806Y-52903169D01*
X118075785Y-52711450D01*
X118019427Y-52574713D01*
X118019423Y-52574705D01*
X118018089Y-52571468D01*
X117888008Y-52334851D01*
X117846943Y-52260154D01*
X117846940Y-52260150D01*
X117845250Y-52257075D01*
X117638443Y-51963907D01*
X117400245Y-51695619D01*
X117133626Y-51455554D01*
X117130776Y-51453513D01*
X117130769Y-51453508D01*
X116844763Y-51248748D01*
X116844760Y-51248746D01*
X116841909Y-51246705D01*
X116528730Y-51071675D01*
X116197992Y-50932646D01*
X116194623Y-50931655D01*
X116194619Y-50931653D01*
X116042754Y-50886957D01*
X115853818Y-50831350D01*
X115570904Y-50781464D01*
X115503958Y-50769660D01*
X115503956Y-50769660D01*
X115500498Y-50769050D01*
X115496987Y-50768829D01*
X115496986Y-50768829D01*
X115145953Y-50746743D01*
X115145947Y-50746743D01*
X115142435Y-50746522D01*
X115041046Y-50751481D01*
X114787599Y-50763876D01*
X114787591Y-50763877D01*
X114784092Y-50764048D01*
X114780624Y-50764610D01*
X114780621Y-50764610D01*
X114433411Y-50820846D01*
X114433408Y-50820847D01*
X114429936Y-50821409D01*
X114426549Y-50822355D01*
X114426543Y-50822356D01*
X114256666Y-50869787D01*
X114084381Y-50917890D01*
X113918057Y-50985089D01*
X113754998Y-51050969D01*
X113754994Y-51050971D01*
X113751734Y-51052288D01*
X113748647Y-51053957D01*
X113748643Y-51053959D01*
X113712699Y-51073394D01*
X113436142Y-51222928D01*
X113141537Y-51427683D01*
X112871593Y-51664002D01*
X112629672Y-51928938D01*
X112418792Y-52219190D01*
X112241580Y-52531140D01*
X112100245Y-52860899D01*
X112099228Y-52864268D01*
X112009079Y-53162858D01*
X111996549Y-53204358D01*
X111995913Y-53207825D01*
X111933519Y-53547784D01*
X111931784Y-53557235D01*
X111906757Y-53915132D01*
X64881250Y-53915132D01*
X64874559Y-53783030D01*
X64863650Y-53567687D01*
X64863649Y-53567682D01*
X64863489Y-53564514D01*
X64820360Y-53282665D01*
X64804074Y-53176237D01*
X64804072Y-53176228D01*
X64803590Y-53173077D01*
X64726274Y-52874119D01*
X64705238Y-52792777D01*
X64705235Y-52792769D01*
X64704441Y-52789697D01*
X64700758Y-52779741D01*
X64568166Y-52421296D01*
X64568163Y-52421290D01*
X64567057Y-52418299D01*
X64392844Y-52062686D01*
X64387196Y-52053611D01*
X64185272Y-51729208D01*
X64183586Y-51726499D01*
X63975998Y-51457911D01*
X63943378Y-51415705D01*
X63943373Y-51415700D01*
X63941426Y-51413180D01*
X63783447Y-51246705D01*
X63671041Y-51128254D01*
X63671038Y-51128252D01*
X63668842Y-51125937D01*
X63444121Y-50932646D01*
X63371041Y-50869787D01*
X63371038Y-50869785D01*
X63368626Y-50867710D01*
X63043851Y-50641144D01*
X62697843Y-50448559D01*
X62695366Y-50447492D01*
X62643142Y-50399527D01*
X62625119Y-50330856D01*
X62647082Y-50263342D01*
X62702060Y-50218421D01*
X62751066Y-50208500D01*
X124665500Y-50208500D01*
X124733621Y-50228502D01*
X124780114Y-50282158D01*
X124791500Y-50334500D01*
X124791500Y-156665500D01*
X124771498Y-156733621D01*
X124717842Y-156780114D01*
X124665500Y-156791500D01*
X50334500Y-156791500D01*
X50266379Y-156771498D01*
X50219886Y-156717842D01*
X50208500Y-156665500D01*
X50208500Y-152259463D01*
X79151500Y-152259463D01*
X79151501Y-154000536D01*
X79163597Y-154061353D01*
X79209680Y-154130320D01*
X79278647Y-154176403D01*
X79290816Y-154178824D01*
X79290817Y-154178824D01*
X79332519Y-154187119D01*
X79339463Y-154188500D01*
X80209859Y-154188500D01*
X81080536Y-154188499D01*
X81141353Y-154176403D01*
X81151670Y-154169510D01*
X81151671Y-154169509D01*
X81200007Y-154137211D01*
X81210320Y-154130320D01*
X81256403Y-154061353D01*
X81258825Y-154049180D01*
X81267293Y-154006605D01*
X81268500Y-154000537D01*
X81268499Y-153115150D01*
X81686482Y-153115150D01*
X81703852Y-153322004D01*
X81761069Y-153521545D01*
X81763887Y-153527027D01*
X81763888Y-153527031D01*
X81815097Y-153626672D01*
X81855955Y-153706173D01*
X81984894Y-153868854D01*
X81989581Y-153872843D01*
X81989584Y-153872846D01*
X82138284Y-153999399D01*
X82142976Y-154003392D01*
X82324180Y-154104664D01*
X82521603Y-154168810D01*
X82727725Y-154193389D01*
X82733860Y-154192917D01*
X82733862Y-154192917D01*
X82928555Y-154177936D01*
X82928560Y-154177935D01*
X82934696Y-154177463D01*
X82940626Y-154175807D01*
X82940628Y-154175807D01*
X83034664Y-154149551D01*
X83134632Y-154121640D01*
X83174190Y-154101658D01*
X83314416Y-154030825D01*
X83314418Y-154030824D01*
X83319917Y-154028046D01*
X83483495Y-153900245D01*
X83619133Y-153743106D01*
X83721667Y-153562614D01*
X83741901Y-153501789D01*
X83782383Y-153443464D01*
X83847971Y-153416285D01*
X83917841Y-153428880D01*
X83969811Y-153477250D01*
X83984376Y-153513861D01*
X83988564Y-153532444D01*
X83991645Y-153542275D01*
X84071770Y-153739603D01*
X84076413Y-153748794D01*
X84187694Y-153930388D01*
X84193777Y-153938699D01*
X84333213Y-154099667D01*
X84340580Y-154106883D01*
X84504434Y-154242916D01*
X84512881Y-154248831D01*
X84696756Y-154356279D01*
X84706042Y-154360729D01*
X84905001Y-154436703D01*
X84914899Y-154439579D01*
X85018250Y-154460606D01*
X85032299Y-154459410D01*
X85036000Y-154449065D01*
X85036000Y-154448517D01*
X85544000Y-154448517D01*
X85548064Y-154462359D01*
X85561478Y-154464393D01*
X85568184Y-154463534D01*
X85578262Y-154461392D01*
X85782255Y-154400191D01*
X85791842Y-154396433D01*
X85983095Y-154302739D01*
X85991945Y-154297464D01*
X86165328Y-154173792D01*
X86173200Y-154167139D01*
X86324052Y-154016812D01*
X86330730Y-154008965D01*
X86455003Y-153836020D01*
X86460313Y-153827183D01*
X86554670Y-153636267D01*
X86558469Y-153626672D01*
X86595311Y-153505413D01*
X86634252Y-153446049D01*
X86699106Y-153417162D01*
X86769282Y-153427924D01*
X86822500Y-153474917D01*
X86836987Y-153507310D01*
X86841069Y-153521545D01*
X86843887Y-153527027D01*
X86843888Y-153527031D01*
X86895097Y-153626672D01*
X86935955Y-153706173D01*
X87064894Y-153868854D01*
X87069581Y-153872843D01*
X87069584Y-153872846D01*
X87218284Y-153999399D01*
X87222976Y-154003392D01*
X87404180Y-154104664D01*
X87601603Y-154168810D01*
X87807725Y-154193389D01*
X87813860Y-154192917D01*
X87813862Y-154192917D01*
X88008555Y-154177936D01*
X88008560Y-154177935D01*
X88014696Y-154177463D01*
X88020626Y-154175807D01*
X88020628Y-154175807D01*
X88114664Y-154149551D01*
X88214632Y-154121640D01*
X88254190Y-154101658D01*
X88394416Y-154030825D01*
X88394418Y-154030824D01*
X88399917Y-154028046D01*
X88563495Y-153900245D01*
X88699133Y-153743106D01*
X88801667Y-153562614D01*
X88867190Y-153365644D01*
X88893207Y-153159698D01*
X88893622Y-153130000D01*
X88892166Y-153115150D01*
X89306482Y-153115150D01*
X89323852Y-153322004D01*
X89381069Y-153521545D01*
X89383887Y-153527027D01*
X89383888Y-153527031D01*
X89435097Y-153626672D01*
X89475955Y-153706173D01*
X89604894Y-153868854D01*
X89609581Y-153872843D01*
X89609584Y-153872846D01*
X89758284Y-153999399D01*
X89762976Y-154003392D01*
X89944180Y-154104664D01*
X90141603Y-154168810D01*
X90347725Y-154193389D01*
X90353860Y-154192917D01*
X90353862Y-154192917D01*
X90548555Y-154177936D01*
X90548560Y-154177935D01*
X90554696Y-154177463D01*
X90560626Y-154175807D01*
X90560628Y-154175807D01*
X90654664Y-154149551D01*
X90754632Y-154121640D01*
X90794190Y-154101658D01*
X90934416Y-154030825D01*
X90934418Y-154030824D01*
X90939917Y-154028046D01*
X91103495Y-153900245D01*
X91239133Y-153743106D01*
X91341667Y-153562614D01*
X91407190Y-153365644D01*
X91433207Y-153159698D01*
X91433622Y-153130000D01*
X91432166Y-153115150D01*
X91846482Y-153115150D01*
X91863852Y-153322004D01*
X91921069Y-153521545D01*
X91923887Y-153527027D01*
X91923888Y-153527031D01*
X91975097Y-153626672D01*
X92015955Y-153706173D01*
X92144894Y-153868854D01*
X92149581Y-153872843D01*
X92149584Y-153872846D01*
X92298284Y-153999399D01*
X92302976Y-154003392D01*
X92484180Y-154104664D01*
X92681603Y-154168810D01*
X92887725Y-154193389D01*
X92893860Y-154192917D01*
X92893862Y-154192917D01*
X93088555Y-154177936D01*
X93088560Y-154177935D01*
X93094696Y-154177463D01*
X93100626Y-154175807D01*
X93100628Y-154175807D01*
X93194664Y-154149551D01*
X93294632Y-154121640D01*
X93334190Y-154101658D01*
X93474416Y-154030825D01*
X93474418Y-154030824D01*
X93479917Y-154028046D01*
X93643495Y-153900245D01*
X93779133Y-153743106D01*
X93881667Y-153562614D01*
X93947190Y-153365644D01*
X93973207Y-153159698D01*
X93973622Y-153130000D01*
X93972166Y-153115150D01*
X94386482Y-153115150D01*
X94403852Y-153322004D01*
X94461069Y-153521545D01*
X94463887Y-153527027D01*
X94463888Y-153527031D01*
X94515097Y-153626672D01*
X94555955Y-153706173D01*
X94684894Y-153868854D01*
X94689581Y-153872843D01*
X94689584Y-153872846D01*
X94838284Y-153999399D01*
X94842976Y-154003392D01*
X95024180Y-154104664D01*
X95221603Y-154168810D01*
X95427725Y-154193389D01*
X95433860Y-154192917D01*
X95433862Y-154192917D01*
X95628555Y-154177936D01*
X95628560Y-154177935D01*
X95634696Y-154177463D01*
X95640626Y-154175807D01*
X95640628Y-154175807D01*
X95734664Y-154149551D01*
X95834632Y-154121640D01*
X95874190Y-154101658D01*
X96014416Y-154030825D01*
X96014418Y-154030824D01*
X96019917Y-154028046D01*
X96183495Y-153900245D01*
X96319133Y-153743106D01*
X96421667Y-153562614D01*
X96487190Y-153365644D01*
X96513207Y-153159698D01*
X96513622Y-153130000D01*
X96493365Y-152923408D01*
X96442145Y-152753757D01*
X96435152Y-152730593D01*
X96435151Y-152730590D01*
X96433368Y-152724685D01*
X96423219Y-152705598D01*
X96338809Y-152546847D01*
X96338808Y-152546845D01*
X96335913Y-152541401D01*
X96263529Y-152452649D01*
X96208610Y-152385311D01*
X96208607Y-152385308D01*
X96204715Y-152380536D01*
X96197770Y-152374790D01*
X96049518Y-152252145D01*
X96049519Y-152252145D01*
X96044770Y-152248217D01*
X96039353Y-152245288D01*
X96039350Y-152245286D01*
X95867590Y-152152416D01*
X95867585Y-152152414D01*
X95862170Y-152149486D01*
X95663871Y-152088102D01*
X95657746Y-152087458D01*
X95657745Y-152087458D01*
X95463554Y-152067048D01*
X95463552Y-152067048D01*
X95457425Y-152066404D01*
X95388168Y-152072707D01*
X95256836Y-152084659D01*
X95256833Y-152084660D01*
X95250697Y-152085218D01*
X95244791Y-152086956D01*
X95244787Y-152086957D01*
X95150362Y-152114748D01*
X95051560Y-152143827D01*
X94867600Y-152239999D01*
X94705823Y-152370071D01*
X94701865Y-152374788D01*
X94701863Y-152374790D01*
X94697042Y-152380536D01*
X94572391Y-152529089D01*
X94569427Y-152534481D01*
X94569424Y-152534485D01*
X94565622Y-152541401D01*
X94472387Y-152710995D01*
X94409621Y-152908861D01*
X94408935Y-152914978D01*
X94408934Y-152914982D01*
X94407989Y-152923408D01*
X94386482Y-153115150D01*
X93972166Y-153115150D01*
X93953365Y-152923408D01*
X93902145Y-152753757D01*
X93895152Y-152730593D01*
X93895151Y-152730590D01*
X93893368Y-152724685D01*
X93883219Y-152705598D01*
X93798809Y-152546847D01*
X93798808Y-152546845D01*
X93795913Y-152541401D01*
X93723529Y-152452649D01*
X93668610Y-152385311D01*
X93668607Y-152385308D01*
X93664715Y-152380536D01*
X93657770Y-152374790D01*
X93509518Y-152252145D01*
X93509519Y-152252145D01*
X93504770Y-152248217D01*
X93499353Y-152245288D01*
X93499350Y-152245286D01*
X93327590Y-152152416D01*
X93327585Y-152152414D01*
X93322170Y-152149486D01*
X93123871Y-152088102D01*
X93117746Y-152087458D01*
X93117745Y-152087458D01*
X92923554Y-152067048D01*
X92923552Y-152067048D01*
X92917425Y-152066404D01*
X92848168Y-152072707D01*
X92716836Y-152084659D01*
X92716833Y-152084660D01*
X92710697Y-152085218D01*
X92704791Y-152086956D01*
X92704787Y-152086957D01*
X92610362Y-152114748D01*
X92511560Y-152143827D01*
X92327600Y-152239999D01*
X92165823Y-152370071D01*
X92161865Y-152374788D01*
X92161863Y-152374790D01*
X92157042Y-152380536D01*
X92032391Y-152529089D01*
X92029427Y-152534481D01*
X92029424Y-152534485D01*
X92025622Y-152541401D01*
X91932387Y-152710995D01*
X91869621Y-152908861D01*
X91868935Y-152914978D01*
X91868934Y-152914982D01*
X91867989Y-152923408D01*
X91846482Y-153115150D01*
X91432166Y-153115150D01*
X91413365Y-152923408D01*
X91362145Y-152753757D01*
X91355152Y-152730593D01*
X91355151Y-152730590D01*
X91353368Y-152724685D01*
X91343219Y-152705598D01*
X91258809Y-152546847D01*
X91258808Y-152546845D01*
X91255913Y-152541401D01*
X91183529Y-152452649D01*
X91128610Y-152385311D01*
X91128607Y-152385308D01*
X91124715Y-152380536D01*
X91117770Y-152374790D01*
X90969518Y-152252145D01*
X90969519Y-152252145D01*
X90964770Y-152248217D01*
X90959353Y-152245288D01*
X90959350Y-152245286D01*
X90787590Y-152152416D01*
X90787585Y-152152414D01*
X90782170Y-152149486D01*
X90583871Y-152088102D01*
X90577746Y-152087458D01*
X90577745Y-152087458D01*
X90383554Y-152067048D01*
X90383552Y-152067048D01*
X90377425Y-152066404D01*
X90308168Y-152072707D01*
X90176836Y-152084659D01*
X90176833Y-152084660D01*
X90170697Y-152085218D01*
X90164791Y-152086956D01*
X90164787Y-152086957D01*
X90070362Y-152114748D01*
X89971560Y-152143827D01*
X89787600Y-152239999D01*
X89625823Y-152370071D01*
X89621865Y-152374788D01*
X89621863Y-152374790D01*
X89617042Y-152380536D01*
X89492391Y-152529089D01*
X89489427Y-152534481D01*
X89489424Y-152534485D01*
X89485622Y-152541401D01*
X89392387Y-152710995D01*
X89329621Y-152908861D01*
X89328935Y-152914978D01*
X89328934Y-152914982D01*
X89327989Y-152923408D01*
X89306482Y-153115150D01*
X88892166Y-153115150D01*
X88873365Y-152923408D01*
X88822145Y-152753757D01*
X88815152Y-152730593D01*
X88815151Y-152730590D01*
X88813368Y-152724685D01*
X88803219Y-152705598D01*
X88718809Y-152546847D01*
X88718808Y-152546845D01*
X88715913Y-152541401D01*
X88643529Y-152452649D01*
X88588610Y-152385311D01*
X88588607Y-152385308D01*
X88584715Y-152380536D01*
X88577770Y-152374790D01*
X88429518Y-152252145D01*
X88429519Y-152252145D01*
X88424770Y-152248217D01*
X88419353Y-152245288D01*
X88419350Y-152245286D01*
X88247590Y-152152416D01*
X88247585Y-152152414D01*
X88242170Y-152149486D01*
X88043871Y-152088102D01*
X88037746Y-152087458D01*
X88037745Y-152087458D01*
X87843554Y-152067048D01*
X87843552Y-152067048D01*
X87837425Y-152066404D01*
X87768168Y-152072707D01*
X87636836Y-152084659D01*
X87636833Y-152084660D01*
X87630697Y-152085218D01*
X87624791Y-152086956D01*
X87624787Y-152086957D01*
X87530362Y-152114748D01*
X87431560Y-152143827D01*
X87247600Y-152239999D01*
X87085823Y-152370071D01*
X87081865Y-152374788D01*
X87081863Y-152374790D01*
X87077042Y-152380536D01*
X86952391Y-152529089D01*
X86949427Y-152534481D01*
X86949424Y-152534485D01*
X86945622Y-152541401D01*
X86852387Y-152710995D01*
X86850524Y-152716867D01*
X86850523Y-152716870D01*
X86837359Y-152758370D01*
X86797697Y-152817255D01*
X86732495Y-152845348D01*
X86662455Y-152833731D01*
X86609815Y-152786092D01*
X86595053Y-152750969D01*
X86581214Y-152695875D01*
X86577894Y-152686124D01*
X86492972Y-152490814D01*
X86488105Y-152481739D01*
X86372426Y-152302926D01*
X86366136Y-152294757D01*
X86222806Y-152137240D01*
X86215273Y-152130215D01*
X86048139Y-151998222D01*
X86039552Y-151992517D01*
X85853117Y-151889599D01*
X85843705Y-151885369D01*
X85642959Y-151814280D01*
X85632988Y-151811646D01*
X85561837Y-151798972D01*
X85548540Y-151800432D01*
X85544000Y-151814989D01*
X85544000Y-154448517D01*
X85036000Y-154448517D01*
X85036000Y-151813102D01*
X85032082Y-151799758D01*
X85017806Y-151797771D01*
X84979324Y-151803660D01*
X84969288Y-151806051D01*
X84766868Y-151872212D01*
X84757359Y-151876209D01*
X84568463Y-151974542D01*
X84559738Y-151980036D01*
X84389433Y-152107905D01*
X84381726Y-152114748D01*
X84234590Y-152268717D01*
X84228104Y-152276727D01*
X84108098Y-152452649D01*
X84103000Y-152461623D01*
X84013338Y-152654783D01*
X84009775Y-152664470D01*
X83985013Y-152753757D01*
X83947534Y-152814055D01*
X83883405Y-152844518D01*
X83812987Y-152835474D01*
X83758637Y-152789796D01*
X83742974Y-152756503D01*
X83735151Y-152730590D01*
X83735150Y-152730588D01*
X83733368Y-152724685D01*
X83723219Y-152705598D01*
X83638809Y-152546847D01*
X83638808Y-152546845D01*
X83635913Y-152541401D01*
X83563529Y-152452649D01*
X83508610Y-152385311D01*
X83508607Y-152385308D01*
X83504715Y-152380536D01*
X83497770Y-152374790D01*
X83349518Y-152252145D01*
X83349519Y-152252145D01*
X83344770Y-152248217D01*
X83339353Y-152245288D01*
X83339350Y-152245286D01*
X83167590Y-152152416D01*
X83167585Y-152152414D01*
X83162170Y-152149486D01*
X82963871Y-152088102D01*
X82957746Y-152087458D01*
X82957745Y-152087458D01*
X82763554Y-152067048D01*
X82763552Y-152067048D01*
X82757425Y-152066404D01*
X82688168Y-152072707D01*
X82556836Y-152084659D01*
X82556833Y-152084660D01*
X82550697Y-152085218D01*
X82544791Y-152086956D01*
X82544787Y-152086957D01*
X82450362Y-152114748D01*
X82351560Y-152143827D01*
X82167600Y-152239999D01*
X82005823Y-152370071D01*
X82001865Y-152374788D01*
X82001863Y-152374790D01*
X81997042Y-152380536D01*
X81872391Y-152529089D01*
X81869427Y-152534481D01*
X81869424Y-152534485D01*
X81865622Y-152541401D01*
X81772387Y-152710995D01*
X81709621Y-152908861D01*
X81708935Y-152914978D01*
X81708934Y-152914982D01*
X81707989Y-152923408D01*
X81686482Y-153115150D01*
X81268499Y-153115150D01*
X81268499Y-152259464D01*
X81256403Y-152198647D01*
X81210320Y-152129680D01*
X81141353Y-152083597D01*
X81129184Y-152081176D01*
X81129183Y-152081176D01*
X81086605Y-152072707D01*
X81080537Y-152071500D01*
X80210141Y-152071500D01*
X79339464Y-152071501D01*
X79278647Y-152083597D01*
X79268330Y-152090490D01*
X79268329Y-152090491D01*
X79242268Y-152107905D01*
X79209680Y-152129680D01*
X79163597Y-152198647D01*
X79161176Y-152210816D01*
X79161176Y-152210817D01*
X79155939Y-152237145D01*
X79151500Y-152259463D01*
X50208500Y-152259463D01*
X50208500Y-146480000D01*
X51716738Y-146480000D01*
X51735767Y-146782462D01*
X51792555Y-147080154D01*
X51793782Y-147083930D01*
X51871484Y-147323070D01*
X51886206Y-147368381D01*
X52015242Y-147642598D01*
X52177630Y-147898480D01*
X52180149Y-147901525D01*
X52180152Y-147901529D01*
X52236070Y-147969121D01*
X52370808Y-148131992D01*
X52591729Y-148339450D01*
X52836910Y-148517584D01*
X52840379Y-148519491D01*
X52840382Y-148519493D01*
X53056259Y-148638173D01*
X53102483Y-148663585D01*
X53106152Y-148665038D01*
X53106157Y-148665040D01*
X53269735Y-148729805D01*
X53384261Y-148775149D01*
X53677800Y-148850516D01*
X53978470Y-148888500D01*
X54281530Y-148888500D01*
X54582200Y-148850516D01*
X54875739Y-148775149D01*
X54990265Y-148729805D01*
X55153843Y-148665040D01*
X55153848Y-148665038D01*
X55157517Y-148663585D01*
X55203741Y-148638173D01*
X55419618Y-148519493D01*
X55419621Y-148519491D01*
X55423090Y-148517584D01*
X55668271Y-148339450D01*
X55889192Y-148131992D01*
X56023930Y-147969121D01*
X56079848Y-147901529D01*
X56079851Y-147901525D01*
X56082370Y-147898480D01*
X56244758Y-147642598D01*
X56373794Y-147368381D01*
X56388517Y-147323070D01*
X56466218Y-147083930D01*
X56467445Y-147080154D01*
X56524233Y-146782462D01*
X56543262Y-146480000D01*
X56524233Y-146177538D01*
X56518281Y-146146339D01*
X57056501Y-146146339D01*
X57056651Y-146149520D01*
X57072423Y-146483958D01*
X57075155Y-146541893D01*
X57133686Y-146933537D01*
X57231496Y-147317260D01*
X57302413Y-147511050D01*
X57349241Y-147639012D01*
X57367583Y-147689135D01*
X57540554Y-148045354D01*
X57587111Y-148120736D01*
X57720517Y-148336739D01*
X57748637Y-148382270D01*
X57758191Y-148394721D01*
X57987252Y-148693239D01*
X57989702Y-148696432D01*
X57991884Y-148698748D01*
X57991893Y-148698758D01*
X58170698Y-148888500D01*
X58261282Y-148984625D01*
X58263687Y-148986709D01*
X58263693Y-148986714D01*
X58527240Y-149215005D01*
X58560595Y-149243898D01*
X58884576Y-149471596D01*
X59229910Y-149665389D01*
X59232824Y-149666656D01*
X59232828Y-149666658D01*
X59267839Y-149681881D01*
X59593060Y-149823291D01*
X59772788Y-149880650D01*
X59967263Y-149942715D01*
X59967271Y-149942717D01*
X59970307Y-149943686D01*
X60021965Y-149954572D01*
X60354671Y-150024684D01*
X60354676Y-150024685D01*
X60357790Y-150025341D01*
X60751541Y-150067421D01*
X60754728Y-150067438D01*
X60754734Y-150067438D01*
X60934648Y-150068380D01*
X61147529Y-150069494D01*
X61253621Y-150059279D01*
X61538515Y-150031847D01*
X61538523Y-150031846D01*
X61541699Y-150031540D01*
X61930016Y-149953947D01*
X62221054Y-149864412D01*
X62305462Y-149838445D01*
X62305465Y-149838444D01*
X62308504Y-149837509D01*
X62311432Y-149836272D01*
X62311438Y-149836270D01*
X62475773Y-149766851D01*
X62673287Y-149683418D01*
X62676090Y-149681884D01*
X62676095Y-149681881D01*
X62825623Y-149600017D01*
X63020631Y-149493253D01*
X63346979Y-149268960D01*
X63462960Y-149170601D01*
X63646561Y-149014896D01*
X63646563Y-149014894D01*
X63648991Y-149012835D01*
X63651196Y-149010543D01*
X63651202Y-149010538D01*
X63804716Y-148851013D01*
X63923573Y-148727502D01*
X64167915Y-148415881D01*
X64178873Y-148398548D01*
X64347382Y-148131992D01*
X64379515Y-148081163D01*
X64556207Y-147726775D01*
X64690276Y-147371971D01*
X64695056Y-147359321D01*
X64695057Y-147359318D01*
X64696180Y-147356346D01*
X64703997Y-147326970D01*
X64770707Y-147076253D01*
X64798003Y-146973667D01*
X64799785Y-146962546D01*
X64836031Y-146736254D01*
X64860633Y-146582658D01*
X64862802Y-146545052D01*
X64870649Y-146408956D01*
X64883428Y-146187321D01*
X64883523Y-146160000D01*
X64881250Y-146115132D01*
X111906757Y-146115132D01*
X111921781Y-146473588D01*
X111931861Y-146538701D01*
X111970201Y-146786360D01*
X111976668Y-146828136D01*
X112070734Y-147174356D01*
X112202806Y-147507933D01*
X112371239Y-147824709D01*
X112373224Y-147827607D01*
X112373230Y-147827618D01*
X112571942Y-148117829D01*
X112571947Y-148117835D01*
X112573933Y-148120736D01*
X112583649Y-148131992D01*
X112799683Y-148382270D01*
X112808361Y-148392324D01*
X113071602Y-148636087D01*
X113074428Y-148638170D01*
X113074431Y-148638173D01*
X113108899Y-148663585D01*
X113360375Y-148848989D01*
X113363412Y-148850743D01*
X113363416Y-148850745D01*
X113427949Y-148888003D01*
X113671080Y-149028375D01*
X113674301Y-149029782D01*
X113996622Y-149170601D01*
X113996632Y-149170605D01*
X113999844Y-149172008D01*
X114003201Y-149173047D01*
X114003206Y-149173049D01*
X114138744Y-149215005D01*
X114342570Y-149278100D01*
X114694987Y-149345327D01*
X114891571Y-149360453D01*
X115049203Y-149372582D01*
X115049204Y-149372582D01*
X115052700Y-149372851D01*
X115270001Y-149365263D01*
X115407738Y-149360453D01*
X115407743Y-149360453D01*
X115411253Y-149360330D01*
X115414734Y-149359816D01*
X115762683Y-149308436D01*
X115762689Y-149308435D01*
X115766175Y-149307920D01*
X115769579Y-149307021D01*
X115769582Y-149307020D01*
X116109652Y-149217169D01*
X116109653Y-149217169D01*
X116113043Y-149216273D01*
X116447534Y-149086533D01*
X116765478Y-148920316D01*
X116980696Y-148775149D01*
X117059997Y-148721660D01*
X117059999Y-148721659D01*
X117062913Y-148719693D01*
X117336131Y-148487167D01*
X117437193Y-148379547D01*
X117579316Y-148228202D01*
X117579320Y-148228197D01*
X117581727Y-148225634D01*
X117583832Y-148222820D01*
X117583838Y-148222813D01*
X117794530Y-147941174D01*
X117796639Y-147938355D01*
X117820034Y-147898480D01*
X117922519Y-147723797D01*
X117978189Y-147628910D01*
X118124115Y-147301156D01*
X118232596Y-146959179D01*
X118302282Y-146607241D01*
X118312967Y-146480000D01*
X118656761Y-146480000D01*
X118675696Y-146768886D01*
X118676500Y-146772926D01*
X118676500Y-146772929D01*
X118717043Y-146976752D01*
X118732175Y-147052828D01*
X118733501Y-147056734D01*
X118733502Y-147056738D01*
X118815330Y-147297795D01*
X118825234Y-147326970D01*
X118953279Y-147586619D01*
X119114119Y-147827335D01*
X119116831Y-147830427D01*
X119116836Y-147830434D01*
X119213954Y-147941174D01*
X119305004Y-148044996D01*
X119308093Y-148047705D01*
X119519565Y-148233163D01*
X119519571Y-148233168D01*
X119522665Y-148235881D01*
X119763380Y-148396721D01*
X119767079Y-148398545D01*
X119767084Y-148398548D01*
X120008466Y-148517584D01*
X120023030Y-148524766D01*
X120026928Y-148526089D01*
X120026930Y-148526090D01*
X120293262Y-148616498D01*
X120293266Y-148616499D01*
X120297172Y-148617825D01*
X120301216Y-148618629D01*
X120301222Y-148618631D01*
X120577071Y-148673500D01*
X120577074Y-148673500D01*
X120581114Y-148674304D01*
X120585225Y-148674573D01*
X120585229Y-148674574D01*
X120865881Y-148692969D01*
X120870000Y-148693239D01*
X120874119Y-148692969D01*
X121154771Y-148674574D01*
X121154775Y-148674573D01*
X121158886Y-148674304D01*
X121162926Y-148673500D01*
X121162929Y-148673500D01*
X121438778Y-148618631D01*
X121438784Y-148618629D01*
X121442828Y-148617825D01*
X121446734Y-148616499D01*
X121446738Y-148616498D01*
X121713070Y-148526090D01*
X121713072Y-148526089D01*
X121716970Y-148524766D01*
X121731534Y-148517584D01*
X121972916Y-148398548D01*
X121972921Y-148398545D01*
X121976620Y-148396721D01*
X122217335Y-148235881D01*
X122220429Y-148233168D01*
X122220435Y-148233163D01*
X122431907Y-148047705D01*
X122434996Y-148044996D01*
X122526046Y-147941174D01*
X122623164Y-147830434D01*
X122623169Y-147830427D01*
X122625881Y-147827335D01*
X122786721Y-147586619D01*
X122914766Y-147326970D01*
X122924670Y-147297795D01*
X123006498Y-147056738D01*
X123006499Y-147056734D01*
X123007825Y-147052828D01*
X123022958Y-146976752D01*
X123063500Y-146772929D01*
X123063500Y-146772926D01*
X123064304Y-146768886D01*
X123083239Y-146480000D01*
X123064304Y-146191114D01*
X123060828Y-146173640D01*
X123008631Y-145911222D01*
X123008629Y-145911216D01*
X123007825Y-145907172D01*
X122999874Y-145883747D01*
X122916090Y-145636930D01*
X122916089Y-145636928D01*
X122914766Y-145633030D01*
X122786721Y-145373381D01*
X122625881Y-145132665D01*
X122623169Y-145129573D01*
X122623164Y-145129566D01*
X122437705Y-144918093D01*
X122434996Y-144915004D01*
X122332706Y-144825297D01*
X122220435Y-144726837D01*
X122220429Y-144726832D01*
X122217335Y-144724119D01*
X121976620Y-144563279D01*
X121972921Y-144561455D01*
X121972916Y-144561452D01*
X121720665Y-144437056D01*
X121720663Y-144437055D01*
X121716970Y-144435234D01*
X121678744Y-144422258D01*
X121446738Y-144343502D01*
X121446734Y-144343501D01*
X121442828Y-144342175D01*
X121438784Y-144341371D01*
X121438778Y-144341369D01*
X121162929Y-144286500D01*
X121162926Y-144286500D01*
X121158886Y-144285696D01*
X121154775Y-144285427D01*
X121154771Y-144285426D01*
X120874119Y-144267031D01*
X120870000Y-144266761D01*
X120865881Y-144267031D01*
X120585229Y-144285426D01*
X120585225Y-144285427D01*
X120581114Y-144285696D01*
X120577074Y-144286500D01*
X120577071Y-144286500D01*
X120301222Y-144341369D01*
X120301216Y-144341371D01*
X120297172Y-144342175D01*
X120293266Y-144343501D01*
X120293262Y-144343502D01*
X120061256Y-144422258D01*
X120023030Y-144435234D01*
X120019337Y-144437055D01*
X120019335Y-144437056D01*
X119984575Y-144454198D01*
X119763381Y-144563279D01*
X119522665Y-144724119D01*
X119519573Y-144726831D01*
X119519566Y-144726836D01*
X119407294Y-144825297D01*
X119305004Y-144915004D01*
X119302295Y-144918093D01*
X119116836Y-145129566D01*
X119116831Y-145129573D01*
X119114119Y-145132665D01*
X118953279Y-145373381D01*
X118825234Y-145633030D01*
X118823911Y-145636928D01*
X118823910Y-145636930D01*
X118740127Y-145883747D01*
X118732175Y-145907172D01*
X118731371Y-145911216D01*
X118731369Y-145911222D01*
X118679172Y-146173640D01*
X118675696Y-146191114D01*
X118656761Y-146480000D01*
X118312967Y-146480000D01*
X118332303Y-146249728D01*
X118333175Y-146187321D01*
X118333526Y-146162178D01*
X118333526Y-146162166D01*
X118333556Y-146160000D01*
X118332793Y-146146339D01*
X118313725Y-145805301D01*
X118313529Y-145801788D01*
X118306589Y-145760757D01*
X118254286Y-145451522D01*
X118254285Y-145451518D01*
X118253697Y-145448041D01*
X118154806Y-145103169D01*
X118101440Y-144973694D01*
X118019427Y-144774713D01*
X118019423Y-144774705D01*
X118018089Y-144771468D01*
X117845250Y-144457075D01*
X117638443Y-144163907D01*
X117400245Y-143895619D01*
X117133626Y-143655554D01*
X117130776Y-143653513D01*
X117130769Y-143653508D01*
X116844763Y-143448748D01*
X116844760Y-143448746D01*
X116841909Y-143446705D01*
X116528730Y-143271675D01*
X116197992Y-143132646D01*
X116194623Y-143131655D01*
X116194619Y-143131653D01*
X116042754Y-143086957D01*
X115853818Y-143031350D01*
X115570904Y-142981464D01*
X115503958Y-142969660D01*
X115503956Y-142969660D01*
X115500498Y-142969050D01*
X115496987Y-142968829D01*
X115496986Y-142968829D01*
X115145953Y-142946743D01*
X115145947Y-142946743D01*
X115142435Y-142946522D01*
X115041046Y-142951481D01*
X114787599Y-142963876D01*
X114787591Y-142963877D01*
X114784092Y-142964048D01*
X114780624Y-142964610D01*
X114780621Y-142964610D01*
X114433411Y-143020846D01*
X114433408Y-143020847D01*
X114429936Y-143021409D01*
X114426549Y-143022355D01*
X114426543Y-143022356D01*
X114256666Y-143069787D01*
X114084381Y-143117890D01*
X113918058Y-143185089D01*
X113754998Y-143250969D01*
X113754994Y-143250971D01*
X113751734Y-143252288D01*
X113748647Y-143253957D01*
X113748643Y-143253959D01*
X113712699Y-143273394D01*
X113436142Y-143422928D01*
X113141537Y-143627683D01*
X112871593Y-143864002D01*
X112629672Y-144128938D01*
X112418792Y-144419190D01*
X112241580Y-144731140D01*
X112100245Y-145060899D01*
X112099228Y-145064268D01*
X112004782Y-145377090D01*
X111996549Y-145404358D01*
X111995913Y-145407825D01*
X111933519Y-145747784D01*
X111931784Y-145757235D01*
X111906757Y-146115132D01*
X64881250Y-146115132D01*
X64869332Y-145879846D01*
X64863650Y-145767687D01*
X64863649Y-145767682D01*
X64863489Y-145764514D01*
X64815594Y-145451522D01*
X64804074Y-145376237D01*
X64804072Y-145376228D01*
X64803590Y-145373077D01*
X64723881Y-145064864D01*
X64705238Y-144992777D01*
X64705235Y-144992769D01*
X64704441Y-144989697D01*
X64700758Y-144979741D01*
X64568166Y-144621296D01*
X64568163Y-144621290D01*
X64567057Y-144618299D01*
X64404510Y-144286500D01*
X64394255Y-144265566D01*
X64394254Y-144265564D01*
X64392844Y-144262686D01*
X64387196Y-144253611D01*
X64185272Y-143929208D01*
X64183586Y-143926499D01*
X63975998Y-143657911D01*
X63943378Y-143615705D01*
X63943373Y-143615700D01*
X63941426Y-143613180D01*
X63783447Y-143446705D01*
X63671041Y-143328254D01*
X63671038Y-143328252D01*
X63668842Y-143325937D01*
X63637678Y-143299132D01*
X64945698Y-143299132D01*
X64950607Y-143305690D01*
X65039118Y-143355157D01*
X65050357Y-143360067D01*
X65226641Y-143417345D01*
X65238615Y-143419978D01*
X65422676Y-143441926D01*
X65434925Y-143442183D01*
X65619742Y-143427962D01*
X65631822Y-143425831D01*
X65810345Y-143375986D01*
X65821778Y-143371552D01*
X65945507Y-143309052D01*
X65955791Y-143299407D01*
X65955698Y-143299132D01*
X67505698Y-143299132D01*
X67510607Y-143305690D01*
X67599118Y-143355157D01*
X67610357Y-143360067D01*
X67786641Y-143417345D01*
X67798615Y-143419978D01*
X67982676Y-143441926D01*
X67994925Y-143442183D01*
X68179742Y-143427962D01*
X68191822Y-143425831D01*
X68370345Y-143375986D01*
X68381778Y-143371552D01*
X68505507Y-143309052D01*
X68515791Y-143299407D01*
X68513553Y-143292763D01*
X68022812Y-142802022D01*
X68008868Y-142794408D01*
X68007035Y-142794539D01*
X68000420Y-142798790D01*
X67512458Y-143286752D01*
X67505698Y-143299132D01*
X65955698Y-143299132D01*
X65953553Y-143292763D01*
X65462812Y-142802022D01*
X65448868Y-142794408D01*
X65447035Y-142794539D01*
X65440420Y-142798790D01*
X64952458Y-143286752D01*
X64945698Y-143299132D01*
X63637678Y-143299132D01*
X63444121Y-143132646D01*
X63371041Y-143069787D01*
X63371038Y-143069785D01*
X63368626Y-143067710D01*
X63043851Y-142841144D01*
X62697843Y-142648559D01*
X62694923Y-142647301D01*
X62694918Y-142647299D01*
X62337078Y-142493188D01*
X62337075Y-142493187D01*
X62334145Y-142491925D01*
X62112376Y-142422002D01*
X64437738Y-142422002D01*
X64453248Y-142606705D01*
X64455461Y-142618764D01*
X64506554Y-142796945D01*
X64511066Y-142808342D01*
X64571148Y-142925250D01*
X64580865Y-142935468D01*
X64587666Y-142933124D01*
X65077978Y-142442812D01*
X65085592Y-142428868D01*
X65085461Y-142427035D01*
X65081210Y-142420420D01*
X64593121Y-141932331D01*
X64580741Y-141925571D01*
X64574353Y-141930353D01*
X64521997Y-142025586D01*
X64517166Y-142036858D01*
X64461120Y-142213538D01*
X64458570Y-142225532D01*
X64437909Y-142409733D01*
X64437738Y-142422002D01*
X62112376Y-142422002D01*
X61956479Y-142372848D01*
X61681004Y-142315799D01*
X61571839Y-142293192D01*
X61571836Y-142293192D01*
X61568714Y-142292545D01*
X61264783Y-142261137D01*
X61177974Y-142252166D01*
X61177971Y-142252166D01*
X61174818Y-142251840D01*
X61171652Y-142251834D01*
X61171643Y-142251834D01*
X60976080Y-142251493D01*
X60778825Y-142251149D01*
X60384790Y-142290479D01*
X60381655Y-142291117D01*
X60381654Y-142291117D01*
X60374635Y-142292545D01*
X59996746Y-142369428D01*
X59618668Y-142487186D01*
X59254424Y-142642549D01*
X58907746Y-142833925D01*
X58582183Y-143059356D01*
X58357833Y-143250969D01*
X58293763Y-143305690D01*
X58281067Y-143316533D01*
X58278867Y-143318835D01*
X58278864Y-143318838D01*
X58224252Y-143375986D01*
X58007482Y-143602823D01*
X58005525Y-143605336D01*
X58005524Y-143605338D01*
X57802136Y-143866603D01*
X57764230Y-143915295D01*
X57762534Y-143917999D01*
X57762531Y-143918003D01*
X57665931Y-144071997D01*
X57553799Y-144250750D01*
X57378346Y-144605753D01*
X57377232Y-144608734D01*
X57377231Y-144608735D01*
X57317537Y-144768393D01*
X57239666Y-144976668D01*
X57139180Y-145359700D01*
X57138687Y-145362849D01*
X57138685Y-145362858D01*
X57102272Y-145595392D01*
X57077916Y-145750925D01*
X57077745Y-145754091D01*
X57077744Y-145754096D01*
X57059861Y-146084300D01*
X57056501Y-146146339D01*
X56518281Y-146146339D01*
X56467445Y-145879846D01*
X56413909Y-145715080D01*
X56375020Y-145595392D01*
X56375020Y-145595391D01*
X56373794Y-145591619D01*
X56244758Y-145317402D01*
X56082370Y-145061520D01*
X55889192Y-144828008D01*
X55668271Y-144620550D01*
X55423090Y-144442416D01*
X55413341Y-144437056D01*
X55160986Y-144298322D01*
X55160985Y-144298321D01*
X55157517Y-144296415D01*
X55153848Y-144294962D01*
X55153843Y-144294960D01*
X54879409Y-144186304D01*
X54879408Y-144186304D01*
X54875739Y-144184851D01*
X54582200Y-144109484D01*
X54281530Y-144071500D01*
X53978470Y-144071500D01*
X53677800Y-144109484D01*
X53384261Y-144184851D01*
X53380592Y-144186304D01*
X53380591Y-144186304D01*
X53106157Y-144294960D01*
X53106152Y-144294962D01*
X53102483Y-144296415D01*
X53099015Y-144298321D01*
X53099014Y-144298322D01*
X52846660Y-144437056D01*
X52836910Y-144442416D01*
X52591729Y-144620550D01*
X52370808Y-144828008D01*
X52177630Y-145061520D01*
X52015242Y-145317402D01*
X51886206Y-145591619D01*
X51884980Y-145595391D01*
X51884980Y-145595392D01*
X51846091Y-145715080D01*
X51792555Y-145879846D01*
X51735767Y-146177538D01*
X51716738Y-146480000D01*
X50208500Y-146480000D01*
X50208500Y-141561101D01*
X64944820Y-141561101D01*
X64947274Y-141568064D01*
X66306661Y-142927451D01*
X66319041Y-142934211D01*
X66325775Y-142929170D01*
X66372262Y-142847337D01*
X66377256Y-142836121D01*
X66435759Y-142660253D01*
X66438479Y-142648281D01*
X66462039Y-142461784D01*
X66462531Y-142454757D01*
X66462828Y-142433523D01*
X66462533Y-142426494D01*
X66443791Y-142235344D01*
X66457051Y-142165597D01*
X66505913Y-142114090D01*
X66574866Y-142097177D01*
X66584095Y-142097934D01*
X66709830Y-142112927D01*
X66715965Y-142112455D01*
X66715967Y-142112455D01*
X66766340Y-142108579D01*
X66882141Y-142099668D01*
X66951594Y-142114385D01*
X67002066Y-142164316D01*
X67017021Y-142239342D01*
X66997909Y-142409733D01*
X66997738Y-142422002D01*
X67013248Y-142606705D01*
X67015461Y-142618764D01*
X67066554Y-142796945D01*
X67071066Y-142808342D01*
X67131148Y-142925250D01*
X67140865Y-142935468D01*
X67147666Y-142933124D01*
X67649658Y-142431132D01*
X68374408Y-142431132D01*
X68374539Y-142432965D01*
X68378790Y-142439580D01*
X68866661Y-142927451D01*
X68879041Y-142934211D01*
X68885775Y-142929170D01*
X68932262Y-142847337D01*
X68937256Y-142836121D01*
X68995759Y-142660253D01*
X68998479Y-142648281D01*
X69022039Y-142461784D01*
X69022531Y-142454757D01*
X69022828Y-142433523D01*
X69022533Y-142426494D01*
X69004188Y-142239397D01*
X69001805Y-142227362D01*
X68948233Y-142049924D01*
X68943559Y-142038584D01*
X68888562Y-141935148D01*
X68878702Y-141925067D01*
X68871575Y-141927635D01*
X68382022Y-142417188D01*
X68374408Y-142431132D01*
X67649658Y-142431132D01*
X68507834Y-141572956D01*
X68514594Y-141560576D01*
X68509935Y-141554353D01*
X68407924Y-141499196D01*
X68396619Y-141494444D01*
X68219554Y-141439633D01*
X68207541Y-141437167D01*
X68023199Y-141417792D01*
X68010931Y-141417707D01*
X67820206Y-141435064D01*
X67820097Y-141433861D01*
X67755805Y-141427599D01*
X67700081Y-141383605D01*
X67676989Y-141316469D01*
X67677851Y-141294922D01*
X67692321Y-141180379D01*
X67692762Y-141176892D01*
X67693138Y-141150000D01*
X67678409Y-140999785D01*
X67691668Y-140930038D01*
X67740531Y-140878531D01*
X67809483Y-140861618D01*
X67818727Y-140862376D01*
X67982676Y-140881926D01*
X67994925Y-140882183D01*
X68179742Y-140867962D01*
X68191822Y-140865831D01*
X68370345Y-140815986D01*
X68381778Y-140811552D01*
X68505507Y-140749052D01*
X68515791Y-140739407D01*
X68513553Y-140732763D01*
X67651922Y-139871132D01*
X68374408Y-139871132D01*
X68374539Y-139872965D01*
X68378790Y-139879580D01*
X68866661Y-140367451D01*
X68879041Y-140374211D01*
X68885775Y-140369170D01*
X68932262Y-140287337D01*
X68937256Y-140276121D01*
X68995759Y-140100253D01*
X68998479Y-140088281D01*
X69022039Y-139901784D01*
X69022531Y-139894757D01*
X69022828Y-139873523D01*
X69022533Y-139866494D01*
X69004188Y-139679397D01*
X69001805Y-139667362D01*
X68948233Y-139489924D01*
X68943559Y-139478584D01*
X68888562Y-139375148D01*
X68878702Y-139365067D01*
X68871575Y-139367635D01*
X68382022Y-139857188D01*
X68374408Y-139871132D01*
X67651922Y-139871132D01*
X67153121Y-139372331D01*
X67140741Y-139365571D01*
X67134353Y-139370353D01*
X67081997Y-139465586D01*
X67077166Y-139476858D01*
X67021120Y-139653538D01*
X67018570Y-139665532D01*
X66997909Y-139849733D01*
X66997738Y-139862002D01*
X67013247Y-140046704D01*
X67014517Y-140053623D01*
X67007138Y-140124235D01*
X66962754Y-140179648D01*
X66895458Y-140202269D01*
X66877420Y-140201673D01*
X66774131Y-140190817D01*
X66742852Y-140187529D01*
X66742851Y-140187529D01*
X66736724Y-140186885D01*
X66662941Y-140193600D01*
X66578476Y-140201287D01*
X66508823Y-140187542D01*
X66457658Y-140138321D01*
X66441227Y-140069252D01*
X66442050Y-140060014D01*
X66462039Y-139901784D01*
X66462531Y-139894757D01*
X66462828Y-139873523D01*
X66462533Y-139866494D01*
X66444188Y-139679397D01*
X66441805Y-139667362D01*
X66388233Y-139489924D01*
X66383559Y-139478584D01*
X66328562Y-139375148D01*
X66318702Y-139365067D01*
X66311575Y-139367635D01*
X64952458Y-140726752D01*
X64945698Y-140739132D01*
X64950607Y-140745690D01*
X65039118Y-140795157D01*
X65050357Y-140800067D01*
X65226641Y-140857345D01*
X65238615Y-140859978D01*
X65422676Y-140881926D01*
X65434925Y-140882183D01*
X65619742Y-140867962D01*
X65634788Y-140865308D01*
X65705347Y-140873175D01*
X65760453Y-140917940D01*
X65782608Y-140985391D01*
X65781887Y-141003438D01*
X65766956Y-141136552D01*
X65780743Y-141300734D01*
X65766512Y-141370288D01*
X65716935Y-141421108D01*
X65642015Y-141436586D01*
X65463201Y-141417792D01*
X65450931Y-141417707D01*
X65266345Y-141434505D01*
X65254296Y-141436803D01*
X65076483Y-141489137D01*
X65065108Y-141493732D01*
X64954969Y-141551312D01*
X64944820Y-141561101D01*
X50208500Y-141561101D01*
X50208500Y-139862002D01*
X64437738Y-139862002D01*
X64453248Y-140046705D01*
X64455461Y-140058764D01*
X64506554Y-140236945D01*
X64511066Y-140248342D01*
X64571148Y-140365250D01*
X64580865Y-140375468D01*
X64587666Y-140373124D01*
X65077978Y-139882812D01*
X65085592Y-139868868D01*
X65085461Y-139867035D01*
X65081210Y-139860420D01*
X64593121Y-139372331D01*
X64580741Y-139365571D01*
X64574353Y-139370353D01*
X64521997Y-139465586D01*
X64517166Y-139476858D01*
X64461120Y-139653538D01*
X64458570Y-139665532D01*
X64437909Y-139849733D01*
X64437738Y-139862002D01*
X50208500Y-139862002D01*
X50208500Y-139001101D01*
X64944820Y-139001101D01*
X64947274Y-139008064D01*
X65437188Y-139497978D01*
X65451132Y-139505592D01*
X65452965Y-139505461D01*
X65459580Y-139501210D01*
X65947834Y-139012956D01*
X65954307Y-139001101D01*
X67504820Y-139001101D01*
X67507274Y-139008064D01*
X67997188Y-139497978D01*
X68011132Y-139505592D01*
X68012965Y-139505461D01*
X68019580Y-139501210D01*
X68507834Y-139012956D01*
X68514594Y-139000576D01*
X68509935Y-138994353D01*
X68407924Y-138939196D01*
X68396619Y-138934444D01*
X68219554Y-138879633D01*
X68207541Y-138877167D01*
X68023199Y-138857792D01*
X68010931Y-138857707D01*
X67826345Y-138874505D01*
X67814296Y-138876803D01*
X67636483Y-138929137D01*
X67625108Y-138933732D01*
X67514969Y-138991312D01*
X67504820Y-139001101D01*
X65954307Y-139001101D01*
X65954594Y-139000576D01*
X65949935Y-138994353D01*
X65847924Y-138939196D01*
X65836619Y-138934444D01*
X65659554Y-138879633D01*
X65647541Y-138877167D01*
X65463199Y-138857792D01*
X65450931Y-138857707D01*
X65266345Y-138874505D01*
X65254296Y-138876803D01*
X65076483Y-138929137D01*
X65065108Y-138933732D01*
X64954969Y-138991312D01*
X64944820Y-139001101D01*
X50208500Y-139001101D01*
X50208500Y-134006384D01*
X64630699Y-134006384D01*
X64646625Y-134196042D01*
X64699086Y-134378994D01*
X64701904Y-134384477D01*
X64783263Y-134542786D01*
X64783266Y-134542790D01*
X64786083Y-134548272D01*
X64904303Y-134697428D01*
X64908997Y-134701423D01*
X64955337Y-134740861D01*
X65049242Y-134820781D01*
X65054620Y-134823787D01*
X65054622Y-134823788D01*
X65089687Y-134843385D01*
X65215381Y-134913633D01*
X65396391Y-134972447D01*
X65585377Y-134994982D01*
X65591512Y-134994510D01*
X65591514Y-134994510D01*
X65769000Y-134980854D01*
X65769005Y-134980853D01*
X65775141Y-134980381D01*
X65781073Y-134978725D01*
X65781077Y-134978724D01*
X65916461Y-134940923D01*
X65958455Y-134929198D01*
X66128336Y-134843385D01*
X66278314Y-134726210D01*
X66299710Y-134701423D01*
X66369991Y-134620000D01*
X68188885Y-134620000D01*
X68208028Y-134740861D01*
X68212529Y-134749695D01*
X68212530Y-134749698D01*
X68246714Y-134816788D01*
X68263581Y-134849892D01*
X68350108Y-134936419D01*
X68358949Y-134940923D01*
X68358948Y-134940923D01*
X68450302Y-134987470D01*
X68450305Y-134987471D01*
X68459139Y-134991972D01*
X68580000Y-135011115D01*
X68700861Y-134991972D01*
X68709695Y-134987471D01*
X68709698Y-134987470D01*
X68801052Y-134940923D01*
X68801051Y-134940923D01*
X68809892Y-134936419D01*
X68896419Y-134849892D01*
X68913286Y-134816788D01*
X68947470Y-134749698D01*
X68947471Y-134749695D01*
X68951972Y-134740861D01*
X68971115Y-134620000D01*
X68951972Y-134499139D01*
X68947471Y-134490305D01*
X68947470Y-134490302D01*
X68900923Y-134398948D01*
X68896419Y-134390108D01*
X68809892Y-134303581D01*
X68785791Y-134291301D01*
X68709698Y-134252530D01*
X68709695Y-134252529D01*
X68700861Y-134248028D01*
X68580000Y-134228885D01*
X68459139Y-134248028D01*
X68450305Y-134252529D01*
X68450302Y-134252530D01*
X68374209Y-134291301D01*
X68350108Y-134303581D01*
X68263581Y-134390108D01*
X68259077Y-134398948D01*
X68212530Y-134490302D01*
X68212529Y-134490305D01*
X68208028Y-134499139D01*
X68188885Y-134620000D01*
X66369991Y-134620000D01*
X66398652Y-134586796D01*
X66398652Y-134586795D01*
X66402676Y-134582134D01*
X66405720Y-134576776D01*
X66493640Y-134422011D01*
X66493642Y-134422006D01*
X66496686Y-134416648D01*
X66556762Y-134236053D01*
X66562592Y-134189903D01*
X66580174Y-134050732D01*
X66580175Y-134050723D01*
X66580616Y-134047229D01*
X66580996Y-134020000D01*
X66579661Y-134006384D01*
X108979099Y-134006384D01*
X108995025Y-134196042D01*
X109047486Y-134378994D01*
X109050304Y-134384477D01*
X109131663Y-134542786D01*
X109131666Y-134542790D01*
X109134483Y-134548272D01*
X109252703Y-134697428D01*
X109257397Y-134701423D01*
X109303737Y-134740861D01*
X109397642Y-134820781D01*
X109403020Y-134823787D01*
X109403022Y-134823788D01*
X109438087Y-134843385D01*
X109563781Y-134913633D01*
X109744791Y-134972447D01*
X109933777Y-134994982D01*
X109939912Y-134994510D01*
X109939914Y-134994510D01*
X110117400Y-134980854D01*
X110117405Y-134980853D01*
X110123541Y-134980381D01*
X110129473Y-134978725D01*
X110129477Y-134978724D01*
X110264861Y-134940923D01*
X110306855Y-134929198D01*
X110476736Y-134843385D01*
X110626714Y-134726210D01*
X110648110Y-134701423D01*
X110747052Y-134586796D01*
X110747052Y-134586795D01*
X110751076Y-134582134D01*
X110754120Y-134576776D01*
X110842040Y-134422011D01*
X110842042Y-134422006D01*
X110845086Y-134416648D01*
X110905162Y-134236053D01*
X110910992Y-134189903D01*
X110928574Y-134050732D01*
X110928575Y-134050723D01*
X110929016Y-134047229D01*
X110929396Y-134020000D01*
X110910824Y-133830583D01*
X110855814Y-133648382D01*
X110766461Y-133480335D01*
X110646171Y-133332844D01*
X110499523Y-133211526D01*
X110332104Y-133121003D01*
X110150290Y-133064722D01*
X110144165Y-133064078D01*
X110144164Y-133064078D01*
X109967137Y-133045472D01*
X109967135Y-133045472D01*
X109961008Y-133044828D01*
X109845291Y-133055359D01*
X109777607Y-133061518D01*
X109777606Y-133061518D01*
X109771466Y-133062077D01*
X109762479Y-133064722D01*
X109594796Y-133114074D01*
X109594793Y-133114075D01*
X109588885Y-133115814D01*
X109420219Y-133203991D01*
X109415421Y-133207849D01*
X109415419Y-133207850D01*
X109346055Y-133263620D01*
X109271891Y-133323249D01*
X109149553Y-133469046D01*
X109146589Y-133474438D01*
X109146586Y-133474442D01*
X109140355Y-133485777D01*
X109057863Y-133635829D01*
X109000314Y-133817245D01*
X108979099Y-134006384D01*
X66579661Y-134006384D01*
X66562424Y-133830583D01*
X66507414Y-133648382D01*
X66418061Y-133480335D01*
X66297771Y-133332844D01*
X66151123Y-133211526D01*
X65983704Y-133121003D01*
X65801890Y-133064722D01*
X65795765Y-133064078D01*
X65795764Y-133064078D01*
X65618737Y-133045472D01*
X65618735Y-133045472D01*
X65612608Y-133044828D01*
X65496891Y-133055359D01*
X65429207Y-133061518D01*
X65429206Y-133061518D01*
X65423066Y-133062077D01*
X65414079Y-133064722D01*
X65246396Y-133114074D01*
X65246393Y-133114075D01*
X65240485Y-133115814D01*
X65071819Y-133203991D01*
X65067021Y-133207849D01*
X65067019Y-133207850D01*
X64997655Y-133263620D01*
X64923491Y-133323249D01*
X64801153Y-133469046D01*
X64798189Y-133474438D01*
X64798186Y-133474442D01*
X64791955Y-133485777D01*
X64709463Y-133635829D01*
X64651914Y-133817245D01*
X64630699Y-134006384D01*
X50208500Y-134006384D01*
X50208500Y-122755584D01*
X64839899Y-122755584D01*
X64855825Y-122945242D01*
X64908286Y-123128194D01*
X64911104Y-123133677D01*
X64992463Y-123291986D01*
X64992466Y-123291990D01*
X64995283Y-123297472D01*
X65113503Y-123446628D01*
X65118197Y-123450623D01*
X65141849Y-123470752D01*
X65258442Y-123569981D01*
X65424581Y-123662833D01*
X65605591Y-123721647D01*
X65794577Y-123744182D01*
X65800712Y-123743710D01*
X65800714Y-123743710D01*
X65978200Y-123730054D01*
X65978205Y-123730053D01*
X65984341Y-123729581D01*
X65990273Y-123727925D01*
X65990277Y-123727924D01*
X66075998Y-123703990D01*
X66167655Y-123678398D01*
X66337536Y-123592585D01*
X66487514Y-123475410D01*
X66508910Y-123450623D01*
X66607852Y-123335996D01*
X66607852Y-123335995D01*
X66611876Y-123331334D01*
X66614920Y-123325976D01*
X66702840Y-123171211D01*
X66702842Y-123171206D01*
X66705886Y-123165848D01*
X66765962Y-122985253D01*
X66771792Y-122939103D01*
X66789374Y-122799932D01*
X66789375Y-122799923D01*
X66789816Y-122796429D01*
X66790196Y-122769200D01*
X66788861Y-122755584D01*
X109489899Y-122755584D01*
X109505825Y-122945242D01*
X109558286Y-123128194D01*
X109561104Y-123133677D01*
X109642463Y-123291986D01*
X109642466Y-123291990D01*
X109645283Y-123297472D01*
X109763503Y-123446628D01*
X109768197Y-123450623D01*
X109791849Y-123470752D01*
X109908442Y-123569981D01*
X110074581Y-123662833D01*
X110255591Y-123721647D01*
X110444577Y-123744182D01*
X110450712Y-123743710D01*
X110450714Y-123743710D01*
X110628200Y-123730054D01*
X110628205Y-123730053D01*
X110634341Y-123729581D01*
X110640273Y-123727925D01*
X110640277Y-123727924D01*
X110725998Y-123703990D01*
X110817655Y-123678398D01*
X110987536Y-123592585D01*
X111137514Y-123475410D01*
X111158910Y-123450623D01*
X111257852Y-123335996D01*
X111257852Y-123335995D01*
X111261876Y-123331334D01*
X111264920Y-123325976D01*
X111352840Y-123171211D01*
X111352842Y-123171206D01*
X111355886Y-123165848D01*
X111415962Y-122985253D01*
X111421792Y-122939103D01*
X111439374Y-122799932D01*
X111439375Y-122799923D01*
X111439816Y-122796429D01*
X111440196Y-122769200D01*
X111421624Y-122579783D01*
X111366614Y-122397582D01*
X111277261Y-122229535D01*
X111156971Y-122082044D01*
X111010323Y-121960726D01*
X110842904Y-121870203D01*
X110661090Y-121813922D01*
X110654965Y-121813278D01*
X110654964Y-121813278D01*
X110477937Y-121794672D01*
X110477935Y-121794672D01*
X110471808Y-121794028D01*
X110356091Y-121804559D01*
X110288407Y-121810718D01*
X110288406Y-121810718D01*
X110282266Y-121811277D01*
X110273279Y-121813922D01*
X110105596Y-121863274D01*
X110105593Y-121863275D01*
X110099685Y-121865014D01*
X109931019Y-121953191D01*
X109926221Y-121957049D01*
X109926219Y-121957050D01*
X109856855Y-122012820D01*
X109782691Y-122072449D01*
X109660353Y-122218246D01*
X109657389Y-122223638D01*
X109657386Y-122223642D01*
X109651155Y-122234977D01*
X109568663Y-122385029D01*
X109511114Y-122566445D01*
X109489899Y-122755584D01*
X66788861Y-122755584D01*
X66771624Y-122579783D01*
X66716614Y-122397582D01*
X66627261Y-122229535D01*
X66506971Y-122082044D01*
X66360323Y-121960726D01*
X66192904Y-121870203D01*
X66011090Y-121813922D01*
X66004965Y-121813278D01*
X66004964Y-121813278D01*
X65827937Y-121794672D01*
X65827935Y-121794672D01*
X65821808Y-121794028D01*
X65706091Y-121804559D01*
X65638407Y-121810718D01*
X65638406Y-121810718D01*
X65632266Y-121811277D01*
X65623279Y-121813922D01*
X65455596Y-121863274D01*
X65455593Y-121863275D01*
X65449685Y-121865014D01*
X65281019Y-121953191D01*
X65276221Y-121957049D01*
X65276219Y-121957050D01*
X65206855Y-122012820D01*
X65132691Y-122072449D01*
X65010353Y-122218246D01*
X65007389Y-122223638D01*
X65007386Y-122223642D01*
X65001155Y-122234977D01*
X64918663Y-122385029D01*
X64861114Y-122566445D01*
X64839899Y-122755584D01*
X50208500Y-122755584D01*
X50208500Y-118440000D01*
X70768885Y-118440000D01*
X70788028Y-118560861D01*
X70792529Y-118569695D01*
X70792530Y-118569698D01*
X70831301Y-118645791D01*
X70843581Y-118669892D01*
X70930108Y-118756419D01*
X70938949Y-118760923D01*
X70938948Y-118760923D01*
X71030302Y-118807470D01*
X71030305Y-118807471D01*
X71039139Y-118811972D01*
X71160000Y-118831115D01*
X71280861Y-118811972D01*
X71289695Y-118807471D01*
X71289698Y-118807470D01*
X71381052Y-118760923D01*
X71381051Y-118760923D01*
X71389892Y-118756419D01*
X71476419Y-118669892D01*
X71488699Y-118645791D01*
X71527470Y-118569698D01*
X71527471Y-118569695D01*
X71531972Y-118560861D01*
X71551115Y-118440000D01*
X71531972Y-118319139D01*
X71527471Y-118310305D01*
X71527470Y-118310302D01*
X71480923Y-118218948D01*
X71476419Y-118210108D01*
X71389892Y-118123581D01*
X71365791Y-118111301D01*
X71289698Y-118072530D01*
X71289695Y-118072529D01*
X71280861Y-118068028D01*
X71160000Y-118048885D01*
X71039139Y-118068028D01*
X71030305Y-118072529D01*
X71030302Y-118072530D01*
X70954209Y-118111301D01*
X70930108Y-118123581D01*
X70843581Y-118210108D01*
X70839077Y-118218948D01*
X70792530Y-118310302D01*
X70792529Y-118310305D01*
X70788028Y-118319139D01*
X70768885Y-118440000D01*
X50208500Y-118440000D01*
X50208500Y-100560000D01*
X51716738Y-100560000D01*
X51735767Y-100862462D01*
X51792555Y-101160154D01*
X51886206Y-101448381D01*
X52015242Y-101722598D01*
X52177630Y-101978480D01*
X52370808Y-102211992D01*
X52591729Y-102419450D01*
X52836910Y-102597584D01*
X53102483Y-102743585D01*
X53106152Y-102745038D01*
X53106157Y-102745040D01*
X53380591Y-102853696D01*
X53384261Y-102855149D01*
X53677800Y-102930516D01*
X53978470Y-102968500D01*
X54281530Y-102968500D01*
X54582200Y-102930516D01*
X54875739Y-102855149D01*
X54879409Y-102853696D01*
X55153843Y-102745040D01*
X55153848Y-102745038D01*
X55157517Y-102743585D01*
X55423090Y-102597584D01*
X55668271Y-102419450D01*
X55889192Y-102211992D01*
X56082370Y-101978480D01*
X56244758Y-101722598D01*
X56373794Y-101448381D01*
X56467445Y-101160154D01*
X56524233Y-100862462D01*
X56543262Y-100560000D01*
X118456738Y-100560000D01*
X118475767Y-100862462D01*
X118532555Y-101160154D01*
X118626206Y-101448381D01*
X118755242Y-101722598D01*
X118917630Y-101978480D01*
X119110808Y-102211992D01*
X119331729Y-102419450D01*
X119576910Y-102597584D01*
X119842483Y-102743585D01*
X119846152Y-102745038D01*
X119846157Y-102745040D01*
X120120591Y-102853696D01*
X120124261Y-102855149D01*
X120417800Y-102930516D01*
X120718470Y-102968500D01*
X121021530Y-102968500D01*
X121322200Y-102930516D01*
X121615739Y-102855149D01*
X121619409Y-102853696D01*
X121893843Y-102745040D01*
X121893848Y-102745038D01*
X121897517Y-102743585D01*
X122163090Y-102597584D01*
X122408271Y-102419450D01*
X122629192Y-102211992D01*
X122822370Y-101978480D01*
X122984758Y-101722598D01*
X123113794Y-101448381D01*
X123207445Y-101160154D01*
X123264233Y-100862462D01*
X123283262Y-100560000D01*
X123264233Y-100257538D01*
X123207445Y-99959846D01*
X123113794Y-99671619D01*
X122984758Y-99397402D01*
X122822370Y-99141520D01*
X122629192Y-98908008D01*
X122408271Y-98700550D01*
X122163090Y-98522416D01*
X121897517Y-98376415D01*
X121893848Y-98374962D01*
X121893843Y-98374960D01*
X121619409Y-98266304D01*
X121619408Y-98266304D01*
X121615739Y-98264851D01*
X121322200Y-98189484D01*
X121021530Y-98151500D01*
X120718470Y-98151500D01*
X120417800Y-98189484D01*
X120124261Y-98264851D01*
X120120592Y-98266304D01*
X120120591Y-98266304D01*
X119846157Y-98374960D01*
X119846152Y-98374962D01*
X119842483Y-98376415D01*
X119576910Y-98522416D01*
X119331729Y-98700550D01*
X119110808Y-98908008D01*
X118917630Y-99141520D01*
X118755242Y-99397402D01*
X118626206Y-99671619D01*
X118532555Y-99959846D01*
X118475767Y-100257538D01*
X118456738Y-100560000D01*
X56543262Y-100560000D01*
X56524233Y-100257538D01*
X56467445Y-99959846D01*
X56373794Y-99671619D01*
X56244758Y-99397402D01*
X56082370Y-99141520D01*
X55889192Y-98908008D01*
X55668271Y-98700550D01*
X55423090Y-98522416D01*
X55157517Y-98376415D01*
X55153848Y-98374962D01*
X55153843Y-98374960D01*
X54879409Y-98266304D01*
X54879408Y-98266304D01*
X54875739Y-98264851D01*
X54582200Y-98189484D01*
X54281530Y-98151500D01*
X53978470Y-98151500D01*
X53677800Y-98189484D01*
X53384261Y-98264851D01*
X53380592Y-98266304D01*
X53380591Y-98266304D01*
X53106157Y-98374960D01*
X53106152Y-98374962D01*
X53102483Y-98376415D01*
X52836910Y-98522416D01*
X52591729Y-98700550D01*
X52370808Y-98908008D01*
X52177630Y-99141520D01*
X52015242Y-99397402D01*
X51886206Y-99671619D01*
X51792555Y-99959846D01*
X51735767Y-100257538D01*
X51716738Y-100560000D01*
X50208500Y-100560000D01*
X50208500Y-90020000D01*
X70628885Y-90020000D01*
X70648028Y-90140861D01*
X70652529Y-90149695D01*
X70652530Y-90149698D01*
X70691301Y-90225791D01*
X70703581Y-90249892D01*
X70790108Y-90336419D01*
X70798949Y-90340923D01*
X70798948Y-90340923D01*
X70890302Y-90387470D01*
X70890305Y-90387471D01*
X70899139Y-90391972D01*
X71020000Y-90411115D01*
X71140861Y-90391972D01*
X71149695Y-90387471D01*
X71149698Y-90387470D01*
X71241052Y-90340923D01*
X71241051Y-90340923D01*
X71249892Y-90336419D01*
X71336419Y-90249892D01*
X71348699Y-90225791D01*
X71387470Y-90149698D01*
X71387471Y-90149695D01*
X71391972Y-90140861D01*
X71411115Y-90020000D01*
X71391972Y-89899139D01*
X71387471Y-89890305D01*
X71387470Y-89890302D01*
X71340923Y-89798948D01*
X71336419Y-89790108D01*
X71249892Y-89703581D01*
X71225791Y-89691301D01*
X71149698Y-89652530D01*
X71149695Y-89652529D01*
X71140861Y-89648028D01*
X71020000Y-89628885D01*
X70899139Y-89648028D01*
X70890305Y-89652529D01*
X70890302Y-89652530D01*
X70814209Y-89691301D01*
X70790108Y-89703581D01*
X70703581Y-89790108D01*
X70699077Y-89798948D01*
X70652530Y-89890302D01*
X70652529Y-89890305D01*
X70648028Y-89899139D01*
X70628885Y-90020000D01*
X50208500Y-90020000D01*
X50208500Y-88900000D01*
X105018885Y-88900000D01*
X105038028Y-89020861D01*
X105042529Y-89029695D01*
X105042530Y-89029698D01*
X105081301Y-89105791D01*
X105093581Y-89129892D01*
X105180108Y-89216419D01*
X105188949Y-89220923D01*
X105188948Y-89220923D01*
X105280302Y-89267470D01*
X105280305Y-89267471D01*
X105289139Y-89271972D01*
X105410000Y-89291115D01*
X105530861Y-89271972D01*
X105539695Y-89267471D01*
X105539698Y-89267470D01*
X105631052Y-89220923D01*
X105631051Y-89220923D01*
X105639892Y-89216419D01*
X105726419Y-89129892D01*
X105738699Y-89105791D01*
X105777470Y-89029698D01*
X105777471Y-89029695D01*
X105781972Y-89020861D01*
X105801115Y-88900000D01*
X105781972Y-88779139D01*
X105777471Y-88770305D01*
X105777470Y-88770302D01*
X105730923Y-88678948D01*
X105726419Y-88670108D01*
X105639892Y-88583581D01*
X105615791Y-88571301D01*
X105539698Y-88532530D01*
X105539695Y-88532529D01*
X105530861Y-88528028D01*
X105410000Y-88508885D01*
X105289139Y-88528028D01*
X105280305Y-88532529D01*
X105280302Y-88532530D01*
X105204209Y-88571301D01*
X105180108Y-88583581D01*
X105093581Y-88670108D01*
X105089077Y-88678948D01*
X105042530Y-88770302D01*
X105042529Y-88770305D01*
X105038028Y-88779139D01*
X105018885Y-88900000D01*
X50208500Y-88900000D01*
X50208500Y-85489132D01*
X88775698Y-85489132D01*
X88780607Y-85495690D01*
X88869118Y-85545157D01*
X88880357Y-85550067D01*
X89056641Y-85607345D01*
X89068615Y-85609978D01*
X89252676Y-85631926D01*
X89264925Y-85632183D01*
X89449742Y-85617962D01*
X89461822Y-85615831D01*
X89640345Y-85565986D01*
X89651778Y-85561552D01*
X89775507Y-85499052D01*
X89785791Y-85489407D01*
X89785698Y-85489132D01*
X91335698Y-85489132D01*
X91340607Y-85495690D01*
X91429118Y-85545157D01*
X91440357Y-85550067D01*
X91616641Y-85607345D01*
X91628615Y-85609978D01*
X91812676Y-85631926D01*
X91824925Y-85632183D01*
X92009742Y-85617962D01*
X92021822Y-85615831D01*
X92200345Y-85565986D01*
X92211778Y-85561552D01*
X92335507Y-85499052D01*
X92345791Y-85489407D01*
X92343553Y-85482763D01*
X91852812Y-84992022D01*
X91838868Y-84984408D01*
X91837035Y-84984539D01*
X91830420Y-84988790D01*
X91342458Y-85476752D01*
X91335698Y-85489132D01*
X89785698Y-85489132D01*
X89783553Y-85482763D01*
X89292812Y-84992022D01*
X89278868Y-84984408D01*
X89277035Y-84984539D01*
X89270420Y-84988790D01*
X88782458Y-85476752D01*
X88775698Y-85489132D01*
X50208500Y-85489132D01*
X50208500Y-84612002D01*
X88267738Y-84612002D01*
X88283248Y-84796705D01*
X88285461Y-84808764D01*
X88336554Y-84986945D01*
X88341066Y-84998342D01*
X88401148Y-85115250D01*
X88410865Y-85125468D01*
X88417666Y-85123124D01*
X88907978Y-84632812D01*
X88915592Y-84618868D01*
X88915461Y-84617035D01*
X88911210Y-84610420D01*
X88423121Y-84122331D01*
X88410741Y-84115571D01*
X88404353Y-84120353D01*
X88351997Y-84215586D01*
X88347166Y-84226858D01*
X88291120Y-84403538D01*
X88288570Y-84415532D01*
X88267909Y-84599733D01*
X88267738Y-84612002D01*
X50208500Y-84612002D01*
X50208500Y-83751101D01*
X88774820Y-83751101D01*
X88777274Y-83758064D01*
X90136661Y-85117451D01*
X90149041Y-85124211D01*
X90155775Y-85119170D01*
X90202262Y-85037337D01*
X90207256Y-85026121D01*
X90265759Y-84850253D01*
X90268479Y-84838281D01*
X90292039Y-84651784D01*
X90292531Y-84644757D01*
X90292828Y-84623523D01*
X90292533Y-84616494D01*
X90273791Y-84425344D01*
X90287051Y-84355597D01*
X90335913Y-84304090D01*
X90404866Y-84287177D01*
X90414095Y-84287934D01*
X90539830Y-84302927D01*
X90545965Y-84302455D01*
X90545967Y-84302455D01*
X90596340Y-84298579D01*
X90712141Y-84289668D01*
X90781594Y-84304385D01*
X90832066Y-84354316D01*
X90847021Y-84429342D01*
X90827909Y-84599733D01*
X90827738Y-84612002D01*
X90843248Y-84796705D01*
X90845461Y-84808764D01*
X90896554Y-84986945D01*
X90901066Y-84998342D01*
X90961148Y-85115250D01*
X90970865Y-85125468D01*
X90977666Y-85123124D01*
X91479658Y-84621132D01*
X92204408Y-84621132D01*
X92204539Y-84622965D01*
X92208790Y-84629580D01*
X92696661Y-85117451D01*
X92709041Y-85124211D01*
X92715775Y-85119170D01*
X92762262Y-85037337D01*
X92767256Y-85026121D01*
X92825759Y-84850253D01*
X92828479Y-84838281D01*
X92852039Y-84651784D01*
X92852531Y-84644757D01*
X92852828Y-84623523D01*
X92852533Y-84616494D01*
X92834188Y-84429397D01*
X92831805Y-84417362D01*
X92778233Y-84239924D01*
X92773559Y-84228584D01*
X92718562Y-84125148D01*
X92708702Y-84115067D01*
X92701575Y-84117635D01*
X92212022Y-84607188D01*
X92204408Y-84621132D01*
X91479658Y-84621132D01*
X92337834Y-83762956D01*
X92344594Y-83750576D01*
X92339935Y-83744353D01*
X92237924Y-83689196D01*
X92226619Y-83684444D01*
X92049554Y-83629633D01*
X92037541Y-83627167D01*
X91853199Y-83607792D01*
X91840931Y-83607707D01*
X91650206Y-83625064D01*
X91650097Y-83623861D01*
X91585805Y-83617599D01*
X91530081Y-83573605D01*
X91506989Y-83506469D01*
X91507851Y-83484922D01*
X91522321Y-83370379D01*
X91522762Y-83366892D01*
X91523138Y-83340000D01*
X91508409Y-83189785D01*
X91521668Y-83120038D01*
X91570531Y-83068531D01*
X91639483Y-83051618D01*
X91648727Y-83052376D01*
X91812676Y-83071926D01*
X91824925Y-83072183D01*
X92009742Y-83057962D01*
X92021822Y-83055831D01*
X92200345Y-83005986D01*
X92211778Y-83001552D01*
X92335507Y-82939052D01*
X92345791Y-82929407D01*
X92343553Y-82922763D01*
X91481922Y-82061132D01*
X92204408Y-82061132D01*
X92204539Y-82062965D01*
X92208790Y-82069580D01*
X92696661Y-82557451D01*
X92709041Y-82564211D01*
X92715775Y-82559170D01*
X92762262Y-82477337D01*
X92767256Y-82466121D01*
X92825759Y-82290253D01*
X92828479Y-82278281D01*
X92852039Y-82091784D01*
X92852531Y-82084757D01*
X92852828Y-82063523D01*
X92852533Y-82056494D01*
X92834188Y-81869397D01*
X92831805Y-81857362D01*
X92778233Y-81679924D01*
X92773559Y-81668584D01*
X92718562Y-81565148D01*
X92708702Y-81555067D01*
X92701575Y-81557635D01*
X92212022Y-82047188D01*
X92204408Y-82061132D01*
X91481922Y-82061132D01*
X90983121Y-81562331D01*
X90970741Y-81555571D01*
X90964353Y-81560353D01*
X90911997Y-81655586D01*
X90907166Y-81666858D01*
X90851120Y-81843538D01*
X90848570Y-81855532D01*
X90827909Y-82039733D01*
X90827738Y-82052002D01*
X90843247Y-82236704D01*
X90844517Y-82243623D01*
X90837138Y-82314235D01*
X90792754Y-82369648D01*
X90725458Y-82392269D01*
X90707420Y-82391673D01*
X90604131Y-82380817D01*
X90572852Y-82377529D01*
X90572851Y-82377529D01*
X90566724Y-82376885D01*
X90492941Y-82383600D01*
X90408476Y-82391287D01*
X90338823Y-82377542D01*
X90287658Y-82328321D01*
X90271227Y-82259252D01*
X90272050Y-82250014D01*
X90292039Y-82091784D01*
X90292531Y-82084757D01*
X90292828Y-82063523D01*
X90292533Y-82056494D01*
X90274188Y-81869397D01*
X90271805Y-81857362D01*
X90218233Y-81679924D01*
X90213559Y-81668584D01*
X90158562Y-81565148D01*
X90148702Y-81555067D01*
X90141575Y-81557635D01*
X88782458Y-82916752D01*
X88775698Y-82929132D01*
X88780607Y-82935690D01*
X88869118Y-82985157D01*
X88880357Y-82990067D01*
X89056641Y-83047345D01*
X89068615Y-83049978D01*
X89252676Y-83071926D01*
X89264925Y-83072183D01*
X89449742Y-83057962D01*
X89464788Y-83055308D01*
X89535347Y-83063175D01*
X89590453Y-83107940D01*
X89612608Y-83175391D01*
X89611887Y-83193438D01*
X89596956Y-83326552D01*
X89610743Y-83490734D01*
X89596512Y-83560288D01*
X89546935Y-83611108D01*
X89472015Y-83626586D01*
X89293201Y-83607792D01*
X89280931Y-83607707D01*
X89096345Y-83624505D01*
X89084296Y-83626803D01*
X88906483Y-83679137D01*
X88895108Y-83683732D01*
X88784969Y-83741312D01*
X88774820Y-83751101D01*
X50208500Y-83751101D01*
X50208500Y-82052002D01*
X88267738Y-82052002D01*
X88283248Y-82236705D01*
X88285461Y-82248764D01*
X88336554Y-82426945D01*
X88341066Y-82438342D01*
X88401148Y-82555250D01*
X88410865Y-82565468D01*
X88417666Y-82563124D01*
X88907978Y-82072812D01*
X88915592Y-82058868D01*
X88915461Y-82057035D01*
X88911210Y-82050420D01*
X88423121Y-81562331D01*
X88410741Y-81555571D01*
X88404353Y-81560353D01*
X88351997Y-81655586D01*
X88347166Y-81666858D01*
X88291120Y-81843538D01*
X88288570Y-81855532D01*
X88267909Y-82039733D01*
X88267738Y-82052002D01*
X50208500Y-82052002D01*
X50208500Y-81191101D01*
X88774820Y-81191101D01*
X88777274Y-81198064D01*
X89267188Y-81687978D01*
X89281132Y-81695592D01*
X89282965Y-81695461D01*
X89289580Y-81691210D01*
X89777834Y-81202956D01*
X89784307Y-81191101D01*
X91334820Y-81191101D01*
X91337274Y-81198064D01*
X91827188Y-81687978D01*
X91841132Y-81695592D01*
X91842965Y-81695461D01*
X91849580Y-81691210D01*
X92337834Y-81202956D01*
X92344594Y-81190576D01*
X92339935Y-81184353D01*
X92237924Y-81129196D01*
X92226619Y-81124444D01*
X92049554Y-81069633D01*
X92037541Y-81067167D01*
X91853199Y-81047792D01*
X91840931Y-81047707D01*
X91656345Y-81064505D01*
X91644296Y-81066803D01*
X91466483Y-81119137D01*
X91455108Y-81123732D01*
X91344969Y-81181312D01*
X91334820Y-81191101D01*
X89784307Y-81191101D01*
X89784594Y-81190576D01*
X89779935Y-81184353D01*
X89677924Y-81129196D01*
X89666619Y-81124444D01*
X89489554Y-81069633D01*
X89477541Y-81067167D01*
X89293199Y-81047792D01*
X89280931Y-81047707D01*
X89096345Y-81064505D01*
X89084296Y-81066803D01*
X88906483Y-81119137D01*
X88895108Y-81123732D01*
X88784969Y-81181312D01*
X88774820Y-81191101D01*
X50208500Y-81191101D01*
X50208500Y-78407184D01*
X64839899Y-78407184D01*
X64855825Y-78596842D01*
X64908286Y-78779794D01*
X64911104Y-78785277D01*
X64992463Y-78943586D01*
X64992466Y-78943590D01*
X64995283Y-78949072D01*
X65113503Y-79098228D01*
X65118197Y-79102223D01*
X65141849Y-79122352D01*
X65258442Y-79221581D01*
X65424581Y-79314433D01*
X65605591Y-79373247D01*
X65794577Y-79395782D01*
X65800712Y-79395310D01*
X65800714Y-79395310D01*
X65978200Y-79381654D01*
X65978205Y-79381653D01*
X65984341Y-79381181D01*
X65990273Y-79379525D01*
X65990277Y-79379524D01*
X66075998Y-79355589D01*
X66167655Y-79329998D01*
X66337536Y-79244185D01*
X66487514Y-79127010D01*
X66508910Y-79102223D01*
X66607852Y-78987596D01*
X66607852Y-78987595D01*
X66611876Y-78982934D01*
X66614920Y-78977576D01*
X66702840Y-78822811D01*
X66702842Y-78822806D01*
X66705886Y-78817448D01*
X66765962Y-78636853D01*
X66771792Y-78590703D01*
X66789374Y-78451532D01*
X66789375Y-78451523D01*
X66789816Y-78448029D01*
X66790196Y-78420800D01*
X66788861Y-78407184D01*
X109489899Y-78407184D01*
X109505825Y-78596842D01*
X109558286Y-78779794D01*
X109561104Y-78785277D01*
X109642463Y-78943586D01*
X109642466Y-78943590D01*
X109645283Y-78949072D01*
X109763503Y-79098228D01*
X109768197Y-79102223D01*
X109791849Y-79122352D01*
X109908442Y-79221581D01*
X110074581Y-79314433D01*
X110255591Y-79373247D01*
X110444577Y-79395782D01*
X110450712Y-79395310D01*
X110450714Y-79395310D01*
X110628200Y-79381654D01*
X110628205Y-79381653D01*
X110634341Y-79381181D01*
X110640273Y-79379525D01*
X110640277Y-79379524D01*
X110725998Y-79355589D01*
X110817655Y-79329998D01*
X110987536Y-79244185D01*
X111137514Y-79127010D01*
X111158910Y-79102223D01*
X111257852Y-78987596D01*
X111257852Y-78987595D01*
X111261876Y-78982934D01*
X111264920Y-78977576D01*
X111352840Y-78822811D01*
X111352842Y-78822806D01*
X111355886Y-78817448D01*
X111415962Y-78636853D01*
X111421792Y-78590703D01*
X111439374Y-78451532D01*
X111439375Y-78451523D01*
X111439816Y-78448029D01*
X111440196Y-78420800D01*
X111421624Y-78231383D01*
X111366614Y-78049182D01*
X111277261Y-77881135D01*
X111156971Y-77733644D01*
X111010323Y-77612326D01*
X110842904Y-77521803D01*
X110661090Y-77465522D01*
X110654965Y-77464878D01*
X110654964Y-77464878D01*
X110477937Y-77446272D01*
X110477935Y-77446272D01*
X110471808Y-77445628D01*
X110356091Y-77456159D01*
X110288407Y-77462318D01*
X110288406Y-77462318D01*
X110282266Y-77462877D01*
X110273279Y-77465522D01*
X110105596Y-77514874D01*
X110105593Y-77514875D01*
X110099685Y-77516614D01*
X109931019Y-77604791D01*
X109926221Y-77608649D01*
X109926219Y-77608650D01*
X109856855Y-77664420D01*
X109782691Y-77724049D01*
X109660353Y-77869846D01*
X109657389Y-77875238D01*
X109657386Y-77875242D01*
X109651155Y-77886577D01*
X109568663Y-78036629D01*
X109511114Y-78218045D01*
X109489899Y-78407184D01*
X66788861Y-78407184D01*
X66771624Y-78231383D01*
X66716614Y-78049182D01*
X66627261Y-77881135D01*
X66506971Y-77733644D01*
X66360323Y-77612326D01*
X66192904Y-77521803D01*
X66011090Y-77465522D01*
X66004965Y-77464878D01*
X66004964Y-77464878D01*
X65827937Y-77446272D01*
X65827935Y-77446272D01*
X65821808Y-77445628D01*
X65706091Y-77456159D01*
X65638407Y-77462318D01*
X65638406Y-77462318D01*
X65632266Y-77462877D01*
X65623279Y-77465522D01*
X65455596Y-77514874D01*
X65455593Y-77514875D01*
X65449685Y-77516614D01*
X65281019Y-77604791D01*
X65276221Y-77608649D01*
X65276219Y-77608650D01*
X65206855Y-77664420D01*
X65132691Y-77724049D01*
X65010353Y-77869846D01*
X65007389Y-77875238D01*
X65007386Y-77875242D01*
X65001155Y-77886577D01*
X64918663Y-78036629D01*
X64861114Y-78218045D01*
X64839899Y-78407184D01*
X50208500Y-78407184D01*
X50208500Y-60641384D01*
X64595699Y-60641384D01*
X64611625Y-60831042D01*
X64664086Y-61013994D01*
X64666904Y-61019477D01*
X64748263Y-61177786D01*
X64748266Y-61177790D01*
X64751083Y-61183272D01*
X64869303Y-61332428D01*
X64873997Y-61336423D01*
X64897649Y-61356552D01*
X65014242Y-61455781D01*
X65180381Y-61548633D01*
X65361391Y-61607447D01*
X65550377Y-61629982D01*
X65556512Y-61629510D01*
X65556514Y-61629510D01*
X65734000Y-61615854D01*
X65734005Y-61615853D01*
X65740141Y-61615381D01*
X65746073Y-61613725D01*
X65746077Y-61613724D01*
X65831798Y-61589789D01*
X65923455Y-61564198D01*
X66093336Y-61478385D01*
X66243314Y-61361210D01*
X66264710Y-61336423D01*
X66363652Y-61221796D01*
X66363652Y-61221795D01*
X66367676Y-61217134D01*
X66370720Y-61211776D01*
X66458640Y-61057011D01*
X66458642Y-61057006D01*
X66461686Y-61051648D01*
X66521762Y-60871053D01*
X66527592Y-60824903D01*
X66545174Y-60685732D01*
X66545175Y-60685723D01*
X66545616Y-60682229D01*
X66545996Y-60655000D01*
X66544661Y-60641384D01*
X108944099Y-60641384D01*
X108960025Y-60831042D01*
X109012486Y-61013994D01*
X109015304Y-61019477D01*
X109096663Y-61177786D01*
X109096666Y-61177790D01*
X109099483Y-61183272D01*
X109217703Y-61332428D01*
X109222397Y-61336423D01*
X109246049Y-61356552D01*
X109362642Y-61455781D01*
X109528781Y-61548633D01*
X109709791Y-61607447D01*
X109898777Y-61629982D01*
X109904912Y-61629510D01*
X109904914Y-61629510D01*
X110082400Y-61615854D01*
X110082405Y-61615853D01*
X110088541Y-61615381D01*
X110094473Y-61613725D01*
X110094477Y-61613724D01*
X110180198Y-61589789D01*
X110271855Y-61564198D01*
X110441736Y-61478385D01*
X110591714Y-61361210D01*
X110613110Y-61336423D01*
X110712052Y-61221796D01*
X110712052Y-61221795D01*
X110716076Y-61217134D01*
X110719120Y-61211776D01*
X110807040Y-61057011D01*
X110807042Y-61057006D01*
X110810086Y-61051648D01*
X110870162Y-60871053D01*
X110875992Y-60824903D01*
X110893574Y-60685732D01*
X110893575Y-60685723D01*
X110894016Y-60682229D01*
X110894396Y-60655000D01*
X110875824Y-60465583D01*
X110820814Y-60283382D01*
X110731461Y-60115335D01*
X110611171Y-59967844D01*
X110464523Y-59846526D01*
X110297104Y-59756003D01*
X110115290Y-59699722D01*
X110109165Y-59699078D01*
X110109164Y-59699078D01*
X109932137Y-59680472D01*
X109932135Y-59680472D01*
X109926008Y-59679828D01*
X109810291Y-59690359D01*
X109742607Y-59696518D01*
X109742606Y-59696518D01*
X109736466Y-59697077D01*
X109727479Y-59699722D01*
X109559796Y-59749074D01*
X109559793Y-59749075D01*
X109553885Y-59750814D01*
X109385219Y-59838991D01*
X109380421Y-59842849D01*
X109380419Y-59842850D01*
X109311055Y-59898620D01*
X109236891Y-59958249D01*
X109114553Y-60104046D01*
X109111589Y-60109438D01*
X109111586Y-60109442D01*
X109105355Y-60120777D01*
X109022863Y-60270829D01*
X108965314Y-60452245D01*
X108944099Y-60641384D01*
X66544661Y-60641384D01*
X66527424Y-60465583D01*
X66472414Y-60283382D01*
X66383061Y-60115335D01*
X66262771Y-59967844D01*
X66116123Y-59846526D01*
X65948704Y-59756003D01*
X65766890Y-59699722D01*
X65760765Y-59699078D01*
X65760764Y-59699078D01*
X65583737Y-59680472D01*
X65583735Y-59680472D01*
X65577608Y-59679828D01*
X65461891Y-59690359D01*
X65394207Y-59696518D01*
X65394206Y-59696518D01*
X65388066Y-59697077D01*
X65379079Y-59699722D01*
X65211396Y-59749074D01*
X65211393Y-59749075D01*
X65205485Y-59750814D01*
X65036819Y-59838991D01*
X65032021Y-59842849D01*
X65032019Y-59842850D01*
X64962655Y-59898620D01*
X64888491Y-59958249D01*
X64766153Y-60104046D01*
X64763189Y-60109438D01*
X64763186Y-60109442D01*
X64756955Y-60120777D01*
X64674463Y-60270829D01*
X64616914Y-60452245D01*
X64595699Y-60641384D01*
X50208500Y-60641384D01*
X50208500Y-54630000D01*
X51716738Y-54630000D01*
X51735767Y-54932462D01*
X51792555Y-55230154D01*
X51793782Y-55233930D01*
X51871484Y-55473070D01*
X51886206Y-55518381D01*
X51887893Y-55521967D01*
X51887895Y-55521971D01*
X51890156Y-55526775D01*
X52015242Y-55792598D01*
X52177630Y-56048480D01*
X52370808Y-56281992D01*
X52591729Y-56489450D01*
X52836910Y-56667584D01*
X52840379Y-56669491D01*
X52840382Y-56669493D01*
X53099014Y-56811678D01*
X53102483Y-56813585D01*
X53106152Y-56815038D01*
X53106157Y-56815040D01*
X53286728Y-56886533D01*
X53384261Y-56925149D01*
X53677800Y-57000516D01*
X53978470Y-57038500D01*
X54281530Y-57038500D01*
X54582200Y-57000516D01*
X54875739Y-56925149D01*
X54973272Y-56886533D01*
X55153843Y-56815040D01*
X55153848Y-56815038D01*
X55157517Y-56813585D01*
X55160986Y-56811678D01*
X55419618Y-56669493D01*
X55419621Y-56669491D01*
X55423090Y-56667584D01*
X55668271Y-56489450D01*
X55889192Y-56281992D01*
X56082370Y-56048480D01*
X56244758Y-55792598D01*
X56369844Y-55526775D01*
X56372105Y-55521971D01*
X56372107Y-55521967D01*
X56373794Y-55518381D01*
X56388517Y-55473070D01*
X56466218Y-55233930D01*
X56467445Y-55230154D01*
X56524233Y-54932462D01*
X56543262Y-54630000D01*
X56524233Y-54327538D01*
X56467445Y-54029846D01*
X56413909Y-53865080D01*
X56375020Y-53745392D01*
X56375020Y-53745391D01*
X56373794Y-53741619D01*
X56244758Y-53467402D01*
X56082370Y-53211520D01*
X56079314Y-53207825D01*
X56023930Y-53140879D01*
X55889192Y-52978008D01*
X55685479Y-52786709D01*
X55671158Y-52773261D01*
X55671157Y-52773261D01*
X55668271Y-52770550D01*
X55423090Y-52592416D01*
X55413341Y-52587056D01*
X55160986Y-52448322D01*
X55160985Y-52448321D01*
X55157517Y-52446415D01*
X55153848Y-52444962D01*
X55153843Y-52444960D01*
X54879409Y-52336304D01*
X54879408Y-52336304D01*
X54875739Y-52334851D01*
X54582200Y-52259484D01*
X54281530Y-52221500D01*
X53978470Y-52221500D01*
X53677800Y-52259484D01*
X53384261Y-52334851D01*
X53380592Y-52336304D01*
X53380591Y-52336304D01*
X53106157Y-52444960D01*
X53106152Y-52444962D01*
X53102483Y-52446415D01*
X53099015Y-52448321D01*
X53099014Y-52448322D01*
X52846660Y-52587056D01*
X52836910Y-52592416D01*
X52591729Y-52770550D01*
X52588843Y-52773261D01*
X52588842Y-52773261D01*
X52574521Y-52786709D01*
X52370808Y-52978008D01*
X52236070Y-53140879D01*
X52180687Y-53207825D01*
X52177630Y-53211520D01*
X52015242Y-53467402D01*
X51886206Y-53741619D01*
X51884980Y-53745391D01*
X51884980Y-53745392D01*
X51846091Y-53865080D01*
X51792555Y-54029846D01*
X51735767Y-54327538D01*
X51716738Y-54630000D01*
X50208500Y-54630000D01*
X50208500Y-50334500D01*
X50228502Y-50266379D01*
X50282158Y-50219886D01*
X50334500Y-50208500D01*
X59189437Y-50208500D01*
X59257558Y-50228502D01*
G37*
%TD.AperFunction*%
M02*
