%TF.GenerationSoftware,KiCad,Pcbnew,(6.0.4-0)*%
%TF.CreationDate,2022-04-20T10:52:20-05:00*%
%TF.ProjectId,payload_board,7061796c-6f61-4645-9f62-6f6172642e6b,3*%
%TF.SameCoordinates,Original*%
%TF.FileFunction,Legend,Bot*%
%TF.FilePolarity,Positive*%
%FSLAX46Y46*%
G04 Gerber Fmt 4.6, Leading zero omitted, Abs format (unit mm)*
G04 Created by KiCad (PCBNEW (6.0.4-0)) date 2022-04-20 10:52:20*
%MOMM*%
%LPD*%
G01*
G04 APERTURE LIST*
%ADD10C,0.150000*%
%ADD11C,0.120000*%
%ADD12R,2.000000X2.000000*%
%ADD13R,8.000000X4.000000*%
%ADD14C,1.524000*%
%ADD15R,1.524000X1.524000*%
%ADD16R,1.295400X1.193800*%
%ADD17R,1.295400X0.889000*%
%ADD18O,1.700000X1.700000*%
%ADD19R,1.700000X1.700000*%
%ADD20C,1.000000*%
%ADD21C,1.500000*%
%ADD22C,6.000000*%
%ADD23C,4.000000*%
%ADD24C,7.400000*%
%ADD25C,4.400000*%
G04 APERTURE END LIST*
D10*
X76371904Y-117582380D02*
X76371904Y-118391904D01*
X76324285Y-118487142D01*
X76276666Y-118534761D01*
X76181428Y-118582380D01*
X75990952Y-118582380D01*
X75895714Y-118534761D01*
X75848095Y-118487142D01*
X75800476Y-118391904D01*
X75800476Y-117582380D01*
X74895714Y-117915714D02*
X74895714Y-118582380D01*
X75133809Y-117534761D02*
X75371904Y-118249047D01*
X74752857Y-118249047D01*
X77761904Y-125932380D02*
X77761904Y-126741904D01*
X77714285Y-126837142D01*
X77666666Y-126884761D01*
X77571428Y-126932380D01*
X77380952Y-126932380D01*
X77285714Y-126884761D01*
X77238095Y-126837142D01*
X77190476Y-126741904D01*
X77190476Y-125932380D01*
X76190476Y-126932380D02*
X76761904Y-126932380D01*
X76476190Y-126932380D02*
X76476190Y-125932380D01*
X76571428Y-126075238D01*
X76666666Y-126170476D01*
X76761904Y-126218095D01*
X98131904Y-124502380D02*
X98131904Y-125311904D01*
X98084285Y-125407142D01*
X98036666Y-125454761D01*
X97941428Y-125502380D01*
X97750952Y-125502380D01*
X97655714Y-125454761D01*
X97608095Y-125407142D01*
X97560476Y-125311904D01*
X97560476Y-124502380D01*
X97131904Y-124597619D02*
X97084285Y-124550000D01*
X96989047Y-124502380D01*
X96750952Y-124502380D01*
X96655714Y-124550000D01*
X96608095Y-124597619D01*
X96560476Y-124692857D01*
X96560476Y-124788095D01*
X96608095Y-124930952D01*
X97179523Y-125502380D01*
X96560476Y-125502380D01*
X96961904Y-115792380D02*
X96961904Y-116601904D01*
X96914285Y-116697142D01*
X96866666Y-116744761D01*
X96771428Y-116792380D01*
X96580952Y-116792380D01*
X96485714Y-116744761D01*
X96438095Y-116697142D01*
X96390476Y-116601904D01*
X96390476Y-115792380D01*
X96009523Y-115792380D02*
X95390476Y-115792380D01*
X95723809Y-116173333D01*
X95580952Y-116173333D01*
X95485714Y-116220952D01*
X95438095Y-116268571D01*
X95390476Y-116363809D01*
X95390476Y-116601904D01*
X95438095Y-116697142D01*
X95485714Y-116744761D01*
X95580952Y-116792380D01*
X95866666Y-116792380D01*
X95961904Y-116744761D01*
X96009523Y-116697142D01*
X58356504Y-106609780D02*
X58356504Y-107419304D01*
X58308885Y-107514542D01*
X58261266Y-107562161D01*
X58166028Y-107609780D01*
X57975552Y-107609780D01*
X57880314Y-107562161D01*
X57832695Y-107514542D01*
X57785076Y-107419304D01*
X57785076Y-106609780D01*
X56832695Y-106609780D02*
X57308885Y-106609780D01*
X57356504Y-107085971D01*
X57308885Y-107038352D01*
X57213647Y-106990733D01*
X56975552Y-106990733D01*
X56880314Y-107038352D01*
X56832695Y-107085971D01*
X56785076Y-107181209D01*
X56785076Y-107419304D01*
X56832695Y-107514542D01*
X56880314Y-107562161D01*
X56975552Y-107609780D01*
X57213647Y-107609780D01*
X57308885Y-107562161D01*
X57356504Y-107514542D01*
X82901904Y-87482380D02*
X82901904Y-88291904D01*
X82854285Y-88387142D01*
X82806666Y-88434761D01*
X82711428Y-88482380D01*
X82520952Y-88482380D01*
X82425714Y-88434761D01*
X82378095Y-88387142D01*
X82330476Y-88291904D01*
X82330476Y-87482380D01*
X81425714Y-87482380D02*
X81616190Y-87482380D01*
X81711428Y-87530000D01*
X81759047Y-87577619D01*
X81854285Y-87720476D01*
X81901904Y-87910952D01*
X81901904Y-88291904D01*
X81854285Y-88387142D01*
X81806666Y-88434761D01*
X81711428Y-88482380D01*
X81520952Y-88482380D01*
X81425714Y-88434761D01*
X81378095Y-88387142D01*
X81330476Y-88291904D01*
X81330476Y-88053809D01*
X81378095Y-87958571D01*
X81425714Y-87910952D01*
X81520952Y-87863333D01*
X81711428Y-87863333D01*
X81806666Y-87910952D01*
X81854285Y-87958571D01*
X81901904Y-88053809D01*
X69091904Y-138654761D02*
X68949047Y-138702380D01*
X68710952Y-138702380D01*
X68615714Y-138654761D01*
X68568095Y-138607142D01*
X68520476Y-138511904D01*
X68520476Y-138416666D01*
X68568095Y-138321428D01*
X68615714Y-138273809D01*
X68710952Y-138226190D01*
X68901428Y-138178571D01*
X68996666Y-138130952D01*
X69044285Y-138083333D01*
X69091904Y-137988095D01*
X69091904Y-137892857D01*
X69044285Y-137797619D01*
X68996666Y-137750000D01*
X68901428Y-137702380D01*
X68663333Y-137702380D01*
X68520476Y-137750000D01*
X68091904Y-138702380D02*
X68091904Y-137702380D01*
X67758571Y-138416666D01*
X67425238Y-137702380D01*
X67425238Y-138702380D01*
X66996666Y-138416666D02*
X66520476Y-138416666D01*
X67091904Y-138702380D02*
X66758571Y-137702380D01*
X66425238Y-138702380D01*
X65568095Y-138702380D02*
X66139523Y-138702380D01*
X65853809Y-138702380D02*
X65853809Y-137702380D01*
X65949047Y-137845238D01*
X66044285Y-137940476D01*
X66139523Y-137988095D01*
X92921904Y-80844761D02*
X92779047Y-80892380D01*
X92540952Y-80892380D01*
X92445714Y-80844761D01*
X92398095Y-80797142D01*
X92350476Y-80701904D01*
X92350476Y-80606666D01*
X92398095Y-80511428D01*
X92445714Y-80463809D01*
X92540952Y-80416190D01*
X92731428Y-80368571D01*
X92826666Y-80320952D01*
X92874285Y-80273333D01*
X92921904Y-80178095D01*
X92921904Y-80082857D01*
X92874285Y-79987619D01*
X92826666Y-79940000D01*
X92731428Y-79892380D01*
X92493333Y-79892380D01*
X92350476Y-79940000D01*
X91921904Y-80892380D02*
X91921904Y-79892380D01*
X91588571Y-80606666D01*
X91255238Y-79892380D01*
X91255238Y-80892380D01*
X90826666Y-80606666D02*
X90350476Y-80606666D01*
X90921904Y-80892380D02*
X90588571Y-79892380D01*
X90255238Y-80892380D01*
X89969523Y-79987619D02*
X89921904Y-79940000D01*
X89826666Y-79892380D01*
X89588571Y-79892380D01*
X89493333Y-79940000D01*
X89445714Y-79987619D01*
X89398095Y-80082857D01*
X89398095Y-80178095D01*
X89445714Y-80320952D01*
X90017142Y-80892380D01*
X89398095Y-80892380D01*
D11*
X56858000Y-111831000D02*
X58382000Y-111831000D01*
X56858000Y-108529000D02*
X59906000Y-108529000D01*
X64975000Y-142905000D02*
X68485000Y-142905000D01*
X64975000Y-139395000D02*
X68485000Y-139395000D01*
X68485000Y-142905000D02*
X68485000Y-139395000D01*
X64975000Y-142905000D02*
X64975000Y-139395000D01*
X88805000Y-85095000D02*
X92315000Y-85095000D01*
X88805000Y-81585000D02*
X92315000Y-81585000D01*
X92315000Y-85095000D02*
X92315000Y-81585000D01*
X88805000Y-85095000D02*
X88805000Y-81585000D01*
%LPC*%
D12*
X82510000Y-111120000D03*
X82260000Y-116140000D03*
X79160000Y-116140000D03*
X76610000Y-116140000D03*
X73710000Y-116140000D03*
X71160000Y-116140000D03*
X67450000Y-111110000D03*
X67760000Y-106140000D03*
X70760000Y-106140000D03*
X79260000Y-106140000D03*
X82260000Y-106140000D03*
D13*
X74810000Y-111120000D03*
D14*
X65570800Y-60655000D03*
X109919200Y-60655000D03*
X65815000Y-78420800D03*
X65815000Y-122769200D03*
X109954200Y-134020000D03*
X65605800Y-134020000D03*
X110465000Y-78420800D03*
X110465000Y-122769200D03*
D15*
X79840000Y-133960000D03*
X77300000Y-133960000D03*
X74760000Y-133960000D03*
X72220000Y-133960000D03*
X69870000Y-133960000D03*
X82860000Y-131670000D03*
X82860000Y-128880000D03*
X82860000Y-125600000D03*
X80030000Y-123450000D03*
X77490000Y-123450000D03*
X74950000Y-123450000D03*
X72410000Y-123450000D03*
X69870000Y-123450000D03*
X67140000Y-125600000D03*
X67140000Y-128880000D03*
X67140000Y-131670000D03*
D12*
X90470000Y-132060000D03*
X90720000Y-127040000D03*
X93820000Y-127040000D03*
X96370000Y-127040000D03*
X99270000Y-127040000D03*
X101820000Y-127040000D03*
X105530000Y-132070000D03*
X105220000Y-137040000D03*
X102220000Y-137040000D03*
X93720000Y-137040000D03*
X90720000Y-137040000D03*
D13*
X98170000Y-132060000D03*
D15*
X93360000Y-108860000D03*
X95900000Y-108860000D03*
X98440000Y-108860000D03*
X100980000Y-108860000D03*
X103330000Y-108860000D03*
X90340000Y-111150000D03*
X90340000Y-113940000D03*
X90340000Y-117220000D03*
X93170000Y-119370000D03*
X95710000Y-119370000D03*
X98250000Y-119370000D03*
X100790000Y-119370000D03*
X103330000Y-119370000D03*
X106060000Y-117220000D03*
X106060000Y-113940000D03*
X106060000Y-111150000D03*
D16*
X56502400Y-110929300D03*
D17*
X58712200Y-111132500D03*
X58712200Y-109227500D03*
X56502400Y-109227500D03*
D12*
X75240000Y-95040000D03*
X75490000Y-90020000D03*
X78590000Y-90020000D03*
X81140000Y-90020000D03*
X84040000Y-90020000D03*
X86590000Y-90020000D03*
X90300000Y-95050000D03*
X89990000Y-100020000D03*
X86990000Y-100020000D03*
X78490000Y-100020000D03*
X75490000Y-100020000D03*
D13*
X82940000Y-95040000D03*
D18*
X95450000Y-153130000D03*
X92910000Y-153130000D03*
X90370000Y-153130000D03*
X87830000Y-153130000D03*
X85290000Y-153130000D03*
X82750000Y-153130000D03*
D19*
X80210000Y-153130000D03*
D20*
X68010000Y-142430000D03*
X68010000Y-139870000D03*
X65450000Y-139870000D03*
X65450000Y-142430000D03*
D21*
X66730000Y-141150000D03*
D20*
X91840000Y-84620000D03*
X91840000Y-82060000D03*
X89280000Y-82060000D03*
X89280000Y-84620000D03*
D21*
X90560000Y-83340000D03*
D22*
X115120000Y-146160000D03*
X115120000Y-53960000D03*
D23*
X120870000Y-146480000D03*
X120870000Y-54630000D03*
D24*
X60970000Y-146160000D03*
X60970000Y-53960000D03*
D25*
X54130000Y-146480000D03*
X120870000Y-100560000D03*
X54130000Y-100560000D03*
X54130000Y-54630000D03*
M02*
