%TF.GenerationSoftware,KiCad,Pcbnew,(5.1.0)-1*%
%TF.CreationDate,2019-05-03T18:32:39-05:00*%
%TF.ProjectId,payload_board,7061796c-6f61-4645-9f62-6f6172642e6b,rev?*%
%TF.SameCoordinates,Original*%
%TF.FileFunction,Copper,L2,Bot*%
%TF.FilePolarity,Positive*%
%FSLAX46Y46*%
G04 Gerber Fmt 4.6, Leading zero omitted, Abs format (unit mm)*
G04 Created by KiCad (PCBNEW (5.1.0)-1) date 2019-05-03 18:32:39*
%MOMM*%
%LPD*%
G04 APERTURE LIST*
%ADD10C,1.524000*%
%ADD11C,1.500000*%
%ADD12C,1.000000*%
%ADD13C,6.000000*%
%ADD14C,4.000000*%
%ADD15C,7.400000*%
%ADD16C,4.400000*%
%ADD17C,0.508000*%
%ADD18C,0.254000*%
G04 APERTURE END LIST*
D10*
X70230000Y-154090000D03*
X67230000Y-154090000D03*
X64230000Y-154090000D03*
X85090000Y-154040000D03*
X87590000Y-154040000D03*
X82590000Y-154040000D03*
X80090000Y-154040000D03*
X77590000Y-154040000D03*
D11*
X113000000Y-154010000D03*
D12*
X111720000Y-152730000D03*
X111720000Y-155290000D03*
X114280000Y-155290000D03*
X114280000Y-152730000D03*
D13*
X115120000Y-146160000D03*
X115120000Y-53960000D03*
D14*
X120870000Y-146480000D03*
X120870000Y-54630000D03*
D10*
X109919200Y-60655000D03*
X65570800Y-60655000D03*
X65815000Y-122769200D03*
X65815000Y-78420800D03*
X109919200Y-134645000D03*
X65570800Y-134645000D03*
X110465000Y-122769200D03*
X110465000Y-78420800D03*
D12*
X104280000Y-152730000D03*
X104280000Y-155290000D03*
X101720000Y-155290000D03*
X101720000Y-152730000D03*
D11*
X103000000Y-154010000D03*
D15*
X60970000Y-146160000D03*
X60970000Y-53960000D03*
D16*
X54130000Y-146480000D03*
X120870000Y-100560000D03*
X54130000Y-100560000D03*
X54130000Y-54630000D03*
D12*
X65885000Y-142835000D03*
X103140000Y-107790000D03*
X71155000Y-104235000D03*
X121690000Y-131630000D03*
X116115000Y-86255000D03*
D17*
X103150000Y-107802000D02*
X103150000Y-112940000D01*
X103150000Y-112940000D02*
X96750000Y-119340000D01*
X96750000Y-119340000D02*
X77440000Y-119340000D01*
X77460000Y-119340000D02*
X77480000Y-119360000D01*
X77480000Y-119360000D02*
X71160000Y-113040000D01*
X71160000Y-113040000D02*
X71160000Y-104280000D01*
X65885000Y-142835000D02*
X61320000Y-138270000D01*
X61320000Y-135520000D02*
X77480000Y-119360000D01*
X61320000Y-138270000D02*
X61320000Y-135520000D01*
X121190001Y-132129999D02*
X121690000Y-131630000D01*
X108010000Y-145310000D02*
X121190001Y-132129999D01*
X96300000Y-145310000D02*
X108010000Y-145310000D01*
X88351999Y-153258001D02*
X96300000Y-145310000D01*
X88351999Y-153278001D02*
X88351999Y-153258001D01*
X87590000Y-154040000D02*
X88351999Y-153278001D01*
X116115000Y-86255000D02*
X116115000Y-133285000D01*
X108790000Y-140770000D02*
X116195000Y-133365000D01*
X98300000Y-140770000D02*
X108790000Y-140770000D01*
X64771999Y-153428001D02*
X66210000Y-151990000D01*
X64000000Y-154190000D02*
X64761999Y-153428001D01*
X64761999Y-153428001D02*
X64771999Y-153428001D01*
X83040000Y-151990000D02*
X85090000Y-154040000D01*
X66210000Y-151990000D02*
X83040000Y-151990000D01*
X98300000Y-140830000D02*
X85090000Y-154040000D01*
X98300000Y-140770000D02*
X98300000Y-140830000D01*
X70230000Y-154090000D02*
X71900000Y-155760000D01*
X78370000Y-155760000D02*
X80090000Y-154040000D01*
X71900000Y-155760000D02*
X78370000Y-155760000D01*
D18*
G36*
X116616257Y-150130769D02*
G01*
X116705955Y-150167923D01*
X116782976Y-150227024D01*
X116842077Y-150304045D01*
X116879231Y-150393743D01*
X116893000Y-150498328D01*
X116893000Y-156491672D01*
X116880055Y-156590000D01*
X100130610Y-156590000D01*
X100117726Y-156491138D01*
X100118329Y-156068166D01*
X101121439Y-156068166D01*
X101156550Y-156281588D01*
X101360826Y-156372458D01*
X101578905Y-156421731D01*
X101802406Y-156427511D01*
X102022740Y-156389577D01*
X102231440Y-156309387D01*
X102283450Y-156281588D01*
X102318561Y-156068166D01*
X103681439Y-156068166D01*
X103716550Y-156281588D01*
X103920826Y-156372458D01*
X104138905Y-156421731D01*
X104362406Y-156427511D01*
X104582740Y-156389577D01*
X104791440Y-156309387D01*
X104843450Y-156281588D01*
X104878561Y-156068166D01*
X111121439Y-156068166D01*
X111156550Y-156281588D01*
X111360826Y-156372458D01*
X111578905Y-156421731D01*
X111802406Y-156427511D01*
X112022740Y-156389577D01*
X112231440Y-156309387D01*
X112283450Y-156281588D01*
X112318561Y-156068166D01*
X113681439Y-156068166D01*
X113716550Y-156281588D01*
X113920826Y-156372458D01*
X114138905Y-156421731D01*
X114362406Y-156427511D01*
X114582740Y-156389577D01*
X114791440Y-156309387D01*
X114843450Y-156281588D01*
X114878561Y-156068166D01*
X114280000Y-155469605D01*
X113681439Y-156068166D01*
X112318561Y-156068166D01*
X111720000Y-155469605D01*
X111121439Y-156068166D01*
X104878561Y-156068166D01*
X104280000Y-155469605D01*
X103681439Y-156068166D01*
X102318561Y-156068166D01*
X101720000Y-155469605D01*
X101121439Y-156068166D01*
X100118329Y-156068166D01*
X100119321Y-155372406D01*
X100582489Y-155372406D01*
X100620423Y-155592740D01*
X100700613Y-155801440D01*
X100728412Y-155853450D01*
X100941834Y-155888561D01*
X101540395Y-155290000D01*
X100941834Y-154691439D01*
X100728412Y-154726550D01*
X100637542Y-154930826D01*
X100588269Y-155148905D01*
X100582489Y-155372406D01*
X100119321Y-155372406D01*
X100121980Y-153508166D01*
X101121439Y-153508166D01*
X101156550Y-153721588D01*
X101360826Y-153812458D01*
X101578905Y-153861731D01*
X101802406Y-153867511D01*
X101926330Y-153846175D01*
X101915000Y-153903137D01*
X101915000Y-154116863D01*
X101926160Y-154172970D01*
X101861095Y-154158269D01*
X101637594Y-154152489D01*
X101417260Y-154190423D01*
X101208560Y-154270613D01*
X101156550Y-154298412D01*
X101121439Y-154511834D01*
X101720000Y-155110395D01*
X101734143Y-155096253D01*
X101913748Y-155275858D01*
X101899605Y-155290000D01*
X102498166Y-155888561D01*
X102711588Y-155853450D01*
X102802458Y-155649174D01*
X102851731Y-155431095D01*
X102857511Y-155207594D01*
X102836175Y-155083670D01*
X102893137Y-155095000D01*
X103106863Y-155095000D01*
X103162970Y-155083840D01*
X103148269Y-155148905D01*
X103142489Y-155372406D01*
X103180423Y-155592740D01*
X103260613Y-155801440D01*
X103288412Y-155853450D01*
X103501834Y-155888561D01*
X104100395Y-155290000D01*
X104459605Y-155290000D01*
X105058166Y-155888561D01*
X105271588Y-155853450D01*
X105362458Y-155649174D01*
X105411731Y-155431095D01*
X105413248Y-155372406D01*
X110582489Y-155372406D01*
X110620423Y-155592740D01*
X110700613Y-155801440D01*
X110728412Y-155853450D01*
X110941834Y-155888561D01*
X111540395Y-155290000D01*
X110941834Y-154691439D01*
X110728412Y-154726550D01*
X110637542Y-154930826D01*
X110588269Y-155148905D01*
X110582489Y-155372406D01*
X105413248Y-155372406D01*
X105417511Y-155207594D01*
X105379577Y-154987260D01*
X105299387Y-154778560D01*
X105271588Y-154726550D01*
X105058166Y-154691439D01*
X104459605Y-155290000D01*
X104100395Y-155290000D01*
X104086253Y-155275858D01*
X104265858Y-155096253D01*
X104280000Y-155110395D01*
X104878561Y-154511834D01*
X104843450Y-154298412D01*
X104639174Y-154207542D01*
X104421095Y-154158269D01*
X104197594Y-154152489D01*
X104073670Y-154173825D01*
X104085000Y-154116863D01*
X104085000Y-153903137D01*
X104073840Y-153847030D01*
X104138905Y-153861731D01*
X104362406Y-153867511D01*
X104582740Y-153829577D01*
X104791440Y-153749387D01*
X104843450Y-153721588D01*
X104878561Y-153508166D01*
X111121439Y-153508166D01*
X111156550Y-153721588D01*
X111360826Y-153812458D01*
X111578905Y-153861731D01*
X111802406Y-153867511D01*
X111926330Y-153846175D01*
X111915000Y-153903137D01*
X111915000Y-154116863D01*
X111926160Y-154172970D01*
X111861095Y-154158269D01*
X111637594Y-154152489D01*
X111417260Y-154190423D01*
X111208560Y-154270613D01*
X111156550Y-154298412D01*
X111121439Y-154511834D01*
X111720000Y-155110395D01*
X111734143Y-155096253D01*
X111913748Y-155275858D01*
X111899605Y-155290000D01*
X112498166Y-155888561D01*
X112711588Y-155853450D01*
X112802458Y-155649174D01*
X112851731Y-155431095D01*
X112857511Y-155207594D01*
X112836175Y-155083670D01*
X112893137Y-155095000D01*
X113106863Y-155095000D01*
X113162970Y-155083840D01*
X113148269Y-155148905D01*
X113142489Y-155372406D01*
X113180423Y-155592740D01*
X113260613Y-155801440D01*
X113288412Y-155853450D01*
X113501834Y-155888561D01*
X114100395Y-155290000D01*
X114459605Y-155290000D01*
X115058166Y-155888561D01*
X115271588Y-155853450D01*
X115362458Y-155649174D01*
X115411731Y-155431095D01*
X115417511Y-155207594D01*
X115379577Y-154987260D01*
X115299387Y-154778560D01*
X115271588Y-154726550D01*
X115058166Y-154691439D01*
X114459605Y-155290000D01*
X114100395Y-155290000D01*
X114086253Y-155275858D01*
X114265858Y-155096253D01*
X114280000Y-155110395D01*
X114878561Y-154511834D01*
X114843450Y-154298412D01*
X114639174Y-154207542D01*
X114421095Y-154158269D01*
X114197594Y-154152489D01*
X114073670Y-154173825D01*
X114085000Y-154116863D01*
X114085000Y-153903137D01*
X114073840Y-153847030D01*
X114138905Y-153861731D01*
X114362406Y-153867511D01*
X114582740Y-153829577D01*
X114791440Y-153749387D01*
X114843450Y-153721588D01*
X114878561Y-153508166D01*
X114280000Y-152909605D01*
X114265858Y-152923748D01*
X114086253Y-152744143D01*
X114100395Y-152730000D01*
X114459605Y-152730000D01*
X115058166Y-153328561D01*
X115271588Y-153293450D01*
X115362458Y-153089174D01*
X115411731Y-152871095D01*
X115417511Y-152647594D01*
X115379577Y-152427260D01*
X115299387Y-152218560D01*
X115271588Y-152166550D01*
X115058166Y-152131439D01*
X114459605Y-152730000D01*
X114100395Y-152730000D01*
X113501834Y-152131439D01*
X113288412Y-152166550D01*
X113197542Y-152370826D01*
X113148269Y-152588905D01*
X113142489Y-152812406D01*
X113163825Y-152936330D01*
X113106863Y-152925000D01*
X112893137Y-152925000D01*
X112837030Y-152936160D01*
X112851731Y-152871095D01*
X112857511Y-152647594D01*
X112819577Y-152427260D01*
X112739387Y-152218560D01*
X112711588Y-152166550D01*
X112498166Y-152131439D01*
X111899605Y-152730000D01*
X111913748Y-152744143D01*
X111734143Y-152923748D01*
X111720000Y-152909605D01*
X111121439Y-153508166D01*
X104878561Y-153508166D01*
X104280000Y-152909605D01*
X104265858Y-152923748D01*
X104086253Y-152744143D01*
X104100395Y-152730000D01*
X104459605Y-152730000D01*
X105058166Y-153328561D01*
X105271588Y-153293450D01*
X105362458Y-153089174D01*
X105411731Y-152871095D01*
X105413248Y-152812406D01*
X110582489Y-152812406D01*
X110620423Y-153032740D01*
X110700613Y-153241440D01*
X110728412Y-153293450D01*
X110941834Y-153328561D01*
X111540395Y-152730000D01*
X110941834Y-152131439D01*
X110728412Y-152166550D01*
X110637542Y-152370826D01*
X110588269Y-152588905D01*
X110582489Y-152812406D01*
X105413248Y-152812406D01*
X105417511Y-152647594D01*
X105379577Y-152427260D01*
X105299387Y-152218560D01*
X105271588Y-152166550D01*
X105058166Y-152131439D01*
X104459605Y-152730000D01*
X104100395Y-152730000D01*
X103501834Y-152131439D01*
X103288412Y-152166550D01*
X103197542Y-152370826D01*
X103148269Y-152588905D01*
X103142489Y-152812406D01*
X103163825Y-152936330D01*
X103106863Y-152925000D01*
X102893137Y-152925000D01*
X102837030Y-152936160D01*
X102851731Y-152871095D01*
X102857511Y-152647594D01*
X102819577Y-152427260D01*
X102739387Y-152218560D01*
X102711588Y-152166550D01*
X102498166Y-152131439D01*
X101899605Y-152730000D01*
X101913748Y-152744143D01*
X101734143Y-152923748D01*
X101720000Y-152909605D01*
X101121439Y-153508166D01*
X100121980Y-153508166D01*
X100122973Y-152812406D01*
X100582489Y-152812406D01*
X100620423Y-153032740D01*
X100700613Y-153241440D01*
X100728412Y-153293450D01*
X100941834Y-153328561D01*
X101540395Y-152730000D01*
X100941834Y-152131439D01*
X100728412Y-152166550D01*
X100637542Y-152370826D01*
X100588269Y-152588905D01*
X100582489Y-152812406D01*
X100122973Y-152812406D01*
X100124201Y-151951834D01*
X101121439Y-151951834D01*
X101720000Y-152550395D01*
X102318561Y-151951834D01*
X103681439Y-151951834D01*
X104280000Y-152550395D01*
X104878561Y-151951834D01*
X111121439Y-151951834D01*
X111720000Y-152550395D01*
X112318561Y-151951834D01*
X113681439Y-151951834D01*
X114280000Y-152550395D01*
X114878561Y-151951834D01*
X114843450Y-151738412D01*
X114639174Y-151647542D01*
X114421095Y-151598269D01*
X114197594Y-151592489D01*
X113977260Y-151630423D01*
X113768560Y-151710613D01*
X113716550Y-151738412D01*
X113681439Y-151951834D01*
X112318561Y-151951834D01*
X112283450Y-151738412D01*
X112079174Y-151647542D01*
X111861095Y-151598269D01*
X111637594Y-151592489D01*
X111417260Y-151630423D01*
X111208560Y-151710613D01*
X111156550Y-151738412D01*
X111121439Y-151951834D01*
X104878561Y-151951834D01*
X104843450Y-151738412D01*
X104639174Y-151647542D01*
X104421095Y-151598269D01*
X104197594Y-151592489D01*
X103977260Y-151630423D01*
X103768560Y-151710613D01*
X103716550Y-151738412D01*
X103681439Y-151951834D01*
X102318561Y-151951834D01*
X102283450Y-151738412D01*
X102079174Y-151647542D01*
X101861095Y-151598269D01*
X101637594Y-151592489D01*
X101417260Y-151630423D01*
X101208560Y-151710613D01*
X101156550Y-151738412D01*
X101121439Y-151951834D01*
X100124201Y-151951834D01*
X100126276Y-150497786D01*
X100140169Y-150393315D01*
X100177384Y-150303739D01*
X100236498Y-150226834D01*
X100313486Y-150167832D01*
X100403118Y-150130742D01*
X100507600Y-150117000D01*
X116511672Y-150117000D01*
X116616257Y-150130769D01*
X116616257Y-150130769D01*
G37*
X116616257Y-150130769D02*
X116705955Y-150167923D01*
X116782976Y-150227024D01*
X116842077Y-150304045D01*
X116879231Y-150393743D01*
X116893000Y-150498328D01*
X116893000Y-156491672D01*
X116880055Y-156590000D01*
X100130610Y-156590000D01*
X100117726Y-156491138D01*
X100118329Y-156068166D01*
X101121439Y-156068166D01*
X101156550Y-156281588D01*
X101360826Y-156372458D01*
X101578905Y-156421731D01*
X101802406Y-156427511D01*
X102022740Y-156389577D01*
X102231440Y-156309387D01*
X102283450Y-156281588D01*
X102318561Y-156068166D01*
X103681439Y-156068166D01*
X103716550Y-156281588D01*
X103920826Y-156372458D01*
X104138905Y-156421731D01*
X104362406Y-156427511D01*
X104582740Y-156389577D01*
X104791440Y-156309387D01*
X104843450Y-156281588D01*
X104878561Y-156068166D01*
X111121439Y-156068166D01*
X111156550Y-156281588D01*
X111360826Y-156372458D01*
X111578905Y-156421731D01*
X111802406Y-156427511D01*
X112022740Y-156389577D01*
X112231440Y-156309387D01*
X112283450Y-156281588D01*
X112318561Y-156068166D01*
X113681439Y-156068166D01*
X113716550Y-156281588D01*
X113920826Y-156372458D01*
X114138905Y-156421731D01*
X114362406Y-156427511D01*
X114582740Y-156389577D01*
X114791440Y-156309387D01*
X114843450Y-156281588D01*
X114878561Y-156068166D01*
X114280000Y-155469605D01*
X113681439Y-156068166D01*
X112318561Y-156068166D01*
X111720000Y-155469605D01*
X111121439Y-156068166D01*
X104878561Y-156068166D01*
X104280000Y-155469605D01*
X103681439Y-156068166D01*
X102318561Y-156068166D01*
X101720000Y-155469605D01*
X101121439Y-156068166D01*
X100118329Y-156068166D01*
X100119321Y-155372406D01*
X100582489Y-155372406D01*
X100620423Y-155592740D01*
X100700613Y-155801440D01*
X100728412Y-155853450D01*
X100941834Y-155888561D01*
X101540395Y-155290000D01*
X100941834Y-154691439D01*
X100728412Y-154726550D01*
X100637542Y-154930826D01*
X100588269Y-155148905D01*
X100582489Y-155372406D01*
X100119321Y-155372406D01*
X100121980Y-153508166D01*
X101121439Y-153508166D01*
X101156550Y-153721588D01*
X101360826Y-153812458D01*
X101578905Y-153861731D01*
X101802406Y-153867511D01*
X101926330Y-153846175D01*
X101915000Y-153903137D01*
X101915000Y-154116863D01*
X101926160Y-154172970D01*
X101861095Y-154158269D01*
X101637594Y-154152489D01*
X101417260Y-154190423D01*
X101208560Y-154270613D01*
X101156550Y-154298412D01*
X101121439Y-154511834D01*
X101720000Y-155110395D01*
X101734143Y-155096253D01*
X101913748Y-155275858D01*
X101899605Y-155290000D01*
X102498166Y-155888561D01*
X102711588Y-155853450D01*
X102802458Y-155649174D01*
X102851731Y-155431095D01*
X102857511Y-155207594D01*
X102836175Y-155083670D01*
X102893137Y-155095000D01*
X103106863Y-155095000D01*
X103162970Y-155083840D01*
X103148269Y-155148905D01*
X103142489Y-155372406D01*
X103180423Y-155592740D01*
X103260613Y-155801440D01*
X103288412Y-155853450D01*
X103501834Y-155888561D01*
X104100395Y-155290000D01*
X104459605Y-155290000D01*
X105058166Y-155888561D01*
X105271588Y-155853450D01*
X105362458Y-155649174D01*
X105411731Y-155431095D01*
X105413248Y-155372406D01*
X110582489Y-155372406D01*
X110620423Y-155592740D01*
X110700613Y-155801440D01*
X110728412Y-155853450D01*
X110941834Y-155888561D01*
X111540395Y-155290000D01*
X110941834Y-154691439D01*
X110728412Y-154726550D01*
X110637542Y-154930826D01*
X110588269Y-155148905D01*
X110582489Y-155372406D01*
X105413248Y-155372406D01*
X105417511Y-155207594D01*
X105379577Y-154987260D01*
X105299387Y-154778560D01*
X105271588Y-154726550D01*
X105058166Y-154691439D01*
X104459605Y-155290000D01*
X104100395Y-155290000D01*
X104086253Y-155275858D01*
X104265858Y-155096253D01*
X104280000Y-155110395D01*
X104878561Y-154511834D01*
X104843450Y-154298412D01*
X104639174Y-154207542D01*
X104421095Y-154158269D01*
X104197594Y-154152489D01*
X104073670Y-154173825D01*
X104085000Y-154116863D01*
X104085000Y-153903137D01*
X104073840Y-153847030D01*
X104138905Y-153861731D01*
X104362406Y-153867511D01*
X104582740Y-153829577D01*
X104791440Y-153749387D01*
X104843450Y-153721588D01*
X104878561Y-153508166D01*
X111121439Y-153508166D01*
X111156550Y-153721588D01*
X111360826Y-153812458D01*
X111578905Y-153861731D01*
X111802406Y-153867511D01*
X111926330Y-153846175D01*
X111915000Y-153903137D01*
X111915000Y-154116863D01*
X111926160Y-154172970D01*
X111861095Y-154158269D01*
X111637594Y-154152489D01*
X111417260Y-154190423D01*
X111208560Y-154270613D01*
X111156550Y-154298412D01*
X111121439Y-154511834D01*
X111720000Y-155110395D01*
X111734143Y-155096253D01*
X111913748Y-155275858D01*
X111899605Y-155290000D01*
X112498166Y-155888561D01*
X112711588Y-155853450D01*
X112802458Y-155649174D01*
X112851731Y-155431095D01*
X112857511Y-155207594D01*
X112836175Y-155083670D01*
X112893137Y-155095000D01*
X113106863Y-155095000D01*
X113162970Y-155083840D01*
X113148269Y-155148905D01*
X113142489Y-155372406D01*
X113180423Y-155592740D01*
X113260613Y-155801440D01*
X113288412Y-155853450D01*
X113501834Y-155888561D01*
X114100395Y-155290000D01*
X114459605Y-155290000D01*
X115058166Y-155888561D01*
X115271588Y-155853450D01*
X115362458Y-155649174D01*
X115411731Y-155431095D01*
X115417511Y-155207594D01*
X115379577Y-154987260D01*
X115299387Y-154778560D01*
X115271588Y-154726550D01*
X115058166Y-154691439D01*
X114459605Y-155290000D01*
X114100395Y-155290000D01*
X114086253Y-155275858D01*
X114265858Y-155096253D01*
X114280000Y-155110395D01*
X114878561Y-154511834D01*
X114843450Y-154298412D01*
X114639174Y-154207542D01*
X114421095Y-154158269D01*
X114197594Y-154152489D01*
X114073670Y-154173825D01*
X114085000Y-154116863D01*
X114085000Y-153903137D01*
X114073840Y-153847030D01*
X114138905Y-153861731D01*
X114362406Y-153867511D01*
X114582740Y-153829577D01*
X114791440Y-153749387D01*
X114843450Y-153721588D01*
X114878561Y-153508166D01*
X114280000Y-152909605D01*
X114265858Y-152923748D01*
X114086253Y-152744143D01*
X114100395Y-152730000D01*
X114459605Y-152730000D01*
X115058166Y-153328561D01*
X115271588Y-153293450D01*
X115362458Y-153089174D01*
X115411731Y-152871095D01*
X115417511Y-152647594D01*
X115379577Y-152427260D01*
X115299387Y-152218560D01*
X115271588Y-152166550D01*
X115058166Y-152131439D01*
X114459605Y-152730000D01*
X114100395Y-152730000D01*
X113501834Y-152131439D01*
X113288412Y-152166550D01*
X113197542Y-152370826D01*
X113148269Y-152588905D01*
X113142489Y-152812406D01*
X113163825Y-152936330D01*
X113106863Y-152925000D01*
X112893137Y-152925000D01*
X112837030Y-152936160D01*
X112851731Y-152871095D01*
X112857511Y-152647594D01*
X112819577Y-152427260D01*
X112739387Y-152218560D01*
X112711588Y-152166550D01*
X112498166Y-152131439D01*
X111899605Y-152730000D01*
X111913748Y-152744143D01*
X111734143Y-152923748D01*
X111720000Y-152909605D01*
X111121439Y-153508166D01*
X104878561Y-153508166D01*
X104280000Y-152909605D01*
X104265858Y-152923748D01*
X104086253Y-152744143D01*
X104100395Y-152730000D01*
X104459605Y-152730000D01*
X105058166Y-153328561D01*
X105271588Y-153293450D01*
X105362458Y-153089174D01*
X105411731Y-152871095D01*
X105413248Y-152812406D01*
X110582489Y-152812406D01*
X110620423Y-153032740D01*
X110700613Y-153241440D01*
X110728412Y-153293450D01*
X110941834Y-153328561D01*
X111540395Y-152730000D01*
X110941834Y-152131439D01*
X110728412Y-152166550D01*
X110637542Y-152370826D01*
X110588269Y-152588905D01*
X110582489Y-152812406D01*
X105413248Y-152812406D01*
X105417511Y-152647594D01*
X105379577Y-152427260D01*
X105299387Y-152218560D01*
X105271588Y-152166550D01*
X105058166Y-152131439D01*
X104459605Y-152730000D01*
X104100395Y-152730000D01*
X103501834Y-152131439D01*
X103288412Y-152166550D01*
X103197542Y-152370826D01*
X103148269Y-152588905D01*
X103142489Y-152812406D01*
X103163825Y-152936330D01*
X103106863Y-152925000D01*
X102893137Y-152925000D01*
X102837030Y-152936160D01*
X102851731Y-152871095D01*
X102857511Y-152647594D01*
X102819577Y-152427260D01*
X102739387Y-152218560D01*
X102711588Y-152166550D01*
X102498166Y-152131439D01*
X101899605Y-152730000D01*
X101913748Y-152744143D01*
X101734143Y-152923748D01*
X101720000Y-152909605D01*
X101121439Y-153508166D01*
X100121980Y-153508166D01*
X100122973Y-152812406D01*
X100582489Y-152812406D01*
X100620423Y-153032740D01*
X100700613Y-153241440D01*
X100728412Y-153293450D01*
X100941834Y-153328561D01*
X101540395Y-152730000D01*
X100941834Y-152131439D01*
X100728412Y-152166550D01*
X100637542Y-152370826D01*
X100588269Y-152588905D01*
X100582489Y-152812406D01*
X100122973Y-152812406D01*
X100124201Y-151951834D01*
X101121439Y-151951834D01*
X101720000Y-152550395D01*
X102318561Y-151951834D01*
X103681439Y-151951834D01*
X104280000Y-152550395D01*
X104878561Y-151951834D01*
X111121439Y-151951834D01*
X111720000Y-152550395D01*
X112318561Y-151951834D01*
X113681439Y-151951834D01*
X114280000Y-152550395D01*
X114878561Y-151951834D01*
X114843450Y-151738412D01*
X114639174Y-151647542D01*
X114421095Y-151598269D01*
X114197594Y-151592489D01*
X113977260Y-151630423D01*
X113768560Y-151710613D01*
X113716550Y-151738412D01*
X113681439Y-151951834D01*
X112318561Y-151951834D01*
X112283450Y-151738412D01*
X112079174Y-151647542D01*
X111861095Y-151598269D01*
X111637594Y-151592489D01*
X111417260Y-151630423D01*
X111208560Y-151710613D01*
X111156550Y-151738412D01*
X111121439Y-151951834D01*
X104878561Y-151951834D01*
X104843450Y-151738412D01*
X104639174Y-151647542D01*
X104421095Y-151598269D01*
X104197594Y-151592489D01*
X103977260Y-151630423D01*
X103768560Y-151710613D01*
X103716550Y-151738412D01*
X103681439Y-151951834D01*
X102318561Y-151951834D01*
X102283450Y-151738412D01*
X102079174Y-151647542D01*
X101861095Y-151598269D01*
X101637594Y-151592489D01*
X101417260Y-151630423D01*
X101208560Y-151710613D01*
X101156550Y-151738412D01*
X101121439Y-151951834D01*
X100124201Y-151951834D01*
X100126276Y-150497786D01*
X100140169Y-150393315D01*
X100177384Y-150303739D01*
X100236498Y-150226834D01*
X100313486Y-150167832D01*
X100403118Y-150130742D01*
X100507600Y-150117000D01*
X116511672Y-150117000D01*
X116616257Y-150130769D01*
M02*
