M48
; DRILL file {KiCad (5.1.0)-1} date 5/3/2019 6:35:45 PM
; FORMAT={-:-/ absolute / inch / decimal}
; #@! TF.CreationDate,2019-05-03T18:35:45-05:00
; #@! TF.GenerationSoftware,Kicad,Pcbnew,(5.1.0)-1
; #@! TF.FileFunction,Plated,1,2,PTH
FMAT,2
INCH
T1C0.0200
T2C0.0256
T3C0.0300
T4C0.0331
T5C0.0472
T6C0.0787
T7C0.1500
%
G90
G05
T1
X2.5939Y-5.6234
X2.8014Y-4.1037
X4.0606Y-4.2437
X4.5715Y-3.3959
X4.7909Y-5.1823
T2
X3.0547Y-6.0646
X3.1531Y-6.0646
X3.2516Y-6.0646
X3.35Y-6.0646
X3.4484Y-6.0646
T3
X4.3275Y-2.388
X4.349Y-4.8334
X2.5287Y-6.0665
X2.6469Y-6.0665
X2.765Y-6.0665
X4.3275Y-5.301
X2.5911Y-4.8334
T4
X4.0047Y-6.013
X4.0047Y-6.1138
X4.0551Y-6.0634
X4.1055Y-6.013
X4.1055Y-6.1138
X4.3984Y-6.013
X4.3984Y-6.1138
X4.4488Y-6.0634
X4.4992Y-6.013
X4.4992Y-6.1138
T5
X2.5815Y-2.388
X4.349Y-3.0874
X2.5815Y-5.301
X2.5911Y-3.0874
T6
X4.7587Y-2.1508
X4.7587Y-5.7669
X4.7587Y-3.9591
X2.1311Y-3.9591
X2.1311Y-5.7669
X2.1311Y-2.1508
T7
X4.5323Y-2.1244
X4.5323Y-5.7543
X2.4004Y-2.1244
X2.4004Y-5.7543
T0
M30
