%TF.GenerationSoftware,KiCad,Pcbnew,(6.0.4-0)*%
%TF.CreationDate,2022-04-20T10:52:20-05:00*%
%TF.ProjectId,payload_board,7061796c-6f61-4645-9f62-6f6172642e6b,3*%
%TF.SameCoordinates,Original*%
%TF.FileFunction,Copper,L4,Bot*%
%TF.FilePolarity,Positive*%
%FSLAX46Y46*%
G04 Gerber Fmt 4.6, Leading zero omitted, Abs format (unit mm)*
G04 Created by KiCad (PCBNEW (6.0.4-0)) date 2022-04-20 10:52:20*
%MOMM*%
%LPD*%
G01*
G04 APERTURE LIST*
%TA.AperFunction,SMDPad,CuDef*%
%ADD10R,2.000000X2.000000*%
%TD*%
%TA.AperFunction,SMDPad,CuDef*%
%ADD11R,8.000000X4.000000*%
%TD*%
%TA.AperFunction,ComponentPad*%
%ADD12C,1.524000*%
%TD*%
%TA.AperFunction,SMDPad,CuDef*%
%ADD13R,1.524000X1.524000*%
%TD*%
%TA.AperFunction,ComponentPad*%
%ADD14C,0.808000*%
%TD*%
%TA.AperFunction,SMDPad,CuDef*%
%ADD15R,3.048000X1.879600*%
%TD*%
%TA.AperFunction,SMDPad,CuDef*%
%ADD16R,1.295400X1.193800*%
%TD*%
%TA.AperFunction,SMDPad,CuDef*%
%ADD17R,1.295400X0.889000*%
%TD*%
%TA.AperFunction,ComponentPad*%
%ADD18O,1.700000X1.700000*%
%TD*%
%TA.AperFunction,ComponentPad*%
%ADD19R,1.700000X1.700000*%
%TD*%
%TA.AperFunction,ComponentPad*%
%ADD20C,1.000000*%
%TD*%
%TA.AperFunction,ComponentPad*%
%ADD21C,1.500000*%
%TD*%
%TA.AperFunction,ComponentPad*%
%ADD22C,6.000000*%
%TD*%
%TA.AperFunction,ComponentPad*%
%ADD23C,4.000000*%
%TD*%
%TA.AperFunction,ComponentPad*%
%ADD24C,7.400000*%
%TD*%
%TA.AperFunction,ComponentPad*%
%ADD25C,4.400000*%
%TD*%
%TA.AperFunction,ViaPad*%
%ADD26C,0.355600*%
%TD*%
%TA.AperFunction,Conductor*%
%ADD27C,0.355526*%
%TD*%
%TA.AperFunction,Conductor*%
%ADD28C,0.177800*%
%TD*%
G04 APERTURE END LIST*
D10*
X82510000Y-111120000D03*
X82260000Y-116140000D03*
X79160000Y-116140000D03*
X76610000Y-116140000D03*
X73710000Y-116140000D03*
X71160000Y-116140000D03*
X67450000Y-111110000D03*
X67760000Y-106140000D03*
X70760000Y-106140000D03*
X79260000Y-106140000D03*
X82260000Y-106140000D03*
D11*
X74810000Y-111120000D03*
D12*
X65570800Y-60655000D03*
X109919200Y-60655000D03*
X65815000Y-78420800D03*
X65815000Y-122769200D03*
X109954200Y-134020000D03*
X65605800Y-134020000D03*
X110465000Y-78420800D03*
X110465000Y-122769200D03*
D13*
X79840000Y-133960000D03*
X77300000Y-133960000D03*
X74760000Y-133960000D03*
X72220000Y-133960000D03*
X69870000Y-133960000D03*
X82860000Y-131670000D03*
X82860000Y-128880000D03*
X82860000Y-125600000D03*
X80030000Y-123450000D03*
X77490000Y-123450000D03*
X74950000Y-123450000D03*
X72410000Y-123450000D03*
X69870000Y-123450000D03*
X67140000Y-125600000D03*
X67140000Y-128880000D03*
X67140000Y-131670000D03*
D10*
X90470000Y-132060000D03*
X90720000Y-127040000D03*
X93820000Y-127040000D03*
X96370000Y-127040000D03*
X99270000Y-127040000D03*
X101820000Y-127040000D03*
X105530000Y-132070000D03*
X105220000Y-137040000D03*
X102220000Y-137040000D03*
X93720000Y-137040000D03*
X90720000Y-137040000D03*
D11*
X98170000Y-132060000D03*
D13*
X93360000Y-108860000D03*
X95900000Y-108860000D03*
X98440000Y-108860000D03*
X100980000Y-108860000D03*
X103330000Y-108860000D03*
X90340000Y-111150000D03*
X90340000Y-113940000D03*
X90340000Y-117220000D03*
X93170000Y-119370000D03*
X95710000Y-119370000D03*
X98250000Y-119370000D03*
X100790000Y-119370000D03*
X103330000Y-119370000D03*
X106060000Y-117220000D03*
X106060000Y-113940000D03*
X106060000Y-111150000D03*
D14*
X54686300Y-111615100D03*
X54686300Y-110700700D03*
X60528300Y-109532300D03*
X60528300Y-108617900D03*
D15*
X59436100Y-109075100D03*
X55778500Y-111157900D03*
D16*
X56502400Y-110929300D03*
D17*
X58712200Y-111132500D03*
X58712200Y-109227500D03*
X56502400Y-109227500D03*
D10*
X75240000Y-95040000D03*
X75490000Y-90020000D03*
X78590000Y-90020000D03*
X81140000Y-90020000D03*
X84040000Y-90020000D03*
X86590000Y-90020000D03*
X90300000Y-95050000D03*
X89990000Y-100020000D03*
X86990000Y-100020000D03*
X78490000Y-100020000D03*
X75490000Y-100020000D03*
D11*
X82940000Y-95040000D03*
D18*
X95450000Y-153130000D03*
X92910000Y-153130000D03*
X90370000Y-153130000D03*
X87830000Y-153130000D03*
X85290000Y-153130000D03*
X82750000Y-153130000D03*
D19*
X80210000Y-153130000D03*
D20*
X68010000Y-142430000D03*
X68010000Y-139870000D03*
X65450000Y-139870000D03*
X65450000Y-142430000D03*
D21*
X66730000Y-141150000D03*
D20*
X91840000Y-84620000D03*
X91840000Y-82060000D03*
X89280000Y-82060000D03*
X89280000Y-84620000D03*
D21*
X90560000Y-83340000D03*
D22*
X115120000Y-146160000D03*
X115120000Y-53960000D03*
D23*
X120870000Y-146480000D03*
X120870000Y-54630000D03*
D24*
X60970000Y-146160000D03*
X60970000Y-53960000D03*
D25*
X54130000Y-146480000D03*
X120870000Y-100560000D03*
X54130000Y-100560000D03*
X54130000Y-54630000D03*
D26*
X71020000Y-90020000D03*
X105410000Y-88900000D03*
X71160000Y-118440000D03*
X77490000Y-126700000D03*
X93360000Y-113910000D03*
X94620000Y-84620000D03*
D27*
X90350000Y-131670000D02*
X90720000Y-132040000D01*
X82860000Y-131670000D02*
X90350000Y-131670000D01*
X105780000Y-127680000D02*
X105780000Y-132050000D01*
X105780000Y-127680000D02*
X105794539Y-127087700D01*
X105794539Y-127087700D02*
X105838125Y-126496828D01*
X105838125Y-126496828D02*
X105910650Y-125908806D01*
X105910650Y-125908806D02*
X106011941Y-125325051D01*
X106011941Y-125325051D02*
X106141754Y-124746969D01*
X106141754Y-124746969D02*
X106299775Y-124175954D01*
X106299775Y-124175954D02*
X106485625Y-123613379D01*
X106485625Y-123613379D02*
X106698854Y-123060602D01*
X106698854Y-123060602D02*
X106938951Y-122518953D01*
X106938951Y-122518953D02*
X107205335Y-121989738D01*
X107205335Y-121989738D02*
X107497366Y-121474230D01*
X107497366Y-121474230D02*
X107814341Y-120973674D01*
X107814341Y-120973674D02*
X108155494Y-120489273D01*
X108155494Y-120489273D02*
X108520005Y-120022195D01*
X108520005Y-120022195D02*
X108906995Y-119573566D01*
X108906995Y-119573566D02*
X109315533Y-119144466D01*
X106120000Y-111210000D02*
X106060000Y-111150000D01*
X110230000Y-114210000D02*
X110215554Y-113915948D01*
X110215554Y-113915948D02*
X110172355Y-113624729D01*
X110172355Y-113624729D02*
X110100821Y-113339145D01*
X110100821Y-113339145D02*
X110001638Y-113061949D01*
X110001638Y-113061949D02*
X109875763Y-112795809D01*
X109875763Y-112795809D02*
X109724408Y-112543289D01*
X109724408Y-112543289D02*
X109549031Y-112306820D01*
X109549031Y-112306820D02*
X109351320Y-112088679D01*
X109351320Y-112088679D02*
X109133179Y-111890968D01*
X109133179Y-111890968D02*
X108896710Y-111715591D01*
X108896710Y-111715591D02*
X108644190Y-111564236D01*
X108644190Y-111564236D02*
X108378050Y-111438361D01*
X108378050Y-111438361D02*
X108100854Y-111339178D01*
X108100854Y-111339178D02*
X107815270Y-111267644D01*
X107815270Y-111267644D02*
X107524051Y-111224445D01*
X107524051Y-111224445D02*
X107230000Y-111210000D01*
X107230000Y-111210000D02*
X106120000Y-111210000D01*
X109522892Y-118937106D02*
X109315533Y-119144466D01*
X109522892Y-118937106D02*
X109604599Y-118851285D01*
X109604599Y-118851285D02*
X109681997Y-118761559D01*
X109681997Y-118761559D02*
X109754899Y-118668144D01*
X109754899Y-118668144D02*
X109823130Y-118571264D01*
X109823130Y-118571264D02*
X109886525Y-118471153D01*
X109886525Y-118471153D02*
X109944931Y-118368051D01*
X109944931Y-118368051D02*
X109998208Y-118262208D01*
X109998208Y-118262208D02*
X110046227Y-118153879D01*
X110046227Y-118153879D02*
X110088873Y-118043323D01*
X110088873Y-118043323D02*
X110126043Y-117930808D01*
X110126043Y-117930808D02*
X110157648Y-117816605D01*
X110157648Y-117816605D02*
X110183610Y-117700989D01*
X110183610Y-117700989D02*
X110203868Y-117584238D01*
X110203868Y-117584238D02*
X110218373Y-117466634D01*
X110218373Y-117466634D02*
X110227091Y-117348459D01*
X110227091Y-117348459D02*
X110230000Y-117230000D01*
X110230000Y-117230000D02*
X110230000Y-114210000D01*
X90340000Y-111150000D02*
X82270000Y-111150000D01*
X58714700Y-111130000D02*
X58712200Y-111132500D01*
X67200000Y-111130000D02*
X58714700Y-111130000D01*
X56502400Y-109227500D02*
X56502400Y-108427474D01*
X74909874Y-95020000D02*
X75490000Y-95020000D01*
X74909874Y-95020000D02*
X74317574Y-95034539D01*
X74317574Y-95034539D02*
X73726702Y-95078125D01*
X73726702Y-95078125D02*
X73138680Y-95150650D01*
X73138680Y-95150650D02*
X72554925Y-95251941D01*
X72554925Y-95251941D02*
X71976843Y-95381754D01*
X71976843Y-95381754D02*
X71405828Y-95539775D01*
X71405828Y-95539775D02*
X70843253Y-95725625D01*
X70843253Y-95725625D02*
X70290476Y-95938854D01*
X70290476Y-95938854D02*
X69748827Y-96178951D01*
X69748827Y-96178951D02*
X69219612Y-96445335D01*
X69219612Y-96445335D02*
X68704104Y-96737366D01*
X68704104Y-96737366D02*
X68203548Y-97054341D01*
X68203548Y-97054341D02*
X67719147Y-97395494D01*
X67719147Y-97395494D02*
X67252069Y-97760005D01*
X67252069Y-97760005D02*
X66803440Y-98146995D01*
X66803440Y-98146995D02*
X66374340Y-98555533D01*
X66374340Y-98555533D02*
X56502400Y-108427474D01*
X101820000Y-127040000D02*
X99270000Y-127040000D01*
X99270000Y-127040000D02*
X96370000Y-127040000D01*
X96370000Y-127040000D02*
X93820000Y-127040000D01*
X93820000Y-127040000D02*
X90720000Y-127040000D01*
X79160000Y-116140000D02*
X76610000Y-116140000D01*
X76610000Y-116140000D02*
X73710000Y-116140000D01*
X73710000Y-116140000D02*
X71160000Y-116140000D01*
X79160000Y-116140000D02*
X82260000Y-116140000D01*
X86590000Y-90020000D02*
X84040000Y-90020000D01*
X84040000Y-90020000D02*
X81140000Y-90020000D01*
X81140000Y-90020000D02*
X78590000Y-90020000D01*
X78590000Y-90020000D02*
X75490000Y-90020000D01*
X75490000Y-100020000D02*
X78490000Y-100020000D01*
X90720000Y-152780000D02*
X90370000Y-153130000D01*
X90720000Y-137040000D02*
X90720000Y-152780000D01*
X93720000Y-137040000D02*
X90720000Y-137040000D01*
X105220000Y-137040000D02*
X103550000Y-135370000D01*
X103550000Y-135370000D02*
X103550000Y-128770000D01*
X90720000Y-124600000D02*
X82260000Y-116140000D01*
X90720000Y-127040000D02*
X90720000Y-124600000D01*
X75490000Y-90020000D02*
X71020000Y-90020000D01*
X101820000Y-127040000D02*
X103550000Y-128770000D01*
X78490000Y-90120000D02*
X78590000Y-90020000D01*
X78490000Y-100020000D02*
X78490000Y-90120000D01*
X71160000Y-116140000D02*
X71160000Y-118440000D01*
X70454436Y-111604436D02*
X70454436Y-115434436D01*
X70454436Y-115434436D02*
X71160000Y-116140000D01*
X67760000Y-108910000D02*
X70454436Y-111604436D01*
X67760000Y-106140000D02*
X67760000Y-108910000D01*
D28*
X79260000Y-116040000D02*
X79160000Y-116140000D01*
X79260000Y-106140000D02*
X79260000Y-116040000D01*
X82260000Y-106140000D02*
X79260000Y-106140000D01*
X88723299Y-98753299D02*
X79756701Y-98753299D01*
X79756701Y-98753299D02*
X78490000Y-100020000D01*
X89990000Y-100020000D02*
X88723299Y-98753299D01*
D27*
X96028672Y-154335564D02*
X102220000Y-148144236D01*
X80210038Y-154335564D02*
X96028672Y-154335564D01*
X80210000Y-154335526D02*
X80210038Y-154335564D01*
X80210000Y-153130000D02*
X80210000Y-154335526D01*
X85634436Y-101375564D02*
X75524436Y-101375564D01*
X75524436Y-101375564D02*
X70760000Y-106140000D01*
X86990000Y-100020000D02*
X85634436Y-101375564D01*
X102220000Y-148144236D02*
X102220000Y-141630000D01*
X102220000Y-141630000D02*
X102220000Y-137040000D01*
X90540000Y-103570000D02*
X86990000Y-100020000D01*
X114360000Y-103570000D02*
X90540000Y-103570000D01*
X114360000Y-131268196D02*
X114360000Y-103570000D01*
X103998196Y-141630000D02*
X114360000Y-131268196D01*
X102220000Y-141630000D02*
X103998196Y-141630000D01*
X90550000Y-83350000D02*
X90560000Y-83340000D01*
X90550000Y-95030000D02*
X90550000Y-83350000D01*
X91000000Y-116910000D02*
X90820000Y-116730000D01*
X69870000Y-133960000D02*
X72220000Y-133960000D01*
X72220000Y-133960000D02*
X74760000Y-133960000D01*
X74760000Y-133960000D02*
X77300000Y-133960000D01*
X77300000Y-133960000D02*
X79840000Y-133960000D01*
X79840000Y-133960000D02*
X79840000Y-128880000D01*
X79840000Y-133960000D02*
X79840000Y-139840000D01*
X79810000Y-139870000D02*
X68010000Y-139870000D01*
X79840000Y-139840000D02*
X79810000Y-139870000D01*
X79840000Y-128880000D02*
X82860000Y-128880000D01*
X80030000Y-128690000D02*
X79840000Y-128880000D01*
X80030000Y-123450000D02*
X80030000Y-128690000D01*
X80030000Y-123450000D02*
X77490000Y-123450000D01*
X77490000Y-123450000D02*
X74950000Y-123450000D01*
X74950000Y-123450000D02*
X72410000Y-123450000D01*
X72410000Y-123450000D02*
X69870000Y-123450000D01*
X69290000Y-123450000D02*
X67140000Y-125600000D01*
X69870000Y-123450000D02*
X69290000Y-123450000D01*
X67140000Y-125600000D02*
X67140000Y-128880000D01*
X82860000Y-128880000D02*
X82860000Y-125600000D01*
X90340000Y-113940000D02*
X90340000Y-117220000D01*
X91020000Y-117220000D02*
X93170000Y-119370000D01*
X90340000Y-117220000D02*
X91020000Y-117220000D01*
X93170000Y-119370000D02*
X95710000Y-119370000D01*
X95710000Y-119370000D02*
X98250000Y-119370000D01*
X98250000Y-119370000D02*
X100790000Y-119370000D01*
X100790000Y-119370000D02*
X103330000Y-119370000D01*
X103910000Y-119370000D02*
X106060000Y-117220000D01*
X103330000Y-119370000D02*
X103910000Y-119370000D01*
X106060000Y-117220000D02*
X106060000Y-113940000D01*
X103330000Y-108860000D02*
X100980000Y-108860000D01*
X100980000Y-108860000D02*
X98440000Y-108860000D01*
X98440000Y-108860000D02*
X95900000Y-108860000D01*
X95900000Y-108860000D02*
X93360000Y-108860000D01*
X77490000Y-123450000D02*
X77490000Y-126700000D01*
X93360000Y-108860000D02*
X93360000Y-113910000D01*
X93330000Y-113940000D02*
X93360000Y-113910000D01*
X90340000Y-113940000D02*
X93330000Y-113940000D01*
D28*
X91840000Y-84620000D02*
X91840000Y-82060000D01*
X91840000Y-82060000D02*
X89280000Y-82060000D01*
X89280000Y-82060000D02*
X89280000Y-84620000D01*
D27*
X57607264Y-110332436D02*
X58712200Y-109227500D01*
X56603964Y-110332436D02*
X57607264Y-110332436D01*
X55778500Y-111157900D02*
X56603964Y-110332436D01*
D28*
X91840000Y-84620000D02*
X94620000Y-84620000D01*
D27*
X67140000Y-140740000D02*
X66730000Y-141150000D01*
X67140000Y-131670000D02*
X67140000Y-140740000D01*
M02*
