%TF.GenerationSoftware,KiCad,Pcbnew,(5.1.10)-1*%
%TF.CreationDate,2021-11-05T18:24:08-05:00*%
%TF.ProjectId,payload_board,7061796c-6f61-4645-9f62-6f6172642e6b,3*%
%TF.SameCoordinates,Original*%
%TF.FileFunction,Soldermask,Bot*%
%TF.FilePolarity,Negative*%
%FSLAX46Y46*%
G04 Gerber Fmt 4.6, Leading zero omitted, Abs format (unit mm)*
G04 Created by KiCad (PCBNEW (5.1.10)-1) date 2021-11-05 18:24:08*
%MOMM*%
%LPD*%
G01*
G04 APERTURE LIST*
%ADD10R,2.000000X2.000000*%
%ADD11R,8.000000X4.000000*%
%ADD12C,1.524000*%
%ADD13R,1.524000X1.524000*%
%ADD14R,1.295400X1.193800*%
%ADD15R,1.295400X0.889000*%
%ADD16O,1.700000X1.700000*%
%ADD17R,1.700000X1.700000*%
%ADD18C,1.000000*%
%ADD19C,1.500000*%
%ADD20C,6.000000*%
%ADD21C,4.000000*%
%ADD22C,7.400000*%
%ADD23C,4.400000*%
G04 APERTURE END LIST*
D10*
X82510000Y-111120000D03*
X82260000Y-116140000D03*
X79160000Y-116140000D03*
X76610000Y-116140000D03*
X73710000Y-116140000D03*
X71160000Y-116140000D03*
X67450000Y-111110000D03*
X67760000Y-106140000D03*
X70760000Y-106140000D03*
X79260000Y-106140000D03*
X82260000Y-106140000D03*
D11*
X74810000Y-111120000D03*
D12*
X65570800Y-60655000D03*
X109919200Y-60655000D03*
X65815000Y-78420800D03*
X65815000Y-122769200D03*
X65605800Y-134020000D03*
X109954200Y-134020000D03*
X110465000Y-78420800D03*
X110465000Y-122769200D03*
D13*
X79840000Y-133960000D03*
X77300000Y-133960000D03*
X74760000Y-133960000D03*
X72220000Y-133960000D03*
X69870000Y-133960000D03*
X82860000Y-131670000D03*
X82860000Y-128880000D03*
X82860000Y-125600000D03*
X80030000Y-123450000D03*
X77490000Y-123450000D03*
X74950000Y-123450000D03*
X72410000Y-123450000D03*
X69870000Y-123450000D03*
X67140000Y-125600000D03*
X67140000Y-128880000D03*
X67140000Y-131670000D03*
D10*
X90470000Y-132060000D03*
X90720000Y-127040000D03*
X93820000Y-127040000D03*
X96370000Y-127040000D03*
X99270000Y-127040000D03*
X101820000Y-127040000D03*
X105530000Y-132070000D03*
X105220000Y-137040000D03*
X102220000Y-137040000D03*
X93720000Y-137040000D03*
X90720000Y-137040000D03*
D11*
X98170000Y-132060000D03*
D13*
X93360000Y-108860000D03*
X95900000Y-108860000D03*
X98440000Y-108860000D03*
X100980000Y-108860000D03*
X103330000Y-108860000D03*
X90340000Y-111150000D03*
X90340000Y-113940000D03*
X90340000Y-117220000D03*
X93170000Y-119370000D03*
X95710000Y-119370000D03*
X98250000Y-119370000D03*
X100790000Y-119370000D03*
X103330000Y-119370000D03*
X106060000Y-117220000D03*
X106060000Y-113940000D03*
X106060000Y-111150000D03*
D14*
X56502400Y-110929300D03*
D15*
X58712200Y-111132500D03*
X58712200Y-109227500D03*
X56502400Y-109227500D03*
D10*
X75240000Y-95040000D03*
X75490000Y-90020000D03*
X78590000Y-90020000D03*
X81140000Y-90020000D03*
X84040000Y-90020000D03*
X86590000Y-90020000D03*
X90300000Y-95050000D03*
X89990000Y-100020000D03*
X86990000Y-100020000D03*
X78490000Y-100020000D03*
X75490000Y-100020000D03*
D11*
X82940000Y-95040000D03*
D16*
X95450000Y-153130000D03*
X92910000Y-153130000D03*
X90370000Y-153130000D03*
X87830000Y-153130000D03*
X85290000Y-153130000D03*
X82750000Y-153130000D03*
D17*
X80210000Y-153130000D03*
D18*
X68010000Y-142430000D03*
X68010000Y-139870000D03*
X65450000Y-139870000D03*
X65450000Y-142430000D03*
D19*
X66730000Y-141150000D03*
D18*
X91840000Y-84620000D03*
X91840000Y-82060000D03*
X89280000Y-82060000D03*
X89280000Y-84620000D03*
D19*
X90560000Y-83340000D03*
D20*
X115120000Y-146160000D03*
X115120000Y-53960000D03*
D21*
X120870000Y-146480000D03*
X120870000Y-54630000D03*
D22*
X60970000Y-146160000D03*
X60970000Y-53960000D03*
D23*
X54130000Y-146480000D03*
X120870000Y-100560000D03*
X54130000Y-100560000D03*
X54130000Y-54630000D03*
M02*
