%TF.GenerationSoftware,KiCad,Pcbnew,(5.1.10-1-10_14)*%
%TF.CreationDate,2021-08-18T14:54:20-05:00*%
%TF.ProjectId,payload_board,7061796c-6f61-4645-9f62-6f6172642e6b,3*%
%TF.SameCoordinates,Original*%
%TF.FileFunction,Copper,L2,Inr*%
%TF.FilePolarity,Positive*%
%FSLAX46Y46*%
G04 Gerber Fmt 4.6, Leading zero omitted, Abs format (unit mm)*
G04 Created by KiCad (PCBNEW (5.1.10-1-10_14)) date 2021-08-18 14:54:20*
%MOMM*%
%LPD*%
G01*
G04 APERTURE LIST*
%TA.AperFunction,ComponentPad*%
%ADD10C,1.524000*%
%TD*%
%TA.AperFunction,ComponentPad*%
%ADD11C,0.808000*%
%TD*%
%TA.AperFunction,ComponentPad*%
%ADD12O,1.700000X1.700000*%
%TD*%
%TA.AperFunction,ComponentPad*%
%ADD13R,1.700000X1.700000*%
%TD*%
%TA.AperFunction,ComponentPad*%
%ADD14C,1.000000*%
%TD*%
%TA.AperFunction,ComponentPad*%
%ADD15C,1.500000*%
%TD*%
%TA.AperFunction,ComponentPad*%
%ADD16C,6.000000*%
%TD*%
%TA.AperFunction,ComponentPad*%
%ADD17C,4.000000*%
%TD*%
%TA.AperFunction,ComponentPad*%
%ADD18C,7.400000*%
%TD*%
%TA.AperFunction,ComponentPad*%
%ADD19C,4.400000*%
%TD*%
%TA.AperFunction,ViaPad*%
%ADD20C,0.355600*%
%TD*%
%TA.AperFunction,Conductor*%
%ADD21C,0.254000*%
%TD*%
%TA.AperFunction,Conductor*%
%ADD22C,0.100000*%
%TD*%
G04 APERTURE END LIST*
D10*
X109919200Y-60655000D03*
X65570800Y-60655000D03*
X65815000Y-78420800D03*
X65815000Y-122769200D03*
X65605800Y-134020000D03*
X109954200Y-134020000D03*
X110465000Y-78420800D03*
X110465000Y-122769200D03*
D11*
X54686300Y-111615100D03*
X54686300Y-110700700D03*
X60528300Y-109532300D03*
X60528300Y-108617900D03*
D12*
X95450000Y-153130000D03*
X92910000Y-153130000D03*
X90370000Y-153130000D03*
X87830000Y-153130000D03*
X85290000Y-153130000D03*
X82750000Y-153130000D03*
D13*
X80210000Y-153130000D03*
D14*
X68010000Y-142430000D03*
X68010000Y-139870000D03*
X65450000Y-139870000D03*
X65450000Y-142430000D03*
D15*
X66730000Y-141150000D03*
D14*
X91840000Y-84620000D03*
X91840000Y-82060000D03*
X89280000Y-82060000D03*
X89280000Y-84620000D03*
D15*
X90560000Y-83340000D03*
D16*
X115120000Y-146160000D03*
X115120000Y-53960000D03*
D17*
X120870000Y-146480000D03*
X120870000Y-54630000D03*
D18*
X60970000Y-146160000D03*
X60970000Y-53960000D03*
D19*
X54130000Y-146480000D03*
X120870000Y-100560000D03*
X54130000Y-100560000D03*
X54130000Y-54630000D03*
D20*
X71020000Y-90020000D03*
X105410000Y-88900000D03*
X71160000Y-118440000D03*
X85745000Y-60415000D03*
X77490000Y-126700000D03*
X93360000Y-113910000D03*
X94620000Y-84620000D03*
D21*
X58397837Y-50825811D02*
X57835811Y-51387837D01*
X57394229Y-52048711D01*
X57090062Y-52783034D01*
X56935000Y-53562587D01*
X56935000Y-54357413D01*
X57090062Y-55136966D01*
X57394229Y-55871289D01*
X57835811Y-56532163D01*
X58397837Y-57094189D01*
X59058711Y-57535771D01*
X59793034Y-57839938D01*
X60572587Y-57995000D01*
X61367413Y-57995000D01*
X62146966Y-57839938D01*
X62881289Y-57535771D01*
X63542163Y-57094189D01*
X64104189Y-56532163D01*
X64545771Y-55871289D01*
X64849938Y-55136966D01*
X65005000Y-54357413D01*
X65005000Y-53631531D01*
X111785000Y-53631531D01*
X111785000Y-54288469D01*
X111913162Y-54932784D01*
X112164561Y-55539715D01*
X112529536Y-56085939D01*
X112994061Y-56550464D01*
X113540285Y-56915439D01*
X114147216Y-57166838D01*
X114791531Y-57295000D01*
X115448469Y-57295000D01*
X116092784Y-57166838D01*
X116699715Y-56915439D01*
X117245939Y-56550464D01*
X117710464Y-56085939D01*
X118075439Y-55539715D01*
X118326838Y-54932784D01*
X118432810Y-54400023D01*
X118535000Y-54400023D01*
X118535000Y-54859977D01*
X118624733Y-55311094D01*
X118800750Y-55736037D01*
X119056287Y-56118476D01*
X119381524Y-56443713D01*
X119763963Y-56699250D01*
X120188906Y-56875267D01*
X120640023Y-56965000D01*
X121099977Y-56965000D01*
X121551094Y-56875267D01*
X121976037Y-56699250D01*
X122358476Y-56443713D01*
X122683713Y-56118476D01*
X122939250Y-55736037D01*
X123115267Y-55311094D01*
X123205000Y-54859977D01*
X123205000Y-54400023D01*
X123115267Y-53948906D01*
X122939250Y-53523963D01*
X122683713Y-53141524D01*
X122358476Y-52816287D01*
X121976037Y-52560750D01*
X121551094Y-52384733D01*
X121099977Y-52295000D01*
X120640023Y-52295000D01*
X120188906Y-52384733D01*
X119763963Y-52560750D01*
X119381524Y-52816287D01*
X119056287Y-53141524D01*
X118800750Y-53523963D01*
X118624733Y-53948906D01*
X118535000Y-54400023D01*
X118432810Y-54400023D01*
X118455000Y-54288469D01*
X118455000Y-53631531D01*
X118326838Y-52987216D01*
X118075439Y-52380285D01*
X117710464Y-51834061D01*
X117245939Y-51369536D01*
X116699715Y-51004561D01*
X116092784Y-50753162D01*
X115448469Y-50625000D01*
X114791531Y-50625000D01*
X114147216Y-50753162D01*
X113540285Y-51004561D01*
X112994061Y-51369536D01*
X112529536Y-51834061D01*
X112164561Y-52380285D01*
X111913162Y-52987216D01*
X111785000Y-53631531D01*
X65005000Y-53631531D01*
X65005000Y-53562587D01*
X64849938Y-52783034D01*
X64545771Y-52048711D01*
X64104189Y-51387837D01*
X63542163Y-50825811D01*
X62919858Y-50410000D01*
X124590000Y-50410000D01*
X124590001Y-156590000D01*
X50410000Y-156590000D01*
X50410000Y-152280000D01*
X79023380Y-152280000D01*
X79023380Y-153980000D01*
X79029848Y-154045671D01*
X79049004Y-154108819D01*
X79080111Y-154167016D01*
X79121974Y-154218026D01*
X79172984Y-154259889D01*
X79231181Y-154290996D01*
X79294329Y-154310152D01*
X79360000Y-154316620D01*
X81060000Y-154316620D01*
X81125671Y-154310152D01*
X81188819Y-154290996D01*
X81247016Y-154259889D01*
X81298026Y-154218026D01*
X81339889Y-154167016D01*
X81370996Y-154108819D01*
X81390152Y-154045671D01*
X81396620Y-153980000D01*
X81396620Y-153013288D01*
X81565000Y-153013288D01*
X81565000Y-153246712D01*
X81610539Y-153475652D01*
X81699866Y-153691308D01*
X81829550Y-153885394D01*
X81994606Y-154050450D01*
X82188692Y-154180134D01*
X82404348Y-154269461D01*
X82633288Y-154315000D01*
X82866712Y-154315000D01*
X83095652Y-154269461D01*
X83311308Y-154180134D01*
X83505394Y-154050450D01*
X83670450Y-153885394D01*
X83800134Y-153691308D01*
X83889461Y-153475652D01*
X83935000Y-153246712D01*
X83935000Y-153013288D01*
X84105000Y-153013288D01*
X84105000Y-153246712D01*
X84150539Y-153475652D01*
X84239866Y-153691308D01*
X84369550Y-153885394D01*
X84534606Y-154050450D01*
X84728692Y-154180134D01*
X84944348Y-154269461D01*
X85173288Y-154315000D01*
X85406712Y-154315000D01*
X85635652Y-154269461D01*
X85851308Y-154180134D01*
X86045394Y-154050450D01*
X86210450Y-153885394D01*
X86340134Y-153691308D01*
X86429461Y-153475652D01*
X86475000Y-153246712D01*
X86475000Y-153013288D01*
X86645000Y-153013288D01*
X86645000Y-153246712D01*
X86690539Y-153475652D01*
X86779866Y-153691308D01*
X86909550Y-153885394D01*
X87074606Y-154050450D01*
X87268692Y-154180134D01*
X87484348Y-154269461D01*
X87713288Y-154315000D01*
X87946712Y-154315000D01*
X88175652Y-154269461D01*
X88391308Y-154180134D01*
X88585394Y-154050450D01*
X88750450Y-153885394D01*
X88880134Y-153691308D01*
X88945259Y-153534082D01*
X89025843Y-153761252D01*
X89174822Y-154011355D01*
X89369731Y-154227588D01*
X89603080Y-154401641D01*
X89865901Y-154526825D01*
X90013110Y-154571476D01*
X90243000Y-154450155D01*
X90243000Y-153257000D01*
X90223000Y-153257000D01*
X90223000Y-153003000D01*
X90243000Y-153003000D01*
X90243000Y-151809845D01*
X90497000Y-151809845D01*
X90497000Y-153003000D01*
X90517000Y-153003000D01*
X90517000Y-153257000D01*
X90497000Y-153257000D01*
X90497000Y-154450155D01*
X90726890Y-154571476D01*
X90874099Y-154526825D01*
X91136920Y-154401641D01*
X91370269Y-154227588D01*
X91565178Y-154011355D01*
X91714157Y-153761252D01*
X91794741Y-153534082D01*
X91859866Y-153691308D01*
X91989550Y-153885394D01*
X92154606Y-154050450D01*
X92348692Y-154180134D01*
X92564348Y-154269461D01*
X92793288Y-154315000D01*
X93026712Y-154315000D01*
X93255652Y-154269461D01*
X93471308Y-154180134D01*
X93665394Y-154050450D01*
X93830450Y-153885394D01*
X93960134Y-153691308D01*
X94049461Y-153475652D01*
X94095000Y-153246712D01*
X94095000Y-153013288D01*
X94265000Y-153013288D01*
X94265000Y-153246712D01*
X94310539Y-153475652D01*
X94399866Y-153691308D01*
X94529550Y-153885394D01*
X94694606Y-154050450D01*
X94888692Y-154180134D01*
X95104348Y-154269461D01*
X95333288Y-154315000D01*
X95566712Y-154315000D01*
X95795652Y-154269461D01*
X96011308Y-154180134D01*
X96205394Y-154050450D01*
X96370450Y-153885394D01*
X96500134Y-153691308D01*
X96589461Y-153475652D01*
X96635000Y-153246712D01*
X96635000Y-153013288D01*
X96589461Y-152784348D01*
X96500134Y-152568692D01*
X96370450Y-152374606D01*
X96205394Y-152209550D01*
X96011308Y-152079866D01*
X95795652Y-151990539D01*
X95566712Y-151945000D01*
X95333288Y-151945000D01*
X95104348Y-151990539D01*
X94888692Y-152079866D01*
X94694606Y-152209550D01*
X94529550Y-152374606D01*
X94399866Y-152568692D01*
X94310539Y-152784348D01*
X94265000Y-153013288D01*
X94095000Y-153013288D01*
X94049461Y-152784348D01*
X93960134Y-152568692D01*
X93830450Y-152374606D01*
X93665394Y-152209550D01*
X93471308Y-152079866D01*
X93255652Y-151990539D01*
X93026712Y-151945000D01*
X92793288Y-151945000D01*
X92564348Y-151990539D01*
X92348692Y-152079866D01*
X92154606Y-152209550D01*
X91989550Y-152374606D01*
X91859866Y-152568692D01*
X91794741Y-152725918D01*
X91714157Y-152498748D01*
X91565178Y-152248645D01*
X91370269Y-152032412D01*
X91136920Y-151858359D01*
X90874099Y-151733175D01*
X90726890Y-151688524D01*
X90497000Y-151809845D01*
X90243000Y-151809845D01*
X90013110Y-151688524D01*
X89865901Y-151733175D01*
X89603080Y-151858359D01*
X89369731Y-152032412D01*
X89174822Y-152248645D01*
X89025843Y-152498748D01*
X88945259Y-152725918D01*
X88880134Y-152568692D01*
X88750450Y-152374606D01*
X88585394Y-152209550D01*
X88391308Y-152079866D01*
X88175652Y-151990539D01*
X87946712Y-151945000D01*
X87713288Y-151945000D01*
X87484348Y-151990539D01*
X87268692Y-152079866D01*
X87074606Y-152209550D01*
X86909550Y-152374606D01*
X86779866Y-152568692D01*
X86690539Y-152784348D01*
X86645000Y-153013288D01*
X86475000Y-153013288D01*
X86429461Y-152784348D01*
X86340134Y-152568692D01*
X86210450Y-152374606D01*
X86045394Y-152209550D01*
X85851308Y-152079866D01*
X85635652Y-151990539D01*
X85406712Y-151945000D01*
X85173288Y-151945000D01*
X84944348Y-151990539D01*
X84728692Y-152079866D01*
X84534606Y-152209550D01*
X84369550Y-152374606D01*
X84239866Y-152568692D01*
X84150539Y-152784348D01*
X84105000Y-153013288D01*
X83935000Y-153013288D01*
X83889461Y-152784348D01*
X83800134Y-152568692D01*
X83670450Y-152374606D01*
X83505394Y-152209550D01*
X83311308Y-152079866D01*
X83095652Y-151990539D01*
X82866712Y-151945000D01*
X82633288Y-151945000D01*
X82404348Y-151990539D01*
X82188692Y-152079866D01*
X81994606Y-152209550D01*
X81829550Y-152374606D01*
X81699866Y-152568692D01*
X81610539Y-152784348D01*
X81565000Y-153013288D01*
X81396620Y-153013288D01*
X81396620Y-152280000D01*
X81390152Y-152214329D01*
X81370996Y-152151181D01*
X81339889Y-152092984D01*
X81298026Y-152041974D01*
X81247016Y-152000111D01*
X81188819Y-151969004D01*
X81125671Y-151949848D01*
X81060000Y-151943380D01*
X79360000Y-151943380D01*
X79294329Y-151949848D01*
X79231181Y-151969004D01*
X79172984Y-152000111D01*
X79121974Y-152041974D01*
X79080111Y-152092984D01*
X79049004Y-152151181D01*
X79029848Y-152214329D01*
X79023380Y-152280000D01*
X50410000Y-152280000D01*
X50410000Y-146230324D01*
X51595000Y-146230324D01*
X51595000Y-146729676D01*
X51692418Y-147219432D01*
X51883512Y-147680773D01*
X52160937Y-148095968D01*
X52514032Y-148449063D01*
X52929227Y-148726488D01*
X53390568Y-148917582D01*
X53880324Y-149015000D01*
X54379676Y-149015000D01*
X54869432Y-148917582D01*
X55330773Y-148726488D01*
X55745968Y-148449063D01*
X56099063Y-148095968D01*
X56376488Y-147680773D01*
X56567582Y-147219432D01*
X56665000Y-146729676D01*
X56665000Y-146230324D01*
X56571962Y-145762587D01*
X56935000Y-145762587D01*
X56935000Y-146557413D01*
X57090062Y-147336966D01*
X57394229Y-148071289D01*
X57835811Y-148732163D01*
X58397837Y-149294189D01*
X59058711Y-149735771D01*
X59793034Y-150039938D01*
X60572587Y-150195000D01*
X61367413Y-150195000D01*
X62146966Y-150039938D01*
X62881289Y-149735771D01*
X63542163Y-149294189D01*
X64104189Y-148732163D01*
X64545771Y-148071289D01*
X64849938Y-147336966D01*
X65005000Y-146557413D01*
X65005000Y-145831531D01*
X111785000Y-145831531D01*
X111785000Y-146488469D01*
X111913162Y-147132784D01*
X112164561Y-147739715D01*
X112529536Y-148285939D01*
X112994061Y-148750464D01*
X113540285Y-149115439D01*
X114147216Y-149366838D01*
X114791531Y-149495000D01*
X115448469Y-149495000D01*
X116092784Y-149366838D01*
X116699715Y-149115439D01*
X117245939Y-148750464D01*
X117710464Y-148285939D01*
X118075439Y-147739715D01*
X118326838Y-147132784D01*
X118455000Y-146488469D01*
X118455000Y-146250023D01*
X118535000Y-146250023D01*
X118535000Y-146709977D01*
X118624733Y-147161094D01*
X118800750Y-147586037D01*
X119056287Y-147968476D01*
X119381524Y-148293713D01*
X119763963Y-148549250D01*
X120188906Y-148725267D01*
X120640023Y-148815000D01*
X121099977Y-148815000D01*
X121551094Y-148725267D01*
X121976037Y-148549250D01*
X122358476Y-148293713D01*
X122683713Y-147968476D01*
X122939250Y-147586037D01*
X123115267Y-147161094D01*
X123205000Y-146709977D01*
X123205000Y-146250023D01*
X123115267Y-145798906D01*
X122939250Y-145373963D01*
X122683713Y-144991524D01*
X122358476Y-144666287D01*
X121976037Y-144410750D01*
X121551094Y-144234733D01*
X121099977Y-144145000D01*
X120640023Y-144145000D01*
X120188906Y-144234733D01*
X119763963Y-144410750D01*
X119381524Y-144666287D01*
X119056287Y-144991524D01*
X118800750Y-145373963D01*
X118624733Y-145798906D01*
X118535000Y-146250023D01*
X118455000Y-146250023D01*
X118455000Y-145831531D01*
X118326838Y-145187216D01*
X118075439Y-144580285D01*
X117710464Y-144034061D01*
X117245939Y-143569536D01*
X116699715Y-143204561D01*
X116092784Y-142953162D01*
X115448469Y-142825000D01*
X114791531Y-142825000D01*
X114147216Y-142953162D01*
X113540285Y-143204561D01*
X112994061Y-143569536D01*
X112529536Y-144034061D01*
X112164561Y-144580285D01*
X111913162Y-145187216D01*
X111785000Y-145831531D01*
X65005000Y-145831531D01*
X65005000Y-145762587D01*
X64849938Y-144983034D01*
X64545771Y-144248711D01*
X64104189Y-143587837D01*
X63542163Y-143025811D01*
X62881289Y-142584229D01*
X62146966Y-142280062D01*
X61367413Y-142125000D01*
X60572587Y-142125000D01*
X59793034Y-142280062D01*
X59058711Y-142584229D01*
X58397837Y-143025811D01*
X57835811Y-143587837D01*
X57394229Y-144248711D01*
X57090062Y-144983034D01*
X56935000Y-145762587D01*
X56571962Y-145762587D01*
X56567582Y-145740568D01*
X56376488Y-145279227D01*
X56099063Y-144864032D01*
X55745968Y-144510937D01*
X55330773Y-144233512D01*
X54869432Y-144042418D01*
X54379676Y-143945000D01*
X53880324Y-143945000D01*
X53390568Y-144042418D01*
X52929227Y-144233512D01*
X52514032Y-144510937D01*
X52160937Y-144864032D01*
X51883512Y-145279227D01*
X51692418Y-145740568D01*
X51595000Y-146230324D01*
X50410000Y-146230324D01*
X50410000Y-139787760D01*
X64615000Y-139787760D01*
X64615000Y-139952240D01*
X64647089Y-140113560D01*
X64710033Y-140265521D01*
X64801413Y-140402281D01*
X64917719Y-140518587D01*
X65054479Y-140609967D01*
X65206440Y-140672911D01*
X65367760Y-140705000D01*
X65532240Y-140705000D01*
X65693560Y-140672911D01*
X65765577Y-140643081D01*
X65686696Y-140833517D01*
X65645000Y-141043137D01*
X65645000Y-141256863D01*
X65686696Y-141466483D01*
X65765577Y-141656919D01*
X65693560Y-141627089D01*
X65532240Y-141595000D01*
X65367760Y-141595000D01*
X65206440Y-141627089D01*
X65054479Y-141690033D01*
X64917719Y-141781413D01*
X64801413Y-141897719D01*
X64710033Y-142034479D01*
X64647089Y-142186440D01*
X64615000Y-142347760D01*
X64615000Y-142512240D01*
X64647089Y-142673560D01*
X64710033Y-142825521D01*
X64801413Y-142962281D01*
X64917719Y-143078587D01*
X65054479Y-143169967D01*
X65206440Y-143232911D01*
X65367760Y-143265000D01*
X65532240Y-143265000D01*
X65693560Y-143232911D01*
X65845521Y-143169967D01*
X65982281Y-143078587D01*
X66098587Y-142962281D01*
X66189967Y-142825521D01*
X66252911Y-142673560D01*
X66285000Y-142512240D01*
X66285000Y-142347760D01*
X66252911Y-142186440D01*
X66223081Y-142114423D01*
X66413517Y-142193304D01*
X66623137Y-142235000D01*
X66836863Y-142235000D01*
X67046483Y-142193304D01*
X67236919Y-142114423D01*
X67207089Y-142186440D01*
X67175000Y-142347760D01*
X67175000Y-142512240D01*
X67207089Y-142673560D01*
X67270033Y-142825521D01*
X67361413Y-142962281D01*
X67477719Y-143078587D01*
X67614479Y-143169967D01*
X67766440Y-143232911D01*
X67927760Y-143265000D01*
X68092240Y-143265000D01*
X68253560Y-143232911D01*
X68405521Y-143169967D01*
X68542281Y-143078587D01*
X68658587Y-142962281D01*
X68749967Y-142825521D01*
X68812911Y-142673560D01*
X68845000Y-142512240D01*
X68845000Y-142347760D01*
X68812911Y-142186440D01*
X68749967Y-142034479D01*
X68658587Y-141897719D01*
X68542281Y-141781413D01*
X68405521Y-141690033D01*
X68253560Y-141627089D01*
X68092240Y-141595000D01*
X67927760Y-141595000D01*
X67766440Y-141627089D01*
X67694423Y-141656919D01*
X67773304Y-141466483D01*
X67815000Y-141256863D01*
X67815000Y-141043137D01*
X67773304Y-140833517D01*
X67694423Y-140643081D01*
X67766440Y-140672911D01*
X67927760Y-140705000D01*
X68092240Y-140705000D01*
X68253560Y-140672911D01*
X68405521Y-140609967D01*
X68542281Y-140518587D01*
X68658587Y-140402281D01*
X68749967Y-140265521D01*
X68812911Y-140113560D01*
X68845000Y-139952240D01*
X68845000Y-139787760D01*
X68812911Y-139626440D01*
X68749967Y-139474479D01*
X68658587Y-139337719D01*
X68542281Y-139221413D01*
X68405521Y-139130033D01*
X68253560Y-139067089D01*
X68092240Y-139035000D01*
X67927760Y-139035000D01*
X67766440Y-139067089D01*
X67614479Y-139130033D01*
X67477719Y-139221413D01*
X67361413Y-139337719D01*
X67270033Y-139474479D01*
X67207089Y-139626440D01*
X67175000Y-139787760D01*
X67175000Y-139952240D01*
X67207089Y-140113560D01*
X67236919Y-140185577D01*
X67046483Y-140106696D01*
X66836863Y-140065000D01*
X66623137Y-140065000D01*
X66413517Y-140106696D01*
X66223081Y-140185577D01*
X66252911Y-140113560D01*
X66285000Y-139952240D01*
X66285000Y-139787760D01*
X66252911Y-139626440D01*
X66189967Y-139474479D01*
X66098587Y-139337719D01*
X65982281Y-139221413D01*
X65845521Y-139130033D01*
X65693560Y-139067089D01*
X65532240Y-139035000D01*
X65367760Y-139035000D01*
X65206440Y-139067089D01*
X65054479Y-139130033D01*
X64917719Y-139221413D01*
X64801413Y-139337719D01*
X64710033Y-139474479D01*
X64647089Y-139626440D01*
X64615000Y-139787760D01*
X50410000Y-139787760D01*
X50410000Y-133911955D01*
X64508800Y-133911955D01*
X64508800Y-134128045D01*
X64550957Y-134339983D01*
X64633651Y-134539624D01*
X64753704Y-134719297D01*
X64906503Y-134872096D01*
X65086176Y-134992149D01*
X65285817Y-135074843D01*
X65497755Y-135117000D01*
X65713845Y-135117000D01*
X65925783Y-135074843D01*
X66125424Y-134992149D01*
X66305097Y-134872096D01*
X66457896Y-134719297D01*
X66577949Y-134539624D01*
X66660643Y-134339983D01*
X66702800Y-134128045D01*
X66702800Y-133911955D01*
X108857200Y-133911955D01*
X108857200Y-134128045D01*
X108899357Y-134339983D01*
X108982051Y-134539624D01*
X109102104Y-134719297D01*
X109254903Y-134872096D01*
X109434576Y-134992149D01*
X109634217Y-135074843D01*
X109846155Y-135117000D01*
X110062245Y-135117000D01*
X110274183Y-135074843D01*
X110473824Y-134992149D01*
X110653497Y-134872096D01*
X110806296Y-134719297D01*
X110926349Y-134539624D01*
X111009043Y-134339983D01*
X111051200Y-134128045D01*
X111051200Y-133911955D01*
X111009043Y-133700017D01*
X110926349Y-133500376D01*
X110806296Y-133320703D01*
X110653497Y-133167904D01*
X110473824Y-133047851D01*
X110274183Y-132965157D01*
X110062245Y-132923000D01*
X109846155Y-132923000D01*
X109634217Y-132965157D01*
X109434576Y-133047851D01*
X109254903Y-133167904D01*
X109102104Y-133320703D01*
X108982051Y-133500376D01*
X108899357Y-133700017D01*
X108857200Y-133911955D01*
X66702800Y-133911955D01*
X66660643Y-133700017D01*
X66577949Y-133500376D01*
X66457896Y-133320703D01*
X66305097Y-133167904D01*
X66125424Y-133047851D01*
X65925783Y-132965157D01*
X65713845Y-132923000D01*
X65497755Y-132923000D01*
X65285817Y-132965157D01*
X65086176Y-133047851D01*
X64906503Y-133167904D01*
X64753704Y-133320703D01*
X64633651Y-133500376D01*
X64550957Y-133700017D01*
X64508800Y-133911955D01*
X50410000Y-133911955D01*
X50410000Y-126649494D01*
X76977200Y-126649494D01*
X76977200Y-126750506D01*
X76996907Y-126849578D01*
X77035563Y-126942902D01*
X77091682Y-127026891D01*
X77163109Y-127098318D01*
X77247098Y-127154437D01*
X77340422Y-127193093D01*
X77439494Y-127212800D01*
X77540506Y-127212800D01*
X77639578Y-127193093D01*
X77732902Y-127154437D01*
X77816891Y-127098318D01*
X77888318Y-127026891D01*
X77944437Y-126942902D01*
X77983093Y-126849578D01*
X78002800Y-126750506D01*
X78002800Y-126649494D01*
X77983093Y-126550422D01*
X77944437Y-126457098D01*
X77888318Y-126373109D01*
X77816891Y-126301682D01*
X77732902Y-126245563D01*
X77639578Y-126206907D01*
X77540506Y-126187200D01*
X77439494Y-126187200D01*
X77340422Y-126206907D01*
X77247098Y-126245563D01*
X77163109Y-126301682D01*
X77091682Y-126373109D01*
X77035563Y-126457098D01*
X76996907Y-126550422D01*
X76977200Y-126649494D01*
X50410000Y-126649494D01*
X50410000Y-122661155D01*
X64718000Y-122661155D01*
X64718000Y-122877245D01*
X64760157Y-123089183D01*
X64842851Y-123288824D01*
X64962904Y-123468497D01*
X65115703Y-123621296D01*
X65295376Y-123741349D01*
X65495017Y-123824043D01*
X65706955Y-123866200D01*
X65923045Y-123866200D01*
X66134983Y-123824043D01*
X66334624Y-123741349D01*
X66514297Y-123621296D01*
X66667096Y-123468497D01*
X66787149Y-123288824D01*
X66869843Y-123089183D01*
X66912000Y-122877245D01*
X66912000Y-122661155D01*
X109368000Y-122661155D01*
X109368000Y-122877245D01*
X109410157Y-123089183D01*
X109492851Y-123288824D01*
X109612904Y-123468497D01*
X109765703Y-123621296D01*
X109945376Y-123741349D01*
X110145017Y-123824043D01*
X110356955Y-123866200D01*
X110573045Y-123866200D01*
X110784983Y-123824043D01*
X110984624Y-123741349D01*
X111164297Y-123621296D01*
X111317096Y-123468497D01*
X111437149Y-123288824D01*
X111519843Y-123089183D01*
X111562000Y-122877245D01*
X111562000Y-122661155D01*
X111519843Y-122449217D01*
X111437149Y-122249576D01*
X111317096Y-122069903D01*
X111164297Y-121917104D01*
X110984624Y-121797051D01*
X110784983Y-121714357D01*
X110573045Y-121672200D01*
X110356955Y-121672200D01*
X110145017Y-121714357D01*
X109945376Y-121797051D01*
X109765703Y-121917104D01*
X109612904Y-122069903D01*
X109492851Y-122249576D01*
X109410157Y-122449217D01*
X109368000Y-122661155D01*
X66912000Y-122661155D01*
X66869843Y-122449217D01*
X66787149Y-122249576D01*
X66667096Y-122069903D01*
X66514297Y-121917104D01*
X66334624Y-121797051D01*
X66134983Y-121714357D01*
X65923045Y-121672200D01*
X65706955Y-121672200D01*
X65495017Y-121714357D01*
X65295376Y-121797051D01*
X65115703Y-121917104D01*
X64962904Y-122069903D01*
X64842851Y-122249576D01*
X64760157Y-122449217D01*
X64718000Y-122661155D01*
X50410000Y-122661155D01*
X50410000Y-113859494D01*
X92847200Y-113859494D01*
X92847200Y-113960506D01*
X92866907Y-114059578D01*
X92905563Y-114152902D01*
X92961682Y-114236891D01*
X93033109Y-114308318D01*
X93117098Y-114364437D01*
X93210422Y-114403093D01*
X93309494Y-114422800D01*
X93410506Y-114422800D01*
X93509578Y-114403093D01*
X93602902Y-114364437D01*
X93686891Y-114308318D01*
X93758318Y-114236891D01*
X93814437Y-114152902D01*
X93853093Y-114059578D01*
X93872800Y-113960506D01*
X93872800Y-113859494D01*
X93853093Y-113760422D01*
X93814437Y-113667098D01*
X93758318Y-113583109D01*
X93686891Y-113511682D01*
X93602902Y-113455563D01*
X93509578Y-113416907D01*
X93410506Y-113397200D01*
X93309494Y-113397200D01*
X93210422Y-113416907D01*
X93117098Y-113455563D01*
X93033109Y-113511682D01*
X92961682Y-113583109D01*
X92905563Y-113667098D01*
X92866907Y-113760422D01*
X92847200Y-113859494D01*
X50410000Y-113859494D01*
X50410000Y-110627915D01*
X53947300Y-110627915D01*
X53947300Y-110773485D01*
X53975699Y-110916258D01*
X54031406Y-111050748D01*
X54103003Y-111157900D01*
X54031406Y-111265052D01*
X53975699Y-111399542D01*
X53947300Y-111542315D01*
X53947300Y-111687885D01*
X53975699Y-111830658D01*
X54031406Y-111965148D01*
X54112281Y-112086185D01*
X54215215Y-112189119D01*
X54336252Y-112269994D01*
X54470742Y-112325701D01*
X54613515Y-112354100D01*
X54759085Y-112354100D01*
X54901858Y-112325701D01*
X55036348Y-112269994D01*
X55157385Y-112189119D01*
X55260319Y-112086185D01*
X55341194Y-111965148D01*
X55396901Y-111830658D01*
X55425300Y-111687885D01*
X55425300Y-111542315D01*
X55396901Y-111399542D01*
X55341194Y-111265052D01*
X55269597Y-111157900D01*
X55341194Y-111050748D01*
X55396901Y-110916258D01*
X55425300Y-110773485D01*
X55425300Y-110627915D01*
X55396901Y-110485142D01*
X55341194Y-110350652D01*
X55260319Y-110229615D01*
X55157385Y-110126681D01*
X55036348Y-110045806D01*
X54901858Y-109990099D01*
X54759085Y-109961700D01*
X54613515Y-109961700D01*
X54470742Y-109990099D01*
X54336252Y-110045806D01*
X54215215Y-110126681D01*
X54112281Y-110229615D01*
X54031406Y-110350652D01*
X53975699Y-110485142D01*
X53947300Y-110627915D01*
X50410000Y-110627915D01*
X50410000Y-108545115D01*
X59789300Y-108545115D01*
X59789300Y-108690685D01*
X59817699Y-108833458D01*
X59873406Y-108967948D01*
X59945003Y-109075100D01*
X59873406Y-109182252D01*
X59817699Y-109316742D01*
X59789300Y-109459515D01*
X59789300Y-109605085D01*
X59817699Y-109747858D01*
X59873406Y-109882348D01*
X59954281Y-110003385D01*
X60057215Y-110106319D01*
X60178252Y-110187194D01*
X60312742Y-110242901D01*
X60455515Y-110271300D01*
X60601085Y-110271300D01*
X60743858Y-110242901D01*
X60878348Y-110187194D01*
X60999385Y-110106319D01*
X61102319Y-110003385D01*
X61183194Y-109882348D01*
X61238901Y-109747858D01*
X61267300Y-109605085D01*
X61267300Y-109459515D01*
X61238901Y-109316742D01*
X61183194Y-109182252D01*
X61111597Y-109075100D01*
X61183194Y-108967948D01*
X61238901Y-108833458D01*
X61267300Y-108690685D01*
X61267300Y-108545115D01*
X61238901Y-108402342D01*
X61183194Y-108267852D01*
X61102319Y-108146815D01*
X60999385Y-108043881D01*
X60878348Y-107963006D01*
X60743858Y-107907299D01*
X60601085Y-107878900D01*
X60455515Y-107878900D01*
X60312742Y-107907299D01*
X60178252Y-107963006D01*
X60057215Y-108043881D01*
X59954281Y-108146815D01*
X59873406Y-108267852D01*
X59817699Y-108402342D01*
X59789300Y-108545115D01*
X50410000Y-108545115D01*
X50410000Y-100310324D01*
X51595000Y-100310324D01*
X51595000Y-100809676D01*
X51692418Y-101299432D01*
X51883512Y-101760773D01*
X52160937Y-102175968D01*
X52514032Y-102529063D01*
X52929227Y-102806488D01*
X53390568Y-102997582D01*
X53880324Y-103095000D01*
X54379676Y-103095000D01*
X54869432Y-102997582D01*
X55330773Y-102806488D01*
X55745968Y-102529063D01*
X56099063Y-102175968D01*
X56376488Y-101760773D01*
X56567582Y-101299432D01*
X56665000Y-100809676D01*
X56665000Y-100310324D01*
X118335000Y-100310324D01*
X118335000Y-100809676D01*
X118432418Y-101299432D01*
X118623512Y-101760773D01*
X118900937Y-102175968D01*
X119254032Y-102529063D01*
X119669227Y-102806488D01*
X120130568Y-102997582D01*
X120620324Y-103095000D01*
X121119676Y-103095000D01*
X121609432Y-102997582D01*
X122070773Y-102806488D01*
X122485968Y-102529063D01*
X122839063Y-102175968D01*
X123116488Y-101760773D01*
X123307582Y-101299432D01*
X123405000Y-100809676D01*
X123405000Y-100310324D01*
X123307582Y-99820568D01*
X123116488Y-99359227D01*
X122839063Y-98944032D01*
X122485968Y-98590937D01*
X122070773Y-98313512D01*
X121609432Y-98122418D01*
X121119676Y-98025000D01*
X120620324Y-98025000D01*
X120130568Y-98122418D01*
X119669227Y-98313512D01*
X119254032Y-98590937D01*
X118900937Y-98944032D01*
X118623512Y-99359227D01*
X118432418Y-99820568D01*
X118335000Y-100310324D01*
X56665000Y-100310324D01*
X56567582Y-99820568D01*
X56376488Y-99359227D01*
X56099063Y-98944032D01*
X55745968Y-98590937D01*
X55330773Y-98313512D01*
X54869432Y-98122418D01*
X54379676Y-98025000D01*
X53880324Y-98025000D01*
X53390568Y-98122418D01*
X52929227Y-98313512D01*
X52514032Y-98590937D01*
X52160937Y-98944032D01*
X51883512Y-99359227D01*
X51692418Y-99820568D01*
X51595000Y-100310324D01*
X50410000Y-100310324D01*
X50410000Y-81977760D01*
X88445000Y-81977760D01*
X88445000Y-82142240D01*
X88477089Y-82303560D01*
X88540033Y-82455521D01*
X88631413Y-82592281D01*
X88747719Y-82708587D01*
X88884479Y-82799967D01*
X89036440Y-82862911D01*
X89197760Y-82895000D01*
X89362240Y-82895000D01*
X89523560Y-82862911D01*
X89595577Y-82833081D01*
X89516696Y-83023517D01*
X89475000Y-83233137D01*
X89475000Y-83446863D01*
X89516696Y-83656483D01*
X89595577Y-83846919D01*
X89523560Y-83817089D01*
X89362240Y-83785000D01*
X89197760Y-83785000D01*
X89036440Y-83817089D01*
X88884479Y-83880033D01*
X88747719Y-83971413D01*
X88631413Y-84087719D01*
X88540033Y-84224479D01*
X88477089Y-84376440D01*
X88445000Y-84537760D01*
X88445000Y-84702240D01*
X88477089Y-84863560D01*
X88540033Y-85015521D01*
X88631413Y-85152281D01*
X88747719Y-85268587D01*
X88884479Y-85359967D01*
X89036440Y-85422911D01*
X89197760Y-85455000D01*
X89362240Y-85455000D01*
X89523560Y-85422911D01*
X89675521Y-85359967D01*
X89812281Y-85268587D01*
X89928587Y-85152281D01*
X90019967Y-85015521D01*
X90082911Y-84863560D01*
X90115000Y-84702240D01*
X90115000Y-84537760D01*
X90082911Y-84376440D01*
X90053081Y-84304423D01*
X90243517Y-84383304D01*
X90453137Y-84425000D01*
X90666863Y-84425000D01*
X90876483Y-84383304D01*
X91066919Y-84304423D01*
X91037089Y-84376440D01*
X91005000Y-84537760D01*
X91005000Y-84702240D01*
X91037089Y-84863560D01*
X91100033Y-85015521D01*
X91191413Y-85152281D01*
X91307719Y-85268587D01*
X91444479Y-85359967D01*
X91596440Y-85422911D01*
X91757760Y-85455000D01*
X91922240Y-85455000D01*
X92083560Y-85422911D01*
X92235521Y-85359967D01*
X92372281Y-85268587D01*
X92488587Y-85152281D01*
X92579967Y-85015521D01*
X92642911Y-84863560D01*
X92675000Y-84702240D01*
X92675000Y-84569494D01*
X94107200Y-84569494D01*
X94107200Y-84670506D01*
X94126907Y-84769578D01*
X94165563Y-84862902D01*
X94221682Y-84946891D01*
X94293109Y-85018318D01*
X94377098Y-85074437D01*
X94470422Y-85113093D01*
X94569494Y-85132800D01*
X94670506Y-85132800D01*
X94769578Y-85113093D01*
X94862902Y-85074437D01*
X94946891Y-85018318D01*
X95018318Y-84946891D01*
X95074437Y-84862902D01*
X95113093Y-84769578D01*
X95132800Y-84670506D01*
X95132800Y-84569494D01*
X95113093Y-84470422D01*
X95074437Y-84377098D01*
X95018318Y-84293109D01*
X94946891Y-84221682D01*
X94862902Y-84165563D01*
X94769578Y-84126907D01*
X94670506Y-84107200D01*
X94569494Y-84107200D01*
X94470422Y-84126907D01*
X94377098Y-84165563D01*
X94293109Y-84221682D01*
X94221682Y-84293109D01*
X94165563Y-84377098D01*
X94126907Y-84470422D01*
X94107200Y-84569494D01*
X92675000Y-84569494D01*
X92675000Y-84537760D01*
X92642911Y-84376440D01*
X92579967Y-84224479D01*
X92488587Y-84087719D01*
X92372281Y-83971413D01*
X92235521Y-83880033D01*
X92083560Y-83817089D01*
X91922240Y-83785000D01*
X91757760Y-83785000D01*
X91596440Y-83817089D01*
X91524423Y-83846919D01*
X91603304Y-83656483D01*
X91645000Y-83446863D01*
X91645000Y-83233137D01*
X91603304Y-83023517D01*
X91524423Y-82833081D01*
X91596440Y-82862911D01*
X91757760Y-82895000D01*
X91922240Y-82895000D01*
X92083560Y-82862911D01*
X92235521Y-82799967D01*
X92372281Y-82708587D01*
X92488587Y-82592281D01*
X92579967Y-82455521D01*
X92642911Y-82303560D01*
X92675000Y-82142240D01*
X92675000Y-81977760D01*
X92642911Y-81816440D01*
X92579967Y-81664479D01*
X92488587Y-81527719D01*
X92372281Y-81411413D01*
X92235521Y-81320033D01*
X92083560Y-81257089D01*
X91922240Y-81225000D01*
X91757760Y-81225000D01*
X91596440Y-81257089D01*
X91444479Y-81320033D01*
X91307719Y-81411413D01*
X91191413Y-81527719D01*
X91100033Y-81664479D01*
X91037089Y-81816440D01*
X91005000Y-81977760D01*
X91005000Y-82142240D01*
X91037089Y-82303560D01*
X91066919Y-82375577D01*
X90876483Y-82296696D01*
X90666863Y-82255000D01*
X90453137Y-82255000D01*
X90243517Y-82296696D01*
X90053081Y-82375577D01*
X90082911Y-82303560D01*
X90115000Y-82142240D01*
X90115000Y-81977760D01*
X90082911Y-81816440D01*
X90019967Y-81664479D01*
X89928587Y-81527719D01*
X89812281Y-81411413D01*
X89675521Y-81320033D01*
X89523560Y-81257089D01*
X89362240Y-81225000D01*
X89197760Y-81225000D01*
X89036440Y-81257089D01*
X88884479Y-81320033D01*
X88747719Y-81411413D01*
X88631413Y-81527719D01*
X88540033Y-81664479D01*
X88477089Y-81816440D01*
X88445000Y-81977760D01*
X50410000Y-81977760D01*
X50410000Y-78312755D01*
X64718000Y-78312755D01*
X64718000Y-78528845D01*
X64760157Y-78740783D01*
X64842851Y-78940424D01*
X64962904Y-79120097D01*
X65115703Y-79272896D01*
X65295376Y-79392949D01*
X65495017Y-79475643D01*
X65706955Y-79517800D01*
X65923045Y-79517800D01*
X66134983Y-79475643D01*
X66334624Y-79392949D01*
X66514297Y-79272896D01*
X66667096Y-79120097D01*
X66787149Y-78940424D01*
X66869843Y-78740783D01*
X66912000Y-78528845D01*
X66912000Y-78312755D01*
X109368000Y-78312755D01*
X109368000Y-78528845D01*
X109410157Y-78740783D01*
X109492851Y-78940424D01*
X109612904Y-79120097D01*
X109765703Y-79272896D01*
X109945376Y-79392949D01*
X110145017Y-79475643D01*
X110356955Y-79517800D01*
X110573045Y-79517800D01*
X110784983Y-79475643D01*
X110984624Y-79392949D01*
X111164297Y-79272896D01*
X111317096Y-79120097D01*
X111437149Y-78940424D01*
X111519843Y-78740783D01*
X111562000Y-78528845D01*
X111562000Y-78312755D01*
X111519843Y-78100817D01*
X111437149Y-77901176D01*
X111317096Y-77721503D01*
X111164297Y-77568704D01*
X110984624Y-77448651D01*
X110784983Y-77365957D01*
X110573045Y-77323800D01*
X110356955Y-77323800D01*
X110145017Y-77365957D01*
X109945376Y-77448651D01*
X109765703Y-77568704D01*
X109612904Y-77721503D01*
X109492851Y-77901176D01*
X109410157Y-78100817D01*
X109368000Y-78312755D01*
X66912000Y-78312755D01*
X66869843Y-78100817D01*
X66787149Y-77901176D01*
X66667096Y-77721503D01*
X66514297Y-77568704D01*
X66334624Y-77448651D01*
X66134983Y-77365957D01*
X65923045Y-77323800D01*
X65706955Y-77323800D01*
X65495017Y-77365957D01*
X65295376Y-77448651D01*
X65115703Y-77568704D01*
X64962904Y-77721503D01*
X64842851Y-77901176D01*
X64760157Y-78100817D01*
X64718000Y-78312755D01*
X50410000Y-78312755D01*
X50410000Y-60546955D01*
X64473800Y-60546955D01*
X64473800Y-60763045D01*
X64515957Y-60974983D01*
X64598651Y-61174624D01*
X64718704Y-61354297D01*
X64871503Y-61507096D01*
X65051176Y-61627149D01*
X65250817Y-61709843D01*
X65462755Y-61752000D01*
X65678845Y-61752000D01*
X65890783Y-61709843D01*
X66090424Y-61627149D01*
X66270097Y-61507096D01*
X66422896Y-61354297D01*
X66542949Y-61174624D01*
X66625643Y-60974983D01*
X66667800Y-60763045D01*
X66667800Y-60546955D01*
X108822200Y-60546955D01*
X108822200Y-60763045D01*
X108864357Y-60974983D01*
X108947051Y-61174624D01*
X109067104Y-61354297D01*
X109219903Y-61507096D01*
X109399576Y-61627149D01*
X109599217Y-61709843D01*
X109811155Y-61752000D01*
X110027245Y-61752000D01*
X110239183Y-61709843D01*
X110438824Y-61627149D01*
X110618497Y-61507096D01*
X110771296Y-61354297D01*
X110891349Y-61174624D01*
X110974043Y-60974983D01*
X111016200Y-60763045D01*
X111016200Y-60546955D01*
X110974043Y-60335017D01*
X110891349Y-60135376D01*
X110771296Y-59955703D01*
X110618497Y-59802904D01*
X110438824Y-59682851D01*
X110239183Y-59600157D01*
X110027245Y-59558000D01*
X109811155Y-59558000D01*
X109599217Y-59600157D01*
X109399576Y-59682851D01*
X109219903Y-59802904D01*
X109067104Y-59955703D01*
X108947051Y-60135376D01*
X108864357Y-60335017D01*
X108822200Y-60546955D01*
X66667800Y-60546955D01*
X66625643Y-60335017D01*
X66542949Y-60135376D01*
X66422896Y-59955703D01*
X66270097Y-59802904D01*
X66090424Y-59682851D01*
X65890783Y-59600157D01*
X65678845Y-59558000D01*
X65462755Y-59558000D01*
X65250817Y-59600157D01*
X65051176Y-59682851D01*
X64871503Y-59802904D01*
X64718704Y-59955703D01*
X64598651Y-60135376D01*
X64515957Y-60335017D01*
X64473800Y-60546955D01*
X50410000Y-60546955D01*
X50410000Y-54380324D01*
X51595000Y-54380324D01*
X51595000Y-54879676D01*
X51692418Y-55369432D01*
X51883512Y-55830773D01*
X52160937Y-56245968D01*
X52514032Y-56599063D01*
X52929227Y-56876488D01*
X53390568Y-57067582D01*
X53880324Y-57165000D01*
X54379676Y-57165000D01*
X54869432Y-57067582D01*
X55330773Y-56876488D01*
X55745968Y-56599063D01*
X56099063Y-56245968D01*
X56376488Y-55830773D01*
X56567582Y-55369432D01*
X56665000Y-54879676D01*
X56665000Y-54380324D01*
X56567582Y-53890568D01*
X56376488Y-53429227D01*
X56099063Y-53014032D01*
X55745968Y-52660937D01*
X55330773Y-52383512D01*
X54869432Y-52192418D01*
X54379676Y-52095000D01*
X53880324Y-52095000D01*
X53390568Y-52192418D01*
X52929227Y-52383512D01*
X52514032Y-52660937D01*
X52160937Y-53014032D01*
X51883512Y-53429227D01*
X51692418Y-53890568D01*
X51595000Y-54380324D01*
X50410000Y-54380324D01*
X50410000Y-50410000D01*
X59020142Y-50410000D01*
X58397837Y-50825811D01*
%TA.AperFunction,Conductor*%
D22*
G36*
X58397837Y-50825811D02*
G01*
X57835811Y-51387837D01*
X57394229Y-52048711D01*
X57090062Y-52783034D01*
X56935000Y-53562587D01*
X56935000Y-54357413D01*
X57090062Y-55136966D01*
X57394229Y-55871289D01*
X57835811Y-56532163D01*
X58397837Y-57094189D01*
X59058711Y-57535771D01*
X59793034Y-57839938D01*
X60572587Y-57995000D01*
X61367413Y-57995000D01*
X62146966Y-57839938D01*
X62881289Y-57535771D01*
X63542163Y-57094189D01*
X64104189Y-56532163D01*
X64545771Y-55871289D01*
X64849938Y-55136966D01*
X65005000Y-54357413D01*
X65005000Y-53631531D01*
X111785000Y-53631531D01*
X111785000Y-54288469D01*
X111913162Y-54932784D01*
X112164561Y-55539715D01*
X112529536Y-56085939D01*
X112994061Y-56550464D01*
X113540285Y-56915439D01*
X114147216Y-57166838D01*
X114791531Y-57295000D01*
X115448469Y-57295000D01*
X116092784Y-57166838D01*
X116699715Y-56915439D01*
X117245939Y-56550464D01*
X117710464Y-56085939D01*
X118075439Y-55539715D01*
X118326838Y-54932784D01*
X118432810Y-54400023D01*
X118535000Y-54400023D01*
X118535000Y-54859977D01*
X118624733Y-55311094D01*
X118800750Y-55736037D01*
X119056287Y-56118476D01*
X119381524Y-56443713D01*
X119763963Y-56699250D01*
X120188906Y-56875267D01*
X120640023Y-56965000D01*
X121099977Y-56965000D01*
X121551094Y-56875267D01*
X121976037Y-56699250D01*
X122358476Y-56443713D01*
X122683713Y-56118476D01*
X122939250Y-55736037D01*
X123115267Y-55311094D01*
X123205000Y-54859977D01*
X123205000Y-54400023D01*
X123115267Y-53948906D01*
X122939250Y-53523963D01*
X122683713Y-53141524D01*
X122358476Y-52816287D01*
X121976037Y-52560750D01*
X121551094Y-52384733D01*
X121099977Y-52295000D01*
X120640023Y-52295000D01*
X120188906Y-52384733D01*
X119763963Y-52560750D01*
X119381524Y-52816287D01*
X119056287Y-53141524D01*
X118800750Y-53523963D01*
X118624733Y-53948906D01*
X118535000Y-54400023D01*
X118432810Y-54400023D01*
X118455000Y-54288469D01*
X118455000Y-53631531D01*
X118326838Y-52987216D01*
X118075439Y-52380285D01*
X117710464Y-51834061D01*
X117245939Y-51369536D01*
X116699715Y-51004561D01*
X116092784Y-50753162D01*
X115448469Y-50625000D01*
X114791531Y-50625000D01*
X114147216Y-50753162D01*
X113540285Y-51004561D01*
X112994061Y-51369536D01*
X112529536Y-51834061D01*
X112164561Y-52380285D01*
X111913162Y-52987216D01*
X111785000Y-53631531D01*
X65005000Y-53631531D01*
X65005000Y-53562587D01*
X64849938Y-52783034D01*
X64545771Y-52048711D01*
X64104189Y-51387837D01*
X63542163Y-50825811D01*
X62919858Y-50410000D01*
X124590000Y-50410000D01*
X124590001Y-156590000D01*
X50410000Y-156590000D01*
X50410000Y-152280000D01*
X79023380Y-152280000D01*
X79023380Y-153980000D01*
X79029848Y-154045671D01*
X79049004Y-154108819D01*
X79080111Y-154167016D01*
X79121974Y-154218026D01*
X79172984Y-154259889D01*
X79231181Y-154290996D01*
X79294329Y-154310152D01*
X79360000Y-154316620D01*
X81060000Y-154316620D01*
X81125671Y-154310152D01*
X81188819Y-154290996D01*
X81247016Y-154259889D01*
X81298026Y-154218026D01*
X81339889Y-154167016D01*
X81370996Y-154108819D01*
X81390152Y-154045671D01*
X81396620Y-153980000D01*
X81396620Y-153013288D01*
X81565000Y-153013288D01*
X81565000Y-153246712D01*
X81610539Y-153475652D01*
X81699866Y-153691308D01*
X81829550Y-153885394D01*
X81994606Y-154050450D01*
X82188692Y-154180134D01*
X82404348Y-154269461D01*
X82633288Y-154315000D01*
X82866712Y-154315000D01*
X83095652Y-154269461D01*
X83311308Y-154180134D01*
X83505394Y-154050450D01*
X83670450Y-153885394D01*
X83800134Y-153691308D01*
X83889461Y-153475652D01*
X83935000Y-153246712D01*
X83935000Y-153013288D01*
X84105000Y-153013288D01*
X84105000Y-153246712D01*
X84150539Y-153475652D01*
X84239866Y-153691308D01*
X84369550Y-153885394D01*
X84534606Y-154050450D01*
X84728692Y-154180134D01*
X84944348Y-154269461D01*
X85173288Y-154315000D01*
X85406712Y-154315000D01*
X85635652Y-154269461D01*
X85851308Y-154180134D01*
X86045394Y-154050450D01*
X86210450Y-153885394D01*
X86340134Y-153691308D01*
X86429461Y-153475652D01*
X86475000Y-153246712D01*
X86475000Y-153013288D01*
X86645000Y-153013288D01*
X86645000Y-153246712D01*
X86690539Y-153475652D01*
X86779866Y-153691308D01*
X86909550Y-153885394D01*
X87074606Y-154050450D01*
X87268692Y-154180134D01*
X87484348Y-154269461D01*
X87713288Y-154315000D01*
X87946712Y-154315000D01*
X88175652Y-154269461D01*
X88391308Y-154180134D01*
X88585394Y-154050450D01*
X88750450Y-153885394D01*
X88880134Y-153691308D01*
X88945259Y-153534082D01*
X89025843Y-153761252D01*
X89174822Y-154011355D01*
X89369731Y-154227588D01*
X89603080Y-154401641D01*
X89865901Y-154526825D01*
X90013110Y-154571476D01*
X90243000Y-154450155D01*
X90243000Y-153257000D01*
X90223000Y-153257000D01*
X90223000Y-153003000D01*
X90243000Y-153003000D01*
X90243000Y-151809845D01*
X90497000Y-151809845D01*
X90497000Y-153003000D01*
X90517000Y-153003000D01*
X90517000Y-153257000D01*
X90497000Y-153257000D01*
X90497000Y-154450155D01*
X90726890Y-154571476D01*
X90874099Y-154526825D01*
X91136920Y-154401641D01*
X91370269Y-154227588D01*
X91565178Y-154011355D01*
X91714157Y-153761252D01*
X91794741Y-153534082D01*
X91859866Y-153691308D01*
X91989550Y-153885394D01*
X92154606Y-154050450D01*
X92348692Y-154180134D01*
X92564348Y-154269461D01*
X92793288Y-154315000D01*
X93026712Y-154315000D01*
X93255652Y-154269461D01*
X93471308Y-154180134D01*
X93665394Y-154050450D01*
X93830450Y-153885394D01*
X93960134Y-153691308D01*
X94049461Y-153475652D01*
X94095000Y-153246712D01*
X94095000Y-153013288D01*
X94265000Y-153013288D01*
X94265000Y-153246712D01*
X94310539Y-153475652D01*
X94399866Y-153691308D01*
X94529550Y-153885394D01*
X94694606Y-154050450D01*
X94888692Y-154180134D01*
X95104348Y-154269461D01*
X95333288Y-154315000D01*
X95566712Y-154315000D01*
X95795652Y-154269461D01*
X96011308Y-154180134D01*
X96205394Y-154050450D01*
X96370450Y-153885394D01*
X96500134Y-153691308D01*
X96589461Y-153475652D01*
X96635000Y-153246712D01*
X96635000Y-153013288D01*
X96589461Y-152784348D01*
X96500134Y-152568692D01*
X96370450Y-152374606D01*
X96205394Y-152209550D01*
X96011308Y-152079866D01*
X95795652Y-151990539D01*
X95566712Y-151945000D01*
X95333288Y-151945000D01*
X95104348Y-151990539D01*
X94888692Y-152079866D01*
X94694606Y-152209550D01*
X94529550Y-152374606D01*
X94399866Y-152568692D01*
X94310539Y-152784348D01*
X94265000Y-153013288D01*
X94095000Y-153013288D01*
X94049461Y-152784348D01*
X93960134Y-152568692D01*
X93830450Y-152374606D01*
X93665394Y-152209550D01*
X93471308Y-152079866D01*
X93255652Y-151990539D01*
X93026712Y-151945000D01*
X92793288Y-151945000D01*
X92564348Y-151990539D01*
X92348692Y-152079866D01*
X92154606Y-152209550D01*
X91989550Y-152374606D01*
X91859866Y-152568692D01*
X91794741Y-152725918D01*
X91714157Y-152498748D01*
X91565178Y-152248645D01*
X91370269Y-152032412D01*
X91136920Y-151858359D01*
X90874099Y-151733175D01*
X90726890Y-151688524D01*
X90497000Y-151809845D01*
X90243000Y-151809845D01*
X90013110Y-151688524D01*
X89865901Y-151733175D01*
X89603080Y-151858359D01*
X89369731Y-152032412D01*
X89174822Y-152248645D01*
X89025843Y-152498748D01*
X88945259Y-152725918D01*
X88880134Y-152568692D01*
X88750450Y-152374606D01*
X88585394Y-152209550D01*
X88391308Y-152079866D01*
X88175652Y-151990539D01*
X87946712Y-151945000D01*
X87713288Y-151945000D01*
X87484348Y-151990539D01*
X87268692Y-152079866D01*
X87074606Y-152209550D01*
X86909550Y-152374606D01*
X86779866Y-152568692D01*
X86690539Y-152784348D01*
X86645000Y-153013288D01*
X86475000Y-153013288D01*
X86429461Y-152784348D01*
X86340134Y-152568692D01*
X86210450Y-152374606D01*
X86045394Y-152209550D01*
X85851308Y-152079866D01*
X85635652Y-151990539D01*
X85406712Y-151945000D01*
X85173288Y-151945000D01*
X84944348Y-151990539D01*
X84728692Y-152079866D01*
X84534606Y-152209550D01*
X84369550Y-152374606D01*
X84239866Y-152568692D01*
X84150539Y-152784348D01*
X84105000Y-153013288D01*
X83935000Y-153013288D01*
X83889461Y-152784348D01*
X83800134Y-152568692D01*
X83670450Y-152374606D01*
X83505394Y-152209550D01*
X83311308Y-152079866D01*
X83095652Y-151990539D01*
X82866712Y-151945000D01*
X82633288Y-151945000D01*
X82404348Y-151990539D01*
X82188692Y-152079866D01*
X81994606Y-152209550D01*
X81829550Y-152374606D01*
X81699866Y-152568692D01*
X81610539Y-152784348D01*
X81565000Y-153013288D01*
X81396620Y-153013288D01*
X81396620Y-152280000D01*
X81390152Y-152214329D01*
X81370996Y-152151181D01*
X81339889Y-152092984D01*
X81298026Y-152041974D01*
X81247016Y-152000111D01*
X81188819Y-151969004D01*
X81125671Y-151949848D01*
X81060000Y-151943380D01*
X79360000Y-151943380D01*
X79294329Y-151949848D01*
X79231181Y-151969004D01*
X79172984Y-152000111D01*
X79121974Y-152041974D01*
X79080111Y-152092984D01*
X79049004Y-152151181D01*
X79029848Y-152214329D01*
X79023380Y-152280000D01*
X50410000Y-152280000D01*
X50410000Y-146230324D01*
X51595000Y-146230324D01*
X51595000Y-146729676D01*
X51692418Y-147219432D01*
X51883512Y-147680773D01*
X52160937Y-148095968D01*
X52514032Y-148449063D01*
X52929227Y-148726488D01*
X53390568Y-148917582D01*
X53880324Y-149015000D01*
X54379676Y-149015000D01*
X54869432Y-148917582D01*
X55330773Y-148726488D01*
X55745968Y-148449063D01*
X56099063Y-148095968D01*
X56376488Y-147680773D01*
X56567582Y-147219432D01*
X56665000Y-146729676D01*
X56665000Y-146230324D01*
X56571962Y-145762587D01*
X56935000Y-145762587D01*
X56935000Y-146557413D01*
X57090062Y-147336966D01*
X57394229Y-148071289D01*
X57835811Y-148732163D01*
X58397837Y-149294189D01*
X59058711Y-149735771D01*
X59793034Y-150039938D01*
X60572587Y-150195000D01*
X61367413Y-150195000D01*
X62146966Y-150039938D01*
X62881289Y-149735771D01*
X63542163Y-149294189D01*
X64104189Y-148732163D01*
X64545771Y-148071289D01*
X64849938Y-147336966D01*
X65005000Y-146557413D01*
X65005000Y-145831531D01*
X111785000Y-145831531D01*
X111785000Y-146488469D01*
X111913162Y-147132784D01*
X112164561Y-147739715D01*
X112529536Y-148285939D01*
X112994061Y-148750464D01*
X113540285Y-149115439D01*
X114147216Y-149366838D01*
X114791531Y-149495000D01*
X115448469Y-149495000D01*
X116092784Y-149366838D01*
X116699715Y-149115439D01*
X117245939Y-148750464D01*
X117710464Y-148285939D01*
X118075439Y-147739715D01*
X118326838Y-147132784D01*
X118455000Y-146488469D01*
X118455000Y-146250023D01*
X118535000Y-146250023D01*
X118535000Y-146709977D01*
X118624733Y-147161094D01*
X118800750Y-147586037D01*
X119056287Y-147968476D01*
X119381524Y-148293713D01*
X119763963Y-148549250D01*
X120188906Y-148725267D01*
X120640023Y-148815000D01*
X121099977Y-148815000D01*
X121551094Y-148725267D01*
X121976037Y-148549250D01*
X122358476Y-148293713D01*
X122683713Y-147968476D01*
X122939250Y-147586037D01*
X123115267Y-147161094D01*
X123205000Y-146709977D01*
X123205000Y-146250023D01*
X123115267Y-145798906D01*
X122939250Y-145373963D01*
X122683713Y-144991524D01*
X122358476Y-144666287D01*
X121976037Y-144410750D01*
X121551094Y-144234733D01*
X121099977Y-144145000D01*
X120640023Y-144145000D01*
X120188906Y-144234733D01*
X119763963Y-144410750D01*
X119381524Y-144666287D01*
X119056287Y-144991524D01*
X118800750Y-145373963D01*
X118624733Y-145798906D01*
X118535000Y-146250023D01*
X118455000Y-146250023D01*
X118455000Y-145831531D01*
X118326838Y-145187216D01*
X118075439Y-144580285D01*
X117710464Y-144034061D01*
X117245939Y-143569536D01*
X116699715Y-143204561D01*
X116092784Y-142953162D01*
X115448469Y-142825000D01*
X114791531Y-142825000D01*
X114147216Y-142953162D01*
X113540285Y-143204561D01*
X112994061Y-143569536D01*
X112529536Y-144034061D01*
X112164561Y-144580285D01*
X111913162Y-145187216D01*
X111785000Y-145831531D01*
X65005000Y-145831531D01*
X65005000Y-145762587D01*
X64849938Y-144983034D01*
X64545771Y-144248711D01*
X64104189Y-143587837D01*
X63542163Y-143025811D01*
X62881289Y-142584229D01*
X62146966Y-142280062D01*
X61367413Y-142125000D01*
X60572587Y-142125000D01*
X59793034Y-142280062D01*
X59058711Y-142584229D01*
X58397837Y-143025811D01*
X57835811Y-143587837D01*
X57394229Y-144248711D01*
X57090062Y-144983034D01*
X56935000Y-145762587D01*
X56571962Y-145762587D01*
X56567582Y-145740568D01*
X56376488Y-145279227D01*
X56099063Y-144864032D01*
X55745968Y-144510937D01*
X55330773Y-144233512D01*
X54869432Y-144042418D01*
X54379676Y-143945000D01*
X53880324Y-143945000D01*
X53390568Y-144042418D01*
X52929227Y-144233512D01*
X52514032Y-144510937D01*
X52160937Y-144864032D01*
X51883512Y-145279227D01*
X51692418Y-145740568D01*
X51595000Y-146230324D01*
X50410000Y-146230324D01*
X50410000Y-139787760D01*
X64615000Y-139787760D01*
X64615000Y-139952240D01*
X64647089Y-140113560D01*
X64710033Y-140265521D01*
X64801413Y-140402281D01*
X64917719Y-140518587D01*
X65054479Y-140609967D01*
X65206440Y-140672911D01*
X65367760Y-140705000D01*
X65532240Y-140705000D01*
X65693560Y-140672911D01*
X65765577Y-140643081D01*
X65686696Y-140833517D01*
X65645000Y-141043137D01*
X65645000Y-141256863D01*
X65686696Y-141466483D01*
X65765577Y-141656919D01*
X65693560Y-141627089D01*
X65532240Y-141595000D01*
X65367760Y-141595000D01*
X65206440Y-141627089D01*
X65054479Y-141690033D01*
X64917719Y-141781413D01*
X64801413Y-141897719D01*
X64710033Y-142034479D01*
X64647089Y-142186440D01*
X64615000Y-142347760D01*
X64615000Y-142512240D01*
X64647089Y-142673560D01*
X64710033Y-142825521D01*
X64801413Y-142962281D01*
X64917719Y-143078587D01*
X65054479Y-143169967D01*
X65206440Y-143232911D01*
X65367760Y-143265000D01*
X65532240Y-143265000D01*
X65693560Y-143232911D01*
X65845521Y-143169967D01*
X65982281Y-143078587D01*
X66098587Y-142962281D01*
X66189967Y-142825521D01*
X66252911Y-142673560D01*
X66285000Y-142512240D01*
X66285000Y-142347760D01*
X66252911Y-142186440D01*
X66223081Y-142114423D01*
X66413517Y-142193304D01*
X66623137Y-142235000D01*
X66836863Y-142235000D01*
X67046483Y-142193304D01*
X67236919Y-142114423D01*
X67207089Y-142186440D01*
X67175000Y-142347760D01*
X67175000Y-142512240D01*
X67207089Y-142673560D01*
X67270033Y-142825521D01*
X67361413Y-142962281D01*
X67477719Y-143078587D01*
X67614479Y-143169967D01*
X67766440Y-143232911D01*
X67927760Y-143265000D01*
X68092240Y-143265000D01*
X68253560Y-143232911D01*
X68405521Y-143169967D01*
X68542281Y-143078587D01*
X68658587Y-142962281D01*
X68749967Y-142825521D01*
X68812911Y-142673560D01*
X68845000Y-142512240D01*
X68845000Y-142347760D01*
X68812911Y-142186440D01*
X68749967Y-142034479D01*
X68658587Y-141897719D01*
X68542281Y-141781413D01*
X68405521Y-141690033D01*
X68253560Y-141627089D01*
X68092240Y-141595000D01*
X67927760Y-141595000D01*
X67766440Y-141627089D01*
X67694423Y-141656919D01*
X67773304Y-141466483D01*
X67815000Y-141256863D01*
X67815000Y-141043137D01*
X67773304Y-140833517D01*
X67694423Y-140643081D01*
X67766440Y-140672911D01*
X67927760Y-140705000D01*
X68092240Y-140705000D01*
X68253560Y-140672911D01*
X68405521Y-140609967D01*
X68542281Y-140518587D01*
X68658587Y-140402281D01*
X68749967Y-140265521D01*
X68812911Y-140113560D01*
X68845000Y-139952240D01*
X68845000Y-139787760D01*
X68812911Y-139626440D01*
X68749967Y-139474479D01*
X68658587Y-139337719D01*
X68542281Y-139221413D01*
X68405521Y-139130033D01*
X68253560Y-139067089D01*
X68092240Y-139035000D01*
X67927760Y-139035000D01*
X67766440Y-139067089D01*
X67614479Y-139130033D01*
X67477719Y-139221413D01*
X67361413Y-139337719D01*
X67270033Y-139474479D01*
X67207089Y-139626440D01*
X67175000Y-139787760D01*
X67175000Y-139952240D01*
X67207089Y-140113560D01*
X67236919Y-140185577D01*
X67046483Y-140106696D01*
X66836863Y-140065000D01*
X66623137Y-140065000D01*
X66413517Y-140106696D01*
X66223081Y-140185577D01*
X66252911Y-140113560D01*
X66285000Y-139952240D01*
X66285000Y-139787760D01*
X66252911Y-139626440D01*
X66189967Y-139474479D01*
X66098587Y-139337719D01*
X65982281Y-139221413D01*
X65845521Y-139130033D01*
X65693560Y-139067089D01*
X65532240Y-139035000D01*
X65367760Y-139035000D01*
X65206440Y-139067089D01*
X65054479Y-139130033D01*
X64917719Y-139221413D01*
X64801413Y-139337719D01*
X64710033Y-139474479D01*
X64647089Y-139626440D01*
X64615000Y-139787760D01*
X50410000Y-139787760D01*
X50410000Y-133911955D01*
X64508800Y-133911955D01*
X64508800Y-134128045D01*
X64550957Y-134339983D01*
X64633651Y-134539624D01*
X64753704Y-134719297D01*
X64906503Y-134872096D01*
X65086176Y-134992149D01*
X65285817Y-135074843D01*
X65497755Y-135117000D01*
X65713845Y-135117000D01*
X65925783Y-135074843D01*
X66125424Y-134992149D01*
X66305097Y-134872096D01*
X66457896Y-134719297D01*
X66577949Y-134539624D01*
X66660643Y-134339983D01*
X66702800Y-134128045D01*
X66702800Y-133911955D01*
X108857200Y-133911955D01*
X108857200Y-134128045D01*
X108899357Y-134339983D01*
X108982051Y-134539624D01*
X109102104Y-134719297D01*
X109254903Y-134872096D01*
X109434576Y-134992149D01*
X109634217Y-135074843D01*
X109846155Y-135117000D01*
X110062245Y-135117000D01*
X110274183Y-135074843D01*
X110473824Y-134992149D01*
X110653497Y-134872096D01*
X110806296Y-134719297D01*
X110926349Y-134539624D01*
X111009043Y-134339983D01*
X111051200Y-134128045D01*
X111051200Y-133911955D01*
X111009043Y-133700017D01*
X110926349Y-133500376D01*
X110806296Y-133320703D01*
X110653497Y-133167904D01*
X110473824Y-133047851D01*
X110274183Y-132965157D01*
X110062245Y-132923000D01*
X109846155Y-132923000D01*
X109634217Y-132965157D01*
X109434576Y-133047851D01*
X109254903Y-133167904D01*
X109102104Y-133320703D01*
X108982051Y-133500376D01*
X108899357Y-133700017D01*
X108857200Y-133911955D01*
X66702800Y-133911955D01*
X66660643Y-133700017D01*
X66577949Y-133500376D01*
X66457896Y-133320703D01*
X66305097Y-133167904D01*
X66125424Y-133047851D01*
X65925783Y-132965157D01*
X65713845Y-132923000D01*
X65497755Y-132923000D01*
X65285817Y-132965157D01*
X65086176Y-133047851D01*
X64906503Y-133167904D01*
X64753704Y-133320703D01*
X64633651Y-133500376D01*
X64550957Y-133700017D01*
X64508800Y-133911955D01*
X50410000Y-133911955D01*
X50410000Y-126649494D01*
X76977200Y-126649494D01*
X76977200Y-126750506D01*
X76996907Y-126849578D01*
X77035563Y-126942902D01*
X77091682Y-127026891D01*
X77163109Y-127098318D01*
X77247098Y-127154437D01*
X77340422Y-127193093D01*
X77439494Y-127212800D01*
X77540506Y-127212800D01*
X77639578Y-127193093D01*
X77732902Y-127154437D01*
X77816891Y-127098318D01*
X77888318Y-127026891D01*
X77944437Y-126942902D01*
X77983093Y-126849578D01*
X78002800Y-126750506D01*
X78002800Y-126649494D01*
X77983093Y-126550422D01*
X77944437Y-126457098D01*
X77888318Y-126373109D01*
X77816891Y-126301682D01*
X77732902Y-126245563D01*
X77639578Y-126206907D01*
X77540506Y-126187200D01*
X77439494Y-126187200D01*
X77340422Y-126206907D01*
X77247098Y-126245563D01*
X77163109Y-126301682D01*
X77091682Y-126373109D01*
X77035563Y-126457098D01*
X76996907Y-126550422D01*
X76977200Y-126649494D01*
X50410000Y-126649494D01*
X50410000Y-122661155D01*
X64718000Y-122661155D01*
X64718000Y-122877245D01*
X64760157Y-123089183D01*
X64842851Y-123288824D01*
X64962904Y-123468497D01*
X65115703Y-123621296D01*
X65295376Y-123741349D01*
X65495017Y-123824043D01*
X65706955Y-123866200D01*
X65923045Y-123866200D01*
X66134983Y-123824043D01*
X66334624Y-123741349D01*
X66514297Y-123621296D01*
X66667096Y-123468497D01*
X66787149Y-123288824D01*
X66869843Y-123089183D01*
X66912000Y-122877245D01*
X66912000Y-122661155D01*
X109368000Y-122661155D01*
X109368000Y-122877245D01*
X109410157Y-123089183D01*
X109492851Y-123288824D01*
X109612904Y-123468497D01*
X109765703Y-123621296D01*
X109945376Y-123741349D01*
X110145017Y-123824043D01*
X110356955Y-123866200D01*
X110573045Y-123866200D01*
X110784983Y-123824043D01*
X110984624Y-123741349D01*
X111164297Y-123621296D01*
X111317096Y-123468497D01*
X111437149Y-123288824D01*
X111519843Y-123089183D01*
X111562000Y-122877245D01*
X111562000Y-122661155D01*
X111519843Y-122449217D01*
X111437149Y-122249576D01*
X111317096Y-122069903D01*
X111164297Y-121917104D01*
X110984624Y-121797051D01*
X110784983Y-121714357D01*
X110573045Y-121672200D01*
X110356955Y-121672200D01*
X110145017Y-121714357D01*
X109945376Y-121797051D01*
X109765703Y-121917104D01*
X109612904Y-122069903D01*
X109492851Y-122249576D01*
X109410157Y-122449217D01*
X109368000Y-122661155D01*
X66912000Y-122661155D01*
X66869843Y-122449217D01*
X66787149Y-122249576D01*
X66667096Y-122069903D01*
X66514297Y-121917104D01*
X66334624Y-121797051D01*
X66134983Y-121714357D01*
X65923045Y-121672200D01*
X65706955Y-121672200D01*
X65495017Y-121714357D01*
X65295376Y-121797051D01*
X65115703Y-121917104D01*
X64962904Y-122069903D01*
X64842851Y-122249576D01*
X64760157Y-122449217D01*
X64718000Y-122661155D01*
X50410000Y-122661155D01*
X50410000Y-113859494D01*
X92847200Y-113859494D01*
X92847200Y-113960506D01*
X92866907Y-114059578D01*
X92905563Y-114152902D01*
X92961682Y-114236891D01*
X93033109Y-114308318D01*
X93117098Y-114364437D01*
X93210422Y-114403093D01*
X93309494Y-114422800D01*
X93410506Y-114422800D01*
X93509578Y-114403093D01*
X93602902Y-114364437D01*
X93686891Y-114308318D01*
X93758318Y-114236891D01*
X93814437Y-114152902D01*
X93853093Y-114059578D01*
X93872800Y-113960506D01*
X93872800Y-113859494D01*
X93853093Y-113760422D01*
X93814437Y-113667098D01*
X93758318Y-113583109D01*
X93686891Y-113511682D01*
X93602902Y-113455563D01*
X93509578Y-113416907D01*
X93410506Y-113397200D01*
X93309494Y-113397200D01*
X93210422Y-113416907D01*
X93117098Y-113455563D01*
X93033109Y-113511682D01*
X92961682Y-113583109D01*
X92905563Y-113667098D01*
X92866907Y-113760422D01*
X92847200Y-113859494D01*
X50410000Y-113859494D01*
X50410000Y-110627915D01*
X53947300Y-110627915D01*
X53947300Y-110773485D01*
X53975699Y-110916258D01*
X54031406Y-111050748D01*
X54103003Y-111157900D01*
X54031406Y-111265052D01*
X53975699Y-111399542D01*
X53947300Y-111542315D01*
X53947300Y-111687885D01*
X53975699Y-111830658D01*
X54031406Y-111965148D01*
X54112281Y-112086185D01*
X54215215Y-112189119D01*
X54336252Y-112269994D01*
X54470742Y-112325701D01*
X54613515Y-112354100D01*
X54759085Y-112354100D01*
X54901858Y-112325701D01*
X55036348Y-112269994D01*
X55157385Y-112189119D01*
X55260319Y-112086185D01*
X55341194Y-111965148D01*
X55396901Y-111830658D01*
X55425300Y-111687885D01*
X55425300Y-111542315D01*
X55396901Y-111399542D01*
X55341194Y-111265052D01*
X55269597Y-111157900D01*
X55341194Y-111050748D01*
X55396901Y-110916258D01*
X55425300Y-110773485D01*
X55425300Y-110627915D01*
X55396901Y-110485142D01*
X55341194Y-110350652D01*
X55260319Y-110229615D01*
X55157385Y-110126681D01*
X55036348Y-110045806D01*
X54901858Y-109990099D01*
X54759085Y-109961700D01*
X54613515Y-109961700D01*
X54470742Y-109990099D01*
X54336252Y-110045806D01*
X54215215Y-110126681D01*
X54112281Y-110229615D01*
X54031406Y-110350652D01*
X53975699Y-110485142D01*
X53947300Y-110627915D01*
X50410000Y-110627915D01*
X50410000Y-108545115D01*
X59789300Y-108545115D01*
X59789300Y-108690685D01*
X59817699Y-108833458D01*
X59873406Y-108967948D01*
X59945003Y-109075100D01*
X59873406Y-109182252D01*
X59817699Y-109316742D01*
X59789300Y-109459515D01*
X59789300Y-109605085D01*
X59817699Y-109747858D01*
X59873406Y-109882348D01*
X59954281Y-110003385D01*
X60057215Y-110106319D01*
X60178252Y-110187194D01*
X60312742Y-110242901D01*
X60455515Y-110271300D01*
X60601085Y-110271300D01*
X60743858Y-110242901D01*
X60878348Y-110187194D01*
X60999385Y-110106319D01*
X61102319Y-110003385D01*
X61183194Y-109882348D01*
X61238901Y-109747858D01*
X61267300Y-109605085D01*
X61267300Y-109459515D01*
X61238901Y-109316742D01*
X61183194Y-109182252D01*
X61111597Y-109075100D01*
X61183194Y-108967948D01*
X61238901Y-108833458D01*
X61267300Y-108690685D01*
X61267300Y-108545115D01*
X61238901Y-108402342D01*
X61183194Y-108267852D01*
X61102319Y-108146815D01*
X60999385Y-108043881D01*
X60878348Y-107963006D01*
X60743858Y-107907299D01*
X60601085Y-107878900D01*
X60455515Y-107878900D01*
X60312742Y-107907299D01*
X60178252Y-107963006D01*
X60057215Y-108043881D01*
X59954281Y-108146815D01*
X59873406Y-108267852D01*
X59817699Y-108402342D01*
X59789300Y-108545115D01*
X50410000Y-108545115D01*
X50410000Y-100310324D01*
X51595000Y-100310324D01*
X51595000Y-100809676D01*
X51692418Y-101299432D01*
X51883512Y-101760773D01*
X52160937Y-102175968D01*
X52514032Y-102529063D01*
X52929227Y-102806488D01*
X53390568Y-102997582D01*
X53880324Y-103095000D01*
X54379676Y-103095000D01*
X54869432Y-102997582D01*
X55330773Y-102806488D01*
X55745968Y-102529063D01*
X56099063Y-102175968D01*
X56376488Y-101760773D01*
X56567582Y-101299432D01*
X56665000Y-100809676D01*
X56665000Y-100310324D01*
X118335000Y-100310324D01*
X118335000Y-100809676D01*
X118432418Y-101299432D01*
X118623512Y-101760773D01*
X118900937Y-102175968D01*
X119254032Y-102529063D01*
X119669227Y-102806488D01*
X120130568Y-102997582D01*
X120620324Y-103095000D01*
X121119676Y-103095000D01*
X121609432Y-102997582D01*
X122070773Y-102806488D01*
X122485968Y-102529063D01*
X122839063Y-102175968D01*
X123116488Y-101760773D01*
X123307582Y-101299432D01*
X123405000Y-100809676D01*
X123405000Y-100310324D01*
X123307582Y-99820568D01*
X123116488Y-99359227D01*
X122839063Y-98944032D01*
X122485968Y-98590937D01*
X122070773Y-98313512D01*
X121609432Y-98122418D01*
X121119676Y-98025000D01*
X120620324Y-98025000D01*
X120130568Y-98122418D01*
X119669227Y-98313512D01*
X119254032Y-98590937D01*
X118900937Y-98944032D01*
X118623512Y-99359227D01*
X118432418Y-99820568D01*
X118335000Y-100310324D01*
X56665000Y-100310324D01*
X56567582Y-99820568D01*
X56376488Y-99359227D01*
X56099063Y-98944032D01*
X55745968Y-98590937D01*
X55330773Y-98313512D01*
X54869432Y-98122418D01*
X54379676Y-98025000D01*
X53880324Y-98025000D01*
X53390568Y-98122418D01*
X52929227Y-98313512D01*
X52514032Y-98590937D01*
X52160937Y-98944032D01*
X51883512Y-99359227D01*
X51692418Y-99820568D01*
X51595000Y-100310324D01*
X50410000Y-100310324D01*
X50410000Y-81977760D01*
X88445000Y-81977760D01*
X88445000Y-82142240D01*
X88477089Y-82303560D01*
X88540033Y-82455521D01*
X88631413Y-82592281D01*
X88747719Y-82708587D01*
X88884479Y-82799967D01*
X89036440Y-82862911D01*
X89197760Y-82895000D01*
X89362240Y-82895000D01*
X89523560Y-82862911D01*
X89595577Y-82833081D01*
X89516696Y-83023517D01*
X89475000Y-83233137D01*
X89475000Y-83446863D01*
X89516696Y-83656483D01*
X89595577Y-83846919D01*
X89523560Y-83817089D01*
X89362240Y-83785000D01*
X89197760Y-83785000D01*
X89036440Y-83817089D01*
X88884479Y-83880033D01*
X88747719Y-83971413D01*
X88631413Y-84087719D01*
X88540033Y-84224479D01*
X88477089Y-84376440D01*
X88445000Y-84537760D01*
X88445000Y-84702240D01*
X88477089Y-84863560D01*
X88540033Y-85015521D01*
X88631413Y-85152281D01*
X88747719Y-85268587D01*
X88884479Y-85359967D01*
X89036440Y-85422911D01*
X89197760Y-85455000D01*
X89362240Y-85455000D01*
X89523560Y-85422911D01*
X89675521Y-85359967D01*
X89812281Y-85268587D01*
X89928587Y-85152281D01*
X90019967Y-85015521D01*
X90082911Y-84863560D01*
X90115000Y-84702240D01*
X90115000Y-84537760D01*
X90082911Y-84376440D01*
X90053081Y-84304423D01*
X90243517Y-84383304D01*
X90453137Y-84425000D01*
X90666863Y-84425000D01*
X90876483Y-84383304D01*
X91066919Y-84304423D01*
X91037089Y-84376440D01*
X91005000Y-84537760D01*
X91005000Y-84702240D01*
X91037089Y-84863560D01*
X91100033Y-85015521D01*
X91191413Y-85152281D01*
X91307719Y-85268587D01*
X91444479Y-85359967D01*
X91596440Y-85422911D01*
X91757760Y-85455000D01*
X91922240Y-85455000D01*
X92083560Y-85422911D01*
X92235521Y-85359967D01*
X92372281Y-85268587D01*
X92488587Y-85152281D01*
X92579967Y-85015521D01*
X92642911Y-84863560D01*
X92675000Y-84702240D01*
X92675000Y-84569494D01*
X94107200Y-84569494D01*
X94107200Y-84670506D01*
X94126907Y-84769578D01*
X94165563Y-84862902D01*
X94221682Y-84946891D01*
X94293109Y-85018318D01*
X94377098Y-85074437D01*
X94470422Y-85113093D01*
X94569494Y-85132800D01*
X94670506Y-85132800D01*
X94769578Y-85113093D01*
X94862902Y-85074437D01*
X94946891Y-85018318D01*
X95018318Y-84946891D01*
X95074437Y-84862902D01*
X95113093Y-84769578D01*
X95132800Y-84670506D01*
X95132800Y-84569494D01*
X95113093Y-84470422D01*
X95074437Y-84377098D01*
X95018318Y-84293109D01*
X94946891Y-84221682D01*
X94862902Y-84165563D01*
X94769578Y-84126907D01*
X94670506Y-84107200D01*
X94569494Y-84107200D01*
X94470422Y-84126907D01*
X94377098Y-84165563D01*
X94293109Y-84221682D01*
X94221682Y-84293109D01*
X94165563Y-84377098D01*
X94126907Y-84470422D01*
X94107200Y-84569494D01*
X92675000Y-84569494D01*
X92675000Y-84537760D01*
X92642911Y-84376440D01*
X92579967Y-84224479D01*
X92488587Y-84087719D01*
X92372281Y-83971413D01*
X92235521Y-83880033D01*
X92083560Y-83817089D01*
X91922240Y-83785000D01*
X91757760Y-83785000D01*
X91596440Y-83817089D01*
X91524423Y-83846919D01*
X91603304Y-83656483D01*
X91645000Y-83446863D01*
X91645000Y-83233137D01*
X91603304Y-83023517D01*
X91524423Y-82833081D01*
X91596440Y-82862911D01*
X91757760Y-82895000D01*
X91922240Y-82895000D01*
X92083560Y-82862911D01*
X92235521Y-82799967D01*
X92372281Y-82708587D01*
X92488587Y-82592281D01*
X92579967Y-82455521D01*
X92642911Y-82303560D01*
X92675000Y-82142240D01*
X92675000Y-81977760D01*
X92642911Y-81816440D01*
X92579967Y-81664479D01*
X92488587Y-81527719D01*
X92372281Y-81411413D01*
X92235521Y-81320033D01*
X92083560Y-81257089D01*
X91922240Y-81225000D01*
X91757760Y-81225000D01*
X91596440Y-81257089D01*
X91444479Y-81320033D01*
X91307719Y-81411413D01*
X91191413Y-81527719D01*
X91100033Y-81664479D01*
X91037089Y-81816440D01*
X91005000Y-81977760D01*
X91005000Y-82142240D01*
X91037089Y-82303560D01*
X91066919Y-82375577D01*
X90876483Y-82296696D01*
X90666863Y-82255000D01*
X90453137Y-82255000D01*
X90243517Y-82296696D01*
X90053081Y-82375577D01*
X90082911Y-82303560D01*
X90115000Y-82142240D01*
X90115000Y-81977760D01*
X90082911Y-81816440D01*
X90019967Y-81664479D01*
X89928587Y-81527719D01*
X89812281Y-81411413D01*
X89675521Y-81320033D01*
X89523560Y-81257089D01*
X89362240Y-81225000D01*
X89197760Y-81225000D01*
X89036440Y-81257089D01*
X88884479Y-81320033D01*
X88747719Y-81411413D01*
X88631413Y-81527719D01*
X88540033Y-81664479D01*
X88477089Y-81816440D01*
X88445000Y-81977760D01*
X50410000Y-81977760D01*
X50410000Y-78312755D01*
X64718000Y-78312755D01*
X64718000Y-78528845D01*
X64760157Y-78740783D01*
X64842851Y-78940424D01*
X64962904Y-79120097D01*
X65115703Y-79272896D01*
X65295376Y-79392949D01*
X65495017Y-79475643D01*
X65706955Y-79517800D01*
X65923045Y-79517800D01*
X66134983Y-79475643D01*
X66334624Y-79392949D01*
X66514297Y-79272896D01*
X66667096Y-79120097D01*
X66787149Y-78940424D01*
X66869843Y-78740783D01*
X66912000Y-78528845D01*
X66912000Y-78312755D01*
X109368000Y-78312755D01*
X109368000Y-78528845D01*
X109410157Y-78740783D01*
X109492851Y-78940424D01*
X109612904Y-79120097D01*
X109765703Y-79272896D01*
X109945376Y-79392949D01*
X110145017Y-79475643D01*
X110356955Y-79517800D01*
X110573045Y-79517800D01*
X110784983Y-79475643D01*
X110984624Y-79392949D01*
X111164297Y-79272896D01*
X111317096Y-79120097D01*
X111437149Y-78940424D01*
X111519843Y-78740783D01*
X111562000Y-78528845D01*
X111562000Y-78312755D01*
X111519843Y-78100817D01*
X111437149Y-77901176D01*
X111317096Y-77721503D01*
X111164297Y-77568704D01*
X110984624Y-77448651D01*
X110784983Y-77365957D01*
X110573045Y-77323800D01*
X110356955Y-77323800D01*
X110145017Y-77365957D01*
X109945376Y-77448651D01*
X109765703Y-77568704D01*
X109612904Y-77721503D01*
X109492851Y-77901176D01*
X109410157Y-78100817D01*
X109368000Y-78312755D01*
X66912000Y-78312755D01*
X66869843Y-78100817D01*
X66787149Y-77901176D01*
X66667096Y-77721503D01*
X66514297Y-77568704D01*
X66334624Y-77448651D01*
X66134983Y-77365957D01*
X65923045Y-77323800D01*
X65706955Y-77323800D01*
X65495017Y-77365957D01*
X65295376Y-77448651D01*
X65115703Y-77568704D01*
X64962904Y-77721503D01*
X64842851Y-77901176D01*
X64760157Y-78100817D01*
X64718000Y-78312755D01*
X50410000Y-78312755D01*
X50410000Y-60546955D01*
X64473800Y-60546955D01*
X64473800Y-60763045D01*
X64515957Y-60974983D01*
X64598651Y-61174624D01*
X64718704Y-61354297D01*
X64871503Y-61507096D01*
X65051176Y-61627149D01*
X65250817Y-61709843D01*
X65462755Y-61752000D01*
X65678845Y-61752000D01*
X65890783Y-61709843D01*
X66090424Y-61627149D01*
X66270097Y-61507096D01*
X66422896Y-61354297D01*
X66542949Y-61174624D01*
X66625643Y-60974983D01*
X66667800Y-60763045D01*
X66667800Y-60546955D01*
X108822200Y-60546955D01*
X108822200Y-60763045D01*
X108864357Y-60974983D01*
X108947051Y-61174624D01*
X109067104Y-61354297D01*
X109219903Y-61507096D01*
X109399576Y-61627149D01*
X109599217Y-61709843D01*
X109811155Y-61752000D01*
X110027245Y-61752000D01*
X110239183Y-61709843D01*
X110438824Y-61627149D01*
X110618497Y-61507096D01*
X110771296Y-61354297D01*
X110891349Y-61174624D01*
X110974043Y-60974983D01*
X111016200Y-60763045D01*
X111016200Y-60546955D01*
X110974043Y-60335017D01*
X110891349Y-60135376D01*
X110771296Y-59955703D01*
X110618497Y-59802904D01*
X110438824Y-59682851D01*
X110239183Y-59600157D01*
X110027245Y-59558000D01*
X109811155Y-59558000D01*
X109599217Y-59600157D01*
X109399576Y-59682851D01*
X109219903Y-59802904D01*
X109067104Y-59955703D01*
X108947051Y-60135376D01*
X108864357Y-60335017D01*
X108822200Y-60546955D01*
X66667800Y-60546955D01*
X66625643Y-60335017D01*
X66542949Y-60135376D01*
X66422896Y-59955703D01*
X66270097Y-59802904D01*
X66090424Y-59682851D01*
X65890783Y-59600157D01*
X65678845Y-59558000D01*
X65462755Y-59558000D01*
X65250817Y-59600157D01*
X65051176Y-59682851D01*
X64871503Y-59802904D01*
X64718704Y-59955703D01*
X64598651Y-60135376D01*
X64515957Y-60335017D01*
X64473800Y-60546955D01*
X50410000Y-60546955D01*
X50410000Y-54380324D01*
X51595000Y-54380324D01*
X51595000Y-54879676D01*
X51692418Y-55369432D01*
X51883512Y-55830773D01*
X52160937Y-56245968D01*
X52514032Y-56599063D01*
X52929227Y-56876488D01*
X53390568Y-57067582D01*
X53880324Y-57165000D01*
X54379676Y-57165000D01*
X54869432Y-57067582D01*
X55330773Y-56876488D01*
X55745968Y-56599063D01*
X56099063Y-56245968D01*
X56376488Y-55830773D01*
X56567582Y-55369432D01*
X56665000Y-54879676D01*
X56665000Y-54380324D01*
X56567582Y-53890568D01*
X56376488Y-53429227D01*
X56099063Y-53014032D01*
X55745968Y-52660937D01*
X55330773Y-52383512D01*
X54869432Y-52192418D01*
X54379676Y-52095000D01*
X53880324Y-52095000D01*
X53390568Y-52192418D01*
X52929227Y-52383512D01*
X52514032Y-52660937D01*
X52160937Y-53014032D01*
X51883512Y-53429227D01*
X51692418Y-53890568D01*
X51595000Y-54380324D01*
X50410000Y-54380324D01*
X50410000Y-50410000D01*
X59020142Y-50410000D01*
X58397837Y-50825811D01*
G37*
%TD.AperFunction*%
M02*
