M48
; DRILL file {KiCad (5.1.10-1-10_14)} date Wednesday, August 18, 2021 at 02:54:16 PM
; FORMAT={-:-/ absolute / inch / decimal}
; #@! TF.CreationDate,2021-08-18T14:54:16-05:00
; #@! TF.GenerationSoftware,Kicad,Pcbnew,(5.1.10-1-10_14)
FMAT,2
INCH
T1C0.0040
T2C0.0200
T3C0.0300
T4C0.0331
T5C0.0394
T6C0.0472
T7C0.0787
T8C0.1500
%
G90
G05
T1
X2.7961Y-3.5441
X2.8016Y-4.663
X3.0508Y-4.9882
X3.3758Y-2.3785
X3.6756Y-4.4846
X3.7252Y-3.3315
X4.15Y-3.5
T2
X2.153Y-4.3583
X2.153Y-4.3943
X2.383Y-4.2763
X2.383Y-4.3123
T3
X2.5829Y-5.2764
X2.5911Y-3.0874
X4.3275Y-2.388
X4.349Y-3.0874
T4
X2.5768Y-5.5067
X2.5768Y-5.6075
X2.6272Y-5.5571
X2.6776Y-5.5067
X2.6776Y-5.6075
X3.515Y-3.2307
X3.515Y-3.3315
X3.5654Y-3.2811
X3.6157Y-3.2307
X3.6157Y-3.3315
T5
X3.1579Y-6.0287
X3.2579Y-6.0287
X3.3579Y-6.0287
X3.4579Y-6.0287
X3.5579Y-6.0287
X3.6579Y-6.0287
X3.7579Y-6.0287
T6
X2.5815Y-2.388
X2.5911Y-4.8334
X4.3289Y-5.2764
X4.349Y-4.8334
T7
X2.1311Y-2.1508
X2.1311Y-3.9591
X2.1311Y-5.7669
X4.7587Y-2.1508
X4.7587Y-3.9591
X4.7587Y-5.7669
T8
X2.4004Y-2.1244
X2.4004Y-5.7543
X4.5323Y-2.1244
X4.5323Y-5.7543
T0
M30
