%TF.GenerationSoftware,KiCad,Pcbnew,(5.1.0)-1*%
%TF.CreationDate,2019-05-03T18:32:39-05:00*%
%TF.ProjectId,payload_board,7061796c-6f61-4645-9f62-6f6172642e6b,rev?*%
%TF.SameCoordinates,Original*%
%TF.FileFunction,Legend,Top*%
%TF.FilePolarity,Positive*%
%FSLAX46Y46*%
G04 Gerber Fmt 4.6, Leading zero omitted, Abs format (unit mm)*
G04 Created by KiCad (PCBNEW (5.1.0)-1) date 2019-05-03 18:32:39*
%MOMM*%
%LPD*%
G04 APERTURE LIST*
%ADD10C,0.125000*%
%ADD11C,0.250000*%
%ADD12C,0.150000*%
%ADD13C,0.300000*%
%ADD14C,0.120000*%
%ADD15C,0.100000*%
%ADD16C,0.010000*%
G04 APERTURE END LIST*
D10*
X63910952Y-152344285D02*
X64077619Y-152344285D01*
X64149047Y-152606190D02*
X63910952Y-152606190D01*
X63910952Y-152106190D01*
X64149047Y-152106190D01*
X64363333Y-152606190D02*
X64363333Y-152106190D01*
X64649047Y-152606190D01*
X64649047Y-152106190D01*
X65713333Y-155596190D02*
X65713333Y-156000952D01*
X65737142Y-156048571D01*
X65760952Y-156072380D01*
X65808571Y-156096190D01*
X65903809Y-156096190D01*
X65951428Y-156072380D01*
X65975238Y-156048571D01*
X65999047Y-156000952D01*
X65999047Y-155596190D01*
X66213333Y-155953333D02*
X66451428Y-155953333D01*
X66165714Y-156096190D02*
X66332380Y-155596190D01*
X66499047Y-156096190D01*
X66951428Y-156096190D02*
X66784761Y-155858095D01*
X66665714Y-156096190D02*
X66665714Y-155596190D01*
X66856190Y-155596190D01*
X66903809Y-155620000D01*
X66927619Y-155643809D01*
X66951428Y-155691428D01*
X66951428Y-155762857D01*
X66927619Y-155810476D01*
X66903809Y-155834285D01*
X66856190Y-155858095D01*
X66665714Y-155858095D01*
X67094285Y-155596190D02*
X67380000Y-155596190D01*
X67237142Y-156096190D02*
X67237142Y-155596190D01*
X67427619Y-156143809D02*
X67808571Y-156143809D01*
X67856190Y-155596190D02*
X68141904Y-155596190D01*
X67999047Y-156096190D02*
X67999047Y-155596190D01*
X68260952Y-155596190D02*
X68594285Y-156096190D01*
X68594285Y-155596190D02*
X68260952Y-156096190D01*
X69053809Y-152296190D02*
X69053809Y-152700952D01*
X69077619Y-152748571D01*
X69101428Y-152772380D01*
X69149047Y-152796190D01*
X69244285Y-152796190D01*
X69291904Y-152772380D01*
X69315714Y-152748571D01*
X69339523Y-152700952D01*
X69339523Y-152296190D01*
X69553809Y-152653333D02*
X69791904Y-152653333D01*
X69506190Y-152796190D02*
X69672857Y-152296190D01*
X69839523Y-152796190D01*
X70291904Y-152796190D02*
X70125238Y-152558095D01*
X70006190Y-152796190D02*
X70006190Y-152296190D01*
X70196666Y-152296190D01*
X70244285Y-152320000D01*
X70268095Y-152343809D01*
X70291904Y-152391428D01*
X70291904Y-152462857D01*
X70268095Y-152510476D01*
X70244285Y-152534285D01*
X70196666Y-152558095D01*
X70006190Y-152558095D01*
X70434761Y-152296190D02*
X70720476Y-152296190D01*
X70577619Y-152796190D02*
X70577619Y-152296190D01*
X70768095Y-152843809D02*
X71149047Y-152843809D01*
X71553809Y-152796190D02*
X71387142Y-152558095D01*
X71268095Y-152796190D02*
X71268095Y-152296190D01*
X71458571Y-152296190D01*
X71506190Y-152320000D01*
X71530000Y-152343809D01*
X71553809Y-152391428D01*
X71553809Y-152462857D01*
X71530000Y-152510476D01*
X71506190Y-152534285D01*
X71458571Y-152558095D01*
X71268095Y-152558095D01*
X71720476Y-152296190D02*
X72053809Y-152796190D01*
X72053809Y-152296190D02*
X71720476Y-152796190D01*
X87239047Y-151670000D02*
X87191428Y-151646190D01*
X87120000Y-151646190D01*
X87048571Y-151670000D01*
X87000952Y-151717619D01*
X86977142Y-151765238D01*
X86953333Y-151860476D01*
X86953333Y-151931904D01*
X86977142Y-152027142D01*
X87000952Y-152074761D01*
X87048571Y-152122380D01*
X87120000Y-152146190D01*
X87167619Y-152146190D01*
X87239047Y-152122380D01*
X87262857Y-152098571D01*
X87262857Y-151931904D01*
X87167619Y-151931904D01*
X87477142Y-152146190D02*
X87477142Y-151646190D01*
X87762857Y-152146190D01*
X87762857Y-151646190D01*
X88000952Y-152146190D02*
X88000952Y-151646190D01*
X88120000Y-151646190D01*
X88191428Y-151670000D01*
X88239047Y-151717619D01*
X88262857Y-151765238D01*
X88286666Y-151860476D01*
X88286666Y-151931904D01*
X88262857Y-152027142D01*
X88239047Y-152074761D01*
X88191428Y-152122380D01*
X88120000Y-152146190D01*
X88000952Y-152146190D01*
X84840952Y-151914285D02*
X85007619Y-151914285D01*
X85079047Y-152176190D02*
X84840952Y-152176190D01*
X84840952Y-151676190D01*
X85079047Y-151676190D01*
X85293333Y-152176190D02*
X85293333Y-151676190D01*
X85579047Y-152176190D01*
X85579047Y-151676190D01*
X76983333Y-152086190D02*
X76983333Y-151586190D01*
X77173809Y-151586190D01*
X77221428Y-151610000D01*
X77245238Y-151633809D01*
X77269047Y-151681428D01*
X77269047Y-151752857D01*
X77245238Y-151800476D01*
X77221428Y-151824285D01*
X77173809Y-151848095D01*
X76983333Y-151848095D01*
X77435714Y-151586190D02*
X77554761Y-152086190D01*
X77650000Y-151729047D01*
X77745238Y-152086190D01*
X77864285Y-151586190D01*
X78340476Y-152086190D02*
X78173809Y-151848095D01*
X78054761Y-152086190D02*
X78054761Y-151586190D01*
X78245238Y-151586190D01*
X78292857Y-151610000D01*
X78316666Y-151633809D01*
X78340476Y-151681428D01*
X78340476Y-151752857D01*
X78316666Y-151800476D01*
X78292857Y-151824285D01*
X78245238Y-151848095D01*
X78054761Y-151848095D01*
X78653809Y-150456190D02*
X78653809Y-150860952D01*
X78677619Y-150908571D01*
X78701428Y-150932380D01*
X78749047Y-150956190D01*
X78844285Y-150956190D01*
X78891904Y-150932380D01*
X78915714Y-150908571D01*
X78939523Y-150860952D01*
X78939523Y-150456190D01*
X79153809Y-150813333D02*
X79391904Y-150813333D01*
X79106190Y-150956190D02*
X79272857Y-150456190D01*
X79439523Y-150956190D01*
X79891904Y-150956190D02*
X79725238Y-150718095D01*
X79606190Y-150956190D02*
X79606190Y-150456190D01*
X79796666Y-150456190D01*
X79844285Y-150480000D01*
X79868095Y-150503809D01*
X79891904Y-150551428D01*
X79891904Y-150622857D01*
X79868095Y-150670476D01*
X79844285Y-150694285D01*
X79796666Y-150718095D01*
X79606190Y-150718095D01*
X80034761Y-150456190D02*
X80320476Y-150456190D01*
X80177619Y-150956190D02*
X80177619Y-150456190D01*
X80368095Y-151003809D02*
X80749047Y-151003809D01*
X81153809Y-150956190D02*
X80987142Y-150718095D01*
X80868095Y-150956190D02*
X80868095Y-150456190D01*
X81058571Y-150456190D01*
X81106190Y-150480000D01*
X81130000Y-150503809D01*
X81153809Y-150551428D01*
X81153809Y-150622857D01*
X81130000Y-150670476D01*
X81106190Y-150694285D01*
X81058571Y-150718095D01*
X80868095Y-150718095D01*
X81320476Y-150456190D02*
X81653809Y-150956190D01*
X81653809Y-150456190D02*
X81320476Y-150956190D01*
X81303333Y-151376190D02*
X81303333Y-151780952D01*
X81327142Y-151828571D01*
X81350952Y-151852380D01*
X81398571Y-151876190D01*
X81493809Y-151876190D01*
X81541428Y-151852380D01*
X81565238Y-151828571D01*
X81589047Y-151780952D01*
X81589047Y-151376190D01*
X81803333Y-151733333D02*
X82041428Y-151733333D01*
X81755714Y-151876190D02*
X81922380Y-151376190D01*
X82089047Y-151876190D01*
X82541428Y-151876190D02*
X82374761Y-151638095D01*
X82255714Y-151876190D02*
X82255714Y-151376190D01*
X82446190Y-151376190D01*
X82493809Y-151400000D01*
X82517619Y-151423809D01*
X82541428Y-151471428D01*
X82541428Y-151542857D01*
X82517619Y-151590476D01*
X82493809Y-151614285D01*
X82446190Y-151638095D01*
X82255714Y-151638095D01*
X82684285Y-151376190D02*
X82970000Y-151376190D01*
X82827142Y-151876190D02*
X82827142Y-151376190D01*
X83017619Y-151923809D02*
X83398571Y-151923809D01*
X83446190Y-151376190D02*
X83731904Y-151376190D01*
X83589047Y-151876190D02*
X83589047Y-151376190D01*
X83850952Y-151376190D02*
X84184285Y-151876190D01*
X84184285Y-151376190D02*
X83850952Y-151876190D01*
D11*
X54672619Y-123913809D02*
X53958333Y-123913809D01*
X53815476Y-123866190D01*
X53720238Y-123770952D01*
X53672619Y-123628095D01*
X53672619Y-123532857D01*
X53672619Y-124818571D02*
X54196428Y-124818571D01*
X54291666Y-124770952D01*
X54339285Y-124675714D01*
X54339285Y-124485238D01*
X54291666Y-124390000D01*
X53720238Y-124818571D02*
X53672619Y-124723333D01*
X53672619Y-124485238D01*
X53720238Y-124390000D01*
X53815476Y-124342380D01*
X53910714Y-124342380D01*
X54005952Y-124390000D01*
X54053571Y-124485238D01*
X54053571Y-124723333D01*
X54101190Y-124818571D01*
X53672619Y-125294761D02*
X54339285Y-125294761D01*
X54148809Y-125294761D02*
X54244047Y-125342380D01*
X54291666Y-125390000D01*
X54339285Y-125485238D01*
X54339285Y-125580476D01*
X53720238Y-126294761D02*
X53672619Y-126199523D01*
X53672619Y-126009047D01*
X53720238Y-125913809D01*
X53815476Y-125866190D01*
X54196428Y-125866190D01*
X54291666Y-125913809D01*
X54339285Y-126009047D01*
X54339285Y-126199523D01*
X54291666Y-126294761D01*
X54196428Y-126342380D01*
X54101190Y-126342380D01*
X54005952Y-125866190D01*
X53672619Y-127199523D02*
X54672619Y-127199523D01*
X53720238Y-127199523D02*
X53672619Y-127104285D01*
X53672619Y-126913809D01*
X53720238Y-126818571D01*
X53767857Y-126770952D01*
X53863095Y-126723333D01*
X54148809Y-126723333D01*
X54244047Y-126770952D01*
X54291666Y-126818571D01*
X54339285Y-126913809D01*
X54339285Y-127104285D01*
X54291666Y-127199523D01*
X53672619Y-128437619D02*
X54672619Y-128437619D01*
X54672619Y-128675714D01*
X54625000Y-128818571D01*
X54529761Y-128913809D01*
X54434523Y-128961428D01*
X54244047Y-129009047D01*
X54101190Y-129009047D01*
X53910714Y-128961428D01*
X53815476Y-128913809D01*
X53720238Y-128818571D01*
X53672619Y-128675714D01*
X53672619Y-128437619D01*
X53672619Y-129866190D02*
X54196428Y-129866190D01*
X54291666Y-129818571D01*
X54339285Y-129723333D01*
X54339285Y-129532857D01*
X54291666Y-129437619D01*
X53720238Y-129866190D02*
X53672619Y-129770952D01*
X53672619Y-129532857D01*
X53720238Y-129437619D01*
X53815476Y-129390000D01*
X53910714Y-129390000D01*
X54005952Y-129437619D01*
X54053571Y-129532857D01*
X54053571Y-129770952D01*
X54101190Y-129866190D01*
X54339285Y-130342380D02*
X53672619Y-130342380D01*
X54244047Y-130342380D02*
X54291666Y-130390000D01*
X54339285Y-130485238D01*
X54339285Y-130628095D01*
X54291666Y-130723333D01*
X54196428Y-130770952D01*
X53672619Y-130770952D01*
X54339285Y-131247142D02*
X53672619Y-131247142D01*
X54244047Y-131247142D02*
X54291666Y-131294761D01*
X54339285Y-131390000D01*
X54339285Y-131532857D01*
X54291666Y-131628095D01*
X54196428Y-131675714D01*
X53672619Y-131675714D01*
X53720238Y-132532857D02*
X53672619Y-132437619D01*
X53672619Y-132247142D01*
X53720238Y-132151904D01*
X53815476Y-132104285D01*
X54196428Y-132104285D01*
X54291666Y-132151904D01*
X54339285Y-132247142D01*
X54339285Y-132437619D01*
X54291666Y-132532857D01*
X54196428Y-132580476D01*
X54101190Y-132580476D01*
X54005952Y-132104285D01*
X53672619Y-133009047D02*
X54339285Y-133009047D01*
X54148809Y-133009047D02*
X54244047Y-133056666D01*
X54291666Y-133104285D01*
X54339285Y-133199523D01*
X54339285Y-133294761D01*
X51922619Y-125294761D02*
X51922619Y-124818571D01*
X52922619Y-124818571D01*
X51970238Y-126009047D02*
X51922619Y-125913809D01*
X51922619Y-125723333D01*
X51970238Y-125628095D01*
X52065476Y-125580476D01*
X52446428Y-125580476D01*
X52541666Y-125628095D01*
X52589285Y-125723333D01*
X52589285Y-125913809D01*
X52541666Y-126009047D01*
X52446428Y-126056666D01*
X52351190Y-126056666D01*
X52255952Y-125580476D01*
X51922619Y-126628095D02*
X51970238Y-126532857D01*
X52017857Y-126485238D01*
X52113095Y-126437619D01*
X52398809Y-126437619D01*
X52494047Y-126485238D01*
X52541666Y-126532857D01*
X52589285Y-126628095D01*
X52589285Y-126770952D01*
X52541666Y-126866190D01*
X52494047Y-126913809D01*
X52398809Y-126961428D01*
X52113095Y-126961428D01*
X52017857Y-126913809D01*
X51970238Y-126866190D01*
X51922619Y-126770952D01*
X51922619Y-126628095D01*
X52446428Y-128485238D02*
X52446428Y-128151904D01*
X51922619Y-128151904D02*
X52922619Y-128151904D01*
X52922619Y-128628095D01*
X51922619Y-129009047D02*
X52589285Y-129009047D01*
X52398809Y-129009047D02*
X52494047Y-129056666D01*
X52541666Y-129104285D01*
X52589285Y-129199523D01*
X52589285Y-129294761D01*
X51970238Y-130009047D02*
X51922619Y-129913809D01*
X51922619Y-129723333D01*
X51970238Y-129628095D01*
X52065476Y-129580476D01*
X52446428Y-129580476D01*
X52541666Y-129628095D01*
X52589285Y-129723333D01*
X52589285Y-129913809D01*
X52541666Y-130009047D01*
X52446428Y-130056666D01*
X52351190Y-130056666D01*
X52255952Y-129580476D01*
X51922619Y-130485238D02*
X52589285Y-130485238D01*
X52922619Y-130485238D02*
X52875000Y-130437619D01*
X52827380Y-130485238D01*
X52875000Y-130532857D01*
X52922619Y-130485238D01*
X52827380Y-130485238D01*
X51970238Y-131342380D02*
X51922619Y-131247142D01*
X51922619Y-131056666D01*
X51970238Y-130961428D01*
X52065476Y-130913809D01*
X52446428Y-130913809D01*
X52541666Y-130961428D01*
X52589285Y-131056666D01*
X52589285Y-131247142D01*
X52541666Y-131342380D01*
X52446428Y-131390000D01*
X52351190Y-131390000D01*
X52255952Y-130913809D01*
X51922619Y-131818571D02*
X52589285Y-131818571D01*
X52398809Y-131818571D02*
X52494047Y-131866190D01*
X52541666Y-131913809D01*
X52589285Y-132009047D01*
X52589285Y-132104285D01*
X54642857Y-109787142D02*
X54595238Y-109739523D01*
X54547619Y-109596666D01*
X54547619Y-109501428D01*
X54595238Y-109358571D01*
X54690476Y-109263333D01*
X54785714Y-109215714D01*
X54976190Y-109168095D01*
X55119047Y-109168095D01*
X55309523Y-109215714D01*
X55404761Y-109263333D01*
X55500000Y-109358571D01*
X55547619Y-109501428D01*
X55547619Y-109596666D01*
X55500000Y-109739523D01*
X55452380Y-109787142D01*
X55214285Y-110120476D02*
X54547619Y-110358571D01*
X55214285Y-110596666D02*
X54547619Y-110358571D01*
X54309523Y-110263333D01*
X54261904Y-110215714D01*
X54214285Y-110120476D01*
X54595238Y-110930000D02*
X54547619Y-111072857D01*
X54547619Y-111310952D01*
X54595238Y-111406190D01*
X54642857Y-111453809D01*
X54738095Y-111501428D01*
X54833333Y-111501428D01*
X54928571Y-111453809D01*
X54976190Y-111406190D01*
X55023809Y-111310952D01*
X55071428Y-111120476D01*
X55119047Y-111025238D01*
X55166666Y-110977619D01*
X55261904Y-110930000D01*
X55357142Y-110930000D01*
X55452380Y-110977619D01*
X55500000Y-111025238D01*
X55547619Y-111120476D01*
X55547619Y-111358571D01*
X55500000Y-111501428D01*
X54547619Y-112358571D02*
X55071428Y-112358571D01*
X55166666Y-112310952D01*
X55214285Y-112215714D01*
X55214285Y-112025238D01*
X55166666Y-111930000D01*
X54595238Y-112358571D02*
X54547619Y-112263333D01*
X54547619Y-112025238D01*
X54595238Y-111930000D01*
X54690476Y-111882380D01*
X54785714Y-111882380D01*
X54880952Y-111930000D01*
X54928571Y-112025238D01*
X54928571Y-112263333D01*
X54976190Y-112358571D01*
X55214285Y-112691904D02*
X55214285Y-113072857D01*
X55547619Y-112834761D02*
X54690476Y-112834761D01*
X54595238Y-112882380D01*
X54547619Y-112977619D01*
X54547619Y-113072857D01*
X55214285Y-114596666D02*
X54547619Y-114596666D01*
X55595238Y-114358571D02*
X54880952Y-114120476D01*
X54880952Y-114739523D01*
X55119047Y-115263333D02*
X55166666Y-115168095D01*
X55214285Y-115120476D01*
X55309523Y-115072857D01*
X55357142Y-115072857D01*
X55452380Y-115120476D01*
X55500000Y-115168095D01*
X55547619Y-115263333D01*
X55547619Y-115453809D01*
X55500000Y-115549047D01*
X55452380Y-115596666D01*
X55357142Y-115644285D01*
X55309523Y-115644285D01*
X55214285Y-115596666D01*
X55166666Y-115549047D01*
X55119047Y-115453809D01*
X55119047Y-115263333D01*
X55071428Y-115168095D01*
X55023809Y-115120476D01*
X54928571Y-115072857D01*
X54738095Y-115072857D01*
X54642857Y-115120476D01*
X54595238Y-115168095D01*
X54547619Y-115263333D01*
X54547619Y-115453809D01*
X54595238Y-115549047D01*
X54642857Y-115596666D01*
X54738095Y-115644285D01*
X54928571Y-115644285D01*
X55023809Y-115596666D01*
X55071428Y-115549047D01*
X55119047Y-115453809D01*
X55119047Y-116215714D02*
X55166666Y-116120476D01*
X55214285Y-116072857D01*
X55309523Y-116025238D01*
X55357142Y-116025238D01*
X55452380Y-116072857D01*
X55500000Y-116120476D01*
X55547619Y-116215714D01*
X55547619Y-116406190D01*
X55500000Y-116501428D01*
X55452380Y-116549047D01*
X55357142Y-116596666D01*
X55309523Y-116596666D01*
X55214285Y-116549047D01*
X55166666Y-116501428D01*
X55119047Y-116406190D01*
X55119047Y-116215714D01*
X55071428Y-116120476D01*
X55023809Y-116072857D01*
X54928571Y-116025238D01*
X54738095Y-116025238D01*
X54642857Y-116072857D01*
X54595238Y-116120476D01*
X54547619Y-116215714D01*
X54547619Y-116406190D01*
X54595238Y-116501428D01*
X54642857Y-116549047D01*
X54738095Y-116596666D01*
X54928571Y-116596666D01*
X55023809Y-116549047D01*
X55071428Y-116501428D01*
X55119047Y-116406190D01*
X55547619Y-117644285D02*
X55547619Y-118215714D01*
X54547619Y-117930000D02*
X55547619Y-117930000D01*
X54595238Y-118930000D02*
X54547619Y-118834761D01*
X54547619Y-118644285D01*
X54595238Y-118549047D01*
X54690476Y-118501428D01*
X55071428Y-118501428D01*
X55166666Y-118549047D01*
X55214285Y-118644285D01*
X55214285Y-118834761D01*
X55166666Y-118930000D01*
X55071428Y-118977619D01*
X54976190Y-118977619D01*
X54880952Y-118501428D01*
X54547619Y-119834761D02*
X55071428Y-119834761D01*
X55166666Y-119787142D01*
X55214285Y-119691904D01*
X55214285Y-119501428D01*
X55166666Y-119406190D01*
X54595238Y-119834761D02*
X54547619Y-119739523D01*
X54547619Y-119501428D01*
X54595238Y-119406190D01*
X54690476Y-119358571D01*
X54785714Y-119358571D01*
X54880952Y-119406190D01*
X54928571Y-119501428D01*
X54928571Y-119739523D01*
X54976190Y-119834761D01*
X54547619Y-120310952D02*
X55214285Y-120310952D01*
X55119047Y-120310952D02*
X55166666Y-120358571D01*
X55214285Y-120453809D01*
X55214285Y-120596666D01*
X55166666Y-120691904D01*
X55071428Y-120739523D01*
X54547619Y-120739523D01*
X55071428Y-120739523D02*
X55166666Y-120787142D01*
X55214285Y-120882380D01*
X55214285Y-121025238D01*
X55166666Y-121120476D01*
X55071428Y-121168095D01*
X54547619Y-121168095D01*
X54642857Y-121644285D02*
X54595238Y-121691904D01*
X54547619Y-121644285D01*
X54595238Y-121596666D01*
X54642857Y-121644285D01*
X54547619Y-121644285D01*
X55166666Y-121644285D02*
X55119047Y-121691904D01*
X55071428Y-121644285D01*
X55119047Y-121596666D01*
X55166666Y-121644285D01*
X55071428Y-121644285D01*
X53797619Y-110787142D02*
X53797619Y-111358571D01*
X52797619Y-111072857D02*
X53797619Y-111072857D01*
X52797619Y-111691904D02*
X53464285Y-111691904D01*
X53273809Y-111691904D02*
X53369047Y-111739523D01*
X53416666Y-111787142D01*
X53464285Y-111882380D01*
X53464285Y-111977619D01*
X52845238Y-112691904D02*
X52797619Y-112596666D01*
X52797619Y-112406190D01*
X52845238Y-112310952D01*
X52940476Y-112263333D01*
X53321428Y-112263333D01*
X53416666Y-112310952D01*
X53464285Y-112406190D01*
X53464285Y-112596666D01*
X53416666Y-112691904D01*
X53321428Y-112739523D01*
X53226190Y-112739523D01*
X53130952Y-112263333D01*
X53464285Y-113168095D02*
X52797619Y-113168095D01*
X53369047Y-113168095D02*
X53416666Y-113215714D01*
X53464285Y-113310952D01*
X53464285Y-113453809D01*
X53416666Y-113549047D01*
X53321428Y-113596666D01*
X52797619Y-113596666D01*
X53464285Y-113930000D02*
X53464285Y-114310952D01*
X53797619Y-114072857D02*
X52940476Y-114072857D01*
X52845238Y-114120476D01*
X52797619Y-114215714D01*
X52797619Y-114310952D01*
X53083333Y-115358571D02*
X53083333Y-115834761D01*
X52797619Y-115263333D02*
X53797619Y-115596666D01*
X52797619Y-115930000D01*
X52797619Y-116406190D02*
X52845238Y-116310952D01*
X52940476Y-116263333D01*
X53797619Y-116263333D01*
X52797619Y-116930000D02*
X52845238Y-116834761D01*
X52940476Y-116787142D01*
X53797619Y-116787142D01*
X52797619Y-117310952D02*
X53464285Y-117310952D01*
X53797619Y-117310952D02*
X53750000Y-117263333D01*
X53702380Y-117310952D01*
X53750000Y-117358571D01*
X53797619Y-117310952D01*
X53702380Y-117310952D01*
X52845238Y-117739523D02*
X52797619Y-117834761D01*
X52797619Y-118025238D01*
X52845238Y-118120476D01*
X52940476Y-118168095D01*
X52988095Y-118168095D01*
X53083333Y-118120476D01*
X53130952Y-118025238D01*
X53130952Y-117882380D01*
X53178571Y-117787142D01*
X53273809Y-117739523D01*
X53321428Y-117739523D01*
X53416666Y-117787142D01*
X53464285Y-117882380D01*
X53464285Y-118025238D01*
X53416666Y-118120476D01*
X52797619Y-118739523D02*
X52845238Y-118644285D01*
X52892857Y-118596666D01*
X52988095Y-118549047D01*
X53273809Y-118549047D01*
X53369047Y-118596666D01*
X53416666Y-118644285D01*
X53464285Y-118739523D01*
X53464285Y-118882380D01*
X53416666Y-118977619D01*
X53369047Y-119025238D01*
X53273809Y-119072857D01*
X52988095Y-119072857D01*
X52892857Y-119025238D01*
X52845238Y-118977619D01*
X52797619Y-118882380D01*
X52797619Y-118739523D01*
X53464285Y-119501428D02*
X52797619Y-119501428D01*
X53369047Y-119501428D02*
X53416666Y-119549047D01*
X53464285Y-119644285D01*
X53464285Y-119787142D01*
X53416666Y-119882380D01*
X53321428Y-119930000D01*
X52797619Y-119930000D01*
X51571428Y-110453809D02*
X51523809Y-110596666D01*
X51476190Y-110644285D01*
X51380952Y-110691904D01*
X51238095Y-110691904D01*
X51142857Y-110644285D01*
X51095238Y-110596666D01*
X51047619Y-110501428D01*
X51047619Y-110120476D01*
X52047619Y-110120476D01*
X52047619Y-110453809D01*
X52000000Y-110549047D01*
X51952380Y-110596666D01*
X51857142Y-110644285D01*
X51761904Y-110644285D01*
X51666666Y-110596666D01*
X51619047Y-110549047D01*
X51571428Y-110453809D01*
X51571428Y-110120476D01*
X51047619Y-111120476D02*
X51714285Y-111120476D01*
X51523809Y-111120476D02*
X51619047Y-111168095D01*
X51666666Y-111215714D01*
X51714285Y-111310952D01*
X51714285Y-111406190D01*
X51047619Y-111739523D02*
X51714285Y-111739523D01*
X52047619Y-111739523D02*
X52000000Y-111691904D01*
X51952380Y-111739523D01*
X52000000Y-111787142D01*
X52047619Y-111739523D01*
X51952380Y-111739523D01*
X51047619Y-112644285D02*
X51571428Y-112644285D01*
X51666666Y-112596666D01*
X51714285Y-112501428D01*
X51714285Y-112310952D01*
X51666666Y-112215714D01*
X51095238Y-112644285D02*
X51047619Y-112549047D01*
X51047619Y-112310952D01*
X51095238Y-112215714D01*
X51190476Y-112168095D01*
X51285714Y-112168095D01*
X51380952Y-112215714D01*
X51428571Y-112310952D01*
X51428571Y-112549047D01*
X51476190Y-112644285D01*
X51714285Y-113120476D02*
X51047619Y-113120476D01*
X51619047Y-113120476D02*
X51666666Y-113168095D01*
X51714285Y-113263333D01*
X51714285Y-113406190D01*
X51666666Y-113501428D01*
X51571428Y-113549047D01*
X51047619Y-113549047D01*
X51571428Y-115120476D02*
X51523809Y-115263333D01*
X51476190Y-115310952D01*
X51380952Y-115358571D01*
X51238095Y-115358571D01*
X51142857Y-115310952D01*
X51095238Y-115263333D01*
X51047619Y-115168095D01*
X51047619Y-114787142D01*
X52047619Y-114787142D01*
X52047619Y-115120476D01*
X52000000Y-115215714D01*
X51952380Y-115263333D01*
X51857142Y-115310952D01*
X51761904Y-115310952D01*
X51666666Y-115263333D01*
X51619047Y-115215714D01*
X51571428Y-115120476D01*
X51571428Y-114787142D01*
X51047619Y-115787142D02*
X51714285Y-115787142D01*
X51523809Y-115787142D02*
X51619047Y-115834761D01*
X51666666Y-115882380D01*
X51714285Y-115977619D01*
X51714285Y-116072857D01*
X51047619Y-116834761D02*
X51571428Y-116834761D01*
X51666666Y-116787142D01*
X51714285Y-116691904D01*
X51714285Y-116501428D01*
X51666666Y-116406190D01*
X51095238Y-116834761D02*
X51047619Y-116739523D01*
X51047619Y-116501428D01*
X51095238Y-116406190D01*
X51190476Y-116358571D01*
X51285714Y-116358571D01*
X51380952Y-116406190D01*
X51428571Y-116501428D01*
X51428571Y-116739523D01*
X51476190Y-116834761D01*
X51047619Y-117739523D02*
X52047619Y-117739523D01*
X51095238Y-117739523D02*
X51047619Y-117644285D01*
X51047619Y-117453809D01*
X51095238Y-117358571D01*
X51142857Y-117310952D01*
X51238095Y-117263333D01*
X51523809Y-117263333D01*
X51619047Y-117310952D01*
X51666666Y-117358571D01*
X51714285Y-117453809D01*
X51714285Y-117644285D01*
X51666666Y-117739523D01*
X51714285Y-118072857D02*
X51714285Y-118453809D01*
X51047619Y-118215714D02*
X51904761Y-118215714D01*
X52000000Y-118263333D01*
X52047619Y-118358571D01*
X52047619Y-118453809D01*
X51047619Y-118930000D02*
X51095238Y-118834761D01*
X51142857Y-118787142D01*
X51238095Y-118739523D01*
X51523809Y-118739523D01*
X51619047Y-118787142D01*
X51666666Y-118834761D01*
X51714285Y-118930000D01*
X51714285Y-119072857D01*
X51666666Y-119168095D01*
X51619047Y-119215714D01*
X51523809Y-119263333D01*
X51238095Y-119263333D01*
X51142857Y-119215714D01*
X51095238Y-119168095D01*
X51047619Y-119072857D01*
X51047619Y-118930000D01*
X51047619Y-119691904D02*
X51714285Y-119691904D01*
X51523809Y-119691904D02*
X51619047Y-119739523D01*
X51666666Y-119787142D01*
X51714285Y-119882380D01*
X51714285Y-119977619D01*
X51047619Y-120739523D02*
X52047619Y-120739523D01*
X51095238Y-120739523D02*
X51047619Y-120644285D01*
X51047619Y-120453809D01*
X51095238Y-120358571D01*
X51142857Y-120310952D01*
X51238095Y-120263333D01*
X51523809Y-120263333D01*
X51619047Y-120310952D01*
X51666666Y-120358571D01*
X51714285Y-120453809D01*
X51714285Y-120644285D01*
X51666666Y-120739523D01*
D12*
X57000000Y-50000000D02*
X118200000Y-50000000D01*
D13*
X121294285Y-60818571D02*
X121222857Y-60747142D01*
X121151428Y-60532857D01*
X121151428Y-60389999D01*
X121222857Y-60175714D01*
X121365714Y-60032857D01*
X121508571Y-59961428D01*
X121794285Y-59889999D01*
X122008571Y-59889999D01*
X122294285Y-59961428D01*
X122437142Y-60032857D01*
X122580000Y-60175714D01*
X122651428Y-60389999D01*
X122651428Y-60532857D01*
X122580000Y-60747142D01*
X122508571Y-60818571D01*
X122151428Y-61318571D02*
X121151428Y-61675714D01*
X122151428Y-62032857D02*
X121151428Y-61675714D01*
X120794285Y-61532857D01*
X120722857Y-61461428D01*
X120651428Y-61318571D01*
X121222857Y-62532857D02*
X121151428Y-62747142D01*
X121151428Y-63104285D01*
X121222857Y-63247142D01*
X121294285Y-63318571D01*
X121437142Y-63389999D01*
X121580000Y-63389999D01*
X121722857Y-63318571D01*
X121794285Y-63247142D01*
X121865714Y-63104285D01*
X121937142Y-62818571D01*
X122008571Y-62675714D01*
X122080000Y-62604285D01*
X122222857Y-62532857D01*
X122365714Y-62532857D01*
X122508571Y-62604285D01*
X122580000Y-62675714D01*
X122651428Y-62818571D01*
X122651428Y-63175714D01*
X122580000Y-63389999D01*
X121151428Y-64675714D02*
X121937142Y-64675714D01*
X122080000Y-64604285D01*
X122151428Y-64461428D01*
X122151428Y-64175714D01*
X122080000Y-64032857D01*
X121222857Y-64675714D02*
X121151428Y-64532857D01*
X121151428Y-64175714D01*
X121222857Y-64032857D01*
X121365714Y-63961428D01*
X121508571Y-63961428D01*
X121651428Y-64032857D01*
X121722857Y-64175714D01*
X121722857Y-64532857D01*
X121794285Y-64675714D01*
X122151428Y-65175714D02*
X122151428Y-65747142D01*
X122651428Y-65389999D02*
X121365714Y-65389999D01*
X121222857Y-65461428D01*
X121151428Y-65604285D01*
X121151428Y-65747142D01*
X121151428Y-68175714D02*
X121151428Y-67318571D01*
X121151428Y-67747142D02*
X122651428Y-67747142D01*
X122437142Y-67604285D01*
X122294285Y-67461428D01*
X122222857Y-67318571D01*
X121722857Y-69961428D02*
X121722857Y-71104285D01*
X121222857Y-72889999D02*
X121151428Y-73104285D01*
X121151428Y-73461428D01*
X121222857Y-73604285D01*
X121294285Y-73675714D01*
X121437142Y-73747142D01*
X121580000Y-73747142D01*
X121722857Y-73675714D01*
X121794285Y-73604285D01*
X121865714Y-73461428D01*
X121937142Y-73175714D01*
X122008571Y-73032857D01*
X122080000Y-72961428D01*
X122222857Y-72889999D01*
X122365714Y-72889999D01*
X122508571Y-72961428D01*
X122580000Y-73032857D01*
X122651428Y-73175714D01*
X122651428Y-73532857D01*
X122580000Y-73747142D01*
X121151428Y-74389999D02*
X122651428Y-74389999D01*
X122651428Y-74747142D01*
X122580000Y-74961428D01*
X122437142Y-75104285D01*
X122294285Y-75175714D01*
X122008571Y-75247142D01*
X121794285Y-75247142D01*
X121508571Y-75175714D01*
X121365714Y-75104285D01*
X121222857Y-74961428D01*
X121151428Y-74747142D01*
X121151428Y-74389999D01*
X121151428Y-76747142D02*
X121865714Y-76247142D01*
X121151428Y-75889999D02*
X122651428Y-75889999D01*
X122651428Y-76461428D01*
X122580000Y-76604285D01*
X122508571Y-76675714D01*
X122365714Y-76747142D01*
X122151428Y-76747142D01*
X122008571Y-76675714D01*
X121937142Y-76604285D01*
X121865714Y-76461428D01*
X121865714Y-75889999D01*
X121937142Y-79032857D02*
X121865714Y-79247142D01*
X121794285Y-79318571D01*
X121651428Y-79389999D01*
X121437142Y-79389999D01*
X121294285Y-79318571D01*
X121222857Y-79247142D01*
X121151428Y-79104285D01*
X121151428Y-78532857D01*
X122651428Y-78532857D01*
X122651428Y-79032857D01*
X122580000Y-79175714D01*
X122508571Y-79247142D01*
X122365714Y-79318571D01*
X122222857Y-79318571D01*
X122080000Y-79247142D01*
X122008571Y-79175714D01*
X121937142Y-79032857D01*
X121937142Y-78532857D01*
X121151428Y-80032857D02*
X122151428Y-80032857D01*
X121865714Y-80032857D02*
X122008571Y-80104285D01*
X122080000Y-80175714D01*
X122151428Y-80318571D01*
X122151428Y-80461428D01*
X121222857Y-81532857D02*
X121151428Y-81389999D01*
X121151428Y-81104285D01*
X121222857Y-80961428D01*
X121365714Y-80889999D01*
X121937142Y-80889999D01*
X122080000Y-80961428D01*
X122151428Y-81104285D01*
X122151428Y-81389999D01*
X122080000Y-81532857D01*
X121937142Y-81604285D01*
X121794285Y-81604285D01*
X121651428Y-80889999D01*
X121151428Y-82889999D02*
X121937142Y-82889999D01*
X122080000Y-82818571D01*
X122151428Y-82675714D01*
X122151428Y-82389999D01*
X122080000Y-82247142D01*
X121222857Y-82889999D02*
X121151428Y-82747142D01*
X121151428Y-82389999D01*
X121222857Y-82247142D01*
X121365714Y-82175714D01*
X121508571Y-82175714D01*
X121651428Y-82247142D01*
X121722857Y-82389999D01*
X121722857Y-82747142D01*
X121794285Y-82889999D01*
X121151428Y-83604285D02*
X122651428Y-83604285D01*
X121722857Y-83747142D02*
X121151428Y-84175714D01*
X122151428Y-84175714D02*
X121580000Y-83604285D01*
X121151428Y-85032857D02*
X121222857Y-84889999D01*
X121294285Y-84818571D01*
X121437142Y-84747142D01*
X121865714Y-84747142D01*
X122008571Y-84818571D01*
X122080000Y-84889999D01*
X122151428Y-85032857D01*
X122151428Y-85247142D01*
X122080000Y-85389999D01*
X122008571Y-85461428D01*
X121865714Y-85532857D01*
X121437142Y-85532857D01*
X121294285Y-85461428D01*
X121222857Y-85389999D01*
X121151428Y-85247142D01*
X121151428Y-85032857D01*
X122151428Y-86818571D02*
X121151428Y-86818571D01*
X122151428Y-86175714D02*
X121365714Y-86175714D01*
X121222857Y-86247142D01*
X121151428Y-86389999D01*
X121151428Y-86604285D01*
X121222857Y-86747142D01*
X121294285Y-86818571D01*
X122151428Y-87318571D02*
X122151428Y-87889999D01*
X122651428Y-87532857D02*
X121365714Y-87532857D01*
X121222857Y-87604285D01*
X121151428Y-87747142D01*
X121151428Y-87889999D01*
X121937142Y-90032857D02*
X121865714Y-90247142D01*
X121794285Y-90318571D01*
X121651428Y-90390000D01*
X121437142Y-90390000D01*
X121294285Y-90318571D01*
X121222857Y-90247142D01*
X121151428Y-90104285D01*
X121151428Y-89532857D01*
X122651428Y-89532857D01*
X122651428Y-90032857D01*
X122580000Y-90175714D01*
X122508571Y-90247142D01*
X122365714Y-90318571D01*
X122222857Y-90318571D01*
X122080000Y-90247142D01*
X122008571Y-90175714D01*
X121937142Y-90032857D01*
X121937142Y-89532857D01*
X121151428Y-91247142D02*
X121222857Y-91104285D01*
X121294285Y-91032857D01*
X121437142Y-90961428D01*
X121865714Y-90961428D01*
X122008571Y-91032857D01*
X122080000Y-91104285D01*
X122151428Y-91247142D01*
X122151428Y-91461428D01*
X122080000Y-91604285D01*
X122008571Y-91675714D01*
X121865714Y-91747142D01*
X121437142Y-91747142D01*
X121294285Y-91675714D01*
X121222857Y-91604285D01*
X121151428Y-91461428D01*
X121151428Y-91247142D01*
X121151428Y-93032857D02*
X121937142Y-93032857D01*
X122080000Y-92961428D01*
X122151428Y-92818571D01*
X122151428Y-92532857D01*
X122080000Y-92390000D01*
X121222857Y-93032857D02*
X121151428Y-92890000D01*
X121151428Y-92532857D01*
X121222857Y-92390000D01*
X121365714Y-92318571D01*
X121508571Y-92318571D01*
X121651428Y-92390000D01*
X121722857Y-92532857D01*
X121722857Y-92890000D01*
X121794285Y-93032857D01*
X121151428Y-93747142D02*
X122151428Y-93747142D01*
X121865714Y-93747142D02*
X122008571Y-93818571D01*
X122080000Y-93890000D01*
X122151428Y-94032857D01*
X122151428Y-94175714D01*
X121151428Y-95318571D02*
X122651428Y-95318571D01*
X121222857Y-95318571D02*
X121151428Y-95175714D01*
X121151428Y-94890000D01*
X121222857Y-94747142D01*
X121294285Y-94675714D01*
X121437142Y-94604285D01*
X121865714Y-94604285D01*
X122008571Y-94675714D01*
X122080000Y-94747142D01*
X122151428Y-94890000D01*
X122151428Y-95175714D01*
X122080000Y-95318571D01*
X86480952Y-53954761D02*
X86480952Y-55383333D01*
X86385714Y-55669047D01*
X86195238Y-55859523D01*
X85909523Y-55954761D01*
X85719047Y-55954761D01*
X87242857Y-53954761D02*
X88576190Y-55954761D01*
X88576190Y-53954761D02*
X87242857Y-55954761D01*
X89147619Y-53954761D02*
X90385714Y-53954761D01*
X89719047Y-54716666D01*
X90004761Y-54716666D01*
X90195238Y-54811904D01*
X90290476Y-54907142D01*
X90385714Y-55097619D01*
X90385714Y-55573809D01*
X90290476Y-55764285D01*
X90195238Y-55859523D01*
X90004761Y-55954761D01*
X89433333Y-55954761D01*
X89242857Y-55859523D01*
X89147619Y-55764285D01*
X85540952Y-138684761D02*
X85540952Y-140113333D01*
X85445714Y-140399047D01*
X85255238Y-140589523D01*
X84969523Y-140684761D01*
X84779047Y-140684761D01*
X86302857Y-138684761D02*
X87636190Y-140684761D01*
X87636190Y-138684761D02*
X86302857Y-140684761D01*
X89255238Y-139351428D02*
X89255238Y-140684761D01*
X88779047Y-138589523D02*
X88302857Y-140018095D01*
X89540952Y-140018095D01*
X59114761Y-102189047D02*
X60543333Y-102189047D01*
X60829047Y-102284285D01*
X61019523Y-102474761D01*
X61114761Y-102760476D01*
X61114761Y-102950952D01*
X59114761Y-101427142D02*
X61114761Y-100093809D01*
X59114761Y-100093809D02*
X61114761Y-101427142D01*
X59305238Y-99427142D02*
X59210000Y-99331904D01*
X59114761Y-99141428D01*
X59114761Y-98665238D01*
X59210000Y-98474761D01*
X59305238Y-98379523D01*
X59495714Y-98284285D01*
X59686190Y-98284285D01*
X59971904Y-98379523D01*
X61114761Y-99522380D01*
X61114761Y-98284285D01*
X114734761Y-100769047D02*
X116163333Y-100769047D01*
X116449047Y-100864285D01*
X116639523Y-101054761D01*
X116734761Y-101340476D01*
X116734761Y-101530952D01*
X114734761Y-100007142D02*
X116734761Y-98673809D01*
X114734761Y-98673809D02*
X116734761Y-100007142D01*
X116734761Y-96864285D02*
X116734761Y-98007142D01*
X116734761Y-97435714D02*
X114734761Y-97435714D01*
X115020476Y-97626190D01*
X115210952Y-97816666D01*
X115306190Y-98007142D01*
D14*
X71230000Y-153090000D02*
X63230000Y-153090000D01*
X71230000Y-155090000D02*
X71230000Y-153090000D01*
X63230000Y-155090000D02*
X71230000Y-155090000D01*
X63230000Y-153090000D02*
X63230000Y-155090000D01*
D15*
G36*
X90090000Y-156240000D02*
G01*
X90090000Y-153240000D01*
X89090000Y-153240000D01*
X89090000Y-156240000D01*
X90090000Y-156240000D01*
G37*
X90090000Y-156240000D02*
X90090000Y-153240000D01*
X89090000Y-153240000D01*
X89090000Y-156240000D01*
X90090000Y-156240000D01*
G36*
X75090000Y-156240000D02*
G01*
X75090000Y-153240000D01*
X76090000Y-153240000D01*
X76090000Y-156240000D01*
X75090000Y-156240000D01*
G37*
X75090000Y-156240000D02*
X75090000Y-153240000D01*
X76090000Y-153240000D01*
X76090000Y-156240000D01*
X75090000Y-156240000D01*
D14*
X90090000Y-152440000D02*
X90090000Y-156240000D01*
X75090000Y-152440000D02*
X75090000Y-156240000D01*
X75090000Y-156240000D02*
X90090000Y-156240000D01*
X75090000Y-152440000D02*
X90090000Y-152440000D01*
D15*
G36*
X75090000Y-152440000D02*
G01*
X75090000Y-153190000D01*
X90090000Y-153190000D01*
X90090000Y-152440000D01*
X75090000Y-152440000D01*
G37*
X75090000Y-152440000D02*
X75090000Y-153190000D01*
X90090000Y-153190000D01*
X90090000Y-152440000D01*
X75090000Y-152440000D01*
D14*
X111245000Y-152255000D02*
X114755000Y-152255000D01*
X111245000Y-155765000D02*
X114755000Y-155765000D01*
X114755000Y-152255000D02*
X114755000Y-155765000D01*
X111245000Y-152255000D02*
X111245000Y-155765000D01*
D12*
X68395000Y-56955000D02*
X67395000Y-57955000D01*
X67395000Y-57955000D02*
X67395000Y-64355000D01*
X67395000Y-64355000D02*
X108095000Y-64355000D01*
X108095000Y-64355000D02*
X108095000Y-56955000D01*
X108095000Y-56955000D02*
X68395000Y-56955000D01*
X69515000Y-81245000D02*
X68515000Y-80245000D01*
X68515000Y-80245000D02*
X62115000Y-80245000D01*
X62115000Y-80245000D02*
X62115000Y-120945000D01*
X62115000Y-120945000D02*
X69515000Y-120945000D01*
X69515000Y-120945000D02*
X69515000Y-81245000D01*
X68395000Y-130945000D02*
X67395000Y-131945000D01*
X67395000Y-131945000D02*
X67395000Y-138345000D01*
X67395000Y-138345000D02*
X108095000Y-138345000D01*
X108095000Y-138345000D02*
X108095000Y-130945000D01*
X108095000Y-130945000D02*
X68395000Y-130945000D01*
X114165000Y-81245000D02*
X113165000Y-80245000D01*
X113165000Y-80245000D02*
X106765000Y-80245000D01*
X106765000Y-80245000D02*
X106765000Y-120945000D01*
X106765000Y-120945000D02*
X114165000Y-120945000D01*
X114165000Y-120945000D02*
X114165000Y-81245000D01*
D14*
X101245000Y-152255000D02*
X101245000Y-155765000D01*
X104755000Y-152255000D02*
X104755000Y-155765000D01*
X101245000Y-155765000D02*
X104755000Y-155765000D01*
X101245000Y-152255000D02*
X104755000Y-152255000D01*
D16*
G36*
X81145621Y-114475143D02*
G01*
X81891387Y-114660559D01*
X82219574Y-114854355D01*
X82240962Y-115147239D01*
X82183797Y-115325209D01*
X81786001Y-115895197D01*
X81330260Y-116238690D01*
X80982784Y-116477516D01*
X81086891Y-116576904D01*
X81090790Y-116576995D01*
X81353036Y-116623045D01*
X81137059Y-116809338D01*
X81103555Y-116830663D01*
X80659207Y-116977298D01*
X80501976Y-116944474D01*
X80300509Y-117010352D01*
X80288684Y-117095800D01*
X80122733Y-117358914D01*
X79635314Y-117206405D01*
X79496272Y-117123227D01*
X79248962Y-116811314D01*
X79321175Y-116275666D01*
X79372108Y-116124690D01*
X79679988Y-115578118D01*
X80155389Y-115439833D01*
X80298205Y-115451469D01*
X80957106Y-115529253D01*
X80292679Y-115001860D01*
X79833938Y-114569183D01*
X79832490Y-114347805D01*
X80303837Y-114328153D01*
X81145621Y-114475143D01*
X81145621Y-114475143D01*
G37*
X81145621Y-114475143D02*
X81891387Y-114660559D01*
X82219574Y-114854355D01*
X82240962Y-115147239D01*
X82183797Y-115325209D01*
X81786001Y-115895197D01*
X81330260Y-116238690D01*
X80982784Y-116477516D01*
X81086891Y-116576904D01*
X81090790Y-116576995D01*
X81353036Y-116623045D01*
X81137059Y-116809338D01*
X81103555Y-116830663D01*
X80659207Y-116977298D01*
X80501976Y-116944474D01*
X80300509Y-117010352D01*
X80288684Y-117095800D01*
X80122733Y-117358914D01*
X79635314Y-117206405D01*
X79496272Y-117123227D01*
X79248962Y-116811314D01*
X79321175Y-116275666D01*
X79372108Y-116124690D01*
X79679988Y-115578118D01*
X80155389Y-115439833D01*
X80298205Y-115451469D01*
X80957106Y-115529253D01*
X80292679Y-115001860D01*
X79833938Y-114569183D01*
X79832490Y-114347805D01*
X80303837Y-114328153D01*
X81145621Y-114475143D01*
G36*
X80779908Y-111498232D02*
G01*
X81363135Y-111888232D01*
X81535222Y-112033801D01*
X82248548Y-112567557D01*
X82931086Y-112935710D01*
X83100956Y-112992490D01*
X83678000Y-113209724D01*
X83777158Y-113412587D01*
X83454414Y-113556275D01*
X82765754Y-113595983D01*
X82378537Y-113570653D01*
X81599947Y-113509349D01*
X81275467Y-113536972D01*
X81328924Y-113673616D01*
X81493850Y-113804004D01*
X81773861Y-114079290D01*
X81712686Y-114170527D01*
X81324106Y-114017678D01*
X80764775Y-113646715D01*
X80725794Y-113616384D01*
X80240899Y-113129538D01*
X80022318Y-112701787D01*
X80021316Y-112680595D01*
X80087650Y-112362291D01*
X80368996Y-112354049D01*
X80907841Y-112602603D01*
X81491842Y-112906258D01*
X80887818Y-112248557D01*
X80477010Y-111700036D01*
X80462787Y-111442714D01*
X80779908Y-111498232D01*
X80779908Y-111498232D01*
G37*
X80779908Y-111498232D02*
X81363135Y-111888232D01*
X81535222Y-112033801D01*
X82248548Y-112567557D01*
X82931086Y-112935710D01*
X83100956Y-112992490D01*
X83678000Y-113209724D01*
X83777158Y-113412587D01*
X83454414Y-113556275D01*
X82765754Y-113595983D01*
X82378537Y-113570653D01*
X81599947Y-113509349D01*
X81275467Y-113536972D01*
X81328924Y-113673616D01*
X81493850Y-113804004D01*
X81773861Y-114079290D01*
X81712686Y-114170527D01*
X81324106Y-114017678D01*
X80764775Y-113646715D01*
X80725794Y-113616384D01*
X80240899Y-113129538D01*
X80022318Y-112701787D01*
X80021316Y-112680595D01*
X80087650Y-112362291D01*
X80368996Y-112354049D01*
X80907841Y-112602603D01*
X81491842Y-112906258D01*
X80887818Y-112248557D01*
X80477010Y-111700036D01*
X80462787Y-111442714D01*
X80779908Y-111498232D01*
G36*
X91957887Y-105163238D02*
G01*
X91847441Y-105365758D01*
X91350231Y-105689219D01*
X90582172Y-106072197D01*
X89659178Y-106453265D01*
X89245527Y-106600563D01*
X88176053Y-106961779D01*
X89646579Y-106822151D01*
X90592728Y-106713120D01*
X91401445Y-106587248D01*
X91718684Y-106518499D01*
X92188906Y-106489251D01*
X92320263Y-106799478D01*
X92100077Y-107341501D01*
X91548186Y-107942508D01*
X90827593Y-108458486D01*
X90122333Y-108741376D01*
X89585285Y-108967201D01*
X89379211Y-109271275D01*
X89138188Y-109641816D01*
X88516132Y-109999082D01*
X87664562Y-110281514D01*
X86734999Y-110427554D01*
X86513588Y-110435499D01*
X85902317Y-110463184D01*
X85761467Y-110555836D01*
X85989631Y-110726991D01*
X86620398Y-110884635D01*
X87147578Y-110842022D01*
X87644519Y-110823567D01*
X87779393Y-111042463D01*
X87596510Y-111388494D01*
X87140180Y-111751448D01*
X86702270Y-111949646D01*
X86193956Y-112153839D01*
X86066147Y-112273029D01*
X86119727Y-112283857D01*
X86341255Y-112447088D01*
X86304474Y-112566316D01*
X85965505Y-112714126D01*
X85268012Y-112811225D01*
X84663917Y-112833684D01*
X83735358Y-112791556D01*
X83116237Y-112613901D01*
X82584479Y-112223815D01*
X82407065Y-112052146D01*
X81912378Y-111465213D01*
X81642411Y-110965494D01*
X81625527Y-110864767D01*
X81764450Y-110415796D01*
X82057228Y-110272581D01*
X82316469Y-110523332D01*
X82681966Y-110896581D01*
X83389496Y-111275445D01*
X84252704Y-111583383D01*
X85085235Y-111743856D01*
X85307253Y-111751705D01*
X85655316Y-111716732D01*
X85599338Y-111604004D01*
X85096944Y-111374252D01*
X84751788Y-111236993D01*
X83930661Y-110884255D01*
X83282452Y-110549799D01*
X83080735Y-110414656D01*
X82712987Y-109975874D01*
X82828571Y-109721546D01*
X83393836Y-109699465D01*
X83563948Y-109728304D01*
X84432895Y-109898187D01*
X83558495Y-109361287D01*
X82819638Y-108776552D01*
X82367151Y-108166690D01*
X82202770Y-107624503D01*
X82328231Y-107242792D01*
X82745272Y-107114361D01*
X83455627Y-107332010D01*
X83521145Y-107365063D01*
X84269487Y-107624748D01*
X85300248Y-107827837D01*
X86158708Y-107914260D01*
X87908684Y-108004467D01*
X86355468Y-107607487D01*
X85463590Y-107334328D01*
X84618954Y-107001320D01*
X83947282Y-106668334D01*
X83574293Y-106395241D01*
X83555603Y-106274128D01*
X83857458Y-106192770D01*
X84573645Y-106066380D01*
X85593261Y-105909621D01*
X86805406Y-105737155D01*
X88099177Y-105563646D01*
X89363672Y-105403755D01*
X90487991Y-105272146D01*
X91361231Y-105183481D01*
X91872491Y-105152422D01*
X91957887Y-105163238D01*
X91957887Y-105163238D01*
G37*
X91957887Y-105163238D02*
X91847441Y-105365758D01*
X91350231Y-105689219D01*
X90582172Y-106072197D01*
X89659178Y-106453265D01*
X89245527Y-106600563D01*
X88176053Y-106961779D01*
X89646579Y-106822151D01*
X90592728Y-106713120D01*
X91401445Y-106587248D01*
X91718684Y-106518499D01*
X92188906Y-106489251D01*
X92320263Y-106799478D01*
X92100077Y-107341501D01*
X91548186Y-107942508D01*
X90827593Y-108458486D01*
X90122333Y-108741376D01*
X89585285Y-108967201D01*
X89379211Y-109271275D01*
X89138188Y-109641816D01*
X88516132Y-109999082D01*
X87664562Y-110281514D01*
X86734999Y-110427554D01*
X86513588Y-110435499D01*
X85902317Y-110463184D01*
X85761467Y-110555836D01*
X85989631Y-110726991D01*
X86620398Y-110884635D01*
X87147578Y-110842022D01*
X87644519Y-110823567D01*
X87779393Y-111042463D01*
X87596510Y-111388494D01*
X87140180Y-111751448D01*
X86702270Y-111949646D01*
X86193956Y-112153839D01*
X86066147Y-112273029D01*
X86119727Y-112283857D01*
X86341255Y-112447088D01*
X86304474Y-112566316D01*
X85965505Y-112714126D01*
X85268012Y-112811225D01*
X84663917Y-112833684D01*
X83735358Y-112791556D01*
X83116237Y-112613901D01*
X82584479Y-112223815D01*
X82407065Y-112052146D01*
X81912378Y-111465213D01*
X81642411Y-110965494D01*
X81625527Y-110864767D01*
X81764450Y-110415796D01*
X82057228Y-110272581D01*
X82316469Y-110523332D01*
X82681966Y-110896581D01*
X83389496Y-111275445D01*
X84252704Y-111583383D01*
X85085235Y-111743856D01*
X85307253Y-111751705D01*
X85655316Y-111716732D01*
X85599338Y-111604004D01*
X85096944Y-111374252D01*
X84751788Y-111236993D01*
X83930661Y-110884255D01*
X83282452Y-110549799D01*
X83080735Y-110414656D01*
X82712987Y-109975874D01*
X82828571Y-109721546D01*
X83393836Y-109699465D01*
X83563948Y-109728304D01*
X84432895Y-109898187D01*
X83558495Y-109361287D01*
X82819638Y-108776552D01*
X82367151Y-108166690D01*
X82202770Y-107624503D01*
X82328231Y-107242792D01*
X82745272Y-107114361D01*
X83455627Y-107332010D01*
X83521145Y-107365063D01*
X84269487Y-107624748D01*
X85300248Y-107827837D01*
X86158708Y-107914260D01*
X87908684Y-108004467D01*
X86355468Y-107607487D01*
X85463590Y-107334328D01*
X84618954Y-107001320D01*
X83947282Y-106668334D01*
X83574293Y-106395241D01*
X83555603Y-106274128D01*
X83857458Y-106192770D01*
X84573645Y-106066380D01*
X85593261Y-105909621D01*
X86805406Y-105737155D01*
X88099177Y-105563646D01*
X89363672Y-105403755D01*
X90487991Y-105272146D01*
X91361231Y-105183481D01*
X91872491Y-105152422D01*
X91957887Y-105163238D01*
G36*
X76453979Y-99570035D02*
G01*
X76487770Y-99585752D01*
X76436455Y-99860073D01*
X76217575Y-100523814D01*
X75867772Y-101472184D01*
X75499178Y-102413076D01*
X75052294Y-103571510D01*
X74693761Y-104585747D01*
X74466051Y-105330227D01*
X74406579Y-105642933D01*
X74301906Y-105981485D01*
X73897425Y-106126888D01*
X73376129Y-106149474D01*
X72345679Y-106149474D01*
X73006036Y-104769656D01*
X73381487Y-103890428D01*
X73637016Y-103113244D01*
X73702276Y-102764581D01*
X73793636Y-102282298D01*
X73912529Y-102139136D01*
X74130249Y-101910410D01*
X74350947Y-101370896D01*
X74507763Y-100739965D01*
X74533836Y-100236987D01*
X74514690Y-100163453D01*
X74626985Y-99872980D01*
X75240587Y-99669097D01*
X75380880Y-99644491D01*
X76052158Y-99564223D01*
X76453979Y-99570035D01*
X76453979Y-99570035D01*
G37*
X76453979Y-99570035D02*
X76487770Y-99585752D01*
X76436455Y-99860073D01*
X76217575Y-100523814D01*
X75867772Y-101472184D01*
X75499178Y-102413076D01*
X75052294Y-103571510D01*
X74693761Y-104585747D01*
X74466051Y-105330227D01*
X74406579Y-105642933D01*
X74301906Y-105981485D01*
X73897425Y-106126888D01*
X73376129Y-106149474D01*
X72345679Y-106149474D01*
X73006036Y-104769656D01*
X73381487Y-103890428D01*
X73637016Y-103113244D01*
X73702276Y-102764581D01*
X73793636Y-102282298D01*
X73912529Y-102139136D01*
X74130249Y-101910410D01*
X74350947Y-101370896D01*
X74507763Y-100739965D01*
X74533836Y-100236987D01*
X74514690Y-100163453D01*
X74626985Y-99872980D01*
X75240587Y-99669097D01*
X75380880Y-99644491D01*
X76052158Y-99564223D01*
X76453979Y-99570035D01*
G36*
X91906832Y-93927298D02*
G01*
X91709143Y-94697897D01*
X91438034Y-95140036D01*
X90932427Y-95452758D01*
X90531384Y-95626955D01*
X89634886Y-96263047D01*
X89215820Y-96955121D01*
X88997249Y-97550889D01*
X89007002Y-97969402D01*
X89295063Y-98426873D01*
X89652639Y-98844593D01*
X90119488Y-99471285D01*
X90353191Y-99978164D01*
X90353900Y-100128724D01*
X90217195Y-100539761D01*
X89979111Y-101304404D01*
X89689206Y-102263267D01*
X89665970Y-102341206D01*
X89347617Y-103300276D01*
X89033850Y-104064580D01*
X88788850Y-104479253D01*
X88774437Y-104492440D01*
X88375304Y-104637819D01*
X87545244Y-104811819D01*
X86373299Y-105004638D01*
X84948506Y-105206475D01*
X83359907Y-105407528D01*
X81696540Y-105597996D01*
X80047446Y-105768077D01*
X78501664Y-105907970D01*
X77148234Y-106007873D01*
X76076195Y-106057983D01*
X75374588Y-106048501D01*
X75141503Y-105993169D01*
X74960902Y-105595402D01*
X74944796Y-105089636D01*
X75071071Y-104696517D01*
X75279346Y-104617767D01*
X75726705Y-104644257D01*
X76600003Y-104579690D01*
X77801307Y-104440262D01*
X79232685Y-104242169D01*
X80796205Y-104001607D01*
X82393935Y-103734773D01*
X83927942Y-103457861D01*
X85300295Y-103187069D01*
X86413061Y-102938592D01*
X87168308Y-102728627D01*
X87440790Y-102606504D01*
X87747653Y-102157938D01*
X87674021Y-101749941D01*
X87307106Y-101583103D01*
X87149163Y-101505665D01*
X87493155Y-101323955D01*
X87574474Y-101293454D01*
X88156640Y-100914476D01*
X88309737Y-100378772D01*
X88231203Y-99886833D01*
X88087548Y-99732632D01*
X87811472Y-99522933D01*
X87521475Y-99090076D01*
X87335365Y-98585620D01*
X87336828Y-97983828D01*
X87526828Y-97084890D01*
X87531227Y-97067700D01*
X87719831Y-96151495D01*
X87699321Y-95644273D01*
X87591625Y-95504466D01*
X87690274Y-95323617D01*
X88189971Y-94981921D01*
X89002500Y-94534320D01*
X89694703Y-94194667D01*
X92091021Y-93068281D01*
X91906832Y-93927298D01*
X91906832Y-93927298D01*
G37*
X91906832Y-93927298D02*
X91709143Y-94697897D01*
X91438034Y-95140036D01*
X90932427Y-95452758D01*
X90531384Y-95626955D01*
X89634886Y-96263047D01*
X89215820Y-96955121D01*
X88997249Y-97550889D01*
X89007002Y-97969402D01*
X89295063Y-98426873D01*
X89652639Y-98844593D01*
X90119488Y-99471285D01*
X90353191Y-99978164D01*
X90353900Y-100128724D01*
X90217195Y-100539761D01*
X89979111Y-101304404D01*
X89689206Y-102263267D01*
X89665970Y-102341206D01*
X89347617Y-103300276D01*
X89033850Y-104064580D01*
X88788850Y-104479253D01*
X88774437Y-104492440D01*
X88375304Y-104637819D01*
X87545244Y-104811819D01*
X86373299Y-105004638D01*
X84948506Y-105206475D01*
X83359907Y-105407528D01*
X81696540Y-105597996D01*
X80047446Y-105768077D01*
X78501664Y-105907970D01*
X77148234Y-106007873D01*
X76076195Y-106057983D01*
X75374588Y-106048501D01*
X75141503Y-105993169D01*
X74960902Y-105595402D01*
X74944796Y-105089636D01*
X75071071Y-104696517D01*
X75279346Y-104617767D01*
X75726705Y-104644257D01*
X76600003Y-104579690D01*
X77801307Y-104440262D01*
X79232685Y-104242169D01*
X80796205Y-104001607D01*
X82393935Y-103734773D01*
X83927942Y-103457861D01*
X85300295Y-103187069D01*
X86413061Y-102938592D01*
X87168308Y-102728627D01*
X87440790Y-102606504D01*
X87747653Y-102157938D01*
X87674021Y-101749941D01*
X87307106Y-101583103D01*
X87149163Y-101505665D01*
X87493155Y-101323955D01*
X87574474Y-101293454D01*
X88156640Y-100914476D01*
X88309737Y-100378772D01*
X88231203Y-99886833D01*
X88087548Y-99732632D01*
X87811472Y-99522933D01*
X87521475Y-99090076D01*
X87335365Y-98585620D01*
X87336828Y-97983828D01*
X87526828Y-97084890D01*
X87531227Y-97067700D01*
X87719831Y-96151495D01*
X87699321Y-95644273D01*
X87591625Y-95504466D01*
X87690274Y-95323617D01*
X88189971Y-94981921D01*
X89002500Y-94534320D01*
X89694703Y-94194667D01*
X92091021Y-93068281D01*
X91906832Y-93927298D01*
G36*
X91196518Y-101742629D02*
G01*
X91222216Y-101768206D01*
X91173630Y-101994639D01*
X91032985Y-102069908D01*
X90638003Y-102411860D01*
X90385687Y-102970365D01*
X90346082Y-103517442D01*
X90505165Y-103787817D01*
X90698016Y-104028363D01*
X90448684Y-104273801D01*
X89894666Y-104526214D01*
X89656320Y-104350920D01*
X89646579Y-104242073D01*
X89758686Y-103434500D01*
X90044896Y-102662757D01*
X90430047Y-102044856D01*
X90838976Y-101698810D01*
X91196518Y-101742629D01*
X91196518Y-101742629D01*
G37*
X91196518Y-101742629D02*
X91222216Y-101768206D01*
X91173630Y-101994639D01*
X91032985Y-102069908D01*
X90638003Y-102411860D01*
X90385687Y-102970365D01*
X90346082Y-103517442D01*
X90505165Y-103787817D01*
X90698016Y-104028363D01*
X90448684Y-104273801D01*
X89894666Y-104526214D01*
X89656320Y-104350920D01*
X89646579Y-104242073D01*
X89758686Y-103434500D01*
X90044896Y-102662757D01*
X90430047Y-102044856D01*
X90838976Y-101698810D01*
X91196518Y-101742629D01*
G36*
X78669812Y-100391991D02*
G01*
X78742944Y-100719701D01*
X78604280Y-101354554D01*
X78314757Y-102143735D01*
X77935312Y-102934430D01*
X77526880Y-103573825D01*
X77306840Y-103810000D01*
X76730855Y-104135588D01*
X76113780Y-104266566D01*
X75637753Y-104189603D01*
X75480078Y-103943684D01*
X75588188Y-103404721D01*
X75611609Y-103333518D01*
X76545527Y-103333518D01*
X76637192Y-103502241D01*
X76870346Y-103250755D01*
X77182222Y-102653043D01*
X77243253Y-102511102D01*
X77466260Y-101863408D01*
X77521315Y-101448259D01*
X77500488Y-101400576D01*
X77336977Y-101537429D01*
X77070389Y-101989021D01*
X76791452Y-102571712D01*
X76590893Y-103101861D01*
X76545527Y-103333518D01*
X75611609Y-103333518D01*
X75852476Y-102601263D01*
X76194976Y-101749563D01*
X76484408Y-101158048D01*
X76951454Y-100711875D01*
X77651043Y-100398471D01*
X78343140Y-100301977D01*
X78669812Y-100391991D01*
X78669812Y-100391991D01*
G37*
X78669812Y-100391991D02*
X78742944Y-100719701D01*
X78604280Y-101354554D01*
X78314757Y-102143735D01*
X77935312Y-102934430D01*
X77526880Y-103573825D01*
X77306840Y-103810000D01*
X76730855Y-104135588D01*
X76113780Y-104266566D01*
X75637753Y-104189603D01*
X75480078Y-103943684D01*
X75588188Y-103404721D01*
X75611609Y-103333518D01*
X76545527Y-103333518D01*
X76637192Y-103502241D01*
X76870346Y-103250755D01*
X77182222Y-102653043D01*
X77243253Y-102511102D01*
X77466260Y-101863408D01*
X77521315Y-101448259D01*
X77500488Y-101400576D01*
X77336977Y-101537429D01*
X77070389Y-101989021D01*
X76791452Y-102571712D01*
X76590893Y-103101861D01*
X76545527Y-103333518D01*
X75611609Y-103333518D01*
X75852476Y-102601263D01*
X76194976Y-101749563D01*
X76484408Y-101158048D01*
X76951454Y-100711875D01*
X77651043Y-100398471D01*
X78343140Y-100301977D01*
X78669812Y-100391991D01*
G36*
X92843293Y-101543381D02*
G01*
X92664372Y-102062683D01*
X92362757Y-102744273D01*
X92010662Y-103437678D01*
X91680302Y-103992424D01*
X91443894Y-104258038D01*
X91422711Y-104263568D01*
X91314211Y-104075591D01*
X91378615Y-103810000D01*
X91554862Y-103213910D01*
X91708711Y-102478467D01*
X91862375Y-101932503D01*
X92046474Y-101738636D01*
X92068542Y-101747565D01*
X92380645Y-101693602D01*
X92451252Y-101608572D01*
X92759219Y-101348720D01*
X92827303Y-101336842D01*
X92843293Y-101543381D01*
X92843293Y-101543381D01*
G37*
X92843293Y-101543381D02*
X92664372Y-102062683D01*
X92362757Y-102744273D01*
X92010662Y-103437678D01*
X91680302Y-103992424D01*
X91443894Y-104258038D01*
X91422711Y-104263568D01*
X91314211Y-104075591D01*
X91378615Y-103810000D01*
X91554862Y-103213910D01*
X91708711Y-102478467D01*
X91862375Y-101932503D01*
X92046474Y-101738636D01*
X92068542Y-101747565D01*
X92380645Y-101693602D01*
X92451252Y-101608572D01*
X92759219Y-101348720D01*
X92827303Y-101336842D01*
X92843293Y-101543381D01*
G36*
X94452329Y-101084955D02*
G01*
X94459211Y-101203158D01*
X94260077Y-101557960D01*
X94087143Y-101604211D01*
X93750481Y-101829108D01*
X93533104Y-102339949D01*
X93497571Y-102890958D01*
X93675855Y-103220009D01*
X93852817Y-103542441D01*
X93654605Y-103874399D01*
X93240274Y-104010527D01*
X92920038Y-103789966D01*
X92855000Y-103515687D01*
X92954001Y-102838263D01*
X93197174Y-102043854D01*
X93503780Y-101354405D01*
X93767743Y-101006726D01*
X94247913Y-100819011D01*
X94452329Y-101084955D01*
X94452329Y-101084955D01*
G37*
X94452329Y-101084955D02*
X94459211Y-101203158D01*
X94260077Y-101557960D01*
X94087143Y-101604211D01*
X93750481Y-101829108D01*
X93533104Y-102339949D01*
X93497571Y-102890958D01*
X93675855Y-103220009D01*
X93852817Y-103542441D01*
X93654605Y-103874399D01*
X93240274Y-104010527D01*
X92920038Y-103789966D01*
X92855000Y-103515687D01*
X92954001Y-102838263D01*
X93197174Y-102043854D01*
X93503780Y-101354405D01*
X93767743Y-101006726D01*
X94247913Y-100819011D01*
X94452329Y-101084955D01*
G36*
X83475696Y-98884009D02*
G01*
X83363023Y-99453928D01*
X83113878Y-100249234D01*
X82776909Y-101142156D01*
X82400760Y-102004920D01*
X82034077Y-102709752D01*
X81725507Y-103128880D01*
X81695247Y-103153502D01*
X81062403Y-103373917D01*
X80639281Y-103353047D01*
X80113194Y-103341377D01*
X79888238Y-103474808D01*
X79475210Y-103720371D01*
X78924896Y-103680106D01*
X78532294Y-103382942D01*
X78512962Y-103339940D01*
X78518274Y-102845623D01*
X78732221Y-102154505D01*
X78785248Y-102036853D01*
X79102038Y-101256602D01*
X79298232Y-100568990D01*
X79305862Y-100523665D01*
X79611537Y-99948676D01*
X79977757Y-99696420D01*
X80365611Y-99594086D01*
X80520114Y-99721434D01*
X80452553Y-100165901D01*
X80174216Y-101014924D01*
X80155000Y-101069474D01*
X79914551Y-101824811D01*
X79782387Y-102385187D01*
X79772834Y-102506773D01*
X79867586Y-102491496D01*
X80084023Y-102114232D01*
X80360471Y-101515311D01*
X80635253Y-100835065D01*
X80846693Y-100213821D01*
X80924366Y-99886698D01*
X81237018Y-99385517D01*
X81587389Y-99245700D01*
X82167004Y-99159820D01*
X81602784Y-100667833D01*
X81326131Y-101488035D01*
X81178727Y-102091828D01*
X81182698Y-102319979D01*
X81356731Y-102192052D01*
X81630618Y-101699086D01*
X81939531Y-100984788D01*
X82218640Y-100192865D01*
X82342881Y-99748234D01*
X82712221Y-98973466D01*
X83321969Y-98671264D01*
X83403253Y-98667252D01*
X83475696Y-98884009D01*
X83475696Y-98884009D01*
G37*
X83475696Y-98884009D02*
X83363023Y-99453928D01*
X83113878Y-100249234D01*
X82776909Y-101142156D01*
X82400760Y-102004920D01*
X82034077Y-102709752D01*
X81725507Y-103128880D01*
X81695247Y-103153502D01*
X81062403Y-103373917D01*
X80639281Y-103353047D01*
X80113194Y-103341377D01*
X79888238Y-103474808D01*
X79475210Y-103720371D01*
X78924896Y-103680106D01*
X78532294Y-103382942D01*
X78512962Y-103339940D01*
X78518274Y-102845623D01*
X78732221Y-102154505D01*
X78785248Y-102036853D01*
X79102038Y-101256602D01*
X79298232Y-100568990D01*
X79305862Y-100523665D01*
X79611537Y-99948676D01*
X79977757Y-99696420D01*
X80365611Y-99594086D01*
X80520114Y-99721434D01*
X80452553Y-100165901D01*
X80174216Y-101014924D01*
X80155000Y-101069474D01*
X79914551Y-101824811D01*
X79782387Y-102385187D01*
X79772834Y-102506773D01*
X79867586Y-102491496D01*
X80084023Y-102114232D01*
X80360471Y-101515311D01*
X80635253Y-100835065D01*
X80846693Y-100213821D01*
X80924366Y-99886698D01*
X81237018Y-99385517D01*
X81587389Y-99245700D01*
X82167004Y-99159820D01*
X81602784Y-100667833D01*
X81326131Y-101488035D01*
X81178727Y-102091828D01*
X81182698Y-102319979D01*
X81356731Y-102192052D01*
X81630618Y-101699086D01*
X81939531Y-100984788D01*
X82218640Y-100192865D01*
X82342881Y-99748234D01*
X82712221Y-98973466D01*
X83321969Y-98671264D01*
X83403253Y-98667252D01*
X83475696Y-98884009D01*
G36*
X95467818Y-100672332D02*
G01*
X95411350Y-101163505D01*
X95374454Y-101336842D01*
X95215334Y-102183066D01*
X95123457Y-102926954D01*
X95122552Y-102941053D01*
X94942701Y-103480711D01*
X94661471Y-103691117D01*
X94435881Y-103688040D01*
X94375848Y-103482653D01*
X94480246Y-102960882D01*
X94648274Y-102354275D01*
X94925329Y-101505387D01*
X95182485Y-100902570D01*
X95377423Y-100605119D01*
X95467818Y-100672332D01*
X95467818Y-100672332D01*
G37*
X95467818Y-100672332D02*
X95411350Y-101163505D01*
X95374454Y-101336842D01*
X95215334Y-102183066D01*
X95123457Y-102926954D01*
X95122552Y-102941053D01*
X94942701Y-103480711D01*
X94661471Y-103691117D01*
X94435881Y-103688040D01*
X94375848Y-103482653D01*
X94480246Y-102960882D01*
X94648274Y-102354275D01*
X94925329Y-101505387D01*
X95182485Y-100902570D01*
X95377423Y-100605119D01*
X95467818Y-100672332D01*
G36*
X97315004Y-100092987D02*
G01*
X97342651Y-100425632D01*
X97232459Y-101076460D01*
X97032011Y-101862095D01*
X96788891Y-102599160D01*
X96550683Y-103104281D01*
X96523932Y-103141579D01*
X96125762Y-103439437D01*
X95754949Y-103448637D01*
X95603531Y-103191146D01*
X95638582Y-103040313D01*
X95713046Y-102807369D01*
X96063421Y-102807369D01*
X96197106Y-102941053D01*
X96330790Y-102807369D01*
X96197106Y-102673684D01*
X96063421Y-102807369D01*
X95713046Y-102807369D01*
X95804595Y-102520982D01*
X95947739Y-102005263D01*
X96330790Y-102005263D01*
X96464474Y-102138948D01*
X96598158Y-102005263D01*
X96464474Y-101871579D01*
X96330790Y-102005263D01*
X95947739Y-102005263D01*
X96023094Y-101733779D01*
X96105714Y-101413331D01*
X96232596Y-101069474D01*
X96598158Y-101069474D01*
X96695984Y-101289548D01*
X96776404Y-101247720D01*
X96808403Y-100930416D01*
X96776404Y-100891228D01*
X96617454Y-100927930D01*
X96598158Y-101069474D01*
X96232596Y-101069474D01*
X96415780Y-100573037D01*
X96801553Y-100078025D01*
X97192063Y-100005783D01*
X97315004Y-100092987D01*
X97315004Y-100092987D01*
G37*
X97315004Y-100092987D02*
X97342651Y-100425632D01*
X97232459Y-101076460D01*
X97032011Y-101862095D01*
X96788891Y-102599160D01*
X96550683Y-103104281D01*
X96523932Y-103141579D01*
X96125762Y-103439437D01*
X95754949Y-103448637D01*
X95603531Y-103191146D01*
X95638582Y-103040313D01*
X95713046Y-102807369D01*
X96063421Y-102807369D01*
X96197106Y-102941053D01*
X96330790Y-102807369D01*
X96197106Y-102673684D01*
X96063421Y-102807369D01*
X95713046Y-102807369D01*
X95804595Y-102520982D01*
X95947739Y-102005263D01*
X96330790Y-102005263D01*
X96464474Y-102138948D01*
X96598158Y-102005263D01*
X96464474Y-101871579D01*
X96330790Y-102005263D01*
X95947739Y-102005263D01*
X96023094Y-101733779D01*
X96105714Y-101413331D01*
X96232596Y-101069474D01*
X96598158Y-101069474D01*
X96695984Y-101289548D01*
X96776404Y-101247720D01*
X96808403Y-100930416D01*
X96776404Y-100891228D01*
X96617454Y-100927930D01*
X96598158Y-101069474D01*
X96232596Y-101069474D01*
X96415780Y-100573037D01*
X96801553Y-100078025D01*
X97192063Y-100005783D01*
X97315004Y-100092987D01*
G36*
X99196268Y-99465263D02*
G01*
X99060555Y-99925025D01*
X98829452Y-100710843D01*
X98606420Y-101470527D01*
X98337456Y-102317562D01*
X98148217Y-102704712D01*
X97999311Y-102693391D01*
X97920507Y-102540000D01*
X97754470Y-102206037D01*
X97691657Y-102363457D01*
X97686424Y-102457379D01*
X97571161Y-102831913D01*
X97351257Y-103114132D01*
X97169189Y-103157233D01*
X97136833Y-103023674D01*
X97213395Y-102669540D01*
X97407827Y-101972903D01*
X97617953Y-101279055D01*
X97957674Y-100284507D01*
X98229764Y-99669974D01*
X98408853Y-99481324D01*
X98469737Y-99739172D01*
X98586225Y-99875877D01*
X98892616Y-99583208D01*
X99174782Y-99304485D01*
X99196268Y-99465263D01*
X99196268Y-99465263D01*
G37*
X99196268Y-99465263D02*
X99060555Y-99925025D01*
X98829452Y-100710843D01*
X98606420Y-101470527D01*
X98337456Y-102317562D01*
X98148217Y-102704712D01*
X97999311Y-102693391D01*
X97920507Y-102540000D01*
X97754470Y-102206037D01*
X97691657Y-102363457D01*
X97686424Y-102457379D01*
X97571161Y-102831913D01*
X97351257Y-103114132D01*
X97169189Y-103157233D01*
X97136833Y-103023674D01*
X97213395Y-102669540D01*
X97407827Y-101972903D01*
X97617953Y-101279055D01*
X97957674Y-100284507D01*
X98229764Y-99669974D01*
X98408853Y-99481324D01*
X98469737Y-99739172D01*
X98586225Y-99875877D01*
X98892616Y-99583208D01*
X99174782Y-99304485D01*
X99196268Y-99465263D01*
G36*
X86647107Y-97713511D02*
G01*
X86616483Y-97996719D01*
X86446023Y-98666669D01*
X86167723Y-99603728D01*
X86005644Y-100111992D01*
X85581135Y-101314995D01*
X85224835Y-102074473D01*
X84894637Y-102470135D01*
X84712187Y-102560628D01*
X84034261Y-102751857D01*
X83720133Y-102839459D01*
X83249489Y-102805536D01*
X83099544Y-102679333D01*
X83061837Y-102258341D01*
X83155006Y-101785524D01*
X84031842Y-101785524D01*
X84235995Y-101870509D01*
X84274078Y-101871579D01*
X84492236Y-101641206D01*
X84779982Y-101053611D01*
X84942499Y-100620793D01*
X85232007Y-99663598D01*
X85357703Y-99004817D01*
X85311896Y-98716096D01*
X85136853Y-98810211D01*
X84956692Y-99153352D01*
X84684595Y-99812318D01*
X84392330Y-100593870D01*
X84151665Y-101304771D01*
X84034367Y-101751783D01*
X84031842Y-101785524D01*
X83155006Y-101785524D01*
X83194322Y-101586007D01*
X83236726Y-101449350D01*
X83458346Y-100739632D01*
X83595460Y-100230387D01*
X83604536Y-100184578D01*
X84005622Y-99146995D01*
X84734667Y-98314127D01*
X85554605Y-97880749D01*
X86212997Y-97730509D01*
X86611150Y-97698841D01*
X86647107Y-97713511D01*
X86647107Y-97713511D01*
G37*
X86647107Y-97713511D02*
X86616483Y-97996719D01*
X86446023Y-98666669D01*
X86167723Y-99603728D01*
X86005644Y-100111992D01*
X85581135Y-101314995D01*
X85224835Y-102074473D01*
X84894637Y-102470135D01*
X84712187Y-102560628D01*
X84034261Y-102751857D01*
X83720133Y-102839459D01*
X83249489Y-102805536D01*
X83099544Y-102679333D01*
X83061837Y-102258341D01*
X83155006Y-101785524D01*
X84031842Y-101785524D01*
X84235995Y-101870509D01*
X84274078Y-101871579D01*
X84492236Y-101641206D01*
X84779982Y-101053611D01*
X84942499Y-100620793D01*
X85232007Y-99663598D01*
X85357703Y-99004817D01*
X85311896Y-98716096D01*
X85136853Y-98810211D01*
X84956692Y-99153352D01*
X84684595Y-99812318D01*
X84392330Y-100593870D01*
X84151665Y-101304771D01*
X84034367Y-101751783D01*
X84031842Y-101785524D01*
X83155006Y-101785524D01*
X83194322Y-101586007D01*
X83236726Y-101449350D01*
X83458346Y-100739632D01*
X83595460Y-100230387D01*
X83604536Y-100184578D01*
X84005622Y-99146995D01*
X84734667Y-98314127D01*
X85554605Y-97880749D01*
X86212997Y-97730509D01*
X86611150Y-97698841D01*
X86647107Y-97713511D01*
G36*
X100608684Y-98916637D02*
G01*
X100401586Y-99214366D01*
X100329793Y-99246297D01*
X100085972Y-99553319D01*
X99963477Y-100003841D01*
X99788321Y-100793239D01*
X99606464Y-101336842D01*
X99483049Y-101860043D01*
X99573394Y-102094941D01*
X99712525Y-102307735D01*
X99501060Y-102557680D01*
X99093773Y-102673684D01*
X98799436Y-102508634D01*
X98805901Y-102339474D01*
X98945369Y-101912574D01*
X99174120Y-101158683D01*
X99368290Y-100496866D01*
X99668651Y-99656285D01*
X99993453Y-99044718D01*
X100206679Y-98834205D01*
X100552072Y-98817624D01*
X100608684Y-98916637D01*
X100608684Y-98916637D01*
G37*
X100608684Y-98916637D02*
X100401586Y-99214366D01*
X100329793Y-99246297D01*
X100085972Y-99553319D01*
X99963477Y-100003841D01*
X99788321Y-100793239D01*
X99606464Y-101336842D01*
X99483049Y-101860043D01*
X99573394Y-102094941D01*
X99712525Y-102307735D01*
X99501060Y-102557680D01*
X99093773Y-102673684D01*
X98799436Y-102508634D01*
X98805901Y-102339474D01*
X98945369Y-101912574D01*
X99174120Y-101158683D01*
X99368290Y-100496866D01*
X99668651Y-99656285D01*
X99993453Y-99044718D01*
X100206679Y-98834205D01*
X100552072Y-98817624D01*
X100608684Y-98916637D01*
G36*
X102139704Y-98561075D02*
G01*
X102134913Y-98730000D01*
X101841646Y-98997798D01*
X101716428Y-98998985D01*
X101530001Y-99201616D01*
X101450336Y-99880591D01*
X101450512Y-100266412D01*
X101376554Y-101248033D01*
X101140501Y-101979113D01*
X100793944Y-102373074D01*
X100388474Y-102343334D01*
X100270615Y-102246492D01*
X100198775Y-101875156D01*
X100437118Y-101486457D01*
X100783089Y-101336842D01*
X101028317Y-101203095D01*
X101045545Y-100726409D01*
X100997378Y-100429206D01*
X100975548Y-99550384D01*
X101209801Y-98835169D01*
X101637394Y-98434340D01*
X101843530Y-98395790D01*
X102139704Y-98561075D01*
X102139704Y-98561075D01*
G37*
X102139704Y-98561075D02*
X102134913Y-98730000D01*
X101841646Y-98997798D01*
X101716428Y-98998985D01*
X101530001Y-99201616D01*
X101450336Y-99880591D01*
X101450512Y-100266412D01*
X101376554Y-101248033D01*
X101140501Y-101979113D01*
X100793944Y-102373074D01*
X100388474Y-102343334D01*
X100270615Y-102246492D01*
X100198775Y-101875156D01*
X100437118Y-101486457D01*
X100783089Y-101336842D01*
X101028317Y-101203095D01*
X101045545Y-100726409D01*
X100997378Y-100429206D01*
X100975548Y-99550384D01*
X101209801Y-98835169D01*
X101637394Y-98434340D01*
X101843530Y-98395790D01*
X102139704Y-98561075D01*
G36*
X93330303Y-94626175D02*
G01*
X93246345Y-94950587D01*
X93188781Y-95350032D01*
X93361093Y-95338756D01*
X93613034Y-95327081D01*
X93662589Y-95626780D01*
X93538875Y-96067199D01*
X93271006Y-96477686D01*
X93148898Y-96582483D01*
X92759424Y-97045125D01*
X92433914Y-97746554D01*
X92223606Y-98506731D01*
X92179738Y-99145619D01*
X92327245Y-99469578D01*
X92508381Y-99756579D01*
X92338461Y-100233366D01*
X91905593Y-100663529D01*
X91361357Y-100790288D01*
X90917430Y-100586844D01*
X90822067Y-100425358D01*
X90795509Y-99936387D01*
X90913390Y-99206084D01*
X90956549Y-99037964D01*
X91105966Y-98135438D01*
X91059019Y-97369904D01*
X90837336Y-96885897D01*
X90620226Y-96790580D01*
X90621342Y-96672961D01*
X90994490Y-96380192D01*
X91183948Y-96259773D01*
X91748585Y-95828093D01*
X92041445Y-95433469D01*
X92052895Y-95367899D01*
X92271842Y-95003758D01*
X92740253Y-94692652D01*
X93216111Y-94508111D01*
X93330303Y-94626175D01*
X93330303Y-94626175D01*
G37*
X93330303Y-94626175D02*
X93246345Y-94950587D01*
X93188781Y-95350032D01*
X93361093Y-95338756D01*
X93613034Y-95327081D01*
X93662589Y-95626780D01*
X93538875Y-96067199D01*
X93271006Y-96477686D01*
X93148898Y-96582483D01*
X92759424Y-97045125D01*
X92433914Y-97746554D01*
X92223606Y-98506731D01*
X92179738Y-99145619D01*
X92327245Y-99469578D01*
X92508381Y-99756579D01*
X92338461Y-100233366D01*
X91905593Y-100663529D01*
X91361357Y-100790288D01*
X90917430Y-100586844D01*
X90822067Y-100425358D01*
X90795509Y-99936387D01*
X90913390Y-99206084D01*
X90956549Y-99037964D01*
X91105966Y-98135438D01*
X91059019Y-97369904D01*
X90837336Y-96885897D01*
X90620226Y-96790580D01*
X90621342Y-96672961D01*
X90994490Y-96380192D01*
X91183948Y-96259773D01*
X91748585Y-95828093D01*
X92041445Y-95433469D01*
X92052895Y-95367899D01*
X92271842Y-95003758D01*
X92740253Y-94692652D01*
X93216111Y-94508111D01*
X93330303Y-94626175D01*
G36*
X97097544Y-93458685D02*
G01*
X97081345Y-93746660D01*
X96950097Y-94421776D01*
X96736162Y-95357158D01*
X96471900Y-96425929D01*
X96189674Y-97501213D01*
X95921844Y-98456134D01*
X95700771Y-99163817D01*
X95558817Y-99497385D01*
X95556714Y-99499676D01*
X95166269Y-99683995D01*
X94524696Y-99821861D01*
X93854900Y-99884941D01*
X93379789Y-99844902D01*
X93290137Y-99787781D01*
X93214738Y-99327596D01*
X93279226Y-98614704D01*
X93316918Y-98465897D01*
X94492968Y-98465897D01*
X94573526Y-98610922D01*
X94763527Y-98365908D01*
X95023515Y-97786068D01*
X95314033Y-96926615D01*
X95365399Y-96750429D01*
X95630763Y-95800747D01*
X95757028Y-95253642D01*
X95754701Y-94998311D01*
X95634291Y-94923949D01*
X95538990Y-94920000D01*
X95303029Y-95173737D01*
X95029823Y-95887365D01*
X94742981Y-96989514D01*
X94561310Y-97875619D01*
X94492968Y-98465897D01*
X93316918Y-98465897D01*
X93458943Y-97905190D01*
X93475676Y-97861053D01*
X93630568Y-97395078D01*
X93867605Y-96608885D01*
X94063302Y-95927574D01*
X94345533Y-95070219D01*
X94631855Y-94430518D01*
X94810957Y-94191844D01*
X95324712Y-93936912D01*
X96001729Y-93684411D01*
X96643400Y-93498021D01*
X97051115Y-93441422D01*
X97097544Y-93458685D01*
X97097544Y-93458685D01*
G37*
X97097544Y-93458685D02*
X97081345Y-93746660D01*
X96950097Y-94421776D01*
X96736162Y-95357158D01*
X96471900Y-96425929D01*
X96189674Y-97501213D01*
X95921844Y-98456134D01*
X95700771Y-99163817D01*
X95558817Y-99497385D01*
X95556714Y-99499676D01*
X95166269Y-99683995D01*
X94524696Y-99821861D01*
X93854900Y-99884941D01*
X93379789Y-99844902D01*
X93290137Y-99787781D01*
X93214738Y-99327596D01*
X93279226Y-98614704D01*
X93316918Y-98465897D01*
X94492968Y-98465897D01*
X94573526Y-98610922D01*
X94763527Y-98365908D01*
X95023515Y-97786068D01*
X95314033Y-96926615D01*
X95365399Y-96750429D01*
X95630763Y-95800747D01*
X95757028Y-95253642D01*
X95754701Y-94998311D01*
X95634291Y-94923949D01*
X95538990Y-94920000D01*
X95303029Y-95173737D01*
X95029823Y-95887365D01*
X94742981Y-96989514D01*
X94561310Y-97875619D01*
X94492968Y-98465897D01*
X93316918Y-98465897D01*
X93458943Y-97905190D01*
X93475676Y-97861053D01*
X93630568Y-97395078D01*
X93867605Y-96608885D01*
X94063302Y-95927574D01*
X94345533Y-95070219D01*
X94631855Y-94430518D01*
X94810957Y-94191844D01*
X95324712Y-93936912D01*
X96001729Y-93684411D01*
X96643400Y-93498021D01*
X97051115Y-93441422D01*
X97097544Y-93458685D01*
G36*
X84760255Y-93606058D02*
G01*
X84701653Y-93752477D01*
X84417155Y-93975708D01*
X84100336Y-94285182D01*
X84207949Y-94366209D01*
X84672235Y-94199373D01*
X84861624Y-94103083D01*
X85394687Y-93958229D01*
X85926401Y-94000363D01*
X86271136Y-94186934D01*
X86278181Y-94427806D01*
X85915387Y-94594464D01*
X85605878Y-94567271D01*
X85196463Y-94574343D01*
X85101316Y-94708832D01*
X85323231Y-94868728D01*
X85776118Y-94853342D01*
X86392968Y-94838695D01*
X86584889Y-95032995D01*
X86308576Y-95326284D01*
X86016113Y-95462718D01*
X85549916Y-95699919D01*
X85442389Y-95884933D01*
X85761784Y-95889531D01*
X86147891Y-95734361D01*
X86595557Y-95564770D01*
X86682760Y-95686468D01*
X86436736Y-96022459D01*
X85884722Y-96495749D01*
X85876363Y-96501939D01*
X85067596Y-96937756D01*
X84284959Y-96962398D01*
X84261255Y-96957777D01*
X83696260Y-96939503D01*
X83057961Y-97152378D01*
X82197182Y-97651106D01*
X81976898Y-97795478D01*
X81096294Y-98338562D01*
X80351247Y-98654267D01*
X79508406Y-98816285D01*
X78512006Y-98889670D01*
X77564703Y-98917321D01*
X76867472Y-98899202D01*
X76551836Y-98839516D01*
X76545527Y-98826832D01*
X76764455Y-98623777D01*
X77302561Y-98334973D01*
X77414474Y-98284683D01*
X78283421Y-97904673D01*
X77347632Y-97879212D01*
X76508541Y-97813021D01*
X75797884Y-97689318D01*
X75793818Y-97688234D01*
X75459900Y-97567525D01*
X75492172Y-97423208D01*
X75944036Y-97180905D01*
X76261713Y-97036536D01*
X76915440Y-96716621D01*
X77302395Y-96474637D01*
X77347632Y-96416110D01*
X77126149Y-96239738D01*
X76562921Y-95942237D01*
X76178978Y-95764914D01*
X75444208Y-95393934D01*
X74926897Y-95048774D01*
X74812708Y-94928213D01*
X74883742Y-94828259D01*
X75311351Y-94974911D01*
X75513467Y-95074078D01*
X76074821Y-95296578D01*
X76801033Y-95435441D01*
X77811999Y-95504508D01*
X79227618Y-95517623D01*
X79347958Y-95516780D01*
X80646510Y-95499085D01*
X81519603Y-95456393D01*
X82076500Y-95368061D01*
X82426460Y-95213446D01*
X82678745Y-94971904D01*
X82756812Y-94872723D01*
X83323375Y-94152353D01*
X83705688Y-93765239D01*
X84030397Y-93609564D01*
X84360854Y-93583158D01*
X84760255Y-93606058D01*
X84760255Y-93606058D01*
G37*
X84760255Y-93606058D02*
X84701653Y-93752477D01*
X84417155Y-93975708D01*
X84100336Y-94285182D01*
X84207949Y-94366209D01*
X84672235Y-94199373D01*
X84861624Y-94103083D01*
X85394687Y-93958229D01*
X85926401Y-94000363D01*
X86271136Y-94186934D01*
X86278181Y-94427806D01*
X85915387Y-94594464D01*
X85605878Y-94567271D01*
X85196463Y-94574343D01*
X85101316Y-94708832D01*
X85323231Y-94868728D01*
X85776118Y-94853342D01*
X86392968Y-94838695D01*
X86584889Y-95032995D01*
X86308576Y-95326284D01*
X86016113Y-95462718D01*
X85549916Y-95699919D01*
X85442389Y-95884933D01*
X85761784Y-95889531D01*
X86147891Y-95734361D01*
X86595557Y-95564770D01*
X86682760Y-95686468D01*
X86436736Y-96022459D01*
X85884722Y-96495749D01*
X85876363Y-96501939D01*
X85067596Y-96937756D01*
X84284959Y-96962398D01*
X84261255Y-96957777D01*
X83696260Y-96939503D01*
X83057961Y-97152378D01*
X82197182Y-97651106D01*
X81976898Y-97795478D01*
X81096294Y-98338562D01*
X80351247Y-98654267D01*
X79508406Y-98816285D01*
X78512006Y-98889670D01*
X77564703Y-98917321D01*
X76867472Y-98899202D01*
X76551836Y-98839516D01*
X76545527Y-98826832D01*
X76764455Y-98623777D01*
X77302561Y-98334973D01*
X77414474Y-98284683D01*
X78283421Y-97904673D01*
X77347632Y-97879212D01*
X76508541Y-97813021D01*
X75797884Y-97689318D01*
X75793818Y-97688234D01*
X75459900Y-97567525D01*
X75492172Y-97423208D01*
X75944036Y-97180905D01*
X76261713Y-97036536D01*
X76915440Y-96716621D01*
X77302395Y-96474637D01*
X77347632Y-96416110D01*
X77126149Y-96239738D01*
X76562921Y-95942237D01*
X76178978Y-95764914D01*
X75444208Y-95393934D01*
X74926897Y-95048774D01*
X74812708Y-94928213D01*
X74883742Y-94828259D01*
X75311351Y-94974911D01*
X75513467Y-95074078D01*
X76074821Y-95296578D01*
X76801033Y-95435441D01*
X77811999Y-95504508D01*
X79227618Y-95517623D01*
X79347958Y-95516780D01*
X80646510Y-95499085D01*
X81519603Y-95456393D01*
X82076500Y-95368061D01*
X82426460Y-95213446D01*
X82678745Y-94971904D01*
X82756812Y-94872723D01*
X83323375Y-94152353D01*
X83705688Y-93765239D01*
X84030397Y-93609564D01*
X84360854Y-93583158D01*
X84760255Y-93606058D01*
G36*
X99740391Y-91849185D02*
G01*
X99708321Y-92337586D01*
X99917770Y-92420756D01*
X100004117Y-92392494D01*
X100248826Y-92453009D01*
X100265598Y-92815143D01*
X100098329Y-93320028D01*
X99790913Y-93808792D01*
X99550892Y-94032859D01*
X99125071Y-94542959D01*
X98888643Y-95114289D01*
X98705670Y-95840928D01*
X98572707Y-96323684D01*
X98613527Y-96718514D01*
X98852772Y-96791579D01*
X99190418Y-96851324D01*
X99212299Y-97094690D01*
X98906656Y-97617874D01*
X98718899Y-97886621D01*
X98255740Y-98432010D01*
X97789182Y-98602018D01*
X97076486Y-98482481D01*
X97051855Y-98476120D01*
X96734614Y-98259983D01*
X96812739Y-98039240D01*
X97051970Y-97560169D01*
X97275011Y-96843260D01*
X97445611Y-96063133D01*
X97527521Y-95394408D01*
X97484493Y-95011705D01*
X97447726Y-94980382D01*
X97291095Y-94694859D01*
X97375870Y-94176776D01*
X97645715Y-93637748D01*
X97869829Y-93394859D01*
X98144274Y-92894246D01*
X98136835Y-92559328D01*
X98180997Y-92136571D01*
X98625087Y-91761715D01*
X98937945Y-91599717D01*
X99873350Y-91153653D01*
X99740391Y-91849185D01*
X99740391Y-91849185D01*
G37*
X99740391Y-91849185D02*
X99708321Y-92337586D01*
X99917770Y-92420756D01*
X100004117Y-92392494D01*
X100248826Y-92453009D01*
X100265598Y-92815143D01*
X100098329Y-93320028D01*
X99790913Y-93808792D01*
X99550892Y-94032859D01*
X99125071Y-94542959D01*
X98888643Y-95114289D01*
X98705670Y-95840928D01*
X98572707Y-96323684D01*
X98613527Y-96718514D01*
X98852772Y-96791579D01*
X99190418Y-96851324D01*
X99212299Y-97094690D01*
X98906656Y-97617874D01*
X98718899Y-97886621D01*
X98255740Y-98432010D01*
X97789182Y-98602018D01*
X97076486Y-98482481D01*
X97051855Y-98476120D01*
X96734614Y-98259983D01*
X96812739Y-98039240D01*
X97051970Y-97560169D01*
X97275011Y-96843260D01*
X97445611Y-96063133D01*
X97527521Y-95394408D01*
X97484493Y-95011705D01*
X97447726Y-94980382D01*
X97291095Y-94694859D01*
X97375870Y-94176776D01*
X97645715Y-93637748D01*
X97869829Y-93394859D01*
X98144274Y-92894246D01*
X98136835Y-92559328D01*
X98180997Y-92136571D01*
X98625087Y-91761715D01*
X98937945Y-91599717D01*
X99873350Y-91153653D01*
X99740391Y-91849185D01*
G36*
X103282369Y-98071390D02*
G01*
X103845435Y-98222651D01*
X104084408Y-98423072D01*
X104084474Y-98426136D01*
X103864615Y-98599456D01*
X103375206Y-98659666D01*
X102871504Y-98596244D01*
X102658509Y-98484913D01*
X102486698Y-98160918D01*
X102797568Y-98035706D01*
X103282369Y-98071390D01*
X103282369Y-98071390D01*
G37*
X103282369Y-98071390D02*
X103845435Y-98222651D01*
X104084408Y-98423072D01*
X104084474Y-98426136D01*
X103864615Y-98599456D01*
X103375206Y-98659666D01*
X102871504Y-98596244D01*
X102658509Y-98484913D01*
X102486698Y-98160918D01*
X102797568Y-98035706D01*
X103282369Y-98071390D01*
G36*
X103918144Y-97112266D02*
G01*
X104314370Y-97246180D01*
X104351842Y-97310537D01*
X104178558Y-97629768D01*
X103614073Y-97691392D01*
X103282369Y-97651597D01*
X102576712Y-97470617D01*
X102361035Y-97266324D01*
X102641529Y-97107358D01*
X103228895Y-97058948D01*
X103918144Y-97112266D01*
X103918144Y-97112266D01*
G37*
X103918144Y-97112266D02*
X104314370Y-97246180D01*
X104351842Y-97310537D01*
X104178558Y-97629768D01*
X103614073Y-97691392D01*
X103282369Y-97651597D01*
X102576712Y-97470617D01*
X102361035Y-97266324D01*
X102641529Y-97107358D01*
X103228895Y-97058948D01*
X103918144Y-97112266D01*
G36*
X104254725Y-89887154D02*
G01*
X103960753Y-90628918D01*
X103493006Y-91173378D01*
X103487907Y-91176842D01*
X102818439Y-91692504D01*
X102298452Y-92205737D01*
X101978742Y-92636594D01*
X101910104Y-92905125D01*
X102143336Y-92931381D01*
X102462686Y-92790460D01*
X102976892Y-92552541D01*
X103144759Y-92662837D01*
X103078890Y-93190209D01*
X102765777Y-93828351D01*
X102380703Y-94166024D01*
X101746592Y-94623463D01*
X101422662Y-95097522D01*
X101426944Y-95476981D01*
X101777470Y-95650620D01*
X102146053Y-95613305D01*
X102627917Y-95523858D01*
X102649291Y-95615075D01*
X102413421Y-95814322D01*
X102031129Y-96345905D01*
X101945527Y-96725607D01*
X101738907Y-97220577D01*
X101246779Y-97527968D01*
X100660737Y-97608490D01*
X100172378Y-97422850D01*
X99994165Y-97125790D01*
X99917174Y-96213010D01*
X100036090Y-95203199D01*
X100264675Y-94518627D01*
X100550156Y-93776348D01*
X100814179Y-92769935D01*
X100988706Y-91767956D01*
X101007274Y-91587253D01*
X101280075Y-91126709D01*
X102000597Y-90517677D01*
X102739619Y-90030196D01*
X104426560Y-88998519D01*
X104254725Y-89887154D01*
X104254725Y-89887154D01*
G37*
X104254725Y-89887154D02*
X103960753Y-90628918D01*
X103493006Y-91173378D01*
X103487907Y-91176842D01*
X102818439Y-91692504D01*
X102298452Y-92205737D01*
X101978742Y-92636594D01*
X101910104Y-92905125D01*
X102143336Y-92931381D01*
X102462686Y-92790460D01*
X102976892Y-92552541D01*
X103144759Y-92662837D01*
X103078890Y-93190209D01*
X102765777Y-93828351D01*
X102380703Y-94166024D01*
X101746592Y-94623463D01*
X101422662Y-95097522D01*
X101426944Y-95476981D01*
X101777470Y-95650620D01*
X102146053Y-95613305D01*
X102627917Y-95523858D01*
X102649291Y-95615075D01*
X102413421Y-95814322D01*
X102031129Y-96345905D01*
X101945527Y-96725607D01*
X101738907Y-97220577D01*
X101246779Y-97527968D01*
X100660737Y-97608490D01*
X100172378Y-97422850D01*
X99994165Y-97125790D01*
X99917174Y-96213010D01*
X100036090Y-95203199D01*
X100264675Y-94518627D01*
X100550156Y-93776348D01*
X100814179Y-92769935D01*
X100988706Y-91767956D01*
X101007274Y-91587253D01*
X101280075Y-91126709D01*
X102000597Y-90517677D01*
X102739619Y-90030196D01*
X104426560Y-88998519D01*
X104254725Y-89887154D01*
G36*
X103985199Y-96122240D02*
G01*
X104019322Y-96323684D01*
X103736649Y-96557628D01*
X103205858Y-96712809D01*
X102643287Y-96759760D01*
X102265275Y-96669011D01*
X102212895Y-96569756D01*
X102451227Y-96253987D01*
X103051719Y-96040025D01*
X103593885Y-95989474D01*
X103985199Y-96122240D01*
X103985199Y-96122240D01*
G37*
X103985199Y-96122240D02*
X104019322Y-96323684D01*
X103736649Y-96557628D01*
X103205858Y-96712809D01*
X102643287Y-96759760D01*
X102265275Y-96669011D01*
X102212895Y-96569756D01*
X102451227Y-96253987D01*
X103051719Y-96040025D01*
X103593885Y-95989474D01*
X103985199Y-96122240D01*
G36*
X82991381Y-83834458D02*
G01*
X83175619Y-83928932D01*
X83971906Y-84231845D01*
X85255425Y-84545522D01*
X87042430Y-84873408D01*
X89089505Y-85182781D01*
X90281180Y-85372088D01*
X91291396Y-85573361D01*
X91991386Y-85758607D01*
X92230020Y-85865527D01*
X92755735Y-86028460D01*
X93052122Y-85978622D01*
X93368901Y-85880015D01*
X93294982Y-86025798D01*
X93067646Y-86261252D01*
X92772411Y-86497186D01*
X92400281Y-86592445D01*
X91804710Y-86554980D01*
X90839150Y-86392744D01*
X90795015Y-86384562D01*
X89575976Y-86207754D01*
X88721880Y-86212901D01*
X88242895Y-86332771D01*
X87730288Y-86583663D01*
X87489369Y-86795576D01*
X87611068Y-86877617D01*
X87708158Y-86867286D01*
X88644151Y-86843835D01*
X89143858Y-87114243D01*
X89193865Y-87645073D01*
X88780758Y-88402887D01*
X88472774Y-88773244D01*
X87929073Y-89441745D01*
X87579029Y-90000194D01*
X87507632Y-90222725D01*
X87750015Y-90837143D01*
X88397774Y-91269908D01*
X89331827Y-91443702D01*
X89388901Y-91444211D01*
X90283940Y-91621625D01*
X90842087Y-92106899D01*
X90983421Y-92645003D01*
X90761853Y-92806662D01*
X90188104Y-93119718D01*
X89398606Y-93518313D01*
X88529792Y-93936589D01*
X87718095Y-94308688D01*
X87099947Y-94568751D01*
X86824398Y-94652632D01*
X86717748Y-94435200D01*
X86705527Y-94264123D01*
X86467674Y-93848439D01*
X85870763Y-93476189D01*
X85089760Y-93218356D01*
X84299634Y-93145919D01*
X84036066Y-93181178D01*
X83504354Y-93370883D01*
X83047046Y-93751696D01*
X82538569Y-94443605D01*
X82273976Y-94864929D01*
X81974628Y-94946741D01*
X81291292Y-95004260D01*
X80374222Y-95036229D01*
X79373669Y-95041390D01*
X78439887Y-95018485D01*
X77723129Y-94966259D01*
X77414474Y-94905594D01*
X76952636Y-94662924D01*
X76812895Y-94498958D01*
X77010106Y-94423677D01*
X77183183Y-94470145D01*
X77599577Y-94430990D01*
X78322342Y-94188936D01*
X79121604Y-93831335D01*
X80214410Y-93375730D01*
X81256036Y-93090640D01*
X81759211Y-93032479D01*
X82400498Y-93008530D01*
X82560497Y-92943231D01*
X82292623Y-92801098D01*
X82177718Y-92754452D01*
X81555096Y-92603885D01*
X81175087Y-92629324D01*
X80839543Y-92675931D01*
X80846158Y-92485453D01*
X81131966Y-92169830D01*
X81612249Y-91852129D01*
X82705594Y-91505803D01*
X83864185Y-91485965D01*
X84875792Y-91785516D01*
X85164109Y-91970952D01*
X85697223Y-92296726D01*
X86279940Y-92372230D01*
X87004902Y-92267615D01*
X88176053Y-92037536D01*
X87008554Y-92008242D01*
X86294782Y-91956694D01*
X85984891Y-91769081D01*
X86017766Y-91325490D01*
X86292219Y-90602694D01*
X86356084Y-90302637D01*
X86226896Y-90007855D01*
X85830235Y-89642562D01*
X85091684Y-89130976D01*
X84432895Y-88709264D01*
X83717288Y-88230065D01*
X83424371Y-87945991D01*
X83505399Y-87799795D01*
X83630790Y-87767245D01*
X84401506Y-87589002D01*
X84655833Y-87391622D01*
X84410564Y-87115251D01*
X83898158Y-86814364D01*
X83260558Y-86460439D01*
X83055173Y-86279678D01*
X83242464Y-86193473D01*
X83563948Y-86149957D01*
X84147212Y-86003063D01*
X84242403Y-85722958D01*
X83859872Y-85250073D01*
X83739709Y-85138641D01*
X83217625Y-84575545D01*
X82917366Y-84141175D01*
X82778652Y-83803068D01*
X82991381Y-83834458D01*
X82991381Y-83834458D01*
G37*
X82991381Y-83834458D02*
X83175619Y-83928932D01*
X83971906Y-84231845D01*
X85255425Y-84545522D01*
X87042430Y-84873408D01*
X89089505Y-85182781D01*
X90281180Y-85372088D01*
X91291396Y-85573361D01*
X91991386Y-85758607D01*
X92230020Y-85865527D01*
X92755735Y-86028460D01*
X93052122Y-85978622D01*
X93368901Y-85880015D01*
X93294982Y-86025798D01*
X93067646Y-86261252D01*
X92772411Y-86497186D01*
X92400281Y-86592445D01*
X91804710Y-86554980D01*
X90839150Y-86392744D01*
X90795015Y-86384562D01*
X89575976Y-86207754D01*
X88721880Y-86212901D01*
X88242895Y-86332771D01*
X87730288Y-86583663D01*
X87489369Y-86795576D01*
X87611068Y-86877617D01*
X87708158Y-86867286D01*
X88644151Y-86843835D01*
X89143858Y-87114243D01*
X89193865Y-87645073D01*
X88780758Y-88402887D01*
X88472774Y-88773244D01*
X87929073Y-89441745D01*
X87579029Y-90000194D01*
X87507632Y-90222725D01*
X87750015Y-90837143D01*
X88397774Y-91269908D01*
X89331827Y-91443702D01*
X89388901Y-91444211D01*
X90283940Y-91621625D01*
X90842087Y-92106899D01*
X90983421Y-92645003D01*
X90761853Y-92806662D01*
X90188104Y-93119718D01*
X89398606Y-93518313D01*
X88529792Y-93936589D01*
X87718095Y-94308688D01*
X87099947Y-94568751D01*
X86824398Y-94652632D01*
X86717748Y-94435200D01*
X86705527Y-94264123D01*
X86467674Y-93848439D01*
X85870763Y-93476189D01*
X85089760Y-93218356D01*
X84299634Y-93145919D01*
X84036066Y-93181178D01*
X83504354Y-93370883D01*
X83047046Y-93751696D01*
X82538569Y-94443605D01*
X82273976Y-94864929D01*
X81974628Y-94946741D01*
X81291292Y-95004260D01*
X80374222Y-95036229D01*
X79373669Y-95041390D01*
X78439887Y-95018485D01*
X77723129Y-94966259D01*
X77414474Y-94905594D01*
X76952636Y-94662924D01*
X76812895Y-94498958D01*
X77010106Y-94423677D01*
X77183183Y-94470145D01*
X77599577Y-94430990D01*
X78322342Y-94188936D01*
X79121604Y-93831335D01*
X80214410Y-93375730D01*
X81256036Y-93090640D01*
X81759211Y-93032479D01*
X82400498Y-93008530D01*
X82560497Y-92943231D01*
X82292623Y-92801098D01*
X82177718Y-92754452D01*
X81555096Y-92603885D01*
X81175087Y-92629324D01*
X80839543Y-92675931D01*
X80846158Y-92485453D01*
X81131966Y-92169830D01*
X81612249Y-91852129D01*
X82705594Y-91505803D01*
X83864185Y-91485965D01*
X84875792Y-91785516D01*
X85164109Y-91970952D01*
X85697223Y-92296726D01*
X86279940Y-92372230D01*
X87004902Y-92267615D01*
X88176053Y-92037536D01*
X87008554Y-92008242D01*
X86294782Y-91956694D01*
X85984891Y-91769081D01*
X86017766Y-91325490D01*
X86292219Y-90602694D01*
X86356084Y-90302637D01*
X86226896Y-90007855D01*
X85830235Y-89642562D01*
X85091684Y-89130976D01*
X84432895Y-88709264D01*
X83717288Y-88230065D01*
X83424371Y-87945991D01*
X83505399Y-87799795D01*
X83630790Y-87767245D01*
X84401506Y-87589002D01*
X84655833Y-87391622D01*
X84410564Y-87115251D01*
X83898158Y-86814364D01*
X83260558Y-86460439D01*
X83055173Y-86279678D01*
X83242464Y-86193473D01*
X83563948Y-86149957D01*
X84147212Y-86003063D01*
X84242403Y-85722958D01*
X83859872Y-85250073D01*
X83739709Y-85138641D01*
X83217625Y-84575545D01*
X82917366Y-84141175D01*
X82778652Y-83803068D01*
X82991381Y-83834458D01*
G36*
X95561901Y-91496183D02*
G01*
X95874991Y-91673147D01*
X96622351Y-92165927D01*
X94939202Y-92902347D01*
X93821938Y-93390359D01*
X93113106Y-93687763D01*
X92729963Y-93815349D01*
X92589766Y-93793910D01*
X92609773Y-93644238D01*
X92676039Y-93471053D01*
X92885236Y-92835166D01*
X93026034Y-92326376D01*
X93105983Y-91860684D01*
X92916208Y-91805735D01*
X92556999Y-91965258D01*
X91919211Y-92276509D01*
X92550410Y-91726676D01*
X93429972Y-91284028D01*
X94501250Y-91206111D01*
X95561901Y-91496183D01*
X95561901Y-91496183D01*
G37*
X95561901Y-91496183D02*
X95874991Y-91673147D01*
X96622351Y-92165927D01*
X94939202Y-92902347D01*
X93821938Y-93390359D01*
X93113106Y-93687763D01*
X92729963Y-93815349D01*
X92589766Y-93793910D01*
X92609773Y-93644238D01*
X92676039Y-93471053D01*
X92885236Y-92835166D01*
X93026034Y-92326376D01*
X93105983Y-91860684D01*
X92916208Y-91805735D01*
X92556999Y-91965258D01*
X91919211Y-92276509D01*
X92550410Y-91726676D01*
X93429972Y-91284028D01*
X94501250Y-91206111D01*
X95561901Y-91496183D01*
G36*
X94717920Y-86631436D02*
G01*
X95430087Y-87197311D01*
X95526469Y-87297641D01*
X96109698Y-87918461D01*
X94073975Y-88109224D01*
X92961838Y-88241424D01*
X92255538Y-88410341D01*
X91826186Y-88656215D01*
X91639454Y-88869350D01*
X91387010Y-89322490D01*
X91501054Y-89614063D01*
X91697878Y-89773040D01*
X92374690Y-90077091D01*
X93040376Y-89926801D01*
X93790790Y-89305263D01*
X94412698Y-88724434D01*
X94768349Y-88533833D01*
X94823729Y-88732529D01*
X94544822Y-89319589D01*
X94541169Y-89325820D01*
X93783226Y-90314450D01*
X92984107Y-90772749D01*
X92148197Y-90699432D01*
X91431912Y-90235985D01*
X90677244Y-89564899D01*
X91472146Y-88566134D01*
X92472858Y-87412149D01*
X93304156Y-86718564D01*
X94030893Y-86465090D01*
X94717920Y-86631436D01*
X94717920Y-86631436D01*
G37*
X94717920Y-86631436D02*
X95430087Y-87197311D01*
X95526469Y-87297641D01*
X96109698Y-87918461D01*
X94073975Y-88109224D01*
X92961838Y-88241424D01*
X92255538Y-88410341D01*
X91826186Y-88656215D01*
X91639454Y-88869350D01*
X91387010Y-89322490D01*
X91501054Y-89614063D01*
X91697878Y-89773040D01*
X92374690Y-90077091D01*
X93040376Y-89926801D01*
X93790790Y-89305263D01*
X94412698Y-88724434D01*
X94768349Y-88533833D01*
X94823729Y-88732529D01*
X94544822Y-89319589D01*
X94541169Y-89325820D01*
X93783226Y-90314450D01*
X92984107Y-90772749D01*
X92148197Y-90699432D01*
X91431912Y-90235985D01*
X90677244Y-89564899D01*
X91472146Y-88566134D01*
X92472858Y-87412149D01*
X93304156Y-86718564D01*
X94030893Y-86465090D01*
X94717920Y-86631436D01*
G36*
X93311295Y-88546391D02*
G01*
X93096566Y-88767421D01*
X92855000Y-88924838D01*
X92405521Y-89203820D01*
X92406450Y-89259984D01*
X92821641Y-89154088D01*
X93265689Y-89099142D01*
X93273756Y-89276619D01*
X92862602Y-89546852D01*
X92374153Y-89485521D01*
X92194870Y-89318678D01*
X92270362Y-89014242D01*
X92562566Y-88783941D01*
X93111917Y-88541598D01*
X93311295Y-88546391D01*
X93311295Y-88546391D01*
G37*
X93311295Y-88546391D02*
X93096566Y-88767421D01*
X92855000Y-88924838D01*
X92405521Y-89203820D01*
X92406450Y-89259984D01*
X92821641Y-89154088D01*
X93265689Y-89099142D01*
X93273756Y-89276619D01*
X92862602Y-89546852D01*
X92374153Y-89485521D01*
X92194870Y-89318678D01*
X92270362Y-89014242D01*
X92562566Y-88783941D01*
X93111917Y-88541598D01*
X93311295Y-88546391D01*
G36*
X90388899Y-86853276D02*
G01*
X90609445Y-87069126D01*
X90694327Y-87046059D01*
X90870059Y-87141533D01*
X90894298Y-87311761D01*
X90723343Y-87651411D01*
X90327626Y-87634520D01*
X89933702Y-87323803D01*
X89760548Y-86954029D01*
X89952027Y-86741729D01*
X90301502Y-86727749D01*
X90388899Y-86853276D01*
X90388899Y-86853276D01*
G37*
X90388899Y-86853276D02*
X90609445Y-87069126D01*
X90694327Y-87046059D01*
X90870059Y-87141533D01*
X90894298Y-87311761D01*
X90723343Y-87651411D01*
X90327626Y-87634520D01*
X89933702Y-87323803D01*
X89760548Y-86954029D01*
X89952027Y-86741729D01*
X90301502Y-86727749D01*
X90388899Y-86853276D01*
D12*
X77875714Y-155992380D02*
X77304285Y-155992380D01*
X77590000Y-155992380D02*
X77590000Y-154992380D01*
X77494761Y-155135238D01*
X77399523Y-155230476D01*
X77304285Y-155278095D01*
X79804285Y-155087619D02*
X79851904Y-155040000D01*
X79947142Y-154992380D01*
X80185238Y-154992380D01*
X80280476Y-155040000D01*
X80328095Y-155087619D01*
X80375714Y-155182857D01*
X80375714Y-155278095D01*
X80328095Y-155420952D01*
X79756666Y-155992380D01*
X80375714Y-155992380D01*
X82256666Y-154992380D02*
X82875714Y-154992380D01*
X82542380Y-155373333D01*
X82685238Y-155373333D01*
X82780476Y-155420952D01*
X82828095Y-155468571D01*
X82875714Y-155563809D01*
X82875714Y-155801904D01*
X82828095Y-155897142D01*
X82780476Y-155944761D01*
X82685238Y-155992380D01*
X82399523Y-155992380D01*
X82304285Y-155944761D01*
X82256666Y-155897142D01*
X85280476Y-155325714D02*
X85280476Y-155992380D01*
X85042380Y-154944761D02*
X84804285Y-155659047D01*
X85423333Y-155659047D01*
X87828095Y-154992380D02*
X87351904Y-154992380D01*
X87304285Y-155468571D01*
X87351904Y-155420952D01*
X87447142Y-155373333D01*
X87685238Y-155373333D01*
X87780476Y-155420952D01*
X87828095Y-155468571D01*
X87875714Y-155563809D01*
X87875714Y-155801904D01*
X87828095Y-155897142D01*
X87780476Y-155944761D01*
X87685238Y-155992380D01*
X87447142Y-155992380D01*
X87351904Y-155944761D01*
X87304285Y-155897142D01*
X111608095Y-151774761D02*
X111750952Y-151822380D01*
X111989047Y-151822380D01*
X112084285Y-151774761D01*
X112131904Y-151727142D01*
X112179523Y-151631904D01*
X112179523Y-151536666D01*
X112131904Y-151441428D01*
X112084285Y-151393809D01*
X111989047Y-151346190D01*
X111798571Y-151298571D01*
X111703333Y-151250952D01*
X111655714Y-151203333D01*
X111608095Y-151108095D01*
X111608095Y-151012857D01*
X111655714Y-150917619D01*
X111703333Y-150870000D01*
X111798571Y-150822380D01*
X112036666Y-150822380D01*
X112179523Y-150870000D01*
X112608095Y-151822380D02*
X112608095Y-150822380D01*
X112941428Y-151536666D01*
X113274761Y-150822380D01*
X113274761Y-151822380D01*
X113703333Y-151536666D02*
X114179523Y-151536666D01*
X113608095Y-151822380D02*
X113941428Y-150822380D01*
X114274761Y-151822380D01*
X114560476Y-150917619D02*
X114608095Y-150870000D01*
X114703333Y-150822380D01*
X114941428Y-150822380D01*
X115036666Y-150870000D01*
X115084285Y-150917619D01*
X115131904Y-151012857D01*
X115131904Y-151108095D01*
X115084285Y-151250952D01*
X114512857Y-151822380D01*
X115131904Y-151822380D01*
X66737857Y-61540714D02*
X65537857Y-61540714D01*
X65537857Y-61083571D01*
X65595000Y-60969285D01*
X65652142Y-60912142D01*
X65766428Y-60855000D01*
X65937857Y-60855000D01*
X66052142Y-60912142D01*
X66109285Y-60969285D01*
X66166428Y-61083571D01*
X66166428Y-61540714D01*
X65537857Y-60455000D02*
X65537857Y-59712142D01*
X65995000Y-60112142D01*
X65995000Y-59940714D01*
X66052142Y-59826428D01*
X66109285Y-59769285D01*
X66223571Y-59712142D01*
X66509285Y-59712142D01*
X66623571Y-59769285D01*
X66680714Y-59826428D01*
X66737857Y-59940714D01*
X66737857Y-60283571D01*
X66680714Y-60397857D01*
X66623571Y-60455000D01*
X64929285Y-79587857D02*
X64929285Y-78387857D01*
X65386428Y-78387857D01*
X65500714Y-78445000D01*
X65557857Y-78502142D01*
X65615000Y-78616428D01*
X65615000Y-78787857D01*
X65557857Y-78902142D01*
X65500714Y-78959285D01*
X65386428Y-79016428D01*
X64929285Y-79016428D01*
X66072142Y-78502142D02*
X66129285Y-78445000D01*
X66243571Y-78387857D01*
X66529285Y-78387857D01*
X66643571Y-78445000D01*
X66700714Y-78502142D01*
X66757857Y-78616428D01*
X66757857Y-78730714D01*
X66700714Y-78902142D01*
X66015000Y-79587857D01*
X66757857Y-79587857D01*
X66737857Y-135530714D02*
X65537857Y-135530714D01*
X65537857Y-135073571D01*
X65595000Y-134959285D01*
X65652142Y-134902142D01*
X65766428Y-134845000D01*
X65937857Y-134845000D01*
X66052142Y-134902142D01*
X66109285Y-134959285D01*
X66166428Y-135073571D01*
X66166428Y-135530714D01*
X65937857Y-133816428D02*
X66737857Y-133816428D01*
X65480714Y-134102142D02*
X66337857Y-134387857D01*
X66337857Y-133645000D01*
X109579285Y-79587857D02*
X109579285Y-78387857D01*
X110036428Y-78387857D01*
X110150714Y-78445000D01*
X110207857Y-78502142D01*
X110265000Y-78616428D01*
X110265000Y-78787857D01*
X110207857Y-78902142D01*
X110150714Y-78959285D01*
X110036428Y-79016428D01*
X109579285Y-79016428D01*
X111407857Y-79587857D02*
X110722142Y-79587857D01*
X111065000Y-79587857D02*
X111065000Y-78387857D01*
X110950714Y-78559285D01*
X110836428Y-78673571D01*
X110722142Y-78730714D01*
X101518095Y-151834761D02*
X101660952Y-151882380D01*
X101899047Y-151882380D01*
X101994285Y-151834761D01*
X102041904Y-151787142D01*
X102089523Y-151691904D01*
X102089523Y-151596666D01*
X102041904Y-151501428D01*
X101994285Y-151453809D01*
X101899047Y-151406190D01*
X101708571Y-151358571D01*
X101613333Y-151310952D01*
X101565714Y-151263333D01*
X101518095Y-151168095D01*
X101518095Y-151072857D01*
X101565714Y-150977619D01*
X101613333Y-150930000D01*
X101708571Y-150882380D01*
X101946666Y-150882380D01*
X102089523Y-150930000D01*
X102518095Y-151882380D02*
X102518095Y-150882380D01*
X102851428Y-151596666D01*
X103184761Y-150882380D01*
X103184761Y-151882380D01*
X103613333Y-151596666D02*
X104089523Y-151596666D01*
X103518095Y-151882380D02*
X103851428Y-150882380D01*
X104184761Y-151882380D01*
X105041904Y-151882380D02*
X104470476Y-151882380D01*
X104756190Y-151882380D02*
X104756190Y-150882380D01*
X104660952Y-151025238D01*
X104565714Y-151120476D01*
X104470476Y-151168095D01*
M02*
