%TF.GenerationSoftware,KiCad,Pcbnew,(5.1.10)-1*%
%TF.CreationDate,2021-11-05T18:24:08-05:00*%
%TF.ProjectId,payload_board,7061796c-6f61-4645-9f62-6f6172642e6b,3*%
%TF.SameCoordinates,Original*%
%TF.FileFunction,Copper,L3,Inr*%
%TF.FilePolarity,Positive*%
%FSLAX46Y46*%
G04 Gerber Fmt 4.6, Leading zero omitted, Abs format (unit mm)*
G04 Created by KiCad (PCBNEW (5.1.10)-1) date 2021-11-05 18:24:08*
%MOMM*%
%LPD*%
G01*
G04 APERTURE LIST*
%TA.AperFunction,ComponentPad*%
%ADD10C,1.524000*%
%TD*%
%TA.AperFunction,ComponentPad*%
%ADD11C,0.808000*%
%TD*%
%TA.AperFunction,ComponentPad*%
%ADD12O,1.700000X1.700000*%
%TD*%
%TA.AperFunction,ComponentPad*%
%ADD13R,1.700000X1.700000*%
%TD*%
%TA.AperFunction,ComponentPad*%
%ADD14C,1.000000*%
%TD*%
%TA.AperFunction,ComponentPad*%
%ADD15C,1.500000*%
%TD*%
%TA.AperFunction,ComponentPad*%
%ADD16C,6.000000*%
%TD*%
%TA.AperFunction,ComponentPad*%
%ADD17C,4.000000*%
%TD*%
%TA.AperFunction,ComponentPad*%
%ADD18C,7.400000*%
%TD*%
%TA.AperFunction,ComponentPad*%
%ADD19C,4.400000*%
%TD*%
%TA.AperFunction,ViaPad*%
%ADD20C,0.355600*%
%TD*%
%TA.AperFunction,Conductor*%
%ADD21C,0.254000*%
%TD*%
%TA.AperFunction,Conductor*%
%ADD22C,0.100000*%
%TD*%
G04 APERTURE END LIST*
D10*
X65570800Y-60655000D03*
X109919200Y-60655000D03*
X65815000Y-78420800D03*
X65815000Y-122769200D03*
X65605800Y-134020000D03*
X109954200Y-134020000D03*
X110465000Y-78420800D03*
X110465000Y-122769200D03*
D11*
X54686300Y-111615100D03*
X54686300Y-110700700D03*
X60528300Y-109532300D03*
X60528300Y-108617900D03*
D12*
X95450000Y-153130000D03*
X92910000Y-153130000D03*
X90370000Y-153130000D03*
X87830000Y-153130000D03*
X85290000Y-153130000D03*
X82750000Y-153130000D03*
D13*
X80210000Y-153130000D03*
D14*
X68010000Y-142430000D03*
X68010000Y-139870000D03*
X65450000Y-139870000D03*
X65450000Y-142430000D03*
D15*
X66730000Y-141150000D03*
D14*
X91840000Y-84620000D03*
X91840000Y-82060000D03*
X89280000Y-82060000D03*
X89280000Y-84620000D03*
D15*
X90560000Y-83340000D03*
D16*
X115120000Y-146160000D03*
X115120000Y-53960000D03*
D17*
X120870000Y-146480000D03*
X120870000Y-54630000D03*
D18*
X60970000Y-146160000D03*
X60970000Y-53960000D03*
D19*
X54130000Y-146480000D03*
X120870000Y-100560000D03*
X54130000Y-100560000D03*
X54130000Y-54630000D03*
D20*
X71020000Y-90020000D03*
X105410000Y-88900000D03*
X71160000Y-118440000D03*
X77490000Y-126700000D03*
X93360000Y-113910000D03*
X94620000Y-84620000D03*
D21*
X58397837Y-50825811D02*
X57835811Y-51387837D01*
X57394229Y-52048711D01*
X57090062Y-52783034D01*
X56935000Y-53562587D01*
X56935000Y-54357413D01*
X57090062Y-55136966D01*
X57394229Y-55871289D01*
X57835811Y-56532163D01*
X58397837Y-57094189D01*
X59058711Y-57535771D01*
X59793034Y-57839938D01*
X60572587Y-57995000D01*
X61367413Y-57995000D01*
X62146966Y-57839938D01*
X62881289Y-57535771D01*
X63542163Y-57094189D01*
X64104189Y-56532163D01*
X64545771Y-55871289D01*
X64849938Y-55136966D01*
X65005000Y-54357413D01*
X65005000Y-53631531D01*
X111785000Y-53631531D01*
X111785000Y-54288469D01*
X111913162Y-54932784D01*
X112164561Y-55539715D01*
X112529536Y-56085939D01*
X112994061Y-56550464D01*
X113540285Y-56915439D01*
X114147216Y-57166838D01*
X114791531Y-57295000D01*
X115448469Y-57295000D01*
X116092784Y-57166838D01*
X116699715Y-56915439D01*
X117245939Y-56550464D01*
X117710464Y-56085939D01*
X118075439Y-55539715D01*
X118326838Y-54932784D01*
X118432810Y-54400023D01*
X118535000Y-54400023D01*
X118535000Y-54859977D01*
X118624733Y-55311094D01*
X118800750Y-55736037D01*
X119056287Y-56118476D01*
X119381524Y-56443713D01*
X119763963Y-56699250D01*
X120188906Y-56875267D01*
X120640023Y-56965000D01*
X121099977Y-56965000D01*
X121551094Y-56875267D01*
X121976037Y-56699250D01*
X122358476Y-56443713D01*
X122683713Y-56118476D01*
X122939250Y-55736037D01*
X123115267Y-55311094D01*
X123205000Y-54859977D01*
X123205000Y-54400023D01*
X123115267Y-53948906D01*
X122939250Y-53523963D01*
X122683713Y-53141524D01*
X122358476Y-52816287D01*
X121976037Y-52560750D01*
X121551094Y-52384733D01*
X121099977Y-52295000D01*
X120640023Y-52295000D01*
X120188906Y-52384733D01*
X119763963Y-52560750D01*
X119381524Y-52816287D01*
X119056287Y-53141524D01*
X118800750Y-53523963D01*
X118624733Y-53948906D01*
X118535000Y-54400023D01*
X118432810Y-54400023D01*
X118455000Y-54288469D01*
X118455000Y-53631531D01*
X118326838Y-52987216D01*
X118075439Y-52380285D01*
X117710464Y-51834061D01*
X117245939Y-51369536D01*
X116699715Y-51004561D01*
X116092784Y-50753162D01*
X115448469Y-50625000D01*
X114791531Y-50625000D01*
X114147216Y-50753162D01*
X113540285Y-51004561D01*
X112994061Y-51369536D01*
X112529536Y-51834061D01*
X112164561Y-52380285D01*
X111913162Y-52987216D01*
X111785000Y-53631531D01*
X65005000Y-53631531D01*
X65005000Y-53562587D01*
X64849938Y-52783034D01*
X64545771Y-52048711D01*
X64104189Y-51387837D01*
X63542163Y-50825811D01*
X62919858Y-50410000D01*
X124590000Y-50410000D01*
X124590001Y-156590000D01*
X50410000Y-156590000D01*
X50410000Y-152280000D01*
X79023380Y-152280000D01*
X79023380Y-153980000D01*
X79029848Y-154045671D01*
X79049004Y-154108819D01*
X79080111Y-154167016D01*
X79121974Y-154218026D01*
X79172984Y-154259889D01*
X79231181Y-154290996D01*
X79294329Y-154310152D01*
X79360000Y-154316620D01*
X81060000Y-154316620D01*
X81125671Y-154310152D01*
X81188819Y-154290996D01*
X81247016Y-154259889D01*
X81298026Y-154218026D01*
X81339889Y-154167016D01*
X81370996Y-154108819D01*
X81390152Y-154045671D01*
X81396620Y-153980000D01*
X81396620Y-153013288D01*
X81565000Y-153013288D01*
X81565000Y-153246712D01*
X81610539Y-153475652D01*
X81699866Y-153691308D01*
X81829550Y-153885394D01*
X81994606Y-154050450D01*
X82188692Y-154180134D01*
X82404348Y-154269461D01*
X82633288Y-154315000D01*
X82866712Y-154315000D01*
X83095652Y-154269461D01*
X83311308Y-154180134D01*
X83505394Y-154050450D01*
X83670450Y-153885394D01*
X83800134Y-153691308D01*
X83889461Y-153475652D01*
X83935000Y-153246712D01*
X83935000Y-153013288D01*
X84105000Y-153013288D01*
X84105000Y-153246712D01*
X84150539Y-153475652D01*
X84239866Y-153691308D01*
X84369550Y-153885394D01*
X84534606Y-154050450D01*
X84728692Y-154180134D01*
X84944348Y-154269461D01*
X85173288Y-154315000D01*
X85406712Y-154315000D01*
X85635652Y-154269461D01*
X85851308Y-154180134D01*
X86045394Y-154050450D01*
X86210450Y-153885394D01*
X86340134Y-153691308D01*
X86429461Y-153475652D01*
X86475000Y-153246712D01*
X86475000Y-153013288D01*
X86645000Y-153013288D01*
X86645000Y-153246712D01*
X86690539Y-153475652D01*
X86779866Y-153691308D01*
X86909550Y-153885394D01*
X87074606Y-154050450D01*
X87268692Y-154180134D01*
X87484348Y-154269461D01*
X87713288Y-154315000D01*
X87946712Y-154315000D01*
X88175652Y-154269461D01*
X88391308Y-154180134D01*
X88585394Y-154050450D01*
X88750450Y-153885394D01*
X88880134Y-153691308D01*
X88969461Y-153475652D01*
X89015000Y-153246712D01*
X89015000Y-153013288D01*
X89185000Y-153013288D01*
X89185000Y-153246712D01*
X89230539Y-153475652D01*
X89319866Y-153691308D01*
X89449550Y-153885394D01*
X89614606Y-154050450D01*
X89808692Y-154180134D01*
X90024348Y-154269461D01*
X90253288Y-154315000D01*
X90486712Y-154315000D01*
X90715652Y-154269461D01*
X90931308Y-154180134D01*
X91125394Y-154050450D01*
X91290450Y-153885394D01*
X91420134Y-153691308D01*
X91509461Y-153475652D01*
X91555000Y-153246712D01*
X91555000Y-153013288D01*
X91725000Y-153013288D01*
X91725000Y-153246712D01*
X91770539Y-153475652D01*
X91859866Y-153691308D01*
X91989550Y-153885394D01*
X92154606Y-154050450D01*
X92348692Y-154180134D01*
X92564348Y-154269461D01*
X92793288Y-154315000D01*
X93026712Y-154315000D01*
X93255652Y-154269461D01*
X93471308Y-154180134D01*
X93665394Y-154050450D01*
X93830450Y-153885394D01*
X93960134Y-153691308D01*
X94049461Y-153475652D01*
X94095000Y-153246712D01*
X94095000Y-153013288D01*
X94265000Y-153013288D01*
X94265000Y-153246712D01*
X94310539Y-153475652D01*
X94399866Y-153691308D01*
X94529550Y-153885394D01*
X94694606Y-154050450D01*
X94888692Y-154180134D01*
X95104348Y-154269461D01*
X95333288Y-154315000D01*
X95566712Y-154315000D01*
X95795652Y-154269461D01*
X96011308Y-154180134D01*
X96205394Y-154050450D01*
X96370450Y-153885394D01*
X96500134Y-153691308D01*
X96589461Y-153475652D01*
X96635000Y-153246712D01*
X96635000Y-153013288D01*
X96589461Y-152784348D01*
X96500134Y-152568692D01*
X96370450Y-152374606D01*
X96205394Y-152209550D01*
X96011308Y-152079866D01*
X95795652Y-151990539D01*
X95566712Y-151945000D01*
X95333288Y-151945000D01*
X95104348Y-151990539D01*
X94888692Y-152079866D01*
X94694606Y-152209550D01*
X94529550Y-152374606D01*
X94399866Y-152568692D01*
X94310539Y-152784348D01*
X94265000Y-153013288D01*
X94095000Y-153013288D01*
X94049461Y-152784348D01*
X93960134Y-152568692D01*
X93830450Y-152374606D01*
X93665394Y-152209550D01*
X93471308Y-152079866D01*
X93255652Y-151990539D01*
X93026712Y-151945000D01*
X92793288Y-151945000D01*
X92564348Y-151990539D01*
X92348692Y-152079866D01*
X92154606Y-152209550D01*
X91989550Y-152374606D01*
X91859866Y-152568692D01*
X91770539Y-152784348D01*
X91725000Y-153013288D01*
X91555000Y-153013288D01*
X91509461Y-152784348D01*
X91420134Y-152568692D01*
X91290450Y-152374606D01*
X91125394Y-152209550D01*
X90931308Y-152079866D01*
X90715652Y-151990539D01*
X90486712Y-151945000D01*
X90253288Y-151945000D01*
X90024348Y-151990539D01*
X89808692Y-152079866D01*
X89614606Y-152209550D01*
X89449550Y-152374606D01*
X89319866Y-152568692D01*
X89230539Y-152784348D01*
X89185000Y-153013288D01*
X89015000Y-153013288D01*
X88969461Y-152784348D01*
X88880134Y-152568692D01*
X88750450Y-152374606D01*
X88585394Y-152209550D01*
X88391308Y-152079866D01*
X88175652Y-151990539D01*
X87946712Y-151945000D01*
X87713288Y-151945000D01*
X87484348Y-151990539D01*
X87268692Y-152079866D01*
X87074606Y-152209550D01*
X86909550Y-152374606D01*
X86779866Y-152568692D01*
X86690539Y-152784348D01*
X86645000Y-153013288D01*
X86475000Y-153013288D01*
X86429461Y-152784348D01*
X86340134Y-152568692D01*
X86210450Y-152374606D01*
X86045394Y-152209550D01*
X85851308Y-152079866D01*
X85635652Y-151990539D01*
X85406712Y-151945000D01*
X85173288Y-151945000D01*
X84944348Y-151990539D01*
X84728692Y-152079866D01*
X84534606Y-152209550D01*
X84369550Y-152374606D01*
X84239866Y-152568692D01*
X84150539Y-152784348D01*
X84105000Y-153013288D01*
X83935000Y-153013288D01*
X83889461Y-152784348D01*
X83800134Y-152568692D01*
X83670450Y-152374606D01*
X83505394Y-152209550D01*
X83311308Y-152079866D01*
X83095652Y-151990539D01*
X82866712Y-151945000D01*
X82633288Y-151945000D01*
X82404348Y-151990539D01*
X82188692Y-152079866D01*
X81994606Y-152209550D01*
X81829550Y-152374606D01*
X81699866Y-152568692D01*
X81610539Y-152784348D01*
X81565000Y-153013288D01*
X81396620Y-153013288D01*
X81396620Y-152280000D01*
X81390152Y-152214329D01*
X81370996Y-152151181D01*
X81339889Y-152092984D01*
X81298026Y-152041974D01*
X81247016Y-152000111D01*
X81188819Y-151969004D01*
X81125671Y-151949848D01*
X81060000Y-151943380D01*
X79360000Y-151943380D01*
X79294329Y-151949848D01*
X79231181Y-151969004D01*
X79172984Y-152000111D01*
X79121974Y-152041974D01*
X79080111Y-152092984D01*
X79049004Y-152151181D01*
X79029848Y-152214329D01*
X79023380Y-152280000D01*
X50410000Y-152280000D01*
X50410000Y-146230324D01*
X51595000Y-146230324D01*
X51595000Y-146729676D01*
X51692418Y-147219432D01*
X51883512Y-147680773D01*
X52160937Y-148095968D01*
X52514032Y-148449063D01*
X52929227Y-148726488D01*
X53390568Y-148917582D01*
X53880324Y-149015000D01*
X54379676Y-149015000D01*
X54869432Y-148917582D01*
X55330773Y-148726488D01*
X55745968Y-148449063D01*
X56099063Y-148095968D01*
X56376488Y-147680773D01*
X56567582Y-147219432D01*
X56665000Y-146729676D01*
X56665000Y-146230324D01*
X56571962Y-145762587D01*
X56935000Y-145762587D01*
X56935000Y-146557413D01*
X57090062Y-147336966D01*
X57394229Y-148071289D01*
X57835811Y-148732163D01*
X58397837Y-149294189D01*
X59058711Y-149735771D01*
X59793034Y-150039938D01*
X60572587Y-150195000D01*
X61367413Y-150195000D01*
X62146966Y-150039938D01*
X62881289Y-149735771D01*
X63542163Y-149294189D01*
X64104189Y-148732163D01*
X64545771Y-148071289D01*
X64849938Y-147336966D01*
X65005000Y-146557413D01*
X65005000Y-145831531D01*
X111785000Y-145831531D01*
X111785000Y-146488469D01*
X111913162Y-147132784D01*
X112164561Y-147739715D01*
X112529536Y-148285939D01*
X112994061Y-148750464D01*
X113540285Y-149115439D01*
X114147216Y-149366838D01*
X114791531Y-149495000D01*
X115448469Y-149495000D01*
X116092784Y-149366838D01*
X116699715Y-149115439D01*
X117245939Y-148750464D01*
X117710464Y-148285939D01*
X118075439Y-147739715D01*
X118326838Y-147132784D01*
X118455000Y-146488469D01*
X118455000Y-146250023D01*
X118535000Y-146250023D01*
X118535000Y-146709977D01*
X118624733Y-147161094D01*
X118800750Y-147586037D01*
X119056287Y-147968476D01*
X119381524Y-148293713D01*
X119763963Y-148549250D01*
X120188906Y-148725267D01*
X120640023Y-148815000D01*
X121099977Y-148815000D01*
X121551094Y-148725267D01*
X121976037Y-148549250D01*
X122358476Y-148293713D01*
X122683713Y-147968476D01*
X122939250Y-147586037D01*
X123115267Y-147161094D01*
X123205000Y-146709977D01*
X123205000Y-146250023D01*
X123115267Y-145798906D01*
X122939250Y-145373963D01*
X122683713Y-144991524D01*
X122358476Y-144666287D01*
X121976037Y-144410750D01*
X121551094Y-144234733D01*
X121099977Y-144145000D01*
X120640023Y-144145000D01*
X120188906Y-144234733D01*
X119763963Y-144410750D01*
X119381524Y-144666287D01*
X119056287Y-144991524D01*
X118800750Y-145373963D01*
X118624733Y-145798906D01*
X118535000Y-146250023D01*
X118455000Y-146250023D01*
X118455000Y-145831531D01*
X118326838Y-145187216D01*
X118075439Y-144580285D01*
X117710464Y-144034061D01*
X117245939Y-143569536D01*
X116699715Y-143204561D01*
X116092784Y-142953162D01*
X115448469Y-142825000D01*
X114791531Y-142825000D01*
X114147216Y-142953162D01*
X113540285Y-143204561D01*
X112994061Y-143569536D01*
X112529536Y-144034061D01*
X112164561Y-144580285D01*
X111913162Y-145187216D01*
X111785000Y-145831531D01*
X65005000Y-145831531D01*
X65005000Y-145762587D01*
X64849938Y-144983034D01*
X64545771Y-144248711D01*
X64104189Y-143587837D01*
X63724518Y-143208166D01*
X64851439Y-143208166D01*
X64886550Y-143421588D01*
X65090826Y-143512458D01*
X65308905Y-143561731D01*
X65532406Y-143567511D01*
X65752740Y-143529577D01*
X65961440Y-143449387D01*
X66013450Y-143421588D01*
X66048561Y-143208166D01*
X67411439Y-143208166D01*
X67446550Y-143421588D01*
X67650826Y-143512458D01*
X67868905Y-143561731D01*
X68092406Y-143567511D01*
X68312740Y-143529577D01*
X68521440Y-143449387D01*
X68573450Y-143421588D01*
X68608561Y-143208166D01*
X68010000Y-142609605D01*
X67411439Y-143208166D01*
X66048561Y-143208166D01*
X65450000Y-142609605D01*
X64851439Y-143208166D01*
X63724518Y-143208166D01*
X63542163Y-143025811D01*
X62881289Y-142584229D01*
X62707894Y-142512406D01*
X64312489Y-142512406D01*
X64350423Y-142732740D01*
X64430613Y-142941440D01*
X64458412Y-142993450D01*
X64671834Y-143028561D01*
X65270395Y-142430000D01*
X64671834Y-141831439D01*
X64458412Y-141866550D01*
X64367542Y-142070826D01*
X64318269Y-142288905D01*
X64312489Y-142512406D01*
X62707894Y-142512406D01*
X62146966Y-142280062D01*
X61367413Y-142125000D01*
X60572587Y-142125000D01*
X59793034Y-142280062D01*
X59058711Y-142584229D01*
X58397837Y-143025811D01*
X57835811Y-143587837D01*
X57394229Y-144248711D01*
X57090062Y-144983034D01*
X56935000Y-145762587D01*
X56571962Y-145762587D01*
X56567582Y-145740568D01*
X56376488Y-145279227D01*
X56099063Y-144864032D01*
X55745968Y-144510937D01*
X55330773Y-144233512D01*
X54869432Y-144042418D01*
X54379676Y-143945000D01*
X53880324Y-143945000D01*
X53390568Y-144042418D01*
X52929227Y-144233512D01*
X52514032Y-144510937D01*
X52160937Y-144864032D01*
X51883512Y-145279227D01*
X51692418Y-145740568D01*
X51595000Y-146230324D01*
X50410000Y-146230324D01*
X50410000Y-140648166D01*
X64851439Y-140648166D01*
X64886550Y-140861588D01*
X65090826Y-140952458D01*
X65308905Y-141001731D01*
X65532406Y-141007511D01*
X65656330Y-140986175D01*
X65645000Y-141043137D01*
X65645000Y-141256863D01*
X65656160Y-141312970D01*
X65591095Y-141298269D01*
X65367594Y-141292489D01*
X65147260Y-141330423D01*
X64938560Y-141410613D01*
X64886550Y-141438412D01*
X64851439Y-141651834D01*
X65450000Y-142250395D01*
X65464143Y-142236253D01*
X65643748Y-142415858D01*
X65629605Y-142430000D01*
X66228166Y-143028561D01*
X66441588Y-142993450D01*
X66532458Y-142789174D01*
X66581731Y-142571095D01*
X66587511Y-142347594D01*
X66566175Y-142223670D01*
X66623137Y-142235000D01*
X66836863Y-142235000D01*
X66892970Y-142223840D01*
X66878269Y-142288905D01*
X66872489Y-142512406D01*
X66910423Y-142732740D01*
X66990613Y-142941440D01*
X67018412Y-142993450D01*
X67231834Y-143028561D01*
X67830395Y-142430000D01*
X68189605Y-142430000D01*
X68788166Y-143028561D01*
X69001588Y-142993450D01*
X69092458Y-142789174D01*
X69141731Y-142571095D01*
X69147511Y-142347594D01*
X69109577Y-142127260D01*
X69029387Y-141918560D01*
X69001588Y-141866550D01*
X68788166Y-141831439D01*
X68189605Y-142430000D01*
X67830395Y-142430000D01*
X67816253Y-142415858D01*
X67995858Y-142236253D01*
X68010000Y-142250395D01*
X68608561Y-141651834D01*
X68573450Y-141438412D01*
X68369174Y-141347542D01*
X68151095Y-141298269D01*
X67927594Y-141292489D01*
X67803670Y-141313825D01*
X67815000Y-141256863D01*
X67815000Y-141043137D01*
X67803840Y-140987030D01*
X67868905Y-141001731D01*
X68092406Y-141007511D01*
X68312740Y-140969577D01*
X68521440Y-140889387D01*
X68573450Y-140861588D01*
X68608561Y-140648166D01*
X68010000Y-140049605D01*
X67995858Y-140063748D01*
X67816253Y-139884143D01*
X67830395Y-139870000D01*
X68189605Y-139870000D01*
X68788166Y-140468561D01*
X69001588Y-140433450D01*
X69092458Y-140229174D01*
X69141731Y-140011095D01*
X69147511Y-139787594D01*
X69109577Y-139567260D01*
X69029387Y-139358560D01*
X69001588Y-139306550D01*
X68788166Y-139271439D01*
X68189605Y-139870000D01*
X67830395Y-139870000D01*
X67231834Y-139271439D01*
X67018412Y-139306550D01*
X66927542Y-139510826D01*
X66878269Y-139728905D01*
X66872489Y-139952406D01*
X66893825Y-140076330D01*
X66836863Y-140065000D01*
X66623137Y-140065000D01*
X66567030Y-140076160D01*
X66581731Y-140011095D01*
X66587511Y-139787594D01*
X66549577Y-139567260D01*
X66469387Y-139358560D01*
X66441588Y-139306550D01*
X66228166Y-139271439D01*
X65629605Y-139870000D01*
X65643748Y-139884143D01*
X65464143Y-140063748D01*
X65450000Y-140049605D01*
X64851439Y-140648166D01*
X50410000Y-140648166D01*
X50410000Y-139952406D01*
X64312489Y-139952406D01*
X64350423Y-140172740D01*
X64430613Y-140381440D01*
X64458412Y-140433450D01*
X64671834Y-140468561D01*
X65270395Y-139870000D01*
X64671834Y-139271439D01*
X64458412Y-139306550D01*
X64367542Y-139510826D01*
X64318269Y-139728905D01*
X64312489Y-139952406D01*
X50410000Y-139952406D01*
X50410000Y-139091834D01*
X64851439Y-139091834D01*
X65450000Y-139690395D01*
X66048561Y-139091834D01*
X67411439Y-139091834D01*
X68010000Y-139690395D01*
X68608561Y-139091834D01*
X68573450Y-138878412D01*
X68369174Y-138787542D01*
X68151095Y-138738269D01*
X67927594Y-138732489D01*
X67707260Y-138770423D01*
X67498560Y-138850613D01*
X67446550Y-138878412D01*
X67411439Y-139091834D01*
X66048561Y-139091834D01*
X66013450Y-138878412D01*
X65809174Y-138787542D01*
X65591095Y-138738269D01*
X65367594Y-138732489D01*
X65147260Y-138770423D01*
X64938560Y-138850613D01*
X64886550Y-138878412D01*
X64851439Y-139091834D01*
X50410000Y-139091834D01*
X50410000Y-133911955D01*
X64508800Y-133911955D01*
X64508800Y-134128045D01*
X64550957Y-134339983D01*
X64633651Y-134539624D01*
X64753704Y-134719297D01*
X64906503Y-134872096D01*
X65086176Y-134992149D01*
X65285817Y-135074843D01*
X65497755Y-135117000D01*
X65713845Y-135117000D01*
X65925783Y-135074843D01*
X66125424Y-134992149D01*
X66305097Y-134872096D01*
X66457896Y-134719297D01*
X66577949Y-134539624D01*
X66660643Y-134339983D01*
X66702800Y-134128045D01*
X66702800Y-133911955D01*
X108857200Y-133911955D01*
X108857200Y-134128045D01*
X108899357Y-134339983D01*
X108982051Y-134539624D01*
X109102104Y-134719297D01*
X109254903Y-134872096D01*
X109434576Y-134992149D01*
X109634217Y-135074843D01*
X109846155Y-135117000D01*
X110062245Y-135117000D01*
X110274183Y-135074843D01*
X110473824Y-134992149D01*
X110653497Y-134872096D01*
X110806296Y-134719297D01*
X110926349Y-134539624D01*
X111009043Y-134339983D01*
X111051200Y-134128045D01*
X111051200Y-133911955D01*
X111009043Y-133700017D01*
X110926349Y-133500376D01*
X110806296Y-133320703D01*
X110653497Y-133167904D01*
X110473824Y-133047851D01*
X110274183Y-132965157D01*
X110062245Y-132923000D01*
X109846155Y-132923000D01*
X109634217Y-132965157D01*
X109434576Y-133047851D01*
X109254903Y-133167904D01*
X109102104Y-133320703D01*
X108982051Y-133500376D01*
X108899357Y-133700017D01*
X108857200Y-133911955D01*
X66702800Y-133911955D01*
X66660643Y-133700017D01*
X66577949Y-133500376D01*
X66457896Y-133320703D01*
X66305097Y-133167904D01*
X66125424Y-133047851D01*
X65925783Y-132965157D01*
X65713845Y-132923000D01*
X65497755Y-132923000D01*
X65285817Y-132965157D01*
X65086176Y-133047851D01*
X64906503Y-133167904D01*
X64753704Y-133320703D01*
X64633651Y-133500376D01*
X64550957Y-133700017D01*
X64508800Y-133911955D01*
X50410000Y-133911955D01*
X50410000Y-122661155D01*
X64718000Y-122661155D01*
X64718000Y-122877245D01*
X64760157Y-123089183D01*
X64842851Y-123288824D01*
X64962904Y-123468497D01*
X65115703Y-123621296D01*
X65295376Y-123741349D01*
X65495017Y-123824043D01*
X65706955Y-123866200D01*
X65923045Y-123866200D01*
X66134983Y-123824043D01*
X66334624Y-123741349D01*
X66514297Y-123621296D01*
X66667096Y-123468497D01*
X66787149Y-123288824D01*
X66869843Y-123089183D01*
X66912000Y-122877245D01*
X66912000Y-122661155D01*
X109368000Y-122661155D01*
X109368000Y-122877245D01*
X109410157Y-123089183D01*
X109492851Y-123288824D01*
X109612904Y-123468497D01*
X109765703Y-123621296D01*
X109945376Y-123741349D01*
X110145017Y-123824043D01*
X110356955Y-123866200D01*
X110573045Y-123866200D01*
X110784983Y-123824043D01*
X110984624Y-123741349D01*
X111164297Y-123621296D01*
X111317096Y-123468497D01*
X111437149Y-123288824D01*
X111519843Y-123089183D01*
X111562000Y-122877245D01*
X111562000Y-122661155D01*
X111519843Y-122449217D01*
X111437149Y-122249576D01*
X111317096Y-122069903D01*
X111164297Y-121917104D01*
X110984624Y-121797051D01*
X110784983Y-121714357D01*
X110573045Y-121672200D01*
X110356955Y-121672200D01*
X110145017Y-121714357D01*
X109945376Y-121797051D01*
X109765703Y-121917104D01*
X109612904Y-122069903D01*
X109492851Y-122249576D01*
X109410157Y-122449217D01*
X109368000Y-122661155D01*
X66912000Y-122661155D01*
X66869843Y-122449217D01*
X66787149Y-122249576D01*
X66667096Y-122069903D01*
X66514297Y-121917104D01*
X66334624Y-121797051D01*
X66134983Y-121714357D01*
X65923045Y-121672200D01*
X65706955Y-121672200D01*
X65495017Y-121714357D01*
X65295376Y-121797051D01*
X65115703Y-121917104D01*
X64962904Y-122069903D01*
X64842851Y-122249576D01*
X64760157Y-122449217D01*
X64718000Y-122661155D01*
X50410000Y-122661155D01*
X50410000Y-118389494D01*
X70647200Y-118389494D01*
X70647200Y-118490506D01*
X70666907Y-118589578D01*
X70705563Y-118682902D01*
X70761682Y-118766891D01*
X70833109Y-118838318D01*
X70917098Y-118894437D01*
X71010422Y-118933093D01*
X71109494Y-118952800D01*
X71210506Y-118952800D01*
X71309578Y-118933093D01*
X71402902Y-118894437D01*
X71486891Y-118838318D01*
X71558318Y-118766891D01*
X71614437Y-118682902D01*
X71653093Y-118589578D01*
X71672800Y-118490506D01*
X71672800Y-118389494D01*
X71653093Y-118290422D01*
X71614437Y-118197098D01*
X71558318Y-118113109D01*
X71486891Y-118041682D01*
X71402902Y-117985563D01*
X71309578Y-117946907D01*
X71210506Y-117927200D01*
X71109494Y-117927200D01*
X71010422Y-117946907D01*
X70917098Y-117985563D01*
X70833109Y-118041682D01*
X70761682Y-118113109D01*
X70705563Y-118197098D01*
X70666907Y-118290422D01*
X70647200Y-118389494D01*
X50410000Y-118389494D01*
X50410000Y-100310324D01*
X51595000Y-100310324D01*
X51595000Y-100809676D01*
X51692418Y-101299432D01*
X51883512Y-101760773D01*
X52160937Y-102175968D01*
X52514032Y-102529063D01*
X52929227Y-102806488D01*
X53390568Y-102997582D01*
X53880324Y-103095000D01*
X54379676Y-103095000D01*
X54869432Y-102997582D01*
X55330773Y-102806488D01*
X55745968Y-102529063D01*
X56099063Y-102175968D01*
X56376488Y-101760773D01*
X56567582Y-101299432D01*
X56665000Y-100809676D01*
X56665000Y-100310324D01*
X118335000Y-100310324D01*
X118335000Y-100809676D01*
X118432418Y-101299432D01*
X118623512Y-101760773D01*
X118900937Y-102175968D01*
X119254032Y-102529063D01*
X119669227Y-102806488D01*
X120130568Y-102997582D01*
X120620324Y-103095000D01*
X121119676Y-103095000D01*
X121609432Y-102997582D01*
X122070773Y-102806488D01*
X122485968Y-102529063D01*
X122839063Y-102175968D01*
X123116488Y-101760773D01*
X123307582Y-101299432D01*
X123405000Y-100809676D01*
X123405000Y-100310324D01*
X123307582Y-99820568D01*
X123116488Y-99359227D01*
X122839063Y-98944032D01*
X122485968Y-98590937D01*
X122070773Y-98313512D01*
X121609432Y-98122418D01*
X121119676Y-98025000D01*
X120620324Y-98025000D01*
X120130568Y-98122418D01*
X119669227Y-98313512D01*
X119254032Y-98590937D01*
X118900937Y-98944032D01*
X118623512Y-99359227D01*
X118432418Y-99820568D01*
X118335000Y-100310324D01*
X56665000Y-100310324D01*
X56567582Y-99820568D01*
X56376488Y-99359227D01*
X56099063Y-98944032D01*
X55745968Y-98590937D01*
X55330773Y-98313512D01*
X54869432Y-98122418D01*
X54379676Y-98025000D01*
X53880324Y-98025000D01*
X53390568Y-98122418D01*
X52929227Y-98313512D01*
X52514032Y-98590937D01*
X52160937Y-98944032D01*
X51883512Y-99359227D01*
X51692418Y-99820568D01*
X51595000Y-100310324D01*
X50410000Y-100310324D01*
X50410000Y-89969494D01*
X70507200Y-89969494D01*
X70507200Y-90070506D01*
X70526907Y-90169578D01*
X70565563Y-90262902D01*
X70621682Y-90346891D01*
X70693109Y-90418318D01*
X70777098Y-90474437D01*
X70870422Y-90513093D01*
X70969494Y-90532800D01*
X71070506Y-90532800D01*
X71169578Y-90513093D01*
X71262902Y-90474437D01*
X71346891Y-90418318D01*
X71418318Y-90346891D01*
X71474437Y-90262902D01*
X71513093Y-90169578D01*
X71532800Y-90070506D01*
X71532800Y-89969494D01*
X71513093Y-89870422D01*
X71474437Y-89777098D01*
X71418318Y-89693109D01*
X71346891Y-89621682D01*
X71262902Y-89565563D01*
X71169578Y-89526907D01*
X71070506Y-89507200D01*
X70969494Y-89507200D01*
X70870422Y-89526907D01*
X70777098Y-89565563D01*
X70693109Y-89621682D01*
X70621682Y-89693109D01*
X70565563Y-89777098D01*
X70526907Y-89870422D01*
X70507200Y-89969494D01*
X50410000Y-89969494D01*
X50410000Y-88849494D01*
X104897200Y-88849494D01*
X104897200Y-88950506D01*
X104916907Y-89049578D01*
X104955563Y-89142902D01*
X105011682Y-89226891D01*
X105083109Y-89298318D01*
X105167098Y-89354437D01*
X105260422Y-89393093D01*
X105359494Y-89412800D01*
X105460506Y-89412800D01*
X105559578Y-89393093D01*
X105652902Y-89354437D01*
X105736891Y-89298318D01*
X105808318Y-89226891D01*
X105864437Y-89142902D01*
X105903093Y-89049578D01*
X105922800Y-88950506D01*
X105922800Y-88849494D01*
X105903093Y-88750422D01*
X105864437Y-88657098D01*
X105808318Y-88573109D01*
X105736891Y-88501682D01*
X105652902Y-88445563D01*
X105559578Y-88406907D01*
X105460506Y-88387200D01*
X105359494Y-88387200D01*
X105260422Y-88406907D01*
X105167098Y-88445563D01*
X105083109Y-88501682D01*
X105011682Y-88573109D01*
X104955563Y-88657098D01*
X104916907Y-88750422D01*
X104897200Y-88849494D01*
X50410000Y-88849494D01*
X50410000Y-85398166D01*
X88681439Y-85398166D01*
X88716550Y-85611588D01*
X88920826Y-85702458D01*
X89138905Y-85751731D01*
X89362406Y-85757511D01*
X89582740Y-85719577D01*
X89791440Y-85639387D01*
X89843450Y-85611588D01*
X89878561Y-85398166D01*
X91241439Y-85398166D01*
X91276550Y-85611588D01*
X91480826Y-85702458D01*
X91698905Y-85751731D01*
X91922406Y-85757511D01*
X92142740Y-85719577D01*
X92351440Y-85639387D01*
X92403450Y-85611588D01*
X92438561Y-85398166D01*
X91840000Y-84799605D01*
X91241439Y-85398166D01*
X89878561Y-85398166D01*
X89280000Y-84799605D01*
X88681439Y-85398166D01*
X50410000Y-85398166D01*
X50410000Y-84702406D01*
X88142489Y-84702406D01*
X88180423Y-84922740D01*
X88260613Y-85131440D01*
X88288412Y-85183450D01*
X88501834Y-85218561D01*
X89100395Y-84620000D01*
X88501834Y-84021439D01*
X88288412Y-84056550D01*
X88197542Y-84260826D01*
X88148269Y-84478905D01*
X88142489Y-84702406D01*
X50410000Y-84702406D01*
X50410000Y-82838166D01*
X88681439Y-82838166D01*
X88716550Y-83051588D01*
X88920826Y-83142458D01*
X89138905Y-83191731D01*
X89362406Y-83197511D01*
X89486330Y-83176175D01*
X89475000Y-83233137D01*
X89475000Y-83446863D01*
X89486160Y-83502970D01*
X89421095Y-83488269D01*
X89197594Y-83482489D01*
X88977260Y-83520423D01*
X88768560Y-83600613D01*
X88716550Y-83628412D01*
X88681439Y-83841834D01*
X89280000Y-84440395D01*
X89294143Y-84426253D01*
X89473748Y-84605858D01*
X89459605Y-84620000D01*
X90058166Y-85218561D01*
X90271588Y-85183450D01*
X90362458Y-84979174D01*
X90411731Y-84761095D01*
X90417511Y-84537594D01*
X90396175Y-84413670D01*
X90453137Y-84425000D01*
X90666863Y-84425000D01*
X90722970Y-84413840D01*
X90708269Y-84478905D01*
X90702489Y-84702406D01*
X90740423Y-84922740D01*
X90820613Y-85131440D01*
X90848412Y-85183450D01*
X91061834Y-85218561D01*
X91660395Y-84620000D01*
X92019605Y-84620000D01*
X92618166Y-85218561D01*
X92831588Y-85183450D01*
X92922458Y-84979174D01*
X92971731Y-84761095D01*
X92977511Y-84537594D01*
X92939577Y-84317260D01*
X92859387Y-84108560D01*
X92831588Y-84056550D01*
X92618166Y-84021439D01*
X92019605Y-84620000D01*
X91660395Y-84620000D01*
X91646253Y-84605858D01*
X91825858Y-84426253D01*
X91840000Y-84440395D01*
X92438561Y-83841834D01*
X92403450Y-83628412D01*
X92199174Y-83537542D01*
X91981095Y-83488269D01*
X91757594Y-83482489D01*
X91633670Y-83503825D01*
X91645000Y-83446863D01*
X91645000Y-83233137D01*
X91633840Y-83177030D01*
X91698905Y-83191731D01*
X91922406Y-83197511D01*
X92142740Y-83159577D01*
X92351440Y-83079387D01*
X92403450Y-83051588D01*
X92438561Y-82838166D01*
X91840000Y-82239605D01*
X91825858Y-82253748D01*
X91646253Y-82074143D01*
X91660395Y-82060000D01*
X92019605Y-82060000D01*
X92618166Y-82658561D01*
X92831588Y-82623450D01*
X92922458Y-82419174D01*
X92971731Y-82201095D01*
X92977511Y-81977594D01*
X92939577Y-81757260D01*
X92859387Y-81548560D01*
X92831588Y-81496550D01*
X92618166Y-81461439D01*
X92019605Y-82060000D01*
X91660395Y-82060000D01*
X91061834Y-81461439D01*
X90848412Y-81496550D01*
X90757542Y-81700826D01*
X90708269Y-81918905D01*
X90702489Y-82142406D01*
X90723825Y-82266330D01*
X90666863Y-82255000D01*
X90453137Y-82255000D01*
X90397030Y-82266160D01*
X90411731Y-82201095D01*
X90417511Y-81977594D01*
X90379577Y-81757260D01*
X90299387Y-81548560D01*
X90271588Y-81496550D01*
X90058166Y-81461439D01*
X89459605Y-82060000D01*
X89473748Y-82074143D01*
X89294143Y-82253748D01*
X89280000Y-82239605D01*
X88681439Y-82838166D01*
X50410000Y-82838166D01*
X50410000Y-82142406D01*
X88142489Y-82142406D01*
X88180423Y-82362740D01*
X88260613Y-82571440D01*
X88288412Y-82623450D01*
X88501834Y-82658561D01*
X89100395Y-82060000D01*
X88501834Y-81461439D01*
X88288412Y-81496550D01*
X88197542Y-81700826D01*
X88148269Y-81918905D01*
X88142489Y-82142406D01*
X50410000Y-82142406D01*
X50410000Y-81281834D01*
X88681439Y-81281834D01*
X89280000Y-81880395D01*
X89878561Y-81281834D01*
X91241439Y-81281834D01*
X91840000Y-81880395D01*
X92438561Y-81281834D01*
X92403450Y-81068412D01*
X92199174Y-80977542D01*
X91981095Y-80928269D01*
X91757594Y-80922489D01*
X91537260Y-80960423D01*
X91328560Y-81040613D01*
X91276550Y-81068412D01*
X91241439Y-81281834D01*
X89878561Y-81281834D01*
X89843450Y-81068412D01*
X89639174Y-80977542D01*
X89421095Y-80928269D01*
X89197594Y-80922489D01*
X88977260Y-80960423D01*
X88768560Y-81040613D01*
X88716550Y-81068412D01*
X88681439Y-81281834D01*
X50410000Y-81281834D01*
X50410000Y-78312755D01*
X64718000Y-78312755D01*
X64718000Y-78528845D01*
X64760157Y-78740783D01*
X64842851Y-78940424D01*
X64962904Y-79120097D01*
X65115703Y-79272896D01*
X65295376Y-79392949D01*
X65495017Y-79475643D01*
X65706955Y-79517800D01*
X65923045Y-79517800D01*
X66134983Y-79475643D01*
X66334624Y-79392949D01*
X66514297Y-79272896D01*
X66667096Y-79120097D01*
X66787149Y-78940424D01*
X66869843Y-78740783D01*
X66912000Y-78528845D01*
X66912000Y-78312755D01*
X109368000Y-78312755D01*
X109368000Y-78528845D01*
X109410157Y-78740783D01*
X109492851Y-78940424D01*
X109612904Y-79120097D01*
X109765703Y-79272896D01*
X109945376Y-79392949D01*
X110145017Y-79475643D01*
X110356955Y-79517800D01*
X110573045Y-79517800D01*
X110784983Y-79475643D01*
X110984624Y-79392949D01*
X111164297Y-79272896D01*
X111317096Y-79120097D01*
X111437149Y-78940424D01*
X111519843Y-78740783D01*
X111562000Y-78528845D01*
X111562000Y-78312755D01*
X111519843Y-78100817D01*
X111437149Y-77901176D01*
X111317096Y-77721503D01*
X111164297Y-77568704D01*
X110984624Y-77448651D01*
X110784983Y-77365957D01*
X110573045Y-77323800D01*
X110356955Y-77323800D01*
X110145017Y-77365957D01*
X109945376Y-77448651D01*
X109765703Y-77568704D01*
X109612904Y-77721503D01*
X109492851Y-77901176D01*
X109410157Y-78100817D01*
X109368000Y-78312755D01*
X66912000Y-78312755D01*
X66869843Y-78100817D01*
X66787149Y-77901176D01*
X66667096Y-77721503D01*
X66514297Y-77568704D01*
X66334624Y-77448651D01*
X66134983Y-77365957D01*
X65923045Y-77323800D01*
X65706955Y-77323800D01*
X65495017Y-77365957D01*
X65295376Y-77448651D01*
X65115703Y-77568704D01*
X64962904Y-77721503D01*
X64842851Y-77901176D01*
X64760157Y-78100817D01*
X64718000Y-78312755D01*
X50410000Y-78312755D01*
X50410000Y-60546955D01*
X64473800Y-60546955D01*
X64473800Y-60763045D01*
X64515957Y-60974983D01*
X64598651Y-61174624D01*
X64718704Y-61354297D01*
X64871503Y-61507096D01*
X65051176Y-61627149D01*
X65250817Y-61709843D01*
X65462755Y-61752000D01*
X65678845Y-61752000D01*
X65890783Y-61709843D01*
X66090424Y-61627149D01*
X66270097Y-61507096D01*
X66422896Y-61354297D01*
X66542949Y-61174624D01*
X66625643Y-60974983D01*
X66667800Y-60763045D01*
X66667800Y-60546955D01*
X108822200Y-60546955D01*
X108822200Y-60763045D01*
X108864357Y-60974983D01*
X108947051Y-61174624D01*
X109067104Y-61354297D01*
X109219903Y-61507096D01*
X109399576Y-61627149D01*
X109599217Y-61709843D01*
X109811155Y-61752000D01*
X110027245Y-61752000D01*
X110239183Y-61709843D01*
X110438824Y-61627149D01*
X110618497Y-61507096D01*
X110771296Y-61354297D01*
X110891349Y-61174624D01*
X110974043Y-60974983D01*
X111016200Y-60763045D01*
X111016200Y-60546955D01*
X110974043Y-60335017D01*
X110891349Y-60135376D01*
X110771296Y-59955703D01*
X110618497Y-59802904D01*
X110438824Y-59682851D01*
X110239183Y-59600157D01*
X110027245Y-59558000D01*
X109811155Y-59558000D01*
X109599217Y-59600157D01*
X109399576Y-59682851D01*
X109219903Y-59802904D01*
X109067104Y-59955703D01*
X108947051Y-60135376D01*
X108864357Y-60335017D01*
X108822200Y-60546955D01*
X66667800Y-60546955D01*
X66625643Y-60335017D01*
X66542949Y-60135376D01*
X66422896Y-59955703D01*
X66270097Y-59802904D01*
X66090424Y-59682851D01*
X65890783Y-59600157D01*
X65678845Y-59558000D01*
X65462755Y-59558000D01*
X65250817Y-59600157D01*
X65051176Y-59682851D01*
X64871503Y-59802904D01*
X64718704Y-59955703D01*
X64598651Y-60135376D01*
X64515957Y-60335017D01*
X64473800Y-60546955D01*
X50410000Y-60546955D01*
X50410000Y-54380324D01*
X51595000Y-54380324D01*
X51595000Y-54879676D01*
X51692418Y-55369432D01*
X51883512Y-55830773D01*
X52160937Y-56245968D01*
X52514032Y-56599063D01*
X52929227Y-56876488D01*
X53390568Y-57067582D01*
X53880324Y-57165000D01*
X54379676Y-57165000D01*
X54869432Y-57067582D01*
X55330773Y-56876488D01*
X55745968Y-56599063D01*
X56099063Y-56245968D01*
X56376488Y-55830773D01*
X56567582Y-55369432D01*
X56665000Y-54879676D01*
X56665000Y-54380324D01*
X56567582Y-53890568D01*
X56376488Y-53429227D01*
X56099063Y-53014032D01*
X55745968Y-52660937D01*
X55330773Y-52383512D01*
X54869432Y-52192418D01*
X54379676Y-52095000D01*
X53880324Y-52095000D01*
X53390568Y-52192418D01*
X52929227Y-52383512D01*
X52514032Y-52660937D01*
X52160937Y-53014032D01*
X51883512Y-53429227D01*
X51692418Y-53890568D01*
X51595000Y-54380324D01*
X50410000Y-54380324D01*
X50410000Y-50410000D01*
X59020142Y-50410000D01*
X58397837Y-50825811D01*
%TA.AperFunction,Conductor*%
D22*
G36*
X58397837Y-50825811D02*
G01*
X57835811Y-51387837D01*
X57394229Y-52048711D01*
X57090062Y-52783034D01*
X56935000Y-53562587D01*
X56935000Y-54357413D01*
X57090062Y-55136966D01*
X57394229Y-55871289D01*
X57835811Y-56532163D01*
X58397837Y-57094189D01*
X59058711Y-57535771D01*
X59793034Y-57839938D01*
X60572587Y-57995000D01*
X61367413Y-57995000D01*
X62146966Y-57839938D01*
X62881289Y-57535771D01*
X63542163Y-57094189D01*
X64104189Y-56532163D01*
X64545771Y-55871289D01*
X64849938Y-55136966D01*
X65005000Y-54357413D01*
X65005000Y-53631531D01*
X111785000Y-53631531D01*
X111785000Y-54288469D01*
X111913162Y-54932784D01*
X112164561Y-55539715D01*
X112529536Y-56085939D01*
X112994061Y-56550464D01*
X113540285Y-56915439D01*
X114147216Y-57166838D01*
X114791531Y-57295000D01*
X115448469Y-57295000D01*
X116092784Y-57166838D01*
X116699715Y-56915439D01*
X117245939Y-56550464D01*
X117710464Y-56085939D01*
X118075439Y-55539715D01*
X118326838Y-54932784D01*
X118432810Y-54400023D01*
X118535000Y-54400023D01*
X118535000Y-54859977D01*
X118624733Y-55311094D01*
X118800750Y-55736037D01*
X119056287Y-56118476D01*
X119381524Y-56443713D01*
X119763963Y-56699250D01*
X120188906Y-56875267D01*
X120640023Y-56965000D01*
X121099977Y-56965000D01*
X121551094Y-56875267D01*
X121976037Y-56699250D01*
X122358476Y-56443713D01*
X122683713Y-56118476D01*
X122939250Y-55736037D01*
X123115267Y-55311094D01*
X123205000Y-54859977D01*
X123205000Y-54400023D01*
X123115267Y-53948906D01*
X122939250Y-53523963D01*
X122683713Y-53141524D01*
X122358476Y-52816287D01*
X121976037Y-52560750D01*
X121551094Y-52384733D01*
X121099977Y-52295000D01*
X120640023Y-52295000D01*
X120188906Y-52384733D01*
X119763963Y-52560750D01*
X119381524Y-52816287D01*
X119056287Y-53141524D01*
X118800750Y-53523963D01*
X118624733Y-53948906D01*
X118535000Y-54400023D01*
X118432810Y-54400023D01*
X118455000Y-54288469D01*
X118455000Y-53631531D01*
X118326838Y-52987216D01*
X118075439Y-52380285D01*
X117710464Y-51834061D01*
X117245939Y-51369536D01*
X116699715Y-51004561D01*
X116092784Y-50753162D01*
X115448469Y-50625000D01*
X114791531Y-50625000D01*
X114147216Y-50753162D01*
X113540285Y-51004561D01*
X112994061Y-51369536D01*
X112529536Y-51834061D01*
X112164561Y-52380285D01*
X111913162Y-52987216D01*
X111785000Y-53631531D01*
X65005000Y-53631531D01*
X65005000Y-53562587D01*
X64849938Y-52783034D01*
X64545771Y-52048711D01*
X64104189Y-51387837D01*
X63542163Y-50825811D01*
X62919858Y-50410000D01*
X124590000Y-50410000D01*
X124590001Y-156590000D01*
X50410000Y-156590000D01*
X50410000Y-152280000D01*
X79023380Y-152280000D01*
X79023380Y-153980000D01*
X79029848Y-154045671D01*
X79049004Y-154108819D01*
X79080111Y-154167016D01*
X79121974Y-154218026D01*
X79172984Y-154259889D01*
X79231181Y-154290996D01*
X79294329Y-154310152D01*
X79360000Y-154316620D01*
X81060000Y-154316620D01*
X81125671Y-154310152D01*
X81188819Y-154290996D01*
X81247016Y-154259889D01*
X81298026Y-154218026D01*
X81339889Y-154167016D01*
X81370996Y-154108819D01*
X81390152Y-154045671D01*
X81396620Y-153980000D01*
X81396620Y-153013288D01*
X81565000Y-153013288D01*
X81565000Y-153246712D01*
X81610539Y-153475652D01*
X81699866Y-153691308D01*
X81829550Y-153885394D01*
X81994606Y-154050450D01*
X82188692Y-154180134D01*
X82404348Y-154269461D01*
X82633288Y-154315000D01*
X82866712Y-154315000D01*
X83095652Y-154269461D01*
X83311308Y-154180134D01*
X83505394Y-154050450D01*
X83670450Y-153885394D01*
X83800134Y-153691308D01*
X83889461Y-153475652D01*
X83935000Y-153246712D01*
X83935000Y-153013288D01*
X84105000Y-153013288D01*
X84105000Y-153246712D01*
X84150539Y-153475652D01*
X84239866Y-153691308D01*
X84369550Y-153885394D01*
X84534606Y-154050450D01*
X84728692Y-154180134D01*
X84944348Y-154269461D01*
X85173288Y-154315000D01*
X85406712Y-154315000D01*
X85635652Y-154269461D01*
X85851308Y-154180134D01*
X86045394Y-154050450D01*
X86210450Y-153885394D01*
X86340134Y-153691308D01*
X86429461Y-153475652D01*
X86475000Y-153246712D01*
X86475000Y-153013288D01*
X86645000Y-153013288D01*
X86645000Y-153246712D01*
X86690539Y-153475652D01*
X86779866Y-153691308D01*
X86909550Y-153885394D01*
X87074606Y-154050450D01*
X87268692Y-154180134D01*
X87484348Y-154269461D01*
X87713288Y-154315000D01*
X87946712Y-154315000D01*
X88175652Y-154269461D01*
X88391308Y-154180134D01*
X88585394Y-154050450D01*
X88750450Y-153885394D01*
X88880134Y-153691308D01*
X88969461Y-153475652D01*
X89015000Y-153246712D01*
X89015000Y-153013288D01*
X89185000Y-153013288D01*
X89185000Y-153246712D01*
X89230539Y-153475652D01*
X89319866Y-153691308D01*
X89449550Y-153885394D01*
X89614606Y-154050450D01*
X89808692Y-154180134D01*
X90024348Y-154269461D01*
X90253288Y-154315000D01*
X90486712Y-154315000D01*
X90715652Y-154269461D01*
X90931308Y-154180134D01*
X91125394Y-154050450D01*
X91290450Y-153885394D01*
X91420134Y-153691308D01*
X91509461Y-153475652D01*
X91555000Y-153246712D01*
X91555000Y-153013288D01*
X91725000Y-153013288D01*
X91725000Y-153246712D01*
X91770539Y-153475652D01*
X91859866Y-153691308D01*
X91989550Y-153885394D01*
X92154606Y-154050450D01*
X92348692Y-154180134D01*
X92564348Y-154269461D01*
X92793288Y-154315000D01*
X93026712Y-154315000D01*
X93255652Y-154269461D01*
X93471308Y-154180134D01*
X93665394Y-154050450D01*
X93830450Y-153885394D01*
X93960134Y-153691308D01*
X94049461Y-153475652D01*
X94095000Y-153246712D01*
X94095000Y-153013288D01*
X94265000Y-153013288D01*
X94265000Y-153246712D01*
X94310539Y-153475652D01*
X94399866Y-153691308D01*
X94529550Y-153885394D01*
X94694606Y-154050450D01*
X94888692Y-154180134D01*
X95104348Y-154269461D01*
X95333288Y-154315000D01*
X95566712Y-154315000D01*
X95795652Y-154269461D01*
X96011308Y-154180134D01*
X96205394Y-154050450D01*
X96370450Y-153885394D01*
X96500134Y-153691308D01*
X96589461Y-153475652D01*
X96635000Y-153246712D01*
X96635000Y-153013288D01*
X96589461Y-152784348D01*
X96500134Y-152568692D01*
X96370450Y-152374606D01*
X96205394Y-152209550D01*
X96011308Y-152079866D01*
X95795652Y-151990539D01*
X95566712Y-151945000D01*
X95333288Y-151945000D01*
X95104348Y-151990539D01*
X94888692Y-152079866D01*
X94694606Y-152209550D01*
X94529550Y-152374606D01*
X94399866Y-152568692D01*
X94310539Y-152784348D01*
X94265000Y-153013288D01*
X94095000Y-153013288D01*
X94049461Y-152784348D01*
X93960134Y-152568692D01*
X93830450Y-152374606D01*
X93665394Y-152209550D01*
X93471308Y-152079866D01*
X93255652Y-151990539D01*
X93026712Y-151945000D01*
X92793288Y-151945000D01*
X92564348Y-151990539D01*
X92348692Y-152079866D01*
X92154606Y-152209550D01*
X91989550Y-152374606D01*
X91859866Y-152568692D01*
X91770539Y-152784348D01*
X91725000Y-153013288D01*
X91555000Y-153013288D01*
X91509461Y-152784348D01*
X91420134Y-152568692D01*
X91290450Y-152374606D01*
X91125394Y-152209550D01*
X90931308Y-152079866D01*
X90715652Y-151990539D01*
X90486712Y-151945000D01*
X90253288Y-151945000D01*
X90024348Y-151990539D01*
X89808692Y-152079866D01*
X89614606Y-152209550D01*
X89449550Y-152374606D01*
X89319866Y-152568692D01*
X89230539Y-152784348D01*
X89185000Y-153013288D01*
X89015000Y-153013288D01*
X88969461Y-152784348D01*
X88880134Y-152568692D01*
X88750450Y-152374606D01*
X88585394Y-152209550D01*
X88391308Y-152079866D01*
X88175652Y-151990539D01*
X87946712Y-151945000D01*
X87713288Y-151945000D01*
X87484348Y-151990539D01*
X87268692Y-152079866D01*
X87074606Y-152209550D01*
X86909550Y-152374606D01*
X86779866Y-152568692D01*
X86690539Y-152784348D01*
X86645000Y-153013288D01*
X86475000Y-153013288D01*
X86429461Y-152784348D01*
X86340134Y-152568692D01*
X86210450Y-152374606D01*
X86045394Y-152209550D01*
X85851308Y-152079866D01*
X85635652Y-151990539D01*
X85406712Y-151945000D01*
X85173288Y-151945000D01*
X84944348Y-151990539D01*
X84728692Y-152079866D01*
X84534606Y-152209550D01*
X84369550Y-152374606D01*
X84239866Y-152568692D01*
X84150539Y-152784348D01*
X84105000Y-153013288D01*
X83935000Y-153013288D01*
X83889461Y-152784348D01*
X83800134Y-152568692D01*
X83670450Y-152374606D01*
X83505394Y-152209550D01*
X83311308Y-152079866D01*
X83095652Y-151990539D01*
X82866712Y-151945000D01*
X82633288Y-151945000D01*
X82404348Y-151990539D01*
X82188692Y-152079866D01*
X81994606Y-152209550D01*
X81829550Y-152374606D01*
X81699866Y-152568692D01*
X81610539Y-152784348D01*
X81565000Y-153013288D01*
X81396620Y-153013288D01*
X81396620Y-152280000D01*
X81390152Y-152214329D01*
X81370996Y-152151181D01*
X81339889Y-152092984D01*
X81298026Y-152041974D01*
X81247016Y-152000111D01*
X81188819Y-151969004D01*
X81125671Y-151949848D01*
X81060000Y-151943380D01*
X79360000Y-151943380D01*
X79294329Y-151949848D01*
X79231181Y-151969004D01*
X79172984Y-152000111D01*
X79121974Y-152041974D01*
X79080111Y-152092984D01*
X79049004Y-152151181D01*
X79029848Y-152214329D01*
X79023380Y-152280000D01*
X50410000Y-152280000D01*
X50410000Y-146230324D01*
X51595000Y-146230324D01*
X51595000Y-146729676D01*
X51692418Y-147219432D01*
X51883512Y-147680773D01*
X52160937Y-148095968D01*
X52514032Y-148449063D01*
X52929227Y-148726488D01*
X53390568Y-148917582D01*
X53880324Y-149015000D01*
X54379676Y-149015000D01*
X54869432Y-148917582D01*
X55330773Y-148726488D01*
X55745968Y-148449063D01*
X56099063Y-148095968D01*
X56376488Y-147680773D01*
X56567582Y-147219432D01*
X56665000Y-146729676D01*
X56665000Y-146230324D01*
X56571962Y-145762587D01*
X56935000Y-145762587D01*
X56935000Y-146557413D01*
X57090062Y-147336966D01*
X57394229Y-148071289D01*
X57835811Y-148732163D01*
X58397837Y-149294189D01*
X59058711Y-149735771D01*
X59793034Y-150039938D01*
X60572587Y-150195000D01*
X61367413Y-150195000D01*
X62146966Y-150039938D01*
X62881289Y-149735771D01*
X63542163Y-149294189D01*
X64104189Y-148732163D01*
X64545771Y-148071289D01*
X64849938Y-147336966D01*
X65005000Y-146557413D01*
X65005000Y-145831531D01*
X111785000Y-145831531D01*
X111785000Y-146488469D01*
X111913162Y-147132784D01*
X112164561Y-147739715D01*
X112529536Y-148285939D01*
X112994061Y-148750464D01*
X113540285Y-149115439D01*
X114147216Y-149366838D01*
X114791531Y-149495000D01*
X115448469Y-149495000D01*
X116092784Y-149366838D01*
X116699715Y-149115439D01*
X117245939Y-148750464D01*
X117710464Y-148285939D01*
X118075439Y-147739715D01*
X118326838Y-147132784D01*
X118455000Y-146488469D01*
X118455000Y-146250023D01*
X118535000Y-146250023D01*
X118535000Y-146709977D01*
X118624733Y-147161094D01*
X118800750Y-147586037D01*
X119056287Y-147968476D01*
X119381524Y-148293713D01*
X119763963Y-148549250D01*
X120188906Y-148725267D01*
X120640023Y-148815000D01*
X121099977Y-148815000D01*
X121551094Y-148725267D01*
X121976037Y-148549250D01*
X122358476Y-148293713D01*
X122683713Y-147968476D01*
X122939250Y-147586037D01*
X123115267Y-147161094D01*
X123205000Y-146709977D01*
X123205000Y-146250023D01*
X123115267Y-145798906D01*
X122939250Y-145373963D01*
X122683713Y-144991524D01*
X122358476Y-144666287D01*
X121976037Y-144410750D01*
X121551094Y-144234733D01*
X121099977Y-144145000D01*
X120640023Y-144145000D01*
X120188906Y-144234733D01*
X119763963Y-144410750D01*
X119381524Y-144666287D01*
X119056287Y-144991524D01*
X118800750Y-145373963D01*
X118624733Y-145798906D01*
X118535000Y-146250023D01*
X118455000Y-146250023D01*
X118455000Y-145831531D01*
X118326838Y-145187216D01*
X118075439Y-144580285D01*
X117710464Y-144034061D01*
X117245939Y-143569536D01*
X116699715Y-143204561D01*
X116092784Y-142953162D01*
X115448469Y-142825000D01*
X114791531Y-142825000D01*
X114147216Y-142953162D01*
X113540285Y-143204561D01*
X112994061Y-143569536D01*
X112529536Y-144034061D01*
X112164561Y-144580285D01*
X111913162Y-145187216D01*
X111785000Y-145831531D01*
X65005000Y-145831531D01*
X65005000Y-145762587D01*
X64849938Y-144983034D01*
X64545771Y-144248711D01*
X64104189Y-143587837D01*
X63724518Y-143208166D01*
X64851439Y-143208166D01*
X64886550Y-143421588D01*
X65090826Y-143512458D01*
X65308905Y-143561731D01*
X65532406Y-143567511D01*
X65752740Y-143529577D01*
X65961440Y-143449387D01*
X66013450Y-143421588D01*
X66048561Y-143208166D01*
X67411439Y-143208166D01*
X67446550Y-143421588D01*
X67650826Y-143512458D01*
X67868905Y-143561731D01*
X68092406Y-143567511D01*
X68312740Y-143529577D01*
X68521440Y-143449387D01*
X68573450Y-143421588D01*
X68608561Y-143208166D01*
X68010000Y-142609605D01*
X67411439Y-143208166D01*
X66048561Y-143208166D01*
X65450000Y-142609605D01*
X64851439Y-143208166D01*
X63724518Y-143208166D01*
X63542163Y-143025811D01*
X62881289Y-142584229D01*
X62707894Y-142512406D01*
X64312489Y-142512406D01*
X64350423Y-142732740D01*
X64430613Y-142941440D01*
X64458412Y-142993450D01*
X64671834Y-143028561D01*
X65270395Y-142430000D01*
X64671834Y-141831439D01*
X64458412Y-141866550D01*
X64367542Y-142070826D01*
X64318269Y-142288905D01*
X64312489Y-142512406D01*
X62707894Y-142512406D01*
X62146966Y-142280062D01*
X61367413Y-142125000D01*
X60572587Y-142125000D01*
X59793034Y-142280062D01*
X59058711Y-142584229D01*
X58397837Y-143025811D01*
X57835811Y-143587837D01*
X57394229Y-144248711D01*
X57090062Y-144983034D01*
X56935000Y-145762587D01*
X56571962Y-145762587D01*
X56567582Y-145740568D01*
X56376488Y-145279227D01*
X56099063Y-144864032D01*
X55745968Y-144510937D01*
X55330773Y-144233512D01*
X54869432Y-144042418D01*
X54379676Y-143945000D01*
X53880324Y-143945000D01*
X53390568Y-144042418D01*
X52929227Y-144233512D01*
X52514032Y-144510937D01*
X52160937Y-144864032D01*
X51883512Y-145279227D01*
X51692418Y-145740568D01*
X51595000Y-146230324D01*
X50410000Y-146230324D01*
X50410000Y-140648166D01*
X64851439Y-140648166D01*
X64886550Y-140861588D01*
X65090826Y-140952458D01*
X65308905Y-141001731D01*
X65532406Y-141007511D01*
X65656330Y-140986175D01*
X65645000Y-141043137D01*
X65645000Y-141256863D01*
X65656160Y-141312970D01*
X65591095Y-141298269D01*
X65367594Y-141292489D01*
X65147260Y-141330423D01*
X64938560Y-141410613D01*
X64886550Y-141438412D01*
X64851439Y-141651834D01*
X65450000Y-142250395D01*
X65464143Y-142236253D01*
X65643748Y-142415858D01*
X65629605Y-142430000D01*
X66228166Y-143028561D01*
X66441588Y-142993450D01*
X66532458Y-142789174D01*
X66581731Y-142571095D01*
X66587511Y-142347594D01*
X66566175Y-142223670D01*
X66623137Y-142235000D01*
X66836863Y-142235000D01*
X66892970Y-142223840D01*
X66878269Y-142288905D01*
X66872489Y-142512406D01*
X66910423Y-142732740D01*
X66990613Y-142941440D01*
X67018412Y-142993450D01*
X67231834Y-143028561D01*
X67830395Y-142430000D01*
X68189605Y-142430000D01*
X68788166Y-143028561D01*
X69001588Y-142993450D01*
X69092458Y-142789174D01*
X69141731Y-142571095D01*
X69147511Y-142347594D01*
X69109577Y-142127260D01*
X69029387Y-141918560D01*
X69001588Y-141866550D01*
X68788166Y-141831439D01*
X68189605Y-142430000D01*
X67830395Y-142430000D01*
X67816253Y-142415858D01*
X67995858Y-142236253D01*
X68010000Y-142250395D01*
X68608561Y-141651834D01*
X68573450Y-141438412D01*
X68369174Y-141347542D01*
X68151095Y-141298269D01*
X67927594Y-141292489D01*
X67803670Y-141313825D01*
X67815000Y-141256863D01*
X67815000Y-141043137D01*
X67803840Y-140987030D01*
X67868905Y-141001731D01*
X68092406Y-141007511D01*
X68312740Y-140969577D01*
X68521440Y-140889387D01*
X68573450Y-140861588D01*
X68608561Y-140648166D01*
X68010000Y-140049605D01*
X67995858Y-140063748D01*
X67816253Y-139884143D01*
X67830395Y-139870000D01*
X68189605Y-139870000D01*
X68788166Y-140468561D01*
X69001588Y-140433450D01*
X69092458Y-140229174D01*
X69141731Y-140011095D01*
X69147511Y-139787594D01*
X69109577Y-139567260D01*
X69029387Y-139358560D01*
X69001588Y-139306550D01*
X68788166Y-139271439D01*
X68189605Y-139870000D01*
X67830395Y-139870000D01*
X67231834Y-139271439D01*
X67018412Y-139306550D01*
X66927542Y-139510826D01*
X66878269Y-139728905D01*
X66872489Y-139952406D01*
X66893825Y-140076330D01*
X66836863Y-140065000D01*
X66623137Y-140065000D01*
X66567030Y-140076160D01*
X66581731Y-140011095D01*
X66587511Y-139787594D01*
X66549577Y-139567260D01*
X66469387Y-139358560D01*
X66441588Y-139306550D01*
X66228166Y-139271439D01*
X65629605Y-139870000D01*
X65643748Y-139884143D01*
X65464143Y-140063748D01*
X65450000Y-140049605D01*
X64851439Y-140648166D01*
X50410000Y-140648166D01*
X50410000Y-139952406D01*
X64312489Y-139952406D01*
X64350423Y-140172740D01*
X64430613Y-140381440D01*
X64458412Y-140433450D01*
X64671834Y-140468561D01*
X65270395Y-139870000D01*
X64671834Y-139271439D01*
X64458412Y-139306550D01*
X64367542Y-139510826D01*
X64318269Y-139728905D01*
X64312489Y-139952406D01*
X50410000Y-139952406D01*
X50410000Y-139091834D01*
X64851439Y-139091834D01*
X65450000Y-139690395D01*
X66048561Y-139091834D01*
X67411439Y-139091834D01*
X68010000Y-139690395D01*
X68608561Y-139091834D01*
X68573450Y-138878412D01*
X68369174Y-138787542D01*
X68151095Y-138738269D01*
X67927594Y-138732489D01*
X67707260Y-138770423D01*
X67498560Y-138850613D01*
X67446550Y-138878412D01*
X67411439Y-139091834D01*
X66048561Y-139091834D01*
X66013450Y-138878412D01*
X65809174Y-138787542D01*
X65591095Y-138738269D01*
X65367594Y-138732489D01*
X65147260Y-138770423D01*
X64938560Y-138850613D01*
X64886550Y-138878412D01*
X64851439Y-139091834D01*
X50410000Y-139091834D01*
X50410000Y-133911955D01*
X64508800Y-133911955D01*
X64508800Y-134128045D01*
X64550957Y-134339983D01*
X64633651Y-134539624D01*
X64753704Y-134719297D01*
X64906503Y-134872096D01*
X65086176Y-134992149D01*
X65285817Y-135074843D01*
X65497755Y-135117000D01*
X65713845Y-135117000D01*
X65925783Y-135074843D01*
X66125424Y-134992149D01*
X66305097Y-134872096D01*
X66457896Y-134719297D01*
X66577949Y-134539624D01*
X66660643Y-134339983D01*
X66702800Y-134128045D01*
X66702800Y-133911955D01*
X108857200Y-133911955D01*
X108857200Y-134128045D01*
X108899357Y-134339983D01*
X108982051Y-134539624D01*
X109102104Y-134719297D01*
X109254903Y-134872096D01*
X109434576Y-134992149D01*
X109634217Y-135074843D01*
X109846155Y-135117000D01*
X110062245Y-135117000D01*
X110274183Y-135074843D01*
X110473824Y-134992149D01*
X110653497Y-134872096D01*
X110806296Y-134719297D01*
X110926349Y-134539624D01*
X111009043Y-134339983D01*
X111051200Y-134128045D01*
X111051200Y-133911955D01*
X111009043Y-133700017D01*
X110926349Y-133500376D01*
X110806296Y-133320703D01*
X110653497Y-133167904D01*
X110473824Y-133047851D01*
X110274183Y-132965157D01*
X110062245Y-132923000D01*
X109846155Y-132923000D01*
X109634217Y-132965157D01*
X109434576Y-133047851D01*
X109254903Y-133167904D01*
X109102104Y-133320703D01*
X108982051Y-133500376D01*
X108899357Y-133700017D01*
X108857200Y-133911955D01*
X66702800Y-133911955D01*
X66660643Y-133700017D01*
X66577949Y-133500376D01*
X66457896Y-133320703D01*
X66305097Y-133167904D01*
X66125424Y-133047851D01*
X65925783Y-132965157D01*
X65713845Y-132923000D01*
X65497755Y-132923000D01*
X65285817Y-132965157D01*
X65086176Y-133047851D01*
X64906503Y-133167904D01*
X64753704Y-133320703D01*
X64633651Y-133500376D01*
X64550957Y-133700017D01*
X64508800Y-133911955D01*
X50410000Y-133911955D01*
X50410000Y-122661155D01*
X64718000Y-122661155D01*
X64718000Y-122877245D01*
X64760157Y-123089183D01*
X64842851Y-123288824D01*
X64962904Y-123468497D01*
X65115703Y-123621296D01*
X65295376Y-123741349D01*
X65495017Y-123824043D01*
X65706955Y-123866200D01*
X65923045Y-123866200D01*
X66134983Y-123824043D01*
X66334624Y-123741349D01*
X66514297Y-123621296D01*
X66667096Y-123468497D01*
X66787149Y-123288824D01*
X66869843Y-123089183D01*
X66912000Y-122877245D01*
X66912000Y-122661155D01*
X109368000Y-122661155D01*
X109368000Y-122877245D01*
X109410157Y-123089183D01*
X109492851Y-123288824D01*
X109612904Y-123468497D01*
X109765703Y-123621296D01*
X109945376Y-123741349D01*
X110145017Y-123824043D01*
X110356955Y-123866200D01*
X110573045Y-123866200D01*
X110784983Y-123824043D01*
X110984624Y-123741349D01*
X111164297Y-123621296D01*
X111317096Y-123468497D01*
X111437149Y-123288824D01*
X111519843Y-123089183D01*
X111562000Y-122877245D01*
X111562000Y-122661155D01*
X111519843Y-122449217D01*
X111437149Y-122249576D01*
X111317096Y-122069903D01*
X111164297Y-121917104D01*
X110984624Y-121797051D01*
X110784983Y-121714357D01*
X110573045Y-121672200D01*
X110356955Y-121672200D01*
X110145017Y-121714357D01*
X109945376Y-121797051D01*
X109765703Y-121917104D01*
X109612904Y-122069903D01*
X109492851Y-122249576D01*
X109410157Y-122449217D01*
X109368000Y-122661155D01*
X66912000Y-122661155D01*
X66869843Y-122449217D01*
X66787149Y-122249576D01*
X66667096Y-122069903D01*
X66514297Y-121917104D01*
X66334624Y-121797051D01*
X66134983Y-121714357D01*
X65923045Y-121672200D01*
X65706955Y-121672200D01*
X65495017Y-121714357D01*
X65295376Y-121797051D01*
X65115703Y-121917104D01*
X64962904Y-122069903D01*
X64842851Y-122249576D01*
X64760157Y-122449217D01*
X64718000Y-122661155D01*
X50410000Y-122661155D01*
X50410000Y-118389494D01*
X70647200Y-118389494D01*
X70647200Y-118490506D01*
X70666907Y-118589578D01*
X70705563Y-118682902D01*
X70761682Y-118766891D01*
X70833109Y-118838318D01*
X70917098Y-118894437D01*
X71010422Y-118933093D01*
X71109494Y-118952800D01*
X71210506Y-118952800D01*
X71309578Y-118933093D01*
X71402902Y-118894437D01*
X71486891Y-118838318D01*
X71558318Y-118766891D01*
X71614437Y-118682902D01*
X71653093Y-118589578D01*
X71672800Y-118490506D01*
X71672800Y-118389494D01*
X71653093Y-118290422D01*
X71614437Y-118197098D01*
X71558318Y-118113109D01*
X71486891Y-118041682D01*
X71402902Y-117985563D01*
X71309578Y-117946907D01*
X71210506Y-117927200D01*
X71109494Y-117927200D01*
X71010422Y-117946907D01*
X70917098Y-117985563D01*
X70833109Y-118041682D01*
X70761682Y-118113109D01*
X70705563Y-118197098D01*
X70666907Y-118290422D01*
X70647200Y-118389494D01*
X50410000Y-118389494D01*
X50410000Y-100310324D01*
X51595000Y-100310324D01*
X51595000Y-100809676D01*
X51692418Y-101299432D01*
X51883512Y-101760773D01*
X52160937Y-102175968D01*
X52514032Y-102529063D01*
X52929227Y-102806488D01*
X53390568Y-102997582D01*
X53880324Y-103095000D01*
X54379676Y-103095000D01*
X54869432Y-102997582D01*
X55330773Y-102806488D01*
X55745968Y-102529063D01*
X56099063Y-102175968D01*
X56376488Y-101760773D01*
X56567582Y-101299432D01*
X56665000Y-100809676D01*
X56665000Y-100310324D01*
X118335000Y-100310324D01*
X118335000Y-100809676D01*
X118432418Y-101299432D01*
X118623512Y-101760773D01*
X118900937Y-102175968D01*
X119254032Y-102529063D01*
X119669227Y-102806488D01*
X120130568Y-102997582D01*
X120620324Y-103095000D01*
X121119676Y-103095000D01*
X121609432Y-102997582D01*
X122070773Y-102806488D01*
X122485968Y-102529063D01*
X122839063Y-102175968D01*
X123116488Y-101760773D01*
X123307582Y-101299432D01*
X123405000Y-100809676D01*
X123405000Y-100310324D01*
X123307582Y-99820568D01*
X123116488Y-99359227D01*
X122839063Y-98944032D01*
X122485968Y-98590937D01*
X122070773Y-98313512D01*
X121609432Y-98122418D01*
X121119676Y-98025000D01*
X120620324Y-98025000D01*
X120130568Y-98122418D01*
X119669227Y-98313512D01*
X119254032Y-98590937D01*
X118900937Y-98944032D01*
X118623512Y-99359227D01*
X118432418Y-99820568D01*
X118335000Y-100310324D01*
X56665000Y-100310324D01*
X56567582Y-99820568D01*
X56376488Y-99359227D01*
X56099063Y-98944032D01*
X55745968Y-98590937D01*
X55330773Y-98313512D01*
X54869432Y-98122418D01*
X54379676Y-98025000D01*
X53880324Y-98025000D01*
X53390568Y-98122418D01*
X52929227Y-98313512D01*
X52514032Y-98590937D01*
X52160937Y-98944032D01*
X51883512Y-99359227D01*
X51692418Y-99820568D01*
X51595000Y-100310324D01*
X50410000Y-100310324D01*
X50410000Y-89969494D01*
X70507200Y-89969494D01*
X70507200Y-90070506D01*
X70526907Y-90169578D01*
X70565563Y-90262902D01*
X70621682Y-90346891D01*
X70693109Y-90418318D01*
X70777098Y-90474437D01*
X70870422Y-90513093D01*
X70969494Y-90532800D01*
X71070506Y-90532800D01*
X71169578Y-90513093D01*
X71262902Y-90474437D01*
X71346891Y-90418318D01*
X71418318Y-90346891D01*
X71474437Y-90262902D01*
X71513093Y-90169578D01*
X71532800Y-90070506D01*
X71532800Y-89969494D01*
X71513093Y-89870422D01*
X71474437Y-89777098D01*
X71418318Y-89693109D01*
X71346891Y-89621682D01*
X71262902Y-89565563D01*
X71169578Y-89526907D01*
X71070506Y-89507200D01*
X70969494Y-89507200D01*
X70870422Y-89526907D01*
X70777098Y-89565563D01*
X70693109Y-89621682D01*
X70621682Y-89693109D01*
X70565563Y-89777098D01*
X70526907Y-89870422D01*
X70507200Y-89969494D01*
X50410000Y-89969494D01*
X50410000Y-88849494D01*
X104897200Y-88849494D01*
X104897200Y-88950506D01*
X104916907Y-89049578D01*
X104955563Y-89142902D01*
X105011682Y-89226891D01*
X105083109Y-89298318D01*
X105167098Y-89354437D01*
X105260422Y-89393093D01*
X105359494Y-89412800D01*
X105460506Y-89412800D01*
X105559578Y-89393093D01*
X105652902Y-89354437D01*
X105736891Y-89298318D01*
X105808318Y-89226891D01*
X105864437Y-89142902D01*
X105903093Y-89049578D01*
X105922800Y-88950506D01*
X105922800Y-88849494D01*
X105903093Y-88750422D01*
X105864437Y-88657098D01*
X105808318Y-88573109D01*
X105736891Y-88501682D01*
X105652902Y-88445563D01*
X105559578Y-88406907D01*
X105460506Y-88387200D01*
X105359494Y-88387200D01*
X105260422Y-88406907D01*
X105167098Y-88445563D01*
X105083109Y-88501682D01*
X105011682Y-88573109D01*
X104955563Y-88657098D01*
X104916907Y-88750422D01*
X104897200Y-88849494D01*
X50410000Y-88849494D01*
X50410000Y-85398166D01*
X88681439Y-85398166D01*
X88716550Y-85611588D01*
X88920826Y-85702458D01*
X89138905Y-85751731D01*
X89362406Y-85757511D01*
X89582740Y-85719577D01*
X89791440Y-85639387D01*
X89843450Y-85611588D01*
X89878561Y-85398166D01*
X91241439Y-85398166D01*
X91276550Y-85611588D01*
X91480826Y-85702458D01*
X91698905Y-85751731D01*
X91922406Y-85757511D01*
X92142740Y-85719577D01*
X92351440Y-85639387D01*
X92403450Y-85611588D01*
X92438561Y-85398166D01*
X91840000Y-84799605D01*
X91241439Y-85398166D01*
X89878561Y-85398166D01*
X89280000Y-84799605D01*
X88681439Y-85398166D01*
X50410000Y-85398166D01*
X50410000Y-84702406D01*
X88142489Y-84702406D01*
X88180423Y-84922740D01*
X88260613Y-85131440D01*
X88288412Y-85183450D01*
X88501834Y-85218561D01*
X89100395Y-84620000D01*
X88501834Y-84021439D01*
X88288412Y-84056550D01*
X88197542Y-84260826D01*
X88148269Y-84478905D01*
X88142489Y-84702406D01*
X50410000Y-84702406D01*
X50410000Y-82838166D01*
X88681439Y-82838166D01*
X88716550Y-83051588D01*
X88920826Y-83142458D01*
X89138905Y-83191731D01*
X89362406Y-83197511D01*
X89486330Y-83176175D01*
X89475000Y-83233137D01*
X89475000Y-83446863D01*
X89486160Y-83502970D01*
X89421095Y-83488269D01*
X89197594Y-83482489D01*
X88977260Y-83520423D01*
X88768560Y-83600613D01*
X88716550Y-83628412D01*
X88681439Y-83841834D01*
X89280000Y-84440395D01*
X89294143Y-84426253D01*
X89473748Y-84605858D01*
X89459605Y-84620000D01*
X90058166Y-85218561D01*
X90271588Y-85183450D01*
X90362458Y-84979174D01*
X90411731Y-84761095D01*
X90417511Y-84537594D01*
X90396175Y-84413670D01*
X90453137Y-84425000D01*
X90666863Y-84425000D01*
X90722970Y-84413840D01*
X90708269Y-84478905D01*
X90702489Y-84702406D01*
X90740423Y-84922740D01*
X90820613Y-85131440D01*
X90848412Y-85183450D01*
X91061834Y-85218561D01*
X91660395Y-84620000D01*
X92019605Y-84620000D01*
X92618166Y-85218561D01*
X92831588Y-85183450D01*
X92922458Y-84979174D01*
X92971731Y-84761095D01*
X92977511Y-84537594D01*
X92939577Y-84317260D01*
X92859387Y-84108560D01*
X92831588Y-84056550D01*
X92618166Y-84021439D01*
X92019605Y-84620000D01*
X91660395Y-84620000D01*
X91646253Y-84605858D01*
X91825858Y-84426253D01*
X91840000Y-84440395D01*
X92438561Y-83841834D01*
X92403450Y-83628412D01*
X92199174Y-83537542D01*
X91981095Y-83488269D01*
X91757594Y-83482489D01*
X91633670Y-83503825D01*
X91645000Y-83446863D01*
X91645000Y-83233137D01*
X91633840Y-83177030D01*
X91698905Y-83191731D01*
X91922406Y-83197511D01*
X92142740Y-83159577D01*
X92351440Y-83079387D01*
X92403450Y-83051588D01*
X92438561Y-82838166D01*
X91840000Y-82239605D01*
X91825858Y-82253748D01*
X91646253Y-82074143D01*
X91660395Y-82060000D01*
X92019605Y-82060000D01*
X92618166Y-82658561D01*
X92831588Y-82623450D01*
X92922458Y-82419174D01*
X92971731Y-82201095D01*
X92977511Y-81977594D01*
X92939577Y-81757260D01*
X92859387Y-81548560D01*
X92831588Y-81496550D01*
X92618166Y-81461439D01*
X92019605Y-82060000D01*
X91660395Y-82060000D01*
X91061834Y-81461439D01*
X90848412Y-81496550D01*
X90757542Y-81700826D01*
X90708269Y-81918905D01*
X90702489Y-82142406D01*
X90723825Y-82266330D01*
X90666863Y-82255000D01*
X90453137Y-82255000D01*
X90397030Y-82266160D01*
X90411731Y-82201095D01*
X90417511Y-81977594D01*
X90379577Y-81757260D01*
X90299387Y-81548560D01*
X90271588Y-81496550D01*
X90058166Y-81461439D01*
X89459605Y-82060000D01*
X89473748Y-82074143D01*
X89294143Y-82253748D01*
X89280000Y-82239605D01*
X88681439Y-82838166D01*
X50410000Y-82838166D01*
X50410000Y-82142406D01*
X88142489Y-82142406D01*
X88180423Y-82362740D01*
X88260613Y-82571440D01*
X88288412Y-82623450D01*
X88501834Y-82658561D01*
X89100395Y-82060000D01*
X88501834Y-81461439D01*
X88288412Y-81496550D01*
X88197542Y-81700826D01*
X88148269Y-81918905D01*
X88142489Y-82142406D01*
X50410000Y-82142406D01*
X50410000Y-81281834D01*
X88681439Y-81281834D01*
X89280000Y-81880395D01*
X89878561Y-81281834D01*
X91241439Y-81281834D01*
X91840000Y-81880395D01*
X92438561Y-81281834D01*
X92403450Y-81068412D01*
X92199174Y-80977542D01*
X91981095Y-80928269D01*
X91757594Y-80922489D01*
X91537260Y-80960423D01*
X91328560Y-81040613D01*
X91276550Y-81068412D01*
X91241439Y-81281834D01*
X89878561Y-81281834D01*
X89843450Y-81068412D01*
X89639174Y-80977542D01*
X89421095Y-80928269D01*
X89197594Y-80922489D01*
X88977260Y-80960423D01*
X88768560Y-81040613D01*
X88716550Y-81068412D01*
X88681439Y-81281834D01*
X50410000Y-81281834D01*
X50410000Y-78312755D01*
X64718000Y-78312755D01*
X64718000Y-78528845D01*
X64760157Y-78740783D01*
X64842851Y-78940424D01*
X64962904Y-79120097D01*
X65115703Y-79272896D01*
X65295376Y-79392949D01*
X65495017Y-79475643D01*
X65706955Y-79517800D01*
X65923045Y-79517800D01*
X66134983Y-79475643D01*
X66334624Y-79392949D01*
X66514297Y-79272896D01*
X66667096Y-79120097D01*
X66787149Y-78940424D01*
X66869843Y-78740783D01*
X66912000Y-78528845D01*
X66912000Y-78312755D01*
X109368000Y-78312755D01*
X109368000Y-78528845D01*
X109410157Y-78740783D01*
X109492851Y-78940424D01*
X109612904Y-79120097D01*
X109765703Y-79272896D01*
X109945376Y-79392949D01*
X110145017Y-79475643D01*
X110356955Y-79517800D01*
X110573045Y-79517800D01*
X110784983Y-79475643D01*
X110984624Y-79392949D01*
X111164297Y-79272896D01*
X111317096Y-79120097D01*
X111437149Y-78940424D01*
X111519843Y-78740783D01*
X111562000Y-78528845D01*
X111562000Y-78312755D01*
X111519843Y-78100817D01*
X111437149Y-77901176D01*
X111317096Y-77721503D01*
X111164297Y-77568704D01*
X110984624Y-77448651D01*
X110784983Y-77365957D01*
X110573045Y-77323800D01*
X110356955Y-77323800D01*
X110145017Y-77365957D01*
X109945376Y-77448651D01*
X109765703Y-77568704D01*
X109612904Y-77721503D01*
X109492851Y-77901176D01*
X109410157Y-78100817D01*
X109368000Y-78312755D01*
X66912000Y-78312755D01*
X66869843Y-78100817D01*
X66787149Y-77901176D01*
X66667096Y-77721503D01*
X66514297Y-77568704D01*
X66334624Y-77448651D01*
X66134983Y-77365957D01*
X65923045Y-77323800D01*
X65706955Y-77323800D01*
X65495017Y-77365957D01*
X65295376Y-77448651D01*
X65115703Y-77568704D01*
X64962904Y-77721503D01*
X64842851Y-77901176D01*
X64760157Y-78100817D01*
X64718000Y-78312755D01*
X50410000Y-78312755D01*
X50410000Y-60546955D01*
X64473800Y-60546955D01*
X64473800Y-60763045D01*
X64515957Y-60974983D01*
X64598651Y-61174624D01*
X64718704Y-61354297D01*
X64871503Y-61507096D01*
X65051176Y-61627149D01*
X65250817Y-61709843D01*
X65462755Y-61752000D01*
X65678845Y-61752000D01*
X65890783Y-61709843D01*
X66090424Y-61627149D01*
X66270097Y-61507096D01*
X66422896Y-61354297D01*
X66542949Y-61174624D01*
X66625643Y-60974983D01*
X66667800Y-60763045D01*
X66667800Y-60546955D01*
X108822200Y-60546955D01*
X108822200Y-60763045D01*
X108864357Y-60974983D01*
X108947051Y-61174624D01*
X109067104Y-61354297D01*
X109219903Y-61507096D01*
X109399576Y-61627149D01*
X109599217Y-61709843D01*
X109811155Y-61752000D01*
X110027245Y-61752000D01*
X110239183Y-61709843D01*
X110438824Y-61627149D01*
X110618497Y-61507096D01*
X110771296Y-61354297D01*
X110891349Y-61174624D01*
X110974043Y-60974983D01*
X111016200Y-60763045D01*
X111016200Y-60546955D01*
X110974043Y-60335017D01*
X110891349Y-60135376D01*
X110771296Y-59955703D01*
X110618497Y-59802904D01*
X110438824Y-59682851D01*
X110239183Y-59600157D01*
X110027245Y-59558000D01*
X109811155Y-59558000D01*
X109599217Y-59600157D01*
X109399576Y-59682851D01*
X109219903Y-59802904D01*
X109067104Y-59955703D01*
X108947051Y-60135376D01*
X108864357Y-60335017D01*
X108822200Y-60546955D01*
X66667800Y-60546955D01*
X66625643Y-60335017D01*
X66542949Y-60135376D01*
X66422896Y-59955703D01*
X66270097Y-59802904D01*
X66090424Y-59682851D01*
X65890783Y-59600157D01*
X65678845Y-59558000D01*
X65462755Y-59558000D01*
X65250817Y-59600157D01*
X65051176Y-59682851D01*
X64871503Y-59802904D01*
X64718704Y-59955703D01*
X64598651Y-60135376D01*
X64515957Y-60335017D01*
X64473800Y-60546955D01*
X50410000Y-60546955D01*
X50410000Y-54380324D01*
X51595000Y-54380324D01*
X51595000Y-54879676D01*
X51692418Y-55369432D01*
X51883512Y-55830773D01*
X52160937Y-56245968D01*
X52514032Y-56599063D01*
X52929227Y-56876488D01*
X53390568Y-57067582D01*
X53880324Y-57165000D01*
X54379676Y-57165000D01*
X54869432Y-57067582D01*
X55330773Y-56876488D01*
X55745968Y-56599063D01*
X56099063Y-56245968D01*
X56376488Y-55830773D01*
X56567582Y-55369432D01*
X56665000Y-54879676D01*
X56665000Y-54380324D01*
X56567582Y-53890568D01*
X56376488Y-53429227D01*
X56099063Y-53014032D01*
X55745968Y-52660937D01*
X55330773Y-52383512D01*
X54869432Y-52192418D01*
X54379676Y-52095000D01*
X53880324Y-52095000D01*
X53390568Y-52192418D01*
X52929227Y-52383512D01*
X52514032Y-52660937D01*
X52160937Y-53014032D01*
X51883512Y-53429227D01*
X51692418Y-53890568D01*
X51595000Y-54380324D01*
X50410000Y-54380324D01*
X50410000Y-50410000D01*
X59020142Y-50410000D01*
X58397837Y-50825811D01*
G37*
%TD.AperFunction*%
M02*
